mtllib base.mtl
usemtl Rubber_Black_002_COLOR_0
v -0.01301240 0.07376206 0.08663005
v -0.01301240 0.07376206 0.08663005
v -0.01301240 0.07376206 0.08663005
v 0.00072357 -0.00040893 0.08663005
v 0.00072357 -0.00040893 0.08663005
v 0.00072357 -0.00040893 0.08663005
v 0.00072357 -0.00040893 0.08663005
v 0.00072357 -0.00040893 0.08663005
v 0.00072357 -0.00040893 0.08663005
v 0.00072357 -0.00040893 0.08663005
v 0.00072357 -0.00040893 0.08663005
v -0.02562290 0.07037604 0.08663005
v -0.02562290 0.07037604 0.08663005
v -0.02562290 0.07037604 0.08663005
v -0.03746455 0.06485784 0.08663005
v -0.03746455 0.06485784 0.08663005
v -0.03746455 0.06485784 0.08663005
v -0.04816246 0.05737210 0.08663005
v -0.04816246 0.05737210 0.08663005
v -0.04816246 0.05737210 0.08663005
v -0.05739605 0.04812926 0.08663005
v -0.05739605 0.04812926 0.08663005
v -0.05739605 0.04812926 0.08663005
v -0.06488180 0.03743147 0.08663005
v -0.06488180 0.03743147 0.08663005
v -0.06488180 0.03743147 0.08663005
v -0.07040917 0.02559895 0.08663005
v -0.07040917 0.02559895 0.08663005
v -0.07040917 0.02559895 0.08663005
v -0.07378596 0.01297927 0.08663005
v -0.07378596 0.01297927 0.08663005
v -0.07492077 -0.00002458 0.08663005
v -0.07492077 -0.00002458 0.08663005
v -0.07378596 -0.01303767 0.08663005
v -0.07378596 -0.01303767 0.08663005
v -0.07040917 -0.02564804 0.08663005
v -0.07040917 -0.02564804 0.08663005
v -0.06488180 -0.03748982 0.08663005
v -0.06488180 -0.03748982 0.08663005
v -0.05739605 -0.04818760 0.08663005
v -0.05739605 -0.04818760 0.08663005
v -0.04816246 -0.05742119 0.08663005
v -0.04816246 -0.05742119 0.08663005
v -0.03746455 -0.06491618 0.08663005
v -0.03746455 -0.06491618 0.08663005
v -0.03746455 -0.06491618 0.08663005
v -0.02562290 -0.07043438 0.08663005
v -0.02562290 -0.07043438 0.08663005
v -0.01301240 -0.07381116 0.08663005
v -0.01301240 -0.07381116 0.08663005
v 0.00000063 -0.07494597 0.08663005
v 0.00000063 -0.07494597 0.08663005
v 0.01301372 -0.07381116 0.08663005
v 0.01301372 -0.07381116 0.08663005
v 0.02562415 -0.07043438 0.08663005
v 0.02562415 -0.07043438 0.08663005
v 0.03746587 -0.06491618 0.08663005
v 0.03746587 -0.06491618 0.08663005
v 0.04816371 -0.05742119 0.08663005
v 0.04816371 -0.05742119 0.08663005
v 0.05739730 -0.04818760 0.08663005
v 0.05739730 -0.04818760 0.08663005
v 0.06488305 -0.03748982 0.08663005
v 0.06488305 -0.03748982 0.08663005
v 0.06488305 -0.03748982 0.08663005
v 0.07040125 -0.02564804 0.08663005
v 0.07040125 -0.02564804 0.08663005
v 0.07040125 -0.02564804 0.08663005
v 0.07378721 -0.01303767 0.08663005
v 0.07378721 -0.01303767 0.08663005
v 0.07378721 -0.01303767 0.08663005
v 0.07492196 -0.00002458 0.08663005
v 0.07492196 -0.00002458 0.08663005
v 0.07492196 -0.00002458 0.08663005
v 0.07378721 0.01297927 0.08663005
v 0.07378721 0.01297927 0.08663005
v 0.07040125 0.02559895 0.08663005
v 0.07040125 0.02559895 0.08663005
v 0.06488305 0.03743147 0.08663005
v 0.06488305 0.03743147 0.08663005
v 0.05739730 0.04812926 0.08663005
v 0.05739730 0.04812926 0.08663005
v 0.04816371 0.05737210 0.08663005
v 0.04816371 0.05737210 0.08663005
v 0.03746587 0.06485784 0.08663005
v 0.03746587 0.06485784 0.08663005
v 0.03746587 0.06485784 0.08663005
v 0.02562415 0.07037604 0.08663005
v 0.02562415 0.07037604 0.08663005
v 0.02562415 0.07037604 0.08663005
v 0.01301372 0.07376206 0.08663005
v 0.01301372 0.07376206 0.08663005
v 0.00000063 0.07489682 0.08663005
v 0.00000063 0.07489682 0.08663005
v 0.00000063 0.07489682 0.08663005
v 0.00000063 0.07488764 0.10639679
v 0.00000063 0.07488764 0.10639679
v -0.01301240 0.07374370 0.10639679
v -0.01301240 0.07374370 0.10639679
v -0.01301240 0.07374370 0.10639679
v -0.02564120 0.07036692 0.10639679
v -0.02564120 0.07036692 0.10639679
v -0.02564120 0.07036692 0.10639679
v -0.03748285 0.06483954 0.10639679
v -0.03748285 0.06483954 0.10639679
v -0.03748285 0.06483954 0.10639679
v -0.04818069 0.05735379 0.10639679
v -0.04818069 0.05735379 0.10639679
v -0.04818069 0.05735379 0.10639679
v -0.05742353 0.04811095 0.10639679
v -0.05742353 0.04811095 0.10639679
v -0.05742353 0.04811095 0.10639679
v -0.06491839 0.03740400 0.10639679
v -0.06491839 0.03740400 0.10639679
v -0.07043665 0.02556235 0.10639679
v -0.07043665 0.02556235 0.10639679
v -0.07382261 0.01294267 0.10639679
v -0.07382261 0.01294267 0.10639679
v -0.07495737 -0.00007034 0.10639679
v -0.07495737 -0.00007034 0.10639679
v -0.07382261 -0.01308339 0.10639679
v -0.07382261 -0.01308339 0.10639679
v -0.07043665 -0.02571212 0.10639679
v -0.07043665 -0.02571212 0.10639679
v -0.06491839 -0.03755384 0.10639679
v -0.06491839 -0.03755384 0.10639679
v -0.05742353 -0.04825168 0.10639679
v -0.05742353 -0.04825168 0.10639679
v -0.04818069 -0.05749445 0.10639679
v -0.04818069 -0.05749445 0.10639679
v -0.03748285 -0.06498938 0.10639679
v -0.03748285 -0.06498938 0.10639679
v -0.03748285 -0.06498938 0.10639679
v -0.02564120 -0.07050757 0.10639679
v -0.02564120 -0.07050757 0.10639679
v -0.01301240 -0.07389353 0.10639679
v -0.01301240 -0.07389353 0.10639679
v 0.00000063 -0.07502829 0.10639679
v 0.00000063 -0.07502829 0.10639679
v 0.01301372 -0.07389353 0.10639679
v 0.01301372 -0.07389353 0.10639679
v 0.02563327 -0.07050757 0.10639679
v 0.02563327 -0.07050757 0.10639679
v 0.03747493 -0.06498938 0.10639679
v 0.03747493 -0.06498938 0.10639679
v 0.04818201 -0.05749445 0.10639679
v 0.04818201 -0.05749445 0.10639679
v 0.05742478 -0.04825168 0.10639679
v 0.05742478 -0.04825168 0.10639679
v 0.06491053 -0.03755384 0.10639679
v 0.06491053 -0.03755384 0.10639679
v 0.06491053 -0.03755384 0.10639679
v 0.07043784 -0.02571212 0.10639679
v 0.07043784 -0.02571212 0.10639679
v 0.07043784 -0.02571212 0.10639679
v 0.07381469 -0.01308339 0.10639679
v 0.07381469 -0.01308339 0.10639679
v 0.07495862 -0.00007034 0.10639679
v 0.07495862 -0.00007034 0.10639679
v 0.07381469 0.01294267 0.10639679
v 0.07381469 0.01294267 0.10639679
v 0.07043784 0.02556235 0.10639679
v 0.07043784 0.02556235 0.10639679
v 0.06491053 0.03740400 0.10639679
v 0.06491053 0.03740400 0.10639679
v 0.05742478 0.04811095 0.10639679
v 0.05742478 0.04811095 0.10639679
v 0.05742478 0.04811095 0.10639679
v 0.04818201 0.05735379 0.10639679
v 0.04818201 0.05735379 0.10639679
v 0.04818201 0.05735379 0.10639679
v 0.03747493 0.06483954 0.10639679
v 0.03747493 0.06483954 0.10639679
v 0.03747493 0.06483954 0.10639679
v 0.02563327 0.07036692 0.10639679
v 0.02563327 0.07036692 0.10639679
v 0.02563327 0.07036692 0.10639679
v 0.01301372 0.07374370 0.10639679
v 0.01301372 0.07374370 0.10639679
v 0.01301372 0.07374370 0.10639679
v 0.00000063 -0.00007034 0.10639679
v 0.00000063 -0.00007034 0.10639679
v 0.00000063 -0.00007034 0.10639679
v 0.00000063 -0.00007034 0.10639679
v 0.00000063 -0.00007034 0.10639679
v 0.00000063 -0.00007034 0.10639679
v 0.00000063 -0.00007034 0.10639679
v 0.00000063 -0.00007034 0.10639679
v 0.00000063 -0.00007034 0.10639679
vn 0.00000000 -0.00000000 -1.00000000
vn -0.17322721 0.98488188 0.00003311
vn -0.00000015 0.00000000 -1.00000000
vn 0.00000047 -0.00000000 -1.00000000
vn -0.00000015 0.00000000 -1.00000000
vn 0.00000000 -0.00000000 -1.00000000
vn -0.00000095 0.00000000 -1.00000000
vn 0.00000012 -0.00000000 -1.00000000
vn 0.00000024 -0.00000000 -1.00000000
vn 0.00000024 -0.00000000 -1.00000000
vn 0.00000095 -0.00000000 -1.00000000
vn -0.34190890 0.93973303 0.00033513
vn 0.00000000 -0.00000000 -1.00000000
vn 0.00000095 -0.00000000 -1.00000000
vn 0.00000000 -0.00000000 -1.00000000
vn 0.00000095 -0.00000000 -1.00000000
vn -0.49952009 0.86630231 0.00006691
vn 0.00000047 -0.00000000 -1.00000000
vn -0.64280278 0.76603180 0.00011442
vn 0.00000000 -0.00000000 -1.00000000
vn 0.00000047 -0.00000000 -1.00000000
vn 0.00000000 -0.00000000 -1.00000000
vn -0.76584190 0.64302892 -0.00010717
vn 0.00000000 -0.00000000 -1.00000000
vn 0.00000024 -0.00000000 -1.00000000
vn -0.86560941 0.50072002 -0.00025387
vn 0.00000000 -0.00000000 -1.00000000
vn 0.00000024 -0.00000000 -1.00000000
vn -0.93957132 0.34235141 -0.00112313
vn 0.00000000 -0.00000000 -1.00000000
vn -0.98481309 0.17361260 -0.00136292
vn 0.00000000 -0.00000000 -1.00000000
vn -0.99999827 0.00014653 -0.00186491
vn -0.98486268 -0.17332250 -0.00222623
vn 0.00000000 -0.00000000 -1.00000000
vn -0.93968111 -0.34204301 -0.00248003
vn 0.00000000 -0.00000000 -1.00000000
vn -0.86611497 -0.49983519 -0.00309122
vn 0.00000000 -0.00000000 -1.00000000
vn -0.76592392 -0.64292490 -0.00288695
vn 0.00000000 -0.00000000 -1.00000000
vn -0.64301801 -0.76584619 -0.00274080
vn 0.00000000 -0.00000000 -1.00000000
vn 0.00000000 -0.00000000 -1.00000000
vn -0.49942690 -0.86634678 -0.00399882
vn -0.49949411 -0.86630821 -0.00400573
vn -0.34184289 -0.93974948 -0.00379568
vn 0.00000000 -0.00000000 -1.00000000
vn -0.17375760 -0.98478228 -0.00348997
vn 0.00000000 -0.00000000 -1.00000000
vn 0.00000017 -0.99999142 -0.00416553
vn 0.00000000 -0.00000000 -1.00000000
vn 0.17378610 -0.98477781 -0.00332385
vn 0.00000000 -0.00000000 -1.00000000
vn 0.34195191 -0.93971008 -0.00374067
vn 0.00000000 -0.00000000 -1.00000000
vn 0.00000000 -0.00000000 -1.00000000
vn 0.49971899 -0.86617970 -0.00372368
vn 0.00000000 -0.00000000 -1.00000000
vn 0.64303517 -0.76583147 -0.00277883
vn 0.00000000 -0.00000000 -1.00000000
vn 0.76593572 -0.64291102 -0.00286305
vn 0.00000000 -0.00000000 -1.00000000
vn 0.00000024 -0.00000000 -1.00000000
vn 0.86592782 -0.50016171 -0.00272930
vn 0.00000000 -0.00000000 -1.00000000
vn 0.00000024 -0.00000000 -1.00000000
vn 0.93985051 -0.34157619 -0.00261521
vn 0.00000012 -0.00000000 -1.00000000
vn 0.98483872 -0.17346141 -0.00198591
vn 0.00000000 -0.00000000 -1.00000000
vn 0.00000012 -0.00000000 -1.00000000
vn 0.00000000 -0.00000000 -1.00000000
vn 0.99999863 0.00002802 -0.00170892
vn 0.00000000 -0.00000000 -1.00000000
vn 0.98475689 0.17393260 -0.00117993
vn 0.00000000 -0.00000000 -1.00000000
vn 0.93954301 0.34242871 -0.00121540
vn 0.86570430 0.50055581 -0.00024467
vn 0.00000000 -0.00000000 -1.00000000
vn 0.00000000 -0.00000000 -1.00000000
vn 0.76570582 0.64319098 -0.00000448
vn 0.00000000 -0.00000000 -1.00000000
vn 0.64273268 0.76609057 0.00001085
vn -0.00000095 0.00000000 -1.00000000
vn 0.00000000 -0.00000000 -1.00000000
vn 0.49946389 0.86633468 0.00021319
vn 0.34222671 0.93961728 0.00040813
vn -0.00000095 0.00000000 -1.00000000
vn 0.00000000 -0.00000000 -1.00000000
vn 0.17317200 0.98489171 -0.00004692
vn 0.00000000 -0.00000000 -1.00000000
vn -0.00000015 0.00000000 -1.00000000
vn 0.00013062 0.99999988 0.00061020
vn 0.00000000 -0.00000000 -1.00000000
vn 0.00000256 0.99999940 0.00109011
vn 0.00000000 -0.00000000 1.00000000
vn 0.00000095 -0.00000000 1.00000000
vn -0.17341520 0.98484892 0.00024352
vn 0.00000000 -0.00000000 1.00000000
vn 0.00000095 -0.00000000 1.00000000
vn -0.00000095 -0.00000000 1.00000000
vn -0.34189650 0.93973768 0.00024982
vn 0.00000000 -0.00000000 1.00000000
vn -0.49953559 0.86629349 0.00007131
vn -0.00000095 -0.00000000 1.00000000
vn -0.00000095 -0.00000000 1.00000000
vn 0.00000000 -0.00000000 1.00000000
vn -0.64279503 0.76603818 0.00001084
vn 0.00000000 -0.00000000 1.00000000
vn -0.76579988 0.64307892 -0.00010903
vn -0.00000095 -0.00000000 1.00000000
vn 0.00000000 -0.00000000 1.00000000
vn -0.86561757 0.50070572 -0.00009153
vn -0.94002730 0.34109750 -0.00114930
vn 0.00000000 -0.00000000 1.00000000
vn -0.98482102 0.17356700 -0.00149113
vn 0.00000000 -0.00000000 1.00000000
vn -0.99999827 -0.00012852 -0.00185275
vn 0.00000000 -0.00000000 1.00000000
vn -0.98480809 -0.17363350 -0.00216168
vn 0.00000000 -0.00000000 1.00000000
vn -0.93961722 -0.34221789 -0.00254679
vn 0.00000000 -0.00000000 1.00000000
vn 0.00000000 -0.00000000 1.00000000
vn -0.86582881 -0.50033277 -0.00278854
vn -0.76589948 -0.64295268 -0.00314701
vn 0.00000000 -0.00000000 1.00000000
vn -0.64304692 -0.76582241 -0.00264406
vn 0.00000000 -0.00000000 1.00000000
vn 0.00000000 -0.00000000 1.00000000
vn -0.49949440 -0.86630791 -0.00400198
vn -0.49950981 -0.86629921 -0.00399518
vn 0.00000000 -0.00000000 1.00000000
vn -0.34189391 -0.93973070 -0.00386208
vn -0.17371079 -0.98479009 -0.00363684
vn 0.00000000 -0.00000000 1.00000000
vn 0.00000000 -0.00000000 1.00000000
vn 0.00000122 -0.99999130 -0.00416565
vn 0.00000000 -0.00000000 1.00000000
vn 0.17373490 -0.98478609 -0.00354373
vn 0.34201351 -0.93968803 -0.00363701
vn 0.00000000 -0.00000000 1.00000000
vn 0.49963739 -0.86622632 -0.00379741
vn 0.00000000 -0.00000000 1.00000000
vn 0.64302981 -0.76583612 -0.00280058
vn 0.00000000 -0.00000000 1.00000000
vn 0.76608407 -0.64273268 -0.00314730
vn 0.00000000 -0.00000000 1.00000000
vn 0.00000048 -0.00000000 1.00000000
vn 0.86566591 -0.50061601 -0.00254780
vn 0.00000000 -0.00000000 1.00000000
vn 0.00000048 -0.00000000 1.00000000
vn 0.00000000 -0.00000000 1.00000000
vn 0.93943870 -0.34270829 -0.00250143
vn 0.00000000 -0.00000000 1.00000000
vn 0.98481381 -0.17359990 -0.00226301
vn 0.99999809 -0.00001595 -0.00198197
vn 0.00000000 -0.00000000 1.00000000
vn 0.98479837 0.17369710 -0.00118750
vn 0.00000000 -0.00000000 1.00000000
vn 0.00000000 -0.00000000 1.00000000
vn 0.94001740 0.34112439 -0.00119638
vn 0.86561590 0.50070858 -0.00007047
vn 0.00000000 -0.00000000 1.00000000
vn 0.00000095 -0.00000000 1.00000000
vn 0.00000000 -0.00000000 1.00000000
vn 0.76591450 0.64294261 -0.00007624
vn 0.00000095 -0.00000000 1.00000000
vn 0.64262670 0.76617950 0.00019855
vn -0.00000095 -0.00000000 1.00000000
vn 0.49921280 0.86647952 0.00001347
vn 0.00000095 -0.00000000 1.00000000
vn -0.00000095 -0.00000000 1.00000000
vn 0.00000095 -0.00000000 1.00000000
vn -0.00000095 -0.00000000 1.00000000
vn 0.34222010 0.93961978 0.00045571
vn 0.17356449 0.98482221 0.00076900
vn -0.00000095 -0.00000000 1.00000000
vn 0.00000000 -0.00000000 1.00000000
vn -0.00000095 -0.00000000 1.00000000
vn 0.00000095 -0.00000000 1.00000000
vn -0.00000095 -0.00000000 1.00000000
vn 0.00000095 -0.00000000 1.00000000
vn -0.00000095 -0.00000000 1.00000000
vn 0.00000095 -0.00000000 1.00000000
vn -0.00000095 -0.00000000 1.00000000
vn 0.00000000 -0.00000000 1.00000000
vn 0.00000048 -0.00000000 1.00000000
vt 0.85997862 0.73598373
vt 0.20442189 0.39123359
vt 0.85997862 0.73598373
vt 0.83709651 0.68805063
vt 0.83709651 0.68805063
vt 0.83709651 0.68805063
vt 0.83709651 0.68805063
vt 0.83709651 0.68805063
vt 0.83709651 0.68805063
vt 0.83709651 0.68805063
vt 0.83709651 0.68805063
vt 0.21363990 0.39123359
vt 0.86789519 0.73142898
vt 0.86789519 0.73142898
vt 0.87494421 0.72546452
vt 0.87494421 0.72546452
vt 0.22285780 0.39123359
vt 0.88090873 0.71841550
vt 0.23196730 0.39123359
vt 0.88090873 0.71841550
vt 0.88546348 0.71049893
vt 0.88546348 0.71049893
vt 0.24118520 0.39123359
vt 0.88860840 0.70182318
vt 0.88860840 0.70182318
vt 0.25040311 0.39123359
vt 0.89023513 0.69282222
vt 0.89023513 0.69282222
vt 0.25962099 0.39123359
vt 0.89023513 0.68360430
vt 0.26883900 0.39123359
vt 0.88860840 0.67449480
vt 0.27805689 0.39123359
vt 0.28727481 0.39123359
vt 0.88546348 0.66581911
vt 0.29638431 0.39123359
vt 0.88090873 0.65790248
vt 0.30560219 0.39123359
vt 0.87494421 0.65085357
vt 0.31482011 0.39123359
vt 0.86789519 0.64488900
vt 0.32403800 0.39123359
vt 0.85997862 0.64033431
vt 0.85130298 0.63718939
vt 0.00195312 0.39123359
vt 0.33325601 0.39123359
vt 0.01117104 0.39123359
vt 0.84230191 0.63556272
vt 0.02038896 0.39123359
vt 0.83308399 0.63556272
vt 0.02960681 0.39123359
vt 0.82397461 0.63718939
vt 0.03871625 0.39123359
vt 0.81529891 0.64033431
vt 0.04793423 0.39123359
vt 0.80738229 0.64488900
vt 0.80033332 0.65085357
vt 0.05715215 0.39123359
vt 0.79436880 0.65790248
vt 0.06637006 0.39123359
vt 0.78981400 0.66581911
vt 0.07558798 0.39123359
vt 0.78666908 0.67449480
vt 0.78666908 0.67449480
vt 0.08480590 0.39123359
vt 0.78504240 0.68360430
vt 0.78504240 0.68360430
vt 0.09402382 0.39123359
vt 0.78504240 0.69282222
vt 0.10313330 0.39123359
vt 0.78504240 0.69282222
vt 0.78666908 0.70182318
vt 0.78666908 0.70182318
vt 0.11235120 0.39123359
vt 0.78981400 0.71049893
vt 0.12156920 0.39123359
vt 0.79436880 0.71841550
vt 0.13078710 0.39123359
vt 0.14000490 0.39123359
vt 0.80033332 0.72546452
vt 0.80738229 0.73142898
vt 0.14922290 0.39123359
vt 0.81529891 0.73598373
vt 0.15844080 0.39123359
vt 0.82397461 0.73912871
vt 0.82397461 0.73912871
vt 0.16755030 0.39123359
vt 0.17676820 0.39123359
vt 0.83308399 0.74075538
vt 0.83308399 0.74075538
vt 0.18598610 0.39123359
vt 0.84230191 0.74075538
vt 0.85130298 0.73912871
vt 0.19520401 0.39123359
vt 0.85130298 0.73912871
vt 0.19520401 0.40522310
vt 0.47206691 0.73804432
vt 0.46621090 0.73099518
vt 0.20442189 0.40522310
vt 0.46621090 0.73099518
vt 0.46154770 0.72307873
vt 0.46154770 0.72307873
vt 0.21363990 0.40522310
vt 0.45840281 0.71440297
vt 0.22285780 0.40522310
vt 0.45840281 0.71440297
vt 0.45677599 0.70529348
vt 0.45677599 0.70529348
vt 0.23196730 0.40522310
vt 0.45677599 0.69607562
vt 0.24118520 0.40522310
vt 0.45677599 0.69607562
vt 0.45840281 0.68707460
vt 0.25040311 0.40522310
vt 0.25962099 0.40522310
vt 0.46154770 0.67839891
vt 0.26883900 0.40522310
vt 0.46621090 0.67048228
vt 0.27805689 0.40522310
vt 0.47206691 0.66343331
vt 0.28727481 0.40522310
vt 0.47911599 0.65746880
vt 0.29638431 0.40522310
vt 0.48714101 0.65291411
vt 0.49581671 0.64976913
vt 0.30560219 0.40522310
vt 0.31482011 0.40522310
vt 0.50481772 0.64814240
vt 0.32403800 0.40522310
vt 0.51403558 0.64814240
vt 0.52314508 0.64976913
vt 0.33325601 0.40522310
vt 0.00195312 0.40522310
vt 0.53171229 0.65291411
vt 0.01117104 0.40522310
vt 0.02038896 0.40522310
vt 0.53973740 0.65746880
vt 0.54678631 0.66343331
vt 0.02960681 0.40522310
vt 0.55264240 0.67048228
vt 0.03871625 0.40522310
vt 0.04793423 0.40522310
vt 0.55730557 0.67839891
vt 0.05715215 0.40522310
vt 0.56045049 0.68707460
vt 0.06637006 0.40522310
vt 0.56207722 0.69607562
vt 0.07558798 0.40522310
vt 0.56207722 0.70529348
vt 0.56045049 0.71440297
vt 0.08480590 0.40522310
vt 0.56045049 0.71440297
vt 0.55730557 0.72307873
vt 0.55730557 0.72307873
vt 0.09402382 0.40522310
vt 0.55264240 0.73099518
vt 0.10313330 0.40522310
vt 0.11235120 0.40522310
vt 0.54678631 0.73804432
vt 0.12156920 0.40522310
vt 0.53973740 0.74400878
vt 0.53171229 0.74856353
vt 0.13078710 0.40522310
vt 0.14000490 0.40522310
vt 0.52314508 0.75170851
vt 0.51403558 0.75333512
vt 0.51403558 0.75333512
vt 0.14922290 0.40522310
vt 0.50481772 0.75333512
vt 0.15844080 0.40522310
vt 0.50481772 0.75333512
vt 0.16755030 0.40522310
vt 0.49581671 0.75170851
vt 0.49581671 0.75170851
vt 0.48714101 0.74856353
vt 0.48714101 0.74856353
vt 0.17676820 0.40522310
vt 0.18598610 0.40522310
vt 0.47911599 0.74400878
vt 0.47911599 0.74400878
vt 0.50948077 0.70073879
vt 0.50948077 0.70073879
vt 0.50948077 0.70073879
vt 0.50948077 0.70073879
vt 0.50948077 0.70073879
vt 0.50948077 0.70073879
vt 0.50948077 0.70073879
vt 0.50948077 0.70073879
vt 0.50948077 0.70073879
f 1/1/1 6/6/6 13/13/13
f 14/14/14 11/11/11 16/16/16
f 15/15/15 6/6/6 20/20/20
f 18/18/18 4/4/4 21/21/21
f 22/22/22 6/6/6 24/24/24
f 25/25/25 10/10/10 28/28/28
f 27/27/27 6/6/6 30/30/30
f 30/30/30 6/6/6 32/32/32
f 32/32/32 6/6/6 35/35/35
f 35/35/35 6/6/6 37/37/37
f 37/37/37 6/6/6 39/39/39
f 39/39/39 6/6/6 41/41/41
f 41/41/41 6/6/6 43/43/43
f 43/43/43 6/6/6 44/44/44
f 44/44/44 6/6/6 48/48/48
f 48/48/48 6/6/6 50/50/50
f 50/50/50 6/6/6 52/52/52
f 52/52/52 6/6/6 54/54/54
f 54/54/54 6/6/6 56/56/56
f 56/56/56 6/6/6 57/57/57
f 57/57/57 6/6/6 59/59/59
f 59/59/59 6/6/6 61/61/61
f 61/61/61 6/6/6 63/63/63
f 64/64/64 9/9/9 67/67/67
f 66/66/66 6/6/6 71/71/71
f 69/69/69 8/8/8 72/72/72
f 73/73/73 6/6/6 75/75/75
f 75/75/75 6/6/6 77/77/77
f 77/77/77 6/6/6 80/80/80
f 80/80/80 6/6/6 81/81/81
f 81/81/81 6/6/6 83/83/83
f 83/83/83 6/6/6 86/86/86
f 85/85/85 7/7/7 89/89/89
f 90/90/90 6/6/6 92/92/92
f 92/92/92 6/6/6 95/95/95
f 5/5/5 3/3/3 93/93/93
f 94/94/94 2/2/2 96/96/96
f 96/96/96 2/2/2 99/99/99
f 2/2/2 12/12/12 99/99/99
f 99/99/99 12/12/12 103/103/103
f 12/12/12 17/17/17 103/103/103
f 103/103/103 17/17/17 105/105/105
f 17/17/17 19/19/19 105/105/105
f 105/105/105 19/19/19 109/109/109
f 19/19/19 23/23/23 109/109/109
f 109/109/109 23/23/23 111/111/111
f 23/23/23 26/26/26 111/111/111
f 111/111/111 26/26/26 114/114/114
f 26/26/26 29/29/29 114/114/114
f 114/114/114 29/29/29 115/115/115
f 29/29/29 31/31/31 115/115/115
f 115/115/115 31/31/31 117/117/117
f 31/31/31 33/33/33 117/117/117
f 117/117/117 33/33/33 119/119/119
f 33/33/33 34/34/34 119/119/119
f 119/119/119 34/34/34 121/121/121
f 34/34/34 36/36/36 121/121/121
f 121/121/121 36/36/36 123/123/123
f 36/36/36 38/38/38 123/123/123
f 123/123/123 38/38/38 126/126/126
f 38/38/38 40/40/40 126/126/126
f 126/126/126 40/40/40 127/127/127
f 40/40/40 42/42/42 127/127/127
f 127/127/127 42/42/42 129/129/129
f 42/42/42 46/46/46 129/129/129
f 129/129/129 46/46/46 132/132/132
f 45/45/45 47/47/47 133/133/133
f 133/133/133 47/47/47 135/135/135
f 47/47/47 49/49/49 135/135/135
f 135/135/135 49/49/49 136/136/136
f 49/49/49 51/51/51 136/136/136
f 136/136/136 51/51/51 139/139/139
f 51/51/51 53/53/53 139/139/139
f 139/139/139 53/53/53 141/141/141
f 53/53/53 55/55/55 141/141/141
f 141/141/141 55/55/55 142/142/142
f 55/55/55 58/58/58 142/142/142
f 142/142/142 58/58/58 144/144/144
f 58/58/58 60/60/60 144/144/144
f 144/144/144 60/60/60 146/146/146
f 60/60/60 62/62/62 146/146/146
f 146/146/146 62/62/62 148/148/148
f 62/62/62 65/65/65 148/148/148
f 148/148/148 65/65/65 151/151/151
f 65/65/65 68/68/68 151/151/151
f 151/151/151 68/68/68 155/155/155
f 68/68/68 70/70/70 155/155/155
f 155/155/155 70/70/70 157/157/157
f 70/70/70 74/74/74 157/157/157
f 157/157/157 74/74/74 158/158/158
f 74/74/74 76/76/76 158/158/158
f 158/158/158 76/76/76 160/160/160
f 76/76/76 78/78/78 160/160/160
f 160/160/160 78/78/78 163/163/163
f 78/78/78 79/79/79 163/163/163
f 163/163/163 79/79/79 164/164/164
f 79/79/79 82/82/82 164/164/164
f 164/164/164 82/82/82 168/168/168
f 82/82/82 84/84/84 168/168/168
f 168/168/168 84/84/84 170/170/170
f 84/84/84 87/87/87 170/170/170
f 170/170/170 87/87/87 172/172/172
f 87/87/87 88/88/88 172/172/172
f 172/172/172 88/88/88 177/177/177
f 88/88/88 91/91/91 177/177/177
f 177/177/177 91/91/91 178/178/178
f 91/91/91 94/94/94 178/178/178
f 94/94/94 96/96/96 178/178/178
f 180/180/180 97/97/97 188/188/188
f 97/97/97 100/100/100 188/188/188
f 98/98/98 101/101/101 184/184/184
f 102/102/102 106/106/106 183/183/183
f 104/104/104 108/108/108 188/188/188
f 107/107/107 112/112/112 181/181/181
f 110/110/110 113/113/113 188/188/188
f 113/113/113 116/116/116 188/188/188
f 116/116/116 118/118/118 188/188/188
f 118/118/118 120/120/120 188/188/188
f 120/120/120 122/122/122 188/188/188
f 122/122/122 124/124/124 188/188/188
f 124/124/124 125/125/125 188/188/188
f 125/125/125 128/128/128 188/188/188
f 128/128/128 130/130/130 188/188/188
f 130/130/130 131/131/131 188/188/188
f 131/131/131 134/134/134 188/188/188
f 134/134/134 137/137/137 188/188/188
f 137/137/137 138/138/138 188/188/188
f 138/138/138 140/140/140 188/188/188
f 140/140/140 143/143/143 188/188/188
f 143/143/143 145/145/145 188/188/188
f 145/145/145 147/147/147 188/188/188
f 147/147/147 149/149/149 188/188/188
f 149/149/149 152/152/152 188/188/188
f 150/150/150 153/153/153 189/189/189
f 154/154/154 156/156/156 188/188/188
f 156/156/156 159/159/159 188/188/188
f 159/159/159 161/161/161 188/188/188
f 161/161/161 162/162/162 188/188/188
f 162/162/162 165/165/165 188/188/188
f 165/165/165 167/167/167 188/188/188
f 166/166/166 169/169/169 182/182/182
f 171/171/171 174/174/174 185/185/185
f 173/173/173 175/175/175 186/186/186
f 179/179/179 187/187/187 176/176/176

