mtllib base.mtl
usemtl LED_001_COLOR_0
v 0.07040083 -0.02564882 0.08662987
v 0.07040083 -0.02564882 0.08662987
v 0.07040083 -0.02564882 0.08662987
v -0.00000202 -0.00002866 0.08662987
v -0.00000202 -0.00002866 0.08662987
v -0.00000202 -0.00002866 0.08662987
v -0.00000202 -0.00002866 0.08662987
v -0.00000202 -0.00002866 0.08662987
v -0.00000202 -0.00002866 0.08662987
v -0.00000202 -0.00002866 0.08662987
v -0.00000202 -0.00002866 0.08662987
v -0.00000202 -0.00002866 0.08662987
v -0.00000202 -0.00002866 0.08662987
v -0.00000202 -0.00002866 0.08662987
v -0.00000202 -0.00002866 0.08662987
v -0.00000202 -0.00002866 0.08662987
v -0.00000202 -0.00002866 0.08662987
v -0.00000202 -0.00002866 0.08662987
v -0.00000202 -0.00002866 0.08662987
v -0.00000202 -0.00002866 0.08662987
v -0.00000202 -0.00002866 0.08662987
v 0.06488531 -0.03748469 0.08662987
v 0.06488531 -0.03748469 0.08662987
v 0.05739402 -0.04818647 0.08662987
v 0.05739402 -0.04818647 0.08662987
v 0.05739402 -0.04818647 0.08662987
v 0.04815584 -0.05742471 0.08662987
v 0.04815584 -0.05742471 0.08662987
v 0.04815584 -0.05742471 0.08662987
v 0.03746318 -0.06491600 0.08662987
v 0.03746318 -0.06491600 0.08662987
v 0.03746318 -0.06491600 0.08662987
v 0.02562725 -0.07043152 0.08662987
v 0.02562725 -0.07043152 0.08662987
v 0.02562725 -0.07043152 0.08662987
v 0.01301378 -0.07381581 0.08662987
v 0.01301378 -0.07381581 0.08662987
v 0.01301378 -0.07381581 0.08662987
v -0.00000202 -0.07495003 0.08662987
v -0.00000202 -0.07495003 0.08662987
v -0.00000202 -0.07495003 0.08662987
v -0.01300871 -0.07381581 0.08662987
v -0.01300871 -0.07381581 0.08662987
v -0.01300871 -0.07381581 0.08662987
v -0.02562212 -0.07043152 0.08662987
v -0.02562212 -0.07043152 0.08662987
v -0.02562212 -0.07043152 0.08662987
v -0.03745812 -0.06491600 0.08662987
v -0.03745812 -0.06491600 0.08662987
v -0.03745812 -0.06491600 0.08662987
v -0.04815977 -0.05742471 0.08662987
v -0.04815977 -0.05742471 0.08662987
v -0.04815977 -0.05742471 0.08662987
v -0.05739814 -0.04818647 0.08662987
v -0.05739814 -0.04818647 0.08662987
v -0.05739814 -0.04818647 0.08662987
v -0.06488937 -0.03748469 0.08662987
v -0.06488937 -0.03748469 0.08662987
v -0.06488937 -0.03748469 0.08662987
v -0.07040488 -0.02564882 0.08662987
v -0.07040488 -0.02564882 0.08662987
v -0.07040488 -0.02564882 0.08662987
v -0.07378917 -0.01303528 0.08662987
v -0.07378917 -0.01303528 0.08662987
v -0.07378917 -0.01303528 0.08662987
v -0.07492339 -0.00002866 0.08662987
v -0.07492339 -0.00002866 0.08662987
v -0.07378917 0.01298720 0.08662987
v -0.07378917 0.01298720 0.08662987
v -0.07378917 0.01298720 0.08662987
v -0.07040488 0.02560056 0.08662987
v -0.07040488 0.02560056 0.08662987
v -0.07040488 0.02560056 0.08662987
v -0.06488937 0.03743660 0.08662987
v -0.06488937 0.03743660 0.08662987
v -0.06488937 0.03743660 0.08662987
v -0.05739814 0.04812914 0.08662987
v -0.05739814 0.04812914 0.08662987
v -0.05739814 0.04812914 0.08662987
v -0.04815977 0.05736745 0.08662987
v -0.04815977 0.05736745 0.08662987
v -0.03745812 0.06485868 0.08662987
v -0.03745812 0.06485868 0.08662987
v -0.02562212 0.07037419 0.08662987
v -0.02562212 0.07037419 0.08662987
v -0.01300871 0.07375849 0.08662987
v -0.01300871 0.07375849 0.08662987
v -0.01300871 0.07375849 0.08662987
v -0.00000202 0.07489270 0.08662987
v -0.00000202 0.07489270 0.08662987
v -0.00000202 0.07489270 0.08662987
v 0.01301378 0.07375849 0.08662987
v 0.01301378 0.07375849 0.08662987
v 0.01301378 0.07375849 0.08662987
v 0.02562725 0.07037419 0.08662987
v 0.02562725 0.07037419 0.08662987
v 0.03746318 0.06485868 0.08662987
v 0.03746318 0.06485868 0.08662987
v 0.04815584 0.05736745 0.08662987
v 0.04815584 0.05736745 0.08662987
v 0.05739402 0.04812914 0.08662987
v 0.05739402 0.04812914 0.08662987
v 0.05739402 0.04812914 0.08662987
v 0.06488531 0.03743660 0.08662987
v 0.06488531 0.03743660 0.08662987
v 0.06488531 0.03743660 0.08662987
v 0.07040083 0.02560056 0.08662987
v 0.07040083 0.02560056 0.08662987
v 0.07040083 0.02560056 0.08662987
v 0.07378512 0.01298720 0.08662987
v 0.07378512 0.01298720 0.08662987
v 0.07378512 0.01298720 0.08662987
v 0.07491934 -0.00002866 0.08662987
v 0.07491934 -0.00002866 0.08662987
v 0.07378512 -0.01303528 0.08662987
v 0.07378512 -0.01303528 0.08662987
v 0.07378512 -0.01303528 0.08662987
v 0.07039171 -0.02562128 0.07693428
v 0.07039171 -0.02562128 0.07693428
v 0.06486701 -0.03745727 0.07693428
v 0.06486701 -0.03745727 0.07693428
v 0.05738490 -0.04814987 0.07693428
v 0.05738490 -0.04814987 0.07693428
v 0.05738490 -0.04814987 0.07693428
v 0.04814666 -0.05738812 0.07693428
v 0.04814666 -0.05738812 0.07693428
v 0.04814666 -0.05738812 0.07693428
v 0.03745400 -0.06487940 0.07693428
v 0.03745400 -0.06487940 0.07693428
v 0.02561813 -0.07039492 0.07693428
v 0.02561813 -0.07039492 0.07693428
v 0.01300472 -0.07377009 0.07693428
v 0.01300472 -0.07377009 0.07693428
v -0.00000202 -0.07491343 0.07693428
v -0.00000202 -0.07491343 0.07693428
v -0.01300871 -0.07377009 0.07693428
v -0.01300871 -0.07377009 0.07693428
v -0.02562212 -0.07039492 0.07693428
v -0.02562212 -0.07039492 0.07693428
v -0.02562212 -0.07039492 0.07693428
v -0.03744894 -0.06487940 0.07693428
v -0.03744894 -0.06487940 0.07693428
v -0.03744894 -0.06487940 0.07693428
v -0.04815065 -0.05738812 0.07693428
v -0.04815065 -0.05738812 0.07693428
v -0.04815065 -0.05738812 0.07693428
v -0.05737984 -0.04814987 0.07693428
v -0.05737984 -0.04814987 0.07693428
v -0.05737984 -0.04814987 0.07693428
v -0.06487107 -0.03745727 0.07693428
v -0.06487107 -0.03745727 0.07693428
v -0.06487107 -0.03745727 0.07693428
v -0.06487107 -0.03745727 0.07693428
v -0.07038658 -0.02562128 0.07693428
v -0.07038658 -0.02562128 0.07693428
v -0.07038658 -0.02562128 0.07693428
v -0.07377088 -0.01300793 0.07693428
v -0.07377088 -0.01300793 0.07693428
v -0.07377088 -0.01300793 0.07693428
v -0.07490509 -0.00000122 0.07693428
v -0.07490509 -0.00000122 0.07693428
v -0.07377088 0.01300550 0.07693428
v -0.07377088 0.01300550 0.07693428
v -0.07377088 0.01300550 0.07693428
v -0.07038658 0.02561885 0.07693428
v -0.07038658 0.02561885 0.07693428
v -0.07038658 0.02561885 0.07693428
v -0.06487107 0.03744573 0.07693428
v -0.06487107 0.03744573 0.07693428
v -0.06487107 0.03744573 0.07693428
v -0.05737984 0.04814744 0.07693428
v -0.05737984 0.04814744 0.07693428
v -0.05737984 0.04814744 0.07693428
v -0.04815065 0.05737663 0.07693428
v -0.04815065 0.05737663 0.07693428
v -0.03744894 0.06486786 0.07693428
v -0.03744894 0.06486786 0.07693428
v -0.02562212 0.07038337 0.07693428
v -0.02562212 0.07038337 0.07693428
v -0.01300871 0.07376766 0.07693428
v -0.01300871 0.07376766 0.07693428
v -0.00000202 0.07490188 0.07693428
v -0.00000202 0.07490188 0.07693428
v 0.01300472 0.07376766 0.07693428
v 0.01300472 0.07376766 0.07693428
v 0.02561813 0.07038337 0.07693428
v 0.02561813 0.07038337 0.07693428
v 0.03745400 0.06486786 0.07693428
v 0.03745400 0.06486786 0.07693428
v 0.04814666 0.05737663 0.07693428
v 0.04814666 0.05737663 0.07693428
v 0.05738490 0.04814744 0.07693428
v 0.05738490 0.04814744 0.07693428
v 0.05738490 0.04814744 0.07693428
v 0.06486701 0.03744573 0.07693428
v 0.06486701 0.03744573 0.07693428
v 0.06486701 0.03744573 0.07693428
v 0.07039171 0.02561885 0.07693428
v 0.07039171 0.02561885 0.07693428
v 0.07039171 0.02561885 0.07693428
v 0.07376688 0.01300550 0.07693428
v 0.07376688 0.01300550 0.07693428
v 0.07376688 0.01300550 0.07693428
v 0.07491022 -0.00000122 0.07693428
v 0.07491022 -0.00000122 0.07693428
v 0.07376688 -0.01300793 0.07693428
v 0.07376688 -0.01300793 0.07693428
v -0.00000202 -0.00000122 0.07693428
v -0.00000202 -0.00000122 0.07693428
v -0.00000202 -0.00000122 0.07693428
v -0.00000202 -0.00000122 0.07693428
v -0.00000202 -0.00000122 0.07693428
v -0.00000202 -0.00000122 0.07693428
v -0.00000202 -0.00000122 0.07693428
v -0.00000202 -0.00000122 0.07693428
v -0.00000202 -0.00000122 0.07693428
v -0.00000202 -0.00000122 0.07693428
vn 0.00000000 -0.00000000 1.00000000
vn -0.00000012 -0.00000000 1.00000000
vn 0.93947339 -0.34261471 -0.00224382
vn 0.00000048 -0.00000000 1.00000000
vn -0.00000024 -0.00000000 1.00000000
vn 0.00000012 -0.00000000 1.00000000
vn -0.00000048 -0.00000000 1.00000000
vn 0.00000096 -0.00000000 1.00000000
vn -0.00000096 -0.00000000 1.00000000
vn -0.00000012 -0.00000000 1.00000000
vn -0.00000096 -0.00000000 1.00000000
vn 0.00000096 -0.00000000 1.00000000
vn -0.00000096 -0.00000000 1.00000000
vn 0.00000096 -0.00000000 1.00000000
vn 0.00000024 -0.00000000 1.00000000
vn 0.00000012 -0.00000000 1.00000000
vn 0.00000096 -0.00000000 1.00000000
vn -0.00000096 -0.00000000 1.00000000
vn 0.00000096 -0.00000000 1.00000000
vn -0.00000048 -0.00000000 1.00000000
vn 0.00000000 -0.00000000 1.00000000
vn 0.00000000 -0.00000000 1.00000000
vn 0.86610311 -0.49985650 -0.00299996
vn 0.00000000 -0.00000000 1.00000000
vn 0.00000096 -0.00000000 1.00000000
vn 0.76600242 -0.64283001 -0.00314480
vn 0.00000096 -0.00000000 1.00000000
vn 0.64302808 -0.76583737 -0.00280702
vn -0.00000096 -0.00000000 1.00000000
vn -0.00000096 -0.00000000 1.00000000
vn 0.00000096 -0.00000000 1.00000000
vn 0.49957770 -0.86625999 -0.00399941
vn 0.00000000 -0.00000000 1.00000000
vn 0.00000096 -0.00000000 1.00000000
vn 0.34184429 -0.93974793 -0.00405502
vn -0.00000096 -0.00000000 1.00000000
vn 0.17379621 -0.98477542 -0.00350571
vn 0.00000000 -0.00000000 1.00000000
vn -0.00000096 -0.00000000 1.00000000
vn 0.00000096 -0.00000000 1.00000000
vn 0.00010407 -0.99999237 -0.00389975
vn 0.00000096 -0.00000000 1.00000000
vn 0.00000000 -0.00000000 1.00000000
vn -0.17377131 -0.98478001 -0.00347072
vn -0.00000096 -0.00000000 1.00000000
vn 0.00000000 -0.00000000 1.00000000
vn -0.34207210 -0.93966663 -0.00362950
vn -0.00000096 -0.00000000 1.00000000
vn 0.00000096 -0.00000000 1.00000000
vn -0.49977621 -0.86614662 -0.00374162
vn -0.64299268 -0.76586717 -0.00283557
vn 0.00000096 -0.00000000 1.00000000
vn -0.00000048 -0.00000000 1.00000000
vn -0.76587862 -0.64297879 -0.00291914
vn 0.00000000 -0.00000000 1.00000000
vn -0.00000048 -0.00000000 1.00000000
vn 0.00000000 -0.00000000 1.00000000
vn -0.86579370 -0.50039399 -0.00270325
vn -0.86575198 -0.50046623 -0.00269902
vn -0.93963772 -0.34216011 -0.00274265
vn 0.00000000 -0.00000000 1.00000000
vn 0.00000012 -0.00000000 1.00000000
vn -0.98477727 -0.17380540 -0.00234938
vn 0.00000012 -0.00000000 1.00000000
vn 0.00000000 -0.00000000 1.00000000
vn 0.00000000 -0.00000000 1.00000000
vn -0.99999827 -0.00016799 -0.00190431
vn 0.00000000 -0.00000000 1.00000000
vn -0.00000024 -0.00000000 1.00000000
vn -0.98482817 0.17352539 -0.00153053
vn -0.00000024 -0.00000000 1.00000000
vn 0.00000000 -0.00000000 1.00000000
vn -0.94004959 0.34103569 -0.00129563
vn 0.00000048 -0.00000000 1.00000000
vn 0.00000000 -0.00000000 1.00000000
vn -0.86561358 0.50071257 -0.00011943
vn 0.00000048 -0.00000000 1.00000000
vn 0.00000000 -0.00000000 1.00000000
vn -0.76605320 0.64277721 -0.00023196
vn 0.00000000 -0.00000000 1.00000000
vn -0.64278883 0.76604360 0.00011992
vn -0.49932921 0.86641240 0.00001083
vn 0.00000000 -0.00000000 1.00000000
vn 0.00000000 -0.00000000 1.00000000
vn -0.34202430 0.93969113 0.00029376
vn -0.17317770 0.98489058 -0.00003835
vn -0.00000096 -0.00000000 1.00000000
vn 0.00000000 -0.00000000 1.00000000
vn -0.00001094 0.99999970 0.00092946
vn 0.00000096 -0.00000000 1.00000000
vn -0.00000096 -0.00000000 1.00000000
vn 0.17344530 0.98484337 0.00034546
vn 0.00000000 -0.00000000 1.00000000
vn 0.00000096 -0.00000000 1.00000000
vn 0.00000000 -0.00000000 1.00000000
vn 0.34212169 0.93965560 0.00056712
vn 0.49933940 0.86640662 0.00003032
vn 0.00000000 -0.00000000 1.00000000
vn 0.00000000 -0.00000000 1.00000000
vn 0.64283311 0.76600641 0.00025382
vn 0.00000000 -0.00000000 1.00000000
vn 0.76575750 0.64312941 0.00002498
vn -0.00000048 -0.00000000 1.00000000
vn 0.86565149 0.50064701 -0.00027638
vn -0.00000048 -0.00000000 1.00000000
vn 0.00000024 -0.00000000 1.00000000
vn 0.94004643 0.34104461 -0.00114339
vn 0.00000024 -0.00000000 1.00000000
vn 0.00000012 -0.00000000 1.00000000
vn 0.00000000 -0.00000000 1.00000000
vn 0.98479003 0.17374410 -0.00131649
vn 0.00000012 -0.00000000 1.00000000
vn 0.00000000 -0.00000000 1.00000000
vn 0.99999821 -0.00000700 -0.00188625
vn -0.00000012 -0.00000000 1.00000000
vn 0.98481178 -0.17361200 -0.00215810
vn 0.00000000 -0.00000000 1.00000000
vn 0.00000000 -0.00000000 -1.00000000
vn 0.93980861 -0.34169409 -0.00228149
vn 0.86580890 -0.50036782 -0.00266767
vn 0.00000000 -0.00000000 -1.00000000
vn -0.00000048 0.00000000 -1.00000000
vn 0.76589018 -0.64296538 -0.00281632
vn 0.00000000 -0.00000000 -1.00000000
vn 0.64302957 -0.76583618 -0.00280666
vn 0.00000000 -0.00000000 -1.00000000
vn -0.00000048 0.00000000 -1.00000000
vn 0.00000000 -0.00000000 -1.00000000
vn 0.49965251 -0.86621720 -0.00392926
vn 0.34176081 -0.93977910 -0.00387025
vn 0.00000000 -0.00000000 -1.00000000
vn 0.00000000 -0.00000000 -1.00000000
vn 0.17380080 -0.98477471 -0.00347877
vn 0.00000000 -0.00000000 -1.00000000
vn 0.00025937 -0.99999261 -0.00386006
vn -0.17377511 -0.98477948 -0.00338745
vn 0.00000000 -0.00000000 -1.00000000
vn -0.00000048 0.00000000 -1.00000000
vn -0.34213191 -0.93964457 -0.00373292
vn 0.00000000 -0.00000000 -1.00000000
vn 0.00000000 -0.00000000 -1.00000000
vn -0.49992842 -0.86605912 -0.00366044
vn -0.00000048 0.00000000 -1.00000000
vn 0.00000000 -0.00000000 -1.00000000
vn 0.00000048 -0.00000000 -1.00000000
vn -0.64301908 -0.76584440 -0.00299942
vn -0.76599920 -0.64283270 -0.00340640
vn 0.00000048 -0.00000000 -1.00000000
vn 0.00000000 -0.00000000 -1.00000000
vn -0.00000024 0.00000000 -1.00000000
vn 0.00000000 -0.00000000 -1.00000000
vn -0.86578762 -0.50040448 -0.00270069
vn -0.86575222 -0.50046593 -0.00270253
vn -0.93971300 -0.34195319 -0.00274217
vn 0.00000012 -0.00000000 -1.00000000
vn -0.00000024 0.00000000 -1.00000000
vn 0.00000000 -0.00000000 -1.00000000
vn 0.00000012 -0.00000000 -1.00000000
vn -0.98482430 -0.17353889 -0.00234902
vn 0.00000000 -0.00000000 -1.00000000
vn -0.99999791 -0.00031986 -0.00203836
vn 0.00000000 -0.00000000 -1.00000000
vn 0.00000024 -0.00000000 -1.00000000
vn -0.98478442 0.17377430 -0.00151324
vn -0.93958253 0.34232101 -0.00112700
vn 0.00000024 -0.00000000 -1.00000000
vn 0.00000000 -0.00000000 -1.00000000
vn -0.86559027 0.50075293 -0.00009351
vn 0.00000000 -0.00000000 -1.00000000
vn -0.00000048 0.00000000 -1.00000000
vn -0.76591837 0.64293772 -0.00034276
vn -0.00000048 0.00000000 -1.00000000
vn 0.00000000 -0.00000000 -1.00000000
vn -0.64305007 0.76582420 0.00001160
vn 0.00000000 -0.00000000 -1.00000000
vn 0.00000000 -0.00000000 -1.00000000
vn -0.49945149 0.86634201 0.00004342
vn -0.34199601 0.93970138 -0.00003201
vn 0.00000000 -0.00000000 -1.00000000
vn -0.17342250 0.98484749 0.00038674
vn 0.00000000 -0.00000000 -1.00000000
vn -0.00000140 0.99999970 0.00094603
vn 0.00000000 -0.00000000 -1.00000000
vn 0.17339560 0.98485219 0.00032987
vn 0.00000000 -0.00000000 -1.00000000
vn 0.34199399 0.93970197 0.00056773
vn 0.00000000 -0.00000000 -1.00000000
vn 0.00000000 -0.00000000 -1.00000000
vn 0.49948481 0.86632258 0.00006112
vn 0.64264083 0.76616770 0.00011760
vn 0.00000000 -0.00000000 -1.00000000
vn 0.76580453 0.64307338 0.00005179
vn 0.00000000 -0.00000000 -1.00000000
vn 0.00000048 -0.00000000 -1.00000000
vn 0.86552602 0.50086433 -0.00005815
vn 0.00000000 -0.00000000 -1.00000000
vn 0.00000048 -0.00000000 -1.00000000
vn -0.00000012 0.00000000 -1.00000000
vn 0.00000000 -0.00000000 -1.00000000
vn 0.93950671 0.34252819 -0.00133818
vn 0.00000000 -0.00000000 -1.00000000
vn 0.98482531 0.17354570 -0.00115538
vn -0.00000012 0.00000000 -1.00000000
vn 0.99999809 -0.00000057 -0.00199395
vn 0.00000000 -0.00000000 -1.00000000
vn 0.98485881 -0.17334530 -0.00215143
vn 0.00000000 -0.00000000 -1.00000000
vn 0.00000048 -0.00000000 -1.00000000
vn 0.00000012 -0.00000000 -1.00000000
vn -0.00000048 0.00000000 -1.00000000
vn -0.00000048 0.00000000 -1.00000000
vn 0.00000024 -0.00000000 -1.00000000
vn -0.00000048 0.00000000 -1.00000000
vn 0.00000048 -0.00000000 -1.00000000
vn 0.00000000 -0.00000000 -1.00000000
vn -0.00000012 0.00000000 -1.00000000
vn -0.00000024 0.00000000 -1.00000000
vt 0.40311921 0.84557790
vt 0.40311921 0.84557790
vt 0.21354370 0.41161141
vt 0.35052720 0.85013658
vt 0.35052720 0.85013658
vt 0.35052720 0.85013658
vt 0.35052720 0.85013658
vt 0.35052720 0.85013658
vt 0.35052720 0.85013658
vt 0.35052720 0.85013658
vt 0.35052720 0.85013658
vt 0.35052720 0.85013658
vt 0.35052720 0.85013658
vt 0.35052720 0.85013658
vt 0.35052720 0.85013658
vt 0.35052720 0.85013658
vt 0.35052720 0.85013658
vt 0.35052720 0.85013658
vt 0.35052720 0.85013658
vt 0.35052720 0.85013658
vt 0.35052720 0.85013658
vt 0.40156251 0.83646047
vt 0.22277230 0.41161141
vt 0.39833811 0.82778788
vt 0.39833811 0.82778788
vt 0.23200090 0.41161141
vt 0.39377931 0.81989348
vt 0.24111830 0.41161141
vt 0.39377931 0.81989348
vt 0.38788640 0.81277752
vt 0.38788640 0.81277752
vt 0.25034699 0.41161141
vt 0.38077038 0.80688453
vt 0.38077038 0.80688453
vt 0.25957560 0.41161141
vt 0.37287611 0.80232578
vt 0.26869300 0.41161141
vt 0.37287611 0.80232578
vt 0.36420339 0.79921257
vt 0.36420339 0.79921257
vt 0.27792159 0.41161141
vt 0.35519710 0.79754472
vt 0.35519710 0.79754472
vt 0.28715020 0.41161141
vt 0.34596860 0.79754472
vt 0.34596860 0.79754472
vt 0.29637870 0.41161141
vt 0.33685109 0.79921257
vt 0.33685109 0.79921257
vt 0.30549619 0.41161141
vt 0.31472480 0.41161141
vt 0.32828969 0.80232578
vt 0.32828969 0.80232578
vt 0.32395330 0.41161141
vt 0.32028410 0.80688453
vt 0.32028410 0.80688453
vt 0.31316811 0.81277752
vt 0.33318189 0.41161141
vt 0.00195312 0.41161141
vt 0.01118171 0.41161141
vt 0.30727521 0.81989348
vt 0.30727521 0.81989348
vt 0.02029907 0.41161141
vt 0.30271640 0.82778788
vt 0.30271640 0.82778788
vt 0.29960319 0.83646047
vt 0.02952772 0.41161141
vt 0.29793540 0.84557790
vt 0.29793540 0.84557790
vt 0.03875631 0.41161141
vt 0.29793540 0.85469532
vt 0.29793540 0.85469532
vt 0.04798483 0.41161141
vt 0.29960319 0.86381280
vt 0.29960319 0.86381280
vt 0.05710232 0.41161141
vt 0.30271640 0.87248540
vt 0.30271640 0.87248540
vt 0.06633090 0.41161141
vt 0.30727521 0.88037968
vt 0.07555949 0.41161141
vt 0.08478808 0.41161141
vt 0.31316811 0.88749582
vt 0.32028410 0.89338869
vt 0.09390550 0.41161141
vt 0.10313410 0.41161141
vt 0.32828969 0.89794737
vt 0.32828969 0.89794737
vt 0.11236270 0.41161141
vt 0.33685109 0.90117192
vt 0.33685109 0.90117192
vt 0.12159130 0.41161141
vt 0.34596860 0.90272850
vt 0.34596860 0.90272850
vt 0.35519710 0.90272850
vt 0.13070861 0.41161141
vt 0.13993730 0.41161141
vt 0.36420339 0.90117192
vt 0.37287611 0.89794737
vt 0.14916590 0.41161141
vt 0.38077038 0.89338869
vt 0.15839450 0.41161141
vt 0.38077038 0.89338869
vt 0.16751189 0.41161141
vt 0.38788640 0.88749582
vt 0.38788640 0.88749582
vt 0.17674050 0.41161141
vt 0.39377931 0.88037968
vt 0.39377931 0.88037968
vt 0.39833811 0.87248540
vt 0.18596910 0.41161141
vt 0.39833811 0.87248540
vt 0.40156251 0.86381280
vt 0.19519770 0.41161141
vt 0.40311921 0.85469532
vt 0.20431510 0.41161141
vt 0.40311921 0.85469532
vt 0.85554278 0.33533651
vt 0.21354370 0.41850510
vt 0.22277230 0.41850510
vt 0.84642541 0.33366871
vt 0.83786392 0.33055541
vt 0.23200090 0.41850510
vt 0.83786392 0.33055541
vt 0.24111830 0.41850510
vt 0.82985842 0.32599679
vt 0.82985842 0.32599679
vt 0.82285363 0.31999260
vt 0.25034699 0.41850510
vt 0.25957560 0.41850510
vt 0.81684941 0.31298780
vt 0.81229073 0.30498231
vt 0.26869300 0.41850510
vt 0.80917752 0.29642081
vt 0.27792159 0.41850510
vt 0.28715020 0.41850510
vt 0.80750972 0.28730330
vt 0.80750972 0.27818590
vt 0.29637870 0.41850510
vt 0.80750972 0.27818590
vt 0.80917752 0.26906851
vt 0.30549619 0.41850510
vt 0.80917752 0.26906851
vt 0.81229073 0.26039591
vt 0.81229073 0.26039591
vt 0.31472480 0.41850510
vt 0.32395330 0.41850510
vt 0.81684941 0.25250149
vt 0.81684941 0.25250149
vt 0.82285363 0.24538539
vt 0.82285363 0.24538539
vt 0.33318189 0.41850510
vt 0.00195312 0.41850510
vt 0.01118171 0.41850510
vt 0.82985842 0.23949251
vt 0.82985842 0.23949251
vt 0.83786392 0.23493370
vt 0.83786392 0.23493370
vt 0.02029907 0.41850510
vt 0.84642541 0.23170930
vt 0.02952772 0.41850510
vt 0.85554278 0.23015270
vt 0.85554278 0.23015270
vt 0.03875631 0.41850510
vt 0.04798483 0.41850510
vt 0.86477143 0.23015270
vt 0.86477143 0.23015270
vt 0.05710232 0.41850510
vt 0.87377763 0.23170930
vt 0.87377763 0.23170930
vt 0.06633090 0.41850510
vt 0.88245028 0.23493370
vt 0.88245028 0.23493370
vt 0.07555949 0.41850510
vt 0.89034462 0.23949251
vt 0.89746070 0.24538539
vt 0.08478808 0.41850510
vt 0.09390550 0.41850510
vt 0.90335357 0.25250149
vt 0.10313410 0.41850510
vt 0.90791231 0.26039591
vt 0.11236270 0.41850510
vt 0.91113681 0.26906851
vt 0.12159130 0.41850510
vt 0.91269350 0.27818590
vt 0.13070861 0.41850510
vt 0.91269350 0.28730330
vt 0.91113681 0.29642081
vt 0.13993730 0.41850510
vt 0.14916590 0.41850510
vt 0.90791231 0.30498231
vt 0.15839450 0.41850510
vt 0.90335357 0.31298780
vt 0.90335357 0.31298780
vt 0.16751189 0.41850510
vt 0.89746070 0.31999260
vt 0.89746070 0.31999260
vt 0.89034462 0.32599679
vt 0.89034462 0.32599679
vt 0.17674050 0.41850510
vt 0.88245028 0.33055541
vt 0.18596910 0.41850510
vt 0.88245028 0.33055541
vt 0.19519770 0.41850510
vt 0.87377763 0.33366871
vt 0.20431510 0.41850510
vt 0.86477143 0.33533651
vt 0.86010152 0.28274471
vt 0.86010152 0.28274471
vt 0.86010152 0.28274471
vt 0.86010152 0.28274471
vt 0.86010152 0.28274471
vt 0.86010152 0.28274471
vt 0.86010152 0.28274471
vt 0.86010152 0.28274471
vt 0.86010152 0.28274471
vt 0.86010152 0.28274471
f 1/1/1 21/21/21 22/22/22
f 22/22/22 21/21/21 24/24/24
f 25/25/25 14/14/14 27/27/27
f 29/29/29 13/13/13 30/30/30
f 31/31/31 12/12/12 34/34/34
f 33/33/33 21/21/21 38/38/38
f 36/36/36 11/11/11 39/39/39
f 40/40/40 19/19/19 42/42/42
f 43/43/43 21/21/21 46/46/46
f 45/45/45 9/9/9 48/48/48
f 49/49/49 8/8/8 52/52/52
f 53/53/53 7/7/7 56/56/56
f 55/55/55 21/21/21 57/57/57
f 57/57/57 21/21/21 61/61/61
f 62/62/62 6/6/6 64/64/64
f 65/65/65 21/21/21 66/66/66
f 66/66/66 21/21/21 68/68/68
f 69/69/69 5/5/5 71/71/71
f 72/72/72 21/21/21 75/75/75
f 74/74/74 4/4/4 77/77/77
f 78/78/78 21/21/21 80/80/80
f 80/80/80 21/21/21 83/83/83
f 83/83/83 21/21/21 84/84/84
f 84/84/84 21/21/21 88/88/88
f 87/87/87 18/18/18 91/91/91
f 90/90/90 17/17/17 94/94/94
f 93/93/93 21/21/21 95/95/95
f 95/95/95 21/21/21 98/98/98
f 98/98/98 21/21/21 99/99/99
f 99/99/99 21/21/21 101/101/101
f 103/103/103 20/20/20 105/105/105
f 106/106/106 15/15/15 108/108/108
f 109/109/109 16/16/16 112/112/112
f 110/110/110 21/21/21 113/113/113
f 113/113/113 21/21/21 117/117/117
f 10/10/10 2/2/2 115/115/115
f 116/116/116 3/3/3 119/119/119
f 119/119/119 3/3/3 120/120/120
f 3/3/3 23/23/23 120/120/120
f 120/120/120 23/23/23 123/123/123
f 23/23/23 26/26/26 123/123/123
f 123/123/123 26/26/26 125/125/125
f 26/26/26 28/28/28 125/125/125
f 125/125/125 28/28/28 129/129/129
f 28/28/28 32/32/32 129/129/129
f 129/129/129 32/32/32 130/130/130
f 32/32/32 35/35/35 130/130/130
f 130/130/130 35/35/35 133/133/133
f 35/35/35 37/37/37 133/133/133
f 133/133/133 37/37/37 135/135/135
f 37/37/37 41/41/41 135/135/135
f 135/135/135 41/41/41 136/136/136
f 41/41/41 44/44/44 136/136/136
f 136/136/136 44/44/44 139/139/139
f 44/44/44 47/47/47 139/139/139
f 139/139/139 47/47/47 142/142/142
f 47/47/47 50/50/50 142/142/142
f 142/142/142 50/50/50 146/146/146
f 50/50/50 51/51/51 146/146/146
f 146/146/146 51/51/51 147/147/147
f 51/51/51 54/54/54 147/147/147
f 147/147/147 54/54/54 152/152/152
f 54/54/54 58/58/58 152/152/152
f 153/153/153 59/59/59 154/154/154
f 59/59/59 60/60/60 154/154/154
f 154/154/154 60/60/60 159/159/159
f 60/60/60 63/63/63 159/159/159
f 159/159/159 63/63/63 161/161/161
f 63/63/63 67/67/67 161/161/161
f 161/161/161 67/67/67 164/164/164
f 67/67/67 70/70/70 164/164/164
f 164/164/164 70/70/70 165/165/165
f 70/70/70 73/73/73 165/165/165
f 165/165/165 73/73/73 168/168/168
f 73/73/73 76/76/76 168/168/168
f 168/168/168 76/76/76 171/171/171
f 76/76/76 79/79/79 171/171/171
f 171/171/171 79/79/79 174/174/174
f 79/79/79 81/81/81 174/174/174
f 174/174/174 81/81/81 177/177/177
f 81/81/81 82/82/82 177/177/177
f 177/177/177 82/82/82 178/178/178
f 82/82/82 85/85/85 178/178/178
f 178/178/178 85/85/85 180/180/180
f 85/85/85 86/86/86 180/180/180
f 180/180/180 86/86/86 182/182/182
f 86/86/86 89/89/89 182/182/182
f 182/182/182 89/89/89 184/184/184
f 89/89/89 92/92/92 184/184/184
f 184/184/184 92/92/92 186/186/186
f 92/92/92 96/96/96 186/186/186
f 186/186/186 96/96/96 189/189/189
f 96/96/96 97/97/97 189/189/189
f 189/189/189 97/97/97 190/190/190
f 97/97/97 100/100/100 190/190/190
f 190/190/190 100/100/100 192/192/192
f 100/100/100 102/102/102 192/192/192
f 192/192/192 102/102/102 195/195/195
f 102/102/102 104/104/104 195/195/195
f 195/195/195 104/104/104 200/200/200
f 104/104/104 107/107/107 200/200/200
f 200/200/200 107/107/107 202/202/202
f 107/107/107 111/111/111 202/202/202
f 202/202/202 111/111/111 204/204/204
f 111/111/111 114/114/114 204/204/204
f 204/204/204 114/114/114 206/206/206
f 114/114/114 116/116/116 206/206/206
f 116/116/116 119/119/119 206/206/206
f 207/207/207 118/118/118 215/215/215
f 118/118/118 121/121/121 215/215/215
f 121/121/121 124/124/124 215/215/215
f 122/122/122 127/127/127 211/211/211
f 126/126/126 128/128/128 215/215/215
f 128/128/128 131/131/131 215/215/215
f 131/131/131 132/132/132 215/215/215
f 132/132/132 134/134/134 215/215/215
f 134/134/134 137/137/137 215/215/215
f 137/137/137 140/140/140 215/215/215
f 138/138/138 143/143/143 210/210/210
f 141/141/141 144/144/144 215/215/215
f 145/145/145 148/148/148 208/208/208
f 149/149/149 151/151/151 215/215/215
f 150/150/150 156/156/156 217/217/217
f 155/155/155 158/158/158 209/209/209
f 157/157/157 160/160/160 215/215/215
f 160/160/160 162/162/162 215/215/215
f 163/163/163 166/166/166 212/212/212
f 167/167/167 169/169/169 215/215/215
f 170/170/170 172/172/172 213/213/213
f 173/173/173 175/175/175 215/215/215
f 175/175/175 176/176/176 215/215/215
f 176/176/176 179/179/179 215/215/215
f 179/179/179 181/181/181 215/215/215
f 181/181/181 183/183/183 215/215/215
f 183/183/183 185/185/185 215/215/215
f 185/185/185 187/187/187 215/215/215
f 187/187/187 188/188/188 215/215/215
f 188/188/188 191/191/191 215/215/215
f 191/191/191 193/193/193 215/215/215
f 194/194/194 197/197/197 214/214/214
f 196/196/196 199/199/199 215/215/215
f 198/198/198 203/203/203 216/216/216
f 201/201/201 205/205/205 215/215/215
f 207/207/207 215/215/215 205/205/205

