mtllib forearm.mtl
usemtl Metal_Alu_Brushed.001
v -0.04651180 -0.07852465 0.28791198
v -0.05037489 -0.08769954 0.18067578
v -0.04744311 -0.08780301 0.28791198
v -0.04944357 -0.09752983 0.18067578
v -0.04658081 -0.09704692 0.28791198
v -0.04661521 -0.10698061 0.18067578
v -0.04389038 -0.10598041 0.28791198
v -0.04199329 -0.11574170 0.18067578
v -0.03954436 -0.11418950 0.28791198
v -0.03575018 -0.12343340 0.18067579
v -0.03364624 -0.12143290 0.28791198
v -0.02809295 -0.12974550 0.18067579
v -0.02643736 -0.12736550 0.28791201
v -0.01936641 -0.13443640 0.18067579
v -0.01822825 -0.13178050 0.28791201
v -0.00988110 -0.13733380 0.18067580
v -0.00929477 -0.13447090 0.28791201
v -0.00001635 -0.13836850 0.18067580
v -0.00001641 -0.13543670 0.28791201
v 0.00988284 -0.13733380 0.18067580
v 0.00929645 -0.13447090 0.28791201
v 0.01936821 -0.13443640 0.18067582
v 0.01822994 -0.13178050 0.28791201
v 0.02809473 -0.12974550 0.18067582
v 0.02643904 -0.12736550 0.28791201
v 0.03575196 -0.12343340 0.18067582
v 0.03364793 -0.12143290 0.28791204
v 0.04199507 -0.11574170 0.18067583
v 0.03951160 -0.11418950 0.28791204
v 0.04661701 -0.10698059 0.18067583
v 0.04389206 -0.10598040 0.28791204
v 0.04944536 -0.09752981 0.18067583
v 0.04658242 -0.09704690 0.28791204
v 0.05037668 -0.08769953 0.18067583
v 0.04744478 -0.08780299 0.28791204
v 0.04934188 -0.07786928 0.18067583
v 0.04651346 -0.07852463 0.28791204
v 0.04378859 -0.06966011 0.28791204
v 0.04641005 -0.06845294 0.18067583
v 0.05089406 -0.07755886 0.15794553
v 0.05192879 -0.08769953 0.15794553
v 0.05099753 -0.09784023 0.15794553
v 0.04806571 -0.10760149 0.15794553
v 0.04330580 -0.11660399 0.15794553
v 0.03685573 -0.12453720 0.15794551
v 0.02899151 -0.13105620 0.15794551
v 0.01995461 -0.13588511 0.15794551
v 0.01019333 -0.13888590 0.15794550
v -0.00001634 -0.13985170 0.15794550
v -0.01019151 -0.13888590 0.15794550
v -0.01995278 -0.13588511 0.15794548
v -0.02898974 -0.13105620 0.15794548
v -0.03685391 -0.12453720 0.15794548
v -0.04330397 -0.11660401 0.15794547
v -0.04806389 -0.10760151 0.15794547
v -0.05099572 -0.09784025 0.15794547
v -0.05192699 -0.08769954 0.15794547
v -0.05089225 -0.07755888 0.15794547
v -0.04934009 -0.07786930 0.18067578
v -0.04378691 -0.06966013 0.28791198
v -0.04168311 -0.07069492 0.65304589
v -0.04168311 -0.07069492 0.65304589
v -0.04423550 -0.07914550 0.65304589
v -0.04423550 -0.07914550 0.65304589
v -0.04509781 -0.08794100 0.65304589
v -0.04509781 -0.08794100 0.65304589
v -0.04423550 -0.09673650 0.65304589
v -0.04423550 -0.09673650 0.65304589
v -0.04168311 -0.10522160 0.65304589
v -0.04168311 -0.10522160 0.65304589
v -0.04168311 -0.10522160 0.65304589
v -0.03750954 -0.11301680 0.65304589
v -0.03750954 -0.11301680 0.65304589
v -0.03750954 -0.11301680 0.65304589
v -0.03188733 -0.11984620 0.65304589
v -0.03188733 -0.11984620 0.65304589
v -0.02505789 -0.12546840 0.65304589
v -0.02505789 -0.12546840 0.65304589
v -0.02505789 -0.12546840 0.65304589
v -0.01726267 -0.12964200 0.65304589
v -0.01726267 -0.12964200 0.65304589
v -0.01726267 -0.12964200 0.65304589
v -0.00881205 -0.13219440 0.65304589
v -0.00881205 -0.13219440 0.65304589
v -0.00881205 -0.13219440 0.65304589
v -0.00001661 -0.13305670 0.65304589
v -0.00001661 -0.13305670 0.65304589
v 0.00881334 -0.13219440 0.65304589
v 0.00881334 -0.13219440 0.65304589
v 0.00881334 -0.13219440 0.65304589
v 0.01726390 -0.12964200 0.65304589
v 0.01726390 -0.12964200 0.65304589
v 0.01726390 -0.12964200 0.65304589
v 0.02505918 -0.12546840 0.65304589
v 0.02505918 -0.12546840 0.65304589
v 0.02505918 -0.12546840 0.65304589
v 0.03188862 -0.11984620 0.65304589
v 0.03188862 -0.11984620 0.65304589
v 0.03751082 -0.11301680 0.65304589
v 0.03751082 -0.11301680 0.65304589
v 0.03751082 -0.11301680 0.65304589
v 0.04168440 -0.10522160 0.65304589
v 0.04168440 -0.10522160 0.65304589
v 0.04168440 -0.10522160 0.65304589
v 0.04423679 -0.09673648 0.65304589
v 0.04423679 -0.09673648 0.65304589
v 0.04509909 -0.08794098 0.65304589
v 0.04509909 -0.08794098 0.65304589
v 0.04423679 -0.07914548 0.65304589
v 0.04423679 -0.07914548 0.65304589
v 0.04168440 -0.07069492 0.65304589
v 0.04168440 -0.07069492 0.65304589
v 0.03751081 -0.06289970 0.65304589
v 0.03751081 -0.06289970 0.65304589
v 0.03188862 -0.05603575 0.65304589
v 0.03188862 -0.05603575 0.65304589
v 0.03188862 -0.05603575 0.65304589
v 0.03937360 -0.06148552 0.28791204
v 0.04175360 -0.05979536 0.18067583
v 0.04789320 -0.06786655 0.15791103
v 0.05265318 -0.07721394 0.14245853
v 0.05375688 -0.08769953 0.14245853
v 0.05275665 -0.09818517 0.14245853
v 0.04975580 -0.10829129 0.14245853
v 0.04478894 -0.11760429 0.14249302
v 0.03813194 -0.12581339 0.14249301
v 0.02999179 -0.13257390 0.14249301
v 0.02064442 -0.13757519 0.14249301
v 0.01053822 -0.14064500 0.14249300
v -0.00001633 -0.14174870 0.14249300
v -0.01053643 -0.14064500 0.14249300
v -0.02067710 -0.13757519 0.14249298
v -0.02998996 -0.13257390 0.14249298
v -0.03813017 -0.12581339 0.14249298
v -0.04478711 -0.11760431 0.14249296
v -0.04975397 -0.10829131 0.14245847
v -0.05275482 -0.09818519 0.14245847
v -0.05375511 -0.08769954 0.14245847
v -0.05265135 -0.07721395 0.14245847
v -0.04954702 -0.06714225 0.14245847
v -0.04789145 -0.06786656 0.15791097
v -0.04640826 -0.06845295 0.18067578
v -0.03937193 -0.06148553 0.28791198
v -0.03750955 -0.06289970 0.65304589
v -0.03750955 -0.06289970 0.65304589
v -0.00001661 -0.08794099 0.65304589
v -0.00001661 -0.08794099 0.65304589
v -0.00001661 -0.08794099 0.65304589
v -0.00001661 -0.08794099 0.65304589
v -0.00001661 -0.08794099 0.65304589
v -0.00001661 -0.08794099 0.65304589
v -0.00001661 -0.08794099 0.65304589
v -0.00001661 -0.08794099 0.65304589
v -0.00001661 -0.08794099 0.65304589
v -0.00001661 -0.08794099 0.65304589
v -0.00001661 -0.08794099 0.65304589
v -0.00001661 -0.08794099 0.65304589
v -0.00001661 -0.08794099 0.65304589
v -0.00001661 -0.08794099 0.65304589
v 0.02505917 -0.05044800 0.65304589
v 0.02505917 -0.05044800 0.65304589
v 0.02505917 -0.05044800 0.65304589
v 0.03347542 -0.05431115 0.28791204
v 0.03547605 -0.05220710 0.18067582
v 0.04306433 -0.05889856 0.15791103
v 0.04954885 -0.06714223 0.14245853
v 0.05196332 -0.06617646 0.12742002
v 0.05520558 -0.07669656 0.12742002
v 0.05634385 -0.08769953 0.12745443
v 0.05530905 -0.09866802 0.12745443
v 0.05213577 -0.10929159 0.12745443
v 0.04696196 -0.11905289 0.12748893
v 0.03996002 -0.12764139 0.12748891
v 0.03140599 -0.13471229 0.12748891
v 0.02164471 -0.13995519 0.12752342
v 0.01105564 -0.14316291 0.12752341
v -0.00001632 -0.14426670 0.12752341
v -0.01105380 -0.14316291 0.12752341
v -0.02164286 -0.13995519 0.12752339
v -0.03140413 -0.13471229 0.12748888
v -0.03995823 -0.12764139 0.12748888
v -0.04696010 -0.11905291 0.12748887
v -0.05213397 -0.10929161 0.12745437
v -0.05530720 -0.09866804 0.12745437
v -0.05634200 -0.08769954 0.12745437
v -0.05520373 -0.07669657 0.12741996
v -0.05196148 -0.06617647 0.12741996
v -0.04458017 -0.05789834 0.14242397
v -0.04306252 -0.05889856 0.15791097
v -0.04175183 -0.05979537 0.18067578
v -0.03347376 -0.05431115 0.28791198
v -0.03188734 -0.05603575 0.65304589
v -0.03188734 -0.05603575 0.65304589
v -0.03188734 -0.05603575 0.65304589
v -0.02505790 -0.05044800 0.65304589
v -0.02505790 -0.05044800 0.65304589
v -0.02505790 -0.05044800 0.65304589
v -0.01726268 -0.04627448 0.65304589
v -0.01726268 -0.04627448 0.65304589
v -0.01726268 -0.04627448 0.65304589
v -0.00881206 -0.04368758 0.65304589
v -0.00881206 -0.04368758 0.65304589
v -0.00881206 -0.04368758 0.65304589
v -0.00001661 -0.04282522 0.65304589
v -0.00001661 -0.04282522 0.65304589
v -0.00001661 -0.04282522 0.65304589
v -0.00001661 -0.04282522 0.65304589
v 0.00881333 -0.04368758 0.65304589
v 0.00881333 -0.04368758 0.65304589
v 0.00881333 -0.04368758 0.65304589
v 0.01726389 -0.04627448 0.65304589
v 0.01726389 -0.04627448 0.65304589
v 0.01726389 -0.04627448 0.65304589
v 0.02630105 -0.04844747 0.28791201
v 0.02785327 -0.04599851 0.18067582
v 0.03657982 -0.05110335 0.15791102
v 0.04454748 -0.05789834 0.14242403
v 0.04672050 -0.05644965 0.12738542
v 0.04258144 -0.04541218 0.10796642
v 0.04258144 -0.04541218 0.10796642
v 0.05010074 -0.05455255 0.10796643
v 0.05010074 -0.05455255 0.10796643
v 0.05565399 -0.06496923 0.10796643
v 0.05565399 -0.06496923 0.10796643
v 0.05906868 -0.07628261 0.10796643
v 0.05906868 -0.07628261 0.10796643
v 0.06024147 -0.08800995 0.10796643
v 0.06024147 -0.08800995 0.10796643
v 0.05906868 -0.09977178 0.10796643
v 0.05906868 -0.09977178 0.10796643
v 0.05565399 -0.11108519 0.10796643
v 0.05565399 -0.11108519 0.10796643
v 0.05010075 -0.12150189 0.10796643
v 0.05010075 -0.12150189 0.10796643
v 0.04258144 -0.13060780 0.10796642
v 0.04258144 -0.13060780 0.10796642
v 0.03347552 -0.13812710 0.10796642
v 0.03347552 -0.13812710 0.10796642
v 0.02305891 -0.14368030 0.10796642
v 0.02305891 -0.14368030 0.10796642
v 0.01174547 -0.14709500 0.10796641
v 0.01174547 -0.14709500 0.10796641
v -0.00001631 -0.14826781 0.10796640
v -0.00001631 -0.14826781 0.10796640
v -0.01174364 -0.14709500 0.10796639
v -0.01174364 -0.14709500 0.10796639
v -0.02305702 -0.14368030 0.10796639
v -0.02305702 -0.14368030 0.10796639
v -0.03347366 -0.13812710 0.10796639
v -0.03347366 -0.13812710 0.10796639
v -0.04261409 -0.13060780 0.10796638
v -0.04261409 -0.13060780 0.10796638
v -0.05009888 -0.12150191 0.10796637
v -0.05009888 -0.12150191 0.10796637
v -0.05565213 -0.11108521 0.10796637
v -0.05565213 -0.11108521 0.10796637
v -0.05906688 -0.09977180 0.10796637
v -0.05906688 -0.09977180 0.10796637
v -0.06023960 -0.08800996 0.10796637
v -0.06023960 -0.08800996 0.10796637
v -0.05906688 -0.07628263 0.10796637
v -0.05906688 -0.07628263 0.10796637
v -0.05565213 -0.06496925 0.10796637
v -0.05565213 -0.06496925 0.10796637
v -0.05009888 -0.05455256 0.10796637
v -0.05009888 -0.05455256 0.10796637
v -0.04671865 -0.05644966 0.12738536
v -0.03785421 -0.04982715 0.14242399
v -0.03657801 -0.05110335 0.15791099
v -0.03547427 -0.05220711 0.18067579
v -0.02629938 -0.04844748 0.28791201
v -0.01809027 -0.04406696 0.28791201
v -0.00922582 -0.04141110 0.28791201
v -0.00001642 -0.04047977 0.28791201
v -0.00001642 -0.04047977 0.28791201
v 0.00922742 -0.04141110 0.28791201
v 0.01809194 -0.04406696 0.28791201
v 0.01919576 -0.04137659 0.18067582
v 0.02875010 -0.04468780 0.15791102
v 0.03785602 -0.04982715 0.14242402
v 0.03971862 -0.04796457 0.12738541
v 0.03347551 -0.03792738 0.10796642
v 0.03347551 -0.03792738 0.10796642
v 0.03347553 -0.03792738 0.08796091
v 0.03347553 -0.03792738 0.08796091
v 0.04258145 -0.04541218 0.08796091
v 0.04258145 -0.04541218 0.08796091
v 0.05010075 -0.05455255 0.08796092
v 0.05010075 -0.05455255 0.08796092
v 0.05565400 -0.06496923 0.08796092
v 0.05565400 -0.06496923 0.08796092
v 0.05565400 -0.06496923 0.08796092
v 0.05906869 -0.07628261 0.08796092
v 0.05906869 -0.07628261 0.08796092
v 0.05906869 -0.07628261 0.08796092
v 0.06024148 -0.08800995 0.08796092
v 0.06024148 -0.08800995 0.08796092
v 0.05906869 -0.09977178 0.08796092
v 0.05906869 -0.09977178 0.08796092
v 0.05565400 -0.11108519 0.08796092
v 0.05565400 -0.11108519 0.08796092
v 0.05565400 -0.11108519 0.08796092
v 0.05010076 -0.12150189 0.08796092
v 0.05010076 -0.12150189 0.08796092
v 0.05010076 -0.12150189 0.08796092
v 0.04258145 -0.13060780 0.08796091
v 0.04258145 -0.13060780 0.08796091
v 0.04258145 -0.13060780 0.08796091
v 0.03347553 -0.13812710 0.08796091
v 0.03347553 -0.13812710 0.08796091
v 0.02305892 -0.14368030 0.08796091
v 0.02305892 -0.14368030 0.08796091
v 0.01174548 -0.14709500 0.08796090
v 0.01174548 -0.14709500 0.08796090
v -0.00001630 -0.14826781 0.08796089
v -0.00001630 -0.14826781 0.08796089
v -0.01174363 -0.14709500 0.08796088
v -0.01174363 -0.14709500 0.08796088
v -0.02305701 -0.14368030 0.08796088
v -0.02305701 -0.14368030 0.08796088
v -0.03347365 -0.13812710 0.08796088
v -0.03347365 -0.13812710 0.08796088
v -0.03347365 -0.13812710 0.08796088
v -0.04261408 -0.13060780 0.08796087
v -0.04261408 -0.13060780 0.08796087
v -0.04261408 -0.13060780 0.08796087
v -0.05009887 -0.12150191 0.08796086
v -0.05009887 -0.12150191 0.08796086
v -0.05009887 -0.12150191 0.08796086
v -0.05565212 -0.11108521 0.08796086
v -0.05565212 -0.11108521 0.08796086
v -0.05565212 -0.11108521 0.08796086
v -0.05906687 -0.09977180 0.08796086
v -0.05906687 -0.09977180 0.08796086
v -0.06023959 -0.08800996 0.08796086
v -0.06023959 -0.08800996 0.08796086
v -0.05906687 -0.07628263 0.08796086
v -0.05906687 -0.07628263 0.08796086
v -0.05565212 -0.06496925 0.08796086
v -0.05565212 -0.06496925 0.08796086
v -0.05009887 -0.05455256 0.08796086
v -0.05009887 -0.05455256 0.08796086
v -0.04261408 -0.04541218 0.08796087
v -0.04261408 -0.04541218 0.08796087
v -0.03347366 -0.03792739 0.08796088
v -0.03347366 -0.03792739 0.08796088
v -0.03347366 -0.03792739 0.08796088
v -0.04261409 -0.04541218 0.10796638
v -0.04261409 -0.04541218 0.10796638
v -0.03971678 -0.04796457 0.12738538
v -0.02974856 -0.04317015 0.14242399
v -0.02874829 -0.04468780 0.15791099
v -0.02785149 -0.04599851 0.18067579
v -0.01919397 -0.04137659 0.18067579
v -0.00977764 -0.03854823 0.18067580
v -0.00001636 -0.03754794 0.18067580
v -0.00001636 -0.03754794 0.18067580
v 0.00977936 -0.03854823 0.18067580
v 0.01978210 -0.03992789 0.15791102
v 0.02975039 -0.04317015 0.14242402
v 0.03119902 -0.04099714 0.12738541
v 0.02305890 -0.03237414 0.10796642
v 0.02305890 -0.03237414 0.10796642
v 0.02305891 -0.03237414 0.08796091
v 0.02305891 -0.03237414 0.08796091
v -0.00001631 -0.08800995 0.08796089
v -0.00001631 -0.08800995 0.08796089
v -0.00001631 -0.08800995 0.08796089
v -0.00001631 -0.08800995 0.08796089
v -0.00001631 -0.08800995 0.08796089
v -0.00001631 -0.08800995 0.08796089
v -0.00001631 -0.08800995 0.08796089
v -0.00001631 -0.08800995 0.08796089
v -0.00001631 -0.08800995 0.08796089
v -0.00001631 -0.08800995 0.08796089
v -0.00001631 -0.08800995 0.08796089
v -0.02305702 -0.03237414 0.08796088
v -0.02305702 -0.03237414 0.08796088
v -0.02305702 -0.03237414 0.08796088
v -0.03347367 -0.03792739 0.10796639
v -0.03347367 -0.03792739 0.10796639
v -0.03119720 -0.04099714 0.12738538
v -0.02047015 -0.03823781 0.14242399
v -0.01978035 -0.03992789 0.15791099
v -0.01008804 -0.03699606 0.15791100
v -0.00001635 -0.03603029 0.15791100
v -0.00001635 -0.03603029 0.15791100
v 0.01008985 -0.03699606 0.15791100
v 0.02047197 -0.03823781 0.14242402
v 0.02147226 -0.03585785 0.12738541
v 0.01174545 -0.02895939 0.10796641
v 0.01174545 -0.02895939 0.10796641
v 0.01174547 -0.02895939 0.08796090
v 0.01174547 -0.02895939 0.08796090
v 0.01174547 -0.02895939 0.08796090
v -0.00001631 -0.02778667 0.08796089
v -0.00001631 -0.02778667 0.08796089
v -0.00001631 -0.02778667 0.08796089
v -0.00001631 -0.02778667 0.08796089
v -0.01174364 -0.02895939 0.08796088
v -0.01174364 -0.02895939 0.08796088
v -0.01174364 -0.02895939 0.08796088
v -0.02305703 -0.03237414 0.10796639
v -0.02305703 -0.03237414 0.10796639
v -0.02147043 -0.03585785 0.12738538
v -0.01043296 -0.03523695 0.14242400
v -0.00001634 -0.03413325 0.14242400
v -0.00001634 -0.03413325 0.14242400
v 0.01043473 -0.03523695 0.14242400
v 0.01095216 -0.03268456 0.12735090
v -0.00001632 -0.02778667 0.10796640
v -0.00001632 -0.02778667 0.10796640
v -0.00001632 -0.02778667 0.10796640
v -0.00001632 -0.02778667 0.10796640
v -0.01174365 -0.02895939 0.10796639
v -0.01174365 -0.02895939 0.10796639
v -0.01095033 -0.03268456 0.12738539
v -0.00001633 -0.03158080 0.12738539
v -0.00001633 -0.03158080 0.12738539
vn -0.97997141 0.19846012 0.01642305
vn -0.99882102 0.00509933 0.04827558
vn -0.99984622 0.00427446 0.01701146
vn -0.98041528 -0.19097018 0.04812849
vn -0.98103762 -0.19313168 0.01629269
vn -0.92422461 -0.37886748 0.04762629
vn -0.92488253 -0.37988260 0.01678088
vn -0.83280373 -0.55151856 0.04759511
vn -0.83242261 -0.55389553 0.01650228
vn -0.70985341 -0.70267147 0.04859051
vn -0.70884395 -0.70516545 0.01679662
vn -0.55793631 -0.82851058 0.04772174
vn -0.55720335 -0.83021396 0.01641464
vn -0.38371363 -0.92222267 0.04763766
vn -0.38294071 -0.92362076 0.01677141
vn -0.19767845 -0.97909522 0.04791690
vn -0.19697663 -0.98026782 0.01659209
vn 0.00049936 -0.99889082 0.04708701
vn -0.00020114 -0.99985749 0.01688241
vn 0.19766276 -0.97910082 0.04786668
vn 0.19719298 -0.98022908 0.01631068
vn 0.38404396 -0.92207205 0.04788800
vn 0.38287690 -0.92364872 0.01668371
vn 0.55778444 -0.82861072 0.04775685
vn 0.55721086 -0.83020931 0.01638722
vn 0.70990878 -0.70261502 0.04859914
vn 0.70933127 -0.70467532 0.01679202
vn 0.83282584 -0.55148375 0.04761085
vn 0.83343256 -0.55236834 0.01671597
vn 0.92425299 -0.37879962 0.04761786
vn 0.92487937 -0.37988982 0.01679463
vn 0.98049509 -0.19065551 0.04774885
vn 0.98104232 -0.19310701 0.01630174
vn 0.99881637 0.00512841 0.04837018
vn 0.99985170 0.00281021 0.01699662
vn 0.97852761 0.20044749 0.04800873
vn 0.97998267 0.19841088 0.01634333
vn 0.92292255 0.38461959 0.01679100
vn 0.92089105 0.38688460 0.04775067
vn 0.97553223 0.19931188 0.09279982
vn 0.99567956 0.00490668 0.09272753
vn 0.97752792 -0.18960100 0.09214429
vn 0.92107183 -0.37830311 0.09226901
vn 0.83037329 -0.54952866 0.09218690
vn 0.70698702 -0.70116437 0.09240116
vn 0.55475920 -0.82685983 0.09243941
vn 0.38162693 -0.91965544 0.09270837
vn 0.19414425 -0.97647131 0.09387217
vn -0.00047484 -0.99562639 0.09342348
vn -0.19415826 -0.97660732 0.09241690
vn -0.38147137 -0.91972274 0.09267989
vn -0.55478019 -0.82685155 0.09238916
vn -0.70714748 -0.70099747 0.09243891
vn -0.83030111 -0.54960918 0.09235802
vn -0.92112339 -0.37811169 0.09253864
vn -0.97740793 -0.18996079 0.09267456
vn -0.99567735 0.00516299 0.09273653
vn -0.97549248 0.19947351 0.09286977
vn -0.97853041 0.20043281 0.04800905
vn -0.92220056 0.38634840 0.01676730
vn -0.00000054 -0.00000000 1.00000000
vn -0.92395633 0.38244492 0.00636170
vn -0.00000054 -0.00000000 1.00000000
vn -0.98096168 0.19407742 0.00693632
vn -0.00000054 -0.00000000 1.00000000
vn -0.99997961 -0.00000433 0.00639373
vn -0.00000054 -0.00000000 1.00000000
vn -0.98096311 -0.19407248 0.00687386
vn 0.00000885 0.00000000 1.00000000
vn -0.92403013 -0.38226610 0.00639514
vn -0.00000054 -0.00000000 1.00000000
vn -0.83120924 -0.55591828 0.00679311
vn -0.00000054 -0.00000000 1.00000000
vn 0.00000885 0.00000000 1.00000000
vn -0.00000054 -0.00000000 1.00000000
vn -0.70709246 -0.70708889 0.00675634
vn -0.00000992 -0.00000000 1.00000000
vn -0.55592906 -0.83120143 0.00688291
vn -0.00000054 -0.00000000 1.00000000
vn -0.00000992 -0.00000000 1.00000000
vn -0.38244390 -0.92395657 0.00639907
vn 0.00000886 0.00000000 1.00000000
vn 0.00000886 0.00000000 1.00000000
vn -0.00000054 -0.00000000 1.00000000
vn -0.19538881 -0.98070198 0.00685455
vn -0.00000054 -0.00000000 1.00000000
vn -0.00007452 -0.99997717 0.00674683
vn -0.00000054 -0.00000000 1.00000000
vn 0.19541720 -0.98069590 0.00690614
vn -0.00000993 -0.00000000 1.00000000
vn -0.00000993 -0.00000000 1.00000000
vn 0.00000884 0.00000000 1.00000000
vn 0.38242328 -0.92396516 0.00641289
vn 0.55605316 -0.83111936 0.00674707
vn -0.00000054 -0.00000000 1.00000000
vn 0.00000884 0.00000000 1.00000000
vn -0.00000054 -0.00000000 1.00000000
vn 0.70707637 -0.70710766 0.00647744
vn -0.00000523 -0.00000000 1.00000000
vn -0.00000054 -0.00000000 1.00000000
vn 0.83112747 -0.55604064 0.00678834
vn 0.92394036 -0.38248321 0.00639935
vn -0.00000523 -0.00000000 1.00000000
vn -0.00000054 -0.00000000 1.00000000
vn -0.00000054 -0.00000000 1.00000000
vn 0.98093772 -0.19419672 0.00698857
vn -0.00000054 -0.00000000 1.00000000
vn 0.99997681 -0.00000118 0.00682896
vn 0.98092681 0.19426999 0.00647574
vn -0.00000054 -0.00000000 1.00000000
vn 0.92395186 0.38245410 0.00646992
vn -0.00000054 -0.00000000 1.00000000
vn 0.83124411 0.55586636 0.00676587
vn -0.00000054 -0.00000000 1.00000000
vn 0.70700663 0.70717478 0.00674673
vn -0.00000054 -0.00000000 1.00000000
vn 0.00000417 0.00000000 1.00000000
vn 0.83015323 0.55728906 0.01656732
vn 0.82857364 0.55781734 0.04801603
vn 0.91824496 0.38494319 0.09297747
vn 0.96954775 0.19861630 0.14327923
vn 0.98962015 0.00550714 0.14360304
vn 0.97136384 -0.18990231 0.14279231
vn 0.91554218 -0.37575680 0.14349019
vn 0.82513672 -0.54638636 0.14356735
vn 0.70287502 -0.69672835 0.14330547
vn 0.55179959 -0.82151765 0.14361720
vn 0.37919161 -0.91410232 0.14363390
vn 0.19573241 -0.97011852 0.14338401
vn -0.00111644 -0.98953623 0.14428030
vn -0.19449689 -0.97042388 0.14299749
vn -0.37921199 -0.91414559 0.14330480
vn -0.55174458 -0.82152939 0.14376231
vn -0.70293713 -0.69667476 0.14326143
vn -0.82496011 -0.54663247 0.14364445
vn -0.91562492 -0.37574869 0.14298251
vn -0.97136414 -0.18990359 0.14278787
vn -0.98962003 0.00526366 0.14361197
vn -0.96951789 0.19859321 0.14351238
vn -0.91287559 0.38224161 0.14335100
vn -0.91831219 0.38482240 0.09281550
vn -0.92088455 0.38689771 0.04776935
vn -0.83022088 0.55719096 0.01648805
vn -0.83120704 0.55592215 0.00675359
vn -0.00000054 -0.00000000 1.00000000
vn 0.00000884 0.00000000 1.00000000
vn 0.00000886 0.00000000 1.00000000
vn -0.00000992 -0.00000000 1.00000000
vn 0.00000885 0.00000000 1.00000000
vn -0.00000523 -0.00000000 1.00000000
vn -0.00000993 -0.00000000 1.00000000
vn 0.00000417 0.00000000 1.00000000
vn -0.00000054 -0.00000000 1.00000000
vn 0.00000181 0.00000000 1.00000000
vn -0.00000992 -0.00000000 1.00000000
vn 0.00000881 0.00000000 1.00000000
vn -0.00000992 -0.00000000 1.00000000
vn 0.00000885 0.00000000 1.00000000
vn -0.00000994 -0.00000000 1.00000000
vn 0.00000417 0.00000000 1.00000000
vn 0.00000181 0.00000000 1.00000000
vn 0.55591154 0.83121377 0.00680119
vn 0.70498097 0.70902747 0.01679380
vn 0.70411766 0.70842528 0.04849954
vn 0.82581788 0.55634767 0.09220834
vn 0.91250819 0.38307869 0.14345589
vn 0.90680033 0.37930119 0.18396729
vn 0.96301889 0.19696818 0.18384261
vn 0.98304188 0.00574907 0.18329132
vn 0.96469951 -0.18811171 0.18430692
vn 0.90937805 -0.37266970 0.18479410
vn 0.81939155 -0.54268616 0.18463293
vn 0.69734585 -0.69254935 0.18461928
vn 0.54852205 -0.81546193 0.18478480
vn 0.37800589 -0.90704805 0.18540640
vn 0.19265918 -0.96378499 0.18439360
vn -0.00060207 -0.98294860 0.18388000
vn -0.19242081 -0.96376008 0.18477200
vn -0.37800950 -0.90704817 0.18539859
vn -0.54810488 -0.81578565 0.18459420
vn -0.69754279 -0.69227987 0.18488593
vn -0.81935847 -0.54279524 0.18445917
vn -0.90974385 -0.37250417 0.18332180
vn -0.96501714 -0.18775769 0.18300047
vn -0.98314750 0.00487909 0.18274908
vn -0.96328604 0.19681621 0.18260188
vn -0.90668046 0.38037541 0.18233231
vn -0.82154852 0.55170935 0.14378776
vn -0.82575774 0.55641705 0.09232787
vn -0.82851404 0.55792934 0.04774305
vn -0.70496947 0.70903861 0.01680097
vn -0.00000054 -0.00000000 1.00000000
vn -0.70706904 0.70711142 0.00684265
vn -0.00000994 -0.00000000 1.00000000
vn -0.00000054 -0.00000000 1.00000000
vn -0.55606747 0.83110934 0.00681960
vn -0.00000994 -0.00000000 1.00000000
vn 0.00000885 0.00000000 1.00000000
vn -0.00000054 -0.00000000 1.00000000
vn -0.38262829 0.92388034 0.00637868
vn -0.19561149 0.98065788 0.00680603
vn 0.00000885 0.00000000 1.00000000
vn -0.00000992 -0.00000000 1.00000000
vn -0.00000992 -0.00000000 1.00000000
vn 0.00000881 0.00000000 1.00000000
vn 0.00003680 0.99997622 0.00689530
vn -0.00002816 0.99997622 0.00690335
vn 0.00000881 0.00000000 1.00000000
vn -0.00000992 -0.00000000 1.00000000
vn 0.19567192 0.98064673 0.00667946
vn 0.00000181 0.00000000 1.00000000
vn 0.38243580 0.92395985 0.00640186
vn -0.00000992 -0.00000000 1.00000000
vn 0.55437946 0.83209568 0.01674056
vn 0.55331635 0.83157718 0.04817259
vn 0.70144808 0.70671898 0.09229912
vn 0.82031327 0.55352616 0.14385764
vn 0.81526363 0.54932898 0.18325654
vn 0.70654196 0.70767117 0.00000015
vn 0.69394660 0.69362664 0.19318417
vn 0.81605583 0.54427844 0.19445743
vn 0.83144635 0.55560505 0.00000045
vn 0.90625614 0.37517950 0.19478229
vn 0.92370546 0.38310349 0.00000050
vn 0.96200091 0.19109109 0.19503473
vn 0.98077518 0.19514139 0.00000053
vn 1.00000000 0.00014534 0.00000054
vn 0.98077506 0.00002101 0.19514152
vn 0.98070627 -0.19548711 0.00000053
vn 0.96166509 -0.19131081 0.19647013
vn 0.92374384 -0.38301101 0.00000050
vn 0.90519434 -0.37600371 0.19810200
vn 0.81479335 -0.54500002 0.19770393
vn 0.83093107 -0.55637556 0.00000045
vn 0.69262046 -0.69351381 0.19828117
vn 0.70633286 -0.70787996 0.00000038
vn 0.54384047 -0.81510484 0.19960369
vn 0.55637634 -0.83093053 0.00000030
vn 0.37444726 -0.90551376 0.19958450
vn 0.38333359 -0.92360991 0.00000021
vn 0.19171919 -0.96093810 0.19960390
vn 0.19548759 -0.98070627 0.00000010
vn 0.00002764 -0.97959232 0.20099550
vn -0.00014471 -1.00000000 -0.00000000
vn -0.19171052 -0.96065313 0.20097940
vn -0.19514081 -0.98077518 -0.00000010
vn -0.37441352 -0.90548444 0.19978121
vn -0.38324070 -0.92364854 -0.00000021
vn -0.55560446 -0.83144677 -0.00000030
vn -0.54389846 -0.81505674 0.19964300
vn -0.70774102 -0.70647198 -0.00000038
vn -0.69289464 -0.69267029 0.20026243
vn -0.83116984 -0.55601889 -0.00000045
vn -0.81506634 -0.54388958 0.19962767
vn -0.92360985 -0.38333419 -0.00000050
vn -0.90548599 -0.37458309 0.19945601
vn -0.98080349 -0.19499929 -0.00000053
vn -0.96137494 -0.19139560 0.19780368
vn -1.00000000 0.00014477 -0.00000054
vn -0.98040694 -0.00107404 0.19698037
vn -0.96175259 0.19121051 0.19613887
vn -0.98077518 0.19514091 -0.00000053
vn -0.90571237 0.37559682 0.19649991
vn -0.92364854 0.38324070 -0.00000050
vn -0.81552547 0.54445475 0.19618227
vn -0.83129817 0.55582696 -0.00000045
vn -0.81539059 0.54932582 0.18270066
vn -0.69827640 0.70133132 0.14333312
vn -0.70125532 0.70689356 0.09242610
vn -0.70413089 0.70841116 0.04851273
vn -0.55435455 0.83211142 0.01678406
vn -0.38117859 0.92434871 0.01679710
vn -0.19585210 0.98049772 0.01631828
vn 0.00002381 0.99985713 0.01690322
vn -0.00002406 0.99985731 0.01689660
vn 0.19573760 0.98052049 0.01632521
vn 0.38106450 0.92439604 0.01678815
vn 0.38060689 0.92348707 0.04806514
vn 0.55148297 0.82905787 0.09235578
vn 0.69684929 0.70274669 0.14334696
vn 0.69337124 0.69692486 0.18311797
vn 0.55572796 0.83136427 0.00000030
vn 0.54528981 0.81575316 0.19288850
vn 0.00000054 0.00000000 -1.00000000
vn 0.55585295 0.83128077 0.00000030
vn 0.70661295 0.70760024 0.00000038
vn 0.00000054 0.00000000 -1.00000000
vn 0.00000054 0.00000000 -1.00000000
vn 0.83144677 0.55560458 0.00000045
vn 0.00000087 0.00000000 -1.00000000
vn 0.00000054 0.00000000 -1.00000000
vn 0.92370552 0.38310319 0.00000050
vn 0.00000054 0.00000000 -1.00000000
vn 0.00000087 0.00000000 -1.00000000
vn 0.98077518 0.19514139 0.00000053
vn 0.00000054 0.00000000 -1.00000000
vn 1.00000000 0.00014520 0.00000054
vn 0.00000054 0.00000000 -1.00000000
vn 0.98073542 -0.19534071 0.00000066
vn 0.00000119 0.00000000 -1.00000000
vn 0.00000054 0.00000000 -1.00000000
vn 0.92368638 -0.38314951 0.00000050
vn 0.83093077 -0.55637604 0.00000045
vn 0.00000119 0.00000000 -1.00000000
vn -0.00000012 -0.00000000 -1.00000000
vn -0.00000012 -0.00000000 -1.00000000
vn 0.70640266 -0.70781022 0.00000038
vn 0.00000054 0.00000000 -1.00000000
vn 0.55637556 -0.83093095 0.00000030
vn 0.00000054 0.00000000 -1.00000000
vn 0.38324079 -0.92364842 0.00000021
vn 0.00000054 0.00000000 -1.00000000
vn 0.00000054 0.00000000 -1.00000000
vn 0.19534029 -0.98073548 0.00000010
vn -0.00014542 -1.00000000 -0.00000000
vn 0.00000054 0.00000000 -1.00000000
vn -0.19514140 -0.98077512 -0.00000010
vn 0.00000054 0.00000000 -1.00000000
vn 0.00000054 0.00000000 -1.00000000
vn -0.38305721 -0.92372477 -0.00000021
vn -0.00000012 -0.00000000 -1.00000000
vn 0.00000054 0.00000000 -1.00000000
vn -0.55601937 -0.83116949 -0.00000006
vn -0.70774162 -0.70647144 -0.00000038
vn 0.00000120 0.00000000 -1.00000000
vn -0.00000012 -0.00000000 -1.00000000
vn -0.83128125 -0.55585217 -0.00000045
vn 0.00000120 0.00000000 -1.00000000
vn -0.00000012 -0.00000000 -1.00000000
vn -0.00000012 -0.00000000 -1.00000000
vn 0.00000054 0.00000000 -1.00000000
vn -0.92368656 -0.38314909 -0.00000050
vn -0.98080361 -0.19499870 -0.00000053
vn 0.00000054 0.00000000 -1.00000000
vn -1.00000000 0.00014541 -0.00000054
vn 0.00000054 0.00000000 -1.00000000
vn 0.00000054 0.00000000 -1.00000000
vn -0.98077512 0.19514161 -0.00000053
vn 0.00000054 0.00000000 -1.00000000
vn -0.92368638 0.38314962 -0.00000050
vn 0.00000054 0.00000000 -1.00000000
vn -0.83126986 0.55586934 -0.00000045
vn 0.00000054 0.00000000 -1.00000000
vn -0.70647198 0.70774102 -0.00000004
vn 0.00000054 0.00000000 -1.00000000
vn 0.00000037 0.00000000 -1.00000000
vn -0.55586857 0.83127016 -0.00000030
vn -0.69435185 0.69274545 0.19488272
vn -0.70640206 0.70781082 -0.00000038
vn -0.69310319 0.69765371 0.18134873
vn -0.54825419 0.82387936 0.14366691
vn -0.55133230 0.82917452 0.09220808
vn -0.55299676 0.83178896 0.04818367
vn -0.38087282 0.92337847 0.04804435
vn -0.19625153 0.97938782 0.04780008
vn -0.00096776 0.99888963 0.04710417
vn -0.00102704 0.99888951 0.04710263
vn 0.19607738 0.97942209 0.04781453
vn 0.37815505 0.92110723 0.09252288
vn 0.54872340 0.82352108 0.14392990
vn 0.54372662 0.81913918 0.18268150
vn 0.38314882 0.92368668 0.00000021
vn 0.37477902 0.90676707 0.19316900
vn 0.00000054 0.00000000 -1.00000000
vn 0.38314951 0.92368638 0.00000021
vn -0.00000012 -0.00000000 -1.00000000
vn -0.00000078 -0.00000000 -1.00000000
vn 0.00000185 0.00000000 -1.00000000
vn 0.00000054 0.00000000 -1.00000000
vn 0.00000037 0.00000000 -1.00000000
vn 0.00000119 0.00000000 -1.00000000
vn -0.00000012 -0.00000000 -1.00000000
vn -0.00000012 -0.00000000 -1.00000000
vn 0.00000087 0.00000000 -1.00000000
vn 0.00000119 0.00000000 -1.00000000
vn 0.00000120 0.00000000 -1.00000000
vn 0.00000037 0.00000000 -1.00000000
vn -0.38301089 0.92374384 -0.00000021
vn 0.00000119 0.00000000 -1.00000000
vn -0.54588801 0.81494623 0.19459951
vn -0.55586916 0.83126986 -0.00000030
vn -0.54343027 0.81964487 0.18128970
vn -0.37550777 0.91562486 0.14361389
vn -0.37832215 0.92103702 0.09253624
vn -0.19276834 0.97675681 0.09373689
vn -0.00003459 0.99560022 0.09370285
vn 0.00001710 0.99560088 0.09369570
vn 0.19236487 0.97694522 0.09259591
vn 0.37625602 0.91536868 0.14328931
vn 0.37356213 0.90961367 0.18180869
vn 0.19090931 0.96234518 0.19350800
vn 0.19499841 0.98080361 0.00000010
vn 0.00000185 0.00000000 -1.00000000
vn 0.19499901 0.98080349 0.00000010
vn 0.00000054 0.00000000 -1.00000000
vn -0.00000078 -0.00000000 -1.00000000
vn -0.00000509 1.00000000 0.00000475
vn 0.00000219 1.00000000 0.00000476
vn 0.00000185 0.00000000 -1.00000000
vn -0.00000078 -0.00000000 -1.00000000
vn 0.00000119 0.00000000 -1.00000000
vn -0.19514088 0.98077518 -0.00000010
vn -0.38314968 0.92368627 -0.00000021
vn -0.37470377 0.90676636 0.19331820
vn -0.37367028 0.90958446 0.18173231
vn -0.19440587 0.97041208 0.14320159
vn 0.00111009 0.98954731 0.14420471
vn 0.00108989 0.98954737 0.14420401
vn 0.19321224 0.97061551 0.14343840
vn 0.19099021 0.96463782 0.18164951
vn 0.00001006 0.98123592 0.19281121
vn 0.00000221 1.00000000 -0.00000474
vn -0.00000515 1.00000000 -0.00000478
vn -0.00004323 0.98123610 0.19281040
vn -0.19514169 0.98077512 -0.00000010
vn -0.19239889 0.96201098 0.19369419
vn -0.19233120 0.96433282 0.18185429
vn 0.00001904 0.98348302 0.18100080
vn -0.00000608 0.98348379 0.18099630
vt 0.45000291 0.23735410
vt 0.44319671 0.30647239
vt 0.44319671 0.23735410
vt 0.43650779 0.30647239
vt 0.43650779 0.23735410
vt 0.42970160 0.30647239
vt 0.42970160 0.23735410
vt 0.42289540 0.30647239
vt 0.42289540 0.23735410
vt 0.41620651 0.30647239
vt 0.41620651 0.23735410
vt 0.40940040 0.30647239
vt 0.40940040 0.23735410
vt 0.40271151 0.30647239
vt 0.40271151 0.23735410
vt 0.39602259 0.30647239
vt 0.39602259 0.23735410
vt 0.38921639 0.30647239
vt 0.38921639 0.23735410
vt 0.38252750 0.30647239
vt 0.38252750 0.23735410
vt 0.37583861 0.30647239
vt 0.37583861 0.23735410
vt 0.36914980 0.30647239
vt 0.36914980 0.23735410
vt 0.36234361 0.30647239
vt 0.36234361 0.23735410
vt 0.35553742 0.30647239
vt 0.35553742 0.23735410
vt 0.34884849 0.30647239
vt 0.34884849 0.23735410
vt 0.34204230 0.30647239
vt 0.34204230 0.23735410
vt 0.33535340 0.30647239
vt 0.33535340 0.23735410
vt 0.32854721 0.30647239
vt 0.32854721 0.23735410
vt 0.32185841 0.23735410
vt 0.32185841 0.30647239
vt 0.32854721 0.32102370
vt 0.33535340 0.32102370
vt 0.34204230 0.32102370
vt 0.34884849 0.32102370
vt 0.35553742 0.32102370
vt 0.36234361 0.32102370
vt 0.36914980 0.32102370
vt 0.37583861 0.32102370
vt 0.38252750 0.32102370
vt 0.38921639 0.32102370
vt 0.39602259 0.32102370
vt 0.40271151 0.32102370
vt 0.40940040 0.32102370
vt 0.41620651 0.32102370
vt 0.42289540 0.32102370
vt 0.42970160 0.32102370
vt 0.43650779 0.32102370
vt 0.44319671 0.32102370
vt 0.45000291 0.32102370
vt 0.45000291 0.30647239
vt 0.45669180 0.23735410
vt 0.53261632 0.92982757
vt 0.45669180 0.00195312
vt 0.53378981 0.92396021
vt 0.45000291 0.00195312
vt 0.53601933 0.91844481
vt 0.44319671 0.00195312
vt 0.53930509 0.91351622
vt 0.43650779 0.00195312
vt 0.54352963 0.90929163
vt 0.42970160 0.00195312
vt 0.54352963 0.90929163
vt 0.42289540 0.00195312
vt 0.54857558 0.90588850
vt 0.54857558 0.90588850
vt 0.55409098 0.90365893
vt 0.41620651 0.00195312
vt 0.55995852 0.90248537
vt 0.40940040 0.00195312
vt 0.55995852 0.90248537
vt 0.56594330 0.90248537
vt 0.40271151 0.00195312
vt 0.56594330 0.90248537
vt 0.57181060 0.90365893
vt 0.57181060 0.90365893
vt 0.39602259 0.00195312
vt 0.57732612 0.90588850
vt 0.38921639 0.00195312
vt 0.58225471 0.90929163
vt 0.38252750 0.00195312
vt 0.58225471 0.90929163
vt 0.58647919 0.91351622
vt 0.58647919 0.91351622
vt 0.37583861 0.00195312
vt 0.36914980 0.00195312
vt 0.58976501 0.91844481
vt 0.58976501 0.91844481
vt 0.59211201 0.92396021
vt 0.36234361 0.00195312
vt 0.59328550 0.92982757
vt 0.59328550 0.92982757
vt 0.35553742 0.00195312
vt 0.34884849 0.00195312
vt 0.59328550 0.93581241
vt 0.59328550 0.93581241
vt 0.59211201 0.94167978
vt 0.34204230 0.00195312
vt 0.58976501 0.94719517
vt 0.33535340 0.00195312
vt 0.32854721 0.00195312
vt 0.58647919 0.95212382
vt 0.32185841 0.00195312
vt 0.58225471 0.95634842
vt 0.31505221 0.00195312
vt 0.57732612 0.95975143
vt 0.30836329 0.00195312
vt 0.57181060 0.96198112
vt 0.57181060 0.96198112
vt 0.31505221 0.23735410
vt 0.31505221 0.30647239
vt 0.32185841 0.32102370
vt 0.32854721 0.33099830
vt 0.33535340 0.33099830
vt 0.34204230 0.33099830
vt 0.34884849 0.33099830
vt 0.35553742 0.33099830
vt 0.36234361 0.33099830
vt 0.36914980 0.33099830
vt 0.37583861 0.33099830
vt 0.38252750 0.33099830
vt 0.38921639 0.33099830
vt 0.39602259 0.33099830
vt 0.40271151 0.33099830
vt 0.40940040 0.33099830
vt 0.41620651 0.33099830
vt 0.42289540 0.33099830
vt 0.42970160 0.33099830
vt 0.43650779 0.33099830
vt 0.44319671 0.33099830
vt 0.45000291 0.33099830
vt 0.45669180 0.33099830
vt 0.45669180 0.32102370
vt 0.45669180 0.30647239
vt 0.46349800 0.23735410
vt 0.46349800 0.00195312
vt 0.53261632 0.93581241
vt 0.56289208 0.93287861
vt 0.56289208 0.93287861
vt 0.56289208 0.93287861
vt 0.56289208 0.93287861
vt 0.56289208 0.93287861
vt 0.56289208 0.93287861
vt 0.56289208 0.93287861
vt 0.56289208 0.93287861
vt 0.56289208 0.93287861
vt 0.56289208 0.93287861
vt 0.56289208 0.93287861
vt 0.56289208 0.93287861
vt 0.56289208 0.93287861
vt 0.56289208 0.93287861
vt 0.56594330 0.96315461
vt 0.56594330 0.96315461
vt 0.30167440 0.00195312
vt 0.30836329 0.23735410
vt 0.30836329 0.30647239
vt 0.31505221 0.32102370
vt 0.32185841 0.33099830
vt 0.32185841 0.34073821
vt 0.32854721 0.34073821
vt 0.33535340 0.34073821
vt 0.34204230 0.34073821
vt 0.34884849 0.34073821
vt 0.35553742 0.34073821
vt 0.36234361 0.34073821
vt 0.36914980 0.34073821
vt 0.37583861 0.34073821
vt 0.38252750 0.34073821
vt 0.38921639 0.34073821
vt 0.39602259 0.34073821
vt 0.40271151 0.34073821
vt 0.40940040 0.34073821
vt 0.41620651 0.34073821
vt 0.42289540 0.34073821
vt 0.42970160 0.34073821
vt 0.43650779 0.34073821
vt 0.44319671 0.34073821
vt 0.45000291 0.34073821
vt 0.45669180 0.34073821
vt 0.46349800 0.33099830
vt 0.46349800 0.32102370
vt 0.46349800 0.30647239
vt 0.47018680 0.23735410
vt 0.53378981 0.94167978
vt 0.47018680 0.00195312
vt 0.53378981 0.94167978
vt 0.53601933 0.94719517
vt 0.47687569 0.00195312
vt 0.53601933 0.94719517
vt 0.53930509 0.95212382
vt 0.53930509 0.95212382
vt 0.48356458 0.00195312
vt 0.49013609 0.00195312
vt 0.54352963 0.95634842
vt 0.54352963 0.95634842
vt 0.54857558 0.95975143
vt 0.54857558 0.95975143
vt 0.28184250 0.00195312
vt 0.49670759 0.00195312
vt 0.55409098 0.96198112
vt 0.55409098 0.96198112
vt 0.28841400 0.00195312
vt 0.55995852 0.96315461
vt 0.29498550 0.00195312
vt 0.55995852 0.96315461
vt 0.30167440 0.23735410
vt 0.30167440 0.30647239
vt 0.30836329 0.32102370
vt 0.31505221 0.33099830
vt 0.31505221 0.34073821
vt 0.30836329 0.35341191
vt 0.30836329 0.35341191
vt 0.31505221 0.35341191
vt 0.31505221 0.35341191
vt 0.32185841 0.35341191
vt 0.32185841 0.35341191
vt 0.32854721 0.35341191
vt 0.32854721 0.35341191
vt 0.33535340 0.35341191
vt 0.33535340 0.35341191
vt 0.34204230 0.35341191
vt 0.34204230 0.35341191
vt 0.34884849 0.35341191
vt 0.34884849 0.35341191
vt 0.35553742 0.35341191
vt 0.35553742 0.35341191
vt 0.36234361 0.35341191
vt 0.36234361 0.35341191
vt 0.36914980 0.35341191
vt 0.36914980 0.35341191
vt 0.37583861 0.35341191
vt 0.37583861 0.35341191
vt 0.38252750 0.35341191
vt 0.38252750 0.35341191
vt 0.38921639 0.35341191
vt 0.38921639 0.35341191
vt 0.39602259 0.35341191
vt 0.39602259 0.35341191
vt 0.40271151 0.35341191
vt 0.40271151 0.35341191
vt 0.40940040 0.35341191
vt 0.40940040 0.35341191
vt 0.41620651 0.35341191
vt 0.41620651 0.35341191
vt 0.42289540 0.35341191
vt 0.42289540 0.35341191
vt 0.42970160 0.35341191
vt 0.42970160 0.35341191
vt 0.43650779 0.35341191
vt 0.43650779 0.35341191
vt 0.44319671 0.35341191
vt 0.44319671 0.35341191
vt 0.45000291 0.35341191
vt 0.45000291 0.35341191
vt 0.45669180 0.35341191
vt 0.45669180 0.35341191
vt 0.46349800 0.35341191
vt 0.46349800 0.35341191
vt 0.46349800 0.34073821
vt 0.47018680 0.33099830
vt 0.47018680 0.32102370
vt 0.47018680 0.30647239
vt 0.47687569 0.23735410
vt 0.48356458 0.23735410
vt 0.49013609 0.23735410
vt 0.28184250 0.23735410
vt 0.49670759 0.23735410
vt 0.28841400 0.23735410
vt 0.29498550 0.23735410
vt 0.29498550 0.30647239
vt 0.30167440 0.32102370
vt 0.30836329 0.33099830
vt 0.30836329 0.34073821
vt 0.30167440 0.35341191
vt 0.30167440 0.35341191
vt 0.95999950 0.35740170
vt 0.30167440 0.36632010
vt 0.30836329 0.36632010
vt 0.95260650 0.36045271
vt 0.94474411 0.36209559
vt 0.31505221 0.36632010
vt 0.93676442 0.36209559
vt 0.93676442 0.36209559
vt 0.32185841 0.36632010
vt 0.92901951 0.36045271
vt 0.92901951 0.36045271
vt 0.32854721 0.36632010
vt 0.92162651 0.35740170
vt 0.33535340 0.36632010
vt 0.91493762 0.35305980
vt 0.34204230 0.36632010
vt 0.90930492 0.34742710
vt 0.90930492 0.34742710
vt 0.34884849 0.36632010
vt 0.35553742 0.36632010
vt 0.90496302 0.34073821
vt 0.90496302 0.34073821
vt 0.90191191 0.33334520
vt 0.36234361 0.36632010
vt 0.90191191 0.33334520
vt 0.36914980 0.36632010
vt 0.90026897 0.32560021
vt 0.37583861 0.36632010
vt 0.90026897 0.31762049
vt 0.90191191 0.30975819
vt 0.38252750 0.36632010
vt 0.38921639 0.36632010
vt 0.90496302 0.30236530
vt 0.39602259 0.36632010
vt 0.90930492 0.29579371
vt 0.91493762 0.29004371
vt 0.40271151 0.36632010
vt 0.92162651 0.28570181
vt 0.92162651 0.28570181
vt 0.40940040 0.36632010
vt 0.41620651 0.36632010
vt 0.92901951 0.28265071
vt 0.92901951 0.28265071
vt 0.42289540 0.36632010
vt 0.93676442 0.28100780
vt 0.93676442 0.28100780
vt 0.94474411 0.28100780
vt 0.94474411 0.28100780
vt 0.42970160 0.36632010
vt 0.43650779 0.36632010
vt 0.95260650 0.28265071
vt 0.44319671 0.36632010
vt 0.95999950 0.28570181
vt 0.96657091 0.29004371
vt 0.45000291 0.36632010
vt 0.97232097 0.29579371
vt 0.45669180 0.36632010
vt 0.97666287 0.30236530
vt 0.46349800 0.36632010
vt 0.97971398 0.30975819
vt 0.47018680 0.36632010
vt 0.98135692 0.31762049
vt 0.98135692 0.31762049
vt 0.47687569 0.36632010
vt 0.47018680 0.35341191
vt 0.47018680 0.35341191
vt 0.47018680 0.34073821
vt 0.47687569 0.33099830
vt 0.47687569 0.32102370
vt 0.47687569 0.30647239
vt 0.48356458 0.30647239
vt 0.49013609 0.30647239
vt 0.28184250 0.30647239
vt 0.49670759 0.30647239
vt 0.28841400 0.30647239
vt 0.29498550 0.32102370
vt 0.30167440 0.33099830
vt 0.30167440 0.34073821
vt 0.29498550 0.35341191
vt 0.29498550 0.35341191
vt 0.96657091 0.35305980
vt 0.29498550 0.36632010
vt 0.94075429 0.32161039
vt 0.94075429 0.32161039
vt 0.94075429 0.32161039
vt 0.94075429 0.32161039
vt 0.94075429 0.32161039
vt 0.94075429 0.32161039
vt 0.94075429 0.32161039
vt 0.94075429 0.32161039
vt 0.94075429 0.32161039
vt 0.94075429 0.32161039
vt 0.94075429 0.32161039
vt 0.98135692 0.32560021
vt 0.48356458 0.36632010
vt 0.98135692 0.32560021
vt 0.47687569 0.35341191
vt 0.47687569 0.35341191
vt 0.47687569 0.34073821
vt 0.48356458 0.33099830
vt 0.48356458 0.32102370
vt 0.49013609 0.32102370
vt 0.49670759 0.32102370
vt 0.28184250 0.32102370
vt 0.28841400 0.32102370
vt 0.29498550 0.33099830
vt 0.29498550 0.34073821
vt 0.28841400 0.35341191
vt 0.28841400 0.35341191
vt 0.97232097 0.34742710
vt 0.28841400 0.36632010
vt 0.97232097 0.34742710
vt 0.97666287 0.34073821
vt 0.49670759 0.36632010
vt 0.28184250 0.36632010
vt 0.97666287 0.34073821
vt 0.97971398 0.33334520
vt 0.97971398 0.33334520
vt 0.49013609 0.36632010
vt 0.48356458 0.35341191
vt 0.48356458 0.35341191
vt 0.48356458 0.34073821
vt 0.49013609 0.33099830
vt 0.28184250 0.33099830
vt 0.49670759 0.33099830
vt 0.28841400 0.33099830
vt 0.28841400 0.34073821
vt 0.28184250 0.35341191
vt 0.28184250 0.35341191
vt 0.49670759 0.35341191
vt 0.49670759 0.35341191
vt 0.49013609 0.35341191
vt 0.49013609 0.35341191
vt 0.49013609 0.34073821
vt 0.28184250 0.34073821
vt 0.49670759 0.34073821
f 1/1/1 2/2/2 3/3/3
f 2/2/2 4/4/4 3/3/3
f 3/3/3 4/4/4 5/5/5
f 4/4/4 6/6/6 5/5/5
f 5/5/5 6/6/6 7/7/7
f 6/6/6 8/8/8 7/7/7
f 7/7/7 8/8/8 9/9/9
f 8/8/8 10/10/10 9/9/9
f 9/9/9 10/10/10 11/11/11
f 10/10/10 12/12/12 11/11/11
f 11/11/11 12/12/12 13/13/13
f 12/12/12 14/14/14 13/13/13
f 13/13/13 14/14/14 15/15/15
f 14/14/14 16/16/16 15/15/15
f 15/15/15 16/16/16 17/17/17
f 16/16/16 18/18/18 17/17/17
f 17/17/17 18/18/18 19/19/19
f 18/18/18 20/20/20 19/19/19
f 19/19/19 20/20/20 21/21/21
f 20/20/20 22/22/22 21/21/21
f 21/21/21 22/22/22 23/23/23
f 22/22/22 24/24/24 23/23/23
f 23/23/23 24/24/24 25/25/25
f 24/24/24 26/26/26 25/25/25
f 25/25/25 26/26/26 27/27/27
f 26/26/26 28/28/28 27/27/27
f 27/27/27 28/28/28 29/29/29
f 28/28/28 30/30/30 29/29/29
f 29/29/29 30/30/30 31/31/31
f 30/30/30 32/32/32 31/31/31
f 31/31/31 32/32/32 33/33/33
f 32/32/32 34/34/34 33/33/33
f 33/33/33 34/34/34 35/35/35
f 34/34/34 36/36/36 35/35/35
f 35/35/35 36/36/36 37/37/37
f 38/38/38 37/37/37 39/39/39
f 37/37/37 36/36/36 39/39/39
f 39/39/39 36/36/36 40/40/40
f 40/40/40 36/36/36 41/41/41
f 36/36/36 34/34/34 41/41/41
f 41/41/41 34/34/34 42/42/42
f 34/34/34 32/32/32 42/42/42
f 42/42/42 32/32/32 43/43/43
f 32/32/32 30/30/30 43/43/43
f 43/43/43 30/30/30 44/44/44
f 30/30/30 28/28/28 44/44/44
f 44/44/44 28/28/28 45/45/45
f 28/28/28 26/26/26 45/45/45
f 45/45/45 26/26/26 46/46/46
f 26/26/26 24/24/24 46/46/46
f 46/46/46 24/24/24 47/47/47
f 24/24/24 22/22/22 47/47/47
f 47/47/47 22/22/22 48/48/48
f 22/22/22 20/20/20 48/48/48
f 48/48/48 20/20/20 49/49/49
f 20/20/20 18/18/18 49/49/49
f 49/49/49 18/18/18 50/50/50
f 18/18/18 16/16/16 50/50/50
f 50/50/50 16/16/16 51/51/51
f 16/16/16 14/14/14 51/51/51
f 51/51/51 14/14/14 52/52/52
f 14/14/14 12/12/12 52/52/52
f 52/52/52 12/12/12 53/53/53
f 12/12/12 10/10/10 53/53/53
f 53/53/53 10/10/10 54/54/54
f 10/10/10 8/8/8 54/54/54
f 54/54/54 8/8/8 55/55/55
f 8/8/8 6/6/6 55/55/55
f 55/55/55 6/6/6 56/56/56
f 6/6/6 4/4/4 56/56/56
f 56/56/56 4/4/4 57/57/57
f 4/4/4 2/2/2 57/57/57
f 57/57/57 2/2/2 58/58/58
f 58/58/58 2/2/2 59/59/59
f 2/2/2 1/1/1 59/59/59
f 59/59/59 1/1/1 60/60/60
f 62/62/62 60/60/60 64/64/64
f 60/60/60 1/1/1 64/64/64
f 64/64/64 1/1/1 66/66/66
f 1/1/1 3/3/3 66/66/66
f 66/66/66 3/3/3 68/68/68
f 3/3/3 5/5/5 68/68/68
f 68/68/68 5/5/5 70/70/70
f 5/5/5 7/7/7 70/70/70
f 70/70/70 7/7/7 72/72/72
f 7/7/7 9/9/9 72/72/72
f 72/72/72 9/9/9 76/76/76
f 9/9/9 11/11/11 76/76/76
f 76/76/76 11/11/11 78/78/78
f 11/11/11 13/13/13 78/78/78
f 78/78/78 13/13/13 81/81/81
f 13/13/13 15/15/15 81/81/81
f 81/81/81 15/15/15 85/85/85
f 15/15/15 17/17/17 85/85/85
f 85/85/85 17/17/17 87/87/87
f 17/17/17 19/19/19 87/87/87
f 87/87/87 19/19/19 89/89/89
f 19/19/19 21/21/21 89/89/89
f 89/89/89 21/21/21 93/93/93
f 21/21/21 23/23/23 93/93/93
f 93/93/93 23/23/23 94/94/94
f 23/23/23 25/25/25 94/94/94
f 94/94/94 25/25/25 98/98/98
f 25/25/25 27/27/27 98/98/98
f 98/98/98 27/27/27 101/101/101
f 27/27/27 29/29/29 101/101/101
f 101/101/101 29/29/29 102/102/102
f 29/29/29 31/31/31 102/102/102
f 102/102/102 31/31/31 106/106/106
f 31/31/31 33/33/33 106/106/106
f 106/106/106 33/33/33 108/108/108
f 33/33/33 35/35/35 108/108/108
f 108/108/108 35/35/35 109/109/109
f 35/35/35 37/37/37 109/109/109
f 109/109/109 37/37/37 111/111/111
f 37/37/37 38/38/38 111/111/111
f 111/111/111 38/38/38 113/113/113
f 115/115/115 113/113/113 118/118/118
f 113/113/113 38/38/38 118/118/118
f 118/118/118 38/38/38 119/119/119
f 38/38/38 39/39/39 119/119/119
f 119/119/119 39/39/39 120/120/120
f 39/39/39 40/40/40 120/120/120
f 120/120/120 40/40/40 121/121/121
f 121/121/121 40/40/40 122/122/122
f 40/40/40 41/41/41 122/122/122
f 122/122/122 41/41/41 123/123/123
f 41/41/41 42/42/42 123/123/123
f 123/123/123 42/42/42 124/124/124
f 42/42/42 43/43/43 124/124/124
f 124/124/124 43/43/43 125/125/125
f 43/43/43 44/44/44 125/125/125
f 125/125/125 44/44/44 126/126/126
f 44/44/44 45/45/45 126/126/126
f 126/126/126 45/45/45 127/127/127
f 45/45/45 46/46/46 127/127/127
f 127/127/127 46/46/46 128/128/128
f 46/46/46 47/47/47 128/128/128
f 128/128/128 47/47/47 129/129/129
f 47/47/47 48/48/48 129/129/129
f 129/129/129 48/48/48 130/130/130
f 48/48/48 49/49/49 130/130/130
f 130/130/130 49/49/49 131/131/131
f 49/49/49 50/50/50 131/131/131
f 131/131/131 50/50/50 132/132/132
f 50/50/50 51/51/51 132/132/132
f 132/132/132 51/51/51 133/133/133
f 51/51/51 52/52/52 133/133/133
f 133/133/133 52/52/52 134/134/134
f 52/52/52 53/53/53 134/134/134
f 134/134/134 53/53/53 135/135/135
f 53/53/53 54/54/54 135/135/135
f 135/135/135 54/54/54 136/136/136
f 54/54/54 55/55/55 136/136/136
f 136/136/136 55/55/55 137/137/137
f 55/55/55 56/56/56 137/137/137
f 137/137/137 56/56/56 138/138/138
f 56/56/56 57/57/57 138/138/138
f 138/138/138 57/57/57 139/139/139
f 57/57/57 58/58/58 139/139/139
f 139/139/139 58/58/58 140/140/140
f 140/140/140 58/58/58 141/141/141
f 58/58/58 59/59/59 141/141/141
f 141/141/141 59/59/59 142/142/142
f 59/59/59 60/60/60 142/142/142
f 142/142/142 60/60/60 143/143/143
f 60/60/60 62/62/62 143/143/143
f 143/143/143 62/62/62 144/144/144
f 145/145/145 61/61/61 153/153/153
f 61/61/61 63/63/63 153/153/153
f 63/63/63 65/65/65 153/153/153
f 65/65/65 67/67/67 153/153/153
f 67/67/67 71/71/71 153/153/153
f 69/69/69 74/74/74 149/149/149
f 73/73/73 75/75/75 153/153/153
f 75/75/75 79/79/79 153/153/153
f 77/77/77 80/80/80 148/148/148
f 82/82/82 83/83/83 147/147/147
f 84/84/84 86/86/86 153/153/153
f 86/86/86 88/88/88 153/153/153
f 90/90/90 91/91/91 151/151/151
f 92/92/92 96/96/96 146/146/146
f 95/95/95 97/97/97 153/153/153
f 97/97/97 100/100/100 153/153/153
f 99/99/99 103/103/103 150/150/150
f 104/104/104 105/105/105 153/153/153
f 105/105/105 107/107/107 153/153/153
f 107/107/107 110/110/110 153/153/153
f 110/110/110 112/112/112 153/153/153
f 112/112/112 114/114/114 153/153/153
f 114/114/114 116/116/116 153/153/153
f 152/152/152 117/117/117 160/160/160
f 162/162/162 115/115/115 163/163/163
f 115/115/115 118/118/118 163/163/163
f 163/163/163 118/118/118 164/164/164
f 118/118/118 119/119/119 164/164/164
f 164/164/164 119/119/119 165/165/165
f 119/119/119 120/120/120 165/165/165
f 165/165/165 120/120/120 166/166/166
f 120/120/120 121/121/121 166/166/166
f 166/166/166 121/121/121 167/167/167
f 167/167/167 121/121/121 168/168/168
f 121/121/121 122/122/122 168/168/168
f 168/168/168 122/122/122 169/169/169
f 122/122/122 123/123/123 169/169/169
f 169/169/169 123/123/123 170/170/170
f 123/123/123 124/124/124 170/170/170
f 170/170/170 124/124/124 171/171/171
f 124/124/124 125/125/125 171/171/171
f 171/171/171 125/125/125 172/172/172
f 125/125/125 126/126/126 172/172/172
f 172/172/172 126/126/126 173/173/173
f 126/126/126 127/127/127 173/173/173
f 173/173/173 127/127/127 174/174/174
f 127/127/127 128/128/128 174/174/174
f 174/174/174 128/128/128 175/175/175
f 128/128/128 129/129/129 175/175/175
f 175/175/175 129/129/129 176/176/176
f 129/129/129 130/130/130 176/176/176
f 176/176/176 130/130/130 177/177/177
f 130/130/130 131/131/131 177/177/177
f 177/177/177 131/131/131 178/178/178
f 131/131/131 132/132/132 178/178/178
f 178/178/178 132/132/132 179/179/179
f 132/132/132 133/133/133 179/179/179
f 179/179/179 133/133/133 180/180/180
f 133/133/133 134/134/134 180/180/180
f 180/180/180 134/134/134 181/181/181
f 134/134/134 135/135/135 181/181/181
f 181/181/181 135/135/135 182/182/182
f 135/135/135 136/136/136 182/182/182
f 182/182/182 136/136/136 183/183/183
f 136/136/136 137/137/137 183/183/183
f 183/183/183 137/137/137 184/184/184
f 137/137/137 138/138/138 184/184/184
f 184/184/184 138/138/138 185/185/185
f 138/138/138 139/139/139 185/185/185
f 185/185/185 139/139/139 186/186/186
f 139/139/139 140/140/140 186/186/186
f 186/186/186 140/140/140 187/187/187
f 187/187/187 140/140/140 188/188/188
f 140/140/140 141/141/141 188/188/188
f 188/188/188 141/141/141 189/189/189
f 141/141/141 142/142/142 189/189/189
f 189/189/189 142/142/142 190/190/190
f 142/142/142 143/143/143 190/190/190
f 190/190/190 143/143/143 191/191/191
f 143/143/143 144/144/144 191/191/191
f 191/191/191 144/144/144 193/193/193
f 145/145/145 153/153/153 192/192/192
f 194/194/194 159/159/159 197/197/197
f 195/195/195 153/153/153 199/199/199
f 198/198/198 158/158/158 202/202/202
f 203/203/203 157/157/157 204/204/204
f 205/205/205 156/156/156 208/208/208
f 209/209/209 155/155/155 213/213/213
f 154/154/154 161/161/161 211/211/211
f 212/212/212 162/162/162 214/214/214
f 162/162/162 163/163/163 214/214/214
f 214/214/214 163/163/163 215/215/215
f 163/163/163 164/164/164 215/215/215
f 215/215/215 164/164/164 216/216/216
f 164/164/164 165/165/165 216/216/216
f 216/216/216 165/165/165 217/217/217
f 165/165/165 166/166/166 217/217/217
f 217/217/217 166/166/166 218/218/218
f 166/166/166 167/167/167 218/218/218
f 220/220/220 218/218/218 221/221/221
f 218/218/218 167/167/167 221/221/221
f 221/221/221 167/167/167 223/223/223
f 167/167/167 168/168/168 223/223/223
f 223/223/223 168/168/168 225/225/225
f 168/168/168 169/169/169 225/225/225
f 225/225/225 169/169/169 228/228/228
f 169/169/169 170/170/170 228/228/228
f 228/228/228 170/170/170 230/230/230
f 170/170/170 171/171/171 230/230/230
f 230/230/230 171/171/171 232/232/232
f 171/171/171 172/172/172 232/232/232
f 232/232/232 172/172/172 233/233/233
f 172/172/172 173/173/173 233/233/233
f 233/233/233 173/173/173 235/235/235
f 173/173/173 174/174/174 235/235/235
f 235/235/235 174/174/174 237/237/237
f 174/174/174 175/175/175 237/237/237
f 237/237/237 175/175/175 239/239/239
f 175/175/175 176/176/176 239/239/239
f 239/239/239 176/176/176 241/241/241
f 176/176/176 177/177/177 241/241/241
f 241/241/241 177/177/177 243/243/243
f 177/177/177 178/178/178 243/243/243
f 243/243/243 178/178/178 245/245/245
f 178/178/178 179/179/179 245/245/245
f 245/245/245 179/179/179 247/247/247
f 179/179/179 180/180/180 247/247/247
f 247/247/247 180/180/180 250/250/250
f 180/180/180 181/181/181 250/250/250
f 250/250/250 181/181/181 252/252/252
f 181/181/181 182/182/182 252/252/252
f 252/252/252 182/182/182 254/254/254
f 182/182/182 183/183/183 254/254/254
f 254/254/254 183/183/183 256/256/256
f 183/183/183 184/184/184 256/256/256
f 256/256/256 184/184/184 258/258/258
f 184/184/184 185/185/185 258/258/258
f 258/258/258 185/185/185 260/260/260
f 185/185/185 186/186/186 260/260/260
f 260/260/260 186/186/186 261/261/261
f 186/186/186 187/187/187 261/261/261
f 261/261/261 187/187/187 263/263/263
f 265/265/265 263/263/263 267/267/267
f 263/263/263 187/187/187 267/267/267
f 187/187/187 188/188/188 267/267/267
f 267/267/267 188/188/188 268/268/268
f 188/188/188 189/189/189 268/268/268
f 268/268/268 189/189/189 269/269/269
f 189/189/189 190/190/190 269/269/269
f 269/269/269 190/190/190 270/270/270
f 190/190/190 191/191/191 270/270/270
f 270/270/270 191/191/191 271/271/271
f 191/191/191 193/193/193 271/271/271
f 193/193/193 196/196/196 271/271/271
f 271/271/271 196/196/196 272/272/272
f 196/196/196 200/200/200 272/272/272
f 272/272/272 200/200/200 273/273/273
f 200/200/200 201/201/201 273/273/273
f 273/273/273 201/201/201 275/275/275
f 201/201/201 207/207/207 275/275/275
f 274/274/274 206/206/206 276/276/276
f 206/206/206 210/210/210 276/276/276
f 276/276/276 210/210/210 277/277/277
f 210/210/210 212/212/212 277/277/277
f 212/212/212 214/214/214 277/277/277
f 277/277/277 214/214/214 278/278/278
f 214/214/214 215/215/215 278/278/278
f 278/278/278 215/215/215 279/279/279
f 215/215/215 216/216/216 279/279/279
f 279/279/279 216/216/216 280/280/280
f 216/216/216 217/217/217 280/280/280
f 280/280/280 217/217/217 281/281/281
f 217/217/217 218/218/218 281/281/281
f 218/218/218 220/220/220 281/281/281
f 281/281/281 220/220/220 283/283/283
f 285/285/285 282/282/282 286/286/286
f 282/282/282 219/219/219 286/286/286
f 286/286/286 219/219/219 289/289/289
f 219/219/219 222/222/222 289/289/289
f 289/289/289 222/222/222 292/292/292
f 222/222/222 224/224/224 292/292/292
f 292/292/292 224/224/224 295/295/295
f 224/224/224 226/226/226 295/295/295
f 295/295/295 226/226/226 297/297/297
f 226/226/226 227/227/227 297/297/297
f 297/297/297 227/227/227 299/299/299
f 227/227/227 229/229/229 299/299/299
f 299/299/299 229/229/229 302/302/302
f 229/229/229 231/231/231 302/302/302
f 302/302/302 231/231/231 303/303/303
f 231/231/231 234/234/234 303/303/303
f 303/303/303 234/234/234 307/307/307
f 234/234/234 236/236/236 307/307/307
f 307/307/307 236/236/236 309/309/309
f 236/236/236 238/238/238 309/309/309
f 309/309/309 238/238/238 311/311/311
f 238/238/238 240/240/240 311/311/311
f 311/311/311 240/240/240 314/314/314
f 240/240/240 242/242/242 314/314/314
f 314/314/314 242/242/242 315/315/315
f 242/242/242 244/244/244 315/315/315
f 315/315/315 244/244/244 317/317/317
f 244/244/244 246/246/246 317/317/317
f 317/317/317 246/246/246 320/320/320
f 246/246/246 248/248/248 320/320/320
f 320/320/320 248/248/248 323/323/323
f 248/248/248 249/249/249 323/323/323
f 323/323/323 249/249/249 324/324/324
f 249/249/249 251/251/251 324/324/324
f 324/324/324 251/251/251 327/327/327
f 251/251/251 253/253/253 327/327/327
f 327/327/327 253/253/253 332/332/332
f 253/253/253 255/255/255 332/332/332
f 332/332/332 255/255/255 333/333/333
f 255/255/255 257/257/257 333/333/333
f 333/333/333 257/257/257 335/335/335
f 257/257/257 259/259/259 335/335/335
f 335/335/335 259/259/259 338/338/338
f 259/259/259 262/262/262 338/338/338
f 338/338/338 262/262/262 340/340/340
f 262/262/262 264/264/264 340/340/340
f 340/340/340 264/264/264 342/342/342
f 264/264/264 266/266/266 342/342/342
f 342/342/342 266/266/266 344/344/344
f 347/347/347 344/344/344 349/349/349
f 344/344/344 266/266/266 349/349/349
f 348/348/348 265/265/265 350/350/350
f 265/265/265 267/267/267 350/350/350
f 267/267/267 268/268/268 350/350/350
f 350/350/350 268/268/268 351/351/351
f 268/268/268 269/269/269 351/351/351
f 351/351/351 269/269/269 352/352/352
f 269/269/269 270/270/270 352/352/352
f 352/352/352 270/270/270 353/353/353
f 270/270/270 271/271/271 353/353/353
f 271/271/271 272/272/272 353/353/353
f 353/353/353 272/272/272 354/354/354
f 272/272/272 273/273/273 354/354/354
f 354/354/354 273/273/273 355/355/355
f 273/273/273 275/275/275 355/355/355
f 355/355/355 275/275/275 357/357/357
f 274/274/274 276/276/276 356/356/356
f 356/356/356 276/276/276 358/358/358
f 276/276/276 277/277/277 358/358/358
f 277/277/277 278/278/278 358/358/358
f 358/358/358 278/278/278 359/359/359
f 278/278/278 279/279/279 359/359/359
f 359/359/359 279/279/279 360/360/360
f 279/279/279 280/280/280 360/360/360
f 360/360/360 280/280/280 361/361/361
f 280/280/280 281/281/281 361/361/361
f 281/281/281 283/283/283 361/361/361
f 361/361/361 283/283/283 363/363/363
f 282/282/282 285/285/285 362/362/362
f 362/362/362 285/285/285 365/365/365
f 364/364/364 284/284/284 369/369/369
f 284/284/284 287/287/287 369/369/369
f 287/287/287 288/288/288 369/369/369
f 288/288/288 291/291/291 369/369/369
f 290/290/290 294/294/294 374/374/374
f 293/293/293 296/296/296 369/369/369
f 296/296/296 298/298/298 369/369/369
f 298/298/298 301/301/301 369/369/369
f 300/300/300 304/304/304 375/375/375
f 305/305/305 306/306/306 366/366/366
f 308/308/308 310/310/310 369/369/369
f 310/310/310 312/312/312 369/369/369
f 312/312/312 313/313/313 369/369/369
f 313/313/313 316/316/316 369/369/369
f 316/316/316 318/318/318 369/369/369
f 318/318/318 319/319/319 369/369/369
f 319/319/319 322/322/322 369/369/369
f 321/321/321 326/326/326 372/372/372
f 325/325/325 328/328/328 376/376/376
f 329/329/329 330/330/330 373/373/373
f 331/331/331 334/334/334 369/369/369
f 334/334/334 336/336/336 369/369/369
f 336/336/336 337/337/337 369/369/369
f 337/337/337 339/339/339 369/369/369
f 339/339/339 341/341/341 369/369/369
f 341/341/341 343/343/343 369/369/369
f 343/343/343 345/345/345 369/369/369
f 370/370/370 346/346/346 377/377/377
f 378/378/378 347/347/347 381/381/381
f 347/347/347 349/349/349 381/381/381
f 380/380/380 348/348/348 382/382/382
f 348/348/348 350/350/350 382/382/382
f 350/350/350 351/351/351 382/382/382
f 382/382/382 351/351/351 383/383/383
f 351/351/351 352/352/352 383/383/383
f 383/383/383 352/352/352 384/384/384
f 352/352/352 353/353/353 384/384/384
f 353/353/353 354/354/354 384/384/384
f 384/384/384 354/354/354 385/385/385
f 354/354/354 355/355/355 385/385/385
f 385/385/385 355/355/355 386/386/386
f 355/355/355 357/357/357 386/386/386
f 387/387/387 356/356/356 388/388/388
f 356/356/356 358/358/358 388/388/388
f 358/358/358 359/359/359 388/388/388
f 388/388/388 359/359/359 389/389/389
f 359/359/359 360/360/360 389/389/389
f 389/389/389 360/360/360 390/390/390
f 360/360/360 361/361/361 390/390/390
f 361/361/361 363/363/363 390/390/390
f 390/390/390 363/363/363 391/391/391
f 362/362/362 365/365/365 392/392/392
f 392/392/392 365/365/365 394/394/394
f 364/364/364 369/369/369 395/395/395
f 393/393/393 368/368/368 399/399/399
f 396/396/396 367/367/367 400/400/400
f 371/371/371 379/379/379 401/401/401
f 402/402/402 378/378/378 403/403/403
f 378/378/378 381/381/381 403/403/403
f 404/404/404 380/380/380 405/405/405
f 380/380/380 382/382/382 405/405/405
f 382/382/382 383/383/383 405/405/405
f 405/405/405 383/383/383 406/406/406
f 383/383/383 384/384/384 406/406/406
f 384/384/384 385/385/385 406/406/406
f 406/406/406 385/385/385 408/408/408
f 385/385/385 386/386/386 408/408/408
f 407/407/407 387/387/387 409/409/409
f 387/387/387 388/388/388 409/409/409
f 388/388/388 389/389/389 409/409/409
f 409/409/409 389/389/389 410/410/410
f 389/389/389 390/390/390 410/410/410
f 390/390/390 391/391/391 410/410/410
f 410/410/410 391/391/391 411/411/411
f 392/392/392 394/394/394 412/412/412
f 394/394/394 398/398/398 412/412/412
f 413/413/413 397/397/397 415/415/415
f 397/397/397 402/402/402 415/415/415
f 402/402/402 403/403/403 415/415/415
f 416/416/416 404/404/404 417/417/417
f 404/404/404 405/405/405 417/417/417
f 405/405/405 406/406/406 417/417/417
f 406/406/406 408/408/408 417/417/417
f 417/417/417 408/408/408 419/419/419
f 407/407/407 409/409/409 418/418/418
f 409/409/409 410/410/410 418/418/418
f 410/410/410 411/411/411 418/418/418
f 414/414/414 416/416/416 419/419/419
f 417/417/417 419/419/419 416/416/416

