mtllib forearm.mtl
usemtl Plastic_Blue
v -0.00000148 -0.12871192 -0.05331879
v -0.00000148 -0.12241248 -0.05597858
v 0.00953443 -0.12797281 -0.05259643
v 0.00913126 -0.12181894 -0.05530660
v -0.00000148 -0.11564831 -0.05797200
v 0.00850977 -0.11509953 -0.05740641
v 0.00759704 -0.10812818 -0.05890147
v -0.00000148 -0.10862093 -0.05936064
v 0.00637634 -0.10115115 -0.06006057
v -0.00000148 -0.10150956 -0.06037975
v 0.00498767 -0.09427498 -0.06086688
v -0.00000148 -0.09447096 -0.06107407
v 0.00373335 -0.08878187 -0.06139885
v -0.00000148 -0.08901701 -0.06151639
v 0.00282623 -0.08528773 -0.06174039
v -0.00000148 -0.08477823 -0.06186919
v -0.00282918 -0.08528773 -0.06174039
v -0.00373070 -0.08878187 -0.06139885
v -0.00499062 -0.09427498 -0.06086688
v -0.00637929 -0.10115115 -0.06006058
v -0.00759439 -0.10812818 -0.05890148
v -0.00850712 -0.11509953 -0.05740642
v -0.00912862 -0.12181894 -0.05530661
v -0.00953178 -0.12797281 -0.05259644
v -0.00981181 -0.13345472 -0.04908556
v -0.00994056 -0.13805191 -0.04457796
v -0.00000148 -0.13420507 -0.04967909
v 0.00981445 -0.13345472 -0.04908554
v 0.01918799 -0.13095734 -0.04737769
v 0.01856083 -0.12582818 -0.05095021
v 0.01764256 -0.11998229 -0.05371074
v 0.01628185 -0.11341970 -0.05598418
v 0.01442284 -0.10671709 -0.05776481
v 0.01194782 -0.09995285 -0.05934383
v 0.00906969 -0.09306549 -0.06049733
v 0.00644351 -0.08722518 -0.06131481
v 0.00380619 -0.08305357 -0.06187479
v -0.00000148 -0.08215765 -0.06208758
v -0.00380914 -0.08305357 -0.06187480
v -0.00644647 -0.08722518 -0.06131481
v -0.00906704 -0.09306549 -0.06049734
v -0.01195078 -0.09995285 -0.05934384
v -0.01442580 -0.10671709 -0.05776482
v -0.01628481 -0.11341970 -0.05598420
v -0.01763992 -0.11998229 -0.05371076
v -0.01856379 -0.12582818 -0.05095023
v -0.01918535 -0.13095734 -0.04737771
v -0.01955490 -0.13538095 -0.04304934
v -0.01967811 -0.13898704 -0.03786976
v -0.01941497 -0.14485529 -0.01789636
v -0.01949334 -0.14356183 -0.02512527
v -0.00976700 -0.14602564 -0.02571880
v -0.00985098 -0.14420018 -0.03267903
v -0.01960533 -0.14164119 -0.03182793
v -0.00993496 -0.14159080 -0.03905123
v -0.00000148 -0.13879667 -0.04512673
v 0.00993759 -0.13805191 -0.04457795
v 0.01955754 -0.13538095 -0.04304932
v 0.02927828 -0.13067737 -0.04092149
v 0.02825922 -0.12665692 -0.04502593
v 0.02675856 -0.12194774 -0.04858158
v 0.02503950 -0.11682419 -0.05144856
v 0.02242452 -0.11059753 -0.05433229
v 0.01939518 -0.10419171 -0.05663369
v 0.01573313 -0.09725951 -0.05863829
v 0.01146627 -0.08961616 -0.06041894
v 0.00815697 -0.08393829 -0.06142680
v 0.00427092 -0.08011941 -0.06201474
v -0.00000148 -0.07930747 -0.06218838
v -0.00427388 -0.08011941 -0.06201475
v -0.00815992 -0.08393829 -0.06142681
v -0.01146363 -0.08961616 -0.06041895
v -0.01573609 -0.09725951 -0.05863831
v -0.01939814 -0.10419171 -0.05663371
v -0.02242748 -0.11059754 -0.05433232
v -0.02504246 -0.11682420 -0.05144859
v -0.02675591 -0.12194775 -0.04858160
v -0.02826218 -0.12665693 -0.04502596
v -0.02928124 -0.13067737 -0.04092152
v -0.02988040 -0.13418827 -0.03588755
v -0.03002601 -0.13689282 -0.03029366
v -0.02985244 -0.13902619 -0.02382620
v -0.02926451 -0.14072284 -0.01667006
v -0.01926375 -0.14589682 -0.01035941
v -0.02823419 -0.14223471 -0.00886435
v -0.01863105 -0.14668634 -0.00277764
v -0.02635838 -0.14350025 -0.00082904
v -0.02345784 -0.14541528 0.00682550
v -0.01730956 -0.14757107 0.00451290
v -0.01522656 -0.14839421 0.01093554
v -0.01937576 -0.14725749 0.01306897
v -0.01234277 -0.14921735 0.01417207
v -0.01426341 -0.14893737 0.01722377
v -0.00753280 -0.15009084 0.01558309
v -0.00782397 -0.15019725 0.01907163
v -0.00000151 -0.15060040 0.01568390
v -0.00000152 -0.15075156 0.01951957
v 0.00782654 -0.15019725 0.01907165
v 0.00752977 -0.15009084 0.01558311
v -0.00000151 -0.15026441 0.00955809
v -0.00823834 -0.14978287 0.00983245
v -0.00906707 -0.14915010 0.00329220
v -0.00959344 -0.14876375 -0.00372959
v -0.00975580 -0.14811423 -0.01098650
v -0.00975019 -0.14720152 -0.01839470
v -0.00000150 -0.14807501 -0.01859068
v -0.00000149 -0.14683750 -0.02597641
v -0.00000149 -0.14506248 -0.03304856
v -0.00000148 -0.14243630 -0.03958320
v 0.00993199 -0.14159080 -0.03905123
v 0.01967513 -0.13898704 -0.03786974
v 0.02987748 -0.13418827 -0.03588751
v 0.03800791 -0.12795042 -0.03300938
v 0.03698326 -0.12478665 -0.03789774
v 0.03546017 -0.12151095 -0.04192940
v 0.03342194 -0.11748491 -0.04569224
v 0.03104216 -0.11347006 -0.04886720
v 0.02736331 -0.10755137 -0.05251244
v 0.02344364 -0.10154311 -0.05533461
v 0.01862807 -0.09444854 -0.05802796
v 0.01318533 -0.08682761 -0.06014456
v 0.00880654 -0.08077458 -0.06134842
v 0.00442208 -0.07759962 -0.06198119
v -0.00000148 -0.07684932 -0.06216596
v -0.00442504 -0.07759962 -0.06198119
v -0.00880389 -0.08077458 -0.06134843
v -0.01318268 -0.08682761 -0.06014457
v -0.01863103 -0.09444854 -0.05802798
v -0.02344100 -0.10154311 -0.05533463
v -0.02736627 -0.10755138 -0.05251247
v -0.03104512 -0.11347006 -0.04886724
v -0.03341930 -0.11748491 -0.04569228
v -0.03545755 -0.12151097 -0.04192944
v -0.03698062 -0.12478666 -0.03789778
v -0.03801089 -0.12795042 -0.03300942
v -0.03844767 -0.13035259 -0.02818824
v -0.03839170 -0.13278280 -0.02188320
v -0.03765815 -0.13491055 -0.01509656
v -0.03621346 -0.13727918 -0.00697727
v -0.03356494 -0.13989978 0.00146113
v -0.02910770 -0.14300750 0.00959724
v -0.02304347 -0.14605358 0.01581829
v -0.01589289 -0.14852300 0.01996195
v -0.00844553 -0.15007403 0.02252090
v -0.00000152 -0.15066759 0.02365202
v 0.00844249 -0.15007403 0.02252092
v 0.01589545 -0.14852300 0.01996196
v 0.01426599 -0.14893737 0.01722379
v 0.01234535 -0.14921735 0.01417209
v 0.00823531 -0.14978287 0.00983246
v -0.00000151 -0.14985564 0.00291145
v -0.00000150 -0.14940771 -0.00404876
v -0.00000150 -0.14888135 -0.01116013
v 0.00974720 -0.14720152 -0.01839470
v 0.00976962 -0.14602564 -0.02571880
v 0.00984800 -0.14420018 -0.03267901
v 0.01960235 -0.14164119 -0.03182791
v 0.03002303 -0.13689282 -0.03029362
v 0.03844469 -0.13035259 -0.02818820
v 0.04021972 -0.12969741 -0.02094803
v 0.04021412 -0.12734565 -0.02700112
v 0.03977739 -0.12499384 -0.03162632
v 0.03875268 -0.12205414 -0.03616748
v 0.03728562 -0.11886243 -0.04009274
v 0.03534818 -0.11504356 -0.04371003
v 0.03306920 -0.11110709 -0.04687932
v 0.02952469 -0.10521641 -0.05064783
v 0.02584023 -0.09926973 -0.05362675
v 0.02109182 -0.09206317 -0.05653850
v 0.01543636 -0.08386550 -0.05898546
v 0.01101274 -0.07796363 -0.06025095
v 0.00541879 -0.07409434 -0.06107967
v -0.00000148 -0.07309763 -0.06136524
v -0.00541614 -0.07409434 -0.06107967
v -0.01101010 -0.07796364 -0.06025096
v -0.01543371 -0.08386550 -0.05898548
v -0.02108918 -0.09206317 -0.05653852
v -0.02584319 -0.09926973 -0.05362678
v -0.02952765 -0.10521643 -0.05064786
v -0.03306656 -0.11110710 -0.04687936
v -0.03535114 -0.11504357 -0.04371007
v -0.03728860 -0.11886244 -0.04009278
v -0.03875004 -0.12205415 -0.03616752
v -0.03977477 -0.12499385 -0.03162636
v -0.04021711 -0.12734567 -0.02700116
v -0.04021711 -0.12969741 -0.02094807
v -0.03961796 -0.13190363 -0.01409425
v -0.03819573 -0.13441221 -0.00594140
v -0.03573753 -0.13717839 0.00276582
v -0.03128590 -0.14067247 0.01150106
v -0.02486886 -0.14422260 0.01844447
v -0.01719197 -0.14717911 0.02320402
v -0.00901672 -0.14904372 0.02608782
v -0.00000152 -0.14972130 0.02725810
v 0.00901929 -0.14904372 0.02608784
v 0.01719453 -0.14717911 0.02320404
v 0.02486590 -0.14422260 0.01844450
v 0.02304045 -0.14605358 0.01581832
v 0.01937274 -0.14725749 0.01306899
v 0.01522914 -0.14839421 0.01093556
v 0.01730654 -0.14757107 0.00451292
v 0.00906966 -0.14915010 0.00329221
v 0.00959604 -0.14876375 -0.00372958
v 0.00975280 -0.14811423 -0.01098650
v 0.01941197 -0.14485529 -0.01789634
v 0.01949596 -0.14356183 -0.02512525
v 0.02984946 -0.13902619 -0.02382617
v 0.03839433 -0.13278280 -0.02188316
v 0.03961496 -0.13190363 -0.01409421
v 0.03929584 -0.13197645 -0.00508461
v 0.04047732 -0.12931667 -0.01322630
v 0.04088609 -0.12699845 -0.02011928
v 0.04047733 -0.12474189 -0.02585879
v 0.03982216 -0.12243488 -0.03024319
v 0.03878068 -0.11980870 -0.03437004
v 0.03745360 -0.11670099 -0.03814409
v 0.03576816 -0.11313973 -0.04165498
v 0.03375233 -0.10920326 -0.04485795
v 0.03032542 -0.10345253 -0.04861519
v 0.02679211 -0.09764025 -0.05152133
v 0.02213336 -0.09056810 -0.05436591
v 0.01636023 -0.08206246 -0.05676810
v 0.01244617 -0.07659171 -0.05793278
v 0.00606836 -0.07207851 -0.05909746
v -0.00000148 -0.07079624 -0.05956782
v -0.00606572 -0.07207851 -0.05909746
v -0.01244353 -0.07659172 -0.05793279
v -0.01636319 -0.08206247 -0.05676812
v -0.02213071 -0.09056810 -0.05436593
v -0.02678947 -0.09764025 -0.05152136
v -0.03032838 -0.10345255 -0.04862083
v -0.03375529 -0.10920326 -0.04485799
v -0.03577113 -0.11313973 -0.04165502
v -0.03745096 -0.11670099 -0.03814413
v -0.03877806 -0.11980872 -0.03437008
v -0.03982514 -0.12243490 -0.03024323
v -0.04047471 -0.12474190 -0.02585883
v -0.04088909 -0.12700407 -0.02011932
v -0.04048592 -0.12931667 -0.01322634
v -0.03931559 -0.13197645 -0.00508465
v -0.03699185 -0.13475940 0.00379615
v -0.03240581 -0.13844387 0.01294016
v -0.02556327 -0.14222357 0.02033150
v -0.01762875 -0.14532010 0.02527588
v -0.00922385 -0.14734147 0.02830523
v -0.00000152 -0.14813665 0.02954829
v 0.00922087 -0.14733592 0.02830524
v 0.01762011 -0.14530888 0.02526470
v 0.02554902 -0.14221236 0.02032031
v 0.03238598 -0.13842706 0.01293458
v 0.03128848 -0.14067247 0.01150109
v 0.02911029 -0.14300750 0.00959727
v 0.02346042 -0.14541528 0.00682553
v 0.01862805 -0.14668634 -0.00277762
v 0.01926075 -0.14589682 -0.01035939
v 0.02926712 -0.14072284 -0.01667003
v 0.03765517 -0.13491055 -0.01509652
v 0.03819828 -0.13441221 -0.00594136
v 0.03697202 -0.13474819 0.00379058
v 0.03574011 -0.13717839 0.00276586
v 0.03356193 -0.13989978 0.00146117
v 0.02636096 -0.14350025 -0.00082901
v 0.02823119 -0.14223471 -0.00886432
v 0.03621607 -0.13727918 -0.00697723
v -0.00713538 -0.11790941 0.75515878
v -0.00000146 -0.11854038 0.75565320
v -0.00678222 -0.11263076 0.75738138
v -0.00000146 -0.11314401 0.75784761
v -0.00627368 -0.10690478 0.75903416
v -0.00000146 -0.10739920 0.75943440
v -0.00000146 -0.10150841 0.76048929
v -0.00555318 -0.10104224 0.76015490
v -0.00000147 -0.09563646 0.76122850
v -0.00462555 -0.09527389 0.76097900
v -0.00358962 -0.08968917 0.76150638
v -0.00000147 -0.08991519 0.76168525
v -0.00266664 -0.08529577 0.76183599
v -0.00000147 -0.08554535 0.76194900
v -0.00201212 -0.08253166 0.76204324
v -0.00000147 -0.08219263 0.76215148
v 0.00200916 -0.08253166 0.76204324
v 0.00266374 -0.08529577 0.76183599
v 0.00358666 -0.08968917 0.76150638
v 0.00462259 -0.09527389 0.76097900
v 0.00555498 -0.10104224 0.76015490
v 0.00627072 -0.10690478 0.75903416
v 0.00678398 -0.11263076 0.75738138
v 0.00713713 -0.11790941 0.75515878
v -0.00000146 -0.12323514 0.75257838
v -0.00739436 -0.12260417 0.75219703
v -0.01484851 -0.12431815 0.74731863
v -0.01449064 -0.12056050 0.75103849
v -0.01393495 -0.11615299 0.75403809
v -0.01315801 -0.11111924 0.75628424
v -0.01206087 -0.10551098 0.75804543
v -0.01059638 -0.09986034 0.75935435
v -0.00870340 -0.09424737 0.76045632
v -0.00654208 -0.08865795 0.76121437
v -0.00461142 -0.08401028 0.76173240
v -0.00270431 -0.08074704 0.76209498
v -0.00000147 -0.08012544 0.76227391
v 0.00270612 -0.08074704 0.76209498
v 0.00461317 -0.08401028 0.76173240
v 0.00654382 -0.08865795 0.76121437
v 0.00870521 -0.09424737 0.76045632
v 0.01059819 -0.09986034 0.75935435
v 0.01205790 -0.10551098 0.75804543
v 0.01315982 -0.11111924 0.75628424
v 0.01393677 -0.11615298 0.75403809
v 0.01448770 -0.12056050 0.75103849
v 0.00739612 -0.12260417 0.75219703
v -0.00000146 -0.12711522 0.74866056
v -0.00753562 -0.12649837 0.74831676
v -0.01501802 -0.12730834 0.74280739
v -0.01084120 -0.13448927 0.69686300
v -0.00987591 -0.13466349 0.69884539
v -0.01505095 -0.13321321 0.69954699
v -0.01154286 -0.13421616 0.70156717
v -0.01823415 -0.13190415 0.70441127
v -0.01345463 -0.13347690 0.70636082
v -0.01446708 -0.13290712 0.71255296
v -0.02065922 -0.13053390 0.71096128
v -0.02194001 -0.12947437 0.71798229
v -0.01492854 -0.13242683 0.71901816
v -0.02264162 -0.12841490 0.72474885
v -0.01499918 -0.13174877 0.72547877
v -0.01500859 -0.13085410 0.73171806
v -0.02299013 -0.12718591 0.73099291
v -0.01503214 -0.12941316 0.73753822
v -0.02301368 -0.12554720 0.73665297
v -0.02279238 -0.12336698 0.74155486
v -0.02222726 -0.12043336 0.74592936
v -0.02134672 -0.11699121 0.74943757
v -0.02010832 -0.11292741 0.75238526
v -0.01871917 -0.10850111 0.75468320
v -0.01664727 -0.10316596 0.75688219
v -0.01428340 -0.09776017 0.75854451
v -0.01147692 -0.09202478 0.75992417
v -0.00814306 -0.08650598 0.76110137
v -0.00559556 -0.08195721 0.76175118
v -0.00293034 -0.07913189 0.76214683
v -0.00000147 -0.07861391 0.76225042
v 0.00292743 -0.07913189 0.76214683
v 0.00559736 -0.08195721 0.76175118
v 0.00814015 -0.08650598 0.76110137
v 0.01147873 -0.09202478 0.75992417
v 0.01428521 -0.09776017 0.75854451
v 0.01664436 -0.10316596 0.75688219
v 0.01871629 -0.10850111 0.75468320
v 0.02011008 -0.11292741 0.75238526
v 0.02134855 -0.11699120 0.74943757
v 0.02222438 -0.12043336 0.74592936
v 0.01485027 -0.12431815 0.74731863
v 0.00753268 -0.12649837 0.74831676
v -0.00000145 -0.13010541 0.74384344
v -0.00756857 -0.12940845 0.74351847
v -0.00753090 -0.13146153 0.73798090
v -0.00748852 -0.13281295 0.73196292
v -0.00749322 -0.13361345 0.72567660
v -0.00751206 -0.13419262 0.71935248
v -0.00739433 -0.13456932 0.71319330
v -0.00699409 -0.13475296 0.70726019
v -0.00635369 -0.13514850 0.70175082
v -0.00583096 -0.13535568 0.69834626
v -0.00594867 -0.13539335 0.69555867
v -0.00000143 -0.13570890 0.69816267
v -0.00000143 -0.13577953 0.69475818
v 0.00583284 -0.13535568 0.69834626
v 0.00594585 -0.13539335 0.69555867
v 0.00633197 -0.13540748 0.69214940
v -0.00000142 -0.13583603 0.69146192
v -0.00633014 -0.13540748 0.69214940
v -0.01214088 -0.13422558 0.69408476
v -0.01789982 -0.13225730 0.69735736
v -0.02263690 -0.12987933 0.70240057
v -0.02615447 -0.12745431 0.70936024
v -0.02812274 -0.12550953 0.71660256
v -0.02922465 -0.12374368 0.72360939
v -0.02960136 -0.12220392 0.72992396
v -0.02952131 -0.12042867 0.73547566
v -0.02906457 -0.11843679 0.73983610
v -0.02807096 -0.11573391 0.74408829
v -0.02675722 -0.11295095 0.74739862
v -0.02495841 -0.10948524 0.75049233
v -0.02298543 -0.10594419 0.75295979
v -0.02000003 -0.10091511 0.75570977
v -0.01682149 -0.09591899 0.75782883
v -0.01323335 -0.09014121 0.75964630
v -0.00886821 -0.08355353 0.76120496
v -0.00622188 -0.07969693 0.76185012
v -0.00309985 -0.07733779 0.76225978
v -0.00000147 -0.07673034 0.76238692
v 0.00309694 -0.07733779 0.76225978
v 0.00622363 -0.07969693 0.76185012
v 0.00887001 -0.08355353 0.76120496
v 0.01323045 -0.09014121 0.75964630
v 0.01682330 -0.09591899 0.75782883
v 0.02000177 -0.10091511 0.75570977
v 0.02298720 -0.10594419 0.75295979
v 0.02496023 -0.10948524 0.75049233
v 0.02675898 -0.11295095 0.74739862
v 0.02806808 -0.11573390 0.74408829
v 0.02906634 -0.11844150 0.73983610
v 0.02278943 -0.12336698 0.74155486
v 0.01501979 -0.12730834 0.74280739
v 0.00756564 -0.12940845 0.74351847
v -0.00000145 -0.13216312 0.73816919
v -0.00000145 -0.13346748 0.73205239
v -0.00000144 -0.13431034 0.72571433
v -0.00000144 -0.13480005 0.71937609
v -0.00000144 -0.13508257 0.71334398
v -0.00000143 -0.13531801 0.70746738
v -0.00000143 -0.13553938 0.70187789
v 0.00635080 -0.13514850 0.70175082
v 0.00987773 -0.13466349 0.69884539
v 0.01083837 -0.13448927 0.69686300
v 0.01214270 -0.13422558 0.69408476
v 0.01323990 -0.13281766 0.69076502
v 0.00681227 -0.13431975 0.68856120
v -0.00000142 -0.13491777 0.68775600
v -0.00681043 -0.13431975 0.68856120
v -0.01323802 -0.13281766 0.69076502
v -0.01948196 -0.13038322 0.69464040
v -0.02465231 -0.12750140 0.70041347
v -0.02812745 -0.12472788 0.70795709
v -0.02998276 -0.12259004 0.71551007
v -0.03093865 -0.12080537 0.72265816
v -0.03124949 -0.11916672 0.72895390
v -0.03112707 -0.11742912 0.73428440
v -0.03064201 -0.11547491 0.73841405
v -0.02967200 -0.11300275 0.74234128
v -0.02848539 -0.11028573 0.74549151
v -0.02680430 -0.10696599 0.74850988
v -0.02493016 -0.10361800 0.75099623
v -0.02217548 -0.09861717 0.75383556
v -0.01929836 -0.09360221 0.75607699
v -0.01573376 -0.08768317 0.75824308
v -0.01113789 -0.08067641 0.76026332
v -0.00834083 -0.07661733 0.76104963
v -0.00413113 -0.07364604 0.76177478
v -0.00000147 -0.07284084 0.76205730
v 0.00413287 -0.07364604 0.76177478
v 0.00833792 -0.07661733 0.76104963
v 0.01113499 -0.08067641 0.76026332
v 0.01573557 -0.08768317 0.75824308
v 0.01930017 -0.09360221 0.75607699
v 0.02217728 -0.09861717 0.75383556
v 0.02492727 -0.10361800 0.75099623
v 0.02680136 -0.10696599 0.74850988
v 0.02848716 -0.11028573 0.74549151
v 0.02967383 -0.11300275 0.74234128
v 0.03064383 -0.11547491 0.73841411
v 0.03112414 -0.11742911 0.73428440
v 0.02952310 -0.12042866 0.73547572
v 0.02301075 -0.12554720 0.73665297
v 0.01502922 -0.12941316 0.73753822
v 0.00752797 -0.13146153 0.73798090
v 0.00749031 -0.13281295 0.73196292
v 0.00749031 -0.13361345 0.72567660
v 0.00750915 -0.13419262 0.71935248
v 0.00739614 -0.13456932 0.71319330
v 0.00699119 -0.13475296 0.70726019
v 0.01345650 -0.13347690 0.70636082
v 0.01154469 -0.13421616 0.70156717
v 0.01504807 -0.13321321 0.69954699
v 0.01789693 -0.13225730 0.69735742
v 0.01948385 -0.13038322 0.69464040
v 0.01995002 -0.12818417 0.69251668
v 0.01362602 -0.13078347 0.68846708
v 0.00703358 -0.13243154 0.68613148
v -0.00000142 -0.13307665 0.68524146
v -0.00703645 -0.13243625 0.68613148
v -0.01362885 -0.13078347 0.68846708
v -0.01995290 -0.12818888 0.69251198
v -0.02545757 -0.12496331 0.69877946
v -0.02882911 -0.12199204 0.70676100
v -0.03078325 -0.11983535 0.71452600
v -0.03178629 -0.11814956 0.72175878
v -0.03200760 -0.11643557 0.72800267
v -0.03169211 -0.11473093 0.73306948
v -0.03111764 -0.11282853 0.73696363
v -0.03014759 -0.11063418 0.74050945
v -0.02903161 -0.10798781 0.74347603
v -0.02754829 -0.10479519 0.74639088
v -0.02575425 -0.10163556 0.74890065
v -0.02310316 -0.09677599 0.75158954
v -0.02033906 -0.09186468 0.75363779
v -0.01686858 -0.08605394 0.75580388
v -0.01240461 -0.07899061 0.75773930
v -0.00959813 -0.07483742 0.75858223
v -0.00466793 -0.07149880 0.75941086
v -0.00000147 -0.07051936 0.75976407
v 0.00466967 -0.07149880 0.75941086
v 0.00959516 -0.07483742 0.75858223
v 0.01240164 -0.07899061 0.75773930
v 0.01687038 -0.08605394 0.75580388
v 0.02034080 -0.09186468 0.75363308
v 0.02310491 -0.09677598 0.75158954
v 0.02575131 -0.10163554 0.74890065
v 0.02754541 -0.10479519 0.74639088
v 0.02903338 -0.10798780 0.74347615
v 0.03014471 -0.11063418 0.74050951
v 0.03111472 -0.11282853 0.73696375
v 0.03168919 -0.11473093 0.73306954
v 0.03200468 -0.11643556 0.72800273
v 0.03125128 -0.11916671 0.72895390
v 0.02960315 -0.12220392 0.72992402
v 0.02299192 -0.12718591 0.73098820
v 0.01500567 -0.13085410 0.73171812
v 0.01499625 -0.13174877 0.72547883
v 0.01492563 -0.13242683 0.71901822
v 0.01446888 -0.13290712 0.71255302
v 0.01823125 -0.13190415 0.70441133
v 0.02263878 -0.12987933 0.70240063
v 0.02465419 -0.12750140 0.70041352
v 0.02545468 -0.12496331 0.69878423
v 0.02812931 -0.12472788 0.70795709
v 0.02882150 -0.12198732 0.70676100
v 0.02998463 -0.12259003 0.71551013
v 0.03078041 -0.11983535 0.71452600
v 0.03178338 -0.11814955 0.72175884
v 0.03093579 -0.12080536 0.72265822
v 0.02922175 -0.12374368 0.72360939
v 0.02264347 -0.12841490 0.72474891
v 0.02193717 -0.12947437 0.71798229
v 0.02066103 -0.13053390 0.71096134
v 0.02615628 -0.12745431 0.70936030
v 0.02811990 -0.12550953 0.71660262
vn -0.00002838 -0.47104731 -0.88210797
vn 0.00000235 -0.33906341 -0.94076347
vn 0.18477100 -0.45831916 -0.86936951
vn 0.16639713 -0.33678031 -0.92676395
vn -0.00002594 -0.24309650 -0.97000211
vn 0.15289174 -0.23755199 -0.95926702
vn 0.13641074 -0.16770329 -0.97635442
vn -0.00000196 -0.17175810 -0.98513919
vn 0.11058833 -0.12292159 -0.98623556
vn 0.00000054 -0.12331440 -0.99236780
vn 0.08483451 -0.09112976 -0.99221903
vn -0.00000518 -0.09134310 -0.99581963
vn 0.06301606 -0.08605830 -0.99429512
vn -0.00002163 -0.08319181 -0.99653357
vn 0.04042119 -0.08081680 -0.99590898
vn 0.00000054 -0.08126562 -0.99669248
vn -0.04047166 -0.08085489 -0.99590403
vn -0.06266945 -0.08599246 -0.99432284
vn -0.08454549 -0.09134037 -0.99222428
vn -0.11059426 -0.12294640 -0.98623186
vn -0.13641086 -0.16778232 -0.97634077
vn -0.15286647 -0.23757522 -0.95926523
vn -0.16642998 -0.33677399 -0.92676014
vn -0.18482089 -0.45839074 -0.86932111
vn -0.19529453 -0.60882968 -0.76888645
vn -0.19377251 -0.75899792 -0.62159020
vn -0.00001740 -0.63118589 -0.77563161
vn 0.19548827 -0.60853672 -0.76906920
vn 0.36417913 -0.56997657 -0.73654610
vn 0.34152627 -0.43596297 -0.83264404
vn 0.31755251 -0.31020087 -0.89606684
vn 0.28550723 -0.22084187 -0.93258494
vn 0.24527782 -0.16262859 -0.95571476
vn 0.20284803 -0.12320449 -0.97142845
vn 0.13679174 -0.09519515 -0.98601526
vn 0.09266150 -0.08720402 -0.99187165
vn 0.07084794 -0.06766193 -0.99518967
vn 0.00000054 -0.05977606 -0.99821180
vn -0.07084183 -0.06766505 -0.99518997
vn -0.09273452 -0.08710009 -0.99187398
vn -0.13676757 -0.09517372 -0.98602068
vn -0.20284127 -0.12321491 -0.97142863
vn -0.24536827 -0.16253202 -0.95570803
vn -0.28562558 -0.22097583 -0.93251699
vn -0.31713238 -0.30981174 -0.89635038
vn -0.34150323 -0.43603304 -0.83261687
vn -0.36413756 -0.56993437 -0.73659939
vn -0.37508920 -0.69765353 -0.61039948
vn -0.36561060 -0.81202555 -0.45491040
vn -0.32071033 -0.93659562 -0.14118588
vn -0.33284250 -0.91963142 -0.20855208
vn -0.16996341 -0.96409112 -0.20406069
vn -0.17943446 -0.93355852 -0.31027719
vn -0.34915283 -0.88274658 -0.31440577
vn -0.18618238 -0.87155819 -0.45356619
vn 0.00000041 -0.77574050 -0.63105202
vn 0.19389808 -0.75885642 -0.62172401
vn 0.37509558 -0.69766015 -0.61038810
vn 0.54301435 -0.59711665 -0.59041268
vn 0.52202874 -0.47702456 -0.70705980
vn 0.48880616 -0.36172298 -0.79386729
vn 0.44548348 -0.27345306 -0.85250688
vn 0.38634431 -0.19909137 -0.90061134
vn 0.33106881 -0.14142317 -0.93294865
vn 0.27481860 -0.10167428 -0.95610529
vn 0.21306272 -0.07272515 -0.97432816
vn 0.16124173 -0.04783253 -0.98575526
vn 0.08960724 -0.01944731 -0.99578726
vn 0.00000054 -0.01016461 -0.99994850
vn -0.08960617 -0.01944721 -0.99578756
vn -0.16119568 -0.04789545 -0.98575956
vn -0.21304658 -0.07275248 -0.97432959
vn -0.27489010 -0.10151482 -0.95610154
vn -0.33103699 -0.14143182 -0.93295860
vn -0.38619369 -0.19933952 -0.90062100
vn -0.44539091 -0.27357233 -0.85251695
vn -0.48874974 -0.36169484 -0.79391486
vn -0.52207059 -0.47702375 -0.70702958
vn -0.54301554 -0.59722638 -0.59030062
vn -0.54770732 -0.70453376 -0.45127490
vn -0.53360438 -0.78419018 -0.31672120
vn -0.51386851 -0.83182526 -0.20977587
vn -0.48882574 -0.86160094 -0.13672356
vn -0.31469455 -0.94395131 -0.09961604
vn -0.46605799 -0.88192076 -0.07075109
vn -0.30513829 -0.94993341 -0.06721071
vn -0.43918577 -0.89639068 -0.05999606
vn -0.38870668 -0.92005885 -0.04897847
vn -0.27253699 -0.96076542 -0.05151352
vn -0.25341138 -0.96632958 -0.04460806
vn -0.31859669 -0.94688779 -0.04358487
vn -0.20583439 -0.97773242 -0.04088728
vn -0.23783019 -0.97106200 -0.02180344
vn -0.11558289 -0.99252069 -0.03928369
vn -0.12945712 -0.99151683 -0.01164103
vn -0.00000902 -0.99891561 -0.04655861
vn -0.00000071 -0.99996138 -0.00878847
vn 0.12958980 -0.99149561 -0.01196872
vn 0.11574861 -0.99250013 -0.03931891
vn 0.00000012 -0.99840981 -0.05637544
vn -0.13079228 -0.98959750 -0.05991799
vn -0.14411259 -0.98740083 -0.06535579
vn -0.15161708 -0.98631883 -0.06471004
vn -0.15641105 -0.98243928 -0.10172838
vn -0.16502464 -0.97665453 -0.13752389
vn -0.00000738 -0.99080223 -0.13531810
vn -0.00002443 -0.97881973 -0.20472451
vn -0.00000733 -0.95039761 -0.31103781
vn 0.00000033 -0.88557333 -0.46449980
vn 0.18614662 -0.87158060 -0.45353812
vn 0.36550280 -0.81213296 -0.45480519
vn 0.54771829 -0.70451492 -0.45129082
vn 0.76796389 -0.50066632 -0.39945558
vn 0.75397408 -0.40820214 -0.51467896
vn 0.71697438 -0.31885973 -0.61990017
vn 0.67398953 -0.23288934 -0.70107102
vn 0.62280554 -0.16236535 -0.76534373
vn 0.55849630 -0.09345156 -0.82422608
vn 0.48476216 -0.05104394 -0.87315535
vn 0.39879352 -0.02230676 -0.91676945
vn 0.32368270 0.00372103 -0.94615835
vn 0.25099412 0.06116553 -0.96605426
vn 0.13543491 0.11701881 -0.98385161
vn -0.00000297 0.12322580 -0.99237871
vn -0.13544379 0.11712208 -0.98383814
vn -0.25123888 0.06127593 -0.96598363
vn -0.32372138 0.00342396 -0.94614625
vn -0.39896721 -0.02201823 -0.91670084
vn -0.48476401 -0.05102596 -0.87315535
vn -0.55856341 -0.09366065 -0.82415700
vn -0.62278968 -0.16219775 -0.76539218
vn -0.67420554 -0.23256196 -0.70097208
vn -0.71696127 -0.31889304 -0.61989826
vn -0.75401282 -0.40809095 -0.51471013
vn -0.76794279 -0.50083935 -0.39927903
vn -0.76851648 -0.57480377 -0.28103921
vn -0.75603825 -0.63071567 -0.17494020
vn -0.72973299 -0.67658627 -0.09859523
vn -0.69372976 -0.71921813 -0.03826780
vn -0.62868983 -0.77764487 -0.00422291
vn -0.55048716 -0.83364427 0.04473377
vn -0.44562414 -0.89133906 0.08326983
vn -0.31337777 -0.94278473 0.11380403
vn -0.16640928 -0.97677171 0.13500030
vn -0.00000709 -0.98899913 0.14792199
vn 0.16626191 -0.97681129 0.13489538
vn 0.31348371 -0.94275081 0.11379417
vn 0.23837180 -0.97093522 -0.02154158
vn 0.20580910 -0.97775179 -0.04054821
vn 0.13067561 -0.98961490 -0.05988698
vn -0.00001796 -0.99768370 -0.06802541
vn -0.00001450 -0.99761701 -0.06899690
vn 0.00000014 -0.99557269 -0.09399569
vn 0.16508797 -0.97663498 -0.13758661
vn 0.16999239 -0.96409982 -0.20399561
vn 0.17943914 -0.93353111 -0.31035712
vn 0.34892458 -0.88297415 -0.31401971
vn 0.53355831 -0.78420055 -0.31677321
vn 0.76852131 -0.57481825 -0.28099659
vn 0.92924893 -0.35827160 -0.09021130
vn 0.95094520 -0.25759822 -0.17130759
vn 0.95319724 -0.16106272 -0.25587830
vn 0.94121605 -0.07913217 -0.32840571
vn 0.90750915 -0.02247343 -0.41943082
vn 0.86653805 0.02431454 -0.49851832
vn 0.80801112 0.06387210 -0.58569491
vn 0.75529689 0.09683729 -0.64818931
vn 0.69717097 0.13192587 -0.70466173
vn 0.63891613 0.17580026 -0.74891967
vn 0.57805020 0.21634224 -0.78679991
vn 0.47887343 0.32979083 -0.81358367
vn 0.27372691 0.43126142 -0.85970187
vn -0.00006505 0.44079289 -0.89760888
vn -0.27371597 0.43123898 -0.85971654
vn -0.47880498 0.32980648 -0.81361753
vn -0.57832271 0.21664816 -0.78651530
vn -0.63892406 0.17566764 -0.74894399
vn -0.69715977 0.13200603 -0.70465785
vn -0.75528496 0.09689085 -0.64819509
vn -0.80799490 0.06411181 -0.58569109
vn -0.86595404 0.02283290 -0.49960208
vn -0.90748113 -0.02234496 -0.41949817
vn -0.94120610 -0.07911208 -0.32843930
vn -0.95319408 -0.16074789 -0.25608820
vn -0.95103121 -0.25734580 -0.17121001
vn -0.92893821 -0.35875410 -0.09148427
vn -0.90185934 -0.43150470 -0.02129370
vn -0.86294925 -0.50392383 0.03713901
vn -0.81175190 -0.57207483 0.11742827
vn -0.72719634 -0.64903557 0.22346891
vn -0.60142875 -0.72790557 0.32929778
vn -0.43048725 -0.81145287 0.39525297
vn -0.22696425 -0.87673128 0.42406309
vn 0.00009231 -0.90305942 0.42951590
vn 0.22726695 -0.87578791 0.42584661
vn 0.43094945 -0.81029803 0.39711443
vn 0.60243726 -0.72572577 0.33225223
vn 0.44564027 -0.89133036 0.08327740
vn 0.31859961 -0.94688511 -0.04362464
vn 0.25338641 -0.96633881 -0.04454927
vn 0.27262372 -0.96074051 -0.05151764
vn 0.14413232 -0.98739952 -0.06533126
vn 0.15153302 -0.98634022 -0.06458244
vn 0.15650375 -0.98241562 -0.10181501
vn 0.32113257 -0.93649823 -0.14087293
vn 0.33284011 -0.91961563 -0.20862572
vn 0.51397258 -0.83173466 -0.20988052
vn 0.75591749 -0.63070756 -0.17549080
vn 0.90264177 -0.42985642 -0.02147954
vn 0.90601909 -0.41861451 0.06238037
vn 0.95128888 -0.30823851 0.00620613
vn 0.97757822 -0.20317221 -0.05533458
vn 0.99353194 -0.03810265 -0.10697016
vn 0.98513603 0.06626245 -0.15848078
vn 0.97401953 0.12854219 -0.18644857
vn 0.95384079 0.16185910 -0.25296161
vn 0.92632937 0.17225517 -0.33502558
vn 0.87340766 0.18124777 -0.45200482
vn 0.83176112 0.20990148 -0.51392126
vn 0.79319191 0.25329837 -0.55379307
vn 0.75753242 0.30976957 -0.57461947
vn 0.71369934 0.36013585 -0.60077894
vn 0.60594970 0.45411935 -0.65314680
vn 0.35078034 0.59546924 -0.72275144
vn 0.00000122 0.63270408 -0.77439368
vn -0.35080126 0.59549743 -0.72271806
vn -0.60600412 0.45408574 -0.65311962
vn -0.71372324 0.36018995 -0.60071814
vn -0.75720978 0.30796304 -0.57601392
vn -0.79319292 0.25368595 -0.55361414
vn -0.83177668 0.20999633 -0.51385713
vn -0.87335914 0.18128332 -0.45208427
vn -0.92634720 0.17235363 -0.33492541
vn -0.95398486 0.16202261 -0.25231221
vn -0.97398275 0.12837280 -0.18675601
vn -0.98514944 0.06620976 -0.15841992
vn -0.99355906 -0.03785302 -0.10680604
vn -0.97719705 -0.20490830 -0.05566632
vn -0.95048147 -0.31074080 0.00502637
vn -0.90340018 -0.42463180 0.05963325
vn -0.85406911 -0.49948600 0.14518884
vn -0.77619541 -0.56550497 0.27879179
vn -0.64703458 -0.63043123 0.42883885
vn -0.47408554 -0.70121568 0.53248423
vn -0.25450635 -0.77762371 0.57491559
vn 0.00001370 -0.82174301 0.56985849
vn 0.25453726 -0.77633339 0.57664311
vn 0.47437966 -0.69819146 0.53618342
vn 0.64946413 -0.62431127 0.43408755
vn 0.77826089 -0.56098866 0.28213841
vn 0.72920263 -0.64611202 0.22539489
vn 0.55051398 -0.83362603 0.04474597
vn 0.38889402 -0.91997325 -0.04910144
vn 0.30513173 -0.94993562 -0.06721009
vn 0.31472465 -0.94394058 -0.09962297
vn 0.48861626 -0.86171997 -0.13672303
vn 0.72956961 -0.67677396 -0.09851535
vn 0.86444539 -0.50125593 0.03843252
vn 0.85749513 -0.49224421 0.14965966
vn 0.81439388 -0.56798214 0.11899174
vn 0.62868029 -0.77765292 -0.00415977
vn 0.43931782 -0.89632112 -0.06006819
vn 0.46598402 -0.88196427 -0.07069824
vn 0.69387227 -0.71910596 -0.03778921
vn -0.17807022 -0.45291322 0.87359059
vn 0.00001399 -0.46768031 0.88389772
vn -0.16231948 -0.31911889 0.93371063
vn -0.00002320 -0.32463759 0.94583851
vn -0.14804341 -0.21570171 0.96517146
vn -0.00000050 -0.22385670 0.97462207
vn -0.00065944 -0.15325309 0.98818678
vn -0.13157591 -0.14658861 0.98040795
vn -0.00108581 -0.10438070 0.99453682
vn -0.11033402 -0.10223731 0.98862225
vn -0.09037136 -0.06966413 0.99346864
vn -0.00000182 -0.07132583 0.99745309
vn -0.07292001 -0.06189603 0.99541533
vn -0.00000053 -0.06114137 0.99812913
vn -0.05516743 -0.05641382 0.99688232
vn -0.00000428 -0.05765438 0.99833661
vn 0.05517340 -0.05641061 0.99688208
vn 0.07291645 -0.06189685 0.99541557
vn 0.09033626 -0.06970863 0.99346876
vn 0.11067908 -0.10189249 0.98861939
vn 0.13216099 -0.14767209 0.98016655
vn 0.14806670 -0.21573648 0.96516007
vn 0.16229972 -0.31906679 0.93373185
vn 0.17802069 -0.45295936 0.87357682
vn -0.00003132 -0.63106507 0.77573001
vn -0.19051985 -0.60842532 0.77040309
vn -0.38009358 -0.70302147 0.60107380
vn -0.36401382 -0.56633234 0.73943335
vn -0.33633712 -0.42240393 0.84169602
vn -0.30904576 -0.29152444 0.90526480
vn -0.27504277 -0.19898333 0.94061530
vn -0.23650050 -0.13841142 0.96172237
vn -0.19936161 -0.09686334 0.97512698
vn -0.13766164 -0.06879503 0.98808736
vn -0.10147752 -0.06140310 0.99294114
vn -0.07928656 -0.04818523 0.99568665
vn -0.00002764 -0.02614724 0.99965811
vn 0.07943636 -0.04807268 0.99568015
vn 0.10163538 -0.06101917 0.99294865
vn 0.13800727 -0.06928358 0.98800498
vn 0.19928360 -0.09686612 0.97514260
vn 0.23651349 -0.13848439 0.96170872
vn 0.27522972 -0.19914417 0.94052660
vn 0.30895796 -0.29157856 0.90527725
vn 0.33636489 -0.42241138 0.84168130
vn 0.36399639 -0.56639522 0.73939365
vn 0.19035955 -0.60869873 0.77022684
vn -0.00000244 -0.78429651 0.62038618
vn -0.19359727 -0.76697773 0.61177230
vn -0.37214267 -0.82037967 0.43415108
vn -0.23178433 -0.97260117 0.01797096
vn -0.20399143 -0.97869182 0.02344770
vn -0.31961882 -0.94731098 0.02111280
vn -0.24268442 -0.96946228 0.03531502
vn -0.38859972 -0.92106968 0.02492257
vn -0.26749024 -0.96257401 0.04359170
vn -0.29892325 -0.95298350 0.04967411
vn -0.44434723 -0.89465344 0.04637604
vn -0.47205523 -0.87916428 0.06507157
vn -0.31910494 -0.94489622 0.07309711
vn -0.49798226 -0.85951638 0.11508843
vn -0.32559496 -0.93889058 0.11167983
vn -0.33972371 -0.92333060 0.17902102
vn -0.52106863 -0.83284223 0.18671182
vn -0.35460067 -0.89026868 0.28579751
vn -0.53628069 -0.79017603 0.29668981
vn -0.54641300 -0.71265018 0.43995759
vn -0.53945553 -0.60223818 0.58846998
vn -0.51459652 -0.47618556 0.71304822
vn -0.47768590 -0.35140902 0.80518818
vn -0.43081224 -0.25487012 0.86570329
vn -0.37133104 -0.17843303 0.91119421
vn -0.31011781 -0.12087303 0.94298279
vn -0.24892381 -0.08644928 0.96465731
vn -0.17673162 -0.07087982 0.98170370
vn -0.10570992 -0.06479627 0.99228376
vn -0.05978911 -0.05402529 0.99674803
vn 0.00000134 -0.03201586 0.99948752
vn 0.05992150 -0.05367702 0.99675888
vn 0.10567648 -0.06480448 0.99228674
vn 0.17642708 -0.07105628 0.98174572
vn 0.24907999 -0.08633134 0.96462744
vn 0.31006348 -0.12088867 0.94299877
vn 0.37134045 -0.17839807 0.91119719
vn 0.43095586 -0.25490016 0.86562282
vn 0.47766551 -0.35149488 0.80516273
vn 0.51456612 -0.47610614 0.71312332
vn 0.53947818 -0.60220486 0.58848339
vn 0.38015074 -0.70299685 0.60106635
vn 0.19370092 -0.76700491 0.61170542
vn -0.00000015 -0.90059859 0.43465179
vn -0.18779755 -0.88400078 0.42810571
vn -0.17832826 -0.94352603 0.27920932
vn -0.16918869 -0.97049058 0.17182261
vn -0.16633996 -0.98040467 0.10553601
vn -0.15798886 -0.98467839 0.07381121
vn -0.15255593 -0.98751229 0.03932128
vn -0.14000484 -0.98913628 0.04481051
vn -0.11914524 -0.99151242 0.05203366
vn -0.11210973 -0.99327707 0.02884739
vn -0.12140632 -0.99248409 0.01535635
vn -0.00001472 -0.99948061 0.03223055
vn -0.00000993 -0.99984151 0.01781010
vn 0.11215988 -0.99327278 0.02879923
vn 0.12139899 -0.99248588 0.01530696
vn 0.16473636 -0.97706878 -0.13490210
vn -0.00003086 -0.99188322 -0.12715291
vn -0.16459024 -0.97714353 -0.13453819
vn -0.30843174 -0.94278198 -0.12661757
vn -0.45660046 -0.88386059 -0.10152145
vn -0.56909835 -0.81978858 -0.06382638
vn -0.66065717 -0.75058317 -0.01253723
vn -0.71573043 -0.69805008 0.02135805
vn -0.75307721 -0.65288097 0.08137203
vn -0.77007681 -0.61861688 0.15586889
vn -0.77860147 -0.56891328 0.26479718
vn -0.77788156 -0.49048707 0.39283949
vn -0.75699705 -0.39398247 0.52128047
vn -0.71667934 -0.29574075 0.63159186
vn -0.66730118 -0.20825896 0.71507865
vn -0.61464030 -0.13423686 0.77730155
vn -0.54594570 -0.07371031 0.83457202
vn -0.46362177 -0.03799949 0.88521808
vn -0.36909020 -0.02203342 0.92913240
vn -0.26628432 -0.01951380 0.96369708
vn -0.19167402 0.00817142 0.98142469
vn -0.10178844 0.02676813 0.99444586
vn -0.00000374 0.02293270 0.99973702
vn 0.10172636 0.02673102 0.99445325
vn 0.19167148 0.00816168 0.98142523
vn 0.26635328 -0.01953063 0.96367764
vn 0.36908108 -0.02195343 0.92913789
vn 0.46368572 -0.03792728 0.88518774
vn 0.54588282 -0.07386751 0.83459908
vn 0.61476451 -0.13436563 0.77718127
vn 0.66718596 -0.20828745 0.71517783
vn 0.71669227 -0.29570535 0.63159358
vn 0.75684988 -0.39392594 0.52153695
vn 0.77772313 -0.49066904 0.39292583
vn 0.54640043 -0.71267182 0.43993801
vn 0.37209871 -0.82042652 0.43410012
vn 0.18768965 -0.88402063 0.42811239
vn -0.00000006 -0.96097511 0.27663520
vn -0.00001975 -0.98502201 0.17242880
vn -0.00000775 -0.99466348 0.10317310
vn 0.00000005 -0.99787778 0.06511431
vn -0.00000067 -0.99909443 0.04255092
vn 0.00000007 -0.99920762 0.03980225
vn -0.00000223 -0.99879122 0.04915553
vn 0.11929746 -0.99148452 0.05221700
vn 0.20399827 -0.97868961 0.02348374
vn 0.23181137 -0.97259390 0.01802444
vn 0.30835515 -0.94281459 -0.12656213
vn 0.43075958 -0.80491215 -0.40812105
vn 0.23069070 -0.87360662 -0.42847797
vn 0.00008361 -0.90128541 -0.43322620
vn -0.23071440 -0.87362552 -0.42842662
vn -0.43072563 -0.80494678 -0.40808883
vn -0.62376606 -0.69601583 -0.35563743
vn -0.76746190 -0.58893639 -0.25329071
vn -0.87038559 -0.47138989 -0.14219897
vn -0.89952481 -0.43234339 -0.06272531
vn -0.91587156 -0.40100798 0.01928840
vn -0.93423992 -0.34443948 0.09250650
vn -0.94542873 -0.27420029 0.17600839
vn -0.94205070 -0.19156499 0.27539641
vn -0.92446428 -0.11217958 0.36439240
vn -0.89129782 -0.03808112 0.45181623
vn -0.84699160 0.01233952 0.53146315
vn -0.79968220 0.05830120 0.59758639
vn -0.74969906 0.09994034 0.65418911
vn -0.69957668 0.13823774 0.70105845
vn -0.63884205 0.16579755 0.75126046
vn -0.56387043 0.19183636 0.80327392
vn -0.47351399 0.29525757 0.82982373
vn -0.27230990 0.41686767 0.86721885
vn -0.00000780 0.45023689 0.89290911
vn 0.27229989 0.41691142 0.86720109
vn 0.47353113 0.29520112 0.82983404
vn 0.56385279 0.19181584 0.80329132
vn 0.63877547 0.16581516 0.75131303
vn 0.69950712 0.13839225 0.70109713
vn 0.74970835 0.09994829 0.65417713
vn 0.79967862 0.05827267 0.59759402
vn 0.84748972 0.01354087 0.53063929
vn 0.89114267 -0.03784189 0.45214269
vn 0.92447865 -0.11226262 0.36433020
vn 0.94211221 -0.19140340 0.27529889
vn 0.94584197 -0.27260241 0.17626961
vn 0.77859086 -0.56893534 0.26478103
vn 0.53619200 -0.79023164 0.29670179
vn 0.35467735 -0.89022666 0.28583309
vn 0.17818844 -0.94351977 0.27931920
vn 0.16926920 -0.97047710 0.17182049
vn 0.16636524 -0.98041648 0.10538509
vn 0.15796454 -0.98467833 0.07386382
vn 0.15257268 -0.98750973 0.03932078
vn 0.13999936 -0.98913878 0.04477585
vn 0.26737857 -0.96260601 0.04357227
vn 0.24264267 -0.96946633 0.03549111
vn 0.31968149 -0.94729263 0.02099316
vn 0.45654365 -0.88389444 -0.10148195
vn 0.62427461 -0.69477892 -0.35716048
vn 0.66674161 -0.58455181 -0.46233633
vn 0.47852445 -0.69226175 -0.54017407
vn 0.25641856 -0.77398783 -0.57895815
vn -0.00000250 -0.80616641 -0.59168911
vn -0.25642926 -0.77399123 -0.57894874
vn -0.47822073 -0.69383395 -0.53842306
vn -0.66662848 -0.58462256 -0.46241006
vn -0.82388389 -0.46093297 -0.32978225
vn -0.92353606 -0.32636529 -0.20141259
vn -0.94395852 -0.31284809 -0.10520741
vn -0.95302451 -0.30287069 -0.00372836
vn -0.96629935 -0.24483720 0.07950140
vn -0.97751987 -0.15230469 0.14580187
vn -0.97269380 -0.06150308 0.22379477
vn -0.95876241 0.01879588 0.28358680
vn -0.93390745 0.07563535 0.34942269
vn -0.89794982 0.10466882 0.42747012
vn -0.86104935 0.15539293 0.48419726
vn -0.83097768 0.21159983 0.51449156
vn -0.80613947 0.26089186 0.53110701
vn -0.77197868 0.29804954 0.56144041
vn -0.72683829 0.33985805 0.59682697
vn -0.61232823 0.46314153 0.64074493
vn -0.34668022 0.65089625 0.67538643
vn -0.00002898 0.70243639 0.71174657
vn 0.34678549 0.65081847 0.67540735
vn 0.61235839 0.46321157 0.64066565
vn 0.72673589 0.33990076 0.59692764
vn 0.77196938 0.29806846 0.56144321
vn 0.80615240 0.26088306 0.53109193
vn 0.83103943 0.21151237 0.51442784
vn 0.86110157 0.15538088 0.48410836
vn 0.89777619 0.10500358 0.42775258
vn 0.93390983 0.07575448 0.34939060
vn 0.95876551 0.01838960 0.28360289
vn 0.97269660 -0.06146666 0.22379312
vn 0.97754651 -0.15198791 0.14595363
vn 0.96634436 -0.24473511 0.07926712
vn 0.93417758 -0.34458500 0.09259357
vn 0.76994550 -0.61886185 0.15554412
vn 0.52101266 -0.83287275 0.18673238
vn 0.33970770 -0.92332762 0.17906699
vn 0.32569793 -0.93883997 0.11180477
vn 0.31904256 -0.94491440 0.07313638
vn 0.29930776 -0.95287710 0.04939899
vn 0.38852689 -0.92110086 0.02490428
vn 0.56943703 -0.81954735 -0.06390440
vn 0.76780540 -0.58842045 -0.25344917
vn 0.82493621 -0.45910713 -0.32969826
vn 0.87038439 -0.47141051 -0.14213824
vn 0.92422342 -0.32412782 -0.20187190
vn 0.89967179 -0.43204030 -0.06270455
vn 0.94397324 -0.31280831 -0.10519230
vn 0.95309699 -0.30264142 -0.00376793
vn 0.91586715 -0.40101922 0.01926351
vn 0.75312692 -0.65281254 0.08145962
vn 0.49790272 -0.85957336 0.11500687
vn 0.47251984 -0.87893194 0.06483478
vn 0.44436875 -0.89464307 0.04636967
vn 0.66062248 -0.75061566 -0.01242435
vn 0.71547574 -0.69829881 0.02175291
vt 0.34116191 0.84567052
vt 0.34118551 0.84135228
vt 0.33509260 0.84557593
vt 0.33522281 0.84129322
vt 0.34119731 0.83685660
vt 0.33549491 0.83678561
vt 0.33599180 0.83215982
vt 0.34122101 0.83231348
vt 0.33677259 0.82753390
vt 0.34123281 0.82768768
vt 0.33773091 0.82299089
vt 0.34125650 0.82308561
vt 0.33862999 0.81934702
vt 0.34126830 0.81950080
vt 0.33929259 0.81702822
vt 0.34128019 0.81668502
vt 0.34326771 0.81705183
vt 0.34390661 0.81937063
vt 0.34478211 0.82301450
vt 0.34570491 0.82756942
vt 0.34643841 0.83219522
vt 0.34689981 0.83683288
vt 0.34713641 0.84134042
vt 0.34723100 0.84562331
vt 0.34727839 0.84975219
vt 0.34730199 0.85383380
vt 0.34114999 0.84981132
vt 0.33500981 0.84970492
vt 0.32885781 0.84932631
vt 0.32909441 0.84523278
vt 0.32944938 0.84097367
vt 0.33010000 0.83635968
vt 0.33117661 0.83169842
vt 0.33280930 0.82701337
vt 0.33483240 0.82230473
vt 0.33672529 0.81835318
vt 0.33861819 0.81554931
vt 0.34129199 0.81494588
vt 0.34395391 0.81557292
vt 0.34582320 0.81838870
vt 0.34768060 0.82235199
vt 0.34965640 0.82707250
vt 0.35125351 0.83178121
vt 0.35229459 0.83645427
vt 0.35290989 0.84106839
vt 0.35322931 0.84532738
vt 0.35344231 0.84943271
vt 0.35358420 0.85346711
vt 0.35370249 0.85758418
vt 0.35429409 0.87118959
vt 0.35404560 0.86641002
vt 0.34747949 0.86691868
vt 0.34739670 0.86235201
vt 0.35385629 0.86187881
vt 0.34734940 0.85798651
vt 0.34112629 0.85386932
vt 0.33495069 0.85378653
vt 0.32868031 0.85337239
vt 0.32180661 0.85236680
vt 0.32237449 0.84841532
vt 0.32314351 0.84432191
vt 0.32401902 0.84019291
vt 0.32556880 0.83535409
vt 0.32750911 0.83055079
vt 0.33004090 0.82547528
vt 0.33311689 0.82006872
vt 0.33553040 0.81618810
vt 0.33829880 0.81359720
vt 0.34129199 0.81305301
vt 0.34428519 0.81362093
vt 0.34702989 0.81623542
vt 0.34940791 0.82013971
vt 0.35244849 0.82556999
vt 0.35493290 0.83065730
vt 0.35683769 0.83548421
vt 0.35835200 0.84033477
vt 0.35919201 0.84446382
vt 0.35992551 0.84856909
vt 0.36046979 0.85252059
vt 0.36090750 0.85670870
vt 0.36125061 0.86092043
vt 0.36151090 0.86555821
vt 0.36153451 0.87059808
vt 0.35443601 0.87617040
vt 0.36112049 0.87605208
vt 0.35419941 0.88123399
vt 0.36009121 0.88173091
vt 0.35799709 0.88724410
vt 0.35333571 0.88614380
vt 0.35190421 0.89055669
vt 0.35499209 0.89176351
vt 0.34982201 0.89285183
vt 0.35121810 0.89482760
vt 0.34634379 0.89392853
vt 0.34655669 0.89624733
vt 0.34096080 0.89404678
vt 0.34094891 0.89660221
vt 0.33535290 0.89620000
vt 0.33557770 0.89388120
vt 0.34098440 0.89000070
vt 0.34684059 0.89009529
vt 0.34742030 0.88576519
vt 0.34771609 0.88113928
vt 0.34772801 0.87641883
vt 0.34760961 0.87161553
vt 0.34105539 0.87174571
vt 0.34107900 0.86697781
vt 0.34109089 0.86242300
vt 0.34111449 0.85802192
vt 0.33487970 0.85792732
vt 0.32852650 0.85747772
vt 0.32132161 0.85654312
vt 0.31450701 0.85545462
vt 0.31534699 0.85121918
vt 0.31638810 0.84739780
vt 0.31766579 0.84329248
vt 0.31922749 0.83945942
vt 0.32165280 0.83420652
vt 0.32437390 0.82927299
vt 0.32787591 0.82379532
vt 0.33187470 0.81824672
vt 0.33508080 0.81408232
vt 0.33820420 0.81191719
vt 0.34130380 0.81140852
vt 0.34439170 0.81194091
vt 0.34749129 0.81412959
vt 0.35067380 0.81831771
vt 0.35462540 0.82390177
vt 0.35807991 0.82941502
vt 0.36076549 0.83437210
vt 0.36315539 0.83963680
vt 0.36468151 0.84348178
vt 0.36592379 0.84759903
vt 0.36692941 0.85142028
vt 0.36774570 0.85566759
vt 0.36826620 0.85957182
vt 0.36862120 0.86450517
vt 0.36850289 0.86973441
vt 0.36773381 0.87596929
vt 0.36580551 0.88239342
vt 0.36238641 0.88861650
vt 0.35776049 0.89339608
vt 0.35243660 0.89660221
vt 0.34700629 0.89854252
vt 0.34093711 0.89938247
vt 0.33487970 0.89849508
vt 0.32946119 0.89650762
vt 0.33070341 0.89473301
vt 0.33212310 0.89276898
vt 0.33512810 0.89004803
vt 0.34099621 0.88564688
vt 0.34101990 0.88113928
vt 0.34104350 0.87652540
vt 0.33451301 0.87156820
vt 0.33466670 0.86685961
vt 0.33479691 0.86229283
vt 0.32834911 0.86177230
vt 0.32095480 0.86075491
vt 0.31395099 0.85935879
vt 0.31109971 0.86383092
vt 0.31154931 0.85887373
vt 0.31212899 0.85491037
vt 0.31296900 0.85074598
vt 0.31401011 0.84680629
vt 0.31527600 0.84266549
vt 0.31684950 0.83866668
vt 0.31939319 0.83320087
vt 0.32213789 0.82812542
vt 0.32578179 0.82238752
vt 0.33008820 0.81629461
vt 0.33344820 0.81217748
vt 0.33748251 0.80949187
vt 0.34131560 0.80885297
vt 0.34513700 0.80952740
vt 0.34914759 0.81223673
vt 0.35247210 0.81638932
vt 0.35674301 0.82251757
vt 0.36032781 0.82827932
vt 0.36303711 0.83337832
vt 0.36552149 0.83885598
vt 0.36707130 0.84286672
vt 0.36831361 0.84703112
vt 0.36931920 0.85098261
vt 0.37012371 0.85514700
vt 0.37066791 0.85911041
vt 0.37108201 0.86407930
vt 0.37103471 0.86959243
vt 0.37019470 0.87608761
vt 0.36830181 0.88290221
vt 0.36466971 0.88970482
vt 0.35957059 0.89511162
vt 0.35365519 0.89881462
vt 0.34755051 0.90102702
vt 0.34092519 0.90187877
vt 0.33432370 0.90096778
vt 0.32823071 0.89870810
vt 0.32235089 0.89495772
vt 0.32417280 0.89325410
vt 0.32696492 0.89164507
vt 0.33005270 0.89046210
vt 0.32865670 0.88603729
vt 0.33458391 0.88570613
vt 0.33432370 0.88108021
vt 0.33434731 0.87635970
vt 0.32782850 0.87108308
vt 0.32811239 0.86630350
vt 0.32064721 0.86539251
vt 0.31356060 0.86428040
vt 0.31109971 0.86935592
vt 0.30997580 0.87599301
vt 0.30915949 0.86929673
vt 0.30915949 0.86348772
vt 0.30965641 0.85850698
vt 0.31027159 0.85442531
vt 0.31107610 0.85037923
vt 0.31211719 0.84628582
vt 0.31344220 0.84212130
vt 0.31505120 0.83790952
vt 0.31771320 0.83233720
vt 0.32048151 0.82717902
vt 0.32414910 0.82137001
vt 0.32865670 0.81486309
vt 0.33182740 0.81087607
vt 0.33674899 0.80770540
vt 0.34131560 0.80684179
vt 0.34588239 0.80774093
vt 0.35078031 0.81095892
vt 0.35392731 0.81495768
vt 0.35836390 0.82150018
vt 0.36199591 0.82734460
vt 0.36471701 0.83252651
vt 0.36733159 0.83812249
vt 0.36890510 0.84234607
vt 0.37019470 0.84652227
vt 0.37120029 0.85062772
vt 0.37198120 0.85468572
vt 0.37256089 0.85876727
vt 0.37302229 0.86374801
vt 0.37297490 0.86955702
vt 0.37209949 0.87625319
vt 0.37024200 0.88336360
vt 0.36639699 0.89063948
vt 0.36083651 0.89655489
vt 0.35451880 0.90051818
vt 0.34796461 0.90289622
vt 0.34092519 0.90374798
vt 0.33388591 0.90283698
vt 0.32735529 0.90039992
vt 0.32107312 0.89638931
vt 0.31555989 0.89042652
vt 0.31729910 0.88950372
vt 0.31958240 0.88843888
vt 0.32398349 0.88710213
vt 0.32784030 0.88111567
vt 0.32765099 0.87605208
vt 0.32058811 0.87042058
vt 0.31363150 0.86950958
vt 0.31188059 0.87585098
vt 0.31178591 0.88311511
vt 0.31372619 0.88267732
vt 0.31622249 0.88219231
vt 0.32194859 0.88156527
vt 0.32096669 0.87588638
vt 0.31435320 0.87574452
vt 0.09298765 0.90149552
vt 0.08843129 0.90153521
vt 0.09293812 0.89788008
vt 0.08848083 0.89790988
vt 0.09276974 0.89407659
vt 0.08853036 0.89418560
vt 0.08857983 0.89036220
vt 0.09243297 0.89024317
vt 0.08862936 0.88657832
vt 0.09188818 0.88645953
vt 0.09123444 0.88278472
vt 0.08868879 0.88286388
vt 0.09062033 0.87988251
vt 0.08871853 0.88001120
vt 0.09017461 0.87805003
vt 0.08875817 0.87780237
vt 0.08733183 0.87801039
vt 0.08683657 0.87983292
vt 0.08613330 0.88270551
vt 0.08538049 0.88637030
vt 0.08473664 0.89015412
vt 0.08430081 0.89396763
vt 0.08403337 0.89776128
vt 0.08388477 0.90137672
vt 0.08839166 0.90501189
vt 0.09300744 0.90499210
vt 0.09779167 0.90808248
vt 0.09767282 0.90466517
vt 0.09750443 0.90120828
vt 0.09726667 0.89760280
vt 0.09680116 0.89372993
vt 0.09600871 0.88985687
vt 0.09481018 0.88601381
vt 0.09334427 0.88221008
vt 0.09200704 0.87907022
vt 0.09066987 0.87688118
vt 0.08876806 0.87643552
vt 0.08686625 0.87683171
vt 0.08546960 0.87898111
vt 0.08404326 0.88208139
vt 0.08246839 0.88583553
vt 0.08117079 0.88965893
vt 0.08027929 0.89351201
vt 0.07970482 0.89737499
vt 0.07937794 0.90097058
vt 0.07912039 0.90441757
vt 0.08377581 0.90487319
vt 0.08834213 0.90842921
vt 0.09301739 0.90842921
vt 0.09790062 0.91155922
vt 0.09565216 0.94226527
vt 0.09495878 0.94095779
vt 0.09875249 0.94030410
vt 0.09616720 0.93909562
vt 0.10111980 0.93684709
vt 0.09755396 0.93581700
vt 0.09825724 0.93166667
vt 0.10290270 0.93222141
vt 0.10371500 0.92732823
vt 0.09847515 0.92737782
vt 0.10403190 0.92266291
vt 0.09838598 0.92313838
vt 0.09820771 0.91906732
vt 0.10399230 0.91833442
vt 0.09803932 0.91520429
vt 0.10374470 0.91436237
vt 0.10342770 0.91074699
vt 0.10304140 0.90719098
vt 0.10259570 0.90384310
vt 0.10202120 0.90037632
vt 0.10136740 0.89689952
vt 0.10020850 0.89284831
vt 0.09875249 0.88886643
vt 0.09687048 0.88472611
vt 0.09451305 0.88084322
vt 0.09272021 0.87773299
vt 0.09083825 0.87582141
vt 0.08878785 0.87544489
vt 0.08672761 0.87576193
vt 0.08479607 0.87762398
vt 0.08290421 0.88068467
vt 0.08044773 0.88450807
vt 0.07845675 0.88858908
vt 0.07690167 0.89254129
vt 0.07562386 0.89656282
vt 0.07488101 0.90001970
vt 0.07421737 0.90346670
vt 0.07368248 0.90680468
vt 0.07891237 0.90783483
vt 0.08367681 0.90831029
vt 0.08830249 0.91194552
vt 0.09303718 0.91193563
vt 0.09306693 0.91563022
vt 0.09311640 0.91950321
vt 0.09318578 0.92350483
vt 0.09325510 0.92758578
vt 0.09319567 0.93157762
vt 0.09292823 0.93547028
vt 0.09244287 0.93910551
vt 0.09205657 0.94137382
vt 0.09212589 0.94322598
vt 0.08791619 0.94150257
vt 0.08788651 0.94376087
vt 0.08377581 0.94126481
vt 0.08365696 0.94311708
vt 0.08334994 0.94538540
vt 0.08785676 0.94596982
vt 0.09238344 0.94549441
vt 0.09659314 0.94408780
vt 0.10087220 0.94165111
vt 0.10453710 0.93789709
vt 0.10732040 0.93274641
vt 0.10884580 0.92736793
vt 0.10952930 0.92210817
vt 0.10947980 0.91738337
vt 0.10911330 0.91317368
vt 0.10861800 0.90972668
vt 0.10789500 0.90608162
vt 0.10705300 0.90292191
vt 0.10597330 0.89947492
vt 0.10477480 0.89624578
vt 0.10286310 0.89194691
vt 0.10071370 0.88794518
vt 0.09818786 0.88359690
vt 0.09504795 0.87888211
vt 0.09315603 0.87623727
vt 0.09095710 0.87463272
vt 0.08880770 0.87419689
vt 0.08663845 0.87457317
vt 0.08438998 0.87611848
vt 0.08242875 0.87870371
vt 0.07916003 0.88333940
vt 0.07651537 0.88761842
vt 0.07426685 0.89156067
vt 0.07224619 0.89581990
vt 0.07094866 0.89900941
vt 0.06978976 0.90243650
vt 0.06886857 0.90556657
vt 0.06804645 0.90919191
vt 0.07320702 0.91035080
vt 0.07870441 0.91131163
vt 0.08355796 0.91181672
vt 0.08825296 0.91569960
vt 0.08820348 0.91960221
vt 0.08814400 0.92362368
vt 0.08809453 0.92767489
vt 0.08804500 0.93156773
vt 0.08799546 0.93537122
vt 0.08794593 0.93905598
vt 0.08344900 0.93898672
vt 0.08088356 0.94077951
vt 0.08016043 0.94205731
vt 0.07916992 0.94385999
vt 0.07805067 0.94614810
vt 0.08284473 0.94786167
vt 0.08782708 0.94851542
vt 0.09281927 0.94799042
vt 0.09765297 0.94640559
vt 0.10251640 0.94348359
vt 0.10670630 0.93912530
vt 0.10967790 0.93342978
vt 0.11128250 0.92765510
vt 0.11190650 0.92209828
vt 0.11187690 0.91712588
vt 0.11147070 0.91280723
vt 0.11097550 0.90926123
vt 0.11023250 0.90563589
vt 0.10945010 0.90232748
vt 0.10832080 0.89876169
vt 0.10704310 0.89544338
vt 0.10511160 0.89094651
vt 0.10300180 0.88676661
vt 0.10028770 0.88214081
vt 0.09679126 0.87699008
vt 0.09469133 0.87418699
vt 0.09168016 0.87216628
vt 0.08883738 0.87160170
vt 0.08598470 0.87208712
vt 0.08291411 0.87401861
vt 0.08074486 0.87677222
vt 0.07709974 0.88182378
vt 0.07426685 0.88638032
vt 0.07204812 0.89051068
vt 0.06999772 0.89495808
vt 0.06862092 0.89823681
vt 0.06740260 0.90178281
vt 0.06653094 0.90506142
vt 0.06569892 0.90866691
vt 0.06511449 0.91220301
vt 0.06746202 0.91262901
vt 0.07280093 0.91395629
vt 0.07847660 0.91495669
vt 0.08342915 0.91551143
vt 0.08329051 0.91937441
vt 0.08311218 0.92337608
vt 0.08294379 0.92744708
vt 0.08289426 0.93143892
vt 0.08305275 0.93534148
vt 0.07842707 0.93556941
vt 0.07972460 0.93887770
vt 0.07711958 0.94001681
vt 0.07496023 0.94131428
vt 0.07326644 0.94310719
vt 0.07201838 0.94478118
vt 0.07714927 0.94804001
vt 0.08234947 0.94992203
vt 0.08779734 0.95059550
vt 0.09325510 0.95006061
vt 0.09851473 0.94831729
vt 0.10372480 0.94519723
vt 0.10845950 0.94032383
vt 0.11162920 0.93414301
vt 0.11327350 0.92802161
vt 0.11387770 0.92219740
vt 0.11387770 0.91700703
vt 0.11347160 0.91259921
vt 0.11299610 0.90890461
vt 0.11227300 0.90527928
vt 0.11146080 0.90179270
vt 0.11030190 0.89808822
vt 0.10889540 0.89466101
vt 0.10694400 0.89004523
vt 0.10488380 0.88574630
vt 0.10209050 0.88101160
vt 0.09856426 0.87563312
vt 0.09622663 0.87256253
vt 0.09243297 0.87012577
vt 0.08886712 0.86946219
vt 0.08529132 0.87002683
vt 0.08142834 0.87236440
vt 0.07901144 0.87536567
vt 0.07532674 0.88064522
vt 0.07241463 0.88531047
vt 0.07023549 0.88955980
vt 0.06816530 0.89411622
vt 0.06665968 0.89751363
vt 0.06541162 0.90118849
vt 0.06450039 0.90465528
vt 0.06368815 0.90826082
vt 0.06311362 0.91193563
vt 0.06259858 0.91633350
vt 0.06459945 0.91651177
vt 0.06697666 0.91682881
vt 0.07244431 0.91792822
vt 0.07820916 0.91880977
vt 0.07792186 0.92287087
vt 0.07772380 0.92710042
vt 0.07783275 0.93139929
vt 0.07484138 0.93651032
vt 0.07139438 0.93747121
vt 0.06918549 0.93863988
vt 0.06741249 0.93978888
vt 0.06636255 0.93286532
vt 0.06440132 0.93352890
vt 0.06491637 0.92705089
vt 0.06291556 0.92736793
vt 0.06245988 0.92153370
vt 0.06444096 0.92148417
vt 0.06681817 0.92155349
vt 0.07229572 0.92224687
vt 0.07249385 0.92692220
vt 0.07317733 0.93183512
vt 0.06873977 0.93224120
vt 0.06736296 0.92683297
f 1/1/1 2/2/2 3/3/3
f 3/3/3 2/2/2 4/4/4
f 2/2/2 5/5/5 4/4/4
f 4/4/4 5/5/5 6/6/6
f 6/6/6 5/5/5 7/7/7
f 5/5/5 8/8/8 7/7/7
f 7/7/7 8/8/8 9/9/9
f 8/8/8 10/10/10 9/9/9
f 9/9/9 10/10/10 11/11/11
f 10/10/10 12/12/12 11/11/11
f 11/11/11 12/12/12 13/13/13
f 12/12/12 14/14/14 13/13/13
f 13/13/13 14/14/14 15/15/15
f 15/15/15 14/14/14 16/16/16
f 16/16/16 14/14/14 17/17/17
f 17/17/17 14/14/14 18/18/18
f 14/14/14 12/12/12 18/18/18
f 18/18/18 12/12/12 19/19/19
f 12/12/12 10/10/10 19/19/19
f 19/19/19 10/10/10 20/20/20
f 10/10/10 8/8/8 20/20/20
f 20/20/20 8/8/8 21/21/21
f 8/8/8 5/5/5 21/21/21
f 21/21/21 5/5/5 22/22/22
f 22/22/22 5/5/5 23/23/23
f 5/5/5 2/2/2 23/23/23
f 23/23/23 2/2/2 24/24/24
f 2/2/2 1/1/1 24/24/24
f 24/24/24 1/1/1 25/25/25
f 26/26/26 25/25/25 27/27/27
f 25/25/25 1/1/1 27/27/27
f 27/27/27 1/1/1 28/28/28
f 1/1/1 3/3/3 28/28/28
f 28/28/28 3/3/3 29/29/29
f 29/29/29 3/3/3 30/30/30
f 3/3/3 4/4/4 30/30/30
f 30/30/30 4/4/4 31/31/31
f 4/4/4 6/6/6 31/31/31
f 31/31/31 6/6/6 32/32/32
f 6/6/6 7/7/7 32/32/32
f 32/32/32 7/7/7 33/33/33
f 7/7/7 9/9/9 33/33/33
f 33/33/33 9/9/9 34/34/34
f 9/9/9 11/11/11 34/34/34
f 34/34/34 11/11/11 35/35/35
f 11/11/11 13/13/13 35/35/35
f 35/35/35 13/13/13 36/36/36
f 36/36/36 13/13/13 37/37/37
f 13/13/13 15/15/15 37/37/37
f 15/15/15 16/16/16 37/37/37
f 37/37/37 16/16/16 38/38/38
f 38/38/38 16/16/16 39/39/39
f 16/16/16 17/17/17 39/39/39
f 17/17/17 18/18/18 39/39/39
f 39/39/39 18/18/18 40/40/40
f 40/40/40 18/18/18 41/41/41
f 18/18/18 19/19/19 41/41/41
f 41/41/41 19/19/19 42/42/42
f 19/19/19 20/20/20 42/42/42
f 42/42/42 20/20/20 43/43/43
f 20/20/20 21/21/21 43/43/43
f 43/43/43 21/21/21 44/44/44
f 21/21/21 22/22/22 44/44/44
f 44/44/44 22/22/22 45/45/45
f 22/22/22 23/23/23 45/45/45
f 45/45/45 23/23/23 46/46/46
f 23/23/23 24/24/24 46/46/46
f 46/46/46 24/24/24 47/47/47
f 24/24/24 25/25/25 47/47/47
f 47/47/47 25/25/25 48/48/48
f 25/25/25 26/26/26 48/48/48
f 48/48/48 26/26/26 49/49/49
f 50/50/50 51/51/51 52/52/52
f 52/52/52 51/51/51 53/53/53
f 51/51/51 54/54/54 53/53/53
f 53/53/53 54/54/54 55/55/55
f 54/54/54 49/49/49 55/55/55
f 49/49/49 26/26/26 55/55/55
f 55/55/55 26/26/26 56/56/56
f 26/26/26 27/27/27 56/56/56
f 56/56/56 27/27/27 57/57/57
f 27/27/27 28/28/28 57/57/57
f 57/57/57 28/28/28 58/58/58
f 28/28/28 29/29/29 58/58/58
f 58/58/58 29/29/29 59/59/59
f 59/59/59 29/29/29 60/60/60
f 29/29/29 30/30/30 60/60/60
f 60/60/60 30/30/30 61/61/61
f 30/30/30 31/31/31 61/61/61
f 61/61/61 31/31/31 62/62/62
f 31/31/31 32/32/32 62/62/62
f 62/62/62 32/32/32 63/63/63
f 32/32/32 33/33/33 63/63/63
f 63/63/63 33/33/33 64/64/64
f 33/33/33 34/34/34 64/64/64
f 64/64/64 34/34/34 65/65/65
f 65/65/65 34/34/34 66/66/66
f 34/34/34 35/35/35 66/66/66
f 66/66/66 35/35/35 67/67/67
f 35/35/35 36/36/36 67/67/67
f 67/67/67 36/36/36 68/68/68
f 36/36/36 37/37/37 68/68/68
f 37/37/37 38/38/38 68/68/68
f 68/68/68 38/38/38 69/69/69
f 69/69/69 38/38/38 70/70/70
f 38/38/38 39/39/39 70/70/70
f 39/39/39 40/40/40 70/70/70
f 70/70/70 40/40/40 71/71/71
f 40/40/40 41/41/41 71/71/71
f 71/71/71 41/41/41 72/72/72
f 41/41/41 42/42/42 72/72/72
f 72/72/72 42/42/42 73/73/73
f 73/73/73 42/42/42 74/74/74
f 42/42/42 43/43/43 74/74/74
f 74/74/74 43/43/43 75/75/75
f 43/43/43 44/44/44 75/75/75
f 75/75/75 44/44/44 76/76/76
f 44/44/44 45/45/45 76/76/76
f 76/76/76 45/45/45 77/77/77
f 45/45/45 46/46/46 77/77/77
f 77/77/77 46/46/46 78/78/78
f 46/46/46 47/47/47 78/78/78
f 78/78/78 47/47/47 79/79/79
f 47/47/47 48/48/48 79/79/79
f 79/79/79 48/48/48 80/80/80
f 48/48/48 49/49/49 80/80/80
f 80/80/80 49/49/49 81/81/81
f 49/49/49 54/54/54 81/81/81
f 81/81/81 54/54/54 82/82/82
f 54/54/54 51/51/51 82/82/82
f 82/82/82 51/51/51 83/83/83
f 51/51/51 50/50/50 83/83/83
f 50/50/50 84/84/84 83/83/83
f 83/83/83 84/84/84 85/85/85
f 84/84/84 86/86/86 85/85/85
f 85/85/85 86/86/86 87/87/87
f 87/87/87 86/86/86 88/88/88
f 86/86/86 89/89/89 88/88/88
f 89/89/89 90/90/90 88/88/88
f 88/88/88 90/90/90 91/91/91
f 90/90/90 92/92/92 91/91/91
f 91/91/91 92/92/92 93/93/93
f 92/92/92 94/94/94 93/93/93
f 93/93/93 94/94/94 95/95/95
f 94/94/94 96/96/96 95/95/95
f 95/95/95 96/96/96 97/97/97
f 97/97/97 96/96/96 98/98/98
f 98/98/98 96/96/96 99/99/99
f 99/99/99 96/96/96 100/100/100
f 96/96/96 94/94/94 100/100/100
f 100/100/100 94/94/94 101/101/101
f 94/94/94 92/92/92 101/101/101
f 92/92/92 90/90/90 101/101/101
f 101/101/101 90/90/90 102/102/102
f 90/90/90 89/89/89 102/102/102
f 89/89/89 86/86/86 102/102/102
f 102/102/102 86/86/86 103/103/103
f 86/86/86 84/84/84 103/103/103
f 103/103/103 84/84/84 104/104/104
f 84/84/84 50/50/50 104/104/104
f 104/104/104 50/50/50 105/105/105
f 50/50/50 52/52/52 105/105/105
f 105/105/105 52/52/52 106/106/106
f 106/106/106 52/52/52 107/107/107
f 107/107/107 52/52/52 108/108/108
f 52/52/52 53/53/53 108/108/108
f 108/108/108 53/53/53 109/109/109
f 53/53/53 55/55/55 109/109/109
f 55/55/55 56/56/56 109/109/109
f 109/109/109 56/56/56 110/110/110
f 56/56/56 57/57/57 110/110/110
f 110/110/110 57/57/57 111/111/111
f 57/57/57 58/58/58 111/111/111
f 111/111/111 58/58/58 112/112/112
f 58/58/58 59/59/59 112/112/112
f 112/112/112 59/59/59 113/113/113
f 113/113/113 59/59/59 114/114/114
f 59/59/59 60/60/60 114/114/114
f 114/114/114 60/60/60 115/115/115
f 60/60/60 61/61/61 115/115/115
f 115/115/115 61/61/61 116/116/116
f 61/61/61 62/62/62 116/116/116
f 116/116/116 62/62/62 117/117/117
f 117/117/117 62/62/62 118/118/118
f 62/62/62 63/63/63 118/118/118
f 118/118/118 63/63/63 119/119/119
f 63/63/63 64/64/64 119/119/119
f 119/119/119 64/64/64 120/120/120
f 64/64/64 65/65/65 120/120/120
f 120/120/120 65/65/65 121/121/121
f 65/65/65 66/66/66 121/121/121
f 121/121/121 66/66/66 122/122/122
f 66/66/66 67/67/67 122/122/122
f 122/122/122 67/67/67 123/123/123
f 67/67/67 68/68/68 123/123/123
f 68/68/68 69/69/69 123/123/123
f 123/123/123 69/69/69 124/124/124
f 124/124/124 69/69/69 125/125/125
f 69/69/69 70/70/70 125/125/125
f 70/70/70 71/71/71 125/125/125
f 125/125/125 71/71/71 126/126/126
f 71/71/71 72/72/72 126/126/126
f 126/126/126 72/72/72 127/127/127
f 72/72/72 73/73/73 127/127/127
f 127/127/127 73/73/73 128/128/128
f 73/73/73 74/74/74 128/128/128
f 128/128/128 74/74/74 129/129/129
f 74/74/74 75/75/75 129/129/129
f 129/129/129 75/75/75 130/130/130
f 75/75/75 76/76/76 130/130/130
f 130/130/130 76/76/76 131/131/131
f 131/131/131 76/76/76 132/132/132
f 76/76/76 77/77/77 132/132/132
f 132/132/132 77/77/77 133/133/133
f 77/77/77 78/78/78 133/133/133
f 133/133/133 78/78/78 134/134/134
f 78/78/78 79/79/79 134/134/134
f 134/134/134 79/79/79 135/135/135
f 79/79/79 80/80/80 135/135/135
f 135/135/135 80/80/80 136/136/136
f 80/80/80 81/81/81 136/136/136
f 136/136/136 81/81/81 137/137/137
f 81/81/81 82/82/82 137/137/137
f 137/137/137 82/82/82 138/138/138
f 82/82/82 83/83/83 138/138/138
f 138/138/138 83/83/83 139/139/139
f 83/83/83 85/85/85 139/139/139
f 85/85/85 87/87/87 139/139/139
f 139/139/139 87/87/87 140/140/140
f 87/87/87 88/88/88 140/140/140
f 140/140/140 88/88/88 141/141/141
f 88/88/88 91/91/91 141/141/141
f 141/141/141 91/91/91 142/142/142
f 91/91/91 93/93/93 142/142/142
f 142/142/142 93/93/93 143/143/143
f 93/93/93 95/95/95 143/143/143
f 143/143/143 95/95/95 144/144/144
f 144/144/144 95/95/95 145/145/145
f 95/95/95 97/97/97 145/145/145
f 97/97/97 98/98/98 145/145/145
f 145/145/145 98/98/98 146/146/146
f 146/146/146 98/98/98 147/147/147
f 147/147/147 98/98/98 148/148/148
f 98/98/98 99/99/99 148/148/148
f 148/148/148 99/99/99 149/149/149
f 149/149/149 99/99/99 150/150/150
f 99/99/99 100/100/100 150/150/150
f 150/150/150 100/100/100 151/151/151
f 100/100/100 101/101/101 151/151/151
f 101/101/101 102/102/102 151/151/151
f 151/151/151 102/102/102 152/152/152
f 102/102/102 103/103/103 152/152/152
f 103/103/103 104/104/104 152/152/152
f 152/152/152 104/104/104 153/153/153
f 104/104/104 105/105/105 153/153/153
f 105/105/105 106/106/106 153/153/153
f 153/153/153 106/106/106 154/154/154
f 154/154/154 106/106/106 155/155/155
f 106/106/106 107/107/107 155/155/155
f 107/107/107 108/108/108 155/155/155
f 155/155/155 108/108/108 156/156/156
f 108/108/108 109/109/109 156/156/156
f 109/109/109 110/110/110 156/156/156
f 156/156/156 110/110/110 157/157/157
f 110/110/110 111/111/111 157/157/157
f 157/157/157 111/111/111 158/158/158
f 111/111/111 112/112/112 158/158/158
f 158/158/158 112/112/112 159/159/159
f 112/112/112 113/113/113 159/159/159
f 160/160/160 159/159/159 161/161/161
f 159/159/159 113/113/113 161/161/161
f 161/161/161 113/113/113 162/162/162
f 162/162/162 113/113/113 163/163/163
f 113/113/113 114/114/114 163/163/163
f 163/163/163 114/114/114 164/164/164
f 114/114/114 115/115/115 164/164/164
f 164/164/164 115/115/115 165/165/165
f 115/115/115 116/116/116 165/165/165
f 165/165/165 116/116/116 166/166/166
f 116/116/116 117/117/117 166/166/166
f 117/117/117 118/118/118 166/166/166
f 166/166/166 118/118/118 167/167/167
f 118/118/118 119/119/119 167/167/167
f 167/167/167 119/119/119 168/168/168
f 119/119/119 120/120/120 168/168/168
f 168/168/168 120/120/120 169/169/169
f 120/120/120 121/121/121 169/169/169
f 169/169/169 121/121/121 170/170/170
f 121/121/121 122/122/122 170/170/170
f 170/170/170 122/122/122 171/171/171
f 122/122/122 123/123/123 171/171/171
f 171/171/171 123/123/123 172/172/172
f 123/123/123 124/124/124 172/172/172
f 172/172/172 124/124/124 173/173/173
f 173/173/173 124/124/124 174/174/174
f 124/124/124 125/125/125 174/174/174
f 174/174/174 125/125/125 175/175/175
f 125/125/125 126/126/126 175/175/175
f 175/175/175 126/126/126 176/176/176
f 126/126/126 127/127/127 176/176/176
f 176/176/176 127/127/127 177/177/177
f 127/127/127 128/128/128 177/177/177
f 177/177/177 128/128/128 178/178/178
f 128/128/128 129/129/129 178/178/178
f 178/178/178 129/129/129 179/179/179
f 129/129/129 130/130/130 179/179/179
f 179/179/179 130/130/130 180/180/180
f 130/130/130 131/131/131 180/180/180
f 131/131/131 132/132/132 180/180/180
f 180/180/180 132/132/132 181/181/181
f 132/132/132 133/133/133 181/181/181
f 181/181/181 133/133/133 182/182/182
f 133/133/133 134/134/134 182/182/182
f 182/182/182 134/134/134 183/183/183
f 134/134/134 135/135/135 183/183/183
f 183/183/183 135/135/135 184/184/184
f 184/184/184 135/135/135 185/185/185
f 135/135/135 136/136/136 185/185/185
f 185/185/185 136/136/136 186/186/186
f 136/136/136 137/137/137 186/186/186
f 186/186/186 137/137/137 187/187/187
f 137/137/137 138/138/138 187/187/187
f 187/187/187 138/138/138 188/188/188
f 138/138/138 139/139/139 188/188/188
f 188/188/188 139/139/139 189/189/189
f 139/139/139 140/140/140 189/189/189
f 189/189/189 140/140/140 190/190/190
f 140/140/140 141/141/141 190/190/190
f 190/190/190 141/141/141 191/191/191
f 141/141/141 142/142/142 191/191/191
f 191/191/191 142/142/142 192/192/192
f 142/142/142 143/143/143 192/192/192
f 192/192/192 143/143/143 193/193/193
f 143/143/143 144/144/144 193/193/193
f 144/144/144 145/145/145 193/193/193
f 193/193/193 145/145/145 194/194/194
f 194/194/194 145/145/145 195/195/195
f 145/145/145 146/146/146 195/195/195
f 146/146/146 147/147/147 195/195/195
f 195/195/195 147/147/147 196/196/196
f 197/197/197 196/196/196 198/198/198
f 196/196/196 147/147/147 198/198/198
f 147/147/147 148/148/148 198/198/198
f 198/198/198 148/148/148 199/199/199
f 148/148/148 149/149/149 199/199/199
f 199/199/199 149/149/149 200/200/200
f 149/149/149 150/150/150 200/200/200
f 201/201/201 200/200/200 202/202/202
f 200/200/200 150/150/150 202/202/202
f 150/150/150 151/151/151 202/202/202
f 151/151/151 152/152/152 202/202/202
f 202/202/202 152/152/152 203/203/203
f 203/203/203 152/152/152 204/204/204
f 152/152/152 153/153/153 204/204/204
f 153/153/153 154/154/154 204/204/204
f 204/204/204 154/154/154 205/205/205
f 154/154/154 155/155/155 205/205/205
f 205/205/205 155/155/155 206/206/206
f 155/155/155 156/156/156 206/206/206
f 156/156/156 157/157/157 206/206/206
f 206/206/206 157/157/157 207/207/207
f 157/157/157 158/158/158 207/207/207
f 207/207/207 158/158/158 208/208/208
f 158/158/158 159/159/159 208/208/208
f 159/159/159 160/160/160 208/208/208
f 208/208/208 160/160/160 209/209/209
f 210/210/210 209/209/209 211/211/211
f 209/209/209 160/160/160 211/211/211
f 211/211/211 160/160/160 212/212/212
f 160/160/160 161/161/161 212/212/212
f 212/212/212 161/161/161 213/213/213
f 161/161/161 162/162/162 213/213/213
f 213/213/213 162/162/162 214/214/214
f 214/214/214 162/162/162 215/215/215
f 162/162/162 163/163/163 215/215/215
f 215/215/215 163/163/163 216/216/216
f 163/163/163 164/164/164 216/216/216
f 216/216/216 164/164/164 217/217/217
f 164/164/164 165/165/165 217/217/217
f 217/217/217 165/165/165 218/218/218
f 165/165/165 166/166/166 218/218/218
f 166/166/166 167/167/167 218/218/218
f 218/218/218 167/167/167 219/219/219
f 167/167/167 168/168/168 219/219/219
f 219/219/219 168/168/168 220/220/220
f 168/168/168 169/169/169 220/220/220
f 220/220/220 169/169/169 221/221/221
f 169/169/169 170/170/170 221/221/221
f 221/221/221 170/170/170 222/222/222
f 170/170/170 171/171/171 222/222/222
f 222/222/222 171/171/171 223/223/223
f 171/171/171 172/172/172 223/223/223
f 223/223/223 172/172/172 224/224/224
f 224/224/224 172/172/172 225/225/225
f 172/172/172 173/173/173 225/225/225
f 173/173/173 174/174/174 225/225/225
f 225/225/225 174/174/174 226/226/226
f 226/226/226 174/174/174 227/227/227
f 174/174/174 175/175/175 227/227/227
f 227/227/227 175/175/175 228/228/228
f 175/175/175 176/176/176 228/228/228
f 228/228/228 176/176/176 229/229/229
f 176/176/176 177/177/177 229/229/229
f 229/229/229 177/177/177 230/230/230
f 177/177/177 178/178/178 230/230/230
f 230/230/230 178/178/178 231/231/231
f 178/178/178 179/179/179 231/231/231
f 231/231/231 179/179/179 232/232/232
f 179/179/179 180/180/180 232/232/232
f 180/180/180 181/181/181 232/232/232
f 232/232/232 181/181/181 233/233/233
f 181/181/181 182/182/182 233/233/233
f 233/233/233 182/182/182 234/234/234
f 182/182/182 183/183/183 234/234/234
f 234/234/234 183/183/183 235/235/235
f 183/183/183 184/184/184 235/235/235
f 235/235/235 184/184/184 236/236/236
f 236/236/236 184/184/184 237/237/237
f 184/184/184 185/185/185 237/237/237
f 237/237/237 185/185/185 238/238/238
f 185/185/185 186/186/186 238/238/238
f 238/238/238 186/186/186 239/239/239
f 186/186/186 187/187/187 239/239/239
f 239/239/239 187/187/187 240/240/240
f 187/187/187 188/188/188 240/240/240
f 240/240/240 188/188/188 241/241/241
f 188/188/188 189/189/189 241/241/241
f 241/241/241 189/189/189 242/242/242
f 189/189/189 190/190/190 242/242/242
f 242/242/242 190/190/190 243/243/243
f 190/190/190 191/191/191 243/243/243
f 243/243/243 191/191/191 244/244/244
f 191/191/191 192/192/192 244/244/244
f 244/244/244 192/192/192 245/245/245
f 192/192/192 193/193/193 245/245/245
f 193/193/193 194/194/194 245/245/245
f 245/245/245 194/194/194 246/246/246
f 246/246/246 194/194/194 247/247/247
f 194/194/194 195/195/195 247/247/247
f 195/195/195 196/196/196 247/247/247
f 247/247/247 196/196/196 248/248/248
f 196/196/196 197/197/197 248/248/248
f 248/248/248 197/197/197 249/249/249
f 250/250/250 249/249/249 251/251/251
f 249/249/249 197/197/197 251/251/251
f 251/251/251 197/197/197 252/252/252
f 197/197/197 198/198/198 252/252/252
f 198/198/198 199/199/199 252/252/252
f 252/252/252 199/199/199 253/253/253
f 199/199/199 200/200/200 253/253/253
f 200/200/200 201/201/201 253/253/253
f 253/253/253 201/201/201 254/254/254
f 201/201/201 202/202/202 254/254/254
f 202/202/202 203/203/203 254/254/254
f 254/254/254 203/203/203 255/255/255
f 203/203/203 204/204/204 255/255/255
f 204/204/204 205/205/205 255/255/255
f 255/255/255 205/205/205 256/256/256
f 205/205/205 206/206/206 256/256/256
f 206/206/206 207/207/207 256/256/256
f 256/256/256 207/207/207 257/257/257
f 207/207/207 208/208/208 257/257/257
f 208/208/208 209/209/209 257/257/257
f 257/257/257 209/209/209 258/258/258
f 209/209/209 210/210/210 258/258/258
f 210/210/210 259/259/259 258/258/258
f 258/258/258 259/259/259 260/260/260
f 259/259/259 250/250/250 260/260/260
f 250/250/250 251/251/251 260/260/260
f 260/260/260 251/251/251 261/261/261
f 251/251/251 252/252/252 261/261/261
f 252/252/252 253/253/253 261/261/261
f 261/261/261 253/253/253 262/262/262
f 253/253/253 254/254/254 262/262/262
f 262/262/262 254/254/254 263/263/263
f 254/254/254 255/255/255 263/263/263
f 255/255/255 256/256/256 263/263/263
f 263/263/263 256/256/256 264/264/264
f 256/256/256 257/257/257 264/264/264
f 257/257/257 258/258/258 264/264/264
f 258/258/258 260/260/260 264/264/264
f 260/260/260 261/261/261 264/264/264
f 261/261/261 262/262/262 264/264/264
f 263/263/263 264/264/264 262/262/262
f 265/265/265 266/266/266 267/267/267
f 266/266/266 268/268/268 267/267/267
f 267/267/267 268/268/268 269/269/269
f 268/268/268 270/270/270 269/269/269
f 270/270/270 271/271/271 269/269/269
f 269/269/269 271/271/271 272/272/272
f 271/271/271 273/273/273 272/272/272
f 272/272/272 273/273/273 274/274/274
f 274/274/274 273/273/273 275/275/275
f 273/273/273 276/276/276 275/275/275
f 275/275/275 276/276/276 277/277/277
f 276/276/276 278/278/278 277/277/277
f 277/277/277 278/278/278 279/279/279
f 279/279/279 278/278/278 280/280/280
f 280/280/280 278/278/278 281/281/281
f 281/281/281 278/278/278 282/282/282
f 278/278/278 276/276/276 282/282/282
f 282/282/282 276/276/276 283/283/283
f 276/276/276 273/273/273 283/283/283
f 283/283/283 273/273/273 284/284/284
f 273/273/273 271/271/271 284/284/284
f 284/284/284 271/271/271 285/285/285
f 285/285/285 271/271/271 286/286/286
f 271/271/271 270/270/270 286/286/286
f 270/270/270 268/268/268 286/286/286
f 286/286/286 268/268/268 287/287/287
f 268/268/268 266/266/266 287/287/287
f 287/287/287 266/266/266 288/288/288
f 288/288/288 266/266/266 289/289/289
f 266/266/266 265/265/265 289/289/289
f 289/289/289 265/265/265 290/290/290
f 291/291/291 290/290/290 292/292/292
f 290/290/290 265/265/265 292/292/292
f 292/292/292 265/265/265 293/293/293
f 265/265/265 267/267/267 293/293/293
f 293/293/293 267/267/267 294/294/294
f 267/267/267 269/269/269 294/294/294
f 294/294/294 269/269/269 295/295/295
f 269/269/269 272/272/272 295/295/295
f 295/295/295 272/272/272 296/296/296
f 272/272/272 274/274/274 296/296/296
f 296/296/296 274/274/274 297/297/297
f 274/274/274 275/275/275 297/297/297
f 297/297/297 275/275/275 298/298/298
f 275/275/275 277/277/277 298/298/298
f 298/298/298 277/277/277 299/299/299
f 299/299/299 277/277/277 300/300/300
f 277/277/277 279/279/279 300/300/300
f 279/279/279 280/280/280 300/300/300
f 300/300/300 280/280/280 301/301/301
f 301/301/301 280/280/280 302/302/302
f 280/280/280 281/281/281 302/302/302
f 281/281/281 282/282/282 302/302/302
f 302/302/302 282/282/282 303/303/303
f 303/303/303 282/282/282 304/304/304
f 282/282/282 283/283/283 304/304/304
f 304/304/304 283/283/283 305/305/305
f 283/283/283 284/284/284 305/305/305
f 305/305/305 284/284/284 306/306/306
f 284/284/284 285/285/285 306/306/306
f 306/306/306 285/285/285 307/307/307
f 285/285/285 286/286/286 307/307/307
f 307/307/307 286/286/286 308/308/308
f 286/286/286 287/287/287 308/308/308
f 308/308/308 287/287/287 309/309/309
f 287/287/287 288/288/288 309/309/309
f 309/309/309 288/288/288 310/310/310
f 310/310/310 288/288/288 311/311/311
f 288/288/288 289/289/289 311/311/311
f 311/311/311 289/289/289 312/312/312
f 289/289/289 290/290/290 312/312/312
f 312/312/312 290/290/290 313/313/313
f 290/290/290 291/291/291 313/313/313
f 313/313/313 291/291/291 314/314/314
f 315/315/315 316/316/316 317/317/317
f 316/316/316 318/318/318 317/317/317
f 317/317/317 318/318/318 319/319/319
f 318/318/318 320/320/320 319/319/319
f 320/320/320 321/321/321 319/319/319
f 319/319/319 321/321/321 322/322/322
f 322/322/322 321/321/321 323/323/323
f 321/321/321 324/324/324 323/323/323
f 323/323/323 324/324/324 325/325/325
f 324/324/324 326/326/326 325/325/325
f 326/326/326 327/327/327 325/325/325
f 325/325/325 327/327/327 328/328/328
f 327/327/327 329/329/329 328/328/328
f 328/328/328 329/329/329 330/330/330
f 329/329/329 314/314/314 330/330/330
f 330/330/330 314/314/314 331/331/331
f 314/314/314 291/291/291 331/331/331
f 331/331/331 291/291/291 332/332/332
f 291/291/291 292/292/292 332/332/332
f 332/332/332 292/292/292 333/333/333
f 292/292/292 293/293/293 333/333/333
f 333/333/333 293/293/293 334/334/334
f 293/293/293 294/294/294 334/334/334
f 334/334/334 294/294/294 335/335/335
f 294/294/294 295/295/295 335/335/335
f 335/335/335 295/295/295 336/336/336
f 295/295/295 296/296/296 336/336/336
f 336/336/336 296/296/296 337/337/337
f 296/296/296 297/297/297 337/337/337
f 337/337/337 297/297/297 338/338/338
f 338/338/338 297/297/297 339/339/339
f 297/297/297 298/298/298 339/339/339
f 339/339/339 298/298/298 340/340/340
f 298/298/298 299/299/299 340/340/340
f 340/340/340 299/299/299 341/341/341
f 299/299/299 300/300/300 341/341/341
f 300/300/300 301/301/301 341/341/341
f 341/341/341 301/301/301 342/342/342
f 342/342/342 301/301/301 343/343/343
f 301/301/301 302/302/302 343/343/343
f 302/302/302 303/303/303 343/343/343
f 343/343/343 303/303/303 344/344/344
f 303/303/303 304/304/304 344/344/344
f 344/344/344 304/304/304 345/345/345
f 304/304/304 305/305/305 345/345/345
f 345/345/345 305/305/305 346/346/346
f 346/346/346 305/305/305 347/347/347
f 305/305/305 306/306/306 347/347/347
f 347/347/347 306/306/306 348/348/348
f 306/306/306 307/307/307 348/348/348
f 348/348/348 307/307/307 349/349/349
f 307/307/307 308/308/308 349/349/349
f 349/349/349 308/308/308 350/350/350
f 308/308/308 309/309/309 350/350/350
f 350/350/350 309/309/309 351/351/351
f 309/309/309 310/310/310 351/351/351
f 351/351/351 310/310/310 352/352/352
f 352/352/352 310/310/310 353/353/353
f 310/310/310 311/311/311 353/353/353
f 353/353/353 311/311/311 354/354/354
f 311/311/311 312/312/312 354/354/354
f 354/354/354 312/312/312 355/355/355
f 312/312/312 313/313/313 355/355/355
f 355/355/355 313/313/313 356/356/356
f 313/313/313 314/314/314 356/356/356
f 314/314/314 329/329/329 356/356/356
f 356/356/356 329/329/329 357/357/357
f 329/329/329 327/327/327 357/357/357
f 357/357/357 327/327/327 358/358/358
f 327/327/327 326/326/326 358/358/358
f 358/358/358 326/326/326 359/359/359
f 359/359/359 326/326/326 360/360/360
f 326/326/326 324/324/324 360/360/360
f 360/360/360 324/324/324 361/361/361
f 324/324/324 321/321/321 361/361/361
f 361/361/361 321/321/321 362/362/362
f 321/321/321 320/320/320 362/362/362
f 320/320/320 318/318/318 362/362/362
f 362/362/362 318/318/318 363/363/363
f 318/318/318 316/316/316 363/363/363
f 363/363/363 316/316/316 364/364/364
f 316/316/316 315/315/315 364/364/364
f 315/315/315 365/365/365 364/364/364
f 364/364/364 365/365/365 366/366/366
f 365/365/365 367/367/367 366/366/366
f 368/368/368 366/366/366 369/369/369
f 366/366/366 367/367/367 369/369/369
f 369/369/369 367/367/367 370/370/370
f 370/370/370 367/367/367 371/371/371
f 371/371/371 367/367/367 372/372/372
f 367/367/367 365/365/365 372/372/372
f 372/372/372 365/365/365 373/373/373
f 365/365/365 315/315/315 373/373/373
f 373/373/373 315/315/315 374/374/374
f 315/315/315 317/317/317 374/374/374
f 374/374/374 317/317/317 375/375/375
f 317/317/317 319/319/319 375/375/375
f 375/375/375 319/319/319 376/376/376
f 319/319/319 322/322/322 376/376/376
f 376/376/376 322/322/322 377/377/377
f 322/322/322 323/323/323 377/377/377
f 323/323/323 325/325/325 377/377/377
f 377/377/377 325/325/325 378/378/378
f 325/325/325 328/328/328 378/378/378
f 378/378/378 328/328/328 379/379/379
f 328/328/328 330/330/330 379/379/379
f 379/379/379 330/330/330 380/380/380
f 330/330/330 331/331/331 380/380/380
f 380/380/380 331/331/331 381/381/381
f 331/331/331 332/332/332 381/381/381
f 381/381/381 332/332/332 382/382/382
f 332/332/332 333/333/333 382/382/382
f 382/382/382 333/333/333 383/383/383
f 333/333/333 334/334/334 383/383/383
f 383/383/383 334/334/334 384/384/384
f 334/334/334 335/335/335 384/384/384
f 384/384/384 335/335/335 385/385/385
f 385/385/385 335/335/335 386/386/386
f 335/335/335 336/336/336 386/386/386
f 386/386/386 336/336/336 387/387/387
f 336/336/336 337/337/337 387/387/387
f 387/387/387 337/337/337 388/388/388
f 337/337/337 338/338/338 388/388/388
f 388/388/388 338/338/338 389/389/389
f 338/338/338 339/339/339 389/389/389
f 389/389/389 339/339/339 390/390/390
f 339/339/339 340/340/340 390/390/390
f 390/390/390 340/340/340 391/391/391
f 340/340/340 341/341/341 391/391/391
f 341/341/341 342/342/342 391/391/391
f 391/391/391 342/342/342 392/392/392
f 392/392/392 342/342/342 393/393/393
f 342/342/342 343/343/343 393/393/393
f 343/343/343 344/344/344 393/393/393
f 393/393/393 344/344/344 394/394/394
f 344/344/344 345/345/345 394/394/394
f 394/394/394 345/345/345 395/395/395
f 345/345/345 346/346/346 395/395/395
f 395/395/395 346/346/346 396/396/396
f 346/346/346 347/347/347 396/396/396
f 396/396/396 347/347/347 397/397/397
f 347/347/347 348/348/348 397/397/397
f 397/397/397 348/348/348 398/398/398
f 348/348/348 349/349/349 398/398/398
f 398/398/398 349/349/349 399/399/399
f 399/399/399 349/349/349 400/400/400
f 349/349/349 350/350/350 400/400/400
f 400/400/400 350/350/350 401/401/401
f 350/350/350 351/351/351 401/401/401
f 401/401/401 351/351/351 402/402/402
f 351/351/351 352/352/352 402/402/402
f 402/402/402 352/352/352 403/403/403
f 403/403/403 352/352/352 404/404/404
f 352/352/352 353/353/353 404/404/404
f 404/404/404 353/353/353 405/405/405
f 353/353/353 354/354/354 405/405/405
f 405/405/405 354/354/354 406/406/406
f 354/354/354 355/355/355 406/406/406
f 406/406/406 355/355/355 407/407/407
f 355/355/355 356/356/356 407/407/407
f 356/356/356 357/357/357 407/407/407
f 407/407/407 357/357/357 408/408/408
f 357/357/357 358/358/358 408/408/408
f 408/408/408 358/358/358 409/409/409
f 358/358/358 359/359/359 409/409/409
f 409/409/409 359/359/359 410/410/410
f 359/359/359 360/360/360 410/410/410
f 410/410/410 360/360/360 411/411/411
f 360/360/360 361/361/361 411/411/411
f 361/361/361 362/362/362 411/411/411
f 411/411/411 362/362/362 412/412/412
f 412/412/412 362/362/362 413/413/413
f 362/362/362 363/363/363 413/413/413
f 363/363/363 364/364/364 413/413/413
f 364/364/364 366/366/366 413/413/413
f 366/366/366 368/368/368 413/413/413
f 413/413/413 368/368/368 414/414/414
f 414/414/414 368/368/368 415/415/415
f 415/415/415 368/368/368 416/416/416
f 368/368/368 369/369/369 416/416/416
f 416/416/416 369/369/369 417/417/417
f 369/369/369 370/370/370 417/417/417
f 417/417/417 370/370/370 418/418/418
f 418/418/418 370/370/370 419/419/419
f 370/370/370 371/371/371 419/419/419
f 419/419/419 371/371/371 420/420/420
f 420/420/420 371/371/371 421/421/421
f 371/371/371 372/372/372 421/421/421
f 421/421/421 372/372/372 422/422/422
f 372/372/372 373/373/373 422/422/422
f 373/373/373 374/374/374 422/422/422
f 422/422/422 374/374/374 423/423/423
f 374/374/374 375/375/375 423/423/423
f 423/423/423 375/375/375 424/424/424
f 375/375/375 376/376/376 424/424/424
f 424/424/424 376/376/376 425/425/425
f 425/425/425 376/376/376 426/426/426
f 376/376/376 377/377/377 426/426/426
f 426/426/426 377/377/377 427/427/427
f 377/377/377 378/378/378 427/427/427
f 427/427/427 378/378/378 428/428/428
f 378/378/378 379/379/379 428/428/428
f 428/428/428 379/379/379 429/429/429
f 379/379/379 380/380/380 429/429/429
f 429/429/429 380/380/380 430/430/430
f 380/380/380 381/381/381 430/430/430
f 430/430/430 381/381/381 431/431/431
f 381/381/381 382/382/382 431/431/431
f 431/431/431 382/382/382 432/432/432
f 382/382/382 383/383/383 432/432/432
f 383/383/383 384/384/384 432/432/432
f 432/432/432 384/384/384 433/433/433
f 384/384/384 385/385/385 433/433/433
f 433/433/433 385/385/385 434/434/434
f 385/385/385 386/386/386 434/434/434
f 434/434/434 386/386/386 435/435/435
f 386/386/386 387/387/387 435/435/435
f 435/435/435 387/387/387 436/436/436
f 387/387/387 388/388/388 436/436/436
f 436/436/436 388/388/388 437/437/437
f 388/388/388 389/389/389 437/437/437
f 437/437/437 389/389/389 438/438/438
f 389/389/389 390/390/390 438/438/438
f 438/438/438 390/390/390 439/439/439
f 390/390/390 391/391/391 439/439/439
f 439/439/439 391/391/391 440/440/440
f 391/391/391 392/392/392 440/440/440
f 440/440/440 392/392/392 441/441/441
f 441/441/441 392/392/392 442/442/442
f 392/392/392 393/393/393 442/442/442
f 442/442/442 393/393/393 443/443/443
f 393/393/393 394/394/394 443/443/443
f 443/443/443 394/394/394 444/444/444
f 394/394/394 395/395/395 444/444/444
f 444/444/444 395/395/395 445/445/445
f 395/395/395 396/396/396 445/445/445
f 445/445/445 396/396/396 446/446/446
f 396/396/396 397/397/397 446/446/446
f 446/446/446 397/397/397 447/447/447
f 397/397/397 398/398/398 447/447/447
f 447/447/447 398/398/398 448/448/448
f 398/398/398 399/399/399 448/448/448
f 448/448/448 399/399/399 449/449/449
f 399/399/399 400/400/400 449/449/449
f 449/449/449 400/400/400 450/450/450
f 400/400/400 401/401/401 450/450/450
f 401/401/401 402/402/402 450/450/450
f 450/450/450 402/402/402 451/451/451
f 402/402/402 403/403/403 451/451/451
f 451/451/451 403/403/403 452/452/452
f 453/453/453 452/452/452 454/454/454
f 452/452/452 403/403/403 454/454/454
f 403/403/403 404/404/404 454/454/454
f 454/454/454 404/404/404 455/455/455
f 404/404/404 405/405/405 455/455/455
f 455/455/455 405/405/405 456/456/456
f 405/405/405 406/406/406 456/456/456
f 456/456/456 406/406/406 457/457/457
f 406/406/406 407/407/407 457/457/457
f 407/407/407 408/408/408 457/457/457
f 457/457/457 408/408/408 458/458/458
f 408/408/408 409/409/409 458/458/458
f 458/458/458 409/409/409 459/459/459
f 409/409/409 410/410/410 459/459/459
f 459/459/459 410/410/410 460/460/460
f 410/410/410 411/411/411 460/460/460
f 460/460/460 411/411/411 461/461/461
f 461/461/461 411/411/411 462/462/462
f 411/411/411 412/412/412 462/462/462
f 412/412/412 413/413/413 462/462/462
f 413/413/413 414/414/414 462/462/462
f 463/463/463 462/462/462 464/464/464
f 462/462/462 414/414/414 464/464/464
f 414/414/414 415/415/415 464/464/464
f 464/464/464 415/415/415 465/465/465
f 415/415/415 416/416/416 465/465/465
f 465/465/465 416/416/416 466/466/466
f 416/416/416 417/417/417 466/466/466
f 417/417/417 418/418/418 466/466/466
f 466/466/466 418/418/418 467/467/467
f 468/468/468 467/467/467 469/469/469
f 467/467/467 418/418/418 469/469/469
f 469/469/469 418/418/418 470/470/470
f 418/418/418 419/419/419 470/470/470
f 419/419/419 420/420/420 470/470/470
f 470/470/470 420/420/420 471/471/471
f 471/471/471 420/420/420 472/472/472
f 420/420/420 421/421/421 472/472/472
f 421/421/421 422/422/422 472/472/472
f 472/472/472 422/422/422 473/473/473
f 422/422/422 423/423/423 473/473/473
f 473/473/473 423/423/423 474/474/474
f 423/423/423 424/424/424 474/474/474
f 474/474/474 424/424/424 475/475/475
f 424/424/424 425/425/425 475/475/475
f 475/475/475 425/425/425 476/476/476
f 425/425/425 426/426/426 476/476/476
f 476/476/476 426/426/426 477/477/477
f 477/477/477 426/426/426 478/478/478
f 426/426/426 427/427/427 478/478/478
f 478/478/478 427/427/427 479/479/479
f 427/427/427 428/428/428 479/479/479
f 479/479/479 428/428/428 480/480/480
f 428/428/428 429/429/429 480/480/480
f 480/480/480 429/429/429 481/481/481
f 429/429/429 430/430/430 481/481/481
f 481/481/481 430/430/430 482/482/482
f 430/430/430 431/431/431 482/482/482
f 431/431/431 432/432/432 482/482/482
f 482/482/482 432/432/432 483/483/483
f 432/432/432 433/433/433 483/483/483
f 483/483/483 433/433/433 484/484/484
f 433/433/433 434/434/434 484/484/484
f 484/484/484 434/434/434 485/485/485
f 434/434/434 435/435/435 485/485/485
f 485/485/485 435/435/435 486/486/486
f 435/435/435 436/436/436 486/486/486
f 486/486/486 436/436/436 487/487/487
f 436/436/436 437/437/437 487/487/487
f 487/487/487 437/437/437 488/488/488
f 437/437/437 438/438/438 488/488/488
f 488/488/488 438/438/438 489/489/489
f 438/438/438 439/439/439 489/489/489
f 489/489/489 439/439/439 490/490/490
f 439/439/439 440/440/440 490/490/490
f 490/490/490 440/440/440 491/491/491
f 440/440/440 441/441/441 491/491/491
f 491/491/491 441/441/441 492/492/492
f 492/492/492 441/441/441 493/493/493
f 441/441/441 442/442/442 493/493/493
f 493/493/493 442/442/442 494/494/494
f 442/442/442 443/443/443 494/494/494
f 494/494/494 443/443/443 495/495/495
f 443/443/443 444/444/444 495/495/495
f 495/495/495 444/444/444 496/496/496
f 444/444/444 445/445/445 496/496/496
f 496/496/496 445/445/445 497/497/497
f 445/445/445 446/446/446 497/497/497
f 497/497/497 446/446/446 498/498/498
f 446/446/446 447/447/447 498/498/498
f 498/498/498 447/447/447 499/499/499
f 447/447/447 448/448/448 499/499/499
f 499/499/499 448/448/448 500/500/500
f 448/448/448 449/449/449 500/500/500
f 500/500/500 449/449/449 501/501/501
f 449/449/449 450/450/450 501/501/501
f 501/501/501 450/450/450 502/502/502
f 450/450/450 451/451/451 502/502/502
f 451/451/451 452/452/452 502/502/502
f 502/502/502 452/452/452 503/503/503
f 452/452/452 453/453/453 503/503/503
f 503/503/503 453/453/453 504/504/504
f 505/505/505 504/504/504 506/506/506
f 504/504/504 453/453/453 506/506/506
f 506/506/506 453/453/453 507/507/507
f 453/453/453 454/454/454 507/507/507
f 454/454/454 455/455/455 507/507/507
f 507/507/507 455/455/455 508/508/508
f 455/455/455 456/456/456 508/508/508
f 508/508/508 456/456/456 509/509/509
f 456/456/456 457/457/457 509/509/509
f 457/457/457 458/458/458 509/509/509
f 509/509/509 458/458/458 510/510/510
f 458/458/458 459/459/459 510/510/510
f 459/459/459 460/460/460 510/510/510
f 510/510/510 460/460/460 511/511/511
f 460/460/460 461/461/461 511/511/511
f 511/511/511 461/461/461 512/512/512
f 461/461/461 462/462/462 512/512/512
f 462/462/462 463/463/463 512/512/512
f 512/512/512 463/463/463 513/513/513
f 463/463/463 464/464/464 513/513/513
f 464/464/464 465/465/465 513/513/513
f 513/513/513 465/465/465 514/514/514
f 465/465/465 466/466/466 514/514/514
f 466/466/466 467/467/467 514/514/514
f 514/514/514 467/467/467 515/515/515
f 467/467/467 468/468/468 515/515/515
f 468/468/468 516/516/516 515/515/515
f 515/515/515 516/516/516 517/517/517
f 516/516/516 518/518/518 517/517/517
f 517/517/517 518/518/518 519/519/519
f 518/518/518 520/520/520 519/519/519
f 520/520/520 521/521/521 519/519/519
f 519/519/519 521/521/521 522/522/522
f 521/521/521 505/505/505 522/522/522
f 505/505/505 506/506/506 522/522/522
f 522/522/522 506/506/506 523/523/523
f 506/506/506 507/507/507 523/523/523
f 507/507/507 508/508/508 523/523/523
f 523/523/523 508/508/508 524/524/524
f 508/508/508 509/509/509 524/524/524
f 509/509/509 510/510/510 524/524/524
f 510/510/510 511/511/511 524/524/524
f 524/524/524 511/511/511 525/525/525
f 511/511/511 512/512/512 525/525/525
f 525/525/525 512/512/512 526/526/526
f 512/512/512 513/513/513 526/526/526
f 526/526/526 513/513/513 527/527/527
f 513/513/513 514/514/514 527/527/527
f 514/514/514 515/515/515 527/527/527
f 515/515/515 517/517/517 527/527/527
f 517/517/517 519/519/519 527/527/527
f 527/527/527 519/519/519 528/528/528
f 519/519/519 522/522/522 528/528/528
f 522/522/522 523/523/523 528/528/528
f 523/523/523 524/524/524 528/528/528
f 524/524/524 525/525/525 528/528/528
f 525/525/525 526/526/526 528/528/528
f 527/527/527 528/528/528 526/526/526

