mtllib forearm.mtl
usemtl Rubber_Black.001
v -0.03739712 -0.01598364 0.73989689
v -0.03739712 -0.01598364 0.73989689
v 0.00002036 -0.01598364 0.71490991
v 0.00002036 -0.01598364 0.71490991
v 0.00002036 -0.01598364 0.71490991
v 0.00002036 -0.01598364 0.71490991
v 0.00002036 -0.01598364 0.71490991
v 0.00002036 -0.01598364 0.71490991
v 0.00002036 -0.01598364 0.71490991
v 0.00002036 -0.01598364 0.71490991
v 0.00002036 -0.01598364 0.71490991
v -0.03181181 -0.01598364 0.74670011
v -0.03181181 -0.01598364 0.74670011
v -0.03181181 -0.01598364 0.74670011
v -0.02500866 -0.01598364 0.75232738
v -0.02500866 -0.01598364 0.75232738
v -0.02500866 -0.01598364 0.75232738
v -0.01723955 -0.01598364 0.75648493
v -0.01723955 -0.01598364 0.75648493
v -0.00879859 -0.01598364 0.75904661
v -0.00879859 -0.01598364 0.75904661
v 0.00002033 -0.01598364 0.75988650
v 0.00002033 -0.01598364 0.75988650
v 0.00879724 -0.01598364 0.75904661
v 0.00879724 -0.01598364 0.75904661
v 0.01723826 -0.01598364 0.75648493
v 0.01723826 -0.01598364 0.75648493
v 0.02500732 -0.01598364 0.75232738
v 0.02500732 -0.01598364 0.75232738
v 0.02500732 -0.01598364 0.75232738
v 0.03181047 -0.01598364 0.74670011
v 0.03181047 -0.01598364 0.74670011
v 0.03181047 -0.01598364 0.74670011
v 0.03739585 -0.01598364 0.73989689
v 0.03739585 -0.01598364 0.73989689
v 0.03739585 -0.01598364 0.73989689
v 0.04155334 -0.01598364 0.73212791
v 0.04155334 -0.01598364 0.73212791
v 0.04155334 -0.01598364 0.73212791
v 0.04411503 -0.01598364 0.72368681
v 0.04411503 -0.01598364 0.72368681
v 0.04499695 -0.01598364 0.71490991
v 0.04499695 -0.01598364 0.71490991
v 0.04411504 -0.01598364 0.70613301
v 0.04411504 -0.01598364 0.70613301
v 0.04155336 -0.01598364 0.69769192
v 0.04155336 -0.01598364 0.69769192
v 0.04155336 -0.01598364 0.69769192
v 0.03739588 -0.01598364 0.68988091
v 0.03739588 -0.01598364 0.68988091
v 0.03739588 -0.01598364 0.68988091
v 0.03181050 -0.01598364 0.68307769
v 0.03181050 -0.01598364 0.68307769
v 0.03181050 -0.01598364 0.68307769
v 0.02500736 -0.01598364 0.67749238
v 0.02500736 -0.01598364 0.67749238
v 0.02500736 -0.01598364 0.67749238
v 0.01723831 -0.01598364 0.67333490
v 0.01723831 -0.01598364 0.67333490
v 0.00879729 -0.01598364 0.67077321
v 0.00879729 -0.01598364 0.67077321
v 0.00002038 -0.01598364 0.66989130
v 0.00002038 -0.01598364 0.66989130
v 0.00002038 -0.01598364 0.66989130
v -0.00879854 -0.01598364 0.67077321
v -0.00879854 -0.01598364 0.67077321
v -0.01723951 -0.01598364 0.67333490
v -0.01723951 -0.01598364 0.67333490
v -0.02500862 -0.01598364 0.67749238
v -0.02500862 -0.01598364 0.67749238
v -0.02500862 -0.01598364 0.67749238
v -0.03181177 -0.01598364 0.68307769
v -0.03181177 -0.01598364 0.68307769
v -0.03181177 -0.01598364 0.68307769
v -0.03739709 -0.01598364 0.68988091
v -0.03739709 -0.01598364 0.68988091
v -0.04155464 -0.01598364 0.69769192
v -0.04155464 -0.01598364 0.69769192
v -0.04155464 -0.01598364 0.69769192
v -0.04411634 -0.01598364 0.70613301
v -0.04411634 -0.01598364 0.70613301
v -0.04411634 -0.01598364 0.70613301
v -0.04499825 -0.01598364 0.71490991
v -0.04499825 -0.01598364 0.71490991
v -0.04411635 -0.01598364 0.72368681
v -0.04411635 -0.01598364 0.72368681
v -0.04411635 -0.01598364 0.72368681
v -0.04155466 -0.01598364 0.73212791
v -0.04155466 -0.01598364 0.73212791
v -0.04155466 -0.01598364 0.73212791
v -0.03752313 -0.00191534 0.73998088
v -0.03752313 -0.00191534 0.73998088
v -0.03189579 -0.00191534 0.74678397
v -0.03189579 -0.00191534 0.74678397
v -0.02505062 -0.00191534 0.75241143
v -0.02505062 -0.00191534 0.75241143
v -0.01728158 -0.00191534 0.75656891
v -0.01728158 -0.00191534 0.75656891
v -0.00879859 -0.00191534 0.75913060
v -0.00879859 -0.00191534 0.75913060
v 0.00002033 -0.00191533 0.76001251
v 0.00002033 -0.00191533 0.76001251
v 0.00879724 -0.00191533 0.75913060
v 0.00879724 -0.00191533 0.75913060
v 0.01728022 -0.00191533 0.75656891
v 0.01728022 -0.00191533 0.75656891
v 0.02504928 -0.00191533 0.75241143
v 0.02504928 -0.00191533 0.75241143
v 0.03189446 -0.00191533 0.74678397
v 0.03189446 -0.00191533 0.74678397
v 0.03752179 -0.00191533 0.73998088
v 0.03752179 -0.00191533 0.73998088
v 0.04167934 -0.00191533 0.73216981
v 0.04167934 -0.00191533 0.73216981
v 0.04424103 -0.00191533 0.72368681
v 0.04424103 -0.00191533 0.72368681
v 0.04512289 -0.00191533 0.71490991
v 0.04512289 -0.00191533 0.71490991
v 0.04424104 -0.00191533 0.70609093
v 0.04424104 -0.00191533 0.70609093
v 0.04167936 -0.00191533 0.69765002
v 0.04167936 -0.00191533 0.69765002
v 0.03752182 -0.00191533 0.68983889
v 0.03752182 -0.00191533 0.68983889
v 0.03189449 -0.00191533 0.68299371
v 0.03189449 -0.00191533 0.68299371
v 0.02504932 -0.00191533 0.67740840
v 0.02504932 -0.00191533 0.67740840
v 0.01728027 -0.00191533 0.67320889
v 0.01728027 -0.00191533 0.67320889
v 0.00879729 -0.00191533 0.67064720
v 0.00879729 -0.00191533 0.67064720
v 0.00002038 -0.00191533 0.66980732
v 0.00002038 -0.00191533 0.66980732
v 0.00002038 -0.00191533 0.66980732
v -0.00879854 -0.00191534 0.67064720
v -0.00879854 -0.00191534 0.67064720
v -0.01728153 -0.00191534 0.67320889
v -0.01728153 -0.00191534 0.67320889
v -0.02505058 -0.00191534 0.67740840
v -0.02505058 -0.00191534 0.67740840
v -0.03189576 -0.00191534 0.68299371
v -0.03189576 -0.00191534 0.68299371
v -0.03752310 -0.00191534 0.68983889
v -0.03752310 -0.00191534 0.68983889
v -0.04168058 -0.00191534 0.69765002
v -0.04168058 -0.00191534 0.69765002
v -0.04424228 -0.00191534 0.70609093
v -0.04424228 -0.00191534 0.70609093
v -0.04512420 -0.00191534 0.71490991
v -0.04512420 -0.00191534 0.71490991
v -0.04424229 -0.00191534 0.72368681
v -0.04424229 -0.00191534 0.72368681
v -0.04168060 -0.00191534 0.73216981
v -0.04168060 -0.00191534 0.73216981
v 0.00002036 -0.00191533 0.71490991
v -0.01728152 -0.04626196 0.65305132
v -0.01728152 -0.04626196 0.65305132
v -0.01728152 -0.04626196 0.65305132
v -0.02505057 -0.05041950 0.65305132
v -0.02505057 -0.05041950 0.65305132
v -0.01728152 -0.04626196 0.66472590
v -0.01728152 -0.04626196 0.66472590
v -0.01728152 -0.04626196 0.66472590
v -0.02505057 -0.05041950 0.66472590
v -0.02505057 -0.05041950 0.66472590
v -0.02505057 -0.05041950 0.66472590
v -0.03189574 -0.05604684 0.65305132
v -0.03189574 -0.05604684 0.65305132
v -0.03189574 -0.05604684 0.65305132
v -0.03189575 -0.05604684 0.66472590
v -0.03189575 -0.05604684 0.66472590
v -0.03752308 -0.06289201 0.65305132
v -0.03752308 -0.06289201 0.65305132
v -0.03752308 -0.06289201 0.65305132
v -0.03752308 -0.06289201 0.66472590
v -0.03752308 -0.06289201 0.66472590
v -0.04168055 -0.07070308 0.65305132
v -0.04168055 -0.07070308 0.65305132
v -0.04168056 -0.07070308 0.66472590
v -0.04168056 -0.07070308 0.66472590
v -0.04424224 -0.07914407 0.65305132
v -0.04424224 -0.07914407 0.65305132
v -0.04424225 -0.07914407 0.66472590
v -0.04424225 -0.07914407 0.66472590
v -0.04512415 -0.08796298 0.65305132
v -0.04512415 -0.08796298 0.65305132
v -0.04512416 -0.08796298 0.66472590
v -0.04512416 -0.08796298 0.66472590
v -0.04424224 -0.09673995 0.65305132
v -0.04424224 -0.09673995 0.65305132
v -0.04424225 -0.09673995 0.66472590
v -0.04424225 -0.09673995 0.66472590
v -0.04168055 -0.10522300 0.65305132
v -0.04168055 -0.10522300 0.65305132
v -0.04168056 -0.10522300 0.66472590
v -0.04168056 -0.10522300 0.66472590
v -0.03752307 -0.11303400 0.65305132
v -0.03752307 -0.11303400 0.65305132
v -0.03752308 -0.11303400 0.66472590
v -0.03752308 -0.11303400 0.66472590
v -0.03752308 -0.11303400 0.66472590
v -0.03189573 -0.11983720 0.65305132
v -0.03189573 -0.11983720 0.65305132
v -0.03189574 -0.11983720 0.66472590
v -0.03189574 -0.11983720 0.66472590
v -0.03189574 -0.11983720 0.66472590
v -0.02505056 -0.12546450 0.65305132
v -0.02505056 -0.12546450 0.65305132
v -0.02505056 -0.12546450 0.65305132
v -0.02505056 -0.12546450 0.66472590
v -0.02505056 -0.12546450 0.66472590
v -0.02505056 -0.12546450 0.66472590
v -0.01728151 -0.12962200 0.65305132
v -0.01728151 -0.12962200 0.65305132
v -0.01728151 -0.12962200 0.65305132
v -0.01728151 -0.12962200 0.66472590
v -0.01728151 -0.12962200 0.66472590
v -0.01728151 -0.12962200 0.66472590
v -0.00879852 -0.13218370 0.65305132
v -0.00879852 -0.13218370 0.65305132
v -0.00879852 -0.13218370 0.65305132
v -0.00879853 -0.13218370 0.66472590
v -0.00879853 -0.13218370 0.66472590
v 0.00002040 -0.13306560 0.65305132
v 0.00002040 -0.13306560 0.65305132
v 0.00002040 -0.13306560 0.65305132
v 0.00002039 -0.13306560 0.66472590
v 0.00002039 -0.13306560 0.66472590
v 0.00879731 -0.13218370 0.65305132
v 0.00879731 -0.13218370 0.65305132
v 0.00879731 -0.13218370 0.65305132
v 0.00879730 -0.13218370 0.66472590
v 0.00879730 -0.13218370 0.66472590
v 0.01728029 -0.12962200 0.65305132
v 0.01728029 -0.12962200 0.65305132
v 0.01728029 -0.12962200 0.65305132
v 0.01728029 -0.12962200 0.66472590
v 0.01728029 -0.12962200 0.66472590
v 0.01728029 -0.12962200 0.66472590
v 0.02504934 -0.12546450 0.65305132
v 0.02504934 -0.12546450 0.65305132
v 0.02504934 -0.12546450 0.65305132
v 0.02504934 -0.12546450 0.66472590
v 0.02504934 -0.12546450 0.66472590
v 0.02504934 -0.12546450 0.66472590
v 0.03189452 -0.11983720 0.65305132
v 0.03189452 -0.11983720 0.65305132
v 0.03189451 -0.11983720 0.66472590
v 0.03189451 -0.11983720 0.66472590
v 0.03189451 -0.11983720 0.66472590
v 0.03752185 -0.11303400 0.65305132
v 0.03752185 -0.11303400 0.65305132
v 0.03752184 -0.11303400 0.66472590
v 0.03752184 -0.11303400 0.66472590
v 0.03752184 -0.11303400 0.66472590
v 0.04167939 -0.10522300 0.65305132
v 0.04167939 -0.10522300 0.65305132
v 0.04167938 -0.10522300 0.66472590
v 0.04167938 -0.10522300 0.66472590
v 0.04424108 -0.09673993 0.65305132
v 0.04424108 -0.09673993 0.65305132
v 0.04424107 -0.09673993 0.66472590
v 0.04424107 -0.09673993 0.66472590
v 0.04512293 -0.08796297 0.65305132
v 0.04512293 -0.08796297 0.65305132
v 0.04512292 -0.08796297 0.66472590
v 0.04512292 -0.08796297 0.66472590
v 0.04424108 -0.07914405 0.65305132
v 0.04424108 -0.07914405 0.65305132
v 0.04424107 -0.07914405 0.66472590
v 0.04424107 -0.07914405 0.66472590
v 0.04167939 -0.07070308 0.65305132
v 0.04167939 -0.07070308 0.65305132
v 0.04167939 -0.07070308 0.65305132
v 0.04167938 -0.07070308 0.66472590
v 0.04167938 -0.07070308 0.66472590
v 0.03752184 -0.06289201 0.65305132
v 0.03752184 -0.06289201 0.65305132
v 0.03752184 -0.06289201 0.65305132
v 0.03752184 -0.06289201 0.66472590
v 0.03752184 -0.06289201 0.66472590
v 0.03189451 -0.05604684 0.65305132
v 0.03189451 -0.05604684 0.65305132
v 0.03189451 -0.05604684 0.65305132
v 0.03189450 -0.05604684 0.66472590
v 0.03189450 -0.05604684 0.66472590
v 0.02504933 -0.05041949 0.65305132
v 0.02504933 -0.05041949 0.65305132
v 0.02504933 -0.05041949 0.66472590
v 0.02504933 -0.05041949 0.66472590
v 0.02504933 -0.05041949 0.66472590
v 0.01728028 -0.04626196 0.65305132
v 0.01728028 -0.04626196 0.65305132
v 0.00002040 -0.08796298 0.65305132
v 0.00002040 -0.08796298 0.65305132
v 0.00002040 -0.08796298 0.65305132
v 0.00002040 -0.08796298 0.65305132
v 0.00002040 -0.08796298 0.65305132
v 0.00002040 -0.08796298 0.65305132
v 0.00002040 -0.08796298 0.65305132
v 0.00002040 -0.08796298 0.65305132
v 0.00002040 -0.08796298 0.65305132
v 0.00002040 -0.08796298 0.65305132
v 0.00002040 -0.08796298 0.65305132
v -0.00879853 -0.04370027 0.65305132
v -0.00879853 -0.04370027 0.65305132
v -0.00879853 -0.04370027 0.65305132
v -0.00879853 -0.04370027 0.66472590
v -0.00879853 -0.04370027 0.66472590
v -0.00879853 -0.04370027 0.66472590
v 0.00002039 -0.08796298 0.66472590
v 0.00002039 -0.08796298 0.66472590
v 0.00002039 -0.08796298 0.66472590
v 0.00002039 -0.08796298 0.66472590
v 0.00002039 -0.08796298 0.66472590
v 0.00002039 -0.08796298 0.66472590
v 0.00002039 -0.08796298 0.66472590
v 0.00002039 -0.08796298 0.66472590
v 0.00002039 -0.08796298 0.66472590
v 0.00002039 -0.08796298 0.66472590
v 0.00002039 -0.08796298 0.66472590
v 0.00002039 -0.08796298 0.66472590
v 0.01728028 -0.04626196 0.66472590
v 0.01728028 -0.04626196 0.66472590
v 0.01728028 -0.04626196 0.66472590
v 0.00879730 -0.04370027 0.65305132
v 0.00879730 -0.04370027 0.65305132
v 0.00879730 -0.04370027 0.65305132
v 0.00002039 -0.04281842 0.65305132
v 0.00002039 -0.04281842 0.65305132
v 0.00002039 -0.04281842 0.65305132
v 0.00002039 -0.04281842 0.65305132
v 0.00002039 -0.04281842 0.66472590
v 0.00002039 -0.04281842 0.66472590
v 0.00002039 -0.04281842 0.66472590
v 0.00002039 -0.04281842 0.66472590
v 0.00879729 -0.04370027 0.66472590
v 0.00879729 -0.04370027 0.66472590
v 0.00879729 -0.04370027 0.66472590
v -0.02303449 -0.03236168 0.08796702
v -0.02303449 -0.03236168 0.08796702
v -0.02303449 -0.03236168 0.07200889
v -0.02303449 -0.03236168 0.07200889
v -0.02303449 -0.03236168 0.07200889
v -0.03344927 -0.03794700 0.08796702
v -0.03344927 -0.03794700 0.08796702
v -0.03344926 -0.03794700 0.07200889
v -0.03344926 -0.03794700 0.07200889
v -0.04260419 -0.04542207 0.08796701
v -0.04260419 -0.04542207 0.08796701
v -0.04260419 -0.04542207 0.08796701
v -0.04260417 -0.04542207 0.07200888
v -0.04260417 -0.04542207 0.07200888
v -0.04260417 -0.04542207 0.07200888
v -0.05007926 -0.05457699 0.08796700
v -0.05007926 -0.05457699 0.08796700
v -0.05007926 -0.05457699 0.08796700
v -0.05007925 -0.05457699 0.07200887
v -0.05007925 -0.05457699 0.07200887
v -0.05007925 -0.05457699 0.07200887
v -0.05566457 -0.06499178 0.08796700
v -0.05566457 -0.06499178 0.08796700
v -0.05566457 -0.06499178 0.08796700
v -0.05566456 -0.06499178 0.07200887
v -0.05566456 -0.06499178 0.07200887
v -0.05906621 -0.07628841 0.08796700
v -0.05906621 -0.07628841 0.08796700
v -0.05906621 -0.07628841 0.08796700
v -0.05906620 -0.07628841 0.07200887
v -0.05906620 -0.07628841 0.07200887
v -0.06024203 -0.08804697 0.08796700
v -0.06024203 -0.08804697 0.08796700
v -0.06024202 -0.08804697 0.07200887
v -0.06024202 -0.08804697 0.07200887
v -0.05906621 -0.09976358 0.08796700
v -0.05906621 -0.09976358 0.08796700
v -0.05906620 -0.09976358 0.07200887
v -0.05906620 -0.09976358 0.07200887
v -0.05566457 -0.11106021 0.08796700
v -0.05566457 -0.11106021 0.08796700
v -0.05566455 -0.11106021 0.07200887
v -0.05566455 -0.11106021 0.07200887
v -0.05566455 -0.11106021 0.07200887
v -0.05007926 -0.12147501 0.08796700
v -0.05007926 -0.12147501 0.08796700
v -0.05007925 -0.12147501 0.07200887
v -0.05007925 -0.12147501 0.07200887
v -0.05007925 -0.12147501 0.07200887
v -0.04260418 -0.13062979 0.08796701
v -0.04260418 -0.13062979 0.08796701
v -0.04260417 -0.13062979 0.07200888
v -0.04260417 -0.13062979 0.07200888
v -0.04260417 -0.13062979 0.07200888
v -0.03344927 -0.13810501 0.08796702
v -0.03344927 -0.13810501 0.08796702
v -0.03344925 -0.13810501 0.07200889
v -0.03344925 -0.13810501 0.07200889
v -0.03344925 -0.13810501 0.07200889
v -0.02303448 -0.14369030 0.08796702
v -0.02303448 -0.14369030 0.08796702
v -0.02303448 -0.14369030 0.07200889
v -0.02303448 -0.14369030 0.07200889
v -0.02303448 -0.14369030 0.07200889
v -0.01173785 -0.14709190 0.08796702
v -0.01173785 -0.14709190 0.08796702
v -0.01173784 -0.14709190 0.07200889
v -0.01173784 -0.14709190 0.07200889
v -0.01173784 -0.14709190 0.07200889
v 0.00002070 -0.14826781 0.08796703
v 0.00002070 -0.14826781 0.08796703
v 0.00002071 -0.14826781 0.07200890
v 0.00002071 -0.14826781 0.07200890
v 0.01173725 -0.14709190 0.08796704
v 0.01173725 -0.14709190 0.08796704
v 0.01173725 -0.14709190 0.07200891
v 0.01173725 -0.14709190 0.07200891
v 0.01173725 -0.14709190 0.07200891
v 0.02303394 -0.14369030 0.08796705
v 0.02303394 -0.14369030 0.08796705
v 0.02303394 -0.14369030 0.07200892
v 0.02303394 -0.14369030 0.07200892
v 0.02303394 -0.14369030 0.07200892
v 0.03344865 -0.13810501 0.08796705
v 0.03344865 -0.13810501 0.08796705
v 0.03344865 -0.13810501 0.08796705
v 0.03344866 -0.13810501 0.07200892
v 0.03344866 -0.13810501 0.07200892
v 0.04260357 -0.13062979 0.08796705
v 0.04260357 -0.13062979 0.08796705
v 0.04260357 -0.13062979 0.08796705
v 0.04260358 -0.13062979 0.07200892
v 0.04260358 -0.13062979 0.07200892
v 0.04260358 -0.13062979 0.07200892
v 0.05007865 -0.12147500 0.08796706
v 0.05007865 -0.12147500 0.08796706
v 0.05007866 -0.12147500 0.07200893
v 0.05007866 -0.12147500 0.07200893
v 0.05007866 -0.12147500 0.07200893
v 0.05566402 -0.11106020 0.08796706
v 0.05566402 -0.11106020 0.08796706
v 0.05566403 -0.11106020 0.07200893
v 0.05566403 -0.11106020 0.07200893
v 0.05566403 -0.11106020 0.07200893
v 0.05906559 -0.09976356 0.08796706
v 0.05906559 -0.09976356 0.08796706
v 0.05906560 -0.09976356 0.07200893
v 0.05906560 -0.09976356 0.07200893
v 0.06024148 -0.08804695 0.08796706
v 0.06024148 -0.08804695 0.08796706
v 0.06024149 -0.08804695 0.07200893
v 0.06024149 -0.08804695 0.07200893
v 0.05906559 -0.07628839 0.08796706
v 0.05906559 -0.07628839 0.08796706
v 0.05906560 -0.07628839 0.07200893
v 0.05906560 -0.07628839 0.07200893
v 0.05906560 -0.07628839 0.07200893
v 0.05566402 -0.06499176 0.08796706
v 0.05566402 -0.06499176 0.08796706
v 0.05566403 -0.06499176 0.07200893
v 0.05566403 -0.06499176 0.07200893
v 0.05566403 -0.06499176 0.07200893
v 0.05007865 -0.05457699 0.08796706
v 0.05007865 -0.05457699 0.08796706
v 0.05007865 -0.05457699 0.08796706
v 0.05007866 -0.05457699 0.07200893
v 0.05007866 -0.05457699 0.07200893
v 0.05007866 -0.05457699 0.07200893
v 0.04260356 -0.04542207 0.08796705
v 0.04260356 -0.04542207 0.08796705
v 0.04260356 -0.04542207 0.08796705
v 0.04260357 -0.04542207 0.07200892
v 0.04260357 -0.04542207 0.07200892
v 0.04260357 -0.04542207 0.07200892
v 0.03344864 -0.03794699 0.08796705
v 0.03344864 -0.03794699 0.08796705
v 0.03344866 -0.03794699 0.07200892
v 0.03344866 -0.03794699 0.07200892
v 0.02303393 -0.03236168 0.08796705
v 0.02303393 -0.03236168 0.08796705
v 0.02303393 -0.03236168 0.08796705
v 0.02303393 -0.03236168 0.07200892
v 0.02303393 -0.03236168 0.07200892
v 0.00002071 -0.08804696 0.07200890
v 0.00002071 -0.08804696 0.07200890
v 0.00002071 -0.08804696 0.07200890
v 0.00002071 -0.08804696 0.07200890
v 0.00002071 -0.08804696 0.07200890
v 0.00002071 -0.08804696 0.07200890
v 0.00002071 -0.08804696 0.07200890
v 0.00002071 -0.08804696 0.07200890
v 0.00002071 -0.08804696 0.07200890
v 0.00002071 -0.08804696 0.07200890
v 0.00002071 -0.08804696 0.07200890
v 0.00002071 -0.08804696 0.07200890
v 0.00002071 -0.08804696 0.07200890
v -0.01173786 -0.02896004 0.07200889
v -0.01173786 -0.02896004 0.07200889
v -0.01173786 -0.02896004 0.07200889
v -0.01173786 -0.02896004 0.08796702
v -0.01173786 -0.02896004 0.08796702
v 0.00002070 -0.08804696 0.08796703
v 0.00002070 -0.08804696 0.08796703
v 0.00002070 -0.08804696 0.08796703
v 0.00002070 -0.08804696 0.08796703
v 0.00002070 -0.08804696 0.08796703
v 0.00002070 -0.08804696 0.08796703
v 0.00002070 -0.08804696 0.08796703
v 0.01173723 -0.02896004 0.08796704
v 0.01173723 -0.02896004 0.08796704
v 0.01173723 -0.02896004 0.08796704
v 0.01173724 -0.02896004 0.07200891
v 0.01173724 -0.02896004 0.07200891
v 0.00002070 -0.02778422 0.07200890
v 0.00002070 -0.02778422 0.07200890
v 0.00002070 -0.02778422 0.07200890
v 0.00002070 -0.02778422 0.07200890
v 0.00002069 -0.02778422 0.08796703
v 0.00002069 -0.02778422 0.08796703
v 0.00002069 -0.02778422 0.08796703
v 0.00002069 -0.02778422 0.08796703
vn -0.83180171 -0.00821079 0.55501241
vn 0.00000009 -1.00000000 0.00000000
vn 0.00000009 -1.00000000 0.00000029
vn 0.00000009 -1.00000000 -0.00000029
vn 0.00000009 -1.00000000 0.00000000
vn 0.00000009 -1.00000000 0.00000030
vn 0.00000009 -1.00000000 -0.00000029
vn 0.00000009 -1.00000000 0.00000015
vn 0.00000009 -1.00000000 0.00000030
vn 0.00000009 -1.00000000 -0.00000029
vn 0.00000009 -1.00000000 -0.00000015
vn 0.00000009 -1.00000000 -0.00000015
vn 0.00000009 -1.00000000 0.00000000
vn -0.70714688 -0.00705153 0.70703155
vn 0.00000009 -1.00000000 0.00000000
vn 0.00000009 -1.00000000 -0.00000015
vn -0.55500490 -0.00820004 0.83180672
vn 0.00000009 -1.00000000 0.00000000
vn -0.38288662 -0.00770828 0.92376322
vn -0.19566522 -0.00805749 0.98063767
vn 0.00000009 -1.00000000 0.00000000
vn -0.00007077 -0.00790208 0.99996883
vn 0.00000009 -1.00000000 0.00000000
vn 0.19569928 -0.00809489 0.98063052
vn 0.00000009 -1.00000000 0.00000000
vn 0.00000009 -1.00000000 0.00000000
vn 0.38288650 -0.00765338 0.92376369
vn 0.55499959 -0.00820215 0.83181030
vn 0.00000009 -1.00000000 0.00000000
vn 0.00000009 -1.00000000 -0.00000029
vn 0.00000009 -1.00000000 -0.00000029
vn 0.00000009 -1.00000000 0.00000000
vn 0.70710522 -0.00704282 0.70707327
vn 0.00000009 -1.00000000 0.00000030
vn 0.00000009 -1.00000000 0.00000000
vn 0.83180732 -0.00819616 0.55500412
vn 0.00000009 -1.00000000 0.00000000
vn 0.92376494 -0.00774495 0.38288161
vn 0.00000009 -1.00000000 0.00000030
vn 0.98069799 -0.00691447 0.19540653
vn 0.00000009 -1.00000000 0.00000000
vn 0.00000009 -1.00000000 0.00000000
vn 0.99996799 -0.00800660 0.00000851
vn 0.00000009 -1.00000000 0.00000000
vn 0.98069513 -0.00706146 -0.19541578
vn 0.92376316 -0.00769542 -0.38288689
vn 0.00000009 -1.00000000 0.00000000
vn 0.00000009 -1.00000000 -0.00000029
vn 0.00000009 -1.00000000 -0.00000029
vn 0.00000009 -1.00000000 0.00000000
vn 0.83181912 -0.00798939 -0.55498946
vn 0.00000009 -1.00000000 0.00000015
vn 0.00000009 -1.00000000 0.00000000
vn 0.70703238 -0.00712245 -0.70714545
vn 0.00000009 -1.00000000 0.00000000
vn 0.00000009 -1.00000000 0.00000015
vn 0.55498534 -0.00817729 -0.83182001
vn 0.38288581 -0.00769653 -0.92376369
vn 0.00000009 -1.00000000 0.00000000
vn 0.19538952 -0.00782101 -0.98069459
vn 0.00000009 -1.00000000 0.00000000
vn -0.00001661 -0.00788438 -0.99996901
vn 0.00001913 -0.00789988 -0.99996883
vn 0.00000009 -1.00000000 0.00000000
vn -0.19570577 -0.00821407 -0.98062819
vn 0.00000009 -1.00000000 0.00000000
vn 0.00000009 -1.00000000 0.00000000
vn -0.38290688 -0.00772372 -0.92375469
vn -0.55500299 -0.00820266 -0.83180797
vn 0.00000009 -1.00000000 0.00000000
vn 0.00000009 -1.00000000 0.00000030
vn 0.00000009 -1.00000000 0.00000000
vn 0.00000009 -1.00000000 0.00000030
vn -0.70708156 -0.00713444 -0.70709604
vn 0.00000009 -1.00000000 0.00000000
vn -0.83180523 -0.00825883 -0.55500615
vn 0.00000009 -1.00000000 0.00000000
vn 0.00000009 -1.00000000 -0.00000029
vn -0.92375362 -0.00765320 -0.38291100
vn 0.00000009 -1.00000000 -0.00000029
vn 0.00000009 -1.00000000 0.00000000
vn -0.98062670 -0.00815042 -0.19571692
vn 0.00000009 -1.00000000 0.00000000
vn -0.99996913 -0.00785741 -0.00000054
vn 0.00000009 -1.00000000 0.00000000
vn -0.98063535 -0.00800678 0.19567938
vn 0.00000009 -1.00000000 0.00000029
vn -0.92376399 -0.00769599 0.38288480
vn 0.00000009 -1.00000000 0.00000000
vn 0.00000009 -1.00000000 0.00000029
vn -0.83181232 -0.00819100 0.55499667
vn -0.00000009 1.00000000 0.00000000
vn -0.70707524 -0.00705242 0.70710325
vn -0.00000009 1.00000000 0.00000000
vn -0.00000009 1.00000000 0.00000000
vn -0.55501080 -0.00819622 0.83180290
vn -0.00000009 1.00000000 0.00000000
vn -0.38289040 -0.00781074 0.92376083
vn -0.00000009 1.00000000 0.00000000
vn -0.19570543 -0.00809558 0.98062938
vn -0.00000009 1.00000000 0.00000000
vn 0.00018441 -0.00791597 0.99996871
vn 0.19536538 -0.00688837 0.98070639
vn -0.00000009 1.00000000 0.00000000
vn -0.00000009 1.00000000 0.00000000
vn 0.38286790 -0.00753203 0.92377239
vn 0.55502158 -0.00817431 0.83179587
vn -0.00000009 1.00000000 0.00000000
vn -0.00000009 1.00000000 0.00000000
vn 0.70694977 -0.00705510 0.70722878
vn 0.83180451 -0.00820647 0.55500799
vn -0.00000009 1.00000000 0.00000000
vn 0.92376930 -0.00772337 0.38287151
vn -0.00000009 1.00000000 0.00000000
vn -0.00000009 1.00000000 0.00000000
vn 0.98069990 -0.00687603 0.19539863
vn -0.00000009 1.00000000 0.00000000
vn 0.99996901 -0.00788048 0.00001719
vn 0.98069871 -0.00691513 -0.19540328
vn -0.00000009 1.00000000 0.00000000
vn 0.92377180 -0.00773219 -0.38286549
vn -0.00000009 1.00000000 0.00000000
vn 0.83180761 -0.00810956 -0.55500495
vn -0.00000009 1.00000000 0.00000000
vn 0.70707118 -0.00702363 -0.70710754
vn -0.00000009 1.00000000 0.00000000
vn 0.55500364 -0.00820066 -0.83180749
vn -0.00000009 1.00000000 0.00000000
vn 0.38287741 -0.00779011 -0.92376643
vn -0.00000009 1.00000000 0.00000000
vn 0.19571163 -0.00809823 -0.98062819
vn -0.00000009 1.00000000 0.00000000
vn 0.00004599 -0.00788504 -0.99996889
vn -0.00000833 -0.00789267 -0.99996901
vn -0.00000009 1.00000000 0.00000000
vn -0.00000009 1.00000000 0.00000000
vn -0.19568938 -0.00809814 -0.98063260
vn -0.00000009 1.00000000 0.00000000
vn -0.38289410 -0.00770840 -0.92376006
vn -0.00000009 1.00000000 0.00000000
vn -0.55504686 -0.00815229 -0.83177918
vn -0.00000009 1.00000000 0.00000000
vn -0.70702785 -0.00705493 -0.70715064
vn -0.00000009 1.00000000 0.00000000
vn -0.83180839 -0.00812907 -0.55500335
vn -0.92376143 -0.00768962 -0.38289151
vn -0.00000009 1.00000000 0.00000000
vn -0.98062611 -0.00824567 -0.19571562
vn -0.00000009 1.00000000 0.00000000
vn -0.99996960 -0.00781336 0.00000120
vn -0.00000009 1.00000000 0.00000000
vn -0.98063242 -0.00813040 0.19568878
vn -0.00000009 1.00000000 0.00000000
vn -0.92375195 -0.00766935 0.38291439
vn -0.00000009 1.00000000 0.00000000
vn -0.00000009 1.00000000 0.00000000
vn 0.00000054 0.00000000 -1.00000000
vn -0.38301778 0.92374104 -0.00000021
vn 0.00000171 0.00000000 -1.00000000
vn 0.00000054 0.00000000 -1.00000000
vn -0.55611944 0.83110255 -0.00000030
vn -0.38302428 0.92373836 -0.00000021
vn -0.00000995 -0.00000000 1.00000000
vn -0.00000054 -0.00000000 1.00000000
vn -0.55612594 0.83109814 -0.00000030
vn -0.00000054 -0.00000000 1.00000000
vn -0.00000995 -0.00000000 1.00000000
vn -0.00000882 -0.00000000 -1.00000000
vn 0.00000054 0.00000000 -1.00000000
vn -0.70646966 0.70774347 0.00000005
vn -0.00000054 -0.00000000 1.00000000
vn -0.70640403 0.70780873 -0.00000038
vn -0.00000882 -0.00000000 -1.00000000
vn 0.00000054 0.00000000 -1.00000000
vn -0.83125007 0.55589896 -0.00000045
vn -0.83125359 0.55589342 -0.00000045
vn -0.00000054 -0.00000000 1.00000000
vn 0.00000054 0.00000000 -1.00000000
vn -0.92365569 0.38322362 0.00000004
vn -0.92367727 0.38317180 -0.00000050
vn -0.00000054 -0.00000000 1.00000000
vn 0.00000054 0.00000000 -1.00000000
vn -0.98062670 0.19588581 -0.00000053
vn -0.98062789 0.19588001 -0.00000053
vn -0.00000054 -0.00000000 1.00000000
vn -1.00000000 -0.00023505 -0.00000054
vn 0.00000054 0.00000000 -1.00000000
vn -0.00000054 -0.00000000 1.00000000
vn -1.00000000 0.00011003 -0.00000054
vn 0.00000054 0.00000000 -1.00000000
vn -0.98071581 -0.19543970 -0.00000053
vn -0.98071522 -0.19544239 -0.00000053
vn -0.00000054 -0.00000000 1.00000000
vn 0.00000054 0.00000000 -1.00000000
vn -0.92361486 -0.38332209 -0.00000050
vn -0.00000054 -0.00000000 1.00000000
vn -0.92361426 -0.38332340 -0.00000050
vn -0.83088267 -0.55644768 -0.00000045
vn 0.00000054 0.00000000 -1.00000000
vn 0.00000886 0.00000000 1.00000000
vn -0.83107781 -0.55615628 -0.00000045
vn -0.00000054 -0.00000000 1.00000000
vn -0.70603776 -0.70817429 -0.00000038
vn 0.00000054 0.00000000 -1.00000000
vn -0.00000990 -0.00000000 1.00000000
vn 0.00000886 0.00000000 1.00000000
vn -0.70639205 -0.70782083 -0.00000038
vn 0.00000054 0.00000000 -1.00000000
vn -0.00000888 -0.00000000 -1.00000000
vn -0.55612207 -0.83110076 -0.00000030
vn -0.55612177 -0.83110088 -0.00000030
vn 0.00000888 0.00000000 1.00000000
vn -0.00000990 -0.00000000 1.00000000
vn 0.00000054 0.00000000 -1.00000000
vn -0.00000888 -0.00000000 -1.00000000
vn -0.38311291 -0.92370158 -0.00000021
vn -0.00000054 -0.00000000 1.00000000
vn -0.38325012 -0.92364454 -0.00000021
vn 0.00000888 0.00000000 1.00000000
vn 0.00000054 0.00000000 -1.00000000
vn -0.19521020 -0.98076153 -0.00000010
vn 0.00000990 0.00000000 -1.00000000
vn -0.00000054 -0.00000000 1.00000000
vn -0.19520821 -0.98076189 -0.00000010
vn 0.00000990 0.00000000 -1.00000000
vn -0.00000887 -0.00000000 -1.00000000
vn 0.00023521 -1.00000000 0.00000000
vn 0.00023866 -1.00000000 0.00000000
vn -0.00000054 -0.00000000 1.00000000
vn -0.00000887 -0.00000000 -1.00000000
vn 0.00000054 0.00000000 -1.00000000
vn 0.19543859 -0.98071599 0.00000010
vn 0.19544309 -0.98071510 0.00000010
vn -0.00000054 -0.00000000 1.00000000
vn 0.00000996 0.00000000 -1.00000000
vn 0.38329449 -0.92362624 0.00000021
vn 0.00000054 0.00000000 -1.00000000
vn -0.00000996 -0.00000000 1.00000000
vn 0.38325369 -0.92364311 -0.00000027
vn -0.00000054 -0.00000000 1.00000000
vn 0.00000996 0.00000000 -1.00000000
vn 0.00000054 0.00000000 -1.00000000
vn 0.55611867 -0.83110297 0.00000030
vn -0.00000996 -0.00000000 1.00000000
vn 0.00000883 0.00000000 1.00000000
vn 0.55612427 -0.83109921 0.00000030
vn 0.00000054 0.00000000 -1.00000000
vn 0.70628166 -0.70793092 0.00000038
vn 0.00000883 0.00000000 1.00000000
vn -0.00000994 -0.00000000 1.00000000
vn 0.70628798 -0.70792466 0.00000038
vn 0.83088177 -0.55644906 0.00000045
vn 0.00000054 0.00000000 -1.00000000
vn -0.00000994 -0.00000000 1.00000000
vn -0.00000054 -0.00000000 1.00000000
vn 0.83088648 -0.55644214 0.00000045
vn 0.00000054 0.00000000 -1.00000000
vn 0.92369014 -0.38314050 0.00000050
vn 0.92369229 -0.38313532 0.00000050
vn -0.00000054 -0.00000000 1.00000000
vn 0.98071498 -0.19544321 0.00000053
vn 0.00000054 0.00000000 -1.00000000
vn 0.98071587 -0.19543901 0.00000053
vn -0.00000054 -0.00000000 1.00000000
vn 1.00000000 0.00011134 0.00000054
vn 0.00000054 0.00000000 -1.00000000
vn -0.00000054 -0.00000000 1.00000000
vn 1.00000000 -0.00023491 0.00000054
vn 0.00000054 0.00000000 -1.00000000
vn 0.98062718 0.19588369 0.00000053
vn -0.00000054 -0.00000000 1.00000000
vn 0.98062688 0.19588509 0.00000053
vn 0.92363793 0.38326630 0.00000050
vn -0.00000415 -0.00000000 -1.00000000
vn 0.00000054 0.00000000 -1.00000000
vn 0.92367595 0.38317490 0.00000050
vn -0.00000054 -0.00000000 1.00000000
vn 0.00000990 0.00000000 -1.00000000
vn 0.83144605 0.55560553 0.00000045
vn -0.00000415 -0.00000000 -1.00000000
vn 0.83130693 0.55581367 0.00000012
vn -0.00000054 -0.00000000 1.00000000
vn 0.70640123 0.70781177 0.00000038
vn 0.00000054 0.00000000 -1.00000000
vn 0.00000990 0.00000000 -1.00000000
vn 0.70647186 0.70774114 0.00000038
vn -0.00000054 -0.00000000 1.00000000
vn 0.00000054 0.00000000 -1.00000000
vn 0.55612195 0.83110076 0.00000030
vn -0.00000054 -0.00000000 1.00000000
vn 0.55612272 0.83110017 0.00000030
vn 0.00000417 0.00000000 1.00000000
vn 0.38325191 0.92364395 0.00000055
vn 0.00000054 0.00000000 -1.00000000
vn -0.00000888 -0.00000000 -1.00000000
vn 0.00000726 0.00000000 -1.00000000
vn 0.00000990 0.00000000 -1.00000000
vn -0.00000415 -0.00000000 -1.00000000
vn 0.00000996 0.00000000 -1.00000000
vn -0.00000887 -0.00000000 -1.00000000
vn -0.00000887 -0.00000000 -1.00000000
vn 0.00000171 0.00000000 -1.00000000
vn 0.00000990 0.00000000 -1.00000000
vn 0.00000054 0.00000000 -1.00000000
vn -0.00000882 -0.00000000 -1.00000000
vn 0.00000726 0.00000000 -1.00000000
vn 0.00000171 0.00000000 -1.00000000
vn -0.19520629 0.98076230 -0.00000010
vn 0.00000882 0.00000000 1.00000000
vn -0.19521089 0.98076141 -0.00000010
vn -0.00000054 -0.00000000 1.00000000
vn -0.00000994 -0.00000000 1.00000000
vn 0.00000883 0.00000000 1.00000000
vn -0.00000996 -0.00000000 1.00000000
vn 0.00000888 0.00000000 1.00000000
vn -0.00000995 -0.00000000 1.00000000
vn -0.00000990 -0.00000000 1.00000000
vn 0.00000417 0.00000000 1.00000000
vn -0.00000054 -0.00000000 1.00000000
vn 0.00000886 0.00000000 1.00000000
vn 0.00000882 0.00000000 1.00000000
vn -0.00000994 -0.00000000 1.00000000
vn 0.00000063 0.00000000 1.00000000
vn 0.00000417 0.00000000 1.00000000
vn 0.38297570 0.92375857 0.00000021
vn 0.00000063 0.00000000 1.00000000
vn 0.19544251 0.98071522 0.00000010
vn 0.00000054 0.00000000 -1.00000000
vn -0.00000887 -0.00000000 -1.00000000
vn 0.00004719 1.00000000 0.00000480
vn 0.00000726 0.00000000 -1.00000000
vn -0.00000507 1.00000000 0.00000475
vn -0.00000887 -0.00000000 -1.00000000
vn 0.00004719 1.00000000 -0.00000477
vn -0.00000994 -0.00000000 1.00000000
vn 0.00000882 0.00000000 1.00000000
vn -0.00000506 1.00000000 -0.00000478
vn -0.00000994 -0.00000000 1.00000000
vn 0.00000063 0.00000000 1.00000000
vn 0.19544052 0.98071557 0.00000010
vn -0.00000054 -0.00000000 1.00000000
vn -0.38283759 0.92381567 -0.00000021
vn 0.00000054 0.00000000 -1.00000000
vn 0.00000111 0.00000000 -1.00000000
vn -0.38293269 0.92377627 -0.00000021
vn -0.00000054 -0.00000000 1.00000000
vn -0.55581188 0.83130825 -0.00000030
vn 0.00000054 0.00000000 -1.00000000
vn -0.55581415 0.83130652 -0.00000030
vn 0.00000012 0.00000000 1.00000000
vn -0.00000054 -0.00000000 1.00000000
vn -0.70759994 0.70661336 -0.00000065
vn -0.00000012 -0.00000000 -1.00000000
vn 0.00000054 0.00000000 -1.00000000
vn -0.70661348 0.70759982 -0.00000011
vn -0.83130676 0.55581415 -0.00000045
vn 0.00000012 0.00000000 1.00000000
vn -0.00000054 -0.00000000 1.00000000
vn -0.00000012 -0.00000000 -1.00000000
vn -0.83130837 0.55581176 -0.00000045
vn 0.00000054 0.00000000 -1.00000000
vn -0.92366165 0.38320932 -0.00000050
vn -0.00000054 -0.00000000 1.00000000
vn -0.00000087 -0.00000000 1.00000000
vn 0.00000054 0.00000000 -1.00000000
vn -0.92377764 0.38292962 -0.00000050
vn -0.00000054 -0.00000000 1.00000000
vn -0.00000087 -0.00000000 1.00000000
vn -0.98083872 0.19482172 -0.00000053
vn 0.00000054 0.00000000 -1.00000000
vn -0.98083931 0.19481851 -0.00000053
vn -0.00000054 -0.00000000 1.00000000
vn -1.00000000 -0.00017576 -0.00000054
vn 0.00000054 0.00000000 -1.00000000
vn -1.00000000 -0.00017922 -0.00000054
vn -0.98070741 -0.19548158 -0.00000072
vn -0.00000054 -0.00000000 1.00000000
vn -0.98070681 -0.19548489 -0.00000053
vn 0.00000054 0.00000000 -1.00000000
vn -0.00000054 -0.00000000 1.00000000
vn -0.92366284 -0.38320640 -0.00000050
vn 0.00000021 0.00000000 -1.00000000
vn -0.92358506 -0.38339379 -0.00000050
vn 0.00000054 0.00000000 -1.00000000
vn -0.83130813 -0.55581188 -0.00000045
vn -0.00000054 -0.00000000 1.00000000
vn 0.00000119 0.00000000 -1.00000000
vn 0.00000021 0.00000000 -1.00000000
vn -0.83127886 -0.55585587 -0.00000045
vn -0.70770794 -0.70650524 -0.00000038
vn -0.00000054 -0.00000000 1.00000000
vn 0.00000054 0.00000000 -1.00000000
vn 0.00000119 0.00000000 -1.00000000
vn -0.70774084 -0.70647228 -0.00000038
vn -0.55581403 -0.83130664 -0.00000030
vn -0.00000054 -0.00000000 1.00000000
vn -0.55581152 -0.83130848 -0.00000030
vn 0.00000119 0.00000000 -1.00000000
vn 0.00000054 0.00000000 -1.00000000
vn -0.38316280 -0.92368096 -0.00000021
vn -0.00000054 -0.00000000 1.00000000
vn 0.00000119 0.00000000 -1.00000000
vn -0.00000078 -0.00000000 -1.00000000
vn -0.38302171 -0.92373937 -0.00000021
vn -0.00000054 -0.00000000 1.00000000
vn -0.19540840 -0.98072201 -0.00000010
vn -0.00000078 -0.00000000 -1.00000000
vn 0.00000054 0.00000000 -1.00000000
vn -0.19516110 -0.98077130 0.00000003
vn -0.00000054 -0.00000000 1.00000000
vn 0.00017596 -1.00000000 0.00000000
vn 0.00017904 -1.00000000 0.00000000
vn 0.00000054 0.00000000 -1.00000000
vn 0.19548199 -0.98070729 0.00000010
vn -0.00000054 -0.00000000 1.00000000
vn 0.19548489 -0.98070681 0.00000010
vn 0.00000054 0.00000000 -1.00000000
vn 0.00000185 0.00000000 -1.00000000
vn 0.38329840 -0.92362452 0.00000021
vn -0.00000054 -0.00000000 1.00000000
vn 0.00000185 0.00000000 -1.00000000
vn 0.00000054 0.00000000 -1.00000000
vn 0.38316298 -0.92368084 0.00000021
vn 0.55593604 -0.83122516 0.00000030
vn -0.00000054 -0.00000000 1.00000000
vn -0.00000119 -0.00000000 1.00000000
vn 0.00000054 0.00000000 -1.00000000
vn 0.55581415 -0.83130652 0.00000030
vn -0.00000054 -0.00000000 1.00000000
vn -0.00000119 -0.00000000 1.00000000
vn 0.70639938 -0.70781356 0.00000038
vn -0.00000012 -0.00000000 -1.00000000
vn 0.00000054 0.00000000 -1.00000000
vn 0.70640129 -0.70781165 0.00000038
vn -0.00000054 -0.00000000 1.00000000
vn 0.83130664 -0.55581427 0.00000045
vn -0.00000012 -0.00000000 -1.00000000
vn 0.83136344 -0.55572903 0.00000045
vn 0.00000119 0.00000000 -1.00000000
vn 0.92368084 -0.38316312 0.00000050
vn -0.00000054 -0.00000000 1.00000000
vn 0.00000119 0.00000000 -1.00000000
vn 0.00000054 0.00000000 -1.00000000
vn 0.92368203 -0.38316003 0.00000050
vn 0.98070681 -0.19548461 0.00000053
vn -0.00000054 -0.00000000 1.00000000
vn 0.98080480 -0.19499251 0.00000053
vn 0.00000054 0.00000000 -1.00000000
vn 1.00000000 -0.00017903 0.00000054
vn -0.00000054 -0.00000000 1.00000000
vn 1.00000000 -0.00017561 0.00000054
vn 0.00000054 0.00000000 -1.00000000
vn 0.98083937 0.19481850 0.00000053
vn -0.00000054 -0.00000000 1.00000000
vn 0.00000054 0.00000000 -1.00000000
vn 0.00000070 0.00000000 -1.00000000
vn 0.98083872 0.19482189 0.00000053
vn -0.00000054 -0.00000000 1.00000000
vn 0.92372024 0.38306799 0.00000050
vn 0.00000054 0.00000000 -1.00000000
vn 0.00000070 0.00000000 -1.00000000
vn 0.92366153 0.38320950 0.00000050
vn 0.83128047 0.55585325 0.00000045
vn -0.00000054 -0.00000000 1.00000000
vn -0.00000119 -0.00000000 1.00000000
vn 0.83130652 0.55581415 0.00000045
vn 0.00000054 0.00000000 -1.00000000
vn 0.00000119 0.00000000 -1.00000000
vn 0.70650744 0.70770574 0.00000038
vn -0.00000119 -0.00000000 1.00000000
vn -0.00000054 -0.00000000 1.00000000
vn 0.70646995 0.70774317 0.00000038
vn 0.00000119 0.00000000 -1.00000000
vn 0.00000054 0.00000000 -1.00000000
vn 0.55581397 0.83130664 0.00000030
vn -0.00000054 -0.00000000 1.00000000
vn 0.55581147 0.83130848 0.00000030
vn 0.00000054 0.00000000 -1.00000000
vn -0.00000078 -0.00000000 1.00000000
vn -0.00000054 -0.00000000 1.00000000
vn 0.38293251 0.92377639 0.00000021
vn 0.00000054 0.00000000 -1.00000000
vn 0.38306791 0.92372036 0.00000021
vn 0.00000111 0.00000000 -1.00000000
vn 0.00000004 0.00000000 -1.00000000
vn 0.00000054 0.00000000 -1.00000000
vn 0.00000021 0.00000000 -1.00000000
vn 0.00000119 0.00000000 -1.00000000
vn 0.00000119 0.00000000 -1.00000000
vn 0.00000119 0.00000000 -1.00000000
vn 0.00000070 0.00000000 -1.00000000
vn 0.00000119 0.00000000 -1.00000000
vn -0.00000078 -0.00000000 -1.00000000
vn -0.00000012 -0.00000000 -1.00000000
vn 0.00000185 0.00000000 -1.00000000
vn -0.00000012 -0.00000000 -1.00000000
vn 0.00000111 0.00000000 -1.00000000
vn -0.19482160 0.98083878 -0.00000010
vn 0.00000004 0.00000000 -1.00000000
vn -0.19516090 0.98077130 -0.00000027
vn -0.00000054 -0.00000000 1.00000000
vn -0.00000078 -0.00000000 1.00000000
vn -0.00000119 -0.00000000 1.00000000
vn -0.00000054 -0.00000000 1.00000000
vn -0.00000087 -0.00000000 1.00000000
vn 0.00000012 0.00000000 1.00000000
vn -0.00000119 -0.00000000 1.00000000
vn -0.00000017 -0.00000000 1.00000000
vn -0.00000017 -0.00000000 1.00000000
vn -0.00000078 -0.00000000 1.00000000
vn 0.19533771 0.98073602 0.00000010
vn 0.19499271 0.98080480 0.00000010
vn 0.00000054 0.00000000 -1.00000000
vn 0.00002395 1.00000000 0.00000479
vn 0.00000004 0.00000000 -1.00000000
vn 0.00000054 0.00000000 -1.00000000
vn -0.00000483 1.00000000 0.00000475
vn -0.00000483 1.00000000 -0.00000478
vn -0.00000017 -0.00000000 1.00000000
vn 0.00002394 1.00000000 -0.00000477
vn -0.00000054 -0.00000000 1.00000000
vt 0.06762158 0.48183051
vt 0.99683082 0.56488901
vt 0.96776640 0.57364482
vt 0.96776640 0.57364482
vt 0.96776640 0.57364482
vt 0.96776640 0.57364482
vt 0.96776640 0.57364482
vt 0.96776640 0.57364482
vt 0.96776640 0.57364482
vt 0.96776640 0.57364482
vt 0.96776640 0.57364482
vt 0.99464190 0.55929488
vt 0.99464190 0.55929488
vt 0.07358038 0.48183051
vt 0.99123681 0.55443060
vt 0.99123681 0.55443060
vt 0.07953923 0.48183051
vt 0.98710209 0.55017441
vt 0.08549803 0.48183051
vt 0.09145683 0.48183051
vt 0.98211622 0.54689091
vt 0.09741562 0.48183051
vt 0.97664380 0.54458028
vt 0.10337440 0.48183051
vt 0.97080660 0.54336429
vt 0.96484780 0.54336429
vt 0.10933320 0.48183051
vt 0.11529210 0.48183051
vt 0.95901060 0.54458028
vt 0.95901060 0.54458028
vt 0.95341659 0.54689091
vt 0.95341659 0.54689091
vt 0.12125090 0.48183051
vt 0.94855231 0.55017441
vt 0.94855231 0.55017441
vt 0.12720969 0.48183051
vt 0.94429600 0.55443060
vt 0.13329010 0.48183051
vt 0.94429600 0.55443060
vt 0.13924889 0.48183051
vt 0.94101262 0.55929488
vt 0.93870199 0.56488901
vt 0.14520770 0.48183051
vt 0.93748587 0.57072622
vt 0.15116650 0.48183051
vt 0.15712529 0.48183051
vt 0.93748587 0.57668501
vt 0.93748587 0.57668501
vt 0.93870199 0.58252221
vt 0.93870199 0.58252221
vt 0.16308411 0.48183051
vt 0.94101262 0.58799458
vt 0.94101262 0.58799458
vt 0.16904300 0.48183051
vt 0.94429600 0.59298050
vt 0.94429600 0.59298050
vt 0.17500180 0.48183051
vt 0.18096051 0.48183051
vt 0.94855231 0.59711522
vt 0.18691930 0.48183051
vt 0.95341659 0.60052019
vt 0.00195312 0.48183051
vt 0.19287810 0.48183051
vt 0.95901060 0.60270917
vt 0.00791192 0.48183051
vt 0.96484780 0.60392523
vt 0.97080660 0.60392523
vt 0.01387071 0.48183051
vt 0.01982951 0.48183051
vt 0.97664380 0.60270917
vt 0.97664380 0.60270917
vt 0.98211622 0.60052019
vt 0.98211622 0.60052019
vt 0.02578830 0.48183051
vt 0.98710209 0.59711522
vt 0.03174716 0.48183051
vt 0.99123681 0.59298050
vt 0.99123681 0.59298050
vt 0.03770595 0.48183051
vt 0.99464190 0.58799458
vt 0.99464190 0.58799458
vt 0.04366475 0.48183051
vt 0.99683082 0.58252221
vt 0.04974514 0.48183051
vt 0.99804688 0.57668501
vt 0.05570399 0.48183051
vt 0.99804688 0.57668501
vt 0.06166279 0.48183051
vt 0.99804688 0.57072622
vt 0.99804688 0.57072622
vt 0.06762158 0.49131599
vt 0.94295829 0.96607482
vt 0.07358038 0.49131599
vt 0.93699950 0.96607482
vt 0.93104070 0.96485871
vt 0.07953923 0.49131599
vt 0.92556828 0.96254808
vt 0.08549803 0.49131599
vt 0.92058241 0.95926482
vt 0.09145683 0.49131599
vt 0.91632611 0.95500851
vt 0.09741562 0.49131599
vt 0.10337440 0.49131599
vt 0.91304272 0.95002252
vt 0.91073209 0.94455010
vt 0.10933320 0.49131599
vt 0.11529210 0.49131599
vt 0.90963757 0.93871301
vt 0.90963757 0.93275410
vt 0.12125090 0.49131599
vt 0.12720969 0.49131599
vt 0.91073209 0.92679530
vt 0.13329010 0.49131599
vt 0.91304272 0.92132300
vt 0.91632611 0.91633701
vt 0.13924889 0.49131599
vt 0.92058241 0.91208071
vt 0.14520770 0.49131599
vt 0.15116650 0.49131599
vt 0.92556828 0.90879732
vt 0.15712529 0.49131599
vt 0.93104070 0.90648681
vt 0.16308411 0.49131599
vt 0.93699950 0.90539223
vt 0.16904300 0.49131599
vt 0.94295829 0.90539223
vt 0.17500180 0.49131599
vt 0.94879550 0.90648681
vt 0.18096051 0.49131599
vt 0.95426792 0.90879732
vt 0.18691930 0.49131599
vt 0.95925379 0.91208071
vt 0.19287810 0.49131599
vt 0.00195312 0.49131599
vt 0.96351010 0.91633701
vt 0.96679348 0.92132300
vt 0.00791192 0.49131599
vt 0.96910411 0.92679530
vt 0.01387071 0.49131599
vt 0.97032023 0.93275410
vt 0.01982951 0.49131599
vt 0.97032023 0.93871301
vt 0.02578830 0.49131599
vt 0.96910411 0.94455010
vt 0.03174716 0.49131599
vt 0.03770595 0.49131599
vt 0.96679348 0.95002252
vt 0.04366475 0.49131599
vt 0.96351010 0.95500851
vt 0.04974514 0.49131599
vt 0.95925379 0.95926482
vt 0.05570399 0.49131599
vt 0.95426792 0.96254808
vt 0.06166279 0.49131599
vt 0.94879550 0.96485871
vt 0.93991810 0.93567270
vt 0.73002207 0.55540347
vt 0.18120369 0.47526360
vt 0.73002207 0.55540347
vt 0.73330557 0.55053908
vt 0.17524490 0.47526360
vt 0.18120369 0.46735910
vt 0.92702758 0.74486917
vt 0.92702758 0.74486917
vt 0.17524490 0.46735910
vt 0.92471713 0.73927528
vt 0.92471713 0.73927528
vt 0.73561609 0.54494518
vt 0.73561609 0.54494518
vt 0.16928610 0.47526360
vt 0.92362261 0.73343808
vt 0.16928610 0.46735910
vt 0.73671061 0.53910798
vt 0.73671061 0.53910798
vt 0.16332731 0.47526360
vt 0.16332731 0.46735910
vt 0.92362261 0.72747928
vt 0.73671061 0.53314918
vt 0.15724690 0.47526360
vt 0.15724690 0.46735910
vt 0.92471713 0.72164208
vt 0.73561609 0.52731198
vt 0.15128811 0.47526360
vt 0.15128811 0.46735910
vt 0.92702758 0.71604812
vt 0.14532930 0.47526360
vt 0.73330557 0.52171802
vt 0.93031102 0.71106219
vt 0.14532930 0.46735910
vt 0.73002207 0.51673210
vt 0.13937050 0.47526360
vt 0.13937050 0.46735910
vt 0.93456727 0.70692748
vt 0.72576582 0.51259738
vt 0.13341170 0.47526360
vt 0.93955332 0.70352250
vt 0.13341170 0.46735910
vt 0.12745290 0.47526360
vt 0.72077990 0.50919241
vt 0.94502562 0.70133352
vt 0.12745290 0.46735910
vt 0.94502562 0.70133352
vt 0.12149410 0.47526360
vt 0.71530747 0.50700343
vt 0.95086282 0.70011741
vt 0.95086282 0.70011741
vt 0.12149410 0.46735910
vt 0.70947027 0.50578731
vt 0.70947027 0.50578731
vt 0.11541370 0.47526360
vt 0.11541370 0.46735910
vt 0.95694327 0.70011741
vt 0.95694327 0.70011741
vt 0.70338988 0.50578731
vt 0.70338988 0.50578731
vt 0.10945490 0.47526360
vt 0.96278048 0.70133352
vt 0.10945490 0.46735910
vt 0.96278048 0.70133352
vt 0.69755268 0.50700343
vt 0.10349600 0.47526360
vt 0.69755268 0.50700343
vt 0.96825278 0.70352250
vt 0.10349600 0.46735910
vt 0.69208032 0.50919241
vt 0.69208032 0.50919241
vt 0.09753721 0.47526360
vt 0.09753721 0.46735910
vt 0.97323883 0.70692748
vt 0.68709439 0.51259738
vt 0.68709439 0.51259738
vt 0.09157842 0.47526360
vt 0.09157842 0.46735910
vt 0.97749507 0.71106219
vt 0.68283808 0.51673210
vt 0.08561962 0.47526360
vt 0.68283808 0.51673210
vt 0.98077852 0.71604812
vt 0.08561962 0.46735910
vt 0.98077852 0.71604812
vt 0.67955470 0.52171802
vt 0.67955470 0.52171802
vt 0.07966083 0.47526360
vt 0.98308903 0.72164208
vt 0.98308903 0.72164208
vt 0.07966083 0.46735910
vt 0.67724413 0.52731198
vt 0.07370203 0.47526360
vt 0.98418349 0.72747928
vt 0.98418349 0.72747928
vt 0.07370203 0.46735910
vt 0.06762158 0.47526360
vt 0.67614973 0.53314918
vt 0.98418349 0.73343808
vt 0.98418349 0.73343808
vt 0.06762158 0.46735910
vt 0.67614973 0.53910798
vt 0.06166279 0.47526360
vt 0.06166279 0.46735910
vt 0.98308903 0.73927528
vt 0.05570399 0.47526360
vt 0.67724413 0.54494518
vt 0.05570399 0.46735910
vt 0.98077852 0.74486917
vt 0.04974514 0.47526360
vt 0.67955470 0.55053908
vt 0.97749507 0.74973363
vt 0.04974514 0.46735910
vt 0.68283808 0.55540347
vt 0.04378634 0.47526360
vt 0.97323883 0.75398988
vt 0.04378634 0.46735910
vt 0.03782755 0.47526360
vt 0.68709439 0.55965978
vt 0.68709439 0.55965978
vt 0.03782755 0.46735910
vt 0.96825278 0.75727332
vt 0.69208032 0.56294322
vt 0.03186875 0.47526360
vt 0.69208032 0.56294322
vt 0.03186875 0.46735910
vt 0.96278048 0.75958389
vt 0.02578830 0.47526360
vt 0.69755268 0.56525368
vt 0.69755268 0.56525368
vt 0.02578830 0.46735910
vt 0.95694327 0.76080000
vt 0.70338988 0.56646991
vt 0.01982951 0.47526360
vt 0.95086282 0.76080000
vt 0.01982951 0.46735910
vt 0.95086282 0.76080000
vt 0.01387071 0.47526360
vt 0.70947027 0.56646991
vt 0.70643008 0.53606778
vt 0.70643008 0.53606778
vt 0.70643008 0.53606778
vt 0.70643008 0.53606778
vt 0.70643008 0.53606778
vt 0.70643008 0.53606778
vt 0.70643008 0.53606778
vt 0.70643008 0.53606778
vt 0.70643008 0.53606778
vt 0.70643008 0.53606778
vt 0.70643008 0.53606778
vt 0.72576582 0.55965978
vt 0.72576582 0.55965978
vt 0.18716259 0.47526360
vt 0.93031102 0.74973363
vt 0.18716259 0.46735910
vt 0.93031102 0.74973363
vt 0.95390302 0.73039788
vt 0.95390302 0.73039788
vt 0.95390302 0.73039788
vt 0.95390302 0.73039788
vt 0.95390302 0.73039788
vt 0.95390302 0.73039788
vt 0.95390302 0.73039788
vt 0.95390302 0.73039788
vt 0.95390302 0.73039788
vt 0.95390302 0.73039788
vt 0.95390302 0.73039788
vt 0.95390302 0.73039788
vt 0.94502562 0.75958389
vt 0.01387071 0.46735910
vt 0.94502562 0.75958389
vt 0.00791192 0.47526360
vt 0.71530747 0.56525368
vt 0.71530747 0.56525368
vt 0.00195312 0.47526360
vt 0.72077990 0.56294322
vt 0.19312140 0.47526360
vt 0.72077990 0.56294322
vt 0.00195312 0.46735910
vt 0.93456727 0.75398988
vt 0.93456727 0.75398988
vt 0.19312140 0.46735910
vt 0.93955332 0.75727332
vt 0.93955332 0.75727332
vt 0.00791192 0.46735910
vt 0.80979723 0.88532692
vt 0.55891931 0.67798472
vt 0.94149900 0.06118732
vt 0.94149900 0.06118732
vt 0.55891931 0.66716158
vt 0.81758010 0.88690782
vt 0.56694537 0.67798472
vt 0.93359452 0.06276822
vt 0.56694537 0.66716158
vt 0.82499820 0.88994801
vt 0.82499820 0.88994801
vt 0.57484990 0.67798472
vt 0.92629802 0.06580841
vt 0.92629802 0.06580841
vt 0.57484990 0.66716158
vt 0.58287609 0.67798472
vt 0.83168668 0.89432591
vt 0.83168668 0.89432591
vt 0.91960949 0.07030791
vt 0.58287609 0.66716158
vt 0.91960949 0.07030791
vt 0.59078062 0.67798472
vt 0.83728069 0.90004152
vt 0.83728069 0.90004152
vt 0.91401547 0.07590192
vt 0.59078062 0.66716158
vt 0.84165859 0.90660840
vt 0.84165859 0.90660840
vt 0.59880668 0.67798472
vt 0.90951598 0.08259034
vt 0.59880668 0.66716158
vt 0.84482038 0.91402638
vt 0.60683292 0.67798472
vt 0.90647578 0.08988684
vt 0.60683292 0.66716158
vt 0.61473751 0.67798472
vt 0.84627968 0.92180938
vt 0.61473751 0.66716158
vt 0.90489489 0.09779137
vt 0.84627968 0.92983550
vt 0.62276357 0.67798472
vt 0.90489489 0.10569590
vt 0.62276357 0.66716158
vt 0.90489489 0.10569590
vt 0.63066810 0.67798472
vt 0.84482038 0.93761838
vt 0.90647578 0.11347880
vt 0.90647578 0.11347880
vt 0.63066810 0.66716158
vt 0.63869429 0.67798472
vt 0.84165859 0.94503647
vt 0.90951598 0.12089690
vt 0.90951598 0.12089690
vt 0.63869429 0.66716158
vt 0.64672041 0.67798472
vt 0.83728069 0.95160341
vt 0.64672041 0.66716158
vt 0.91401547 0.12758540
vt 0.91401547 0.12758540
vt 0.65462500 0.67798472
vt 0.83168668 0.95731902
vt 0.91960949 0.13317940
vt 0.91960949 0.13317940
vt 0.65462500 0.66716158
vt 0.82499820 0.96169692
vt 0.66265112 0.67798472
vt 0.92629802 0.13767891
vt 0.92629802 0.13767891
vt 0.66265112 0.66716158
vt 0.81758010 0.96473712
vt 0.67055571 0.67798472
vt 0.67055571 0.66716158
vt 0.93359452 0.14071910
vt 0.67858177 0.67798472
vt 0.80979723 0.96631801
vt 0.67858177 0.66716158
vt 0.94149900 0.14217840
vt 0.94149900 0.14217840
vt 0.68660802 0.67798472
vt 0.80177110 0.96631801
vt 0.94940352 0.14217840
vt 0.94940352 0.14217840
vt 0.68660802 0.66716158
vt 0.69451249 0.67798472
vt 0.79398811 0.96473712
vt 0.79398811 0.96473712
vt 0.95730811 0.14071910
vt 0.69451249 0.66716158
vt 0.78669161 0.96169692
vt 0.78669161 0.96169692
vt 0.70253873 0.67798472
vt 0.96460462 0.13767891
vt 0.96460462 0.13767891
vt 0.70253873 0.66716158
vt 0.78000307 0.95731902
vt 0.71056479 0.67798472
vt 0.97129297 0.13317940
vt 0.71056479 0.66716158
vt 0.97129297 0.13317940
vt 0.71846932 0.67798472
vt 0.77440917 0.95160341
vt 0.97688699 0.12758540
vt 0.97688699 0.12758540
vt 0.71846932 0.66716158
vt 0.72649550 0.67798472
vt 0.76990968 0.94503647
vt 0.72649550 0.66716158
vt 0.98138660 0.12089690
vt 0.73439997 0.67798472
vt 0.76686943 0.93761838
vt 0.73439997 0.66716158
vt 0.98442668 0.11360040
vt 0.74242622 0.67798472
vt 0.76528847 0.92983550
vt 0.98600757 0.10569590
vt 0.98600757 0.10569590
vt 0.74242622 0.66716158
vt 0.76528847 0.92180938
vt 0.75045228 0.67798472
vt 0.98600757 0.09779137
vt 0.98600757 0.09779137
vt 0.75045228 0.66716158
vt 0.75835693 0.67798472
vt 0.76686943 0.91402638
vt 0.76686943 0.91402638
vt 0.75835693 0.66716158
vt 0.98442668 0.08988684
vt 0.98442668 0.08988684
vt 0.76638299 0.67798472
vt 0.76990968 0.90660840
vt 0.76990968 0.90660840
vt 0.76638299 0.66716158
vt 0.98138660 0.08259034
vt 0.98138660 0.08259034
vt 0.77428758 0.67798472
vt 0.77440917 0.90004152
vt 0.77428758 0.66716158
vt 0.97688699 0.07590192
vt 0.78000307 0.89432591
vt 0.78000307 0.89432591
vt 0.78231370 0.67798472
vt 0.97129297 0.07030791
vt 0.78231370 0.66716158
vt 0.94551212 0.10168280
vt 0.94551212 0.10168280
vt 0.94551212 0.10168280
vt 0.94551212 0.10168280
vt 0.94551212 0.10168280
vt 0.94551212 0.10168280
vt 0.94551212 0.10168280
vt 0.94551212 0.10168280
vt 0.94551212 0.10168280
vt 0.94551212 0.10168280
vt 0.94551212 0.10168280
vt 0.94551212 0.10168280
vt 0.94551212 0.10168280
vt 0.94940352 0.06118732
vt 0.55089313 0.66716158
vt 0.94940352 0.06118732
vt 0.55089313 0.67798472
vt 0.80177110 0.88532692
vt 0.80578411 0.92582238
vt 0.80578411 0.92582238
vt 0.80578411 0.92582238
vt 0.80578411 0.92582238
vt 0.80578411 0.92582238
vt 0.80578411 0.92582238
vt 0.80578411 0.92582238
vt 0.78669161 0.88994801
vt 0.78669161 0.88994801
vt 0.79033983 0.67798472
vt 0.79033983 0.66716158
vt 0.96460462 0.06580841
vt 0.79824442 0.66716158
vt 0.95730811 0.06276822
vt 0.95730811 0.06276822
vt 0.54298848 0.66716158
vt 0.54298848 0.67798472
vt 0.79398811 0.88690782
vt 0.79824442 0.67798472
vt 0.79398811 0.88690782
f 2/2/2 5/5/5 13/13/13
f 12/12/12 11/11/11 16/16/16
f 15/15/15 5/5/5 18/18/18
f 18/18/18 5/5/5 21/21/21
f 21/21/21 5/5/5 23/23/23
f 23/23/23 5/5/5 25/25/25
f 25/25/25 5/5/5 26/26/26
f 26/26/26 5/5/5 29/29/29
f 30/30/30 4/4/4 31/31/31
f 32/32/32 5/5/5 35/35/35
f 34/34/34 9/9/9 39/39/39
f 37/37/37 5/5/5 41/41/41
f 41/41/41 5/5/5 42/42/42
f 42/42/42 5/5/5 44/44/44
f 44/44/44 5/5/5 47/47/47
f 48/48/48 10/10/10 49/49/49
f 50/50/50 5/5/5 53/53/53
f 52/52/52 8/8/8 56/56/56
f 55/55/55 5/5/5 59/59/59
f 59/59/59 5/5/5 61/61/61
f 61/61/61 5/5/5 64/64/64
f 64/64/64 5/5/5 66/66/66
f 66/66/66 5/5/5 67/67/67
f 67/67/67 5/5/5 70/70/70
f 71/71/71 6/6/6 73/73/73
f 72/72/72 5/5/5 75/75/75
f 75/75/75 5/5/5 77/77/77
f 78/78/78 7/7/7 80/80/80
f 81/81/81 5/5/5 83/83/83
f 83/83/83 5/5/5 85/85/85
f 87/87/87 3/3/3 90/90/90
f 5/5/5 2/2/2 89/89/89
f 88/88/88 1/1/1 91/91/91
f 91/91/91 1/1/1 93/93/93
f 1/1/1 14/14/14 93/93/93
f 93/93/93 14/14/14 96/96/96
f 14/14/14 17/17/17 96/96/96
f 96/96/96 17/17/17 98/98/98
f 17/17/17 19/19/19 98/98/98
f 98/98/98 19/19/19 100/100/100
f 19/19/19 20/20/20 100/100/100
f 100/100/100 20/20/20 102/102/102
f 20/20/20 22/22/22 102/102/102
f 102/102/102 22/22/22 103/103/103
f 22/22/22 24/24/24 103/103/103
f 103/103/103 24/24/24 106/106/106
f 24/24/24 27/27/27 106/106/106
f 106/106/106 27/27/27 107/107/107
f 27/27/27 28/28/28 107/107/107
f 107/107/107 28/28/28 110/110/110
f 28/28/28 33/33/33 110/110/110
f 110/110/110 33/33/33 111/111/111
f 33/33/33 36/36/36 111/111/111
f 111/111/111 36/36/36 113/113/113
f 36/36/36 38/38/38 113/113/113
f 113/113/113 38/38/38 116/116/116
f 38/38/38 40/40/40 116/116/116
f 116/116/116 40/40/40 118/118/118
f 40/40/40 43/43/43 118/118/118
f 118/118/118 43/43/43 119/119/119
f 43/43/43 45/45/45 119/119/119
f 119/119/119 45/45/45 121/121/121
f 45/45/45 46/46/46 121/121/121
f 121/121/121 46/46/46 123/123/123
f 46/46/46 51/51/51 123/123/123
f 123/123/123 51/51/51 125/125/125
f 51/51/51 54/54/54 125/125/125
f 125/125/125 54/54/54 127/127/127
f 54/54/54 57/57/57 127/127/127
f 127/127/127 57/57/57 129/129/129
f 57/57/57 58/58/58 129/129/129
f 129/129/129 58/58/58 131/131/131
f 58/58/58 60/60/60 131/131/131
f 131/131/131 60/60/60 133/133/133
f 60/60/60 63/63/63 133/133/133
f 134/134/134 62/62/62 137/137/137
f 62/62/62 65/65/65 137/137/137
f 137/137/137 65/65/65 139/139/139
f 65/65/65 68/68/68 139/139/139
f 139/139/139 68/68/68 141/141/141
f 68/68/68 69/69/69 141/141/141
f 141/141/141 69/69/69 143/143/143
f 69/69/69 74/74/74 143/143/143
f 143/143/143 74/74/74 145/145/145
f 74/74/74 76/76/76 145/145/145
f 145/145/145 76/76/76 146/146/146
f 76/76/76 79/79/79 146/146/146
f 146/146/146 79/79/79 148/148/148
f 79/79/79 82/82/82 148/148/148
f 148/148/148 82/82/82 150/150/150
f 82/82/82 84/84/84 150/150/150
f 150/150/150 84/84/84 152/152/152
f 84/84/84 86/86/86 152/152/152
f 152/152/152 86/86/86 154/154/154
f 86/86/86 88/88/88 154/154/154
f 88/88/88 91/91/91 154/154/154
f 155/155/155 92/92/92 156/156/156
f 92/92/92 94/94/94 156/156/156
f 94/94/94 95/95/95 156/156/156
f 95/95/95 97/97/97 156/156/156
f 97/97/97 99/99/99 156/156/156
f 99/99/99 101/101/101 156/156/156
f 101/101/101 104/104/104 156/156/156
f 104/104/104 105/105/105 156/156/156
f 105/105/105 108/108/108 156/156/156
f 108/108/108 109/109/109 156/156/156
f 109/109/109 112/112/112 156/156/156
f 112/112/112 114/114/114 156/156/156
f 114/114/114 115/115/115 156/156/156
f 115/115/115 117/117/117 156/156/156
f 117/117/117 120/120/120 156/156/156
f 120/120/120 122/122/122 156/156/156
f 122/122/122 124/124/124 156/156/156
f 124/124/124 126/126/126 156/156/156
f 126/126/126 128/128/128 156/156/156
f 128/128/128 130/130/130 156/156/156
f 130/130/130 132/132/132 156/156/156
f 132/132/132 135/135/135 156/156/156
f 135/135/135 136/136/136 156/156/156
f 136/136/136 138/138/138 156/156/156
f 138/138/138 140/140/140 156/156/156
f 140/140/140 142/142/142 156/156/156
f 142/142/142 144/144/144 156/156/156
f 144/144/144 147/147/147 156/156/156
f 147/147/147 149/149/149 156/156/156
f 149/149/149 151/151/151 156/156/156
f 151/151/151 153/153/153 156/156/156
f 158/158/158 161/161/161 162/162/162
f 162/162/162 161/161/161 165/165/165
f 161/161/161 170/170/170 165/165/165
f 165/165/165 170/170/170 172/172/172
f 170/170/170 175/175/175 172/172/172
f 172/172/172 175/175/175 176/176/176
f 175/175/175 179/179/179 176/176/176
f 176/176/176 179/179/179 180/180/180
f 179/179/179 183/183/183 180/180/180
f 180/180/180 183/183/183 184/184/184
f 183/183/183 186/186/186 184/184/184
f 184/184/184 186/186/186 189/189/189
f 186/186/186 191/191/191 189/189/189
f 189/189/189 191/191/191 192/192/192
f 191/191/191 195/195/195 192/192/192
f 192/192/192 195/195/195 197/197/197
f 195/195/195 198/198/198 197/197/197
f 197/197/197 198/198/198 201/201/201
f 198/198/198 203/203/203 201/201/201
f 201/201/201 203/203/203 207/207/207
f 203/203/203 210/210/210 207/207/207
f 207/207/207 210/210/210 211/211/211
f 210/210/210 216/216/216 211/211/211
f 211/211/211 216/216/216 218/218/218
f 216/216/216 221/221/221 218/218/218
f 218/218/218 221/221/221 224/224/224
f 221/221/221 227/227/227 224/224/224
f 224/224/224 227/227/227 228/228/228
f 227/227/227 232/232/232 228/228/228
f 228/228/228 232/232/232 233/233/233
f 232/232/232 236/236/236 233/233/233
f 233/233/233 236/236/236 239/239/239
f 236/236/236 243/243/243 239/239/239
f 239/239/239 243/243/243 246/246/246
f 243/243/243 248/248/248 246/246/246
f 246/246/246 248/248/248 251/251/251
f 248/248/248 252/252/252 251/251/251
f 251/251/251 252/252/252 256/256/256
f 252/252/252 258/258/258 256/256/256
f 256/256/256 258/258/258 259/259/259
f 258/258/258 261/261/261 259/259/259
f 259/259/259 261/261/261 263/263/263
f 261/261/261 265/265/265 263/263/263
f 263/263/263 265/265/265 268/268/268
f 265/265/265 270/270/270 268/268/268
f 268/268/268 270/270/270 272/272/272
f 270/270/270 273/273/273 272/272/272
f 272/272/272 273/273/273 276/276/276
f 273/273/273 279/279/279 276/276/276
f 276/276/276 279/279/279 281/281/281
f 279/279/279 283/283/283 281/281/281
f 281/281/281 283/283/283 286/286/286
f 283/283/283 289/289/289 286/286/286
f 286/286/286 289/289/289 291/291/291
f 291/291/291 289/289/289 293/293/293
f 294/294/294 288/288/288 304/304/304
f 288/288/288 284/284/284 304/304/304
f 285/285/285 278/278/278 297/297/297
f 280/280/280 274/274/274 298/298/298
f 275/275/275 269/269/269 304/304/304
f 269/269/269 266/266/266 304/304/304
f 266/266/266 262/262/262 304/304/304
f 262/262/262 257/257/257 304/304/304
f 257/257/257 253/253/253 304/304/304
f 253/253/253 247/247/247 304/304/304
f 247/247/247 242/242/242 304/304/304
f 241/241/241 235/235/235 299/299/299
f 237/237/237 231/231/231 304/304/304
f 230/230/230 226/226/226 301/301/301
f 225/225/225 222/222/222 303/303/303
f 220/220/220 214/214/214 304/304/304
f 215/215/215 209/209/209 295/295/295
f 208/208/208 204/204/204 304/304/304
f 204/204/204 199/199/199 304/304/304
f 199/199/199 194/194/194 304/304/304
f 194/194/194 190/190/190 304/304/304
f 190/190/190 187/187/187 304/304/304
f 187/187/187 182/182/182 304/304/304
f 182/182/182 178/178/178 304/304/304
f 178/178/178 174/174/174 304/304/304
f 173/173/173 168/168/168 305/305/305
f 169/169/169 160/160/160 304/304/304
f 160/160/160 157/157/157 304/304/304
f 302/302/302 159/159/159 307/307/307
f 308/308/308 158/158/158 310/310/310
f 158/158/158 162/162/162 310/310/310
f 311/311/311 164/164/164 319/319/319
f 163/163/163 167/167/167 316/316/316
f 166/166/166 171/171/171 319/319/319
f 171/171/171 177/177/177 319/319/319
f 177/177/177 181/181/181 319/319/319
f 181/181/181 185/185/185 319/319/319
f 185/185/185 188/188/188 319/319/319
f 188/188/188 193/193/193 319/319/319
f 193/193/193 196/196/196 319/319/319
f 196/196/196 202/202/202 319/319/319
f 200/200/200 206/206/206 320/320/320
f 205/205/205 213/213/213 317/317/317
f 212/212/212 219/219/219 315/315/315
f 217/217/217 223/223/223 319/319/319
f 223/223/223 229/229/229 319/319/319
f 229/229/229 234/234/234 319/319/319
f 234/234/234 240/240/240 319/319/319
f 238/238/238 244/244/244 314/314/314
f 245/245/245 249/249/249 313/313/313
f 250/250/250 254/254/254 312/312/312
f 255/255/255 260/260/260 319/319/319
f 260/260/260 264/264/264 319/319/319
f 264/264/264 267/267/267 319/319/319
f 267/267/267 271/271/271 319/319/319
f 271/271/271 277/277/277 319/319/319
f 277/277/277 282/282/282 319/319/319
f 282/282/282 287/287/287 319/319/319
f 287/287/287 290/290/290 319/319/319
f 318/318/318 292/292/292 324/324/324
f 291/291/291 293/293/293 325/325/325
f 325/325/325 293/293/293 327/327/327
f 294/294/294 304/304/304 328/328/328
f 329/329/329 300/300/300 333/333/333
f 296/296/296 306/306/306 331/331/331
f 332/332/332 308/308/308 337/337/337
f 308/308/308 310/310/310 337/337/337
f 309/309/309 321/321/321 336/336/336
f 335/335/335 322/322/322 338/338/338
f 323/323/323 326/326/326 339/339/339
f 325/325/325 327/327/327 340/340/340
f 327/327/327 330/330/330 340/340/340
f 342/342/342 345/345/345 347/347/347
f 345/345/345 349/349/349 347/347/347
f 347/347/347 349/349/349 352/352/352
f 349/349/349 355/355/355 352/352/352
f 352/352/352 355/355/355 356/356/356
f 355/355/355 360/360/360 356/356/356
f 356/356/356 360/360/360 362/362/362
f 360/360/360 366/366/366 362/362/362
f 362/362/362 366/366/366 369/369/369
f 366/366/366 371/371/371 369/369/369
f 369/369/369 371/371/371 373/373/373
f 371/371/371 375/375/375 373/373/373
f 373/373/373 375/375/375 376/376/376
f 375/375/375 378/378/378 376/376/376
f 376/376/376 378/378/378 381/381/381
f 378/378/378 383/383/383 381/381/381
f 381/381/381 383/383/383 385/385/385
f 383/383/383 389/389/389 385/385/385
f 385/385/385 389/389/389 390/390/390
f 389/389/389 394/394/394 390/390/390
f 390/390/390 394/394/394 395/395/395
f 394/394/394 397/397/397 395/395/395
f 395/395/395 397/397/397 400/400/400
f 397/397/397 404/404/404 400/400/400
f 400/400/400 404/404/404 406/406/406
f 404/404/404 409/409/409 406/406/406
f 406/406/406 409/409/409 411/411/411
f 409/409/409 412/412/412 411/411/411
f 411/411/411 412/412/412 414/414/414
f 412/412/412 416/416/416 414/414/414
f 414/414/414 416/416/416 419/419/419
f 416/416/416 423/423/423 419/419/419
f 419/419/419 423/423/423 424/424/424
f 423/423/423 428/428/428 424/424/424
f 424/424/424 428/428/428 431/431/431
f 428/428/428 434/434/434 431/431/431
f 431/431/431 434/434/434 436/436/436
f 434/434/434 438/438/438 436/436/436
f 436/436/436 438/438/438 440/440/440
f 438/438/438 444/444/444 440/440/440
f 440/440/440 444/444/444 445/445/445
f 444/444/444 447/447/447 445/445/445
f 445/445/445 447/447/447 449/449/449
f 447/447/447 451/451/451 449/449/449
f 449/449/449 451/451/451 453/453/453
f 451/451/451 457/457/457 453/453/453
f 453/453/453 457/457/457 459/459/459
f 457/457/457 462/462/462 459/459/459
f 459/459/459 462/462/462 463/463/463
f 462/462/462 466/466/466 463/463/463
f 463/463/463 466/466/466 469/469/469
f 466/466/466 472/472/472 469/469/469
f 469/469/469 472/472/472 475/475/475
f 472/472/472 477/477/477 475/475/475
f 475/475/475 477/477/477 481/481/481
f 481/481/481 477/477/477 483/483/483
f 482/482/482 478/478/478 486/486/486
f 478/478/478 474/474/474 486/486/486
f 473/473/473 468/468/468 489/489/489
f 467/467/467 460/460/460 486/486/486
f 461/461/461 456/456/456 491/491/491
f 455/455/455 452/452/452 486/486/486
f 452/452/452 448/448/448 486/486/486
f 448/448/448 443/443/443 486/486/486
f 442/442/442 439/439/439 492/492/492
f 437/437/437 432/432/432 496/496/496
f 433/433/433 427/427/427 486/486/486
f 427/427/427 422/422/422 486/486/486
f 421/421/421 418/418/418 495/495/495
f 417/417/417 413/413/413 486/486/486
f 413/413/413 408/408/408 486/486/486
f 407/407/407 403/403/403 493/493/493
f 402/402/402 398/398/398 490/490/490
f 399/399/399 392/392/392 486/486/486
f 393/393/393 387/387/387 488/488/488
f 388/388/388 382/382/382 487/487/487
f 384/384/384 379/379/379 486/486/486
f 379/379/379 374/374/374 486/486/486
f 374/374/374 370/370/370 486/486/486
f 370/370/370 365/365/365 486/486/486
f 365/365/365 361/361/361 486/486/486
f 359/359/359 353/353/353 494/494/494
f 354/354/354 348/348/348 486/486/486
f 348/348/348 343/343/343 486/486/486
f 484/484/484 344/344/344 497/497/497
f 345/345/345 342/342/342 498/498/498
f 498/498/498 342/342/342 500/500/500
f 501/501/501 341/341/341 504/504/504
f 341/341/341 346/346/346 504/504/504
f 346/346/346 351/351/351 504/504/504
f 350/350/350 357/357/357 506/506/506
f 358/358/358 363/363/363 504/504/504
f 364/364/364 368/368/368 505/505/505
f 367/367/367 372/372/372 504/504/504
f 372/372/372 377/377/377 504/504/504
f 377/377/377 380/380/380 504/504/504
f 380/380/380 386/386/386 504/504/504
f 386/386/386 391/391/391 504/504/504
f 391/391/391 396/396/396 504/504/504
f 396/396/396 401/401/401 504/504/504
f 401/401/401 405/405/405 504/504/504
f 405/405/405 410/410/410 504/504/504
f 410/410/410 415/415/415 504/504/504
f 415/415/415 420/420/420 504/504/504
f 420/420/420 425/425/425 504/504/504
f 426/426/426 430/430/430 503/503/503
f 429/429/429 435/435/435 504/504/504
f 435/435/435 441/441/441 504/504/504
f 441/441/441 446/446/446 504/504/504
f 446/446/446 450/450/450 504/504/504
f 450/450/450 454/454/454 504/504/504
f 454/454/454 458/458/458 504/504/504
f 458/458/458 464/464/464 504/504/504
f 465/465/465 470/470/470 507/507/507
f 471/471/471 476/476/476 504/504/504
f 476/476/476 480/480/480 504/504/504
f 502/502/502 479/479/479 510/510/510
f 481/481/481 483/483/483 511/511/511
f 511/511/511 483/483/483 512/512/512
f 482/482/482 486/486/486 513/513/513
f 513/513/513 486/486/486 516/516/516
f 485/485/485 499/499/499 515/515/515
f 498/498/498 500/500/500 517/517/517
f 517/517/517 500/500/500 518/518/518
f 501/501/501 504/504/504 521/521/521
f 508/508/508 509/509/509 519/519/519
f 511/511/511 512/512/512 520/520/520
f 514/514/514 520/520/520 512/512/512
f 334/334/334 340/340/340 330/330/330
f 155/155/155 156/156/156 153/153/153

