mtllib GraniteTable.mtl
usemtl Material.003
v 0.99999994 0.60000014 0.00500000
v 0.99999994 0.60000014 0.00500000
v 0.99999994 0.60000014 0.00500000
v -1.00000012 0.59999991 0.00000000
v -1.00000012 0.59999991 0.00000000
v -1.00000012 0.59999991 0.00000000
v -1.00000012 0.59999991 0.00500000
v -1.00000012 0.59999991 0.00500000
v -1.00000012 0.59999991 0.00500000
v 0.99999994 0.60000014 0.00000000
v 0.99999994 0.60000014 0.00000000
v 0.99999994 0.60000014 0.00000000
v -0.99999994 -0.60000014 0.00000000
v -0.99999994 -0.60000014 0.00000000
v -0.99999994 -0.60000014 0.00000000
v -0.99999994 -0.60000014 0.00500000
v -0.99999994 -0.60000014 0.00500000
v -0.99999994 -0.60000014 0.00500000
v 1.00000012 -0.59999991 0.00000000
v 1.00000012 -0.59999991 0.00000000
v 1.00000012 -0.59999991 0.00000000
v 1.00000012 -0.59999991 0.00500000
v 1.00000012 -0.59999991 0.00500000
v 1.00000012 -0.59999991 0.00500000
v 0.99999976 1.49000025 0.00500000
v 0.99999976 1.49000025 0.00500000
v 0.99999976 1.49000025 0.00500000
v -1.00000012 1.48999989 0.00000000
v -1.00000012 1.48999989 0.00000000
v -1.00000012 1.48999989 0.00000000
v -1.00000012 1.48999989 0.00500000
v -1.00000012 1.48999989 0.00500000
v -1.00000012 1.48999989 0.00500000
v 0.99999976 1.49000025 0.00000000
v 0.99999976 1.49000025 0.00000000
v 0.99999976 1.49000025 0.00000000
v -1.00000012 0.88999987 0.00500000
v -1.00000012 0.88999987 0.00500000
v -1.00000012 0.88999987 0.00500000
v -1.00000012 0.88999987 0.00000000
v -1.00000012 0.88999987 0.00000000
v -1.00000012 0.88999987 0.00000000
v 0.99999982 0.89000022 0.00000000
v 0.99999982 0.89000022 0.00000000
v 0.99999982 0.89000022 0.00000000
v 0.99999982 0.89000022 0.00500000
v 0.99999982 0.89000022 0.00500000
v 0.99999982 0.89000022 0.00500000
v 1.00000012 -1.48999989 0.00000000
v 1.00000012 -1.48999989 0.00000000
v 1.00000012 -1.48999989 0.00000000
v -0.99999976 -1.49000025 0.00500000
v -0.99999976 -1.49000025 0.00500000
v -0.99999976 -1.49000025 0.00500000
v -0.99999976 -1.49000025 0.00000000
v -0.99999976 -1.49000025 0.00000000
v -0.99999976 -1.49000025 0.00000000
v 1.00000012 -1.48999989 0.00500000
v 1.00000012 -1.48999989 0.00500000
v 1.00000012 -1.48999989 0.00500000
v -0.99999982 -0.89000022 0.00000000
v -0.99999982 -0.89000022 0.00000000
v -0.99999982 -0.89000022 0.00000000
v -0.99999982 -0.89000022 0.00500000
v -0.99999982 -0.89000022 0.00500000
v -0.99999982 -0.89000022 0.00500000
v 1.00000012 -0.88999987 0.00500000
v 1.00000012 -0.88999987 0.00500000
v 1.00000012 -0.88999987 0.00500000
v 1.00000012 -0.88999987 0.00000000
v 1.00000012 -0.88999987 0.00000000
v 1.00000012 -0.88999987 0.00000000
vn -0.00000013 1.00000000 0.00000000
vn 0.00000000 -0.00000000 1.00000000
vn 1.00000000 0.00000013 0.00000000
vn -0.00000000 -0.00000000 -1.00000000
vn -0.00000013 1.00000000 0.00000000
vn -1.00000000 -0.00000013 0.00000000
vn 0.00000000 -0.00000000 1.00000000
vn -0.00000013 1.00000000 0.00000000
vn -1.00000000 -0.00000013 0.00000000
vn 1.00000000 0.00000013 0.00000000
vn -0.00000000 -0.00000000 -1.00000000
vn -0.00000013 1.00000000 0.00000000
vn 0.00000013 -1.00000000 0.00000000
vn -0.00000000 -0.00000000 -1.00000000
vn -1.00000000 -0.00000013 0.00000000
vn 0.00000013 -1.00000000 0.00000000
vn 0.00000000 -0.00000000 1.00000000
vn -1.00000000 -0.00000013 0.00000000
vn 0.00000013 -1.00000000 0.00000000
vn -0.00000000 -0.00000000 -1.00000000
vn 1.00000000 0.00000013 0.00000000
vn 1.00000000 0.00000013 0.00000000
vn 0.00000013 -1.00000000 0.00000000
vn 0.00000000 -0.00000000 1.00000000
vn -0.00000013 1.00000000 0.00000000
vn 1.00000000 0.00000013 0.00000000
vn 0.00000000 -0.00000000 1.00000000
vn -0.00000000 -0.00000000 -1.00000000
vn -0.00000013 1.00000000 0.00000000
vn -1.00000000 -0.00000013 0.00000000
vn 0.00000000 -0.00000000 1.00000000
vn -0.00000013 1.00000000 0.00000000
vn -1.00000000 -0.00000013 0.00000000
vn 1.00000000 0.00000013 0.00000000
vn -0.00000000 -0.00000000 -1.00000000
vn -0.00000013 1.00000000 0.00000000
vn 0.00000000 -0.00000000 1.00000000
vn 0.00000013 -1.00000000 0.00000000
vn -1.00000000 -0.00000013 0.00000000
vn 0.00000013 -1.00000000 0.00000000
vn -1.00000000 -0.00000013 0.00000000
vn -0.00000000 -0.00000000 -1.00000000
vn 0.00000013 -1.00000000 0.00000000
vn 1.00000000 0.00000013 0.00000000
vn -0.00000000 -0.00000000 -1.00000000
vn 0.00000013 -1.00000000 0.00000000
vn 1.00000000 0.00000013 0.00000000
vn 0.00000000 -0.00000000 1.00000000
vn 0.00000013 -1.00000000 0.00000000
vn 1.00000000 0.00000013 0.00000000
vn -0.00000000 -0.00000000 -1.00000000
vn 0.00000013 -1.00000000 0.00000000
vn 0.00000000 -0.00000000 1.00000000
vn -1.00000000 -0.00000013 0.00000000
vn 0.00000013 -1.00000000 0.00000000
vn -0.00000000 -0.00000000 -1.00000000
vn -1.00000000 -0.00000013 0.00000000
vn 0.00000013 -1.00000000 0.00000000
vn 1.00000000 0.00000013 0.00000000
vn 0.00000000 -0.00000000 1.00000000
vn -0.00000000 -0.00000000 -1.00000000
vn -1.00000000 -0.00000013 0.00000000
vn -0.00000013 1.00000000 0.00000000
vn 0.00000000 -0.00000000 1.00000000
vn -1.00000000 -0.00000013 0.00000000
vn -0.00000013 1.00000000 0.00000000
vn 0.00000000 -0.00000000 1.00000000
vn 1.00000000 0.00000013 0.00000000
vn -0.00000013 1.00000000 0.00000000
vn 1.00000000 0.00000013 0.00000000
vn -0.00000013 1.00000000 0.00000000
vn -0.00000000 -0.00000000 -1.00000000
f 1//1 5//5 8//8
f 1//1 12//12 5//5
f 9//9 15//15 18//18
f 6//6 15//15 9//9
f 16//16 19//19 23//23
f 16//16 13//13 19//19
f 10//10 22//22 21//21
f 3//3 22//22 10//10
f 7//7 17//17 24//24
f 7//7 24//24 2//2
f 4//4 20//20 14//14
f 4//4 11//11 20//20
f 25//25 29//29 32//32
f 25//25 36//36 29//29
f 30//30 39//39 33//33
f 30//30 41//41 39//39
f 38//38 43//43 46//46
f 38//38 40//40 43//43
f 26//26 47//47 44//44
f 26//26 44//44 34//34
f 31//31 37//37 48//48
f 31//31 48//48 27//27
f 28//28 45//45 42//42
f 28//28 35//35 45//45
f 49//49 52//52 55//55
f 49//49 58//58 52//52
f 54//54 62//62 57//57
f 54//54 65//65 62//62
f 63//63 69//69 71//71
f 63//63 66//66 69//69
f 50//50 70//70 68//68
f 50//50 68//68 59//59
f 56//56 61//61 72//72
f 56//56 72//72 51//51
f 53//53 67//67 64//64
f 53//53 60//60 67//67

