mtllib GraniteTable.mtl
usemtl Material.001
v -1.00000024 1.49999988 0.70499998
v -1.00000024 1.49999988 0.70499998
v -1.00000024 1.49999988 0.70499998
v 0.99999982 1.50000012 0.70499998
v 0.99999982 1.50000012 0.70499998
v 0.99999982 1.50000012 0.70499998
v 0.99999982 1.50000012 0.65500003
v 0.99999982 1.50000012 0.65500003
v 0.99999982 1.50000012 0.65500003
v -1.00000024 1.49999988 0.65500003
v -1.00000024 1.49999988 0.65500003
v -1.00000024 1.49999988 0.65500003
v -0.99999982 -1.50000012 0.70499998
v -0.99999982 -1.50000012 0.70499998
v -0.99999982 -1.50000012 0.70499998
v -0.99999982 -1.50000012 0.65500003
v -0.99999982 -1.50000012 0.65500003
v -0.99999982 -1.50000012 0.65500003
v 1.00000024 -1.49999988 0.70499998
v 1.00000024 -1.49999988 0.70499998
v 1.00000024 -1.49999988 0.70499998
v 1.00000024 -1.49999988 0.65500003
v 1.00000024 -1.49999988 0.65500003
v 1.00000024 -1.49999988 0.65500003
vn -0.00000013 1.00000000 0.00000000
vn 0.00000000 -0.00000000 1.00000000
vn -1.00000000 -0.00000013 0.00000000
vn -0.00000013 1.00000000 0.00000000
vn 0.00000000 -0.00000000 1.00000000
vn 1.00000000 0.00000013 0.00000000
vn 1.00000000 0.00000013 0.00000000
vn -0.00000000 -0.00000000 -1.00000000
vn -0.00000013 1.00000000 0.00000000
vn -1.00000000 -0.00000013 0.00000000
vn -0.00000000 -0.00000000 -1.00000000
vn -0.00000013 1.00000000 0.00000000
vn 0.00000013 -1.00000000 0.00000000
vn -1.00000000 -0.00000013 0.00000000
vn 0.00000000 -0.00000000 1.00000000
vn 0.00000013 -1.00000000 0.00000000
vn -0.00000000 -0.00000000 -1.00000000
vn -1.00000000 -0.00000013 0.00000000
vn 0.00000000 -0.00000000 1.00000000
vn 1.00000000 0.00000013 0.00000000
vn 0.00000013 -1.00000000 0.00000000
vn 0.00000013 -1.00000000 0.00000000
vn 1.00000000 0.00000013 0.00000000
vn -0.00000000 -0.00000000 -1.00000000
f 1//1 4//4 9//9
f 1//1 9//9 12//12
f 10//10 14//14 3//3
f 10//10 18//18 14//14
f 16//16 21//21 13//13
f 16//16 22//22 21//21
f 6//6 20//20 23//23
f 6//6 23//23 7//7
f 2//2 15//15 19//19
f 2//2 19//19 5//5
f 11//11 24//24 17//17
f 11//11 8//8 24//24

