mtllib GraniteTable.mtl
usemtl Material.002
v 0.99999982 1.50000012 0.65499997
v 0.99999982 1.50000012 0.65499997
v 0.99999982 1.50000012 0.65499997
v -1.00000024 1.49999988 0.34549999
v -1.00000024 1.49999988 0.34549999
v -1.00000024 1.49999988 0.34549999
v -1.00000024 1.49999988 0.65499997
v -1.00000024 1.49999988 0.65499997
v -1.00000024 1.49999988 0.65499997
v 0.99999982 1.50000012 0.34549999
v 0.99999982 1.50000012 0.34549999
v 0.99999982 1.50000012 0.34549999
v -0.99999982 -1.50000012 0.34549999
v -0.99999982 -1.50000012 0.34549999
v -0.99999982 -1.50000012 0.34549999
v -0.99999982 -1.50000012 0.65499997
v -0.99999982 -1.50000012 0.65499997
v -0.99999982 -1.50000012 0.65499997
v 1.00000024 -1.49999988 0.34549999
v 1.00000024 -1.49999988 0.34549999
v 1.00000024 -1.49999988 0.34549999
v 1.00000024 -1.49999988 0.65499997
v 1.00000024 -1.49999988 0.65499997
v 1.00000024 -1.49999988 0.65499997
vn -0.00000013 1.00000000 0.00000000
vn 1.00000000 0.00000013 0.00000000
vn 0.00000000 -0.00000000 1.00000000
vn -0.00000013 1.00000000 0.00000000
vn -0.00000000 -0.00000000 -1.00000000
vn -1.00000000 -0.00000013 0.00000000
vn 0.00000000 -0.00000000 1.00000000
vn -1.00000000 -0.00000013 0.00000000
vn -0.00000013 1.00000000 0.00000000
vn -0.00000000 -0.00000000 -1.00000000
vn -0.00000013 1.00000000 0.00000000
vn 1.00000000 0.00000013 0.00000000
vn -0.00000000 -0.00000000 -1.00000000
vn -1.00000000 -0.00000013 0.00000000
vn 0.00000013 -1.00000000 0.00000000
vn -1.00000000 -0.00000013 0.00000000
vn 0.00000013 -1.00000000 0.00000000
vn 0.00000000 -0.00000000 1.00000000
vn -0.00000000 -0.00000000 -1.00000000
vn 1.00000000 0.00000013 0.00000000
vn 0.00000013 -1.00000000 0.00000000
vn 0.00000000 -0.00000000 1.00000000
vn 1.00000000 0.00000013 0.00000000
vn 0.00000013 -1.00000000 0.00000000
f 1//1 4//4 9//9
f 1//1 11//11 4//4
f 8//8 14//14 16//16
f 6//6 14//14 8//8
f 17//17 21//21 24//24
f 17//17 15//15 21//21
f 12//12 23//23 20//20
f 2//2 23//23 12//12
f 7//7 18//18 22//22
f 7//7 22//22 3//3
f 5//5 19//19 13//13
f 5//5 10//10 19//19

