mtllib shoulder.mtl
usemtl Rubber_Black_002_COLOR_0
v -0.07354465 0.10900471 -0.01470569
v -0.07354465 0.10900471 -0.01470569
v -0.07500973 0.10900471 -0.00007279
v -0.07500973 0.10900471 -0.00007279
v -0.00000462 0.10900474 -0.00028339
v -0.00000462 0.10900474 -0.00028339
v -0.00000462 0.10900474 -0.00028339
v -0.00000462 0.10900474 -0.00028339
v -0.00000462 0.10900474 -0.00028339
v -0.00000462 0.10900474 -0.00028339
v -0.00000462 0.10900474 -0.00028339
v -0.00000462 0.10900474 -0.00028339
v -0.00000462 0.10900474 -0.00028339
v -0.00000462 0.10900474 -0.00028339
v -0.00000462 0.10900474 -0.00028339
v -0.00000462 0.10900474 -0.00028339
v -0.00000462 0.10900474 -0.00028339
v -0.07359042 0.10900471 0.01456931
v -0.07359042 0.10900471 0.01456931
v -0.06935074 0.10900471 0.02864361
v -0.06935074 0.10900471 0.02864361
v -0.06244626 0.10900471 0.04162830
v -0.06244626 0.10900471 0.04162830
v -0.05313357 0.10900472 0.05301051
v -0.05313357 0.10900472 0.05301051
v -0.05313357 0.10900472 0.05301051
v -0.04177889 0.10900472 0.06234150
v -0.04177889 0.10900472 0.06234150
v -0.04177889 0.10900472 0.06234150
v -0.02883091 0.10900473 0.06930999
v -0.02883091 0.10900473 0.06930999
v -0.02883091 0.10900473 0.06930999
v -0.01476565 0.10899553 0.07360472
v -0.01476565 0.10899553 0.07360472
v -0.01476565 0.10899553 0.07360472
v -0.00000462 0.10899553 0.07506971
v -0.00000462 0.10899553 0.07506971
v -0.00000462 0.10899553 0.07506971
v 0.01476559 0.10899554 0.07360472
v 0.01476559 0.10899554 0.07360472
v 0.01476559 0.10899554 0.07360472
v 0.02883079 0.10900474 0.06930999
v 0.02883079 0.10900474 0.06930999
v 0.02883079 0.10900474 0.06930999
v 0.04177883 0.10900475 0.06234150
v 0.04177883 0.10900475 0.06234150
v 0.04177883 0.10900475 0.06234150
v 0.05313351 0.10900475 0.05301051
v 0.05313351 0.10900475 0.05301051
v 0.05313351 0.10900475 0.05301051
v 0.06244620 0.10900476 0.04162830
v 0.06244620 0.10900476 0.04162830
v 0.06244620 0.10900476 0.04162830
v 0.06935062 0.10900476 0.02864361
v 0.06935062 0.10900476 0.02864361
v 0.06935062 0.10900476 0.02864361
v 0.07359036 0.10900476 0.01456931
v 0.07359036 0.10900476 0.01456931
v 0.07359036 0.10900476 0.01456931
v 0.07500967 0.10900476 -0.00007279
v 0.07500967 0.10900476 -0.00007279
v 0.07500967 0.10900476 -0.00007279
v 0.07354459 0.10900476 -0.01470569
v 0.07354459 0.10900476 -0.01470569
v 0.07354459 0.10900476 -0.01470569
v 0.06924989 0.10900476 -0.02876170
v 0.06924989 0.10900476 -0.02876170
v 0.06229051 0.10900476 -0.04171890
v 0.06229051 0.10900476 -0.04171890
v 0.05294129 0.10900475 -0.05307360
v 0.05294129 0.10900475 -0.05307360
v 0.04155907 0.10900475 -0.06237710
v 0.04155907 0.10900475 -0.06237710
v 0.02854689 0.10900474 -0.06919910
v 0.02854689 0.10900474 -0.06919910
v 0.02854689 0.10900474 -0.06919910
v 0.01445427 0.10900474 -0.07331069
v 0.01445427 0.10900474 -0.07331069
v 0.01445427 0.10900474 -0.07331069
v -0.00000462 0.10900474 -0.07475740
v -0.00000462 0.10900474 -0.07475740
v -0.00000462 0.10900474 -0.07475740
v -0.01445439 0.10900473 -0.07331069
v -0.01445439 0.10900473 -0.07331069
v -0.02854695 0.10900473 -0.06919910
v -0.02854695 0.10900473 -0.06919910
v -0.04155913 0.10900472 -0.06237710
v -0.04155913 0.10900472 -0.06237710
v -0.05294135 0.10900472 -0.05307360
v -0.05294135 0.10900472 -0.05307360
v -0.05294135 0.10900472 -0.05307360
v -0.05294134 0.08900582 -0.05307360
v -0.05294134 0.08900582 -0.05307360
v -0.04155913 0.08900582 -0.06237710
v -0.04155913 0.08900582 -0.06237710
v -0.02854695 0.08900583 -0.06919910
v -0.02854695 0.08900583 -0.06919910
v -0.01445439 0.08900583 -0.07331069
v -0.01445439 0.08900583 -0.07331069
v -0.00000461 0.08900584 -0.07475740
v -0.00000461 0.08900584 -0.07475740
v -0.00000461 0.08900584 -0.07475740
v 0.01445427 0.08900584 -0.07331069
v 0.01445427 0.08900584 -0.07331069
v 0.01445427 0.08900584 -0.07331069
v 0.02854689 0.08900584 -0.06919910
v 0.02854689 0.08900584 -0.06919910
v 0.02854689 0.08900584 -0.06919910
v 0.04155907 0.08900585 -0.06237710
v 0.04155907 0.08900585 -0.06237710
v 0.05294129 0.08900585 -0.05307360
v 0.05294129 0.08900585 -0.05307360
v 0.06229052 0.08900586 -0.04171890
v 0.06229052 0.08900586 -0.04171890
v 0.06924989 0.08900586 -0.02876170
v 0.06924989 0.08900586 -0.02876170
v 0.07354459 0.08900586 -0.01470569
v 0.07354459 0.08900586 -0.01470569
v 0.07500967 0.08900586 -0.00007279
v 0.07500967 0.08900586 -0.00007279
v 0.07359036 0.08900586 0.01456931
v 0.07359036 0.08900586 0.01456931
v 0.07359036 0.08900586 0.01456931
v 0.06935062 0.08899668 0.02864361
v 0.06935062 0.08899668 0.02864361
v 0.06935062 0.08899668 0.02864361
v 0.06244620 0.08899668 0.04162830
v 0.06244620 0.08899668 0.04162830
v 0.06244620 0.08899668 0.04162830
v 0.05313351 0.08899667 0.05301051
v 0.05313351 0.08899667 0.05301051
v 0.05313351 0.08899667 0.05301051
v 0.04177883 0.08899667 0.06234150
v 0.04177883 0.08899667 0.06234150
v 0.04177883 0.08899667 0.06234150
v 0.02883079 0.08899666 0.06930999
v 0.02883079 0.08899666 0.06930999
v 0.02883079 0.08899666 0.06930999
v 0.01476559 0.08899666 0.07360472
v 0.01476559 0.08899666 0.07360472
v 0.01476559 0.08899666 0.07360472
v -0.00000461 0.08899666 0.07506971
v -0.00000461 0.08899666 0.07506971
v -0.00000461 0.08899666 0.07506971
v -0.01476565 0.08899665 0.07360472
v -0.01476565 0.08899665 0.07360472
v -0.01476565 0.08899665 0.07360472
v -0.02883091 0.08899665 0.06930999
v -0.02883091 0.08899665 0.06930999
v -0.02883091 0.08899665 0.06930999
v -0.04177888 0.08899664 0.06234150
v -0.04177888 0.08899664 0.06234150
v -0.04177888 0.08899664 0.06234150
v -0.05313357 0.08899664 0.05301051
v -0.05313357 0.08899664 0.05301051
v -0.05313357 0.08899664 0.05301051
v -0.06244626 0.08899663 0.04162830
v -0.06244626 0.08899663 0.04162830
v -0.06244626 0.08899663 0.04162830
v -0.06935074 0.08899663 0.02864361
v -0.06935074 0.08899663 0.02864361
v -0.06935074 0.08899663 0.02864361
v -0.07359042 0.08900581 0.01456931
v -0.07359042 0.08900581 0.01456931
v -0.07359042 0.08900581 0.01456931
v -0.07500973 0.08900581 -0.00007279
v -0.07500973 0.08900581 -0.00007279
v -0.07500973 0.08900581 -0.00007279
v -0.07354465 0.08900581 -0.01470569
v -0.07354465 0.08900581 -0.01470569
v -0.07354465 0.08900581 -0.01470569
v -0.06925001 0.10900471 -0.02876170
v -0.06925001 0.10900471 -0.02876170
v -0.06229058 0.10900471 -0.04171890
v -0.06229058 0.10900471 -0.04171890
v -0.06229058 0.10900471 -0.04171890
v -0.06229057 0.08900581 -0.04171890
v -0.06229057 0.08900581 -0.04171890
v -0.06229057 0.08900581 -0.04171890
v -0.00000461 0.08900584 0.00000051
v -0.00000461 0.08900584 0.00000051
v -0.00000461 0.08900584 0.00000051
v -0.00000461 0.08900584 0.00000051
v -0.00000461 0.08900584 0.00000051
v -0.00000461 0.08900584 0.00000051
v -0.00000461 0.08900584 0.00000051
v -0.00000461 0.08900584 0.00000051
v -0.00000461 0.08900584 0.00000051
v -0.00000461 0.08900584 0.00000051
v -0.00000461 0.08900584 0.00000051
v -0.00000461 0.08900584 0.00000051
v -0.00000461 0.08900584 0.00000051
v -0.00000461 0.08900584 0.00000051
v -0.00000461 0.08900584 0.00000051
v -0.00000461 0.08900584 0.00000051
v -0.00000461 0.08900584 0.00000051
v -0.00000461 0.08900584 0.00000051
v -0.00000461 0.08900584 0.00000051
v -0.00000461 0.08900584 0.00000051
v -0.06925001 0.08900581 -0.02876170
v -0.06925001 0.08900581 -0.02876170
v -0.06925001 0.08900581 -0.02876170
vn -0.00000033 1.00000000 0.00000000
vn -0.98043078 -0.00000032 -0.19686410
vn -0.99999881 -0.00000033 -0.00157756
vn -0.00000033 1.00000000 0.00000000
vn -0.00000033 1.00000000 0.00000085
vn -0.00001245 1.00000000 0.00012204
vn -0.00000033 1.00000000 -0.00000085
vn -0.00000033 1.00000000 0.00000085
vn -0.00000033 1.00000000 -0.00000085
vn 0.00001179 1.00000000 0.00012196
vn -0.00000033 1.00000000 0.00000000
vn -0.00003957 1.00000000 -0.00001625
vn -0.00000033 1.00000000 0.00000085
vn 0.00003877 1.00000000 -0.00001623
vn -0.00000033 1.00000000 -0.00000085
vn -0.00000033 1.00000000 0.00000053
vn -0.00000033 1.00000000 -0.00000021
vn -0.98125762 -0.00000032 0.19270110
vn -0.00000033 1.00000000 0.00000000
vn -0.92433763 -0.00000030 0.38157591
vn -0.00000033 1.00000000 0.00000000
vn -0.83248317 -0.00000027 0.55405021
vn -0.00000033 1.00000000 0.00000000
vn -0.70786488 -0.00000023 0.70634800
vn -0.00000033 1.00000000 -0.00000085
vn -0.00000033 1.00000000 0.00000000
vn -0.55702788 -0.00000018 0.83049393
vn -0.00000033 1.00000000 0.00000000
vn -0.00000033 1.00000000 -0.00000085
vn -0.00003958 1.00000000 -0.00001623
vn -0.38486519 -0.00000013 0.92297280
vn -0.00000033 1.00000000 0.00000000
vn -0.00003957 1.00000000 -0.00001625
vn -0.19637351 -0.00000006 0.98052931
vn -0.00001245 1.00000000 0.00012204
vn -0.00002984 -0.00000000 1.00000000
vn 0.00001179 1.00000000 0.00012196
vn -0.00001245 1.00000000 0.00012204
vn 0.00003879 1.00000000 -0.00001620
vn 0.19634440 0.00000006 0.98053497
vn 0.00001179 1.00000000 0.00012196
vn 0.00003876 1.00000000 -0.00001625
vn -0.00000033 1.00000000 0.00000000
vn 0.38486621 0.00000013 0.92297250
vn 0.55702817 0.00000018 0.83049369
vn -0.00000033 1.00000000 0.00000000
vn -0.00000033 1.00000000 0.00000085
vn -0.00000033 1.00000000 -0.00000085
vn 0.70786631 0.00000023 0.70634651
vn -0.00000033 1.00000000 0.00000085
vn -0.00000033 1.00000000 -0.00000085
vn 0.83248579 0.00000027 0.55404651
vn -0.00000033 1.00000000 0.00000085
vn -0.00000033 1.00000000 0.00000085
vn -0.00000033 1.00000000 -0.00000085
vn 0.92426223 0.00000030 0.38175830
vn 0.98126727 -0.00000004 0.19265141
vn -0.00000033 1.00000000 0.00000000
vn -0.00000033 1.00000000 -0.00000085
vn -0.00000033 1.00000000 0.00000000
vn 0.99999821 0.00000009 -0.00192970
vn -0.00000033 1.00000000 0.00000085
vn -0.00000033 1.00000000 0.00000085
vn 0.98043001 0.00000032 -0.19686849
vn -0.00000033 1.00000000 0.00000000
vn 0.92310780 0.00000030 -0.38454151
vn -0.00000033 1.00000000 0.00000000
vn -0.00000033 1.00000000 0.00000000
vn 0.83045977 0.00000027 -0.55707848
vn -0.00000033 1.00000000 0.00000000
vn 0.70632792 0.00000023 -0.70788491
vn -0.00000033 1.00000000 0.00000000
vn 0.55141628 0.00000018 -0.83423019
vn -0.00000033 1.00000000 0.00000000
vn 0.37405402 0.00000012 -0.92740691
vn -0.00000033 1.00000000 -0.00000021
vn -0.00000033 1.00000000 0.00000000
vn 0.19062450 0.00000006 -0.98166311
vn -0.00000033 1.00000000 -0.00000021
vn -0.00000033 1.00000000 0.00000000
vn 0.00006052 -0.00000475 -1.00000000
vn -0.00002709 -0.00000478 -1.00000000
vn -0.00000033 1.00000000 0.00000000
vn -0.19007170 -0.00000006 -0.98177028
vn -0.37405759 -0.00000012 -0.92740548
vn -0.00000033 1.00000000 0.00000000
vn -0.55100357 -0.00000018 -0.83450288
vn -0.00000033 1.00000000 0.00000000
vn -0.00000033 1.00000000 0.00000053
vn -0.00000033 1.00000000 0.00000000
vn -0.70633090 -0.00000023 -0.70788193
vn -0.70632797 -0.00000023 -0.70788473
vn 0.00000033 -1.00000000 0.00000000
vn -0.55083322 -0.00000018 -0.83461553
vn 0.00000033 -1.00000000 0.00000000
vn -0.37405461 -0.00000012 -0.92740679
vn 0.00000033 -1.00000000 0.00000000
vn -0.19065580 -0.00000006 -0.98165703
vn 0.00000033 -1.00000000 0.00000000
vn -0.00002714 0.00000476 -1.00000000
vn 0.00006060 0.00000478 -1.00000000
vn 0.00000033 -1.00000000 0.00000000
vn 0.00000033 -1.00000000 0.00000000
vn 0.00000033 -1.00000000 -0.00000043
vn 0.19062670 0.00000006 -0.98166257
vn 0.00000033 -1.00000000 0.00000000
vn 0.37405720 0.00000012 -0.92740572
vn 0.00000033 -1.00000000 -0.00000043
vn 0.00000033 -1.00000000 0.00000000
vn 0.55142027 0.00000018 -0.83422762
vn 0.00000033 -1.00000000 0.00000000
vn 0.70636648 0.00000023 -0.70784652
vn 0.00000033 -1.00000000 0.00000000
vn 0.83046210 0.00000027 -0.55707520
vn 0.00000033 -1.00000000 0.00000000
vn 0.92310888 0.00000030 -0.38453859
vn 0.98043048 0.00000032 -0.19686590
vn 0.00000033 -1.00000000 0.00000000
vn 0.00000033 -1.00000000 0.00000000
vn 0.99999881 0.00000033 -0.00157762
vn 0.00001054 -1.00000000 -0.00005171
vn 0.00000033 -1.00000000 0.00000000
vn 0.98126310 0.00000032 0.19267321
vn 0.00001055 -1.00000000 -0.00005171
vn 0.00019096 -1.00000000 0.00009523
vn 0.92425400 0.00000047 0.38177821
vn -0.00009479 -1.00000000 -0.00007800
vn 0.83248460 0.00000027 0.55404848
vn 0.00019096 -1.00000000 0.00009523
vn 0.70786488 0.00000023 0.70634800
vn -0.00009479 -1.00000000 -0.00007800
vn -0.00007770 -1.00000000 -0.00009544
vn -0.00007770 -1.00000000 -0.00009544
vn -0.00005791 -1.00000000 -0.00010811
vn 0.55702728 0.00000018 0.83049423
vn -0.00005791 -1.00000000 -0.00010811
vn -0.00003555 -1.00000000 -0.00011740
vn 0.38484651 0.00000013 0.92298061
vn -0.00003555 -1.00000000 -0.00011740
vn -0.00001180 -1.00000000 -0.00012221
vn 0.19632340 0.00000006 0.98053920
vn -0.00001180 -1.00000000 -0.00012221
vn 0.00001246 -1.00000000 -0.00012229
vn -0.00003109 -0.00000000 1.00000000
vn 0.00001246 -1.00000000 -0.00012229
vn 0.00003621 -1.00000000 -0.00011783
vn -0.19669650 -0.00000006 0.98046452
vn 0.00005857 -1.00000000 -0.00010769
vn -0.38484711 -0.00000013 0.92298043
vn 0.00003621 -1.00000000 -0.00011783
vn -0.55702919 -0.00000018 0.83049291
vn 0.00005857 -1.00000000 -0.00010769
vn 0.00007836 -1.00000000 -0.00009503
vn -0.70786661 -0.00000023 0.70634627
vn 0.00009545 -1.00000000 -0.00007801
vn 0.00007836 -1.00000000 -0.00009503
vn 0.00010886 -1.00000000 -0.00005767
vn -0.83248472 -0.00000027 0.55404800
vn 0.00009545 -1.00000000 -0.00007801
vn 0.00010886 -1.00000000 -0.00005767
vn 0.00000887 -1.00000000 0.00004309
vn -0.92436910 -0.00000030 0.38149950
vn 0.00000033 -1.00000000 -0.00000085
vn 0.00000886 -1.00000000 0.00004309
vn -0.98111951 -0.00000032 0.19340260
vn 0.00000033 -1.00000000 0.00000085
vn -0.99999821 -0.00000016 -0.00192970
vn 0.00000033 -1.00000000 -0.00000085
vn -0.98043042 -0.00000032 -0.19686660
vn 0.00000033 -1.00000000 0.00000085
vn 0.00000033 -1.00000000 -0.00000058
vn -0.00000033 1.00000000 0.00000000
vn -0.92297471 -0.00000030 -0.38486099
vn -0.00000033 1.00000000 0.00000000
vn -0.00000033 1.00000000 0.00000053
vn -0.83046102 -0.00000027 -0.55707699
vn 0.00000033 -1.00000000 0.00000053
vn -0.83045900 -0.00000027 -0.55707991
vn 0.00000033 -1.00000000 0.00000000
vn 0.00005857 -1.00000000 -0.00010769
vn 0.00000033 -1.00000000 0.00000053
vn 0.00000033 -1.00000000 -0.00000058
vn 0.00000033 -1.00000000 0.00000085
vn 0.00000033 -1.00000000 -0.00000085
vn 0.00000889 -1.00000000 0.00004308
vn 0.00003621 -1.00000000 -0.00011783
vn 0.00000033 -1.00000000 0.00000000
vn 0.00001053 -1.00000000 -0.00005171
vn 0.00019097 -1.00000000 0.00009521
vn 0.00010886 -1.00000000 -0.00005767
vn -0.00009479 -1.00000000 -0.00007800
vn -0.00007770 -1.00000000 -0.00009544
vn 0.00009545 -1.00000000 -0.00007801
vn -0.00005791 -1.00000000 -0.00010811
vn -0.00003555 -1.00000000 -0.00011740
vn 0.00007836 -1.00000000 -0.00009503
vn -0.00001180 -1.00000000 -0.00012221
vn 0.00001246 -1.00000000 -0.00012229
vn 0.00000033 -1.00000000 -0.00000043
vn 0.00000033 -1.00000000 -0.00000058
vn -0.92310792 -0.00000030 -0.38454121
vn 0.00000033 -1.00000000 0.00000053
vt 0.10504320 0.74959868
vt 0.20711310 0.38484481
vt 0.21748440 0.38484481
vt 0.10714010 0.75980002
vt 0.05454665 0.76490068
vt 0.05454665 0.76490068
vt 0.05454665 0.76490068
vt 0.05454665 0.76490068
vt 0.05454665 0.76490068
vt 0.05454665 0.76490068
vt 0.05454665 0.76490068
vt 0.05454665 0.76490068
vt 0.05454665 0.76490068
vt 0.05454665 0.76490068
vt 0.05454665 0.76490068
vt 0.05454665 0.76490068
vt 0.05454665 0.76490068
vt 0.22779910 0.38484481
vt 0.10714010 0.77011472
vt 0.23817051 0.38484481
vt 0.10515660 0.78031600
vt 0.24854180 0.38484481
vt 0.10124590 0.78989392
vt 0.25891310 0.38484481
vt 0.09552198 0.79850841
vt 0.09552198 0.79850841
vt 0.26928449 0.38484481
vt 0.08821099 0.80587602
vt 0.08821099 0.80587602
vt 0.07959657 0.81165671
vt 0.27959910 0.38484481
vt 0.07959657 0.81165671
vt 0.07007533 0.81562388
vt 0.28997049 0.38484481
vt 0.07007533 0.81562388
vt 0.30039850 0.38484481
vt 0.05981731 0.81772077
vt 0.05981731 0.81772077
vt 0.04933255 0.81772077
vt 0.31082651 0.38484481
vt 0.04933255 0.81772077
vt 0.03918790 0.81568062
vt 0.03918790 0.81568062
vt 0.32125461 0.38484481
vt 0.33162591 0.38484481
vt 0.02961003 0.81171340
vt 0.02961003 0.81171340
vt 0.02099555 0.80598932
vt 0.34194049 0.38484481
vt 0.02099555 0.80598932
vt 0.01368463 0.79862171
vt 0.35231191 0.38484481
vt 0.01368463 0.79862171
vt 0.00796062 0.79000717
vt 0.00796062 0.79000717
vt 0.36268321 0.38484481
vt 0.37305459 0.38484481
vt 0.00399339 0.78048599
vt 0.00399339 0.78048599
vt 0.00195312 0.77028471
vt 0.38336930 0.38484481
vt 0.00195312 0.77028471
vt 0.00195312 0.75991332
vt 0.39374059 0.38484481
vt 0.00195312 0.75991332
vt 0.40411189 0.38484481
vt 0.00399339 0.74976867
vt 0.00796062 0.74019080
vt 0.41448331 0.38484481
vt 0.01368463 0.73157632
vt 0.42485461 0.38484481
vt 0.02105230 0.72426540
vt 0.43516931 0.38484481
vt 0.02966678 0.71859801
vt 0.44554070 0.38484481
vt 0.02966678 0.71859801
vt 0.03924465 0.71468753
vt 0.45591199 0.38484481
vt 0.03924465 0.71468753
vt 0.04927599 0.71270388
vt 0.46617001 0.38484481
vt 0.13479701 0.38484481
vt 0.05953395 0.71270388
vt 0.14505491 0.38484481
vt 0.15531300 0.38484481
vt 0.06967860 0.71457410
vt 0.16568440 0.38484481
vt 0.07931321 0.71842802
vt 0.08792763 0.72415203
vt 0.08792763 0.72415203
vt 0.17605570 0.38484481
vt 0.17605570 0.37073290
vt 0.24446119 0.72415203
vt 0.16568440 0.37073290
vt 0.25307569 0.71842802
vt 0.15531300 0.37073290
vt 0.26265359 0.71457410
vt 0.14505491 0.37073290
vt 0.27285489 0.71270388
vt 0.13479701 0.37073290
vt 0.46617001 0.37073290
vt 0.28305629 0.71270388
vt 0.29308760 0.71468753
vt 0.29308760 0.71468753
vt 0.45591199 0.37073290
vt 0.30266550 0.71859801
vt 0.44554070 0.37073290
vt 0.30266550 0.71859801
vt 0.31133661 0.72426540
vt 0.43516931 0.37073290
vt 0.31864750 0.73157632
vt 0.42485461 0.37073290
vt 0.32442829 0.74019080
vt 0.41448331 0.37073290
vt 0.32839549 0.74976867
vt 0.40411189 0.37073290
vt 0.39374059 0.37073290
vt 0.33043581 0.75991332
vt 0.33043581 0.77028471
vt 0.38336930 0.37073290
vt 0.32839549 0.78048599
vt 0.32839549 0.78048599
vt 0.37305459 0.37073290
vt 0.32442829 0.79000717
vt 0.32442829 0.79000717
vt 0.36268321 0.37073290
vt 0.31870419 0.79862171
vt 0.35231191 0.37073290
vt 0.31870419 0.79862171
vt 0.34194049 0.37073290
vt 0.31133661 0.80598932
vt 0.31133661 0.80598932
vt 0.30272219 0.81171340
vt 0.30272219 0.81171340
vt 0.33162591 0.37073290
vt 0.29320091 0.81568062
vt 0.29320091 0.81568062
vt 0.32125461 0.37073290
vt 0.28299960 0.81772077
vt 0.28299960 0.81772077
vt 0.31082651 0.37073290
vt 0.27257159 0.81772077
vt 0.27257159 0.81772077
vt 0.30039850 0.37073290
vt 0.26231360 0.81562388
vt 0.26231360 0.81562388
vt 0.28997049 0.37073290
vt 0.25273570 0.81165671
vt 0.27959910 0.37073290
vt 0.25273570 0.81165671
vt 0.26928449 0.37073290
vt 0.24417789 0.80587602
vt 0.24417789 0.80587602
vt 0.25891310 0.37073290
vt 0.23686691 0.79850841
vt 0.23686691 0.79850841
vt 0.23114280 0.78989392
vt 0.24854180 0.37073290
vt 0.23114280 0.78989392
vt 0.22717570 0.78031600
vt 0.22717570 0.78031600
vt 0.23817051 0.37073290
vt 0.22519210 0.77011472
vt 0.22519210 0.77011472
vt 0.22779910 0.37073290
vt 0.22524880 0.75980002
vt 0.21748440 0.37073290
vt 0.22524880 0.75980002
vt 0.20711310 0.37073290
vt 0.22728901 0.74959868
vt 0.22728901 0.74959868
vt 0.10107600 0.74007738
vt 0.19674170 0.38484481
vt 0.09529525 0.73146301
vt 0.09529525 0.73146301
vt 0.18637040 0.38484481
vt 0.23709360 0.73146301
vt 0.18637040 0.37073290
vt 0.23709360 0.73146301
vt 0.27784219 0.76507068
vt 0.27784219 0.76507068
vt 0.27784219 0.76507068
vt 0.27784219 0.76507068
vt 0.27784219 0.76507068
vt 0.27784219 0.76507068
vt 0.27784219 0.76507068
vt 0.27784219 0.76507068
vt 0.27784219 0.76507068
vt 0.27784219 0.76507068
vt 0.27784219 0.76507068
vt 0.27784219 0.76507068
vt 0.27784219 0.76507068
vt 0.27784219 0.76507068
vt 0.27784219 0.76507068
vt 0.27784219 0.76507068
vt 0.27784219 0.76507068
vt 0.27784219 0.76507068
vt 0.27784219 0.76507068
vt 0.27784219 0.76507068
vt 0.23131290 0.74007738
vt 0.19674170 0.37073290
vt 0.23131290 0.74007738
f 1/1/1 4/4/4 11/11/11
f 4/4/4 19/19/19 11/11/11
f 19/19/19 21/21/21 11/11/11
f 21/21/21 23/23/23 11/11/11
f 23/23/23 26/26/26 11/11/11
f 25/25/25 29/29/29 15/15/15
f 28/28/28 32/32/32 11/11/11
f 30/30/30 33/33/33 12/12/12
f 35/35/35 38/38/38 6/6/6
f 37/37/37 41/41/41 10/10/10
f 39/39/39 42/42/42 14/14/14
f 43/43/43 46/46/46 11/11/11
f 47/47/47 50/50/50 13/13/13
f 48/48/48 51/51/51 9/9/9
f 53/53/53 54/54/54 8/8/8
f 55/55/55 59/59/59 7/7/7
f 58/58/58 60/60/60 11/11/11
f 62/62/62 63/63/63 5/5/5
f 65/65/65 67/67/67 11/11/11
f 67/67/67 68/68/68 11/11/11
f 68/68/68 70/70/70 11/11/11
f 70/70/70 72/72/72 11/11/11
f 72/72/72 74/74/74 11/11/11
f 76/76/76 79/79/79 17/17/17
f 77/77/77 80/80/80 11/11/11
f 80/80/80 83/83/83 11/11/11
f 83/83/83 86/86/86 11/11/11
f 86/86/86 88/88/88 11/11/11
f 11/11/11 88/88/88 90/90/90
f 91/91/91 87/87/87 92/92/92
f 92/92/92 87/87/87 94/94/94
f 87/87/87 85/85/85 94/94/94
f 94/94/94 85/85/85 96/96/96
f 85/85/85 84/84/84 96/96/96
f 96/96/96 84/84/84 98/98/98
f 84/84/84 82/82/82 98/98/98
f 98/98/98 82/82/82 100/100/100
f 81/81/81 78/78/78 101/101/101
f 101/101/101 78/78/78 105/105/105
f 78/78/78 75/75/75 105/105/105
f 105/105/105 75/75/75 107/107/107
f 75/75/75 73/73/73 107/107/107
f 107/107/107 73/73/73 110/110/110
f 73/73/73 71/71/71 110/110/110
f 110/110/110 71/71/71 112/112/112
f 71/71/71 69/69/69 112/112/112
f 112/112/112 69/69/69 114/114/114
f 69/69/69 66/66/66 114/114/114
f 114/114/114 66/66/66 116/116/116
f 66/66/66 64/64/64 116/116/116
f 116/116/116 64/64/64 117/117/117
f 64/64/64 61/61/61 117/117/117
f 117/117/117 61/61/61 120/120/120
f 61/61/61 57/57/57 120/120/120
f 120/120/120 57/57/57 123/123/123
f 57/57/57 56/56/56 123/123/123
f 123/123/123 56/56/56 126/126/126
f 56/56/56 52/52/52 126/126/126
f 126/126/126 52/52/52 128/128/128
f 52/52/52 49/49/49 128/128/128
f 128/128/128 49/49/49 130/130/130
f 49/49/49 45/45/45 130/130/130
f 130/130/130 45/45/45 135/135/135
f 45/45/45 44/44/44 135/135/135
f 135/135/135 44/44/44 138/138/138
f 44/44/44 40/40/40 138/138/138
f 138/138/138 40/40/40 141/141/141
f 40/40/40 36/36/36 141/141/141
f 141/141/141 36/36/36 144/144/144
f 36/36/36 34/34/34 144/144/144
f 144/144/144 34/34/34 147/147/147
f 34/34/34 31/31/31 147/147/147
f 147/147/147 31/31/31 149/149/149
f 31/31/31 27/27/27 149/149/149
f 149/149/149 27/27/27 151/151/151
f 27/27/27 24/24/24 151/151/151
f 151/151/151 24/24/24 154/154/154
f 24/24/24 22/22/22 154/154/154
f 154/154/154 22/22/22 158/158/158
f 22/22/22 20/20/20 158/158/158
f 158/158/158 20/20/20 162/162/162
f 20/20/20 18/18/18 162/162/162
f 162/162/162 18/18/18 165/165/165
f 18/18/18 3/3/3 165/165/165
f 165/165/165 3/3/3 167/167/167
f 3/3/3 2/2/2 167/167/167
f 167/167/167 2/2/2 169/169/169
f 169/169/169 2/2/2 173/173/173
f 1/1/1 11/11/11 172/172/172
f 172/172/172 11/11/11 174/174/174
f 16/16/16 89/89/89 175/175/175
f 176/176/176 91/91/91 178/178/178
f 91/91/91 92/92/92 178/178/178
f 179/179/179 93/93/93 187/187/187
f 93/93/93 95/95/95 187/187/187
f 95/95/95 97/97/97 187/187/187
f 97/97/97 99/99/99 187/187/187
f 99/99/99 102/102/102 187/187/187
f 102/102/102 103/103/103 187/187/187
f 104/104/104 108/108/108 199/199/199
f 106/106/106 109/109/109 187/187/187
f 109/109/109 111/111/111 187/187/187
f 111/111/111 113/113/113 187/187/187
f 113/113/113 115/115/115 187/187/187
f 115/115/115 118/118/118 187/187/187
f 118/118/118 119/119/119 187/187/187
f 119/119/119 122/122/122 187/187/187
f 121/121/121 124/124/124 188/188/188
f 125/125/125 129/129/129 189/189/189
f 127/127/127 131/131/131 191/191/191
f 132/132/132 133/133/133 192/192/192
f 134/134/134 136/136/136 194/194/194
f 137/137/137 139/139/139 195/195/195
f 140/140/140 142/142/142 197/197/197
f 143/143/143 145/145/145 198/198/198
f 146/146/146 150/150/150 186/186/186
f 148/148/148 152/152/152 180/180/180
f 153/153/153 156/156/156 196/196/196
f 155/155/155 159/159/159 193/193/193
f 157/157/157 160/160/160 190/190/190
f 161/161/161 164/164/164 185/185/185
f 163/163/163 168/168/168 184/184/184
f 166/166/166 170/170/170 183/183/183
f 182/182/182 171/171/171 200/200/200
f 169/169/169 173/173/173 201/201/201
f 173/173/173 176/176/176 201/201/201
f 176/176/176 178/178/178 201/201/201
f 181/181/181 202/202/202 177/177/177

