mtllib shoulder.mtl
usemtl Metal_DarkGray_002_COLOR_0
v -0.04822290 0.05764633 -0.06914139
v -0.03688301 0.06605715 -0.06925909
v -0.03737707 0.06493956 -0.07645830
v -0.02509613 0.07040960 -0.07535250
v -0.02559026 0.07042128 -0.08186939
v -0.01282699 0.07370335 -0.07903440
v -0.01307406 0.07382095 -0.08521020
v -0.00000500 0.07497378 -0.08021080
v -0.00000500 0.07497378 -0.08021080
v -0.00000500 0.07498552 -0.08637469
v -0.00000500 0.07498552 -0.08637469
v 0.01307574 0.07382096 -0.08521020
v 0.01281694 0.07370336 -0.07903440
v 0.02559194 0.07042129 -0.08186939
v 0.02509800 0.07040961 -0.07535250
v 0.03736714 0.06493957 -0.07645830
v 0.04822467 0.05764636 -0.06914139
v 0.03688488 0.06605717 -0.06925909
v 0.03868458 0.07100954 -0.06489499
v 0.02575663 0.07384451 -0.07100010
v 0.01286409 0.07518549 -0.07451729
v -0.00000500 0.07570310 -0.07570539
v -0.00000500 0.07570310 -0.07570539
v -0.01286234 0.07518548 -0.07451729
v -0.02575488 0.07384450 -0.07100010
v -0.03868283 0.07100952 -0.06489499
v -0.05150487 0.06657469 -0.05523719
v -0.05134023 0.05899906 -0.05826040
v -0.05791587 0.04868256 -0.06016600
v -0.06491519 0.03754269 -0.08843339
v -0.05742187 0.04824733 -0.08843339
v -0.04817589 0.05748164 -0.08843339
v -0.03748293 0.06498665 -0.08843339
v -0.02563728 0.07050366 -0.08843339
v -0.01301523 0.07387978 -0.08843339
v -0.00000500 0.07502080 -0.08843339
v -0.00000500 0.07502080 -0.08843339
v 0.01301697 0.07387979 -0.08843339
v 0.02563903 0.07050367 -0.08843339
v 0.03747300 0.06498667 -0.08843339
v 0.04817763 0.05748167 -0.08843339
v 0.05742370 0.04824736 -0.08843339
v 0.06491695 0.03754273 -0.08843339
v 0.05791776 0.04868260 -0.06016600
v 0.05134206 0.05899909 -0.05826040
v 0.05150667 0.06657472 -0.05523719
v 0.06238780 0.07373867 -0.04160340
v 0.05293003 0.07719704 -0.05310799
v 0.04126075 0.08004382 -0.06256570
v 0.02823880 0.08214940 -0.06940019
v 0.01433442 0.08341987 -0.07354100
v -0.00000500 0.08384336 -0.07494079
v -0.00000500 0.08384336 -0.07494079
v -0.01433273 0.08341986 -0.07354100
v -0.02823700 0.08214939 -0.06940019
v -0.04125907 0.08004379 -0.06256570
v -0.05292822 0.07719701 -0.05310799
v -0.06238599 0.07373863 -0.04160340
v -0.06930293 0.06979786 -0.02865210
v -0.06231548 0.05996370 -0.04275620
v -0.06250370 0.04957663 -0.04575589
v -0.06592680 0.03807203 -0.04975539
v -0.07043219 0.02570878 -0.08843339
v -0.07043219 0.02570878 -0.11213653
v -0.06491519 0.03754269 -0.11213653
v -0.05742187 0.04824733 -0.11213653
v -0.04817589 0.05748164 -0.11213653
v -0.03748293 0.06498665 -0.11213653
v -0.02563728 0.07050366 -0.11213653
v -0.01301523 0.07387978 -0.11213653
v -0.00000500 0.07502080 -0.11213653
v -0.00000500 0.07502080 -0.11213653
v 0.01301697 0.07387979 -0.11213653
v 0.02563903 0.07050367 -0.11213653
v 0.03747300 0.06498667 -0.11213653
v 0.04817763 0.05748167 -0.11213653
v 0.05742370 0.04824736 -0.11213653
v 0.06491695 0.03754273 -0.11213653
v 0.07043396 0.02570883 -0.11213653
v 0.07043396 0.02570883 -0.08843339
v 0.06592856 0.03807208 -0.04975539
v 0.06249366 0.04957667 -0.04575589
v 0.06231723 0.05996374 -0.04275620
v 0.06930467 0.06979790 -0.02865210
v 0.07353946 0.08900747 -0.01470059
v 0.07353946 0.08900747 -0.01470059
v 0.06924584 0.08900747 -0.02876970
v 0.06924584 0.08900747 -0.02876970
v 0.06229362 0.08900747 -0.04172109
v 0.06229362 0.08900747 -0.04172109
v 0.05294177 0.08900746 -0.05307269
v 0.05294177 0.08900746 -0.05307269
v 0.05294177 0.08900746 -0.05307269
v 0.04156658 0.08900746 -0.06237760
v 0.04156658 0.08900746 -0.06237760
v 0.04156658 0.08900746 -0.06237760
v 0.02854463 0.08900745 -0.06920029
v 0.02854463 0.08900745 -0.06920029
v 0.02854463 0.08900745 -0.06920029
v 0.01445206 0.08900745 -0.07330570
v 0.01445206 0.08900745 -0.07330570
v 0.01445206 0.08900745 -0.07330570
v -0.00000500 0.08900744 -0.07475249
v -0.00000500 0.08900744 -0.07475249
v -0.00000500 0.08900744 -0.07475249
v -0.01446214 0.08900744 -0.07330570
v -0.01446214 0.08900744 -0.07330570
v -0.02854290 0.08900744 -0.06920029
v -0.02854290 0.08900744 -0.06920029
v -0.04156491 0.08900743 -0.06237760
v -0.04156491 0.08900743 -0.06237760
v -0.05294010 0.08900743 -0.05307269
v -0.05294010 0.08900743 -0.05307269
v -0.06229195 0.08900742 -0.04172109
v -0.06229195 0.08900742 -0.04172109
v -0.06229195 0.08900742 -0.04172109
v -0.06924411 0.08900742 -0.02876970
v -0.06924411 0.08900742 -0.02876970
v -0.06924411 0.08900742 -0.02876970
v -0.07353773 0.08900742 -0.01470059
v -0.07353773 0.08900742 -0.01470059
v -0.07500812 0.08900742 -0.00006700
v -0.07500812 0.08900742 -0.00006700
v -0.07500812 0.08900742 -0.00006700
v -0.07493754 0.05915205 -0.00006700
v -0.07354946 0.06552778 -0.01470059
v -0.07036162 0.05102354 -0.02727570
v -0.07078505 0.03716634 -0.03012240
v -0.07160848 0.02600287 -0.03818029
v -0.07381999 0.01308667 -0.08843339
v -0.07381999 0.01308667 -0.11213653
v -0.07496106 0.00006472 -0.08843339
v -0.07496106 0.00006472 -0.11213653
v -0.07381998 -0.01294554 -0.08843339
v -0.07381998 -0.01294554 -0.11213653
v -0.07043216 -0.02556759 -0.08843339
v -0.07043216 -0.02556759 -0.11213653
v -0.06491517 -0.03741331 -0.08843339
v -0.06491517 -0.03741331 -0.11213653
v -0.05742184 -0.04811787 -0.08843339
v -0.05742184 -0.04811787 -0.11213653
v -0.04817585 -0.05735218 -0.08843339
v -0.04817585 -0.05735218 -0.11213653
v -0.03748289 -0.06484544 -0.08843339
v -0.03748289 -0.06484544 -0.11213653
v -0.02563723 -0.07037418 -0.08843339
v -0.02563723 -0.07037418 -0.11213653
v -0.01301518 -0.07375030 -0.08843339
v -0.01301518 -0.07375030 -0.11213653
v -0.00000495 -0.07489131 -0.08843339
v -0.00000495 -0.07489131 -0.11213653
v 0.01301702 -0.07375029 -0.11213653
v 0.01301702 -0.07375029 -0.08843339
v 0.02563908 -0.07037417 -0.11213653
v 0.02563908 -0.07037417 -0.08843339
v 0.03747304 -0.06484541 -0.11213653
v 0.03747304 -0.06484541 -0.08843339
v 0.04817767 -0.05735215 -0.11213653
v 0.04817767 -0.05735215 -0.08843339
v 0.05742373 -0.04811784 -0.11213653
v 0.05742373 -0.04811784 -0.08843339
v 0.06491698 -0.03741326 -0.11213653
v 0.06491698 -0.03741326 -0.08843339
v 0.07043398 -0.02556755 -0.11213653
v 0.07043398 -0.02556755 -0.08843339
v 0.07382185 -0.01294549 -0.11213653
v 0.07382185 -0.01294549 -0.08843339
v 0.07496285 0.00006477 -0.11213653
v 0.07496285 0.00006477 -0.08843339
v 0.07382184 0.01308672 -0.11213653
v 0.07382184 0.01308672 -0.08843339
v 0.07161032 0.02600292 -0.03818029
v 0.07078689 0.03716639 -0.03012240
v 0.07035159 0.05102358 -0.02727570
v 0.07353947 0.06552783 -0.01470059
v 0.07493930 0.05915210 -0.00006700
v 0.07500991 0.08900747 -0.00006700
v 0.07500991 0.08900747 -0.00006700
v 0.07500991 0.08900747 -0.00006700
v 0.07353947 0.06041071 0.01450780
v 0.07359829 0.08899573 0.01456660
v 0.07359829 0.08899573 0.01456660
v 0.07359829 0.08899573 0.01456660
v -0.00000500 0.08900744 0.00000350
v -0.00000500 0.08900744 0.00000350
v -0.00000500 0.08900744 0.00000350
v -0.00000500 0.08900744 0.00000350
v -0.00000500 0.08900744 0.00000350
v -0.00000500 0.08900744 0.00000350
v -0.00000500 0.08900744 0.00000350
v -0.00000500 0.08900744 0.00000350
v -0.00000500 0.08900744 0.00000350
v -0.00000500 0.08900744 0.00000350
v -0.00000500 0.08900744 0.00000350
v -0.00000500 0.08900744 0.00000350
v -0.00000500 0.08900744 0.00000350
v -0.00000500 0.08900744 0.00000350
v -0.00000500 0.08900744 0.00000350
v -0.00000500 0.08900744 0.00000350
v -0.00000500 0.08900744 0.00000350
v -0.00000500 0.08900744 0.00000350
v -0.00000500 0.08900744 0.00000350
v -0.00000500 0.08900744 0.00000350
v -0.00000500 0.08900744 0.00000350
v -0.07359656 0.08899569 0.01456660
v -0.07359656 0.08899569 0.01456660
v -0.07359656 0.08899569 0.01456660
v -0.07353771 0.06041066 0.01450780
v -0.07352597 0.04102467 0.01456660
v -0.07493753 0.03834264 -0.00006700
v -0.07394940 0.04315387 -0.01395960
v -0.07440818 0.02550874 -0.01557119
v -0.07454937 0.01305138 -0.02582879
v -0.07487869 -0.00024111 -0.02582879
v -0.07366709 -0.01333363 -0.02584060
v -0.07042036 -0.02613217 -0.02584060
v -0.06492691 -0.03808380 -0.02584060
v -0.05733946 -0.04878837 -0.02584060
v -0.04784641 -0.05790507 -0.02582879
v -0.03702417 -0.06515127 -0.02582879
v -0.02515491 -0.07048009 -0.02582879
v -0.01262691 -0.07375030 -0.02582879
v -0.00000495 -0.07479719 -0.02582879
v 0.01262888 -0.07375029 -0.02582879
v 0.02515682 -0.07048008 -0.02582879
v 0.03702600 -0.06515124 -0.02582879
v 0.04784836 -0.05790504 -0.02582879
v 0.05734129 -0.04878834 -0.02584060
v 0.06492873 -0.03808375 -0.02584060
v 0.07042225 -0.02613212 -0.02584060
v 0.07365716 -0.01333358 -0.02584060
v 0.07488054 -0.00024106 -0.02582879
v 0.07455116 0.01305143 -0.02582879
v 0.07439820 0.02550879 -0.01557119
v 0.07395122 0.04315392 -0.01395960
v 0.07493930 0.03834269 -0.00006700
v 0.07351594 0.04102472 0.01456660
v 0.06956349 0.04858861 0.02870621
v 0.06929289 0.06419852 0.02858850
v 0.06935170 0.08899573 0.02864730
v 0.06935170 0.08899573 0.02864730
v 0.06935170 0.08899573 0.02864730
v 0.06244662 0.08899573 0.04162231
v 0.06244662 0.08899573 0.04162231
v 0.06244662 0.08899573 0.04162231
v 0.05313006 0.08899572 0.05300920
v 0.05313006 0.08899572 0.05300920
v 0.05313006 0.08899572 0.05300920
v 0.04177842 0.08899572 0.06234930
v 0.04177842 0.08899572 0.06234930
v 0.04177842 0.08899572 0.06234930
v 0.02882692 0.08899572 0.06931321
v 0.02882692 0.08899572 0.06931321
v 0.02882692 0.08899572 0.06931321
v 0.01476976 0.08899572 0.07360689
v 0.01476976 0.08899572 0.07360689
v 0.01476976 0.08899572 0.07360689
v -0.00000500 0.08899571 0.07506560
v -0.00000500 0.08899571 0.07506560
v -0.00000500 0.08899571 0.07506560
v -0.00000500 0.08899571 0.07506560
v -0.01476797 0.08899570 0.07360689
v -0.01476797 0.08899570 0.07360689
v -0.01476797 0.08899570 0.07360689
v -0.02882519 0.08899570 0.06931321
v -0.02882519 0.08899570 0.06931321
v -0.02882519 0.08899570 0.06931321
v -0.04177662 0.08899570 0.06234930
v -0.04177662 0.08899570 0.06234930
v -0.04177662 0.08899570 0.06234930
v -0.05314007 0.08899570 0.05300920
v -0.05314007 0.08899570 0.05300920
v -0.05314007 0.08899570 0.05300920
v -0.06244482 0.08899569 0.04162231
v -0.06244482 0.08899569 0.04162231
v -0.06244482 0.08899569 0.04162231
v -0.06934997 0.08899569 0.02864730
v -0.06934997 0.08899569 0.02864730
v -0.06934997 0.08899569 0.02864730
v -0.06929112 0.06419848 0.02858850
v -0.06956168 0.04858856 0.02870621
v -0.06900883 0.03940134 0.03431730
v -0.07397295 0.02656744 0.01536651
v -0.07517278 0.01298081 -0.00009060
v -0.07519632 -0.00024111 -0.00006700
v -0.07409059 -0.01341606 -0.00007880
v -0.07089095 -0.02632039 -0.00009060
v -0.06538568 -0.03833086 -0.00010230
v -0.05765716 -0.04904723 -0.00007880
v -0.04801116 -0.05811679 -0.00007880
v -0.03707120 -0.06523364 -0.00006700
v -0.02514323 -0.07044481 -0.00006700
v -0.01260349 -0.07360910 -0.00007880
v -0.00000495 -0.07464430 -0.00007880
v 0.01260527 -0.07360908 -0.00007880
v 0.02514508 -0.07044479 -0.00006700
v 0.03707303 -0.06523361 -0.00006700
v 0.04801305 -0.05811676 -0.00007880
v 0.05765899 -0.04904719 -0.00007880
v 0.06537575 -0.03833081 -0.00010230
v 0.07089277 -0.02632035 -0.00009060
v 0.07409239 -0.01341601 -0.00007880
v 0.07519811 -0.00024106 -0.00006700
v 0.07517462 0.01298086 -0.00009060
v 0.07397471 0.02656749 0.01536651
v 0.06901060 0.03940139 0.03431730
v 0.06116436 0.04904727 0.04855090
v 0.06164667 0.05644653 0.04399851
v 0.06242309 0.06833920 0.04161060
v 0.05310646 0.07195058 0.05298571
v 0.04176662 0.07483264 0.06233759
v 0.02881513 0.07695004 0.06928982
v 0.01475797 0.07825574 0.07355981
v -0.00000500 0.07869101 0.07501851
v -0.00000500 0.07869101 0.07501851
v -0.01475622 0.07825572 0.07355981
v -0.02881344 0.07695002 0.06928982
v -0.04176481 0.07483261 0.06233759
v -0.05311652 0.07195055 0.05298571
v -0.06242134 0.06833915 0.04161060
v -0.06165672 0.05644649 0.04399851
v -0.06116267 0.04904723 0.04855090
v -0.05884529 0.04383617 0.05771460
v -0.06642086 0.03410786 0.04868031
v -0.07191437 0.02234445 0.03710520
v -0.07458466 0.00980472 0.02705930
v -0.07511400 -0.00288779 0.02462420
v -0.07396118 -0.01550991 0.02218920
v -0.07062034 -0.02780259 0.01982480
v -0.06504457 -0.03928370 0.01760140
v -0.05737481 -0.04955303 0.01563710
v -0.04791704 -0.05830502 0.01393141
v -0.03708295 -0.06526893 0.01253150
v -0.02521374 -0.07038598 0.01150811
v -0.01266232 -0.07350324 0.01088470
v -0.00000495 -0.07453845 0.01067291
v 0.01266410 -0.07350323 0.01088470
v 0.02521565 -0.07038596 0.01150811
v 0.03708483 -0.06526890 0.01253150
v 0.04791887 -0.05830499 0.01393141
v 0.05737664 -0.04955300 0.01563710
v 0.06503458 -0.03928365 0.01760140
v 0.07062221 -0.02780254 0.01982480
v 0.07396299 -0.01550986 0.02218920
v 0.07511580 -0.00288774 0.02462420
v 0.07458645 0.00980476 0.02705930
v 0.07190441 0.02234450 0.03710520
v 0.06642263 0.03410790 0.04868031
v 0.05884700 0.04383621 0.05771460
v 0.04842471 0.05223521 0.06551372
v 0.04924807 0.05728170 0.06082012
v 0.05074201 0.06284567 0.05657350
v 0.03942577 0.06673934 0.06493731
v 0.02679191 0.06944497 0.07083072
v 0.01344041 0.07110365 0.07428922
v -0.00000500 0.07162125 0.07538311
v -0.00000500 0.07162125 0.07538311
v -0.01343872 0.07110365 0.07428922
v -0.02679016 0.06944495 0.07083072
v -0.03942396 0.06673932 0.06493731
v -0.05074032 0.06284564 0.05657350
v -0.04924639 0.05728167 0.06082012
v -0.04842294 0.05223518 0.06551372
v -0.04829354 0.04834151 0.07000731
v -0.04829354 0.04834151 0.07000731
v -0.05757475 0.03956597 0.06643121
v -0.05757475 0.03956597 0.06643121
v -0.06499749 0.02950841 0.06237291
v -0.06499749 0.02950841 0.06237291
v -0.07044392 0.01840376 0.05790280
v -0.07044392 0.01840376 0.05790280
v -0.07374942 0.00665229 0.05317391
v -0.07374942 0.00665229 0.05317391
v -0.07481992 -0.00541700 0.04830390
v -0.07481992 -0.00541700 0.04830390
v -0.07365529 -0.01747442 0.04345730
v -0.07365529 -0.01747442 0.04345730
v -0.07027923 -0.02909661 0.03877561
v -0.07027923 -0.02909661 0.03877561
v -0.06473868 -0.04007173 0.03436430
v -0.06473868 -0.04007173 0.03436430
v -0.05723367 -0.04998833 0.03037651
v -0.05723367 -0.04998833 0.03037651
v -0.04798761 -0.05854028 0.02694161
v -0.04798761 -0.05854028 0.02694161
v -0.03727124 -0.06546890 0.02415371
v -0.03727124 -0.06546890 0.02415371
v -0.02541378 -0.07056241 0.02209510
v -0.02541378 -0.07056241 0.02209510
v -0.01279166 -0.07367973 0.02084820
v -0.01279166 -0.07367973 0.02084820
v -0.00000495 -0.07467959 0.02044831
v -0.00000495 -0.07467959 0.02044831
v 0.01279357 -0.07367972 0.02084820
v 0.01279357 -0.07367972 0.02084820
v 0.02541556 -0.07056239 0.02209510
v 0.02541556 -0.07056239 0.02209510
v 0.03727300 -0.06546887 0.02415371
v 0.03727300 -0.06546887 0.02415371
v 0.04797770 -0.05854025 0.02694161
v 0.04797770 -0.05854025 0.02694161
v 0.05723543 -0.04998830 0.03037651
v 0.05723543 -0.04998830 0.03037651
v 0.06474055 -0.04007168 0.03436430
v 0.06474055 -0.04007168 0.03436430
v 0.07026929 -0.02909656 0.03877561
v 0.07026929 -0.02909656 0.03877561
v 0.07365716 -0.01747437 0.04345730
v 0.07365716 -0.01747437 0.04345730
v 0.07482172 -0.00541695 0.04830390
v 0.07482172 -0.00541695 0.04830390
v 0.07375121 0.00665234 0.05317391
v 0.07375121 0.00665234 0.05317391
v 0.07044571 0.01840381 0.05790280
v 0.07044571 0.01840381 0.05790280
v 0.06498753 0.02950845 0.06237291
v 0.06498753 0.02950845 0.06237291
v 0.05756484 0.03956600 0.06643121
v 0.05756484 0.03956600 0.06643121
v 0.04829524 0.04834154 0.07000731
v 0.04829524 0.04834154 0.07000731
v 0.03763770 0.05538776 0.07290111
v 0.03763770 0.05538776 0.07290111
v 0.03767291 0.05814036 0.07043080
v 0.03809640 0.06198701 0.06777231
v 0.02579204 0.06524540 0.07254820
v 0.01293466 0.06726868 0.07527731
v -0.00000500 0.06788047 0.07617129
v -0.00000500 0.06788047 0.07617129
v -0.01294459 0.06726867 0.07527731
v -0.02580203 0.06524539 0.07254820
v -0.03809465 0.06198699 0.06777231
v -0.03767116 0.05814033 0.07043080
v -0.03763593 0.05538774 0.07290111
v -0.03763593 0.05538774 0.07290111
v -0.04781122 0.04694163 0.07124250
v -0.04781122 0.04694163 0.07124250
v -0.05691600 0.03843670 0.06781931
v -0.05691600 0.03843670 0.06781931
v -0.06429172 0.02860253 0.06385510
v -0.06429172 0.02860253 0.06385510
v -0.06972634 0.01773327 0.05946730
v -0.06972634 0.01773327 0.05946730
v -0.07303190 0.00614648 0.05479731
v -0.07303190 0.00614648 0.05479731
v -0.07411407 -0.00579340 0.04998600
v -0.07411407 -0.00579340 0.04998600
v -0.07294951 -0.01773316 0.04517491
v -0.07294951 -0.01773316 0.04517491
v -0.06957345 -0.02929652 0.04051660
v -0.06957345 -0.02929652 0.04051660
v -0.06407993 -0.04014236 0.03614061
v -0.06407993 -0.04014236 0.03614061
v -0.05663375 -0.04994124 0.03219990
v -0.05663375 -0.04994124 0.03219990
v -0.04747007 -0.05838734 0.02878851
v -0.04747007 -0.05838734 0.02878851
v -0.03687129 -0.06523364 0.02603590
v -0.03687129 -0.06523364 0.02603590
v -0.02514323 -0.07025658 0.02401261
v -0.02514323 -0.07025658 0.02401261
v -0.01266232 -0.07332681 0.02276571
v -0.01266232 -0.07332681 0.02276571
v -0.00000495 -0.07432667 0.02236560
v -0.00000495 -0.07432667 0.02236560
v 0.01265230 -0.07332680 0.02276571
v 0.01265230 -0.07332680 0.02276571
v 0.02514508 -0.07025657 0.02401261
v 0.02514508 -0.07025657 0.02401261
v 0.03687312 -0.06523361 0.02603590
v 0.03687312 -0.06523361 0.02603590
v 0.04747190 -0.05838731 0.02878851
v 0.04747190 -0.05838731 0.02878851
v 0.05663551 -0.04994120 0.03219990
v 0.05663551 -0.04994120 0.03219990
v 0.06408180 -0.04014231 0.03614061
v 0.06408180 -0.04014231 0.03614061
v 0.06957526 -0.02929647 0.04051660
v 0.06957526 -0.02929647 0.04051660
v 0.07295132 -0.01773311 0.04517491
v 0.07295132 -0.01773311 0.04517491
v 0.07411594 -0.00579335 0.04998600
v 0.07411594 -0.00579335 0.04998600
v 0.07303369 0.00614653 0.05479731
v 0.07303369 0.00614653 0.05479731
v 0.06971639 0.01773331 0.05946730
v 0.06971639 0.01773331 0.05946730
v 0.06429349 0.02860257 0.06385510
v 0.06429349 0.02860257 0.06385510
v 0.05691777 0.03843673 0.06781931
v 0.05691777 0.03843673 0.06781931
v 0.04780118 0.04694166 0.07124250
v 0.04780118 0.04694166 0.07124250
v 0.03724955 0.05383500 0.07403041
v 0.03724955 0.05383500 0.07403041
v 0.02555672 0.05894025 0.07607721
v 0.02555672 0.05894025 0.07607721
v 0.02579204 0.06063421 0.07508911
v 0.02579204 0.06063421 0.07508911
v 0.02572141 0.06241049 0.07391281
v 0.01305232 0.06506898 0.07597129
v -0.00000500 0.06593950 0.07666542
v -0.00000500 0.06593950 0.07666542
v -0.01305045 0.06506896 0.07597129
v -0.02571966 0.06241048 0.07391281
v -0.02579023 0.06063420 0.07508911
v -0.02579023 0.06063420 0.07508911
v -0.03724767 0.05383497 0.07403041
v -0.03724767 0.05383497 0.07403041
v -0.03493029 0.04822392 0.07705359
v -0.03493029 0.04822392 0.07705359
v -0.03493029 0.04822392 0.07705359
v -0.04482329 0.04175400 0.07444210
v -0.04482329 0.04175400 0.07444210
v -0.04482329 0.04175400 0.07444210
v -0.05336351 0.03379016 0.07121889
v -0.05336351 0.03379016 0.07121889
v -0.05336351 0.03379016 0.07121889
v -0.06026864 0.02457952 0.06750171
v -0.06026864 0.02457952 0.06750171
v -0.06026864 0.02457952 0.06750171
v -0.06535041 0.01439243 0.06338461
v -0.06535041 0.01439243 0.06338461
v -0.06535041 0.01439243 0.06338461
v -0.06844419 0.00353503 0.05899681
v -0.06844419 0.00353503 0.05899681
v -0.06844419 0.00353503 0.05899681
v -0.06945580 -0.00765199 0.05447970
v -0.06945580 -0.00765199 0.05447970
v -0.06945580 -0.00765199 0.05447970
v -0.06836180 -0.01882721 0.04996251
v -0.06836180 -0.01882721 0.04996251
v -0.06836180 -0.01882721 0.04996251
v -0.06518570 -0.02966119 0.04558651
v -0.06518570 -0.02966119 0.04558651
v -0.06518570 -0.02966119 0.04558651
v -0.06003337 -0.03981304 0.04148121
v -0.06003337 -0.03981304 0.04148121
v -0.06003337 -0.03981304 0.04148121
v -0.05305765 -0.04898846 0.03777571
v -0.05305765 -0.04898846 0.03777571
v -0.05305765 -0.04898846 0.03777571
v -0.04447034 -0.05689340 0.03457610
v -0.04447034 -0.05689340 0.03457610
v -0.04447034 -0.05689340 0.03457610
v -0.03453038 -0.06330442 0.03198810
v -0.03453038 -0.06330442 0.03198810
v -0.03453038 -0.06330442 0.03198810
v -0.02354333 -0.06800978 0.03008240
v -0.02354333 -0.06800978 0.03008240
v -0.02354333 -0.06800978 0.03008240
v -0.01183889 -0.07088004 0.02892971
v -0.01183889 -0.07088004 0.02892971
v -0.01183889 -0.07088004 0.02892971
v -0.00000495 -0.07180934 0.02855310
v -0.00000495 -0.07180934 0.02855310
v -0.00000495 -0.07180934 0.02855310
v 0.01184073 -0.07088003 0.02892971
v 0.01184073 -0.07088003 0.02892971
v 0.01184073 -0.07088003 0.02892971
v 0.02354522 -0.06800976 0.03008240
v 0.02354522 -0.06800976 0.03008240
v 0.02354522 -0.06800976 0.03008240
v 0.03453214 -0.06330439 0.03198810
v 0.03453214 -0.06330439 0.03198810
v 0.03453214 -0.06330439 0.03198810
v 0.04447217 -0.05689337 0.03457610
v 0.04447217 -0.05689337 0.03457610
v 0.04447217 -0.05689337 0.03457610
v 0.05305947 -0.04898842 0.03777571
v 0.05305947 -0.04898842 0.03777571
v 0.05305947 -0.04898842 0.03777571
v 0.06003511 -0.03981300 0.04148121
v 0.06003511 -0.03981300 0.04148121
v 0.06003511 -0.03981300 0.04148121
v 0.06518752 -0.02966114 0.04558651
v 0.06518752 -0.02966114 0.04558651
v 0.06518752 -0.02966114 0.04558651
v 0.06836361 -0.01882716 0.04996251
v 0.06836361 -0.01882716 0.04996251
v 0.06836361 -0.01882716 0.04996251
v 0.06945760 -0.00765194 0.05447970
v 0.06945760 -0.00765194 0.05447970
v 0.06945760 -0.00765194 0.05447970
v 0.06844598 0.00353507 0.05899681
v 0.06844598 0.00353507 0.05899681
v 0.06844598 0.00353507 0.05899681
v 0.06535220 0.01439247 0.06338461
v 0.06535220 0.01439247 0.06338461
v 0.06535220 0.01439247 0.06338461
v 0.06027036 0.02457956 0.06750171
v 0.06027036 0.02457956 0.06750171
v 0.06027036 0.02457956 0.06750171
v 0.05336528 0.03379019 0.07121889
v 0.05336528 0.03379019 0.07121889
v 0.05336528 0.03379019 0.07121889
v 0.04482506 0.04175403 0.07444210
v 0.04482506 0.04175403 0.07444210
v 0.04482506 0.04175403 0.07444210
v 0.03493206 0.04822394 0.07705359
v 0.03493206 0.04822394 0.07705359
v 0.03493206 0.04822394 0.07705359
v 0.02398041 0.05299981 0.07898270
v 0.02398041 0.05299981 0.07898270
v 0.02398041 0.05299981 0.07898270
v 0.01229939 0.05594058 0.08017080
v 0.01229939 0.05594058 0.08017080
v 0.01229939 0.05594058 0.08017080
v 0.01307574 0.06206937 0.07734771
v 0.01307574 0.06206937 0.07734771
v 0.01316992 0.06386907 0.07650070
v 0.01316992 0.06386907 0.07650070
v -0.00000500 0.06498666 0.07699470
v -0.00000500 0.06498666 0.07699470
v -0.00000500 0.06498666 0.07699470
v -0.00000500 0.06498666 0.07699470
v -0.01316811 0.06386906 0.07650070
v -0.01316811 0.06386906 0.07650070
v -0.02555497 0.05894024 0.07607721
v -0.02555497 0.05894024 0.07607721
v -0.02397867 0.05299980 0.07898270
v -0.02397867 0.05299980 0.07898270
v -0.02397867 0.05299980 0.07898270
v -0.00000497 -0.00755785 0.05451502
v -0.00000497 -0.00755785 0.05451502
v -0.00000497 -0.00755785 0.05451502
v -0.00000497 -0.00755785 0.05451502
v -0.00000497 -0.00755785 0.05451502
v -0.00000497 -0.00755785 0.05451502
v -0.00000497 -0.00755785 0.05451502
v -0.00000497 -0.00755785 0.05451502
v -0.00000497 -0.00755785 0.05451502
v -0.00000497 -0.00755785 0.05451502
v -0.00000497 -0.00755785 0.05451502
v -0.00000497 -0.00755785 0.05451502
v -0.00000497 -0.00755785 0.05451502
v -0.00000497 -0.00755785 0.05451502
v -0.00000497 -0.00755785 0.05451502
v -0.00000497 -0.00755785 0.05451502
v -0.00000497 -0.00755785 0.05451502
v -0.00000497 -0.00755785 0.05451502
v -0.00000497 -0.00755785 0.05451502
v -0.00000497 -0.00755785 0.05451502
v -0.00000497 -0.00755785 0.05451502
v -0.00000497 -0.00755785 0.05451502
v -0.00000497 -0.00755785 0.05451502
v -0.00000497 -0.00755785 0.05451502
v -0.00000497 -0.00755785 0.05451502
v -0.00000497 -0.00755785 0.05451502
v -0.00000497 -0.00755785 0.05451502
v -0.00000497 -0.00755785 0.05451502
v -0.00000497 -0.00755785 0.05451502
v -0.00000497 -0.00755785 0.05451502
v -0.00000497 -0.00755785 0.05451502
v -0.00000497 -0.00755785 0.05451502
v -0.00000497 -0.00755785 0.05451502
v -0.00000497 -0.00755785 0.05451502
v -0.00000497 -0.00755785 0.05451502
v -0.00000497 -0.00755785 0.05451502
v -0.00000499 0.05695225 0.08058260
v -0.00000499 0.05695225 0.08058260
v -0.00000499 0.05695225 0.08058260
v -0.00000499 0.05695225 0.08058260
v -0.00000500 0.06313981 0.07778291
v -0.00000500 0.06313981 0.07778291
v -0.00000500 0.06313981 0.07778291
v -0.00000500 0.06313981 0.07778291
v -0.01308580 0.06206936 0.07734771
v -0.01308580 0.06206936 0.07734771
v -0.01229765 0.05594057 0.08017080
v -0.01229765 0.05594057 0.08017080
v -0.01229765 0.05594057 0.08017080
vn -0.65569973 0.74610197 -0.11571470
vn -0.57548201 0.69515723 -0.43078670
vn -0.49840048 0.86560011 -0.04830580
vn -0.38100350 0.87591100 -0.29600099
vn -0.33720520 0.94142395 0.00369322
vn -0.18501121 0.96973836 -0.15930609
vn -0.17498273 0.98441833 0.01736819
vn -0.00002518 0.99431318 -0.10649530
vn 0.00004496 0.99431437 -0.10648510
vn -0.00004037 0.99987382 0.01589000
vn 0.00000850 0.99987382 0.01589173
vn 0.17488778 0.98443484 0.01738792
vn 0.18496659 0.96975237 -0.15927251
vn 0.33720630 0.94142359 0.00369334
vn 0.38099951 0.87591255 -0.29600140
vn 0.49840003 0.86560166 -0.04828333
vn 0.65569925 0.74610376 -0.11570560
vn 0.57547629 0.69516259 -0.43078551
vn 0.57660615 0.23529209 -0.78240860
vn 0.41271809 0.39838675 -0.81911647
vn 0.22340441 0.58009708 -0.78331208
vn 0.00004502 0.66380972 -0.74790162
vn -0.00003698 0.66380972 -0.74790150
vn -0.22338849 0.58012122 -0.78329879
vn -0.41271332 0.39839354 -0.81911558
vn -0.57661027 0.23528850 -0.78240663
vn -0.72031254 0.14649107 -0.67800462
vn -0.76489079 0.44388726 -0.46680430
vn -0.80702680 0.57091087 -0.15089320
vn -0.86665165 0.49873102 -0.01350271
vn -0.76232135 0.64710367 -0.01109385
vn -0.63770395 0.77027082 -0.00409168
vn -0.49671656 0.86791193 0.00130647
vn -0.34116980 0.93997997 0.00638753
vn -0.17311013 0.98487234 0.00772506
vn -0.00000801 0.99996048 0.00890148
vn 0.00002448 0.99996060 0.00889468
vn 0.17309987 0.98487419 0.00770837
vn 0.34126741 0.93994349 0.00654399
vn 0.49674663 0.86789459 0.00133723
vn 0.63766718 0.77030051 -0.00421202
vn 0.76232189 0.64710313 -0.01109302
vn 0.86665255 0.49872938 -0.01350277
vn 0.80701453 0.57092112 -0.15091971
vn 0.76489210 0.44389764 -0.46679228
vn 0.72029287 0.14653444 -0.67801613
vn 0.83444351 0.01651743 -0.55084598
vn 0.70846039 0.02090775 -0.70544082
vn 0.55479449 0.02898866 -0.83148241
vn 0.38080710 0.04351365 -0.92363012
vn 0.19530278 0.05908876 -0.97896141
vn -0.00003392 0.06659966 -0.99777979
vn 0.00004548 0.06659090 -0.99778050
vn -0.19527101 0.05911713 -0.97896600
vn -0.38080761 0.04351389 -0.92362988
vn -0.55479401 0.02898716 -0.83148283
vn -0.70846093 0.02090645 -0.70544052
vn -0.83448827 0.01638921 -0.55078191
vn -0.92635119 0.01160025 -0.37648240
vn -0.85149306 0.09432645 -0.51581222
vn -0.88639814 0.27750120 -0.37052879
vn -0.91026634 0.39348230 -0.12879090
vn -0.94264412 0.33360791 -0.01130610
vn -0.93963510 0.34217820 0.00000000
vn -0.86642790 0.49930233 0.00000000
vn -0.76588345 0.64297968 0.00000000
vn -0.64297032 0.76589107 0.00000000
vn -0.49937788 0.86638433 0.00000040
vn -0.34159389 0.93984771 0.00000000
vn -0.17353433 0.98482782 0.00000000
vn -0.00003801 1.00000000 0.00000417
vn 0.00005441 1.00000000 0.00000419
vn 0.17349537 0.98483473 0.00000000
vn 0.34177211 0.93978304 0.00000000
vn 0.49927452 0.86644387 0.00000000
vn 0.64277118 0.76605827 0.00000000
vn 0.76588398 0.64297897 0.00000000
vn 0.86632919 0.49947348 0.00000000
vn 0.93963391 0.34218180 0.00000000
vn 0.94267636 0.33351690 -0.01130563
vn 0.91026908 0.39347801 -0.12878430
vn 0.88641280 0.27750361 -0.37049180
vn 0.85149443 0.09432266 -0.51581061
vn 0.92638361 0.01150959 -0.37640530
vn -0.00000033 1.00000000 0.00000000
vn 0.98070711 -0.00007958 -0.19548310
vn 0.92341512 0.00123024 -0.38380110
vn -0.00000033 1.00000000 0.00000000
vn -0.00000033 1.00000000 0.00000000
vn 0.83017677 -0.00009003 -0.55750042
vn -0.00000033 1.00000000 0.00000000
vn -0.00000033 1.00000000 -0.00000042
vn 0.70502049 0.00020888 -0.70918697
vn 0.55341160 0.00137764 -0.83290690
vn -0.00000033 1.00000000 -0.00000042
vn -0.00000033 1.00000000 0.00000042
vn 0.37893811 0.01396066 -0.92531681
vn -0.00000033 1.00000000 0.00000042
vn -0.00000033 1.00000000 -0.00000021
vn -0.00000033 1.00000000 -0.00000021
vn -0.00000033 1.00000000 0.00000000
vn 0.19420108 0.02951085 -0.98051780
vn -0.00004781 0.03649675 -0.99933392
vn 0.00003294 0.03640353 -0.99933720
vn -0.00000033 1.00000000 0.00000000
vn -0.00000033 1.00000000 0.00000000
vn -0.19420512 0.02939736 -0.98052043
vn -0.37890410 0.01413232 -0.92532802
vn -0.00000033 1.00000000 0.00000000
vn -0.55341148 0.00137716 -0.83290690
vn -0.00000033 1.00000000 0.00000000
vn -0.00000033 1.00000000 0.00000000
vn -0.70502102 0.00020504 -0.70918638
vn -0.00000033 1.00000000 0.00000085
vn -0.83020723 0.00035449 -0.55745488
vn -0.00000033 1.00000000 0.00000000
vn -0.00000033 1.00000000 0.00000085
vn -0.92342043 0.00120222 -0.38378820
vn -0.00000033 1.00000000 0.00000000
vn -0.98070151 -0.00000928 -0.19551151
vn -0.00000033 1.00000000 0.00000000
vn -0.99999791 -0.00188508 -0.00086329
vn -0.00000033 1.00000000 0.00000000
vn -0.00000033 1.00000000 0.00003556
vn -0.99998778 0.00098510 0.00486022
vn -0.98248428 0.00706623 -0.18621180
vn -0.94310510 0.05840480 -0.32732540
vn -0.96046436 0.15257959 -0.23286860
vn -0.97121167 0.22350529 -0.08242315
vn -0.98730528 0.15873568 -0.00559956
vn -0.98484516 0.17343637 0.00000000
vn -0.99996841 -0.00790068 -0.00099957
vn -1.00000000 -0.00003877 0.00000000
vn -0.98486286 -0.17333573 0.00003720
vn -0.98481262 -0.17362052 0.00000000
vn -0.94061208 -0.33948070 -0.00131160
vn -0.93970031 -0.34199920 0.00000000
vn -0.86658311 -0.49902567 -0.00269192
vn -0.86617595 -0.49973938 0.00000000
vn -0.76468319 -0.64440072 -0.00273895
vn -0.76588356 -0.64297926 0.00000000
vn -0.63938993 -0.76888150 -0.00139898
vn -0.64306879 -0.76580846 0.00000000
vn -0.49620524 -0.86820525 0.00000015
vn -0.49945584 -0.86633939 0.00000000
vn -0.33903801 -0.94077271 0.00001170
vn -0.34197751 -0.93970823 0.00000000
vn -0.17193477 -0.98510844 -0.00003093
vn -0.17353557 -0.98482764 0.00000000
vn -0.00003909 -0.99999982 0.00075180
vn -0.00003909 -1.00000000 0.00000000
vn 0.17349793 -0.98483425 0.00000000
vn 0.17207883 -0.98508334 0.00003890
vn 0.34215718 -0.93964279 0.00000000
vn 0.33907369 -0.94075978 0.00001946
vn 0.49922517 -0.86647224 0.00000046
vn 0.49612856 -0.86824900 0.00000022
vn 0.64287096 -0.76597458 0.00000000
vn 0.63942975 -0.76884830 -0.00139046
vn 0.76588535 -0.64297718 0.00000000
vn 0.76465571 -0.64443314 -0.00275916
vn 0.86617756 -0.49973643 0.00000000
vn 0.86667877 -0.49885935 -0.00274247
vn 0.93969953 -0.34200129 0.00000000
vn 0.94057775 -0.33957622 -0.00131333
vn 0.98481274 -0.17362037 0.00000000
vn 0.98486829 -0.17330527 0.00009058
vn 1.00000000 -0.00003863 0.00000000
vn 0.99996859 -0.00787035 -0.00099358
vn 0.98487955 0.17324103 0.00000000
vn 0.98731321 0.15868813 -0.00555307
vn 0.97121102 0.22350711 -0.08242475
vn 0.96045256 0.15260172 -0.23290250
vn 0.94326383 0.05859435 -0.32683361
vn 0.98248923 0.00688740 -0.18619290
vn 0.99998778 0.00098159 0.00484401
vn 0.99999791 -0.00190404 -0.00091027
vn -0.00000033 1.00000000 0.00000000
vn -0.00000033 1.00000000 -0.00006023
vn 0.98188829 0.00136848 0.18945619
vn 0.00015022 1.00000000 0.00004579
vn 0.98110300 -0.00258551 0.19346911
vn -0.00000033 1.00000000 -0.00006023
vn -0.00015090 1.00000000 0.00004532
vn -0.00013914 1.00000000 0.00007298
vn -0.00012207 1.00000000 0.00010007
vn 0.00015022 1.00000000 0.00004579
vn 0.00012135 1.00000000 0.00009916
vn 0.00012474 1.00000000 -0.00012783
vn 0.00013847 1.00000000 0.00007381
vn 0.00001512 1.00000000 0.00015641
vn -0.00001578 1.00000000 0.00015653
vn -0.00007477 1.00000000 0.00013821
vn -0.00004624 1.00000000 0.00015012
vn 0.00009956 1.00000000 0.00012129
vn 0.00007412 1.00000000 0.00013862
vn -0.00000033 1.00000000 -0.00006023
vn -0.00000033 1.00000000 0.00000000
vn 0.00004559 1.00000000 0.00015012
vn -0.00000033 1.00000000 -0.00000042
vn -0.00000033 1.00000000 0.00000042
vn -0.00000033 1.00000000 -0.00000021
vn -0.00000033 1.00000000 0.00000085
vn -0.00000033 1.00000000 0.00003556
vn -0.00015090 1.00000000 0.00004532
vn -0.00000033 1.00000000 0.00003556
vn -0.98110330 -0.00258501 0.19346780
vn -0.98190898 0.00137506 0.18934840
vn -0.98591530 0.02409688 0.16550081
vn -0.99985641 0.01197162 0.01199901
vn -0.98881513 0.02729598 -0.14662760
vn -0.99349660 0.06189052 -0.09557163
vn -0.99674678 0.07330843 -0.03348886
vn -0.99958527 -0.02732262 -0.00910520
vn -0.98551947 -0.16937172 -0.00804287
vn -0.94268948 -0.33348611 -0.01111710
vn -0.86521864 -0.50124842 -0.01212388
vn -0.75783354 -0.65237516 -0.00974846
vn -0.62851053 -0.77777028 -0.00692761
vn -0.48616520 -0.87386268 -0.00274289
vn -0.33190051 -0.94331372 0.00115687
vn -0.16849408 -0.98570007 0.00230503
vn -0.00003805 -0.99999511 0.00315601
vn 0.16811822 -0.98576415 0.00230187
vn 0.33189660 -0.94331521 0.00109249
vn 0.48618379 -0.87385243 -0.00272870
vn 0.62851131 -0.77776974 -0.00692743
vn 0.75779605 -0.65241885 -0.00973773
vn 0.86524296 -0.50120592 -0.01213490
vn 0.94268912 -0.33348200 -0.01126807
vn 0.98553616 -0.16928348 -0.00784731
vn 0.99958527 -0.02732041 -0.00910503
vn 0.99674290 0.07340278 -0.03340339
vn 0.99348313 0.06190260 -0.09570473
vn 0.98881608 0.02729751 -0.14662120
vn 0.99985588 0.01200750 0.01199936
vn 0.98591793 0.02406903 0.16548970
vn 0.94439012 0.06374259 0.32259020
vn 0.92755681 0.00772518 0.37360230
vn 0.92470318 -0.00250661 0.38068080
vn 0.00015022 1.00000000 0.00004579
vn 0.00013847 1.00000000 0.00007381
vn 0.83289528 -0.00140091 0.55342889
vn 0.00012135 1.00000000 0.00009916
vn 0.00013847 1.00000000 0.00007381
vn 0.00009956 1.00000000 0.00012129
vn 0.70821279 -0.00176115 0.70599687
vn 0.00012135 1.00000000 0.00009916
vn 0.55692983 -0.00137984 0.83055848
vn 0.00009956 1.00000000 0.00012129
vn 0.00007412 1.00000000 0.00013862
vn 0.00004559 1.00000000 0.00015012
vn 0.38423789 -0.00264715 0.92323041
vn 0.00007412 1.00000000 0.00013862
vn 0.19609150 -0.00332039 0.98058009
vn 0.00004559 1.00000000 0.00015012
vn 0.00001512 1.00000000 0.00015641
vn -0.00001578 1.00000000 0.00015653
vn 0.00001177 -0.00389373 0.99999249
vn 0.00001512 1.00000000 0.00015641
vn 0.00000609 -0.00390875 0.99999237
vn -0.19609790 -0.00352234 0.98057812
vn -0.00004624 1.00000000 0.00015012
vn -0.00001578 1.00000000 0.00015653
vn -0.00007477 1.00000000 0.00013821
vn -0.38423750 -0.00264663 0.92323053
vn -0.00004624 1.00000000 0.00015012
vn 0.00012470 1.00000000 -0.00012787
vn -0.55671918 -0.00138003 0.83069968
vn -0.00007477 1.00000000 0.00013821
vn -0.70825177 -0.00176083 0.70595777
vn 0.00012474 1.00000000 -0.00012783
vn -0.00012207 1.00000000 0.00010007
vn -0.83273071 -0.00136206 0.55367672
vn -0.00013914 1.00000000 0.00007298
vn -0.00012207 1.00000000 0.00010007
vn -0.92457020 -0.00249976 0.38100359
vn -0.00013914 1.00000000 0.00007298
vn -0.00015090 1.00000000 0.00004532
vn -0.92753750 0.00780850 0.37364879
vn -0.94438988 0.06373911 0.32259139
vn -0.94880986 0.17490439 0.26299900
vn -0.99149251 0.06980053 0.10986650
vn -0.99949843 0.03141668 0.00399750
vn -0.99942511 -0.03352055 -0.00509113
vn -0.98623747 -0.16486223 -0.01249736
vn -0.94257766 -0.33358461 -0.01639425
vn -0.86261129 -0.50564849 -0.01487487
vn -0.75151897 -0.65959394 -0.01245719
vn -0.61858457 -0.78567439 -0.00831234
vn -0.47570220 -0.87959731 -0.00400644
vn -0.32473481 -0.94580179 0.00253975
vn -0.16385758 -0.98645937 0.00697750
vn -0.00003764 -0.99996901 0.00788981
vn 0.16393433 -0.98644721 0.00688225
vn 0.32477480 -0.94578821 0.00251305
vn 0.47568110 -0.87960881 -0.00396383
vn 0.61857372 -0.78568339 -0.00826436
vn 0.75152946 -0.65958238 -0.01244288
vn 0.86261487 -0.50564271 -0.01486885
vn 0.94259244 -0.33354431 -0.01636439
vn 0.98626506 -0.16469628 -0.01251047
vn 0.99942559 -0.03350564 -0.00509787
vn 0.99950242 0.03128733 0.00400311
vn 0.99148858 0.06979759 0.10990410
vn 0.94881415 0.17493571 0.26296261
vn 0.85459828 0.28951097 0.43109801
vn 0.85359764 0.12942038 0.50460029
vn 0.83896071 0.02207639 0.54374421
vn 0.71791178 0.03825092 0.69508249
vn 0.56401467 0.05058753 0.82421380
vn 0.38808846 0.04636920 0.92045492
vn 0.19693318 0.03676253 0.97972751
vn 0.00003700 0.03119939 0.99951321
vn -0.00006765 0.03119301 0.99951351
vn -0.19691852 0.03678244 0.97972971
vn -0.38808823 0.04636876 0.92045522
vn -0.56401509 0.05058646 0.82421362
vn -0.71790951 0.03825516 0.69508457
vn -0.83896643 0.02198526 0.54373890
vn -0.85359699 0.12942292 0.50460082
vn -0.85460365 0.28948772 0.43110281
vn -0.81098563 0.44149962 0.38390168
vn -0.91445321 0.32564649 0.24027030
vn -0.97266567 0.19712919 0.12272630
vn -0.99584371 0.07874014 0.04577565
vn -0.99958921 -0.02639749 0.01117378
vn -0.98422712 -0.17684813 -0.00465524
vn -0.93724406 -0.34851989 -0.01036500
vn -0.85605162 -0.51677132 -0.01109951
vn -0.74614316 -0.66566831 -0.01249045
vn -0.61599874 -0.78764826 -0.01248157
vn -0.47250920 -0.88124257 -0.01211512
vn -0.32071111 -0.94713789 -0.00861645
vn -0.16199787 -0.98677623 -0.00541729
vn -0.00001541 -0.99999648 -0.00265580
vn 0.16267243 -0.98666346 -0.00573373
vn 0.32069051 -0.94714171 -0.00896096
vn 0.47251010 -0.88124204 -0.01211458
vn 0.61593205 -0.78769970 -0.01252526
vn 0.74608326 -0.66573644 -0.01244652
vn 0.85602856 -0.51680863 -0.01112985
vn 0.93721700 -0.34859410 -0.01032423
vn 0.98423088 -0.17682867 -0.00463408
vn 0.99958921 -0.02639594 0.01117330
vn 0.99588847 0.07848087 0.04524469
vn 0.97266585 0.19712992 0.12272310
vn 0.91448200 0.32560670 0.24021450
vn 0.81098020 0.44150376 0.38390839
vn 0.66449982 0.51480001 0.54168350
vn 0.69297719 0.37529305 0.61557943
vn 0.71448553 0.18630154 0.67439020
vn 0.54489994 0.21490328 0.81049412
vn 0.36308914 0.19360802 0.91141778
vn 0.17799164 0.16141926 0.97070217
vn 0.00005156 0.14528120 0.98939037
vn -0.00004623 0.14528750 0.98938948
vn -0.17801257 0.16128534 0.97072071
vn -0.36309707 0.19369288 0.91139662
vn -0.54487413 0.21484582 0.81052673
vn -0.71449834 0.18628016 0.67438263
vn -0.69298154 0.37528005 0.61558229
vn -0.66450489 0.51479769 0.54167950
vn -0.65738559 0.57159019 0.49104881
vn -0.65741408 0.57169974 0.49088290
vn -0.78696930 0.50527805 0.35408109
vn -0.78695035 0.50526178 0.35414651
vn -0.88903981 0.39792329 0.22641841
vn -0.88906991 0.39790249 0.22633681
vn -0.95381856 0.27350360 0.12420170
vn -0.95401305 0.27222770 0.12550370
vn -0.98895448 0.13647898 0.05781638
vn -0.98895419 0.13649167 0.05779147
vn -0.99980098 -0.00592777 0.01904600
vn -0.99981892 -0.00603106 0.01805138
vn -0.98598445 -0.16683702 -0.00003806
vn -0.98598611 -0.16682763 0.00004670
vn -0.93988770 -0.34139931 -0.00760376
vn -0.93987840 -0.34142819 -0.00743824
vn -0.86084515 -0.50875092 -0.01088243
vn -0.86086732 -0.50871569 -0.01075965
vn -0.75344056 -0.65736991 -0.01385843
vn -0.75352436 -0.65727365 -0.01387566
vn -0.62485284 -0.78053439 -0.01803374
vn -0.62477559 -0.78059626 -0.01803058
vn -0.48162091 -0.87611741 -0.02143883
vn -0.48128769 -0.87629759 -0.02156376
vn -0.32749242 -0.94461393 -0.02128970
vn -0.32749039 -0.94461101 -0.02145099
vn -0.16588928 -0.98597527 -0.01826435
vn -0.16572987 -0.98600006 -0.01837122
vn 0.00000289 -0.99985647 -0.01694458
vn 0.00000020 -0.99985772 -0.01687395
vn 0.16589352 -0.98597503 -0.01823759
vn 0.16574693 -0.98599762 -0.01835262
vn 0.32749370 -0.94460899 -0.02149081
vn 0.32753921 -0.94458646 -0.02178329
vn 0.48172271 -0.87606490 -0.02129924
vn 0.48129869 -0.87629080 -0.02158421
vn 0.62477475 -0.78059614 -0.01806378
vn 0.62478834 -0.78058439 -0.01809936
vn 0.75351477 -0.65728438 -0.01389062
vn 0.75347602 -0.65732974 -0.01384019
vn 0.86083895 -0.50875831 -0.01102423
vn 0.86086827 -0.50871378 -0.01077777
vn 0.93988985 -0.34139371 -0.00759774
vn 0.93988031 -0.34142011 -0.00757301
vn 0.98598438 -0.16683787 -0.00003552
vn 0.98598456 -0.16683707 0.00005248
vn 0.99982011 -0.00600049 0.01799625
vn 0.99980110 -0.00592586 0.01904654
vn 0.98895085 0.13649192 0.05784702
vn 0.98894906 0.13651773 0.05781614
vn 0.95382291 0.27349418 0.12418910
vn 0.95401543 0.27219129 0.12556530
vn 0.88908505 0.39789361 0.22629330
vn 0.88908219 0.39785701 0.22636890
vn 0.78697181 0.50527877 0.35407451
vn 0.78691125 0.50530684 0.35416889
vn 0.65740335 0.57166576 0.49093720
vn 0.65738380 0.57170522 0.49091721
vn 0.49692473 0.58778888 0.63841230
vn 0.49688932 0.58776730 0.63845962
vn 0.49539703 0.52389628 0.69290298
vn 0.51378411 0.39149839 0.76338392
vn 0.33331907 0.34877983 0.87592858
vn 0.15859900 0.28201276 0.94621092
vn -0.00001777 0.24868880 0.96858352
vn 0.00001988 0.24869619 0.96858162
vn -0.15860879 0.28197855 0.94621962
vn -0.33326453 0.34860098 0.87602073
vn -0.51377690 0.39151073 0.76338237
vn -0.49539629 0.52389735 0.69290268
vn -0.49690118 0.58781600 0.63840538
vn -0.49692479 0.58778870 0.63841230
vn -0.46594679 0.25444594 0.84743792
vn -0.46576798 0.25446135 0.84753138
vn -0.55535406 0.17003211 0.81404608
vn -0.55527479 0.17024001 0.81405657
vn -0.62681723 0.07513324 0.77553540
vn -0.62723708 0.07559088 0.77515149
vn -0.68022829 -0.03096548 0.73234612
vn -0.67989308 -0.03091184 0.73265940
vn -0.71184164 -0.14329514 0.68756682
vn -0.71179837 -0.14348704 0.68757153
vn -0.72226232 -0.26050374 0.64068317
vn -0.72200942 -0.26019323 0.64109433
vn -0.71008158 -0.37639275 0.59507382
vn -0.71014440 -0.37640843 0.59498888
vn -0.67622542 -0.48985600 0.55023670
vn -0.67616743 -0.48991740 0.55025309
vn -0.62266731 -0.59505099 0.50813371
vn -0.62255383 -0.59551907 0.50772411
vn -0.54999334 -0.69048065 0.46983370
vn -0.55002993 -0.69051087 0.46974659
vn -0.46048716 -0.77238399 0.43746379
vn -0.46051887 -0.77230698 0.43756649
vn -0.35846993 -0.83781475 0.41178390
vn -0.35843772 -0.83785182 0.41173631
vn -0.24410552 -0.88722074 0.39147389
vn -0.24404861 -0.88717717 0.39160830
vn -0.12209810 -0.91691554 0.37994459
vn -0.12223020 -0.91682863 0.38011161
vn 0.00000176 -0.92619479 0.37704539
vn -0.00000026 -0.92613482 0.37719291
vn 0.12203170 -0.91686505 0.38008761
vn 0.12212780 -0.91688067 0.38001931
vn 0.24404588 -0.88715202 0.39166689
vn 0.24411888 -0.88720524 0.39150110
vn 0.35838237 -0.83783096 0.41182691
vn 0.35840568 -0.83779597 0.41187781
vn 0.46053225 -0.77230680 0.43755281
vn 0.46040845 -0.77213103 0.43799290
vn 0.55002487 -0.69050205 0.46976581
vn 0.55002361 -0.69057465 0.46966031
vn 0.62253231 -0.59549224 0.50778210
vn 0.62266356 -0.59505123 0.50813782
vn 0.67616451 -0.48991188 0.55026168
vn 0.67665917 -0.48964620 0.54989010
vn 0.71005964 -0.37637126 0.59511340
vn 0.71016175 -0.37640306 0.59497142
vn 0.72201937 -0.26019156 0.64108372
vn 0.72225738 -0.26050717 0.64068753
vn 0.71181828 -0.14344107 0.68756062
vn 0.71183264 -0.14326416 0.68758249
vn 0.68028837 -0.03065450 0.73230332
vn 0.68019450 -0.03100879 0.73237562
vn 0.62696463 0.07514097 0.77541560
vn 0.62679672 0.07515217 0.77555043
vn 0.55534154 0.17004418 0.81405222
vn 0.55528307 0.17014947 0.81406999
vn 0.46600640 0.25447425 0.84739661
vn 0.46590900 0.25442624 0.84746462
vn 0.36301377 0.32323682 0.87392157
vn 0.36450139 0.32182953 0.87382191
vn 0.24912807 0.37145668 0.89440221
vn 0.24880779 0.37170410 0.89438850
vn 0.32988513 0.54716903 0.76927382
vn 0.32979241 0.54536104 0.77059621
vn 0.32229635 0.47561023 0.81848639
vn 0.15400778 0.37862796 0.91264588
vn -0.00002098 0.32550329 0.94554102
vn 0.00002900 0.32550371 0.94554090
vn -0.15400662 0.37863254 0.91264421
vn -0.32230055 0.47555789 0.81851530
vn -0.32979348 0.54535300 0.77060127
vn -0.32988378 0.54715979 0.76928079
vn -0.36300382 0.32328069 0.87390947
vn -0.36449042 0.32181189 0.87383282
vn -0.00001851 -0.37375990 0.92752558
vn -0.36440402 0.32167399 0.87391973
vn -0.00002344 -0.37375209 0.92752868
vn -0.46718910 0.25284994 0.84723163
vn -0.00000008 -0.37390900 0.92746550
vn 0.00000262 -0.37392929 0.92745721
vn 0.00018240 -0.37436661 0.92728090
vn -0.55578136 0.17160952 0.81342328
vn 0.00001953 -0.37382180 0.92750061
vn 0.00018240 -0.37436661 0.92728090
vn -0.62704402 0.07491342 0.77537340
vn -0.00000558 -0.37425330 0.92732650
vn -0.68001562 -0.03149817 0.73252082
vn -0.00000453 -0.37407541 0.92739832
vn 0.00000030 -0.37388179 0.92747641
vn 0.00000034 -0.37379459 0.92751157
vn -0.71094805 -0.14493774 0.68814683
vn -0.00000119 -0.37365940 0.92756599
vn 0.00000610 -0.37397239 0.92743993
vn -0.72197586 -0.26046965 0.64101988
vn 0.00000268 -0.37395480 0.92744702
vn -0.00000158 -0.37389559 0.92747080
vn -0.71009427 -0.37633023 0.59509808
vn 0.00000036 -0.37386590 0.92748278
vn -0.67608470 -0.48999530 0.55028552
vn 0.00000929 -0.37420711 0.92734522
vn -0.00000319 -0.37405291 0.92740750
vn 0.00000012 -0.37405249 0.92740762
vn 0.00001469 -0.37399530 0.92743069
vn -0.62232703 -0.59555340 0.50796193
vn 0.00000794 -0.37390429 0.92746741
vn 0.00000765 -0.37393671 0.92745417
vn -0.55001974 -0.69049597 0.46978030
vn -0.46055636 -0.77227300 0.43758699
vn 0.00001049 -0.37393609 0.92745447
vn -0.00003820 -0.37404871 0.92740911
vn -0.00000766 -0.37382761 0.92749822
vn -0.00000935 -0.37387231 0.92748022
vn -0.35702473 -0.83839160 0.41186521
vn 0.00000326 -0.37382489 0.92749941
vn -0.00000218 -0.37385291 0.92748809
vn -0.24399471 -0.88719267 0.39160690
vn -0.00005092 -0.37421021 0.92734390
vn -0.00002023 -0.37413749 0.92737329
vn -0.12210400 -0.91686803 0.38005751
vn -0.00000031 -0.37379649 0.92751080
vn 0.00000472 -0.37384081 0.92749292
vn -0.00003078 -0.92627567 0.37684661
vn -0.00014192 -0.37373081 0.92753720
vn -0.00011867 -0.37374961 0.92752969
vn 0.12270699 -0.91671604 0.38022980
vn 0.24421458 -0.88718873 0.39147881
vn -0.00002657 -0.37423870 0.92733252
vn 0.00000892 -0.37415040 0.92736810
vn 0.35702458 -0.83839148 0.41186559
vn 0.00003046 -0.37395901 0.92744517
vn 0.00000806 -0.37382761 0.92749822
vn 0.00005532 -0.37427619 0.92731732
vn -0.00002210 -0.37416431 0.92736250
vn 0.45994565 -0.77251810 0.43779620
vn 0.00000371 -0.37384760 0.92749017
vn 0.00003396 -0.37407881 0.92739701
vn 0.55002296 -0.69049513 0.46977800
vn 0.00003051 -0.37407911 0.92739677
vn -0.00000239 -0.37387299 0.92747992
vn 0.62246728 -0.59551394 0.50783628
vn 0.00000185 -0.37387350 0.92747980
vn 0.00000056 -0.37389559 0.92747080
vn 0.67590499 -0.49050620 0.55005121
vn 0.00000037 -0.37398449 0.92743510
vn -0.00000000 -0.37391031 0.92746490
vn 0.71007019 -0.37663475 0.59493411
vn 0.72202414 -0.26036575 0.64100760
vn -0.00001188 -0.37422141 0.92733949
vn -0.00003656 -0.37441611 0.92726082
vn 0.71084487 -0.14491926 0.68825728
vn -0.00000018 -0.37379459 0.92751151
vn 0.00000317 -0.37379280 0.92751229
vn -0.00000075 -0.37385321 0.92748791
vn -0.00000014 -0.37388179 0.92747641
vn 0.68042618 -0.03127320 0.73214912
vn 0.62690479 0.07505675 0.77547210
vn -0.00000504 -0.37385330 0.92748791
vn -0.00001664 -0.37394920 0.92744923
vn -0.00018214 -0.37436649 0.92728090
vn -0.00000932 -0.37405080 0.92740822
vn 0.55576754 0.17166698 0.81342048
vn 0.46725440 0.25295645 0.84716368
vn -0.00000608 -0.37402082 0.92742038
vn -0.00002857 -0.37391669 0.92746240
vn -0.00002339 -0.37415871 0.92736483
vn -0.00006284 -0.37423739 0.92733288
vn 0.36441058 0.32165500 0.87392402
vn 0.00000086 -0.37407079 0.92740017
vn -0.00000423 -0.37408090 0.92739612
vn 0.24999198 0.37058029 0.89452457
vn 0.12772736 0.40149432 0.90691131
vn 0.00000628 -0.37390319 0.92746782
vn -0.00000822 -0.37388480 0.92747521
vn 0.12630317 0.40267953 0.90658528
vn 0.12629457 0.40277913 0.90654230
vn 0.16171075 0.45004886 0.87824023
vn 0.16167966 0.44997236 0.87828499
vn -0.00001581 0.38019261 0.92490733
vn 0.00005253 0.38016799 0.92491752
vn -0.00000154 0.38020280 0.92490310
vn -0.00001294 0.38020662 0.92490172
vn -0.16168505 0.44998264 0.87827891
vn -0.16170265 0.45005864 0.87823647
vn -0.24914283 0.37140182 0.89442080
vn -0.24881822 0.37173861 0.89437127
vn 0.00000713 -0.37430331 0.92730641
vn -0.25008702 0.37052631 0.89452052
vn 0.00000217 -0.37407050 0.92740041
vn 0.00000438 -0.37348369 0.92763680
vn -0.00000612 -0.37345451 0.92764860
vn 0.00000341 -0.37352741 0.92761922
vn 0.00000283 -0.37343711 0.92765558
vn 0.00001332 -0.37363410 0.92757618
vn 0.00000132 -0.37354180 0.92761338
vn 0.00018240 -0.37436661 0.92728090
vn 0.00000233 -0.37349221 0.92763341
vn -0.00000108 -0.37347660 0.92763972
vn 0.00000257 -0.37351000 0.92762619
vn 0.00000277 -0.37345839 0.92764700
vn -0.00001094 -0.37342909 0.92765880
vn 0.00000195 -0.37349209 0.92763352
vn 0.00000259 -0.37354740 0.92761111
vn 0.00000638 -0.37347349 0.92764092
vn 0.00001065 -0.37345520 0.92764831
vn 0.00000204 -0.37349549 0.92763209
vn 0.00000515 -0.37347719 0.92763942
vn 0.00000012 -0.37347111 0.92764181
vn 0.00000211 -0.37349531 0.92763209
vn 0.00000464 -0.37351149 0.92762572
vn 0.00000144 -0.37349391 0.92763257
vn -0.00001602 -0.37358120 0.92759752
vn 0.00000615 -0.37344021 0.92765433
vn 0.00000305 -0.37346551 0.92764407
vn 0.00000429 -0.37347159 0.92764169
vn 0.00002255 -0.37345529 0.92764831
vn 0.00000446 -0.37352869 0.92761862
vn -0.00000513 -0.37346190 0.92764562
vn 0.00000186 -0.37348160 0.92763770
vn -0.00000070 -0.37351209 0.92762530
vn -0.00000017 -0.37348309 0.92763710
vn 0.00000145 -0.37345290 0.92764920
vn 0.00000540 -0.37345702 0.92764759
vn 0.00000074 -0.37352759 0.92761910
vn 0.00000931 -0.37346259 0.92764533
vn -0.00002566 0.41269091 0.91087121
vn -0.00000438 -0.37383771 0.92749423
vn 0.00001202 0.41269290 0.91087031
vn -0.00000774 -0.37388071 0.92747688
vn -0.00000556 0.41268301 0.91087478
vn -0.00004530 0.41267618 0.91087782
vn 0.00003211 0.41267559 0.91087812
vn 0.00001314 0.41268671 0.91087312
vn -0.12630464 0.40280947 0.90652728
vn -0.12630284 0.40269977 0.90657628
vn 0.00000746 -0.37390319 0.92746782
vn 0.00002010 -0.37379551 0.92751121
vn -0.12787074 0.40149388 0.90689123
vt 0.29433930 0.04418951
vt 0.29702049 0.03391170
vt 0.30182421 0.03614598
vt 0.30428201 0.02642679
vt 0.30841541 0.02843767
vt 0.31042630 0.01894181
vt 0.31422460 0.02084106
vt 0.31567690 0.01134520
vt 0.31567690 0.33732969
vt 0.31891659 0.01279759
vt 0.31891659 0.33587739
vt 0.31422460 0.32794571
vt 0.31042630 0.32973310
vt 0.30841541 0.32034901
vt 0.30428201 0.32224819
vt 0.30182421 0.31264070
vt 0.29433930 0.30448550
vt 0.29702049 0.31476331
vt 0.29288700 0.31733271
vt 0.30093050 0.32437080
vt 0.30774510 0.33152050
vt 0.31366610 0.33867031
vt 0.31366610 0.01000463
vt 0.30774510 0.01715445
vt 0.30093050 0.02430421
vt 0.29288700 0.03134220
vt 0.28305611 0.03838032
vt 0.28618410 0.04340744
vt 0.28618410 0.05290329
vt 0.30484050 0.06485676
vt 0.30595771 0.05603122
vt 0.30774510 0.04720580
vt 0.30997941 0.03849202
vt 0.31288400 0.02989000
vt 0.31623551 0.02139955
vt 0.31981030 0.01302099
vt 0.31981030 0.33576569
vt 0.31623551 0.32727531
vt 0.31288400 0.31878501
vt 0.30997941 0.31018290
vt 0.30774510 0.30146921
vt 0.30595771 0.29264370
vt 0.30484050 0.28381819
vt 0.28618410 0.29577169
vt 0.28618410 0.30526751
vt 0.28305611 0.31029469
vt 0.26976201 0.31264070
vt 0.27914610 0.31699759
vt 0.28819501 0.32213649
vt 0.29623851 0.32828081
vt 0.30327651 0.33531880
vt 0.31020281 0.00609469
vt 0.31020281 0.34258029
vt 0.30327651 0.01335608
vt 0.29623851 0.02039420
vt 0.28819501 0.02653855
vt 0.27914610 0.03167742
vt 0.26976201 0.03614598
vt 0.26004279 0.04005599
vt 0.27233151 0.04553008
vt 0.27534780 0.05267977
vt 0.27769381 0.06206387
vt 0.30417031 0.07368224
vt 0.32081580 0.07479941
vt 0.32148609 0.06675595
vt 0.32249150 0.05871242
vt 0.32405549 0.05078065
vt 0.32617810 0.04296064
vt 0.32885930 0.03502887
vt 0.33198729 0.02687358
vt 0.33522701 0.01849502
vt 0.33522701 0.33017990
vt 0.33198729 0.32180130
vt 0.32885930 0.31364611
vt 0.32617810 0.30582610
vt 0.32405549 0.29789430
vt 0.32249150 0.28996250
vt 0.32148609 0.28203079
vt 0.32081580 0.27387559
vt 0.30417031 0.27499270
vt 0.27769381 0.28672281
vt 0.27534780 0.29610690
vt 0.27233151 0.30314490
vt 0.26004279 0.30861899
vt 0.11570700 0.74966979
vt 0.24909470 0.32135451
vt 0.25859049 0.32213649
vt 0.11961700 0.74006242
vt 0.12542620 0.73146027
vt 0.26786289 0.32314190
vt 0.13279940 0.72419882
vt 0.13279940 0.72419882
vt 0.27691180 0.32492939
vt 0.28540209 0.32783401
vt 0.14140140 0.71838957
vt 0.14140140 0.71838957
vt 0.29344559 0.33219081
vt 0.15100890 0.71459132
vt 0.15100890 0.71459132
vt 0.16117500 0.71269220
vt 0.16117500 0.71269220
vt 0.30070710 0.33822340
vt 0.30785689 0.00341350
vt 0.30785689 0.34526151
vt 0.17145281 0.71269220
vt 0.18150710 0.71470302
vt 0.30070710 0.01045149
vt 0.29344559 0.01648420
vt 0.19111460 0.71861303
vt 0.28540209 0.02084106
vt 0.19971670 0.72431052
vt 0.20708990 0.73157197
vt 0.27691180 0.02374565
vt 0.21278730 0.74017411
vt 0.26786289 0.02553308
vt 0.21278730 0.74017411
vt 0.21680909 0.74978161
vt 0.25859049 0.02665019
vt 0.21680909 0.74978161
vt 0.24909470 0.02732050
vt 0.21881990 0.75994760
vt 0.23937550 0.02776736
vt 0.21881990 0.77033710
vt 0.21881990 0.77033710
vt 0.24026930 0.04876983
vt 0.25021190 0.04385429
vt 0.26048970 0.05323839
vt 0.26328251 0.06284588
vt 0.26875660 0.07155966
vt 0.30383509 0.08239603
vt 0.32059240 0.08306634
vt 0.30383509 0.09133321
vt 0.32048070 0.09166836
vt 0.30394679 0.10049380
vt 0.32059240 0.10060560
vt 0.30394679 0.10965440
vt 0.32070410 0.10976610
vt 0.30405861 0.11892680
vt 0.32070410 0.11892680
vt 0.30405861 0.12819910
vt 0.32070410 0.12819910
vt 0.30405861 0.13747139
vt 0.32070410 0.13735969
vt 0.30405861 0.14663211
vt 0.32081580 0.14663211
vt 0.30405861 0.15590450
vt 0.32081580 0.15590450
vt 0.30405861 0.16506509
vt 0.32081580 0.16506509
vt 0.30405861 0.17433751
vt 0.32081580 0.17433751
vt 0.32081580 0.18360980
vt 0.30405861 0.18360980
vt 0.32081580 0.19288211
vt 0.30405861 0.19277041
vt 0.32081580 0.20204280
vt 0.30405861 0.20204280
vt 0.32070410 0.21131501
vt 0.30405861 0.21131501
vt 0.32070410 0.22047570
vt 0.30405861 0.22047570
vt 0.32070410 0.22974810
vt 0.30405861 0.22974810
vt 0.32070410 0.23902041
vt 0.30394679 0.23902041
vt 0.32059240 0.24818111
vt 0.30394679 0.24818111
vt 0.32048070 0.25700659
vt 0.30383509 0.25745350
vt 0.32059240 0.26560870
vt 0.30383509 0.26627889
vt 0.26875660 0.27711528
vt 0.26328251 0.28582910
vt 0.26048970 0.29543659
vt 0.25021190 0.30493239
vt 0.24026930 0.30001691
vt 0.23937550 0.32101929
vt 0.11358430 0.75972420
vt 0.11358430 0.75972420
vt 0.22999141 0.30068719
vt 0.11358430 0.77011371
vt 0.22965629 0.32079589
vt 0.11358430 0.77011371
vt 0.16620220 0.76508647
vt 0.16620220 0.76508647
vt 0.16620220 0.76508647
vt 0.16620220 0.76508647
vt 0.16620220 0.76508647
vt 0.16620220 0.76508647
vt 0.16620220 0.76508647
vt 0.16620220 0.76508647
vt 0.16620220 0.76508647
vt 0.16620220 0.76508647
vt 0.16620220 0.76508647
vt 0.16620220 0.76508647
vt 0.16620220 0.76508647
vt 0.16620220 0.76508647
vt 0.16620220 0.76508647
vt 0.16620220 0.76508647
vt 0.16620220 0.76508647
vt 0.16620220 0.76508647
vt 0.16620220 0.76508647
vt 0.16620220 0.76508647
vt 0.16620220 0.76508647
vt 0.21680909 0.78050321
vt 0.21680909 0.78050321
vt 0.22965629 0.02787905
vt 0.22999141 0.04798775
vt 0.23021489 0.06161695
vt 0.24093939 0.06329274
vt 0.25088221 0.05949437
vt 0.25266960 0.07178312
vt 0.25970769 0.08139061
vt 0.25981939 0.09122151
vt 0.25981939 0.10060560
vt 0.25993109 0.10998960
vt 0.25993109 0.11937360
vt 0.25993109 0.12864600
vt 0.25993109 0.13791840
vt 0.25993109 0.14707901
vt 0.25993109 0.15635130
vt 0.25993109 0.16540021
vt 0.25993109 0.17433751
vt 0.25993109 0.18327460
vt 0.25993109 0.19243529
vt 0.25993109 0.20159590
vt 0.25993109 0.21075650
vt 0.25993109 0.22002891
vt 0.25993109 0.22930120
vt 0.25993109 0.23868529
vt 0.25981939 0.24806941
vt 0.25981939 0.25745350
vt 0.25970769 0.26739609
vt 0.25266960 0.27689189
vt 0.25088221 0.28918049
vt 0.24093939 0.28538221
vt 0.23021489 0.28705791
vt 0.21960190 0.29230860
vt 0.21960190 0.30336830
vt 0.21960190 0.32090759
vt 0.11559530 0.78027981
vt 0.11559530 0.78027981
vt 0.20965929 0.32090759
vt 0.11950530 0.78988731
vt 0.11950530 0.78988731
vt 0.12520281 0.79848927
vt 0.19994010 0.32157791
vt 0.12520281 0.79848927
vt 0.19022091 0.32269499
vt 0.13257590 0.80586249
vt 0.13257590 0.80586249
vt 0.14117800 0.81167167
vt 0.18039000 0.32437080
vt 0.14117800 0.81167167
vt 0.17055909 0.32649329
vt 0.15067381 0.81569338
vt 0.15067381 0.81569338
vt 0.16095160 0.81770432
vt 0.16039290 0.01983565
vt 0.16095160 0.81770432
vt 0.16039290 0.32883939
vt 0.17055909 0.02218163
vt 0.17134111 0.81770432
vt 0.17134111 0.81770432
vt 0.18150710 0.81569338
vt 0.18039000 0.02430421
vt 0.18150710 0.81569338
vt 0.19111460 0.81167167
vt 0.19022091 0.02597993
vt 0.19111460 0.81167167
vt 0.19994010 0.02720880
vt 0.19971670 0.80597418
vt 0.19971670 0.80597418
vt 0.20965929 0.02776736
vt 0.20708990 0.79860097
vt 0.20708990 0.79860097
vt 0.21960190 0.02776736
vt 0.21278730 0.78999901
vt 0.21278730 0.78999901
vt 0.21960190 0.04530662
vt 0.21960190 0.05636644
vt 0.21580359 0.06295764
vt 0.22999141 0.07178312
vt 0.24160980 0.08116716
vt 0.24172150 0.09099811
vt 0.24172150 0.10060560
vt 0.24172150 0.10998960
vt 0.24183320 0.11937360
vt 0.24183320 0.12864600
vt 0.24183320 0.13803010
vt 0.24183320 0.14719071
vt 0.24183320 0.15635130
vt 0.24183320 0.16540021
vt 0.24183320 0.17433751
vt 0.24183320 0.18327460
vt 0.24183320 0.19232360
vt 0.24183320 0.20148420
vt 0.24183320 0.21075650
vt 0.24183320 0.22002891
vt 0.24183320 0.22930120
vt 0.24172150 0.23868529
vt 0.24172150 0.24806941
vt 0.24172150 0.25767690
vt 0.24160980 0.26750779
vt 0.22999141 0.27689189
vt 0.21580359 0.28571740
vt 0.20418531 0.29275539
vt 0.20720160 0.29811779
vt 0.20932420 0.30638459
vt 0.19904640 0.30951270
vt 0.18888030 0.31275240
vt 0.17893770 0.31599209
vt 0.16899499 0.31912020
vt 0.15882900 0.32180130
vt 0.15882900 0.02687358
vt 0.16899499 0.02955484
vt 0.17893770 0.03268277
vt 0.18888030 0.03592252
vt 0.19904640 0.03916227
vt 0.20932420 0.04229027
vt 0.20720160 0.05066895
vt 0.20418531 0.05591952
vt 0.19759411 0.05994129
vt 0.20563760 0.06720280
vt 0.21479820 0.07558143
vt 0.22239479 0.08418345
vt 0.22440571 0.09312069
vt 0.22608140 0.10216950
vt 0.22775720 0.11110680
vt 0.22932120 0.12004390
vt 0.23077349 0.12909290
vt 0.23189060 0.13814180
vt 0.23289600 0.14719071
vt 0.23367810 0.15635130
vt 0.23412479 0.16540021
vt 0.23423649 0.17433751
vt 0.23412479 0.18327460
vt 0.23367810 0.19243529
vt 0.23289600 0.20148420
vt 0.23189060 0.21053310
vt 0.23077349 0.21958201
vt 0.22932120 0.22863090
vt 0.22775720 0.23756810
vt 0.22608140 0.24661700
vt 0.22440571 0.25555429
vt 0.22239479 0.26449150
vt 0.21479820 0.27309361
vt 0.20563760 0.28147221
vt 0.19759411 0.28873369
vt 0.18910369 0.29577169
vt 0.19234350 0.29956999
vt 0.19558319 0.30336830
vt 0.18575230 0.30739009
vt 0.17625649 0.31118840
vt 0.16687250 0.31442821
vt 0.15771180 0.31710929
vt 0.15771180 0.03156566
vt 0.16687250 0.03424686
vt 0.17625649 0.03759831
vt 0.18575230 0.04128485
vt 0.19558319 0.04530662
vt 0.19234350 0.04921662
vt 0.18910369 0.05290329
vt 0.18642260 0.05603122
vt 0.18642260 0.05603122
vt 0.19178490 0.06351619
vt 0.19178490 0.06351619
vt 0.19625349 0.07122451
vt 0.19625349 0.07122451
vt 0.20038700 0.07926803
vt 0.20038700 0.07926803
vt 0.20418531 0.08731150
vt 0.20418531 0.08731150
vt 0.20776020 0.09546667
vt 0.20776020 0.09546667
vt 0.21122330 0.10373350
vt 0.21122330 0.10373350
vt 0.21446310 0.11211220
vt 0.21446310 0.11211220
vt 0.21759111 0.12071430
vt 0.21759111 0.12071430
vt 0.22038400 0.12942800
vt 0.22038400 0.12942800
vt 0.22273000 0.13825350
vt 0.22273000 0.13825350
vt 0.22474089 0.14719071
vt 0.22474089 0.14719071
vt 0.22619310 0.15623960
vt 0.22619310 0.15623960
vt 0.22708690 0.16528849
vt 0.22708690 0.16528849
vt 0.22731020 0.17433751
vt 0.22731020 0.17433751
vt 0.22708690 0.18338630
vt 0.22708690 0.18338630
vt 0.22619310 0.19243529
vt 0.22619310 0.19243529
vt 0.22474089 0.20159590
vt 0.22474089 0.20159590
vt 0.22273000 0.21053310
vt 0.22273000 0.21053310
vt 0.22038400 0.21935859
vt 0.22038400 0.21935859
vt 0.21759111 0.22796071
vt 0.21759111 0.22796071
vt 0.21446310 0.23656270
vt 0.21446310 0.23656270
vt 0.21122330 0.24494129
vt 0.21122330 0.24494129
vt 0.20776020 0.25320831
vt 0.20776020 0.25320831
vt 0.20418531 0.26136351
vt 0.20418531 0.26136351
vt 0.20038700 0.26940700
vt 0.20038700 0.26940700
vt 0.19625349 0.27745050
vt 0.19625349 0.27745050
vt 0.19178490 0.28527051
vt 0.19178490 0.28527051
vt 0.18642260 0.29264370
vt 0.18642260 0.29264370
vt 0.18027830 0.29934660
vt 0.18027830 0.29934660
vt 0.18161890 0.30146921
vt 0.18340629 0.30426210
vt 0.17458080 0.30839551
vt 0.16575530 0.31185871
vt 0.15704159 0.03402340
vt 0.15704159 0.31465161
vt 0.16575530 0.03681623
vt 0.17458080 0.04027938
vt 0.18340629 0.04441291
vt 0.18161890 0.04720580
vt 0.18027830 0.04932832
vt 0.18027830 0.04932832
vt 0.18552890 0.05692493
vt 0.18552890 0.05692493
vt 0.19066779 0.06418645
vt 0.19066779 0.06418645
vt 0.19513640 0.07189482
vt 0.19513640 0.07189482
vt 0.19915810 0.07971489
vt 0.19915810 0.07971489
vt 0.20295639 0.08775836
vt 0.20295639 0.08775836
vt 0.20653130 0.09591352
vt 0.20653130 0.09591352
vt 0.20999441 0.10418040
vt 0.20999441 0.10418040
vt 0.21323420 0.11255900
vt 0.21323420 0.11255900
vt 0.21636219 0.12104940
vt 0.21636219 0.12104940
vt 0.21915510 0.12965140
vt 0.21915510 0.12965140
vt 0.22138940 0.13847689
vt 0.22138940 0.13847689
vt 0.22340020 0.14730240
vt 0.22340020 0.14730240
vt 0.22474089 0.15635130
vt 0.22474089 0.15635130
vt 0.22563460 0.16540021
vt 0.22563460 0.16540021
vt 0.22596970 0.17433751
vt 0.22596970 0.17433751
vt 0.22563460 0.18327460
vt 0.22563460 0.18327460
vt 0.22474089 0.19232360
vt 0.22474089 0.19232360
vt 0.22340020 0.20137250
vt 0.22340020 0.20137250
vt 0.22138940 0.21030970
vt 0.22138940 0.21030970
vt 0.21915510 0.21902350
vt 0.21915510 0.21902350
vt 0.21636219 0.22762550
vt 0.21636219 0.22762550
vt 0.21323420 0.23622760
vt 0.21323420 0.23622760
vt 0.20999441 0.24449439
vt 0.20999441 0.24449439
vt 0.20653130 0.25276139
vt 0.20653130 0.25276139
vt 0.20295639 0.26091671
vt 0.20295639 0.26091671
vt 0.19915810 0.26896009
vt 0.19915810 0.26896009
vt 0.19513640 0.27689189
vt 0.19513640 0.27689189
vt 0.19066779 0.28448850
vt 0.19066779 0.28448850
vt 0.18552890 0.29175001
vt 0.18552890 0.29175001
vt 0.17938450 0.29834121
vt 0.17938450 0.29834121
vt 0.17234650 0.30392688
vt 0.17234650 0.30392688
vt 0.17312850 0.30504412
vt 0.17312850 0.30504412
vt 0.17368710 0.30638459
vt 0.16530850 0.31040639
vt 0.15659469 0.03525227
vt 0.15659469 0.31342271
vt 0.16530850 0.03826856
vt 0.17368710 0.04229027
vt 0.17312850 0.04363083
vt 0.17312850 0.04363083
vt 0.17938450 0.05044549
vt 0.17938450 0.05044549
vt 0.88832807 0.82541257
vt 0.17614479 0.05390870
vt 0.88832807 0.82541257
vt 0.18184230 0.06005305
vt 0.89570129 0.82965779
vt 0.89570129 0.82965779
vt 0.90229249 0.83524352
vt 0.18664610 0.06686764
vt 0.90229249 0.83524352
vt 0.90765482 0.84172302
vt 0.19100291 0.07424086
vt 0.90765482 0.84172302
vt 0.19491290 0.08194917
vt 0.91201168 0.84909618
vt 0.91201168 0.84909618
vt 0.91480458 0.85713971
vt 0.19859950 0.08976924
vt 0.91480458 0.85713971
vt 0.91636860 0.86551827
vt 0.20217440 0.09781271
vt 0.91636860 0.86551827
vt 0.91625691 0.87412041
vt 0.20563760 0.10596780
vt 0.91625691 0.87412041
vt 0.20887729 0.11423480
vt 0.91480458 0.88249898
vt 0.91480458 0.88249898
vt 0.91189998 0.89054251
vt 0.91189998 0.89054251
vt 0.21189360 0.12261340
vt 0.90754312 0.89791572
vt 0.90754312 0.89791572
vt 0.21457480 0.13099191
vt 0.21692079 0.13959409
vt 0.90206897 0.90439510
vt 0.90206897 0.90439510
vt 0.89558959 0.90986919
vt 0.89558959 0.90986919
vt 0.21870820 0.14819610
vt 0.88810468 0.91411442
vt 0.88810468 0.91411442
vt 0.22016060 0.15690990
vt 0.88017291 0.91701889
vt 0.88017291 0.91701889
vt 0.22094239 0.16573539
vt 0.87190598 0.91847122
vt 0.87190598 0.91847122
vt 0.22127770 0.17433751
vt 0.86352742 0.91847122
vt 0.86352742 0.91847122
vt 0.22094239 0.18293950
vt 0.22016060 0.19176499
vt 0.85514867 0.91701889
vt 0.85514867 0.91701889
vt 0.21870820 0.20047870
vt 0.84710532 0.91411442
vt 0.84710532 0.91411442
vt 0.83962041 0.90986919
vt 0.83962041 0.90986919
vt 0.21692079 0.20908080
vt 0.83314091 0.90450692
vt 0.83314091 0.90450692
vt 0.21457480 0.21768279
vt 0.82755512 0.89791572
vt 0.82755512 0.89791572
vt 0.21189360 0.22606149
vt 0.82331002 0.89054251
vt 0.82331002 0.89054251
vt 0.20887729 0.23444010
vt 0.82029372 0.88261068
vt 0.82029372 0.88261068
vt 0.20563760 0.24270700
vt 0.20217440 0.25086230
vt 0.81884128 0.87423211
vt 0.81884128 0.87423211
vt 0.19859950 0.25890580
vt 0.81884128 0.86562997
vt 0.81884128 0.86562997
vt 0.82018203 0.85725141
vt 0.82018203 0.85725141
vt 0.19491290 0.26683751
vt 0.19100291 0.27443421
vt 0.82308662 0.84920788
vt 0.82308662 0.84920788
vt 0.82733172 0.84183472
vt 0.82733172 0.84183472
vt 0.18664610 0.28180739
vt 0.18184230 0.28862199
vt 0.83280581 0.83524352
vt 0.83280581 0.83524352
vt 0.83928519 0.82976949
vt 0.83928519 0.82976949
vt 0.17614479 0.29476631
vt 0.84665841 0.82541257
vt 0.84665841 0.82541257
vt 0.16966531 0.29990521
vt 0.16240390 0.30403870
vt 0.85470188 0.82250798
vt 0.85470188 0.82250798
vt 0.16452651 0.30828381
vt 0.16452651 0.30828381
vt 0.16508500 0.30951270
vt 0.16508500 0.30951270
vt 0.15637121 0.03581082
vt 0.15637121 0.31286410
vt 0.15637121 0.31286410
vt 0.15637121 0.03581082
vt 0.16508500 0.03916227
vt 0.16508500 0.03916227
vt 0.17234650 0.04485970
vt 0.17234650 0.04485970
vt 0.88028461 0.82250798
vt 0.16966531 0.04876983
vt 0.88028461 0.82250798
vt 0.86754912 0.86976349
vt 0.86754912 0.86976349
vt 0.86754912 0.86976349
vt 0.86754912 0.86976349
vt 0.86754912 0.86976349
vt 0.86754912 0.86976349
vt 0.86754912 0.86976349
vt 0.86754912 0.86976349
vt 0.86754912 0.86976349
vt 0.86754912 0.86976349
vt 0.86754912 0.86976349
vt 0.86754912 0.86976349
vt 0.86754912 0.86976349
vt 0.86754912 0.86976349
vt 0.86754912 0.86976349
vt 0.86754912 0.86976349
vt 0.86754912 0.86976349
vt 0.86754912 0.86976349
vt 0.86754912 0.86976349
vt 0.86754912 0.86976349
vt 0.86754912 0.86976349
vt 0.86754912 0.86976349
vt 0.86754912 0.86976349
vt 0.86754912 0.86976349
vt 0.86754912 0.86976349
vt 0.86754912 0.86976349
vt 0.86754912 0.86976349
vt 0.86754912 0.86976349
vt 0.86754912 0.86976349
vt 0.86754912 0.86976349
vt 0.86754912 0.86976349
vt 0.86754912 0.86976349
vt 0.86754912 0.86976349
vt 0.86754912 0.86976349
vt 0.86754912 0.86976349
vt 0.86754912 0.86976349
vt 0.15436040 0.04150825
vt 0.86319220 0.82094401
vt 0.15436040 0.30716661
vt 0.86319220 0.82094401
vt 0.15592439 0.31163529
vt 0.15592439 0.03703969
vt 0.15592439 0.31163529
vt 0.15592439 0.03703969
vt 0.16452651 0.04039114
vt 0.16452651 0.04039114
vt 0.87190598 0.82094401
vt 0.87190598 0.82094401
vt 0.16240390 0.04474800
f 1/1/1 2/2/2 3/3/3
f 2/2/2 4/4/4 3/3/3
f 3/3/3 4/4/4 5/5/5
f 4/4/4 6/6/6 5/5/5
f 5/5/5 6/6/6 7/7/7
f 6/6/6 8/8/8 7/7/7
f 7/7/7 8/8/8 10/10/10
f 11/11/11 9/9/9 12/12/12
f 9/9/9 13/13/13 12/12/12
f 12/12/12 13/13/13 14/14/14
f 13/13/13 15/15/15 14/14/14
f 14/14/14 15/15/15 16/16/16
f 17/17/17 16/16/16 18/18/18
f 16/16/16 15/15/15 18/18/18
f 18/18/18 15/15/15 19/19/19
f 19/19/19 15/15/15 20/20/20
f 15/15/15 13/13/13 20/20/20
f 20/20/20 13/13/13 21/21/21
f 21/21/21 13/13/13 22/22/22
f 13/13/13 9/9/9 22/22/22
f 8/8/8 6/6/6 23/23/23
f 23/23/23 6/6/6 24/24/24
f 24/24/24 6/6/6 25/25/25
f 6/6/6 4/4/4 25/25/25
f 25/25/25 4/4/4 26/26/26
f 4/4/4 2/2/2 26/26/26
f 26/26/26 2/2/2 27/27/27
f 27/27/27 2/2/2 28/28/28
f 2/2/2 1/1/1 28/28/28
f 28/28/28 1/1/1 29/29/29
f 30/30/30 29/29/29 31/31/31
f 29/29/29 1/1/1 31/31/31
f 31/31/31 1/1/1 32/32/32
f 1/1/1 3/3/3 32/32/32
f 32/32/32 3/3/3 33/33/33
f 3/3/3 5/5/5 33/33/33
f 33/33/33 5/5/5 34/34/34
f 5/5/5 7/7/7 34/34/34
f 34/34/34 7/7/7 35/35/35
f 7/7/7 10/10/10 35/35/35
f 35/35/35 10/10/10 36/36/36
f 37/37/37 11/11/11 38/38/38
f 11/11/11 12/12/12 38/38/38
f 38/38/38 12/12/12 39/39/39
f 12/12/12 14/14/14 39/39/39
f 39/39/39 14/14/14 40/40/40
f 14/14/14 16/16/16 40/40/40
f 40/40/40 16/16/16 41/41/41
f 16/16/16 17/17/17 41/41/41
f 41/41/41 17/17/17 42/42/42
f 43/43/43 42/42/42 44/44/44
f 42/42/42 17/17/17 44/44/44
f 44/44/44 17/17/17 45/45/45
f 17/17/17 18/18/18 45/45/45
f 45/45/45 18/18/18 46/46/46
f 18/18/18 19/19/19 46/46/46
f 47/47/47 46/46/46 48/48/48
f 46/46/46 19/19/19 48/48/48
f 48/48/48 19/19/19 49/49/49
f 19/19/19 20/20/20 49/49/49
f 49/49/49 20/20/20 50/50/50
f 20/20/20 21/21/21 50/50/50
f 50/50/50 21/21/21 51/51/51
f 51/51/51 21/21/21 53/53/53
f 21/21/21 22/22/22 53/53/53
f 23/23/23 24/24/24 52/52/52
f 52/52/52 24/24/24 54/54/54
f 54/54/54 24/24/24 55/55/55
f 24/24/24 25/25/25 55/55/55
f 55/55/55 25/25/25 56/56/56
f 25/25/25 26/26/26 56/56/56
f 56/56/56 26/26/26 57/57/57
f 26/26/26 27/27/27 57/57/57
f 57/57/57 27/27/27 58/58/58
f 59/59/59 58/58/58 60/60/60
f 58/58/58 27/27/27 60/60/60
f 27/27/27 28/28/28 60/60/60
f 60/60/60 28/28/28 61/61/61
f 28/28/28 29/29/29 61/61/61
f 61/61/61 29/29/29 62/62/62
f 29/29/29 30/30/30 62/62/62
f 62/62/62 30/30/30 63/63/63
f 64/64/64 63/63/63 65/65/65
f 63/63/63 30/30/30 65/65/65
f 65/65/65 30/30/30 66/66/66
f 30/30/30 31/31/31 66/66/66
f 66/66/66 31/31/31 67/67/67
f 31/31/31 32/32/32 67/67/67
f 67/67/67 32/32/32 68/68/68
f 32/32/32 33/33/33 68/68/68
f 68/68/68 33/33/33 69/69/69
f 33/33/33 34/34/34 69/69/69
f 69/69/69 34/34/34 70/70/70
f 34/34/34 35/35/35 70/70/70
f 70/70/70 35/35/35 71/71/71
f 35/35/35 36/36/36 71/71/71
f 37/37/37 38/38/38 72/72/72
f 72/72/72 38/38/38 73/73/73
f 38/38/38 39/39/39 73/73/73
f 73/73/73 39/39/39 74/74/74
f 39/39/39 40/40/40 74/74/74
f 74/74/74 40/40/40 75/75/75
f 40/40/40 41/41/41 75/75/75
f 75/75/75 41/41/41 76/76/76
f 41/41/41 42/42/42 76/76/76
f 76/76/76 42/42/42 77/77/77
f 42/42/42 43/43/43 77/77/77
f 77/77/77 43/43/43 78/78/78
f 79/79/79 78/78/78 80/80/80
f 78/78/78 43/43/43 80/80/80
f 80/80/80 43/43/43 81/81/81
f 43/43/43 44/44/44 81/81/81
f 81/81/81 44/44/44 82/82/82
f 44/44/44 45/45/45 82/82/82
f 82/82/82 45/45/45 83/83/83
f 45/45/45 46/46/46 83/83/83
f 46/46/46 47/47/47 83/83/83
f 83/83/83 47/47/47 84/84/84
f 86/86/86 84/84/84 87/87/87
f 84/84/84 47/47/47 87/87/87
f 87/87/87 47/47/47 90/90/90
f 47/47/47 48/48/48 90/90/90
f 90/90/90 48/48/48 93/93/93
f 48/48/48 49/49/49 93/93/93
f 93/93/93 49/49/49 94/94/94
f 49/49/49 50/50/50 94/94/94
f 94/94/94 50/50/50 97/97/97
f 50/50/50 51/51/51 97/97/97
f 97/97/97 51/51/51 102/102/102
f 102/102/102 51/51/51 104/104/104
f 51/51/51 53/53/53 104/104/104
f 52/52/52 54/54/54 103/103/103
f 103/103/103 54/54/54 107/107/107
f 107/107/107 54/54/54 108/108/108
f 54/54/54 55/55/55 108/108/108
f 108/108/108 55/55/55 110/110/110
f 55/55/55 56/56/56 110/110/110
f 110/110/110 56/56/56 113/113/113
f 56/56/56 57/57/57 113/113/113
f 113/113/113 57/57/57 115/115/115
f 57/57/57 58/58/58 115/115/115
f 115/115/115 58/58/58 118/118/118
f 58/58/58 59/59/59 118/118/118
f 118/118/118 59/59/59 120/120/120
f 122/122/122 120/120/120 125/125/125
f 125/125/125 120/120/120 126/126/126
f 120/120/120 59/59/59 126/126/126
f 126/126/126 59/59/59 127/127/127
f 59/59/59 60/60/60 127/127/127
f 60/60/60 61/61/61 127/127/127
f 127/127/127 61/61/61 128/128/128
f 61/61/61 62/62/62 128/128/128
f 128/128/128 62/62/62 129/129/129
f 62/62/62 63/63/63 129/129/129
f 129/129/129 63/63/63 130/130/130
f 63/63/63 64/64/64 130/130/130
f 64/64/64 131/131/131 130/130/130
f 130/130/130 131/131/131 132/132/132
f 131/131/131 133/133/133 132/132/132
f 132/132/132 133/133/133 134/134/134
f 133/133/133 135/135/135 134/134/134
f 134/134/134 135/135/135 136/136/136
f 135/135/135 137/137/137 136/136/136
f 136/136/136 137/137/137 138/138/138
f 137/137/137 139/139/139 138/138/138
f 138/138/138 139/139/139 140/140/140
f 139/139/139 141/141/141 140/140/140
f 140/140/140 141/141/141 142/142/142
f 141/141/141 143/143/143 142/142/142
f 142/142/142 143/143/143 144/144/144
f 143/143/143 145/145/145 144/144/144
f 144/144/144 145/145/145 146/146/146
f 145/145/145 147/147/147 146/146/146
f 146/146/146 147/147/147 148/148/148
f 147/147/147 149/149/149 148/148/148
f 148/148/148 149/149/149 150/150/150
f 149/149/149 151/151/151 150/150/150
f 151/151/151 152/152/152 150/150/150
f 150/150/150 152/152/152 153/153/153
f 152/152/152 154/154/154 153/153/153
f 153/153/153 154/154/154 155/155/155
f 154/154/154 156/156/156 155/155/155
f 155/155/155 156/156/156 157/157/157
f 156/156/156 158/158/158 157/157/157
f 157/157/157 158/158/158 159/159/159
f 158/158/158 160/160/160 159/159/159
f 159/159/159 160/160/160 161/161/161
f 160/160/160 162/162/162 161/161/161
f 161/161/161 162/162/162 163/163/163
f 162/162/162 164/164/164 163/163/163
f 163/163/163 164/164/164 165/165/165
f 164/164/164 166/166/166 165/165/165
f 165/165/165 166/166/166 167/167/167
f 166/166/166 168/168/168 167/167/167
f 167/167/167 168/168/168 169/169/169
f 168/168/168 170/170/170 169/169/169
f 169/169/169 170/170/170 171/171/171
f 170/170/170 79/79/79 171/171/171
f 79/79/79 80/80/80 171/171/171
f 171/171/171 80/80/80 172/172/172
f 80/80/80 81/81/81 172/172/172
f 172/172/172 81/81/81 173/173/173
f 81/81/81 82/82/82 173/173/173
f 173/173/173 82/82/82 174/174/174
f 82/82/82 83/83/83 174/174/174
f 83/83/83 84/84/84 174/174/174
f 174/174/174 84/84/84 175/175/175
f 84/84/84 86/86/86 175/175/175
f 175/175/175 86/86/86 176/176/176
f 86/86/86 177/177/177 176/176/176
f 180/180/180 176/176/176 182/182/182
f 176/176/176 177/177/177 182/182/182
f 183/183/183 179/179/179 197/197/197
f 178/178/178 85/85/85 198/198/198
f 85/85/85 88/88/88 198/198/198
f 88/88/88 89/89/89 198/198/198
f 89/89/89 91/91/91 198/198/198
f 92/92/92 95/95/95 200/200/200
f 96/96/96 98/98/98 201/201/201
f 99/99/99 100/100/100 202/202/202
f 101/101/101 105/105/105 198/198/198
f 105/105/105 106/106/106 198/198/198
f 106/106/106 109/109/109 198/198/198
f 109/109/109 111/111/111 198/198/198
f 111/111/111 112/112/112 198/198/198
f 112/112/112 116/116/116 198/198/198
f 114/114/114 117/117/117 203/203/203
f 119/119/119 121/121/121 198/198/198
f 121/121/121 123/123/123 198/198/198
f 204/204/204 124/124/124 206/206/206
f 122/122/122 125/125/125 207/207/207
f 207/207/207 125/125/125 208/208/208
f 209/209/209 208/208/208 210/210/210
f 208/208/208 125/125/125 210/210/210
f 125/125/125 126/126/126 210/210/210
f 210/210/210 126/126/126 211/211/211
f 126/126/126 127/127/127 211/211/211
f 127/127/127 128/128/128 211/211/211
f 211/211/211 128/128/128 212/212/212
f 128/128/128 129/129/129 212/212/212
f 212/212/212 129/129/129 213/213/213
f 129/129/129 130/130/130 213/213/213
f 213/213/213 130/130/130 214/214/214
f 130/130/130 132/132/132 214/214/214
f 214/214/214 132/132/132 215/215/215
f 132/132/132 134/134/134 215/215/215
f 215/215/215 134/134/134 216/216/216
f 134/134/134 136/136/136 216/216/216
f 216/216/216 136/136/136 217/217/217
f 136/136/136 138/138/138 217/217/217
f 217/217/217 138/138/138 218/218/218
f 138/138/138 140/140/140 218/218/218
f 218/218/218 140/140/140 219/219/219
f 140/140/140 142/142/142 219/219/219
f 219/219/219 142/142/142 220/220/220
f 142/142/142 144/144/144 220/220/220
f 220/220/220 144/144/144 221/221/221
f 144/144/144 146/146/146 221/221/221
f 221/221/221 146/146/146 222/222/222
f 146/146/146 148/148/148 222/222/222
f 222/222/222 148/148/148 223/223/223
f 148/148/148 150/150/150 223/223/223
f 150/150/150 153/153/153 223/223/223
f 223/223/223 153/153/153 224/224/224
f 153/153/153 155/155/155 224/224/224
f 224/224/224 155/155/155 225/225/225
f 155/155/155 157/157/157 225/225/225
f 225/225/225 157/157/157 226/226/226
f 157/157/157 159/159/159 226/226/226
f 226/226/226 159/159/159 227/227/227
f 159/159/159 161/161/161 227/227/227
f 227/227/227 161/161/161 228/228/228
f 161/161/161 163/163/163 228/228/228
f 228/228/228 163/163/163 229/229/229
f 163/163/163 165/165/165 229/229/229
f 229/229/229 165/165/165 230/230/230
f 165/165/165 167/167/167 230/230/230
f 230/230/230 167/167/167 231/231/231
f 167/167/167 169/169/169 231/231/231
f 231/231/231 169/169/169 232/232/232
f 169/169/169 171/171/171 232/232/232
f 232/232/232 171/171/171 233/233/233
f 171/171/171 172/172/172 233/233/233
f 233/233/233 172/172/172 234/234/234
f 172/172/172 173/173/173 234/234/234
f 234/234/234 173/173/173 235/235/235
f 173/173/173 174/174/174 235/235/235
f 174/174/174 175/175/175 235/235/235
f 235/235/235 175/175/175 236/236/236
f 175/175/175 176/176/176 236/236/236
f 176/176/176 180/180/180 236/236/236
f 236/236/236 180/180/180 237/237/237
f 237/237/237 180/180/180 238/238/238
f 238/238/238 180/180/180 239/239/239
f 180/180/180 182/182/182 239/239/239
f 239/239/239 182/182/182 240/240/240
f 181/181/181 187/187/187 241/241/241
f 242/242/242 190/190/190 245/245/245
f 244/244/244 188/188/188 248/248/248
f 246/246/246 195/195/195 250/250/250
f 251/251/251 196/196/196 254/254/254
f 252/252/252 199/199/199 256/256/256
f 257/257/257 191/191/191 260/260/260
f 258/258/258 192/192/192 264/264/264
f 263/263/263 194/194/194 267/267/267
f 265/265/265 193/193/193 270/270/270
f 268/268/268 189/189/189 272/272/272
f 273/273/273 186/186/186 276/276/276
f 275/275/275 185/185/185 278/278/278
f 184/184/184 205/205/205 279/279/279
f 277/277/277 207/207/207 280/280/280
f 207/207/207 208/208/208 280/280/280
f 280/280/280 208/208/208 281/281/281
f 208/208/208 209/209/209 281/281/281
f 281/281/281 209/209/209 282/282/282
f 282/282/282 209/209/209 283/283/283
f 283/283/283 209/209/209 284/284/284
f 209/209/209 210/210/210 284/284/284
f 210/210/210 211/211/211 284/284/284
f 211/211/211 212/212/212 284/284/284
f 212/212/212 213/213/213 284/284/284
f 213/213/213 214/214/214 284/284/284
f 284/284/284 214/214/214 285/285/285
f 214/214/214 215/215/215 285/285/285
f 285/285/285 215/215/215 286/286/286
f 215/215/215 216/216/216 286/286/286
f 286/286/286 216/216/216 287/287/287
f 216/216/216 217/217/217 287/287/287
f 287/287/287 217/217/217 288/288/288
f 217/217/217 218/218/218 288/288/288
f 288/288/288 218/218/218 289/289/289
f 218/218/218 219/219/219 289/289/289
f 289/289/289 219/219/219 290/290/290
f 219/219/219 220/220/220 290/290/290
f 290/290/290 220/220/220 291/291/291
f 220/220/220 221/221/221 291/291/291
f 291/291/291 221/221/221 292/292/292
f 221/221/221 222/222/222 292/292/292
f 292/292/292 222/222/222 293/293/293
f 222/222/222 223/223/223 293/293/293
f 293/293/293 223/223/223 294/294/294
f 294/294/294 223/223/223 295/295/295
f 223/223/223 224/224/224 295/295/295
f 295/295/295 224/224/224 296/296/296
f 224/224/224 225/225/225 296/296/296
f 296/296/296 225/225/225 297/297/297
f 225/225/225 226/226/226 297/297/297
f 297/297/297 226/226/226 298/298/298
f 226/226/226 227/227/227 298/298/298
f 298/298/298 227/227/227 299/299/299
f 227/227/227 228/228/228 299/299/299
f 299/299/299 228/228/228 300/300/300
f 228/228/228 229/229/229 300/300/300
f 300/300/300 229/229/229 301/301/301
f 229/229/229 230/230/230 301/301/301
f 301/301/301 230/230/230 302/302/302
f 230/230/230 231/231/231 302/302/302
f 302/302/302 231/231/231 303/303/303
f 231/231/231 232/232/232 303/303/303
f 303/303/303 232/232/232 304/304/304
f 232/232/232 233/233/233 304/304/304
f 233/233/233 234/234/234 304/304/304
f 234/234/234 235/235/235 304/304/304
f 235/235/235 236/236/236 304/304/304
f 236/236/236 237/237/237 304/304/304
f 304/304/304 237/237/237 305/305/305
f 305/305/305 237/237/237 306/306/306
f 237/237/237 238/238/238 306/306/306
f 306/306/306 238/238/238 307/307/307
f 307/307/307 238/238/238 308/308/308
f 238/238/238 239/239/239 308/308/308
f 308/308/308 239/239/239 309/309/309
f 239/239/239 240/240/240 309/309/309
f 240/240/240 243/243/243 309/309/309
f 309/309/309 243/243/243 310/310/310
f 243/243/243 247/247/247 310/310/310
f 310/310/310 247/247/247 311/311/311
f 247/247/247 249/249/249 311/311/311
f 311/311/311 249/249/249 312/312/312
f 249/249/249 253/253/253 312/312/312
f 312/312/312 253/253/253 313/313/313
f 253/253/253 255/255/255 313/313/313
f 255/255/255 261/261/261 313/313/313
f 313/313/313 261/261/261 314/314/314
f 315/315/315 259/259/259 316/316/316
f 259/259/259 262/262/262 316/316/316
f 262/262/262 266/266/266 316/316/316
f 316/316/316 266/266/266 317/317/317
f 266/266/266 269/269/269 317/317/317
f 317/317/317 269/269/269 318/318/318
f 269/269/269 271/271/271 318/318/318
f 318/318/318 271/271/271 319/319/319
f 271/271/271 274/274/274 319/319/319
f 319/319/319 274/274/274 320/320/320
f 274/274/274 277/277/277 320/320/320
f 277/277/277 280/280/280 320/320/320
f 320/320/320 280/280/280 321/321/321
f 280/280/280 281/281/281 321/321/321
f 321/321/321 281/281/281 322/322/322
f 281/281/281 282/282/282 322/322/322
f 323/323/323 322/322/322 324/324/324
f 322/322/322 282/282/282 324/324/324
f 324/324/324 282/282/282 325/325/325
f 282/282/282 283/283/283 325/325/325
f 325/325/325 283/283/283 326/326/326
f 283/283/283 284/284/284 326/326/326
f 284/284/284 285/285/285 326/326/326
f 326/326/326 285/285/285 327/327/327
f 285/285/285 286/286/286 327/327/327
f 327/327/327 286/286/286 328/328/328
f 328/328/328 286/286/286 329/329/329
f 286/286/286 287/287/287 329/329/329
f 329/329/329 287/287/287 330/330/330
f 287/287/287 288/288/288 330/330/330
f 330/330/330 288/288/288 331/331/331
f 288/288/288 289/289/289 331/331/331
f 331/331/331 289/289/289 332/332/332
f 289/289/289 290/290/290 332/332/332
f 332/332/332 290/290/290 333/333/333
f 290/290/290 291/291/291 333/333/333
f 333/333/333 291/291/291 334/334/334
f 291/291/291 292/292/292 334/334/334
f 334/334/334 292/292/292 335/335/335
f 292/292/292 293/293/293 335/335/335
f 335/335/335 293/293/293 336/336/336
f 293/293/293 294/294/294 336/336/336
f 294/294/294 295/295/295 336/336/336
f 336/336/336 295/295/295 337/337/337
f 295/295/295 296/296/296 337/337/337
f 337/337/337 296/296/296 338/338/338
f 296/296/296 297/297/297 338/338/338
f 338/338/338 297/297/297 339/339/339
f 297/297/297 298/298/298 339/339/339
f 339/339/339 298/298/298 340/340/340
f 298/298/298 299/299/299 340/340/340
f 340/340/340 299/299/299 341/341/341
f 299/299/299 300/300/300 341/341/341
f 341/341/341 300/300/300 342/342/342
f 300/300/300 301/301/301 342/342/342
f 342/342/342 301/301/301 343/343/343
f 301/301/301 302/302/302 343/343/343
f 343/343/343 302/302/302 344/344/344
f 344/344/344 302/302/302 345/345/345
f 302/302/302 303/303/303 345/345/345
f 345/345/345 303/303/303 346/346/346
f 303/303/303 304/304/304 346/346/346
f 304/304/304 305/305/305 346/346/346
f 346/346/346 305/305/305 347/347/347
f 305/305/305 306/306/306 347/347/347
f 347/347/347 306/306/306 348/348/348
f 306/306/306 307/307/307 348/348/348
f 348/348/348 307/307/307 349/349/349
f 350/350/350 349/349/349 351/351/351
f 349/349/349 307/307/307 351/351/351
f 307/307/307 308/308/308 351/351/351
f 351/351/351 308/308/308 352/352/352
f 308/308/308 309/309/309 352/352/352
f 309/309/309 310/310/310 352/352/352
f 352/352/352 310/310/310 353/353/353
f 310/310/310 311/311/311 353/353/353
f 353/353/353 311/311/311 354/354/354
f 311/311/311 312/312/312 354/354/354
f 354/354/354 312/312/312 355/355/355
f 312/312/312 313/313/313 355/355/355
f 313/313/313 314/314/314 355/355/355
f 355/355/355 314/314/314 356/356/356
f 357/357/357 315/315/315 358/358/358
f 315/315/315 316/316/316 358/358/358
f 316/316/316 317/317/317 358/358/358
f 358/358/358 317/317/317 359/359/359
f 317/317/317 318/318/318 359/359/359
f 359/359/359 318/318/318 360/360/360
f 318/318/318 319/319/319 360/360/360
f 360/360/360 319/319/319 361/361/361
f 319/319/319 320/320/320 361/361/361
f 320/320/320 321/321/321 361/361/361
f 361/361/361 321/321/321 362/362/362
f 321/321/321 322/322/322 362/362/362
f 322/322/322 323/323/323 362/362/362
f 362/362/362 323/323/323 363/363/363
f 365/365/365 363/363/363 366/366/366
f 363/363/363 323/323/323 366/366/366
f 366/366/366 323/323/323 368/368/368
f 323/323/323 324/324/324 368/368/368
f 368/368/368 324/324/324 370/370/370
f 324/324/324 325/325/325 370/370/370
f 370/370/370 325/325/325 373/373/373
f 325/325/325 326/326/326 373/373/373
f 373/373/373 326/326/326 374/374/374
f 326/326/326 327/327/327 374/374/374
f 374/374/374 327/327/327 376/376/376
f 327/327/327 328/328/328 376/376/376
f 376/376/376 328/328/328 378/378/378
f 328/328/328 329/329/329 378/378/378
f 378/378/378 329/329/329 380/380/380
f 329/329/329 330/330/330 380/380/380
f 380/380/380 330/330/330 383/383/383
f 330/330/330 331/331/331 383/383/383
f 383/383/383 331/331/331 384/384/384
f 331/331/331 332/332/332 384/384/384
f 384/384/384 332/332/332 386/386/386
f 332/332/332 333/333/333 386/386/386
f 386/386/386 333/333/333 388/388/388
f 333/333/333 334/334/334 388/388/388
f 388/388/388 334/334/334 391/391/391
f 334/334/334 335/335/335 391/391/391
f 391/391/391 335/335/335 392/392/392
f 335/335/335 336/336/336 392/392/392
f 336/336/336 337/337/337 392/392/392
f 392/392/392 337/337/337 395/395/395
f 337/337/337 338/338/338 395/395/395
f 395/395/395 338/338/338 397/397/397
f 338/338/338 339/339/339 397/397/397
f 397/397/397 339/339/339 398/398/398
f 339/339/339 340/340/340 398/398/398
f 398/398/398 340/340/340 401/401/401
f 340/340/340 341/341/341 401/401/401
f 401/401/401 341/341/341 402/402/402
f 341/341/341 342/342/342 402/402/402
f 402/402/402 342/342/342 404/404/404
f 342/342/342 343/343/343 404/404/404
f 404/404/404 343/343/343 406/406/406
f 343/343/343 344/344/344 406/406/406
f 406/406/406 344/344/344 408/408/408
f 344/344/344 345/345/345 408/408/408
f 408/408/408 345/345/345 411/411/411
f 345/345/345 346/346/346 411/411/411
f 411/411/411 346/346/346 413/413/413
f 346/346/346 347/347/347 413/413/413
f 413/413/413 347/347/347 414/414/414
f 347/347/347 348/348/348 414/414/414
f 414/414/414 348/348/348 416/416/416
f 348/348/348 349/349/349 416/416/416
f 416/416/416 349/349/349 418/418/418
f 349/349/349 350/350/350 418/418/418
f 418/418/418 350/350/350 421/421/421
f 421/421/421 350/350/350 422/422/422
f 422/422/422 350/350/350 424/424/424
f 424/424/424 350/350/350 425/425/425
f 350/350/350 351/351/351 425/425/425
f 351/351/351 352/352/352 425/425/425
f 352/352/352 353/353/353 425/425/425
f 425/425/425 353/353/353 426/426/426
f 353/353/353 354/354/354 426/426/426
f 426/426/426 354/354/354 427/427/427
f 354/354/354 355/355/355 427/427/427
f 355/355/355 356/356/356 427/427/427
f 427/427/427 356/356/356 429/429/429
f 428/428/428 357/357/357 430/430/430
f 357/357/357 358/358/358 430/430/430
f 358/358/358 359/359/359 430/430/430
f 430/430/430 359/359/359 431/431/431
f 359/359/359 360/360/360 431/431/431
f 431/431/431 360/360/360 432/432/432
f 360/360/360 361/361/361 432/432/432
f 361/361/361 362/362/362 432/432/432
f 362/362/362 363/363/363 432/432/432
f 432/432/432 363/363/363 433/433/433
f 433/433/433 363/363/363 435/435/435
f 363/363/363 365/365/365 435/435/435
f 434/434/434 364/364/364 436/436/436
f 436/436/436 364/364/364 438/438/438
f 364/364/364 367/367/367 438/438/438
f 438/438/438 367/367/367 440/440/440
f 367/367/367 369/369/369 440/440/440
f 440/440/440 369/369/369 442/442/442
f 369/369/369 371/371/371 442/442/442
f 442/442/442 371/371/371 444/444/444
f 371/371/371 372/372/372 444/444/444
f 444/444/444 372/372/372 447/447/447
f 372/372/372 375/375/375 447/447/447
f 447/447/447 375/375/375 449/449/449
f 375/375/375 377/377/377 449/449/449
f 449/449/449 377/377/377 451/451/451
f 377/377/377 379/379/379 451/451/451
f 451/451/451 379/379/379 453/453/453
f 379/379/379 381/381/381 453/453/453
f 453/453/453 381/381/381 455/455/455
f 381/381/381 382/382/382 455/455/455
f 455/455/455 382/382/382 457/457/457
f 382/382/382 385/385/385 457/457/457
f 457/457/457 385/385/385 459/459/459
f 385/385/385 387/387/387 459/459/459
f 459/459/459 387/387/387 460/460/460
f 387/387/387 389/389/389 460/460/460
f 460/460/460 389/389/389 462/462/462
f 389/389/389 390/390/390 462/462/462
f 462/462/462 390/390/390 464/464/464
f 390/390/390 393/393/393 464/464/464
f 464/464/464 393/393/393 467/467/467
f 393/393/393 394/394/394 467/467/467
f 467/467/467 394/394/394 469/469/469
f 394/394/394 396/396/396 469/469/469
f 469/469/469 396/396/396 471/471/471
f 396/396/396 399/399/399 471/471/471
f 471/471/471 399/399/399 472/472/472
f 399/399/399 400/400/400 472/472/472
f 472/472/472 400/400/400 474/474/474
f 400/400/400 403/403/403 474/474/474
f 474/474/474 403/403/403 476/476/476
f 403/403/403 405/405/405 476/476/476
f 476/476/476 405/405/405 478/478/478
f 405/405/405 407/407/407 478/478/478
f 478/478/478 407/407/407 481/481/481
f 407/407/407 409/409/409 481/481/481
f 481/481/481 409/409/409 482/482/482
f 409/409/409 410/410/410 482/482/482
f 482/482/482 410/410/410 485/485/485
f 410/410/410 412/412/412 485/485/485
f 485/485/485 412/412/412 487/487/487
f 412/412/412 415/415/415 487/487/487
f 487/487/487 415/415/415 489/489/489
f 415/415/415 417/417/417 489/489/489
f 489/489/489 417/417/417 490/490/490
f 417/417/417 419/419/419 490/490/490
f 490/490/490 419/419/419 493/493/493
f 419/419/419 420/420/420 493/493/493
f 493/493/493 420/420/420 495/495/495
f 420/420/420 423/423/423 495/495/495
f 495/495/495 423/423/423 497/497/497
f 497/497/497 423/423/423 498/498/498
f 422/422/422 424/424/424 499/499/499
f 499/499/499 424/424/424 500/500/500
f 424/424/424 425/425/425 500/500/500
f 425/425/425 426/426/426 500/500/500
f 500/500/500 426/426/426 501/501/501
f 426/426/426 427/427/427 501/501/501
f 501/501/501 427/427/427 503/503/503
f 427/427/427 429/429/429 503/503/503
f 428/428/428 430/430/430 502/502/502
f 502/502/502 430/430/430 504/504/504
f 430/430/430 431/431/431 504/504/504
f 504/504/504 431/431/431 505/505/505
f 431/431/431 432/432/432 505/505/505
f 432/432/432 433/433/433 505/505/505
f 505/505/505 433/433/433 506/506/506
f 433/433/433 435/435/435 506/506/506
f 507/507/507 434/434/434 509/509/509
f 434/434/434 436/436/436 509/509/509
f 508/508/508 437/437/437 511/511/511
f 511/511/511 437/437/437 513/513/513
f 437/437/437 439/439/439 513/513/513
f 513/513/513 439/439/439 517/517/517
f 439/439/439 441/441/441 517/517/517
f 517/517/517 441/441/441 520/520/520
f 441/441/441 443/443/443 520/520/520
f 520/520/520 443/443/443 522/522/522
f 443/443/443 445/445/445 522/522/522
f 522/522/522 445/445/445 526/526/526
f 445/445/445 446/446/446 526/526/526
f 526/526/526 446/446/446 529/529/529
f 446/446/446 448/448/448 529/529/529
f 529/529/529 448/448/448 532/532/532
f 448/448/448 450/450/450 532/532/532
f 532/532/532 450/450/450 534/534/534
f 450/450/450 452/452/452 534/534/534
f 534/534/534 452/452/452 539/539/539
f 452/452/452 454/454/454 539/539/539
f 539/539/539 454/454/454 542/542/542
f 454/454/454 456/456/456 542/542/542
f 542/542/542 456/456/456 543/543/543
f 543/543/543 456/456/456 548/548/548
f 456/456/456 458/458/458 548/548/548
f 548/548/548 458/458/458 551/551/551
f 458/458/458 461/461/461 551/551/551
f 551/551/551 461/461/461 554/554/554
f 461/461/461 463/463/463 554/554/554
f 463/463/463 465/465/465 554/554/554
f 554/554/554 465/465/465 557/557/557
f 557/557/557 465/465/465 560/560/560
f 465/465/465 466/466/466 560/560/560
f 466/466/466 468/468/468 560/560/560
f 560/560/560 468/468/468 561/561/561
f 468/468/468 470/470/470 561/561/561
f 561/561/561 470/470/470 564/564/564
f 470/470/470 473/473/473 564/564/564
f 564/564/564 473/473/473 569/569/569
f 569/569/569 473/473/473 572/572/572
f 473/473/473 475/475/475 572/572/572
f 572/572/572 475/475/475 575/575/575
f 475/475/475 477/477/477 575/575/575
f 575/575/575 477/477/477 578/578/578
f 477/477/477 479/479/479 578/578/578
f 578/578/578 479/479/479 581/581/581
f 479/479/479 480/480/480 581/581/581
f 581/581/581 480/480/480 582/582/582
f 480/480/480 483/483/483 582/582/582
f 582/582/582 483/483/483 585/585/585
f 483/483/483 484/484/484 585/585/585
f 585/585/585 484/484/484 590/590/590
f 484/484/484 486/486/486 590/590/590
f 590/590/590 486/486/486 591/591/591
f 486/486/486 488/488/488 591/591/591
f 591/591/591 488/488/488 596/596/596
f 488/488/488 491/491/491 596/596/596
f 596/596/596 491/491/491 597/597/597
f 491/491/491 492/492/492 597/597/597
f 597/597/597 492/492/492 602/602/602
f 492/492/492 494/494/494 602/602/602
f 602/602/602 494/494/494 605/605/605
f 494/494/494 496/496/496 605/605/605
f 605/605/605 496/496/496 606/606/606
f 606/606/606 496/496/496 609/609/609
f 497/497/497 498/498/498 610/610/610
f 610/610/610 498/498/498 612/612/612
f 499/499/499 500/500/500 611/611/611
f 500/500/500 501/501/501 611/611/611
f 611/611/611 501/501/501 614/614/614
f 501/501/501 503/503/503 614/614/614
f 502/502/502 504/504/504 613/613/613
f 613/613/613 504/504/504 618/618/618
f 504/504/504 505/505/505 618/618/618
f 505/505/505 506/506/506 618/618/618
f 617/617/617 507/507/507 620/620/620
f 507/507/507 509/509/509 620/620/620
f 619/619/619 508/508/508 622/622/622
f 508/508/508 511/511/511 622/622/622
f 623/623/623 510/510/510 636/636/636
f 512/512/512 515/515/515 632/632/632
f 514/514/514 518/518/518 639/639/639
f 516/516/516 519/519/519 630/630/630
f 521/521/521 523/523/523 629/629/629
f 524/524/524 527/527/527 627/627/627
f 525/525/525 528/528/528 626/626/626
f 530/530/530 533/533/533 633/633/633
f 531/531/531 535/535/535 640/640/640
f 536/536/536 537/537/537 642/642/642
f 538/538/538 540/540/540 657/657/657
f 541/541/541 544/544/544 655/655/655
f 545/545/545 547/547/547 654/654/654
f 546/546/546 549/549/549 652/652/652
f 550/550/550 553/553/553 650/650/650
f 552/552/552 556/556/556 651/651/651
f 555/555/555 559/559/559 647/647/647
f 558/558/558 563/563/563 645/645/645
f 562/562/562 566/566/566 659/659/659
f 565/565/565 567/567/567 644/644/644
f 568/568/568 570/570/570 624/624/624
f 571/571/571 573/573/573 628/628/628
f 574/574/574 576/576/576 649/649/649
f 577/577/577 579/579/579 643/643/643
f 580/580/580 583/583/583 648/648/648
f 584/584/584 586/586/586 658/658/658
f 587/587/587 589/589/589 653/653/653
f 588/588/588 592/592/592 656/656/656
f 593/593/593 594/594/594 646/646/646
f 595/595/595 599/599/599 625/625/625
f 598/598/598 601/601/601 641/641/641
f 600/600/600 603/603/603 631/631/631
f 604/604/604 607/607/607 634/634/634
f 635/635/635 608/608/608 661/661/661
f 662/662/662 606/606/606 664/664/664
f 606/606/606 609/609/609 664/664/664
f 610/610/610 612/612/612 666/666/666
f 612/612/612 615/615/615 666/666/666
f 665/665/665 616/616/616 669/669/669
f 616/616/616 617/617/617 669/669/669
f 617/617/617 620/620/620 669/669/669
f 668/668/668 619/619/619 672/672/672
f 619/619/619 622/622/622 672/672/672
f 621/621/621 637/637/637 670/670/670
f 638/638/638 663/663/663 671/671/671
f 660/660/660 667/667/667 672/672/672
f 668/668/668 672/672/672 667/667/667

