mtllib SimpleRodEndEffector.mtl
usemtl mat_0
v -0.03131532 0.00340569 0.00000000
v -0.03131532 0.00340569 0.00000000
v -0.03149998 -0.00000000 0.01999998
v -0.03149998 -0.00000000 0.01999998
v -0.03149998 -0.00000000 0.01999998
v -0.03149998 -0.00000000 0.01999998
v -0.03149998 -0.00000000 0.01999998
v -0.03131532 0.00340569 0.01999998
v -0.03131532 0.00340569 0.01999998
v -0.03149998 -0.00000000 0.00000000
v -0.03149998 -0.00000000 0.00000000
v -0.03149998 -0.00000000 0.00000000
v -0.03076350 0.00677156 0.00000000
v -0.03076350 0.00677156 0.00000000
v -0.03076350 0.00677156 0.01999998
v -0.03076350 0.00677156 0.01999998
v -0.02985107 0.01005798 0.01999998
v -0.02985107 0.01005798 0.01999998
v -0.02985107 0.01005798 0.01999998
v -0.02985107 0.01005798 0.00000000
v -0.02985107 0.01005798 0.00000000
v -0.02858859 0.01322650 0.00000000
v -0.02858859 0.01322650 0.00000000
v -0.02858859 0.01322650 0.01999998
v -0.02858859 0.01322650 0.01999998
v -0.02858859 0.01322650 0.01999998
v -0.02858859 0.01322650 0.01999998
v -0.02858859 0.01322650 0.01999998
v -0.02858859 0.01322650 0.01999998
v -0.02858859 0.01322650 0.01999998
v -0.02858859 0.01322650 0.01999998
v -0.02699095 0.01623994 0.01999998
v -0.02699095 0.01623994 0.01999998
v -0.02699095 0.01623994 0.01999998
v -0.02699095 0.01623994 0.00000000
v -0.02699095 0.01623994 0.00000000
v -0.02507692 0.01906293 0.00000000
v -0.02507692 0.01906293 0.00000000
v -0.02507692 0.01906293 0.01999998
v -0.02507692 0.01906293 0.01999998
v -0.02507692 0.01906293 0.01999998
v -0.02286881 0.02166253 0.00000000
v -0.02286881 0.02166253 0.00000000
v -0.02286881 0.02166253 0.01999998
v -0.02286881 0.02166253 0.01999998
v -0.02039265 0.02400809 0.00000000
v -0.02039265 0.02400809 0.00000000
v -0.02039265 0.02400809 0.01999998
v -0.02039265 0.02400809 0.01999998
v -0.02039265 0.02400809 0.01999998
v -0.01767736 0.02607220 0.00000000
v -0.01767736 0.02607220 0.00000000
v -0.01767736 0.02607220 0.01999998
v -0.01767736 0.02607220 0.01999998
v -0.01475483 0.02783060 0.00000000
v -0.01475483 0.02783060 0.00000000
v -0.01475483 0.02783060 0.01999998
v -0.01475483 0.02783060 0.01999998
v -0.01475483 0.02783060 0.01999998
v -0.01475483 0.02783060 0.01999998
v -0.01475483 0.02783060 0.01999998
v -0.01475483 0.02783060 0.01999998
v -0.01165932 0.02926272 0.00000000
v -0.01165932 0.02926272 0.00000000
v -0.01165932 0.02926272 0.01999998
v -0.01165932 0.02926272 0.01999998
v -0.01165932 0.02926272 0.01999998
v -0.00842714 0.03035181 0.00000000
v -0.00842714 0.03035181 0.00000000
v -0.00842714 0.03035181 0.01999998
v -0.00842714 0.03035181 0.01999998
v -0.00509608 0.03108501 0.00000000
v -0.00509608 0.03108501 0.00000000
v -0.00509608 0.03108501 0.01999998
v -0.00509608 0.03108501 0.01999998
v -0.00509608 0.03108501 0.01999998
v -0.00170535 0.03145378 0.00000000
v -0.00170535 0.03145378 0.00000000
v -0.00170535 0.03145378 0.01999998
v -0.00170535 0.03145378 0.01999998
v 0.00170535 0.03145378 0.00000000
v 0.00170535 0.03145378 0.00000000
v 0.00170535 0.03145378 0.01999998
v 0.00170535 0.03145378 0.01999998
v 0.00170535 0.03145378 0.01999998
v 0.00509608 0.03108501 0.01999998
v 0.00509608 0.03108501 0.01999998
v 0.00509608 0.03108501 0.00000000
v 0.00509608 0.03108501 0.00000000
v 0.00842714 0.03035181 0.00000000
v 0.00842714 0.03035181 0.00000000
v 0.00842714 0.03035181 0.01999998
v 0.00842714 0.03035181 0.01999998
v 0.00842714 0.03035181 0.01999998
v 0.00842714 0.03035181 0.01999998
v 0.00842714 0.03035181 0.01999998
v 0.00842714 0.03035181 0.01999998
v 0.01165932 0.02926272 0.01999998
v 0.01165932 0.02926272 0.01999998
v 0.01165932 0.02926272 0.00000000
v 0.01165932 0.02926272 0.00000000
v 0.01475483 0.02783060 0.00000000
v 0.01475483 0.02783060 0.00000000
v 0.01475483 0.02783060 0.01999998
v 0.01475483 0.02783060 0.01999998
v 0.01475483 0.02783060 0.01999998
v 0.01475483 0.02783060 0.01999998
v 0.01475483 0.02783060 0.01999998
v 0.01767736 0.02607220 0.00000000
v 0.01767736 0.02607220 0.00000000
v 0.01767736 0.02607220 0.01999998
v 0.01767736 0.02607220 0.01999998
v 0.01767736 0.02607220 0.01999998
v 0.02039265 0.02400809 0.00000000
v 0.02039265 0.02400809 0.00000000
v 0.02039265 0.02400809 0.01999998
v 0.02039265 0.02400809 0.01999998
v 0.02286881 0.02166253 0.00000000
v 0.02286881 0.02166253 0.00000000
v 0.02286881 0.02166253 0.01999998
v 0.02286881 0.02166253 0.01999998
v 0.02286881 0.02166253 0.01999998
v 0.02286881 0.02166253 0.01999998
v 0.02507692 0.01906293 0.00000000
v 0.02507692 0.01906293 0.00000000
v 0.02507692 0.01906293 0.01999998
v 0.02507692 0.01906293 0.01999998
v 0.02507692 0.01906293 0.01999998
v 0.02699095 0.01623994 0.00000000
v 0.02699095 0.01623994 0.00000000
v 0.02699095 0.01623994 0.01999998
v 0.02699095 0.01623994 0.01999998
v 0.02858859 0.01322650 0.01999998
v 0.02858859 0.01322650 0.01999998
v 0.02858859 0.01322650 0.01999998
v 0.02858859 0.01322650 0.01999998
v 0.02858859 0.01322650 0.00000000
v 0.02858859 0.01322650 0.00000000
v 0.02985107 0.01005798 0.00000000
v 0.02985107 0.01005798 0.00000000
v 0.02985107 0.01005798 0.01999998
v 0.02985107 0.01005798 0.01999998
v 0.02985107 0.01005798 0.01999998
v 0.03076350 0.00677156 0.00000000
v 0.03076350 0.00677156 0.00000000
v 0.03076350 0.00677156 0.01999998
v 0.03076350 0.00677156 0.01999998
v 0.03131532 0.00340569 0.00000000
v 0.03131532 0.00340569 0.00000000
v 0.03131532 0.00340569 0.01999998
v 0.03131532 0.00340569 0.01999998
v 0.03149998 -0.00000000 0.00000000
v 0.03149998 -0.00000000 0.00000000
v 0.03149998 -0.00000000 0.00000000
v 0.03149998 -0.00000000 0.01999998
v 0.03149998 -0.00000000 0.01999998
v 0.03149998 -0.00000000 0.01999998
v 0.03149998 -0.00000000 0.01999998
v 0.03131532 -0.00340569 0.00000000
v 0.03131532 -0.00340569 0.00000000
v 0.03131532 -0.00340569 0.01999998
v 0.03131532 -0.00340569 0.01999998
v 0.03076350 -0.00677156 0.00000000
v 0.03076350 -0.00677156 0.00000000
v 0.03076350 -0.00677156 0.01999998
v 0.03076350 -0.00677156 0.01999998
v 0.03076350 -0.00677156 0.01999998
v 0.02985107 -0.01005798 0.01999998
v 0.02985107 -0.01005798 0.01999998
v 0.02985107 -0.01005798 0.00000000
v 0.02985107 -0.01005798 0.00000000
v 0.02858859 -0.01322650 0.00000000
v 0.02858859 -0.01322650 0.00000000
v 0.02858859 -0.01322650 0.01999998
v 0.02858859 -0.01322650 0.01999998
v 0.02858859 -0.01322650 0.01999998
v 0.02858859 -0.01322650 0.01999998
v 0.02699095 -0.01623994 0.01999998
v 0.02699095 -0.01623994 0.01999998
v 0.02699095 -0.01623994 0.00000000
v 0.02699095 -0.01623994 0.00000000
v 0.02507692 -0.01906293 0.01999998
v 0.02507692 -0.01906293 0.01999998
v 0.02507692 -0.01906293 0.01999998
v 0.02507692 -0.01906293 0.01999998
v 0.02507692 -0.01906293 0.01999998
v 0.02507692 -0.01906293 0.01999998
v 0.02507692 -0.01906293 0.01999998
v 0.02507692 -0.01906293 0.00000000
v 0.02507692 -0.01906293 0.00000000
v 0.02286881 -0.02166253 0.00000000
v 0.02286881 -0.02166253 0.00000000
v 0.02286881 -0.02166253 0.01999998
v 0.02286881 -0.02166253 0.01999998
v 0.02039265 -0.02400809 0.01999998
v 0.02039265 -0.02400809 0.01999998
v 0.02039265 -0.02400809 0.01999998
v 0.02039265 -0.02400809 0.00000000
v 0.02039265 -0.02400809 0.00000000
v 0.01767736 -0.02607220 0.00000000
v 0.01767736 -0.02607220 0.00000000
v 0.01767736 -0.02607220 0.01999998
v 0.01767736 -0.02607220 0.01999998
v 0.01767736 -0.02607220 0.01999998
v 0.01475483 -0.02783060 0.01999998
v 0.01475483 -0.02783060 0.01999998
v 0.01475483 -0.02783060 0.01999998
v 0.01475483 -0.02783060 0.00000000
v 0.01475483 -0.02783060 0.00000000
v 0.01165932 -0.02926272 0.00000000
v 0.01165932 -0.02926272 0.00000000
v 0.01165932 -0.02926272 0.01999998
v 0.01165932 -0.02926272 0.01999998
v 0.01165932 -0.02926272 0.01999998
v 0.00842714 -0.03035181 0.01999998
v 0.00842714 -0.03035181 0.01999998
v 0.00842714 -0.03035181 0.01999998
v 0.00842714 -0.03035181 0.00000000
v 0.00842714 -0.03035181 0.00000000
v 0.00509608 -0.03108501 0.00000000
v 0.00509608 -0.03108501 0.00000000
v 0.00509608 -0.03108501 0.01999998
v 0.00509608 -0.03108501 0.01999998
v 0.00509608 -0.03108501 0.01999998
v 0.00509608 -0.03108501 0.01999998
v 0.00170535 -0.03145378 0.01999998
v 0.00170535 -0.03145378 0.01999998
v 0.00170535 -0.03145378 0.00000000
v 0.00170535 -0.03145378 0.00000000
v -0.00170535 -0.03145378 0.00000000
v -0.00170535 -0.03145378 0.00000000
v -0.00170535 -0.03145378 0.01999998
v -0.00170535 -0.03145378 0.01999998
v -0.00509608 -0.03108501 0.00000000
v -0.00509608 -0.03108501 0.00000000
v -0.00509608 -0.03108501 0.01999998
v -0.00509608 -0.03108501 0.01999998
v -0.00842714 -0.03035181 0.00000000
v -0.00842714 -0.03035181 0.00000000
v -0.00842714 -0.03035181 0.01999998
v -0.00842714 -0.03035181 0.01999998
v -0.00842714 -0.03035181 0.01999998
v -0.01165932 -0.02926272 0.00000000
v -0.01165932 -0.02926272 0.00000000
v -0.01165932 -0.02926272 0.01999998
v -0.01165932 -0.02926272 0.01999998
v -0.01475483 -0.02783060 0.00000000
v -0.01475483 -0.02783060 0.00000000
v -0.01475483 -0.02783060 0.01999998
v -0.01475483 -0.02783060 0.01999998
v -0.01475483 -0.02783060 0.01999998
v -0.01475483 -0.02783060 0.01999998
v -0.01767736 -0.02607220 0.00000000
v -0.01767736 -0.02607220 0.00000000
v -0.01767736 -0.02607220 0.01999998
v -0.01767736 -0.02607220 0.01999998
v -0.02039265 -0.02400809 0.00000000
v -0.02039265 -0.02400809 0.00000000
v -0.02039265 -0.02400809 0.01999998
v -0.02039265 -0.02400809 0.01999998
v -0.02039265 -0.02400809 0.01999998
v -0.02039265 -0.02400809 0.01999998
v -0.02286881 -0.02166253 0.00000000
v -0.02286881 -0.02166253 0.00000000
v -0.02286881 -0.02166253 0.01999998
v -0.02286881 -0.02166253 0.01999998
v -0.02286881 -0.02166253 0.01999998
v -0.02286881 -0.02166253 0.01999998
v -0.02507692 -0.01906293 0.00000000
v -0.02507692 -0.01906293 0.00000000
v -0.02507692 -0.01906293 0.01999998
v -0.02507692 -0.01906293 0.01999998
v -0.02507692 -0.01906293 0.01999998
v -0.02507692 -0.01906293 0.01999998
v -0.02699095 -0.01623994 0.01999998
v -0.02699095 -0.01623994 0.01999998
v -0.02699095 -0.01623994 0.00000000
v -0.02699095 -0.01623994 0.00000000
v -0.02858859 -0.01322650 0.00000000
v -0.02858859 -0.01322650 0.00000000
v -0.02858859 -0.01322650 0.01999998
v -0.02858859 -0.01322650 0.01999998
v -0.02858859 -0.01322650 0.01999998
v -0.02858859 -0.01322650 0.01999998
v -0.02858859 -0.01322650 0.01999998
v -0.02985107 -0.01005798 0.00000000
v -0.02985107 -0.01005798 0.00000000
v -0.02985107 -0.01005798 0.01999998
v -0.02985107 -0.01005798 0.01999998
v -0.03076350 -0.00677156 0.00000000
v -0.03076350 -0.00677156 0.00000000
v -0.03076350 -0.00677156 0.01999998
v -0.03076350 -0.00677156 0.01999998
v -0.03076350 -0.00677156 0.01999998
v -0.03131532 -0.00340569 0.00000000
v -0.03131532 -0.00340569 0.00000000
v -0.03131532 -0.00340569 0.01999998
v -0.03131532 -0.00340569 0.01999998
v -0.03131532 -0.00340569 0.01999998
v -0.03131532 -0.00340569 0.01999998
v -0.03131532 -0.00340569 0.01999998
v -0.01969611 0.00347292 0.01999998
v -0.01969611 0.00347292 0.01999998
v -0.01969611 0.00347292 0.01999998
v -0.01999998 -0.00000000 0.17000000
v -0.01999998 -0.00000000 0.17000000
v -0.01999998 -0.00000000 0.17000000
v -0.01969611 0.00347292 0.17000000
v -0.01969611 0.00347292 0.17000000
v -0.01969611 0.00347292 0.17000000
v -0.01969611 0.00347292 0.17000000
v -0.01999998 -0.00000000 0.01999998
v -0.01999998 -0.00000000 0.01999998
v -0.01999998 -0.00000000 0.01999998
v -0.01879382 0.00684035 0.01999998
v -0.01879382 0.00684035 0.01999998
v -0.01879382 0.00684035 0.17000000
v -0.01879382 0.00684035 0.17000000
v -0.01732051 0.00999999 0.01999998
v -0.01732051 0.00999999 0.01999998
v -0.01732051 0.00999999 0.17000000
v -0.01732051 0.00999999 0.17000000
v -0.01732051 0.00999999 0.17000000
v -0.01532083 0.01285570 0.01999998
v -0.01532083 0.01285570 0.01999998
v -0.01532083 0.01285570 0.01999998
v -0.01532083 0.01285570 0.01999998
v -0.01532083 0.01285570 0.01999998
v -0.01532083 0.01285570 0.17000000
v -0.01532083 0.01285570 0.17000000
v -0.01532083 0.01285570 0.17000000
v -0.01532083 0.01285570 0.17000000
v -0.01532083 0.01285570 0.17000000
v -0.01532083 0.01285570 0.17000000
v -0.01532083 0.01285570 0.17000000
v -0.01285570 0.01532083 0.01999998
v -0.01285570 0.01532083 0.01999998
v -0.01285570 0.01532083 0.17000000
v -0.01285570 0.01532083 0.17000000
v -0.00999999 0.01732051 0.01999998
v -0.00999999 0.01732051 0.01999998
v -0.00999999 0.01732051 0.01999998
v -0.00999999 0.01732051 0.01999998
v -0.00999999 0.01732051 0.17000000
v -0.00999999 0.01732051 0.17000000
v -0.00999999 0.01732051 0.17000000
v -0.00999999 0.01732051 0.17000000
v -0.00684035 0.01879382 0.17000000
v -0.00684035 0.01879382 0.17000000
v -0.00684035 0.01879382 0.01999998
v -0.00684035 0.01879382 0.01999998
v -0.00347292 0.01969611 0.01999998
v -0.00347292 0.01969611 0.01999998
v -0.00347292 0.01969611 0.01999998
v -0.00347292 0.01969611 0.01999998
v -0.00347292 0.01969611 0.17000000
v -0.00347292 0.01969611 0.17000000
v -0.00347292 0.01969611 0.17000000
v 0.00000000 0.01999998 0.01999998
v 0.00000000 0.01999998 0.01999998
v 0.00000000 0.01999998 0.17000000
v 0.00000000 0.01999998 0.17000000
v 0.00347292 0.01969611 0.01999998
v 0.00347292 0.01969611 0.01999998
v 0.00347292 0.01969611 0.01999998
v 0.00347292 0.01969611 0.17000000
v 0.00347292 0.01969611 0.17000000
v 0.00347292 0.01969611 0.17000000
v 0.00684035 0.01879382 0.01999998
v 0.00684035 0.01879382 0.01999998
v 0.00684035 0.01879382 0.17000000
v 0.00684035 0.01879382 0.17000000
v 0.00999999 0.01732051 0.17000000
v 0.00999999 0.01732051 0.17000000
v 0.00999999 0.01732051 0.17000000
v 0.00999999 0.01732051 0.17000000
v 0.00999999 0.01732051 0.01999998
v 0.00999999 0.01732051 0.01999998
v 0.00999999 0.01732051 0.01999998
v 0.01285570 0.01532083 0.01999998
v 0.01285570 0.01532083 0.01999998
v 0.01285570 0.01532083 0.01999998
v 0.01285570 0.01532083 0.17000000
v 0.01285570 0.01532083 0.17000000
v 0.01285570 0.01532083 0.17000000
v 0.01532083 0.01285570 0.01999998
v 0.01532083 0.01285570 0.01999998
v 0.01532083 0.01285570 0.01999998
v 0.01532083 0.01285570 0.01999998
v 0.01532083 0.01285570 0.17000000
v 0.01532083 0.01285570 0.17000000
v 0.01532083 0.01285570 0.17000000
v 0.01532083 0.01285570 0.17000000
v 0.01732051 0.00999999 0.17000000
v 0.01732051 0.00999999 0.17000000
v 0.01732051 0.00999999 0.01999998
v 0.01732051 0.00999999 0.01999998
v 0.01879382 0.00684035 0.01999998
v 0.01879382 0.00684035 0.01999998
v 0.01879382 0.00684035 0.01999998
v 0.01879382 0.00684035 0.17000000
v 0.01879382 0.00684035 0.17000000
v 0.01879382 0.00684035 0.17000000
v 0.01969611 0.00347292 0.01999998
v 0.01969611 0.00347292 0.01999998
v 0.01969611 0.00347292 0.01999998
v 0.01969611 0.00347292 0.01999998
v 0.01969611 0.00347292 0.01999998
v 0.01969611 0.00347292 0.17000000
v 0.01969611 0.00347292 0.17000000
v 0.01969611 0.00347292 0.17000000
v 0.01969611 0.00347292 0.17000000
v 0.01969611 0.00347292 0.17000000
v 0.01999998 -0.00000000 0.17000000
v 0.01999998 -0.00000000 0.17000000
v 0.01999998 -0.00000000 0.17000000
v 0.01999998 -0.00000000 0.17000000
v 0.01999998 -0.00000000 0.17000000
v 0.01999998 -0.00000000 0.01999998
v 0.01999998 -0.00000000 0.01999998
v 0.01999998 -0.00000000 0.01999998
v 0.01999998 -0.00000000 0.01999998
v 0.01969611 -0.00347292 0.01999998
v 0.01969611 -0.00347292 0.01999998
v 0.01969611 -0.00347292 0.17000000
v 0.01969611 -0.00347292 0.17000000
v 0.01969611 -0.00347292 0.17000000
v 0.01879382 -0.00684035 0.01999998
v 0.01879382 -0.00684035 0.01999998
v 0.01879382 -0.00684035 0.17000000
v 0.01879382 -0.00684035 0.17000000
v 0.01732051 -0.00999999 0.01999998
v 0.01732051 -0.00999999 0.01999998
v 0.01732051 -0.00999999 0.01999998
v 0.01732051 -0.00999999 0.17000000
v 0.01732051 -0.00999999 0.17000000
v 0.01732051 -0.00999999 0.17000000
v 0.01732051 -0.00999999 0.17000000
v 0.01532083 -0.01285570 0.01999998
v 0.01532083 -0.01285570 0.01999998
v 0.01532083 -0.01285570 0.01999998
v 0.01532083 -0.01285570 0.01999998
v 0.01532083 -0.01285570 0.17000000
v 0.01532083 -0.01285570 0.17000000
v 0.01532083 -0.01285570 0.17000000
v 0.01532083 -0.01285570 0.17000000
v 0.01285570 -0.01532083 0.01999998
v 0.01285570 -0.01532083 0.01999998
v 0.01285570 -0.01532083 0.01999998
v 0.01285570 -0.01532083 0.01999998
v 0.01285570 -0.01532083 0.01999998
v 0.01285570 -0.01532083 0.17000000
v 0.01285570 -0.01532083 0.17000000
v 0.01285570 -0.01532083 0.17000000
v 0.01285570 -0.01532083 0.17000000
v 0.01285570 -0.01532083 0.17000000
v 0.00999999 -0.01732051 0.17000000
v 0.00999999 -0.01732051 0.17000000
v 0.00999999 -0.01732051 0.01999998
v 0.00999999 -0.01732051 0.01999998
v 0.00684035 -0.01879382 0.17000000
v 0.00684035 -0.01879382 0.17000000
v 0.00684035 -0.01879382 0.17000000
v 0.00684035 -0.01879382 0.17000000
v 0.00684035 -0.01879382 0.17000000
v 0.00684035 -0.01879382 0.01999998
v 0.00684035 -0.01879382 0.01999998
v 0.00684035 -0.01879382 0.01999998
v 0.00684035 -0.01879382 0.01999998
v 0.00347292 -0.01969611 0.01999998
v 0.00347292 -0.01969611 0.01999998
v 0.00347292 -0.01969611 0.17000000
v 0.00347292 -0.01969611 0.17000000
v 0.00000000 -0.01999998 0.01999998
v 0.00000000 -0.01999998 0.01999998
v 0.00000000 -0.01999998 0.17000000
v 0.00000000 -0.01999998 0.17000000
v -0.00347292 -0.01969611 0.01999998
v -0.00347292 -0.01969611 0.01999998
v -0.00347292 -0.01969611 0.01999998
v -0.00347292 -0.01969611 0.17000000
v -0.00347292 -0.01969611 0.17000000
v -0.00347292 -0.01969611 0.17000000
v -0.00684035 -0.01879382 0.01999998
v -0.00684035 -0.01879382 0.01999998
v -0.00684035 -0.01879382 0.17000000
v -0.00684035 -0.01879382 0.17000000
v -0.00999999 -0.01732051 0.01999998
v -0.00999999 -0.01732051 0.01999998
v -0.00999999 -0.01732051 0.01999998
v -0.00999999 -0.01732051 0.01999998
v -0.00999999 -0.01732051 0.01999998
v -0.00999999 -0.01732051 0.17000000
v -0.00999999 -0.01732051 0.17000000
v -0.00999999 -0.01732051 0.17000000
v -0.00999999 -0.01732051 0.17000000
v -0.00999999 -0.01732051 0.17000000
v -0.00999999 -0.01732051 0.17000000
v -0.00999999 -0.01732051 0.17000000
v -0.01285570 -0.01532083 0.01999998
v -0.01285570 -0.01532083 0.01999998
v -0.01285570 -0.01532083 0.17000000
v -0.01285570 -0.01532083 0.17000000
v -0.01532083 -0.01285570 0.01999998
v -0.01532083 -0.01285570 0.01999998
v -0.01532083 -0.01285570 0.01999998
v -0.01532083 -0.01285570 0.17000000
v -0.01532083 -0.01285570 0.17000000
v -0.01532083 -0.01285570 0.17000000
v -0.01532083 -0.01285570 0.17000000
v -0.01732051 -0.00999999 0.01999998
v -0.01732051 -0.00999999 0.01999998
v -0.01732051 -0.00999999 0.17000000
v -0.01732051 -0.00999999 0.17000000
v -0.01879382 -0.00684035 0.17000000
v -0.01879382 -0.00684035 0.17000000
v -0.01879382 -0.00684035 0.17000000
v -0.01879382 -0.00684035 0.17000000
v -0.01879382 -0.00684035 0.17000000
v -0.01879382 -0.00684035 0.17000000
v -0.01879382 -0.00684035 0.01999998
v -0.01879382 -0.00684035 0.01999998
v -0.01879382 -0.00684035 0.01999998
v -0.01879382 -0.00684035 0.01999998
v -0.01879382 -0.00684035 0.01999998
v -0.01969611 -0.00347292 0.01999998
v -0.01969611 -0.00347292 0.01999998
v -0.01969611 -0.00347292 0.01999998
v -0.01969611 -0.00347292 0.17000000
v -0.01969611 -0.00347292 0.17000000
v -0.01969611 -0.00347292 0.17000000
vn -0.99413800 0.10811970 0.00000000
vn 0.00000000 -0.00000000 -1.00000000
vn 0.00000471 -0.00000000 1.00000000
vn -0.00000389 -0.00000000 1.00000000
vn -1.00000000 0.00000389 -0.00000260
vn 0.00000000 -0.00000000 1.00000000
vn -1.00000000 -0.00000389 -0.00000259
vn 0.00000000 -0.00000000 1.00000000
vn -0.99413800 0.10811900 0.00000000
vn -1.00000000 0.00000389 0.00000259
vn -1.00000000 -0.00000389 0.00000260
vn 0.00000000 -0.00000000 -1.00000000
vn 0.00000000 -0.00000000 -1.00000000
vn -0.97662061 0.21497050 0.00000000
vn 0.00000000 -0.00000000 1.00000000
vn -0.97662067 0.21496980 0.00000000
vn -0.94765341 0.31930110 0.00000000
vn 0.00000000 -0.00000000 1.00000000
vn -0.00000389 -0.00000000 1.00000000
vn -0.94765312 0.31930181 0.00000000
vn 0.00000000 -0.00000000 -1.00000000
vn 0.00000000 -0.00000000 -1.00000000
vn -0.90757543 0.41988909 0.00000000
vn 0.00000029 -0.00000000 1.00000000
vn -0.90757549 0.41988921 0.00000000
vn 0.00000000 -0.00000000 1.00000000
vn 0.00000119 -0.00000000 1.00000000
vn -0.00000389 -0.00000000 1.00000000
vn -0.00000019 -0.00000000 1.00000000
vn -0.00000140 -0.00000000 1.00000000
vn 0.00000471 -0.00000000 1.00000000
vn -0.85685742 0.51555371 0.00000000
vn 0.00000000 -0.00000000 1.00000000
vn 0.00000119 -0.00000000 1.00000000
vn -0.85685700 0.51555407 0.00000000
vn 0.00000000 -0.00000000 -1.00000000
vn 0.00000000 -0.00000000 -1.00000000
vn -0.79609281 0.60517460 0.00000000
vn -0.79609370 0.60517353 0.00000000
vn 0.00000000 -0.00000000 1.00000000
vn -0.00000146 -0.00000000 1.00000000
vn 0.00000000 -0.00000000 -1.00000000
vn -0.72599542 0.68769968 0.00000000
vn -0.72599548 0.68769962 0.00000000
vn 0.00000000 -0.00000000 1.00000000
vn 0.00000000 -0.00000000 -1.00000000
vn -0.64738631 0.76216221 0.00000000
vn -0.64738631 0.76216203 0.00000000
vn 0.00000000 -0.00000000 1.00000000
vn -0.00000146 -0.00000000 1.00000000
vn -0.56118667 0.82768917 0.00000000
vn 0.00000000 -0.00000000 -1.00000000
vn 0.00000000 -0.00000000 1.00000000
vn -0.56118751 0.82768881 0.00000000
vn -0.46840790 0.88351238 0.00000000
vn 0.00000000 -0.00000000 -1.00000000
vn -0.46840879 0.88351202 0.00000000
vn 0.00000097 -0.00000000 1.00000000
vn 0.00000119 -0.00000000 1.00000000
vn 0.00000000 -0.00000000 1.00000000
vn -0.00000019 -0.00000000 1.00000000
vn -0.00000146 -0.00000000 1.00000000
vn -0.37013790 0.92897689 0.00000000
vn 0.00000000 -0.00000000 -1.00000000
vn 0.00000000 -0.00000000 1.00000000
vn 0.00000097 -0.00000000 1.00000000
vn -0.37013859 0.92897659 0.00000000
vn 0.00000000 -0.00000000 -1.00000000
vn -0.26752791 0.96355009 0.00000000
vn 0.00000000 -0.00000000 1.00000000
vn -0.26752859 0.96354997 0.00000000
vn 0.00000000 -0.00000000 -1.00000000
vn -0.16178170 0.98682672 0.00000000
vn -0.16178229 0.98682648 0.00000000
vn 0.00000000 -0.00000000 1.00000000
vn 0.00000097 -0.00000000 1.00000000
vn -0.05413872 0.99853343 0.00000000
vn 0.00000000 -0.00000000 -1.00000000
vn 0.00000000 -0.00000000 1.00000000
vn -0.05413937 0.99853349 0.00000000
vn 0.00000000 -0.00000000 -1.00000000
vn 0.05413907 0.99853349 0.00000000
vn -0.00000072 -0.00000000 1.00000000
vn 0.00000000 -0.00000000 1.00000000
vn 0.05413907 0.99853349 0.00000000
vn -0.00000072 -0.00000000 1.00000000
vn 0.16178200 0.98682660 0.00000000
vn 0.00000000 -0.00000000 -1.00000000
vn 0.16178200 0.98682660 0.00000000
vn 0.00000000 -0.00000000 -1.00000000
vn 0.26752830 0.96354997 0.00000000
vn -0.00000289 -0.00000000 1.00000000
vn -0.00000019 -0.00000000 1.00000000
vn 0.00000000 -0.00000000 1.00000000
vn 0.00000029 -0.00000000 1.00000000
vn -0.00000072 -0.00000000 1.00000000
vn 0.26752830 0.96355009 0.00000000
vn 0.37013820 0.92897677 0.00000000
vn -0.00000289 -0.00000000 1.00000000
vn 0.37013829 0.92897672 0.00000000
vn 0.00000000 -0.00000000 -1.00000000
vn 0.00000000 -0.00000000 -1.00000000
vn 0.46840879 0.88351202 0.00000000
vn 0.46840790 0.88351238 0.00000000
vn 0.00000000 -0.00000000 1.00000000
vn 0.00000029 -0.00000000 1.00000000
vn -0.00000289 -0.00000000 1.00000000
vn 0.00000194 -0.00000000 1.00000000
vn 0.56118751 0.82768881 0.00000000
vn 0.00000000 -0.00000000 -1.00000000
vn 0.56118667 0.82768917 0.00000000
vn 0.00000578 -0.00000000 1.00000000
vn 0.00000194 -0.00000000 1.00000000
vn 0.64738631 0.76216203 0.00000000
vn 0.00000000 -0.00000000 -1.00000000
vn 0.64738631 0.76216221 0.00000000
vn 0.00000578 -0.00000000 1.00000000
vn 0.72599548 0.68769962 0.00000000
vn 0.00000000 -0.00000000 -1.00000000
vn 0.00000578 -0.00000000 1.00000000
vn 0.00000000 -0.00000000 1.00000000
vn 0.00000194 -0.00000000 1.00000000
vn 0.72599542 0.68769968 0.00000000
vn 0.79609370 0.60517353 0.00000000
vn 0.00000000 -0.00000000 -1.00000000
vn 0.00000000 -0.00000000 1.00000000
vn 0.79609281 0.60517460 0.00000000
vn 0.00000578 -0.00000000 1.00000000
vn 0.85685742 0.51555371 0.00000000
vn 0.00000000 -0.00000000 -1.00000000
vn 0.85685700 0.51555407 0.00000000
vn 0.00000578 -0.00000000 1.00000000
vn 0.00000578 -0.00000000 1.00000000
vn 0.00000389 -0.00000000 1.00000000
vn 0.00000000 -0.00000000 1.00000000
vn 0.90757543 0.41988909 0.00000000
vn 0.00000000 -0.00000000 -1.00000000
vn 0.90757549 0.41988921 0.00000000
vn 0.00000000 -0.00000000 -1.00000000
vn 0.94765317 0.31930140 0.00000000
vn 0.00000000 -0.00000000 1.00000000
vn 0.94765317 0.31930140 0.00000000
vn 0.00000389 -0.00000000 1.00000000
vn 0.00000000 -0.00000000 -1.00000000
vn 0.97662061 0.21497020 0.00000000
vn 0.00000000 -0.00000000 1.00000000
vn 0.97662067 0.21497010 0.00000000
vn 0.00000000 -0.00000000 -1.00000000
vn 0.99413800 0.10811900 0.00000000
vn 0.99413800 0.10811970 0.00000000
vn 0.00000000 -0.00000000 1.00000000
vn 0.00000000 -0.00000000 -1.00000000
vn 1.00000000 0.00000389 0.00000260
vn 1.00000000 -0.00000389 0.00000259
vn 1.00000000 -0.00000389 -0.00000260
vn 0.00000000 -0.00000000 1.00000000
vn 0.00000389 -0.00000000 1.00000000
vn 1.00000000 0.00000389 -0.00000259
vn 0.99413800 -0.10811970 0.00000000
vn 0.00000000 -0.00000000 -1.00000000
vn 0.00000000 -0.00000000 1.00000000
vn 0.99413800 -0.10811900 0.00000000
vn 0.97662061 -0.21497050 0.00000000
vn 0.00000000 -0.00000000 -1.00000000
vn 0.97662067 -0.21496980 0.00000000
vn 0.00000000 -0.00000000 1.00000000
vn 0.00001157 -0.00000000 1.00000000
vn 0.00001157 -0.00000000 1.00000000
vn 0.94765341 -0.31930110 0.00000000
vn 0.94765312 -0.31930181 0.00000000
vn 0.00000000 -0.00000000 -1.00000000
vn 0.90757543 -0.41988909 0.00000000
vn 0.00000000 -0.00000000 -1.00000000
vn 0.90757549 -0.41988921 0.00000000
vn 0.00001157 -0.00000000 1.00000000
vn 0.00000000 -0.00000000 1.00000000
vn 0.00000578 -0.00000000 1.00000000
vn 0.00000578 -0.00000000 1.00000000
vn 0.85685682 -0.51555443 0.00000000
vn 0.00000000 -0.00000000 -1.00000000
vn 0.85685760 -0.51555341 0.00000000
vn 0.00000578 -0.00000000 1.00000000
vn 0.00000292 -0.00000000 1.00000000
vn 0.79609311 -0.60517430 0.00000000
vn -0.00000194 -0.00000000 1.00000000
vn -0.00000093 -0.00000000 1.00000000
vn 0.00000029 -0.00000000 1.00000000
vn 0.00000000 -0.00000000 1.00000000
vn 0.00000000 -0.00000000 -1.00000000
vn 0.79609340 -0.60517383 0.00000000
vn 0.00000000 -0.00000000 -1.00000000
vn 0.72599518 -0.68769980 0.00000000
vn 0.00000000 -0.00000000 1.00000000
vn 0.72599560 -0.68769938 0.00000000
vn 0.00000000 -0.00000000 1.00000000
vn -0.00000194 -0.00000000 1.00000000
vn 0.64738637 -0.76216191 0.00000000
vn 0.64738607 -0.76216233 0.00000000
vn 0.00000000 -0.00000000 -1.00000000
vn 0.56118721 -0.82768887 0.00000000
vn 0.00000000 -0.00000000 -1.00000000
vn 0.56118703 -0.82768911 0.00000000
vn -0.00000194 -0.00000000 1.00000000
vn 0.00000292 -0.00000000 1.00000000
vn 0.46840820 -0.88351220 0.00000000
vn 0.00000292 -0.00000000 1.00000000
vn 0.00000029 -0.00000000 1.00000000
vn 0.46840841 -0.88351208 0.00000000
vn 0.00000000 -0.00000000 -1.00000000
vn 0.00000000 -0.00000000 -1.00000000
vn 0.37013820 -0.92897677 0.00000000
vn 0.00000000 -0.00000000 1.00000000
vn 0.37013829 -0.92897672 0.00000000
vn 0.00000029 -0.00000000 1.00000000
vn -0.00000093 -0.00000000 1.00000000
vn 0.26752830 -0.96354997 0.00000000
vn 0.00000000 -0.00000000 1.00000000
vn 0.26752830 -0.96355009 0.00000000
vn 0.00000000 -0.00000000 -1.00000000
vn 0.16178200 -0.98682660 0.00000000
vn 0.00000000 -0.00000000 -1.00000000
vn -0.00000093 -0.00000000 1.00000000
vn 0.16178200 -0.98682660 0.00000000
vn -0.00000025 -0.00000000 1.00000000
vn 0.00000000 -0.00000000 1.00000000
vn 0.00000000 -0.00000000 1.00000000
vn 0.05413907 -0.99853349 0.00000000
vn 0.00000000 -0.00000000 -1.00000000
vn 0.05413907 -0.99853349 0.00000000
vn 0.00000000 -0.00000000 -1.00000000
vn -0.05413937 -0.99853349 0.00000000
vn -0.05413872 -0.99853343 0.00000000
vn 0.00000000 -0.00000000 1.00000000
vn -0.16178229 -0.98682648 0.00000000
vn 0.00000000 -0.00000000 -1.00000000
vn -0.16178170 -0.98682672 0.00000000
vn 0.00000000 -0.00000000 1.00000000
vn 0.00000000 -0.00000000 -1.00000000
vn -0.26752859 -0.96354997 0.00000000
vn 0.00000289 -0.00000000 1.00000000
vn -0.26752791 -0.96355009 0.00000000
vn 0.00000000 -0.00000000 1.00000000
vn -0.37013859 -0.92897659 0.00000000
vn 0.00000000 -0.00000000 -1.00000000
vn 0.00000289 -0.00000000 1.00000000
vn -0.37013790 -0.92897689 0.00000000
vn 0.00000000 -0.00000000 -1.00000000
vn -0.46840879 -0.88351202 0.00000000
vn 0.00000289 -0.00000000 1.00000000
vn -0.46840790 -0.88351238 0.00000000
vn -0.00000025 -0.00000000 1.00000000
vn 0.00000000 -0.00000000 1.00000000
vn 0.00000000 -0.00000000 -1.00000000
vn -0.56118751 -0.82768881 0.00000000
vn -0.56118667 -0.82768917 0.00000000
vn 0.00000000 -0.00000000 1.00000000
vn 0.00000000 -0.00000000 -1.00000000
vn -0.64738631 -0.76216203 0.00000000
vn -0.00000025 -0.00000000 1.00000000
vn -0.64738631 -0.76216221 0.00000000
vn 0.00000000 -0.00000000 1.00000000
vn -0.00000140 -0.00000000 1.00000000
vn -0.72599548 -0.68769962 0.00000000
vn 0.00000000 -0.00000000 -1.00000000
vn -0.72599542 -0.68769968 0.00000000
vn -0.00000140 -0.00000000 1.00000000
vn 0.00000000 -0.00000000 1.00000000
vn -0.00000159 -0.00000000 1.00000000
vn 0.00000000 -0.00000000 -1.00000000
vn -0.79609311 -0.60517430 0.00000000
vn 0.00000313 -0.00000000 1.00000000
vn -0.00000159 -0.00000000 1.00000000
vn -0.00000578 -0.00000000 1.00000000
vn -0.79609340 -0.60517383 0.00000000
vn -0.00000578 -0.00000000 1.00000000
vn -0.85685742 -0.51555371 0.00000000
vn -0.85685700 -0.51555407 0.00000000
vn 0.00000000 -0.00000000 -1.00000000
vn 0.00000000 -0.00000000 -1.00000000
vn -0.90757561 -0.41988879 0.00000000
vn -0.90757531 -0.41988939 0.00000000
vn 0.00000000 -0.00000000 1.00000000
vn -0.00000578 -0.00000000 1.00000000
vn 0.00000313 -0.00000000 1.00000000
vn -0.00001157 -0.00000000 1.00000000
vn -0.94765317 -0.31930140 0.00000000
vn 0.00000000 -0.00000000 -1.00000000
vn -0.00001157 -0.00000000 1.00000000
vn -0.94765317 -0.31930140 0.00000000
vn 0.00000000 -0.00000000 -1.00000000
vn -0.97662061 -0.21497020 0.00000000
vn -0.00001157 -0.00000000 1.00000000
vn -0.97662067 -0.21497010 0.00000000
vn 0.00000000 -0.00000000 1.00000000
vn -0.99413800 -0.10811900 0.00000000
vn 0.00000000 -0.00000000 -1.00000000
vn 0.00000471 -0.00000000 1.00000000
vn 0.00000313 -0.00000000 1.00000000
vn -0.00000159 -0.00000000 1.00000000
vn -0.99413800 -0.10811970 0.00000000
vn 0.00000000 -0.00000000 1.00000000
vn 0.00000464 -0.00000000 -1.00000000
vn 0.00000000 -0.00000000 -1.00000000
vn -0.98480803 0.17364711 0.00000000
vn 0.00000000 -0.00000000 1.00000000
vn -1.00000000 0.00001924 -0.00000416
vn -1.00000000 -0.00001924 -0.00000418
vn -0.00003715 -0.00000000 1.00000000
vn -0.00005516 -0.00000000 1.00000000
vn 0.00000000 -0.00000000 1.00000000
vn -0.98480773 0.17364900 0.00000000
vn 0.00000000 -0.00000000 -1.00000000
vn -1.00000000 -0.00001745 0.00000416
vn -1.00000000 0.00001745 0.00000418
vn -0.93969268 0.34201989 0.00000000
vn 0.00000000 -0.00000000 -1.00000000
vn -0.93969250 0.34202051 0.00000000
vn -0.00005516 -0.00000000 1.00000000
vn -0.86602551 0.49999991 0.00000000
vn 0.00000000 -0.00000000 -1.00000000
vn -0.86602551 0.50000012 0.00000000
vn 0.00000000 -0.00000000 1.00000000
vn -0.00005516 -0.00000000 1.00000000
vn -0.00000088 0.00000000 -1.00000000
vn 0.00000016 -0.00000000 -1.00000000
vn 0.00000000 -0.00000000 -1.00000000
vn -0.76604468 0.64278740 0.00000000
vn -0.00000028 0.00000000 -1.00000000
vn 0.00000000 -0.00000000 1.00000000
vn 0.00000184 -0.00000000 1.00000000
vn -0.00000261 -0.00000000 1.00000000
vn 0.00000058 -0.00000000 1.00000000
vn -0.00002758 -0.00000000 1.00000000
vn -0.76604420 0.64278799 0.00000000
vn 0.00000444 -0.00000000 1.00000000
vn 0.00000000 -0.00000000 -1.00000000
vn -0.64278787 0.76604420 0.00000000
vn -0.64278722 0.76604492 0.00000000
vn -0.00002758 -0.00000000 1.00000000
vn -0.00000088 0.00000000 -1.00000000
vn -0.50000000 0.86602539 0.00000000
vn 0.00000000 -0.00000000 -1.00000000
vn 0.00000172 -0.00000000 -1.00000000
vn 0.00000000 -0.00000000 1.00000000
vn -0.50000012 0.86602533 0.00000000
vn 0.00002758 -0.00000000 1.00000000
vn -0.00002758 -0.00000000 1.00000000
vn -0.34202021 0.93969262 0.00000000
vn 0.00002758 -0.00000000 1.00000000
vn -0.34202021 0.93969262 0.00000000
vn 0.00000172 -0.00000000 -1.00000000
vn -0.00000088 0.00000000 -1.00000000
vn -0.17364851 0.98480773 0.00000000
vn 0.00000172 -0.00000000 -1.00000000
vn 0.00000000 -0.00000000 -1.00000000
vn 0.00002758 -0.00000000 1.00000000
vn -0.17364749 0.98480803 0.00000000
vn 0.00000000 -0.00000000 1.00000000
vn -0.00000047 1.00000000 0.00000000
vn 0.00000000 -0.00000000 -1.00000000
vn 0.00000000 -0.00000000 1.00000000
vn 0.00000047 1.00000000 0.00000000
vn -0.00000172 0.00000000 -1.00000000
vn 0.00000000 -0.00000000 -1.00000000
vn 0.17364749 0.98480803 0.00000000
vn 0.00000000 -0.00000000 1.00000000
vn 0.17364851 0.98480773 0.00000000
vn -0.00001379 -0.00000000 1.00000000
vn -0.00000172 0.00000000 -1.00000000
vn 0.34202021 0.93969262 0.00000000
vn 0.34202021 0.93969262 0.00000000
vn -0.00001379 -0.00000000 1.00000000
vn 0.50000012 0.86602539 0.00000000
vn 0.00000000 -0.00000000 1.00000000
vn -0.00001379 -0.00000000 1.00000000
vn 0.00000184 -0.00000000 1.00000000
vn -0.00000172 0.00000000 -1.00000000
vn 0.00000000 -0.00000000 -1.00000000
vn 0.50000012 0.86602533 0.00000000
vn 0.00000236 -0.00000000 -1.00000000
vn 0.00000000 -0.00000000 -1.00000000
vn 0.64278722 0.76604492 0.00000000
vn 0.00000000 -0.00000000 1.00000000
vn 0.00000184 -0.00000000 1.00000000
vn 0.64278799 0.76604420 0.00000000
vn 0.76604432 0.64278781 0.00000000
vn 0.00000236 -0.00000000 -1.00000000
vn 0.00000000 -0.00000000 -1.00000000
vn -0.00000232 0.00000000 -1.00000000
vn 0.00003715 -0.00000000 1.00000000
vn 0.76604468 0.64278752 0.00000000
vn -0.00005516 -0.00000000 1.00000000
vn 0.00000000 -0.00000000 1.00000000
vn 0.86602551 0.50000012 0.00000000
vn -0.00005516 -0.00000000 1.00000000
vn 0.86602539 0.50000000 0.00000000
vn 0.00000000 -0.00000000 -1.00000000
vn 0.93969250 0.34202039 0.00000000
vn -0.00000232 0.00000000 -1.00000000
vn 0.00000000 -0.00000000 -1.00000000
vn -0.00005516 -0.00000000 1.00000000
vn 0.93969268 0.34201989 0.00000000
vn 0.00003715 -0.00000000 1.00000000
vn -0.00000049 0.00000000 -1.00000000
vn 0.00000236 -0.00000000 -1.00000000
vn -0.00000232 0.00000000 -1.00000000
vn 0.98480791 0.17364760 0.00000000
vn 0.00000000 -0.00000000 -1.00000000
vn 0.00003715 -0.00000000 1.00000000
vn 0.00000000 -0.00000000 1.00000000
vn 0.98480773 0.17364840 0.00000000
vn -0.00000988 -0.00000000 1.00000000
vn 0.00002310 -0.00000000 1.00000000
vn 1.00000000 0.00001924 -0.00000418
vn 1.00000000 -0.00001924 -0.00000416
vn -0.00001415 -0.00000000 1.00000000
vn 0.00000000 -0.00000000 1.00000000
vn 0.00002310 -0.00000000 1.00000000
vn -0.00000118 0.00000000 -1.00000000
vn 0.00000000 -0.00000000 -1.00000000
vn 1.00000000 0.00001745 0.00000416
vn 1.00000000 -0.00001745 0.00000418
vn 0.00000000 -0.00000000 -1.00000000
vn 0.98480803 -0.17364711 0.00000000
vn 0.00005516 -0.00000000 1.00000000
vn 0.00000000 -0.00000000 1.00000000
vn 0.98480773 -0.17364900 0.00000000
vn 0.00000000 -0.00000000 -1.00000000
vn 0.93969268 -0.34201989 0.00000000
vn 0.00005516 -0.00000000 1.00000000
vn 0.93969250 -0.34202051 0.00000000
vn -0.00000118 0.00000000 -1.00000000
vn 0.00000000 -0.00000000 -1.00000000
vn 0.86602551 -0.49999991 0.00000000
vn 0.00005516 -0.00000000 1.00000000
vn 0.86602551 -0.50000012 0.00000000
vn 0.00000000 -0.00000000 1.00000000
vn -0.00001415 -0.00000000 1.00000000
vn 0.00000000 -0.00000000 -1.00000000
vn 0.76604468 -0.64278740 0.00000000
vn -0.00000049 0.00000000 -1.00000000
vn -0.00000118 0.00000000 -1.00000000
vn 0.76604420 -0.64278799 0.00000000
vn 0.00002310 -0.00000000 1.00000000
vn -0.00001415 -0.00000000 1.00000000
vn -0.00000988 -0.00000000 1.00000000
vn 0.00000016 -0.00000000 -1.00000000
vn 0.00000000 -0.00000000 -1.00000000
vn 0.00000345 -0.00000000 -1.00000000
vn 0.64278769 -0.76604438 0.00000000
vn -0.00000049 0.00000000 -1.00000000
vn 0.00000000 -0.00000000 1.00000000
vn 0.64278752 -0.76604468 0.00000000
vn -0.00002758 -0.00000000 1.00000000
vn -0.00000988 -0.00000000 1.00000000
vn -0.00000261 -0.00000000 1.00000000
vn 0.50000042 -0.86602521 0.00000000
vn -0.00002758 -0.00000000 1.00000000
vn 0.00000345 -0.00000000 -1.00000000
vn 0.49999970 -0.86602563 0.00000000
vn 0.00000000 -0.00000000 1.00000000
vn 0.00000058 -0.00000000 1.00000000
vn 0.34202021 -0.93969262 0.00000000
vn -0.00002758 -0.00000000 1.00000000
vn -0.00000261 -0.00000000 1.00000000
vn 0.00000016 -0.00000000 -1.00000000
vn 0.00000345 -0.00000000 -1.00000000
vn 0.00000000 -0.00000000 -1.00000000
vn 0.34202021 -0.93969262 0.00000000
vn 0.17364851 -0.98480773 0.00000000
vn 0.00000000 -0.00000000 -1.00000000
vn 0.00000000 -0.00000000 1.00000000
vn 0.17364749 -0.98480803 0.00000000
vn 0.00000047 -1.00000000 0.00000000
vn 0.00000000 -0.00000000 -1.00000000
vn 0.00000000 -0.00000000 1.00000000
vn -0.00000047 -1.00000000 0.00000000
vn -0.17364749 -0.98480803 0.00000000
vn 0.00000000 -0.00000000 -1.00000000
vn 0.00000172 -0.00000000 -1.00000000
vn -0.17364851 -0.98480773 0.00000000
vn 0.00002758 -0.00000000 1.00000000
vn 0.00000000 -0.00000000 1.00000000
vn -0.34201971 -0.93969291 0.00000000
vn 0.00000172 -0.00000000 -1.00000000
vn -0.34202069 -0.93969238 0.00000000
vn 0.00002758 -0.00000000 1.00000000
vn 0.00000172 -0.00000000 -1.00000000
vn -0.00000028 0.00000000 -1.00000000
vn 0.00000176 -0.00000000 -1.00000000
vn 0.00000000 -0.00000000 -1.00000000
vn -0.49999970 -0.86602563 0.00000000
vn 0.00000058 -0.00000000 1.00000000
vn 0.00002758 -0.00000000 1.00000000
vn -0.00000706 -0.00000000 1.00000000
vn -0.50000042 -0.86602521 0.00000000
vn 0.00000000 -0.00000000 1.00000000
vn 0.00000444 -0.00000000 1.00000000
vn -0.00002758 -0.00000000 1.00000000
vn 0.00000000 -0.00000000 -1.00000000
vn -0.64278722 -0.76604492 0.00000000
vn -0.64278799 -0.76604420 0.00000000
vn -0.00002758 -0.00000000 1.00000000
vn 0.00000000 -0.00000000 -1.00000000
vn 0.00000176 -0.00000000 -1.00000000
vn -0.76604420 -0.64278799 0.00000000
vn -0.76604468 -0.64278740 0.00000000
vn -0.00002758 -0.00000000 1.00000000
vn -0.00000706 -0.00000000 1.00000000
vn 0.00002758 -0.00000000 1.00000000
vn 0.00000000 -0.00000000 -1.00000000
vn -0.86602551 -0.50000012 0.00000000
vn 0.00002758 -0.00000000 1.00000000
vn -0.86602539 -0.50000000 0.00000000
vn 0.00000000 -0.00000000 1.00000000
vn 0.00000444 -0.00000000 1.00000000
vn -0.00003715 -0.00000000 1.00000000
vn -0.00000706 -0.00000000 1.00000000
vn 0.00002758 -0.00000000 1.00000000
vn -0.93969268 -0.34202001 0.00000000
vn 0.00000000 -0.00000000 -1.00000000
vn 0.00000464 -0.00000000 -1.00000000
vn -0.00000028 0.00000000 -1.00000000
vn 0.00000176 -0.00000000 -1.00000000
vn -0.93969262 -0.34202039 0.00000000
vn -0.98480791 -0.17364760 0.00000000
vn 0.00000464 -0.00000000 -1.00000000
vn 0.00000000 -0.00000000 -1.00000000
vn -0.98480773 -0.17364840 0.00000000
vn -0.00003715 -0.00000000 1.00000000
vn 0.00000000 -0.00000000 1.00000000
f 1//1 7//7 9//9
f 1//1 11//11 7//7
f 14//14 16//16 17//17
f 14//14 9//9 16//16
f 14//14 1//1 9//9
f 20//20 14//14 17//17
f 23//23 25//25 32//32
f 23//23 17//17 25//25
f 23//23 20//20 17//17
f 35//35 23//23 32//32
f 38//38 32//32 39//39
f 38//38 35//35 32//32
f 43//43 39//39 44//44
f 43//43 38//38 39//39
f 47//47 44//44 48//48
f 47//47 43//43 44//44
f 51//51 48//48 54//54
f 51//51 47//47 48//48
f 55//55 54//54 57//57
f 55//55 51//51 54//54
f 63//63 55//55 57//57
f 63//63 57//57 67//67
f 69//69 63//63 67//67
f 69//69 67//67 71//71
f 73//73 71//71 74//74
f 73//73 69//69 71//71
f 77//77 74//74 80//80
f 77//77 73//73 74//74
f 82//82 77//77 80//80
f 82//82 85//85 87//87
f 82//82 80//80 85//85
f 89//89 82//82 87//87
f 91//91 97//97 98//98
f 91//91 87//87 97//97
f 91//91 89//89 87//87
f 100//100 91//91 98//98
f 103//103 98//98 104//104
f 103//103 100//100 98//98
f 109//109 104//104 111//111
f 109//109 103//103 104//104
f 114//114 111//111 116//116
f 114//114 109//109 111//111
f 118//118 116//116 123//123
f 118//118 114//114 116//116
f 124//124 123//123 127//127
f 124//124 118//118 123//123
f 129//129 131//131 136//136
f 129//129 127//127 131//131
f 129//129 124//124 127//127
f 138//138 129//129 136//136
f 140//140 136//136 142//142
f 140//140 138//138 136//136
f 145//145 142//142 147//147
f 145//145 140//140 142//142
f 149//149 147//147 150//150
f 149//149 145//145 147//147
f 154//154 150//150 155//155
f 154//154 149//149 150//150
f 159//159 153//153 158//158
f 159//159 158//158 162//162
f 163//163 165//165 169//169
f 163//163 162//162 165//165
f 163//163 159//159 162//162
f 170//170 163//163 169//169
f 172//172 174//174 179//179
f 172//172 169//169 174//174
f 172//172 170//170 169//169
f 181//181 179//179 184//184
f 181//181 172//172 179//179
f 190//190 181//181 184//184
f 192//192 194//194 197//197
f 192//192 184//184 194//194
f 192//192 190//190 184//184
f 198//198 192//192 197//197
f 200//200 202//202 205//205
f 200//200 197//197 202//202
f 200//200 198//198 197//197
f 208//208 200//200 205//205
f 211//211 208//208 205//205
f 211//211 213//213 216//216
f 211//211 205//205 213//213
f 218//218 211//211 216//216
f 220//220 218//218 216//216
f 220//220 223//223 227//227
f 220//220 216//216 223//223
f 229//229 220//220 227//227
f 231//231 227//227 232//232
f 231//231 229//229 227//227
f 234//234 232//232 236//236
f 234//234 231//231 232//232
f 239//239 236//236 241//241
f 239//239 234//234 236//236
f 243//243 241//241 246//246
f 243//243 239//239 241//241
f 248//248 246//246 250//250
f 248//248 243//243 246//246
f 254//254 250//250 255//255
f 254//254 248//248 250//250
f 258//258 255//255 260//260
f 258//258 254//254 255//255
f 263//263 260//260 265//265
f 263//263 258//258 260//260
f 270//270 274//274 276//276
f 270//270 265//265 274//274
f 270//270 263//263 265//265
f 277//277 270//270 276//276
f 280//280 276//276 281//281
f 280//280 277//277 276//276
f 286//286 281//281 289//289
f 286//286 280//280 281//281
f 291//291 289//289 293//293
f 291//291 286//286 289//289
f 295//295 293//293 300//300
f 295//295 291//291 293//293
f 10//10 300//300 5//5
f 10//10 295//295 300//300
f 252//252 261//261 256//256
f 283//283 275//275 273//273
f 240//240 249//249 245//245
f 292//292 288//288 285//285
f 237//237 252//252 242//242
f 299//299 272//272 268//268
f 298//298 284//284 271//271
f 301//301 294//294 282//282
f 225//225 237//237 233//233
f 225//225 233//233 226//226
f 224//224 259//259 251//251
f 225//225 252//252 237//237
f 15//15 8//8 6//6
f 18//18 15//15 6//6
f 31//31 3//3 297//297
f 30//30 266//266 262//262
f 28//28 19//19 4//4
f 26//26 301//301 267//267
f 49//49 45//45 40//40
f 186//186 222//222 215//215
f 188//188 217//217 212//212
f 187//187 214//214 207//207
f 183//183 206//206 204//204
f 185//185 203//203 196//196
f 188//188 195//195 193//193
f 188//188 261//261 225//225
f 62//62 50//50 41//41
f 60//60 53//53 49//49
f 60//60 40//40 33//33
f 59//59 34//34 27//27
f 177//177 182//182 178//178
f 176//176 261//261 188//188
f 167//167 175//175 168//168
f 75//75 70//70 65//65
f 76//76 66//66 58//58
f 161//161 176//176 166//166
f 79//79 75//75 60//60
f 156//156 261//261 176//176
f 156//156 176//176 161//161
f 156//156 26//26 261//261
f 84//84 79//79 60//60
f 93//93 61//61 29//29
f 96//96 86//86 83//83
f 94//94 84//84 60//60
f 141//141 156//156 151//151
f 141//141 151//151 146//146
f 134//134 157//157 143//143
f 107//107 99//99 92//92
f 106//106 95//95 24//24
f 128//128 133//133 132//132
f 120//120 117//117 112//112
f 122//122 113//113 108//108
f 121//121 26//26 156//156
f 121//121 156//156 135//135
f 121//121 105//105 26//26
f 121//121 135//135 126//126
f 247//247 253//253 257//257
f 279//279 269//269 278//278
f 238//238 244//244 247//247
f 290//290 279//279 287//287
f 235//235 238//238 247//247
f 296//296 264//264 269//269
f 296//296 269//269 279//279
f 296//296 279//279 290//290
f 221//221 230//230 235//235
f 221//221 228//228 230//230
f 221//221 247//247 257//257
f 221//221 235//235 247//247
f 13//13 12//12 2//2
f 21//21 12//12 13//13
f 22//22 296//296 12//12
f 22//22 257//257 264//264
f 22//22 264//264 296//296
f 22//22 12//12 21//21
f 46//46 37//37 42//42
f 189//189 219//219 221//221
f 189//189 210//210 219//219
f 189//189 209//209 210//210
f 189//189 201//201 209//209
f 189//189 199//199 201//201
f 189//189 191//191 199//199
f 189//189 221//221 257//257
f 56//56 46//46 52//52
f 56//56 37//37 46//46
f 56//56 36//36 37//37
f 56//56 22//22 36//36
f 173//173 189//189 257//257
f 173//173 180//180 189//189
f 164//164 171//171 173//173
f 72//72 64//64 68//68
f 72//72 56//56 64//64
f 160//160 164//164 173//173
f 78//78 56//56 72//72
f 152//152 173//173 257//257
f 152//152 160//160 173//173
f 81//81 56//56 78//78
f 90//90 22//22 56//56
f 90//90 81//81 88//88
f 90//90 56//56 81//81
f 137//137 148//148 152//152
f 137//137 144//144 148//148
f 137//137 139//139 144//144
f 102//102 90//90 101//101
f 102//102 22//22 90//90
f 125//125 130//130 137//137
f 125//125 152//152 257//257
f 125//125 137//137 152//152
f 115//115 257//257 22//22
f 115//115 102//102 110//110
f 115//115 22//22 102//102
f 115//115 125//125 257//257
f 119//119 125//125 115//115
f 304//304 306//306 311//311
f 304//304 314//314 306//306
f 315//315 311//311 317//317
f 315//315 304//304 311//311
f 319//319 317//317 321//321
f 319//319 315//315 317//317
f 327//327 321//321 334//334
f 327//327 319//319 321//321
f 337//337 334//334 338//338
f 337//337 327//327 334//334
f 341//341 345//345 348//348
f 341//341 338//338 345//345
f 341//341 337//337 338//338
f 350//350 341//341 348//348
f 353//353 348//348 357//357
f 353//353 350//350 348//348
f 359//359 357//357 362//362
f 359//359 353//353 357//357
f 365//365 362//362 367//367
f 365//365 359//359 362//362
f 370//370 371//371 373//373
f 370//370 367//367 371//371
f 370//370 365//365 367//367
f 379//379 370//370 373//373
f 382//382 373//373 385//385
f 382//382 379//379 373//373
f 386//386 391//391 394//394
f 386//386 385//385 391//391
f 386//386 382//382 385//385
f 396//396 386//386 394//394
f 398//398 394//394 402//402
f 398//398 396//396 394//394
f 407//407 411//411 414//414
f 407//407 402//402 411//411
f 407//407 398//398 402//402
f 421//421 407//407 414//414
f 424//424 422//422 415//415
f 424//424 415//415 427//427
f 429//429 427//427 431//431
f 429//429 424//424 427//427
f 434//434 431//431 436//436
f 434//434 429//429 431//431
f 440//440 436//436 443//443
f 440//440 434//434 436//436
f 450//450 453//453 457//457
f 450//450 443//443 453//453
f 450//450 440//440 443//443
f 460//460 457//457 463//463
f 460//460 450//450 457//457
f 469//469 460//460 463//463
f 470//470 463//463 473//473
f 470//470 469//469 463//463
f 474//474 473//473 477//477
f 474//474 470//470 473//473
f 478//478 477//477 481//481
f 478//478 474//474 477//477
f 484//484 481//481 486//486
f 484//484 478//478 481//481
f 492//492 486//486 496//496
f 492//492 484//484 486//486
f 501//501 496//496 502//502
f 501//501 492//492 496//496
f 506//506 502//502 507//507
f 506//506 501//501 502//502
f 512//512 506//506 507//507
f 512//512 514//514 520//520
f 512//512 507//507 514//514
f 525//525 512//512 520//520
f 526//526 529//529 307//307
f 526//526 520//520 529//529
f 526//526 525//525 520//520
f 313//313 526//526 307//307
f 499//499 508//508 503//503
f 519//519 513//513 510//510
f 518//518 509//509 495//495
f 482//482 494//494 487//487
f 472//472 483//483 476//476
f 310//310 305//305 531//531
f 308//308 530//530 517//517
f 461//461 483//483 472//472
f 461//461 497//497 483//483
f 323//323 318//318 309//309
f 454//454 464//464 458//458
f 335//335 516//516 498//498
f 329//329 310//310 515//515
f 332//332 493//493 462//462
f 329//329 322//322 310//310
f 331//331 465//465 456//456
f 347//347 339//339 333//333
f 425//425 435//435 430//430
f 356//356 349//349 346//346
f 358//358 344//344 329//329
f 416//416 445//445 438//438
f 417//417 437//437 426//426
f 412//412 455//455 446//446
f 410//410 329//329 452//452
f 413//413 444//444 418//418
f 366//366 361//361 358//358
f 375//375 372//372 368//368
f 374//374 358//358 329//329
f 374//374 366//366 358//358
f 390//390 409//409 403//403
f 392//392 401//401 395//395
f 384//384 376//376 330//330
f 383//383 410//410 393//393
f 383//383 329//329 410//410
f 491//491 500//500 504//504
f 521//521 504//504 511//511
f 524//524 490//490 505//505
f 480//480 485//485 488//488
f 471//471 475//475 479//479
f 303//303 528//528 312//312
f 302//302 522//522 527//527
f 468//468 471//471 479//479
f 468//468 479//479 491//491
f 320//320 303//303 316//316
f 449//449 459//459 467//467
f 328//328 489//489 523//523
f 326//326 521//521 303//303
f 326//326 468//468 491//491
f 325//325 447//447 466//466
f 326//326 303//303 320//320
f 342//342 326//326 336//336
f 423//423 428//428 433//433
f 354//354 343//343 351//351
f 352//352 324//324 340//340
f 419//419 432//432 442//442
f 420//420 423//423 433//433
f 364//364 355//355 360//360
f 404//404 441//441 451//451
f 408//408 448//448 326//326
f 408//408 420//420 439//439
f 377//377 363//363 369//369
f 378//378 326//326 355//355
f 378//378 355//355 364//364
f 389//389 399//399 406//406
f 388//388 397//397 400//400
f 381//381 326//326 378//378
f 380//380 387//387 405//405
f 381//381 408//408 326//326

