mtllib upperarm.mtl
usemtl Plastic_Blue
v 0.00000266 0.15771684 -0.06202524
v 0.00000266 0.14962639 -0.06610082
v -0.01189013 0.15676816 -0.06121320
v -0.01138158 0.14886744 -0.06534188
v 0.00000266 0.14106537 -0.06934158
v -0.01059986 0.14037475 -0.06871163
v -0.00946147 0.13164677 -0.07124656
v 0.00000267 0.13227673 -0.07175504
v -0.00794352 0.12297954 -0.07326533
v 0.00000267 0.12344249 -0.07362963
v -0.00621314 0.11449446 -0.07470731
v 0.00000267 0.11474492 -0.07495014
v -0.00464208 0.10773219 -0.07564841
v 0.00000267 0.10802819 -0.07578503
v -0.00351883 0.10344412 -0.07621764
v 0.00000267 0.10281415 -0.07639216
v 0.00352418 0.10344412 -0.07621764
v 0.00464742 0.10773219 -0.07564841
v 0.00621085 0.11449446 -0.07470731
v 0.00794129 0.12297954 -0.07326532
v 0.00945918 0.13164677 -0.07124654
v 0.01059762 0.14037475 -0.06871162
v 0.01137934 0.14886744 -0.06534187
v 0.01188782 0.15676816 -0.06121318
v 0.01225213 0.16395542 -0.05614339
v 0.01242670 0.17016366 -0.04994272
v 0.00000266 0.16491927 -0.05679607
v -0.01225437 0.16395542 -0.05614340
v -0.02401819 0.16072984 -0.05427635
v -0.02319093 0.15401311 -0.05942208
v -0.02200694 0.14651467 -0.06358874
v -0.02029170 0.13822688 -0.06713301
v -0.01796932 0.12984808 -0.06998669
v -0.01488036 0.12146165 -0.07247608
v -0.01129050 0.11297657 -0.07432786
v -0.00802703 0.10580446 -0.07561045
v -0.00474078 0.10069670 -0.07646047
v 0.00000267 0.09960379 -0.07675646
v 0.00473850 0.10069670 -0.07646047
v 0.00802480 0.10580446 -0.07561044
v 0.01128827 0.11297657 -0.07432786
v 0.01487814 0.12146165 -0.07247607
v 0.01796703 0.12984808 -0.06998668
v 0.02029703 0.13822688 -0.06713299
v 0.02201227 0.14651468 -0.06358872
v 0.02318863 0.15401311 -0.05942205
v 0.02401587 0.16072984 -0.05427632
v 0.02454718 0.16668005 -0.04827300
v 0.02476724 0.17171195 -0.04129824
v 0.02466858 0.18078901 -0.01525095
v 0.02469136 0.17858806 -0.02462402
v 0.01226731 0.18191983 -0.02530710
v 0.01235075 0.17902066 -0.03428553
v 0.02475204 0.17559774 -0.03334442
v 0.01244184 0.17514999 -0.04258846
v 0.00000265 0.17113508 -0.05055749
v -0.01242896 0.17016366 -0.04994273
v -0.02454188 0.16668005 -0.04827303
v -0.03685966 0.16048701 -0.04601140
v -0.03545561 0.15512122 -0.05176426
v -0.03348233 0.14899644 -0.05686438
v -0.03127374 0.14245428 -0.06108416
v -0.02796472 0.13461429 -0.06535709
v -0.02416236 0.12664528 -0.06879514
v -0.01959348 0.11808433 -0.07178538
v -0.01427323 0.10870363 -0.07440376
v -0.01015968 0.10175164 -0.07587611
v -0.00531757 0.09709926 -0.07671092
v 0.00000267 0.09611262 -0.07693861
v 0.00532293 0.09709926 -0.07671092
v 0.01015745 0.10175164 -0.07587609
v 0.01427095 0.10870364 -0.07440375
v 0.01959120 0.11808433 -0.07178537
v 0.02416770 0.12664528 -0.06879511
v 0.02796249 0.13461430 -0.06535706
v 0.03127149 0.14245428 -0.06108412
v 0.03348002 0.14899644 -0.05686435
v 0.03546092 0.15512122 -0.05176422
v 0.03686496 0.16048701 -0.04601136
v 0.03776809 0.16532154 -0.03912762
v 0.03811724 0.16921498 -0.03163675
v 0.03806408 0.17246325 -0.02309093
v 0.03747207 0.17519553 -0.01369509
v 0.02453953 0.18264845 -0.00546047
v 0.03628052 0.17773804 -0.00347199
v 0.02378058 0.18413599 0.00444385
v 0.03392779 0.17993900 0.00706222
v 0.03018617 0.18292166 0.01714113
v 0.02209573 0.18568426 0.01402941
v 0.01940899 0.18705037 0.02255245
v 0.02484308 0.18564627 0.02542892
v 0.01567493 0.18825707 0.02687083
v 0.01817189 0.18799147 0.03097683
v 0.00948946 0.18943346 0.02875313
v 0.00986896 0.18967636 0.03345103
v 0.00000261 0.19010135 0.02887452
v 0.00000260 0.19039735 0.03405062
v -0.00987132 0.18967636 0.03345101
v -0.00949187 0.18943346 0.02875312
v 0.00000261 0.18947136 0.02068544
v 0.01038508 0.18884146 0.02105732
v 0.01144003 0.18774107 0.01239766
v 0.01210027 0.18689856 0.00316878
v 0.01229007 0.18563116 -0.00628017
v 0.01226730 0.18396142 -0.01586573
v 0.00000264 0.18300511 -0.02560311
v 0.00000264 0.18016669 -0.03471058
v 0.00000265 0.17625047 -0.04319566
v -0.01243653 0.17514999 -0.04258847
v -0.02476957 0.17171195 -0.04129827
v -0.03777042 0.16532154 -0.03912766
v -0.04849442 0.15670741 -0.03573514
v -0.04712829 0.15227515 -0.04236080
v -0.04528406 0.14810850 -0.04784043
v -0.04257454 0.14300831 -0.05339600
v -0.03952356 0.13785501 -0.05801041
v -0.03474975 0.13056906 -0.06337620
v -0.02966476 0.12312372 -0.06760359
v -0.02333510 0.11459310 -0.07145149
v -0.01562417 0.10414995 -0.07476043
v -0.01096416 0.09792651 -0.07613414
v -0.00548453 0.09414693 -0.07699178
v 0.00000267 0.09326657 -0.07724981
v 0.00548231 0.09414693 -0.07699178
v 0.01096193 0.09792651 -0.07613412
v 0.01562946 0.10414995 -0.07476041
v 0.02333288 0.11459310 -0.07145146
v 0.02966253 0.12312372 -0.06760356
v 0.03474753 0.13056907 -0.06337616
v 0.03952888 0.13785502 -0.05801037
v 0.04257229 0.14300832 -0.05339596
v 0.04528173 0.14810851 -0.04784038
v 0.04713359 0.15227518 -0.04236075
v 0.04849210 0.15670744 -0.03573509
v 0.04919036 0.16036561 -0.02913978
v 0.04925866 0.16417554 -0.02078375
v 0.04863632 0.16775021 -0.01172944
v 0.04673136 0.17163602 -0.00105854
v 0.04334640 0.17564330 0.00987796
v 0.03756313 0.18018183 0.02061716
v 0.02954863 0.18450786 0.02880624
v 0.02028177 0.18786997 0.03435423
v 0.01058236 0.18994197 0.03754173
v 0.00000260 0.19070096 0.03874093
v -0.01058479 0.18994197 0.03754172
v -0.02028419 0.18786997 0.03435422
v -0.01816667 0.18799147 0.03097682
v -0.01566971 0.18825707 0.02687082
v -0.01038743 0.18884146 0.02105731
v 0.00000262 0.18866697 0.01188160
v 0.00000262 0.18774855 0.00275137
v 0.00000263 0.18666327 -0.00650787
v 0.00000263 0.18513776 -0.01610100
v -0.01226960 0.18396142 -0.01586574
v -0.01226959 0.18191983 -0.02530712
v -0.01235310 0.17902066 -0.03428555
v -0.02475438 0.17559774 -0.03334445
v -0.03811953 0.16921498 -0.03163679
v -0.04919264 0.16036560 -0.02913983
v -0.05204634 0.16016824 -0.01959981
v -0.05186418 0.15651006 -0.02772064
v -0.05116591 0.15304168 -0.03421725
v -0.04983016 0.14888257 -0.04037995
v -0.04797073 0.14474632 -0.04569264
v -0.04534473 0.13982828 -0.05092938
v -0.04236968 0.13472815 -0.05543001
v -0.03782351 0.12750293 -0.06078060
v -0.03298140 0.12007274 -0.06519771
v -0.02690220 0.11130686 -0.06937194
v -0.01897115 0.10044624 -0.07315908
v -0.01413662 0.09404828 -0.07466178
v -0.00700242 0.08925929 -0.07594441
v 0.00000267 0.08814361 -0.07642256
v 0.00700020 0.08925929 -0.07594440
v 0.01413433 0.09404828 -0.07466177
v 0.01896887 0.10044624 -0.07315906
v 0.02689992 0.11130686 -0.06937191
v 0.03297912 0.12007274 -0.06519768
v 0.03782127 0.12750293 -0.06078055
v 0.04236737 0.13472816 -0.05542997
v 0.04534248 0.13982829 -0.05092933
v 0.04797604 0.14474633 -0.04569259
v 0.04983547 0.14888260 -0.04037990
v 0.05116363 0.15304169 -0.03421720
v 0.05186184 0.15651008 -0.02772059
v 0.05204399 0.16016826 -0.01959976
v 0.05139131 0.16371259 -0.01037087
v 0.04966087 0.16763637 0.00047455
v 0.04642772 0.17194721 0.01188920
v 0.04063694 0.17704734 0.02342526
v 0.03215943 0.18217030 0.03260864
v 0.02207295 0.18625346 0.03903694
v 0.01140961 0.18883386 0.04269503
v 0.00000260 0.18976736 0.04405362
v -0.01141204 0.18883386 0.04269502
v -0.02207531 0.18625346 0.03903691
v -0.03216178 0.18217030 0.03260861
v -0.02955097 0.18450786 0.02880621
v -0.02484549 0.18564627 0.02542889
v -0.01941139 0.18705037 0.02255244
v -0.02209806 0.18568426 0.01402938
v -0.01144236 0.18774107 0.01239765
v -0.01210266 0.18689856 0.00316877
v -0.01229237 0.18563116 -0.00628018
v -0.02466331 0.18078901 -0.01525098
v -0.02469364 0.17858806 -0.02462405
v -0.03806642 0.17246325 -0.02309097
v -0.04925339 0.16417552 -0.02078380
v -0.05139361 0.16371258 -0.01037093
v -0.05077128 0.16381878 0.00177989
v -0.05249409 0.16000128 -0.00910350
v -0.05280529 0.15644938 -0.01843860
v -0.05227402 0.15301134 -0.02621790
v -0.05135569 0.14975542 -0.03251721
v -0.05002751 0.14596820 -0.03810312
v -0.04833503 0.14188506 -0.04324123
v -0.04611130 0.13721748 -0.04823513
v -0.04349293 0.13214768 -0.05274327
v -0.03937180 0.12502111 -0.05801804
v -0.03468902 0.11772759 -0.06238200
v -0.02908797 0.10896172 -0.06653345
v -0.02141494 0.09826805 -0.07015365
v -0.01665634 0.09190043 -0.07166397
v -0.00817884 0.08620831 -0.07324256
v 0.00000267 0.08484219 -0.07394838
v 0.00817656 0.08620831 -0.07325014
v 0.01665406 0.09190043 -0.07166395
v 0.02142029 0.09826805 -0.07015362
v 0.02908574 0.10896172 -0.06653342
v 0.03468678 0.11772759 -0.06238196
v 0.03936950 0.12502113 -0.05801800
v 0.04349062 0.13214770 -0.05275085
v 0.04611662 0.13721749 -0.04823508
v 0.04833272 0.14188507 -0.04324874
v 0.05002519 0.14596821 -0.03810307
v 0.05136098 0.14975545 -0.03251716
v 0.05227931 0.15301135 -0.02621784
v 0.05280292 0.15644941 -0.01843854
v 0.05249936 0.16000131 -0.00910344
v 0.05076898 0.16381881 0.00177995
v 0.04739922 0.16809931 0.01349816
v 0.04149453 0.17339678 0.02546684
v 0.03249333 0.17867149 0.03518144
v 0.02217916 0.18287614 0.04184504
v 0.01147792 0.18557036 0.04560943
v 0.00000260 0.18660256 0.04708942
v -0.01147272 0.18557036 0.04560941
v -0.02218159 0.18287614 0.04184501
v -0.03249574 0.17867149 0.03518141
v -0.04149688 0.17339678 0.02546679
v -0.04063172 0.17704734 0.02342521
v -0.03756553 0.18018183 0.02061711
v -0.03018850 0.18292166 0.01714110
v -0.02377533 0.18413599 0.00444382
v -0.02454190 0.18264845 -0.00546050
v -0.03747444 0.17519553 -0.01369512
v -0.04863863 0.16775019 -0.01172949
v -0.04966323 0.16763633 0.00047449
v -0.04739397 0.16809928 0.01349811
v -0.04643011 0.17194720 0.01188915
v -0.04334873 0.17564326 0.00987791
v -0.03393012 0.17993900 0.00706219
v -0.03627531 0.17773804 -0.00347204
v -0.04673366 0.17163598 -0.00105859
v 0.00905235 0.15164158 0.95182508
v 0.00000181 0.15240368 0.95239669
v 0.00860400 0.14533141 0.95453191
v 0.00000181 0.14595345 0.95505869
v 0.00795395 0.13851687 0.95661098
v 0.00000181 0.13911650 0.95704246
v 0.00000181 0.13211149 0.95840991
v 0.00704045 0.13154551 0.95806801
v 0.00000181 0.12512329 0.95940179
v 0.00586361 0.12468615 0.95917761
v 0.00454665 0.11802855 0.95991743
v 0.00000181 0.11830316 0.96005189
v 0.00337542 0.11278316 0.96038806
v 0.00000181 0.11308578 0.96044409
v 0.00255162 0.10948239 0.96067393
v 0.00000181 0.10907325 0.96075237
v -0.00254803 0.10948239 0.96067393
v -0.00337743 0.11278316 0.96038806
v -0.00454866 0.11802855 0.95991743
v -0.00586562 0.12468615 0.95917761
v -0.00704246 0.13154551 0.95806801
v -0.00795590 0.13851687 0.95661098
v -0.00860595 0.14533140 0.95453191
v -0.00905429 0.15164158 0.95182508
v 0.00000181 0.15806380 0.94874287
v 0.00938297 0.15730724 0.94829452
v 0.01888181 0.15944239 0.94252801
v 0.01842231 0.15484706 0.94690466
v 0.01771057 0.14952883 0.95049131
v 0.01671303 0.14351007 0.95323169
v 0.01530642 0.13683006 0.95544529
v 0.01344586 0.13011089 0.95714343
v 0.01103616 0.12344202 0.95860601
v 0.00829578 0.11679003 0.95963156
v 0.00584681 0.11124203 0.96033770
v 0.00343145 0.10734722 0.96080279
v 0.00000181 0.10660186 0.96093726
v -0.00342785 0.10734722 0.96080279
v -0.00584876 0.11124203 0.96033770
v -0.00829213 0.11679003 0.95963156
v -0.01103811 0.12344202 0.95860601
v -0.01344226 0.13011089 0.95714343
v -0.01530843 0.13683006 0.95544529
v -0.01671504 0.14351006 0.95323169
v -0.01771258 0.14952882 0.95049131
v -0.01842426 0.15484706 0.94690466
v -0.00938492 0.15730724 0.94829452
v 0.00000182 0.16281602 0.94415319
v 0.00956227 0.16207066 0.94374406
v 0.01910038 0.16316906 0.93726575
v 0.00765132 0.17427632 0.88010448
v 0.00735991 0.17418100 0.88357341
v 0.01404558 0.17307702 0.88200432
v 0.01212899 0.17335162 0.88502490
v 0.01917325 0.17145744 0.88616812
v 0.01500383 0.17255582 0.88826960
v 0.02326420 0.16965857 0.89241660
v 0.01707176 0.17176011 0.89468062
v 0.01836065 0.17089142 0.90195471
v 0.02612785 0.16775319 0.90008289
v 0.02793237 0.16649231 0.90816963
v 0.01895466 0.17012373 0.90953702
v 0.02886262 0.16499040 0.91607130
v 0.01904997 0.16909817 0.91709119
v 0.01907238 0.16780922 0.92436528
v 0.02932217 0.16329798 0.92335105
v 0.01910598 0.16587582 0.93113500
v 0.02936698 0.16114041 0.92995810
v 0.02908678 0.15837202 0.93568551
v 0.02835829 0.15472940 0.94081873
v 0.02722062 0.15054318 0.94497132
v 0.02561790 0.14563963 0.94850749
v 0.02381897 0.14034942 0.95131504
v 0.02115703 0.13400003 0.95406669
v 0.01813084 0.12758341 0.95620191
v 0.01455552 0.12076893 0.95801759
v 0.01048136 0.11342201 0.95959228
v 0.00739355 0.10807017 0.96045542
v 0.00384618 0.10447238 0.96099889
v 0.00000181 0.10381106 0.96115029
v -0.00384813 0.10447238 0.96099889
v -0.00739550 0.10807017 0.96045542
v -0.01048331 0.11342201 0.95959228
v -0.01455747 0.12076893 0.95801759
v -0.01813285 0.12758341 0.95620191
v -0.02115904 0.13400003 0.95406669
v -0.02382098 0.14034942 0.95131504
v -0.02561985 0.14563963 0.94850749
v -0.02722261 0.15054317 0.94497132
v -0.02835462 0.15472940 0.94081867
v -0.01888380 0.15944239 0.94252801
v -0.00956427 0.16207066 0.94374406
v 0.00000182 0.16656515 0.93855464
v 0.00960155 0.16572455 0.93816245
v 0.00955107 0.16838643 0.93172896
v 0.00950065 0.17022458 0.92474079
v 0.00950065 0.17139581 0.91741073
v 0.00952306 0.17229810 0.91001892
v 0.00937739 0.17292574 0.90278971
v 0.00886182 0.17328997 0.89580143
v 0.00804923 0.17390081 0.88930070
v 0.00000185 0.17466858 0.88337171
v 0.00000185 0.17480311 0.87954408
v -0.00735624 0.17418100 0.88357341
v -0.00764765 0.17427632 0.88010448
v -0.00824166 0.17434916 0.87664115
v 0.00000185 0.17491517 0.87572205
v 0.00823979 0.17434916 0.87664115
v 0.01586686 0.17278561 0.87914061
v 0.02311854 0.17028061 0.88347250
v 0.02921012 0.16720399 0.88958090
v 0.03363732 0.16408816 0.89775169
v 0.03626559 0.16147104 0.90632582
v 0.03778991 0.15907255 0.91455823
v 0.03849598 0.15671882 0.92173141
v 0.03841194 0.15426424 0.92800796
v 0.03788514 0.15163598 0.93311882
v 0.03669150 0.14831838 0.93803352
v 0.03508873 0.14491668 0.94195640
v 0.03285272 0.14077529 0.94572794
v 0.03042616 0.13646582 0.94869810
v 0.02663780 0.13053676 0.95227349
v 0.02256930 0.12447318 0.95518190
v 0.01773298 0.11741772 0.95751321
v 0.01190478 0.10917978 0.95965958
v 0.00828458 0.10437706 0.96064591
v 0.00396944 0.10152462 0.96120632
v 0.00000181 0.10102025 0.96136320
v -0.00397145 0.10152462 0.96120632
v -0.00828652 0.10437706 0.96064591
v -0.01190673 0.10917977 0.95965958
v -0.01773499 0.11741772 0.95751321
v -0.02257125 0.12447318 0.95518190
v -0.02663981 0.13053676 0.95227349
v -0.03042815 0.13646582 0.94869804
v -0.03285465 0.14077529 0.94572782
v -0.03509066 0.14491667 0.94195640
v -0.03669343 0.14831837 0.93803346
v -0.03788713 0.15163598 0.93311876
v -0.02908877 0.15837202 0.93568546
v -0.01909677 0.16316906 0.93726575
v -0.00960348 0.16572455 0.93816245
v 0.00000182 0.16924384 0.93197560
v 0.00000183 0.17103155 0.92487526
v 0.00000183 0.17225881 0.91748905
v 0.00000183 0.17304900 0.91008055
v 0.00000184 0.17355338 0.90299702
v 0.00000184 0.17397931 0.89607596
v 0.00000184 0.17436036 0.88946331
v -0.00805112 0.17390081 0.88930070
v -0.01212526 0.17335162 0.88502490
v -0.01404745 0.17307702 0.88200426
v -0.01586319 0.17278561 0.87914056
v -0.01708484 0.17144622 0.87589586
v -0.00881327 0.17334601 0.87311065
v 0.00000185 0.17400172 0.87203467
v 0.00881701 0.17334601 0.87311065
v 0.01708297 0.17144622 0.87589592
v 0.02487259 0.16848734 0.88078260
v 0.03130041 0.16489515 0.88761950
v 0.03573320 0.16142061 0.89636183
v 0.03824379 0.15859059 0.90521622
v 0.03962799 0.15609118 0.91354954
v 0.04025009 0.15370384 0.92074513
v 0.04018279 0.15126047 0.92686474
v 0.03957195 0.14869943 0.93180191
v 0.03843435 0.14554438 0.93632436
v 0.03687639 0.14223239 0.94012952
v 0.03477491 0.13828710 0.94376093
v 0.03246601 0.13410649 0.94680393
v 0.02886260 0.12823352 0.95041293
v 0.02497900 0.12219796 0.95341110
v 0.02030522 0.11506961 0.95611215
v 0.01429773 0.10660747 0.95856679
v 0.01052618 0.10169838 0.95953071
v 0.00505103 0.09813419 0.96027601
v 0.00000181 0.09745048 0.96058977
v -0.00504743 0.09813419 0.96027601
v -0.01052813 0.10169838 0.95953071
v -0.01429968 0.10660747 0.95856679
v -0.02030163 0.11506961 0.95611215
v -0.02498101 0.12219796 0.95341110
v -0.02885901 0.12823352 0.95041287
v -0.03246800 0.13410649 0.94680387
v -0.03477684 0.13828710 0.94376087
v -0.03687838 0.14223239 0.94012946
v -0.03843633 0.14554437 0.93632424
v -0.03957394 0.14869942 0.93180186
v -0.04018476 0.15126047 0.92686462
v -0.04025200 0.15370384 0.92074502
v -0.03841391 0.15426423 0.92800784
v -0.02936337 0.16114040 0.92995805
v -0.01910797 0.16587582 0.93113500
v -0.00955305 0.16838643 0.93172896
v -0.00950262 0.17022458 0.92474079
v -0.00950262 0.17139581 0.91741073
v -0.00952503 0.17229810 0.91001892
v -0.00937369 0.17292574 0.90278971
v -0.00886371 0.17328997 0.89580143
v -0.01706804 0.17176011 0.89468056
v -0.01500018 0.17255582 0.88826954
v -0.01917518 0.17145744 0.88616806
v -0.02311481 0.17028061 0.88347244
v -0.02486885 0.16848732 0.88078260
v -0.02546853 0.16648105 0.87873149
v -0.01745475 0.16958573 0.87371588
v -0.00905985 0.17160878 0.87083542
v 0.00000186 0.17237654 0.86955208
v 0.00905799 0.17160878 0.87083542
v 0.01745842 0.16959134 0.87371588
v 0.02547221 0.16648665 0.87873149
v 0.03221945 0.16259185 0.88611209
v 0.03656820 0.15888759 0.89527470
v 0.03917972 0.15605196 0.90428042
v 0.04059193 0.15356937 0.91265285
v 0.04113551 0.15112600 0.91984844
v 0.04076000 0.14867702 0.92577195
v 0.04001470 0.14621124 0.93052411
v 0.03894432 0.14324108 0.93462634
v 0.03749289 0.14003000 0.93835306
v 0.03568275 0.13623604 0.94186115
v 0.03349157 0.13212830 0.94494891
v 0.02992739 0.12643459 0.94842350
v 0.02614470 0.12054477 0.95128149
v 0.02157736 0.11361256 0.95394349
v 0.01580519 0.10521768 0.95637000
v 0.01224661 0.10027489 0.95744598
v 0.00598688 0.09598222 0.95856679
v 0.00000181 0.09509119 0.95907110
v -0.00598888 0.09598222 0.95856679
v -0.01224862 0.10027489 0.95744598
v -0.01580159 0.10521767 0.95637000
v -0.02157937 0.11361256 0.95394349
v -0.02614102 0.12054476 0.95127589
v -0.02992377 0.12643459 0.94842344
v -0.03348795 0.13212830 0.94494885
v -0.03567914 0.13623604 0.94186103
v -0.03749481 0.14003000 0.93835294
v -0.03894624 0.14324108 0.93462622
v -0.04001663 0.14621124 0.93052405
v -0.04075637 0.14867701 0.92577183
v -0.04113742 0.15112600 0.91984832
v -0.04058823 0.15356936 0.91265273
v -0.03917601 0.15605195 0.90428036
v -0.03962996 0.15609117 0.91354942
v -0.03849795 0.15671880 0.92173135
v -0.02932414 0.16329798 0.92335093
v -0.01906868 0.16780922 0.92436528
v -0.01905188 0.16909817 0.91709119
v -0.01895663 0.17012373 0.90953696
v -0.01836260 0.17089142 0.90195465
v -0.02326615 0.16965856 0.89241660
v -0.02920641 0.16720398 0.88958085
v -0.03130234 0.16489515 0.88761950
v -0.03221579 0.16259185 0.88611209
v -0.03573515 0.16142060 0.89636177
v -0.03656454 0.15888759 0.89527464
v -0.03824016 0.15859059 0.90521616
v -0.03779181 0.15907255 0.91455817
v -0.02885899 0.16499040 0.91607130
v -0.02793434 0.16649230 0.90816957
v -0.02612980 0.16775319 0.90008289
v -0.03363361 0.16408814 0.89775169
v -0.03626753 0.16147104 0.90632576
vn -0.00000116 0.51815170 -0.85528880
vn 0.00000259 0.40484661 -0.91438460
vn -0.17800660 0.50785601 -0.84284991
vn -0.16177155 0.40082371 -0.90175968
vn -0.00000391 0.31340480 -0.94961971
vn -0.14880422 0.30691171 -0.94003326
vn -0.13251549 0.23426488 -0.96309894
vn 0.00002851 0.23933770 -0.97093642
vn -0.10795479 0.18045749 -0.97764045
vn -0.00000072 0.18096390 -0.98348981
vn -0.08334424 0.13753390 -0.98698443
vn 0.00000785 0.13873550 -0.99032962
vn -0.06284196 0.12324540 -0.99038458
vn 0.00000052 0.12139910 -0.99260378
vn -0.04378141 0.11481629 -0.99242151
vn 0.00000052 0.11404100 -0.99347597
vn 0.04379938 0.11480401 -0.99242222
vn 0.06292800 0.12323461 -0.99038035
vn 0.08374199 0.13699821 -0.98702526
vn 0.10798100 0.18045251 -0.97763854
vn 0.13251871 0.23424421 -0.96310365
vn 0.14870457 0.30700430 -0.94001883
vn 0.16168535 0.40081689 -0.90177804
vn 0.17803840 0.50785130 -0.84284598
vn 0.18903284 0.63018912 -0.75307918
vn 0.19056228 0.75484413 -0.62761176
vn 0.00002809 0.65033108 -0.75965089
vn -0.18963556 0.63014930 -0.75296104
vn -0.35469466 0.59445906 -0.72167188
vn -0.33379197 0.48339498 -0.80926639
vn -0.31089327 0.37475088 -0.87344569
vn -0.28008205 0.28868097 -0.91554218
vn -0.24145281 0.22620009 -0.94368112
vn -0.20056879 0.17700508 -0.96355671
vn -0.13749719 0.13766319 -0.98088908
vn -0.09396793 0.12082309 -0.98821646
vn -0.07631190 0.09304474 -0.99273318
vn 0.00000236 0.08109652 -0.99670631
vn 0.07578424 0.09334171 -0.99274576
vn 0.09408096 0.12112711 -0.98816854
vn 0.13750221 0.13767262 -0.98088705
vn 0.20018181 0.17698722 -0.96364039
vn 0.24138980 0.22621511 -0.94369376
vn 0.28001445 0.28879264 -0.91552764
vn 0.31089804 0.37494224 -0.87336171
vn 0.33371842 0.48347512 -0.80924904
vn 0.35488483 0.59442544 -0.72160602
vn 0.36799267 0.69950366 -0.61259782
vn 0.36643452 0.79676324 -0.48051429
vn 0.33413449 0.92291582 -0.19126072
vn 0.34470746 0.90230447 -0.25888893
vn 0.17706914 0.95046282 -0.25547382
vn 0.18396132 0.91500562 -0.35905841
vn 0.35627639 0.86383718 -0.35616383
vn 0.18836768 0.85361981 -0.48564491
vn 0.00001925 0.76963907 -0.63847911
vn -0.19042522 0.75457621 -0.62797552
vn -0.36793563 0.69954115 -0.61258930
vn -0.53947848 0.60376245 -0.58688498
vn -0.51610291 0.50937522 -0.68860352
vn -0.48102450 0.41426396 -0.77265811
vn -0.43398938 0.34158868 -0.83364886
vn -0.36901486 0.27215937 -0.88868290
vn -0.30722812 0.21363887 -0.92734540
vn -0.24887921 0.16434598 -0.95448911
vn -0.18539520 0.13125929 -0.97385812
vn -0.12399828 0.10424049 -0.98679209
vn -0.05809958 0.09052055 -0.99419856
vn -0.00000069 0.08250486 -0.99659067
vn 0.05813079 0.09013594 -0.99423152
vn 0.12403242 0.10424501 -0.98678726
vn 0.18544100 0.13113342 -0.97386640
vn 0.24881770 0.16429162 -0.95451456
vn 0.30724019 0.21368803 -0.92733014
vn 0.36912635 0.27211374 -0.88865072
vn 0.43404052 0.34157032 -0.83362985
vn 0.48107678 0.41433382 -0.77258837
vn 0.51602948 0.50940317 -0.68863779
vn 0.53959334 0.60339779 -0.58715439
vn 0.54644668 0.69342214 -0.46964019
vn 0.53784192 0.76475507 -0.35479021
vn 0.51659715 0.81577754 -0.26006603
vn 0.48776162 0.85208243 -0.18985273
vn 0.32562229 0.93422049 -0.14560972
vn 0.46368426 0.87745213 -0.12277906
vn 0.31546888 0.94258952 -0.10956463
vn 0.43261528 0.89489168 -0.10960417
vn 0.37859407 0.92078328 -0.09394119
vn 0.27764657 0.95677900 -0.08652457
vn 0.25531015 0.96407551 -0.07331555
vn 0.30232707 0.94863772 -0.09319307
vn 0.20744614 0.97609770 -0.06480253
vn 0.22111255 0.97152883 -0.08509445
vn 0.11767954 0.99121147 -0.06042736
vn 0.12133384 0.98998737 -0.07213221
vn 0.00002713 0.99776602 -0.06680721
vn 0.00002638 0.99813813 -0.06099563
vn -0.12147626 0.99000228 -0.07168663
vn -0.11766676 0.99121451 -0.06040293
vn -0.00005410 0.99662411 -0.08210045
vn 0.13442166 0.98713469 -0.08657967
vn 0.14965618 0.98380381 -0.09865717
vn 0.15933357 0.98192418 -0.10216432
vn 0.16772318 0.97471690 -0.14763421
vn 0.17419152 0.96628541 -0.18960480
vn 0.00001216 0.96634710 -0.25724190
vn 0.00000303 0.93285459 -0.36025330
vn 0.00000065 0.86735481 -0.49769050
vn -0.18808763 0.85401422 -0.48505980
vn -0.36646238 0.79671782 -0.48056862
vn -0.54641080 0.69346637 -0.46961650
vn -0.73484081 0.52508575 -0.42929480
vn -0.72087687 0.45304775 -0.52448487
vn -0.69683689 0.38074085 -0.60782808
vn -0.65997315 0.30326274 -0.68736243
vn -0.61810648 0.23165543 -0.75118583
vn -0.55282736 0.16190785 -0.81741530
vn -0.47192433 0.10198516 -0.87572062
vn -0.37877929 0.07270386 -0.92262697
vn -0.28538019 0.04283378 -0.95745671
vn -0.22600467 -0.01222356 -0.97404963
vn -0.11706676 -0.04297853 -0.99219364
vn 0.00000227 -0.03861492 -0.99925423
vn 0.11708824 -0.04293011 -0.99219322
vn 0.22614352 -0.01206592 -0.97401929
vn 0.28531632 0.04271015 -0.95748144
vn 0.37882182 0.07275113 -0.92260569
vn 0.47170058 0.10230854 -0.87580347
vn 0.55270904 0.16182044 -0.81751263
vn 0.61825412 0.23179875 -0.75102013
vn 0.65999025 0.30333117 -0.68731582
vn 0.69685084 0.38051385 -0.60795397
vn 0.72080255 0.45317796 -0.52447462
vn 0.73479706 0.52501524 -0.42945582
vn 0.74302804 0.58120436 -0.33182961
vn 0.73435235 0.63528347 -0.23904301
vn 0.72254503 0.67225647 -0.16124511
vn 0.68189871 0.72599983 -0.08909796
vn 0.61784542 0.78443724 -0.05408546
vn 0.53985173 0.84175527 -0.00289203
vn 0.42572972 0.90457678 0.02225237
vn 0.29240647 0.95507431 0.04828904
vn 0.15772358 0.98574042 0.05864372
vn -0.00001560 0.99793547 0.06422442
vn -0.15722571 0.98580778 0.05884739
vn -0.29255411 0.95503670 0.04813547
vn -0.22099695 0.97156161 -0.08502078
vn -0.20749436 0.97608823 -0.06479238
vn -0.13453284 0.98714203 -0.08632345
vn 0.00000246 0.99481171 -0.10173390
vn 0.00002369 0.99443668 -0.10533620
vn 0.00000323 0.99023932 -0.13937870
vn 0.00000774 0.98147541 -0.19158840
vn -0.17423548 0.96627778 -0.18960339
vn -0.17665386 0.95061308 -0.25520250
vn -0.18393388 0.91500253 -0.35908040
vn -0.35591501 0.86408955 -0.35591269
vn -0.53771067 0.76483643 -0.35481361
vn -0.74298519 0.58138853 -0.33160290
vn -0.92241931 0.36218491 -0.13403289
vn -0.93478948 0.28549722 -0.21132880
vn -0.93196654 0.22121252 -0.28723401
vn -0.92124534 0.14221813 -0.36205152
vn -0.89432895 0.08750240 -0.43876997
vn -0.85456038 0.02974658 -0.51849949
vn -0.81283462 -0.00957204 -0.58241600
vn -0.75315803 -0.04120678 -0.65654784
vn -0.68643415 -0.08931040 -0.72168678
vn -0.60256821 -0.10239885 -0.79147083
vn -0.52810913 -0.15430345 -0.83503962
vn -0.44509101 -0.27161893 -0.85329795
vn -0.25565830 -0.38872284 -0.88517422
vn 0.00007054 -0.41132531 -0.91148859
vn 0.25551161 -0.38880047 -0.88518256
vn 0.44508499 -0.27165067 -0.85329086
vn 0.52822870 -0.15423085 -0.83497751
vn 0.60258532 -0.10242295 -0.79145479
vn 0.68658364 -0.08930498 -0.72154522
vn 0.75316733 -0.04117738 -0.65653896
vn 0.81283247 -0.00958352 -0.58241868
vn 0.85445780 0.03022594 -0.51864082
vn 0.89431411 0.08750249 -0.43880013
vn 0.92116940 0.14210148 -0.36229008
vn 0.93206388 0.22114958 -0.28696698
vn 0.93480641 0.28551239 -0.21123359
vn 0.92245430 0.36195090 -0.13442291
vn 0.90796882 0.41576240 -0.05228905
vn 0.89393783 0.44670340 0.03648889
vn 0.86069876 0.49037600 0.13685367
vn 0.77350712 0.57806355 0.25986400
vn 0.63979703 0.66949338 0.37741014
vn 0.45278600 0.77005029 0.44945243
vn 0.24159077 0.84413791 0.47860751
vn 0.00002118 0.87450290 0.48502031
vn -0.24099573 0.84438610 0.47846979
vn -0.45283270 0.76990622 0.44965226
vn -0.63980955 0.66949832 0.37738004
vn -0.42570090 0.90459025 0.02225250
vn -0.30218163 0.94866151 -0.09342311
vn -0.25534996 0.96406227 -0.07335139
vn -0.27764094 0.95678061 -0.08652588
vn -0.14965253 0.98380232 -0.09867735
vn -0.15926082 0.98193991 -0.10212828
vn -0.16773091 0.97471362 -0.14764778
vn -0.33414909 0.92292732 -0.19117978
vn -0.34498545 0.90227956 -0.25860548
vn -0.51669216 0.81570995 -0.26008975
vn -0.73430914 0.63537926 -0.23892129
vn -0.90806317 0.41556260 -0.05224235
vn -0.94652408 0.30787361 0.09646847
vn -0.96139550 0.27515042 0.00330492
vn -0.98365861 0.16567650 -0.07047682
vn -0.99138516 0.05580368 -0.11849723
vn -0.98620045 -0.03122468 -0.16258493
vn -0.97438645 -0.09457447 -0.20402603
vn -0.95477879 -0.11840188 -0.27272442
vn -0.91616273 -0.12220948 -0.38172099
vn -0.87203378 -0.10510957 -0.47802639
vn -0.81496853 -0.12030107 -0.56688124
vn -0.76498592 -0.17362326 -0.62020290
vn -0.69590104 -0.18953966 -0.69267345
vn -0.64372325 -0.26393565 -0.71830243
vn -0.55649400 -0.37807736 -0.73984581
vn -0.32653934 -0.55377728 -0.76596528
vn -0.00009058 -0.60823679 -0.79375571
vn 0.32658228 -0.55358881 -0.76608330
vn 0.55649149 -0.37819365 -0.73978841
vn 0.64353877 -0.26420483 -0.71836877
vn 0.69587374 -0.18961564 -0.69268006
vn 0.76498663 -0.17362355 -0.62020189
vn 0.81496251 -0.12039653 -0.56686956
vn 0.87202442 -0.10532782 -0.47799534
vn 0.91581947 -0.12076952 -0.38300061
vn 0.95491624 -0.11835742 -0.27226210
vn 0.97437262 -0.09455935 -0.20409969
vn 0.98624247 -0.03105887 -0.16236167
vn 0.99130637 0.05463650 -0.11969427
vn 0.98360598 0.16584939 -0.07080692
vn 0.96138352 0.27518749 0.00370417
vn 0.94620925 0.30884078 0.09646526
vn 0.92001480 0.32582909 0.21773449
vn 0.83446425 0.40347606 0.37533504
vn 0.69043666 0.47162425 0.54851419
vn 0.49903467 0.56200439 0.65963286
vn 0.26739985 0.64630002 0.71469819
vn -0.00000045 0.69224298 0.72166449
vn -0.26721555 0.64475131 0.71616471
vn -0.49957952 0.56179744 0.65939677
vn -0.69054377 0.47167173 0.54833877
vn -0.83430034 0.40392685 0.37521476
vn -0.77342898 0.57811022 0.25999269
vn -0.53986007 0.84175003 -0.00287341
vn -0.37833303 0.92089826 -0.09386434
vn -0.31546822 0.94258970 -0.10956507
vn -0.32560301 0.93422842 -0.14560258
vn -0.48742211 0.85226977 -0.18988487
vn -0.72257882 0.67222893 -0.16120869
vn -0.89395088 0.44666511 0.03663688
vn -0.91994894 0.32617891 0.21748830
vn -0.86078864 0.49008271 0.13733864
vn -0.61775434 0.78451055 -0.05406430
vn -0.43273804 0.89482915 -0.10963033
vn -0.46376234 0.87735581 -0.12317164
vn -0.68186587 0.72603273 -0.08908039
vn 0.16801699 0.45332000 0.87536919
vn 0.00002829 0.46755919 0.88396192
vn 0.15208226 0.33020109 0.93157834
vn 0.00002571 0.33349511 0.94275182
vn 0.13769676 0.23201701 0.96291637
vn -0.00000054 0.23620661 0.97170287
vn 0.00110584 0.16969290 0.98549640
vn 0.11995146 0.16540541 0.97890383
vn 0.00156163 0.12213470 0.99251241
vn 0.09662955 0.12148791 0.98787838
vn 0.07335477 0.08703578 0.99350089
vn 0.00000996 0.08704042 0.99620491
vn 0.05176210 0.07934112 0.99550283
vn 0.00001662 0.07678174 0.99704802
vn 0.03004192 0.07540953 0.99670011
vn -0.00000560 0.07550519 0.99714541
vn -0.03009367 0.07540112 0.99669921
vn -0.05169850 0.07940906 0.99550062
vn -0.07338852 0.08701234 0.99350035
vn -0.09780323 0.12025179 0.98791403
vn -0.12143224 0.16592568 0.97863323
vn -0.13767303 0.23202038 0.96291882
vn -0.15215734 0.33009210 0.93160486
vn -0.16799092 0.45332310 0.87537271
vn 0.00000156 0.62046379 0.78423512
vn 0.17987652 0.59895092 0.78032190
vn 0.36077261 0.69376117 0.62332880
vn 0.34538981 0.56102043 0.75230449
vn 0.31906754 0.42632413 0.84643006
vn 0.29390818 0.30271342 0.90663260
vn 0.26228046 0.21490473 0.94075763
vn 0.22468907 0.15766041 0.96159142
vn 0.18625197 0.11774822 0.97542083
vn 0.12349927 0.08889157 0.98835534
vn 0.08140605 0.08171797 0.99332547
vn 0.04570179 0.07421232 0.99619472
vn 0.00000468 0.07347524 0.99729711
vn -0.04579526 0.07420015 0.99619138
vn -0.08140612 0.08154397 0.99333972
vn -0.12340704 0.08887331 0.98836845
vn -0.18625194 0.11779098 0.97541559
vn -0.22451004 0.15763289 0.96163785
vn -0.26228875 0.21483177 0.94077206
vn -0.29358801 0.30310047 0.90660703
vn -0.31906828 0.42632407 0.84642982
vn -0.34522069 0.56118482 0.75225949
vn -0.17985548 0.59895730 0.78032196
vn 0.00002518 0.76691621 0.64174741
vn 0.18373010 0.75185591 0.63321090
vn 0.35748100 0.80937236 0.46596557
vn 0.12045219 0.99202061 0.03723621
vn 0.11271869 0.99298722 0.03565228
vn 0.22137368 0.97426838 0.04236334
vn 0.19874169 0.97928309 0.03881292
vn 0.30480969 0.95109880 0.05002020
vn 0.24430609 0.96874642 0.04295290
vn 0.38024798 0.92344075 0.05166128
vn 0.26512659 0.96284598 0.05133678
vn 0.30026159 0.95142639 0.06804905
vn 0.43256369 0.89928657 0.06459402
vn 0.45820147 0.88557237 0.07624441
vn 0.31026956 0.94543040 0.09946916
vn 0.47859603 0.86642945 0.14228795
vn 0.31675431 0.93782139 0.14197786
vn 0.32981840 0.92006850 0.21140938
vn 0.50354165 0.83605844 0.21783517
vn 0.34300753 0.88353664 0.31891838
vn 0.52354789 0.78624058 0.32821268
vn 0.53344011 0.70541483 0.46672431
vn 0.52377665 0.59649009 0.60815942
vn 0.49943307 0.47136194 0.72690052
vn 0.46197271 0.35546303 0.81254363
vn 0.41879681 0.26571423 0.86833495
vn 0.35563359 0.19788022 0.91343761
vn 0.28979260 0.14279664 0.94637710
vn 0.24729337 0.09989312 0.96377760
vn 0.17837648 0.08254333 0.98049402
vn 0.10448887 0.07834197 0.99143565
vn 0.05159133 0.07462806 0.99587601
vn 0.00000522 0.07536286 0.99715632
vn -0.05150747 0.07457291 0.99588448
vn -0.10449444 0.07835321 0.99143416
vn -0.17831942 0.08271526 0.98048991
vn -0.24729434 0.09989319 0.96377748
vn -0.28998962 0.14294048 0.94629490
vn -0.35550690 0.19789547 0.91348350
vn -0.41888961 0.26569977 0.86829448
vn -0.46214017 0.35515487 0.81258339
vn -0.49944112 0.47137108 0.72688913
vn -0.52377343 0.59628236 0.60836572
vn -0.36081558 0.69381756 0.62324101
vn -0.18373300 0.75186998 0.63319320
vn 0.00002719 0.88413310 0.46723530
vn 0.17992528 0.86923212 0.46050239
vn 0.17328566 0.93355060 0.31377628
vn 0.16582891 0.96463251 0.20490289
vn 0.16211873 0.97741908 0.13553399
vn 0.15383135 0.98286688 0.10153138
vn 0.14859998 0.98694748 0.06207080
vn 0.13809498 0.98857218 0.06045498
vn 0.12421598 0.99037099 0.06112141
vn 0.00000003 0.99916363 0.04089087
vn 0.00000910 0.99947250 0.03247737
vn -0.11272011 0.99298739 0.03564262
vn -0.12032791 0.99203610 0.03722411
vn -0.16185093 0.98036349 -0.11265809
vn 0.00000414 0.99299061 -0.11819460
vn 0.16187027 0.98035288 -0.11272131
vn 0.30240607 0.94769567 -0.10209613
vn 0.43623504 0.89710408 -0.07002443
vn 0.54915881 0.83466536 -0.04193544
vn 0.62790614 0.77826583 0.00603191
vn 0.68997127 0.72274917 0.03966636
vn 0.73077959 0.67452466 0.10477450
vn 0.75509185 0.62730193 0.19060060
vn 0.76111597 0.57559604 0.29898462
vn 0.76011991 0.49488285 0.42108053
vn 0.74061036 0.39723185 0.54194379
vn 0.70455986 0.30308515 0.64166564
vn 0.65351349 0.21654426 0.72527844
vn 0.60512626 0.15356717 0.78117812
vn 0.53757811 0.09959082 0.83731210
vn 0.45052272 0.04611257 0.89157325
vn 0.36458218 0.02715733 0.93077517
vn 0.28653559 0.01401940 0.95796710
vn 0.21549788 -0.04102186 0.97564244
vn 0.11592048 -0.08659337 0.98947668
vn -0.00000106 -0.07878530 0.99689162
vn -0.11630092 -0.08650631 0.98943967
vn -0.21548133 -0.04119183 0.97563881
vn -0.28659052 0.01403251 0.95795041
vn -0.36455402 0.02703163 0.93078983
vn -0.45067519 0.04623361 0.89148998
vn -0.53760409 0.09956308 0.83729881
vn -0.60513610 0.15344974 0.78119361
vn -0.65351415 0.21654394 0.72527784
vn -0.70459414 0.30297515 0.64167994
vn -0.74060178 0.39705464 0.54208547
vn -0.76020747 0.49472484 0.42110810
vn -0.53346431 0.70537627 0.46675479
vn -0.35748151 0.80931312 0.46606791
vn -0.18000303 0.86921358 0.46050713
vn 0.00002691 0.95002282 0.31218079
vn 0.00002520 0.97852862 0.20611110
vn 0.00000360 0.99109161 0.13318300
vn 0.00002346 0.99577868 0.09178698
vn 0.00001282 0.99780601 0.06620550
vn 0.00002486 0.99822778 0.05950945
vn 0.00002057 0.99820221 0.05993878
vn -0.12450172 0.99032182 0.06133650
vn -0.19867170 0.97929412 0.03889251
vn -0.22135042 0.97427112 0.04242575
vn -0.30234083 0.94772899 -0.10197976
vn -0.42472056 0.81559282 -0.39296445
vn -0.22479264 0.88000888 -0.41839302
vn 0.00001981 0.91076601 -0.41292301
vn 0.22487456 0.87995702 -0.41845807
vn 0.42458326 0.81579125 -0.39270085
vn 0.60072905 0.72926497 -0.32756257
vn 0.74301314 0.62521988 -0.23881280
vn 0.84531528 0.51446223 -0.14412065
vn 0.88072592 0.47020879 -0.05679542
vn 0.90014195 0.43507770 0.02125984
vn 0.91661787 0.38464910 0.10888829
vn 0.93314171 0.29562199 0.20458341
vn 0.93146324 0.20647298 0.29957500
vn 0.91136265 0.12405438 0.39246497
vn 0.87518078 0.06359918 0.47959769
vn 0.82203442 0.01500184 0.56924009
vn 0.77460694 -0.02365576 0.63200045
vn 0.72680235 -0.08468680 0.68160570
vn 0.67288727 -0.13669515 0.72700554
vn 0.60741401 -0.15996274 0.77811331
vn 0.53782868 -0.19544786 0.82008582
vn 0.44136900 -0.29575187 0.84718627
vn 0.22909325 -0.38812336 0.89267939
vn 0.00000240 -0.39856839 0.91713858
vn -0.22878085 -0.38806462 0.89278519
vn -0.44139692 -0.29570004 0.84718967
vn -0.53816605 -0.19575614 0.81979078
vn -0.60727960 -0.16016026 0.77817762
vn -0.67287964 -0.13676986 0.72699875
vn -0.72681177 -0.08460630 0.68160588
vn -0.77520567 -0.02240921 0.63131136
vn -0.82238352 0.01371162 0.56876850
vn -0.87517893 0.06340346 0.47962671
vn -0.91136265 0.12405442 0.39246494
vn -0.93145478 0.20633103 0.29969910
vn -0.93317515 0.29551551 0.20458449
vn -0.91662771 0.38462362 0.10889621
vn -0.76118135 0.57559842 0.29881337
vn -0.52363014 0.78612727 0.32835284
vn -0.34310007 0.88349003 0.31894773
vn -0.17295024 0.93364751 0.31367290
vn -0.16536440 0.96468711 0.20502081
vn -0.16205667 0.97738820 0.13583131
vn -0.15366974 0.98285991 0.10184342
vn -0.14851561 0.98695880 0.06209425
vn -0.13811052 0.98856348 0.06056242
vn -0.26512873 0.96284532 0.05134079
vn -0.24433082 0.96874142 0.04292779
vn -0.30522141 0.95098257 0.04971934
vn -0.43633977 0.89705145 -0.07004617
vn -0.60151750 0.72791636 -0.32911181
vn -0.64607495 0.62782252 -0.43408075
vn -0.46632227 0.70961475 -0.52819544
vn -0.24898426 0.78296810 -0.57005954
vn 0.00000771 0.83639240 -0.54813141
vn 0.24886632 0.78427201 -0.56831610
vn 0.46597642 0.71119606 -0.52637088
vn 0.64433789 0.63083237 -0.43229544
vn 0.80013335 0.51283604 -0.31110460
vn 0.90143144 0.38452509 -0.19890182
vn 0.92216241 0.37523508 -0.09388928
vn 0.93490446 0.35484418 -0.00627068
vn 0.95575476 0.28274819 0.08115777
vn 0.97696132 0.13986209 0.16120002
vn 0.97161526 0.05278536 0.23060273
vn 0.95392305 -0.00865505 0.29992691
vn 0.92525583 -0.04879603 0.37619251
vn 0.87378115 -0.06817953 0.48151669
vn 0.82576472 -0.09828512 0.55538523
vn 0.79068083 -0.17941382 0.58535010
vn 0.76361972 -0.23638324 0.60083944
vn 0.72779626 -0.28473705 0.62388909
vn 0.66927797 -0.31595805 0.67248619
vn 0.56528622 -0.38776985 0.72807008
vn 0.30090153 -0.52139872 0.79849988
vn -0.00000399 -0.55438411 0.83226103
vn -0.30112717 -0.52304929 0.79733419
vn -0.56529248 -0.38788927 0.72800171
vn -0.66947979 -0.31581327 0.67235327
vn -0.72774798 -0.28464237 0.62398869
vn -0.76361912 -0.23633686 0.60085839
vn -0.79120380 -0.18092358 0.58417749
vn -0.82594252 -0.09858002 0.55506861
vn -0.87376541 -0.06817932 0.48154503
vn -0.92529255 -0.04894914 0.37608218
vn -0.95393336 -0.00864204 0.29989401
vn -0.97174972 0.05164066 0.23029488
vn -0.97695667 0.13989741 0.16119649
vn -0.95581478 0.28254011 0.08117469
vn -0.93501174 0.35455891 -0.00640955
vn -0.92199957 0.37558472 -0.09409053
vn -0.90024918 0.43486071 0.02116357
vn -0.75519669 0.62717766 0.19059479
vn -0.50381416 0.83590287 0.21780223
vn -0.32983822 0.92006362 0.21139953
vn -0.31685248 0.93779337 0.14194454
vn -0.31028396 0.94542462 0.09948017
vn -0.30047321 0.95134681 0.06823005
vn -0.38021582 0.92345184 0.05169817
vn -0.54911178 0.83470261 -0.04180609
vn -0.74485242 0.62242812 -0.24037079
vn -0.80059510 0.51131135 -0.31242341
vn -0.84575897 0.51332617 -0.14556205
vn -0.90143532 0.38450432 -0.19892387
vn -0.88065642 0.47037351 -0.05650650
vn -0.73092174 0.67437881 0.10472161
vn -0.47831118 0.86654836 0.14252265
vn -0.45819622 0.88557076 0.07629430
vn -0.43265471 0.89924836 0.06451607
vn -0.62782353 0.77833551 0.00559898
vn -0.68998897 0.72272706 0.03976081
vt 0.05155158 0.53942341
vt 0.04580456 0.53940791
vt 0.05142766 0.54710680
vt 0.04572707 0.54690528
vt 0.03996455 0.53940791
vt 0.03985613 0.54651809
vt 0.03393870 0.54586750
vt 0.03414005 0.53939241
vt 0.02812969 0.54490709
vt 0.02831554 0.53939241
vt 0.02246010 0.54372978
vt 0.02258402 0.53937691
vt 0.01796776 0.54263002
vt 0.01813817 0.53937691
vt 0.01510196 0.54182440
vt 0.01466822 0.53937691
vt 0.01510196 0.53691387
vt 0.01796776 0.53612381
vt 0.02247554 0.53503948
vt 0.02814513 0.53387767
vt 0.03396964 0.53291732
vt 0.03987163 0.53229761
vt 0.04574257 0.53192592
vt 0.05144315 0.53174001
vt 0.05703532 0.53161597
vt 0.06261193 0.53155410
vt 0.05717474 0.53942341
vt 0.05701982 0.54723072
vt 0.05641567 0.55508453
vt 0.05087000 0.55468172
vt 0.04523140 0.55413950
vt 0.03925198 0.55322552
vt 0.03333455 0.55181593
vt 0.02744805 0.54978663
vt 0.02160811 0.54729259
vt 0.01672852 0.54500002
vt 0.01327407 0.54267639
vt 0.01253056 0.53936142
vt 0.01328957 0.53606188
vt 0.01674401 0.53375381
vt 0.02162355 0.53146112
vt 0.02747905 0.52899808
vt 0.03336554 0.52696878
vt 0.03929847 0.52559018
vt 0.04527789 0.52469170
vt 0.05091649 0.52416498
vt 0.05646216 0.52377772
vt 0.06197685 0.52351439
vt 0.06756895 0.52332860
vt 0.08558464 0.52261591
vt 0.07931095 0.52289468
vt 0.08002352 0.53136820
vt 0.07402861 0.53144562
vt 0.07333153 0.52312708
vt 0.06823509 0.53150761
vt 0.06270492 0.53943890
vt 0.06258100 0.54730809
vt 0.06193035 0.55536330
vt 0.06038129 0.56417751
vt 0.05500602 0.56331003
vt 0.04950684 0.56216371
vt 0.04410058 0.56090891
vt 0.03788882 0.55883318
vt 0.03183192 0.55633920
vt 0.02552723 0.55321008
vt 0.01885074 0.54941487
vt 0.01404863 0.54648709
vt 0.01087301 0.54307908
vt 0.01020693 0.53936142
vt 0.01088851 0.53565907
vt 0.01407963 0.53225112
vt 0.01888173 0.52933890
vt 0.02555823 0.52555919
vt 0.03187841 0.52244562
vt 0.03793525 0.51998252
vt 0.04414707 0.51790678
vt 0.04956877 0.51666749
vt 0.05506801 0.51553673
vt 0.06044328 0.51468468
vt 0.06615930 0.51398772
vt 0.07189089 0.51350743
vt 0.07810264 0.51315111
vt 0.08479464 0.51313567
vt 0.09212172 0.52246112
vt 0.09199780 0.51370877
vt 0.09876722 0.52277088
vt 0.09946435 0.51508749
vt 0.10674500 0.51781380
vt 0.10525780 0.52388620
vt 0.11109780 0.52574497
vt 0.11273990 0.52174842
vt 0.11414950 0.52840948
vt 0.11681390 0.52659702
vt 0.11559020 0.53280878
vt 0.11871920 0.53254551
vt 0.11576050 0.53951633
vt 0.11921500 0.53951633
vt 0.11870380 0.54648709
vt 0.11557470 0.54620832
vt 0.11033880 0.53950077
vt 0.11046270 0.53220469
vt 0.10470020 0.53147662
vt 0.09862780 0.53110480
vt 0.09244704 0.53107393
vt 0.08617329 0.53121328
vt 0.08020937 0.53945440
vt 0.07419902 0.53945440
vt 0.06834352 0.53943890
vt 0.06820410 0.54738557
vt 0.06752252 0.55556470
vt 0.06609737 0.56489003
vt 0.06428498 0.57401413
vt 0.05846047 0.57289881
vt 0.05345696 0.57147360
vt 0.04797327 0.56950629
vt 0.04290777 0.56738412
vt 0.03627777 0.56403798
vt 0.03008151 0.56045967
vt 0.02340501 0.55593651
vt 0.01579904 0.55037528
vt 0.01149266 0.54704481
vt 0.00890571 0.54315662
vt 0.00831705 0.53936142
vt 0.00890571 0.53556621
vt 0.01150816 0.53169352
vt 0.01583003 0.52836299
vt 0.02345150 0.52283281
vt 0.03014343 0.51832497
vt 0.03633975 0.51476222
vt 0.04298526 0.51143169
vt 0.04805070 0.50932491
vt 0.05354988 0.50737310
vt 0.05855339 0.50596350
vt 0.06437790 0.50486362
vt 0.06987708 0.50416648
vt 0.07656908 0.50381023
vt 0.08366382 0.50401157
vt 0.09193587 0.50523537
vt 0.10026990 0.50779128
vt 0.10847990 0.51223719
vt 0.11475360 0.51830947
vt 0.11901360 0.52509451
vt 0.12144560 0.53203428
vt 0.12235960 0.53951633
vt 0.12143010 0.54699832
vt 0.11896710 0.55393821
vt 0.11676740 0.55242002
vt 0.11411850 0.55060762
vt 0.11043170 0.54679692
vt 0.10454520 0.53950077
vt 0.09858137 0.53948528
vt 0.09257096 0.53948528
vt 0.08635920 0.53946978
vt 0.08614230 0.54772639
vt 0.08000802 0.54755592
vt 0.07401311 0.54744762
vt 0.07328504 0.55576611
vt 0.07181346 0.56540132
vt 0.06976866 0.57472670
vt 0.07582551 0.57844442
vt 0.06907159 0.57793319
vt 0.06347942 0.57709670
vt 0.05782532 0.57598138
vt 0.05268239 0.57457173
vt 0.04715222 0.57269740
vt 0.04194736 0.57054412
vt 0.03506952 0.56722921
vt 0.02859437 0.56360441
vt 0.02154612 0.55897260
vt 0.01342898 0.55300868
vt 0.00892121 0.54941487
vt 0.00559068 0.54427201
vt 0.00483167 0.53936142
vt 0.00560617 0.53443527
vt 0.00893670 0.52930802
vt 0.01347547 0.52572948
vt 0.02159261 0.51978111
vt 0.02867186 0.51518041
vt 0.03514695 0.51157111
vt 0.04202485 0.50827157
vt 0.04724520 0.50613391
vt 0.05277538 0.50427502
vt 0.05793374 0.50288081
vt 0.06358790 0.50178099
vt 0.06918001 0.50095987
vt 0.07593393 0.50046432
vt 0.08343148 0.50058818
vt 0.09210622 0.50171900
vt 0.10107540 0.50432152
vt 0.11004450 0.50909263
vt 0.11720120 0.51581550
vt 0.12217370 0.52346790
vt 0.12494650 0.53130621
vt 0.12596890 0.53953183
vt 0.12493100 0.54774189
vt 0.12212720 0.55558008
vt 0.11712370 0.56321710
vt 0.11469170 0.56072313
vt 0.11269340 0.55726862
vt 0.11106680 0.55327201
vt 0.10521140 0.55510002
vt 0.10468470 0.54750949
vt 0.09861236 0.54788130
vt 0.09241604 0.54788130
vt 0.08553820 0.55632371
vt 0.07926446 0.55601388
vt 0.07802522 0.56575751
vt 0.07646065 0.57509840
vt 0.08332300 0.57835150
vt 0.09223020 0.58007097
vt 0.08321458 0.58110881
vt 0.07531434 0.58109331
vt 0.06852942 0.58045822
vt 0.06281334 0.57949781
vt 0.05734509 0.57838237
vt 0.05200082 0.57701927
vt 0.04645514 0.57520688
vt 0.04101794 0.57300723
vt 0.03403162 0.56973863
vt 0.02740162 0.56605190
vt 0.02013647 0.56151313
vt 0.01191091 0.55561107
vt 0.00720173 0.55189341
vt 0.00300378 0.54551119
vt 0.00199687 0.53934592
vt 0.00301927 0.53319609
vt 0.00724822 0.52682942
vt 0.01195740 0.52312708
vt 0.02019840 0.51724070
vt 0.02747905 0.51271743
vt 0.03412455 0.50906158
vt 0.04111087 0.50580847
vt 0.04654812 0.50362432
vt 0.05210924 0.50182742
vt 0.05745357 0.50047970
vt 0.06292176 0.49937990
vt 0.06865334 0.49843499
vt 0.07543826 0.49781540
vt 0.08333849 0.49781540
vt 0.09233862 0.49888420
vt 0.10188090 0.50154859
vt 0.11153160 0.50659859
vt 0.11946280 0.51394123
vt 0.12485360 0.52222872
vt 0.12787430 0.53065562
vt 0.12888120 0.53953183
vt 0.12785880 0.54839247
vt 0.12480710 0.55681938
vt 0.11938540 0.56509137
vt 0.11143860 0.57240307
vt 0.10996700 0.56992447
vt 0.10840240 0.56676441
vt 0.10668300 0.56117231
vt 0.09872078 0.55619979
vt 0.09207528 0.55649412
vt 0.08471721 0.56578851
vt 0.08355540 0.57492811
vt 0.09199780 0.57723618
vt 0.10177240 0.57743752
vt 0.10098240 0.57464921
vt 0.10019240 0.57119483
vt 0.09940236 0.56388319
vt 0.09192037 0.56524640
vt 0.09184288 0.57371968
vt 0.36212859 0.57244313
vt 0.35634261 0.57252568
vt 0.36201051 0.56805050
vt 0.35637799 0.56813312
vt 0.36176249 0.56346881
vt 0.35641339 0.56362241
vt 0.35643700 0.55902898
vt 0.36129019 0.55885178
vt 0.35647240 0.55447102
vt 0.36058170 0.55430567
vt 0.35971969 0.54988939
vt 0.35650781 0.55000752
vt 0.35892859 0.54639411
vt 0.35654330 0.54655951
vt 0.35834989 0.54418600
vt 0.35655510 0.54389077
vt 0.35476020 0.54416239
vt 0.35415801 0.54635870
vt 0.35330790 0.54983032
vt 0.35237500 0.55423480
vt 0.35159561 0.55879283
vt 0.35106430 0.56338620
vt 0.35073361 0.56796777
vt 0.35055649 0.57236052
vt 0.35630709 0.57675308
vt 0.36218759 0.57669407
vt 0.36829251 0.58038998
vt 0.36811540 0.57624543
vt 0.36786741 0.57205337
vt 0.36750129 0.56769621
vt 0.36685190 0.56302011
vt 0.36580089 0.55836773
vt 0.36425409 0.55375058
vt 0.36237660 0.54919273
vt 0.36067620 0.54542589
vt 0.35897580 0.54278082
vt 0.35656691 0.54224950
vt 0.35415801 0.54274541
vt 0.35242221 0.54535502
vt 0.35065100 0.54909831
vt 0.34871441 0.55363262
vt 0.34709671 0.55822599
vt 0.34597489 0.56286663
vt 0.34525460 0.56753087
vt 0.34482950 0.57187629
vt 0.34452251 0.57608002
vt 0.35043839 0.57659960
vt 0.35628349 0.58090961
vt 0.36223480 0.58086240
vt 0.36845779 0.58458197
vt 0.36145550 0.62332481
vt 0.36125481 0.62101042
vt 0.36608431 0.62187242
vt 0.36469099 0.61991221
vt 0.36985120 0.61882591
vt 0.36676919 0.61763322
vt 0.37286231 0.61431509
vt 0.36819801 0.61324048
vt 0.36904821 0.60832840
vt 0.37492871 0.60881251
vt 0.37593239 0.60312092
vt 0.36927250 0.60327440
vt 0.37631020 0.59761822
vt 0.36910731 0.59829128
vt 0.36885929 0.59348541
vt 0.37622759 0.59251708
vt 0.36863491 0.58892739
vt 0.37589699 0.58781737
vt 0.37548369 0.58351922
vt 0.37496409 0.57924461
vt 0.37436190 0.57520622
vt 0.37358260 0.57100248
vt 0.37269691 0.56681061
vt 0.37115011 0.56194562
vt 0.36924890 0.55717498
vt 0.36684009 0.55221558
vt 0.36397061 0.54703182
vt 0.36178610 0.54333579
vt 0.35928279 0.54085612
vt 0.35659051 0.54038382
vt 0.35388640 0.54082072
vt 0.35134760 0.54325318
vt 0.34910411 0.54691380
vt 0.34614021 0.55206209
vt 0.34367231 0.55698609
vt 0.34170029 0.56172121
vt 0.34007081 0.56657439
vt 0.33913791 0.57075453
vt 0.33828780 0.57493460
vt 0.33762649 0.57897311
vt 0.34427449 0.58021301
vt 0.35033220 0.58077967
vt 0.35624811 0.58513701
vt 0.36227030 0.58507788
vt 0.36232930 0.58948243
vt 0.36241201 0.59406400
vt 0.36253011 0.59878731
vt 0.36264810 0.60358143
vt 0.36262450 0.60828108
vt 0.36231750 0.61288631
vt 0.36173889 0.61719632
vt 0.35600010 0.62121111
vt 0.35597649 0.62374991
vt 0.35074541 0.62092769
vt 0.35050929 0.62324208
vt 0.35006061 0.62555653
vt 0.35596469 0.62631231
vt 0.36188060 0.62563920
vt 0.36740691 0.62373811
vt 0.37279141 0.62041998
vt 0.37744391 0.61572027
vt 0.38084459 0.60950911
vt 0.38275760 0.60300279
vt 0.38358420 0.59669721
vt 0.38372579 0.59115922
vt 0.38331249 0.58625883
vt 0.38272211 0.58209038
vt 0.38184830 0.57775682
vt 0.38080919 0.57393098
vt 0.37941581 0.56975079
vt 0.37795159 0.56580692
vt 0.37544820 0.56057590
vt 0.37261429 0.55560458
vt 0.36922529 0.55019641
vt 0.36500982 0.54422140
vt 0.36241201 0.54086793
vt 0.35936549 0.53888410
vt 0.35660231 0.53851807
vt 0.35382739 0.53883678
vt 0.35075730 0.54077339
vt 0.34810039 0.54407972
vt 0.34379041 0.55000752
vt 0.34033060 0.55536842
vt 0.33741391 0.56029242
vt 0.33482799 0.56548810
vt 0.33331650 0.56942022
vt 0.33186409 0.57357669
vt 0.33076590 0.57739079
vt 0.32982120 0.58170080
vt 0.33704790 0.58323592
vt 0.34406200 0.58440483
vt 0.35022590 0.58499533
vt 0.35622451 0.58960050
vt 0.35618901 0.59421748
vt 0.35615361 0.59896439
vt 0.35611820 0.60373491
vt 0.35608271 0.60832840
vt 0.35605910 0.61280358
vt 0.35602370 0.61716092
vt 0.35030851 0.61711371
vt 0.34732100 0.61979407
vt 0.34590411 0.62173068
vt 0.34454611 0.62357271
vt 0.34335351 0.62579268
vt 0.34949380 0.62798911
vt 0.35594109 0.62886292
vt 0.36240020 0.62808353
vt 0.36857590 0.62596983
vt 0.37455079 0.62217939
vt 0.37966380 0.61686558
vt 0.38327709 0.61009961
vt 0.38523731 0.60319167
vt 0.38605210 0.59660268
vt 0.38614649 0.59079307
vt 0.38572151 0.58575088
vt 0.38506010 0.58148819
vt 0.38420999 0.57723731
vt 0.38317090 0.57328153
vt 0.38180110 0.56904232
vt 0.38024241 0.56498033
vt 0.37772730 0.55959570
vt 0.37488151 0.55445921
vt 0.37136260 0.54883838
vt 0.36688730 0.54256833
vt 0.36411241 0.53908491
vt 0.36020380 0.53655791
vt 0.35662592 0.53605020
vt 0.35303619 0.53649890
vt 0.34908050 0.53896678
vt 0.34625831 0.54240298
vt 0.34167671 0.54861408
vt 0.33807519 0.55417567
vt 0.33514681 0.55927688
vt 0.33256081 0.56462598
vt 0.33093131 0.56867617
vt 0.32950240 0.57289177
vt 0.32841611 0.57683581
vt 0.32749501 0.58107501
vt 0.32678649 0.58533770
vt 0.32629061 0.59036797
vt 0.32917181 0.58586907
vt 0.33657560 0.58753401
vt 0.34381399 0.58873850
vt 0.35011959 0.58939970
vt 0.34996611 0.59398133
vt 0.34978899 0.59869277
vt 0.34959999 0.60348702
vt 0.34955281 0.60818660
vt 0.34978899 0.61280358
vt 0.34390849 0.61306351
vt 0.34527820 0.61747968
vt 0.34218451 0.61862510
vt 0.33920881 0.62017202
vt 0.33743760 0.62191957
vt 0.33620951 0.62346649
vt 0.34251511 0.62755221
vt 0.34903321 0.62989020
vt 0.35592928 0.63084662
vt 0.36283711 0.62999642
vt 0.36937880 0.62775290
vt 0.37575531 0.62374991
vt 0.38134059 0.61789298
vt 0.38514280 0.61065447
vt 0.38716200 0.60343969
vt 0.38797679 0.59660268
vt 0.38807121 0.59054512
vt 0.38761070 0.58537310
vt 0.38689041 0.58099222
vt 0.38607570 0.57680041
vt 0.38502470 0.57270288
vt 0.38370219 0.56841648
vt 0.38203719 0.56418908
vt 0.37947491 0.55874562
vt 0.37664089 0.55353808
vt 0.37309840 0.54788202
vt 0.36863491 0.54151738
vt 0.36581269 0.53791583
vt 0.36111310 0.53479850
vt 0.35663769 0.53412539
vt 0.35215059 0.53472757
vt 0.34739190 0.53777420
vt 0.34452251 0.54132837
vt 0.33996451 0.54762220
vt 0.33632761 0.55323112
vt 0.33341089 0.55840307
vt 0.33077770 0.56381130
vt 0.32904190 0.56801498
vt 0.32766029 0.57228959
vt 0.32655039 0.57637531
vt 0.32567659 0.58054352
vt 0.32489720 0.58492440
vt 0.32436591 0.59009641
vt 0.32436591 0.59614217
vt 0.32508609 0.60300279
vt 0.32629061 0.59616578
vt 0.32869950 0.59075773
vt 0.33617410 0.59223372
vt 0.34353059 0.59330821
vt 0.34321180 0.59810239
vt 0.34297559 0.60308552
vt 0.34312910 0.60815120
vt 0.33923239 0.61407888
vt 0.33462721 0.61541331
vt 0.33239540 0.61652332
vt 0.33069500 0.61752701
vt 0.32888839 0.60970992
vt 0.32699910 0.61024129
vt 0.32702270 0.60277837
vt 0.32875851 0.59630752
vt 0.33602059 0.59733492
vt 0.33631581 0.60283750
vt 0.33724859 0.60854089
vt 0.33132091 0.60915488
vt 0.32950240 0.60262501
f 1/1/1 2/2/2 3/3/3
f 3/3/3 2/2/2 4/4/4
f 2/2/2 5/5/5 4/4/4
f 4/4/4 5/5/5 6/6/6
f 6/6/6 5/5/5 7/7/7
f 5/5/5 8/8/8 7/7/7
f 7/7/7 8/8/8 9/9/9
f 8/8/8 10/10/10 9/9/9
f 9/9/9 10/10/10 11/11/11
f 10/10/10 12/12/12 11/11/11
f 11/11/11 12/12/12 13/13/13
f 12/12/12 14/14/14 13/13/13
f 13/13/13 14/14/14 15/15/15
f 15/15/15 14/14/14 16/16/16
f 16/16/16 14/14/14 17/17/17
f 17/17/17 14/14/14 18/18/18
f 14/14/14 12/12/12 18/18/18
f 18/18/18 12/12/12 19/19/19
f 12/12/12 10/10/10 19/19/19
f 19/19/19 10/10/10 20/20/20
f 10/10/10 8/8/8 20/20/20
f 20/20/20 8/8/8 21/21/21
f 8/8/8 5/5/5 21/21/21
f 21/21/21 5/5/5 22/22/22
f 22/22/22 5/5/5 23/23/23
f 5/5/5 2/2/2 23/23/23
f 23/23/23 2/2/2 24/24/24
f 2/2/2 1/1/1 24/24/24
f 24/24/24 1/1/1 25/25/25
f 26/26/26 25/25/25 27/27/27
f 25/25/25 1/1/1 27/27/27
f 27/27/27 1/1/1 28/28/28
f 1/1/1 3/3/3 28/28/28
f 28/28/28 3/3/3 29/29/29
f 29/29/29 3/3/3 30/30/30
f 3/3/3 4/4/4 30/30/30
f 30/30/30 4/4/4 31/31/31
f 4/4/4 6/6/6 31/31/31
f 31/31/31 6/6/6 32/32/32
f 6/6/6 7/7/7 32/32/32
f 32/32/32 7/7/7 33/33/33
f 7/7/7 9/9/9 33/33/33
f 33/33/33 9/9/9 34/34/34
f 9/9/9 11/11/11 34/34/34
f 34/34/34 11/11/11 35/35/35
f 11/11/11 13/13/13 35/35/35
f 35/35/35 13/13/13 36/36/36
f 36/36/36 13/13/13 37/37/37
f 13/13/13 15/15/15 37/37/37
f 37/37/37 15/15/15 38/38/38
f 15/15/15 16/16/16 38/38/38
f 16/16/16 17/17/17 38/38/38
f 38/38/38 17/17/17 39/39/39
f 17/17/17 18/18/18 39/39/39
f 39/39/39 18/18/18 40/40/40
f 40/40/40 18/18/18 41/41/41
f 18/18/18 19/19/19 41/41/41
f 41/41/41 19/19/19 42/42/42
f 19/19/19 20/20/20 42/42/42
f 42/42/42 20/20/20 43/43/43
f 20/20/20 21/21/21 43/43/43
f 43/43/43 21/21/21 44/44/44
f 21/21/21 22/22/22 44/44/44
f 44/44/44 22/22/22 45/45/45
f 22/22/22 23/23/23 45/45/45
f 45/45/45 23/23/23 46/46/46
f 23/23/23 24/24/24 46/46/46
f 46/46/46 24/24/24 47/47/47
f 24/24/24 25/25/25 47/47/47
f 47/47/47 25/25/25 48/48/48
f 25/25/25 26/26/26 48/48/48
f 48/48/48 26/26/26 49/49/49
f 50/50/50 51/51/51 52/52/52
f 52/52/52 51/51/51 53/53/53
f 51/51/51 54/54/54 53/53/53
f 53/53/53 54/54/54 55/55/55
f 54/54/54 49/49/49 55/55/55
f 49/49/49 26/26/26 55/55/55
f 55/55/55 26/26/26 56/56/56
f 26/26/26 27/27/27 56/56/56
f 56/56/56 27/27/27 57/57/57
f 27/27/27 28/28/28 57/57/57
f 57/57/57 28/28/28 58/58/58
f 28/28/28 29/29/29 58/58/58
f 58/58/58 29/29/29 59/59/59
f 59/59/59 29/29/29 60/60/60
f 29/29/29 30/30/30 60/60/60
f 60/60/60 30/30/30 61/61/61
f 30/30/30 31/31/31 61/61/61
f 61/61/61 31/31/31 62/62/62
f 31/31/31 32/32/32 62/62/62
f 62/62/62 32/32/32 63/63/63
f 32/32/32 33/33/33 63/63/63
f 63/63/63 33/33/33 64/64/64
f 33/33/33 34/34/34 64/64/64
f 64/64/64 34/34/34 65/65/65
f 65/65/65 34/34/34 66/66/66
f 34/34/34 35/35/35 66/66/66
f 66/66/66 35/35/35 67/67/67
f 35/35/35 36/36/36 67/67/67
f 67/67/67 36/36/36 68/68/68
f 36/36/36 37/37/37 68/68/68
f 37/37/37 38/38/38 68/68/68
f 68/68/68 38/38/38 69/69/69
f 69/69/69 38/38/38 70/70/70
f 38/38/38 39/39/39 70/70/70
f 39/39/39 40/40/40 70/70/70
f 70/70/70 40/40/40 71/71/71
f 40/40/40 41/41/41 71/71/71
f 71/71/71 41/41/41 72/72/72
f 41/41/41 42/42/42 72/72/72
f 72/72/72 42/42/42 73/73/73
f 73/73/73 42/42/42 74/74/74
f 42/42/42 43/43/43 74/74/74
f 74/74/74 43/43/43 75/75/75
f 43/43/43 44/44/44 75/75/75
f 75/75/75 44/44/44 76/76/76
f 44/44/44 45/45/45 76/76/76
f 76/76/76 45/45/45 77/77/77
f 45/45/45 46/46/46 77/77/77
f 77/77/77 46/46/46 78/78/78
f 46/46/46 47/47/47 78/78/78
f 78/78/78 47/47/47 79/79/79
f 47/47/47 48/48/48 79/79/79
f 79/79/79 48/48/48 80/80/80
f 48/48/48 49/49/49 80/80/80
f 80/80/80 49/49/49 81/81/81
f 49/49/49 54/54/54 81/81/81
f 81/81/81 54/54/54 82/82/82
f 54/54/54 51/51/51 82/82/82
f 82/82/82 51/51/51 83/83/83
f 51/51/51 50/50/50 83/83/83
f 50/50/50 84/84/84 83/83/83
f 83/83/83 84/84/84 85/85/85
f 84/84/84 86/86/86 85/85/85
f 85/85/85 86/86/86 87/87/87
f 87/87/87 86/86/86 88/88/88
f 86/86/86 89/89/89 88/88/88
f 89/89/89 90/90/90 88/88/88
f 88/88/88 90/90/90 91/91/91
f 90/90/90 92/92/92 91/91/91
f 91/91/91 92/92/92 93/93/93
f 92/92/92 94/94/94 93/93/93
f 93/93/93 94/94/94 95/95/95
f 94/94/94 96/96/96 95/95/95
f 95/95/95 96/96/96 97/97/97
f 97/97/97 96/96/96 98/98/98
f 98/98/98 96/96/96 99/99/99
f 99/99/99 96/96/96 100/100/100
f 96/96/96 94/94/94 100/100/100
f 100/100/100 94/94/94 101/101/101
f 94/94/94 92/92/92 101/101/101
f 92/92/92 90/90/90 101/101/101
f 101/101/101 90/90/90 102/102/102
f 90/90/90 89/89/89 102/102/102
f 89/89/89 86/86/86 102/102/102
f 102/102/102 86/86/86 103/103/103
f 86/86/86 84/84/84 103/103/103
f 103/103/103 84/84/84 104/104/104
f 84/84/84 50/50/50 104/104/104
f 104/104/104 50/50/50 105/105/105
f 50/50/50 52/52/52 105/105/105
f 105/105/105 52/52/52 106/106/106
f 106/106/106 52/52/52 107/107/107
f 52/52/52 53/53/53 107/107/107
f 107/107/107 53/53/53 108/108/108
f 53/53/53 55/55/55 108/108/108
f 55/55/55 56/56/56 108/108/108
f 108/108/108 56/56/56 109/109/109
f 56/56/56 57/57/57 109/109/109
f 109/109/109 57/57/57 110/110/110
f 57/57/57 58/58/58 110/110/110
f 110/110/110 58/58/58 111/111/111
f 58/58/58 59/59/59 111/111/111
f 111/111/111 59/59/59 112/112/112
f 112/112/112 59/59/59 113/113/113
f 59/59/59 60/60/60 113/113/113
f 113/113/113 60/60/60 114/114/114
f 60/60/60 61/61/61 114/114/114
f 114/114/114 61/61/61 115/115/115
f 61/61/61 62/62/62 115/115/115
f 115/115/115 62/62/62 116/116/116
f 116/116/116 62/62/62 117/117/117
f 62/62/62 63/63/63 117/117/117
f 117/117/117 63/63/63 118/118/118
f 63/63/63 64/64/64 118/118/118
f 118/118/118 64/64/64 119/119/119
f 64/64/64 65/65/65 119/119/119
f 119/119/119 65/65/65 120/120/120
f 65/65/65 66/66/66 120/120/120
f 120/120/120 66/66/66 121/121/121
f 66/66/66 67/67/67 121/121/121
f 121/121/121 67/67/67 122/122/122
f 67/67/67 68/68/68 122/122/122
f 68/68/68 69/69/69 122/122/122
f 122/122/122 69/69/69 123/123/123
f 123/123/123 69/69/69 124/124/124
f 69/69/69 70/70/70 124/124/124
f 70/70/70 71/71/71 124/124/124
f 124/124/124 71/71/71 125/125/125
f 71/71/71 72/72/72 125/125/125
f 125/125/125 72/72/72 126/126/126
f 72/72/72 73/73/73 126/126/126
f 126/126/126 73/73/73 127/127/127
f 73/73/73 74/74/74 127/127/127
f 127/127/127 74/74/74 128/128/128
f 74/74/74 75/75/75 128/128/128
f 128/128/128 75/75/75 129/129/129
f 75/75/75 76/76/76 129/129/129
f 129/129/129 76/76/76 130/130/130
f 130/130/130 76/76/76 131/131/131
f 76/76/76 77/77/77 131/131/131
f 131/131/131 77/77/77 132/132/132
f 77/77/77 78/78/78 132/132/132
f 132/132/132 78/78/78 133/133/133
f 78/78/78 79/79/79 133/133/133
f 133/133/133 79/79/79 134/134/134
f 79/79/79 80/80/80 134/134/134
f 134/134/134 80/80/80 135/135/135
f 80/80/80 81/81/81 135/135/135
f 135/135/135 81/81/81 136/136/136
f 81/81/81 82/82/82 136/136/136
f 136/136/136 82/82/82 137/137/137
f 82/82/82 83/83/83 137/137/137
f 137/137/137 83/83/83 138/138/138
f 83/83/83 85/85/85 138/138/138
f 85/85/85 87/87/87 138/138/138
f 138/138/138 87/87/87 139/139/139
f 87/87/87 88/88/88 139/139/139
f 139/139/139 88/88/88 140/140/140
f 88/88/88 91/91/91 140/140/140
f 140/140/140 91/91/91 141/141/141
f 91/91/91 93/93/93 141/141/141
f 141/141/141 93/93/93 142/142/142
f 93/93/93 95/95/95 142/142/142
f 142/142/142 95/95/95 143/143/143
f 143/143/143 95/95/95 144/144/144
f 95/95/95 97/97/97 144/144/144
f 97/97/97 98/98/98 144/144/144
f 144/144/144 98/98/98 145/145/145
f 145/145/145 98/98/98 146/146/146
f 146/146/146 98/98/98 147/147/147
f 98/98/98 99/99/99 147/147/147
f 147/147/147 99/99/99 148/148/148
f 148/148/148 99/99/99 149/149/149
f 99/99/99 100/100/100 149/149/149
f 149/149/149 100/100/100 150/150/150
f 100/100/100 101/101/101 150/150/150
f 101/101/101 102/102/102 150/150/150
f 150/150/150 102/102/102 151/151/151
f 102/102/102 103/103/103 151/151/151
f 151/151/151 103/103/103 152/152/152
f 103/103/103 104/104/104 152/152/152
f 152/152/152 104/104/104 153/153/153
f 104/104/104 105/105/105 153/153/153
f 105/105/105 106/106/106 153/153/153
f 153/153/153 106/106/106 154/154/154
f 154/154/154 106/106/106 155/155/155
f 106/106/106 107/107/107 155/155/155
f 155/155/155 107/107/107 156/156/156
f 107/107/107 108/108/108 156/156/156
f 108/108/108 109/109/109 156/156/156
f 156/156/156 109/109/109 157/157/157
f 109/109/109 110/110/110 157/157/157
f 157/157/157 110/110/110 158/158/158
f 110/110/110 111/111/111 158/158/158
f 158/158/158 111/111/111 159/159/159
f 111/111/111 112/112/112 159/159/159
f 160/160/160 159/159/159 161/161/161
f 159/159/159 112/112/112 161/161/161
f 161/161/161 112/112/112 162/162/162
f 112/112/112 113/113/113 162/162/162
f 162/162/162 113/113/113 163/163/163
f 163/163/163 113/113/113 164/164/164
f 113/113/113 114/114/114 164/164/164
f 164/164/164 114/114/114 165/165/165
f 114/114/114 115/115/115 165/165/165
f 115/115/115 116/116/116 165/165/165
f 165/165/165 116/116/116 166/166/166
f 166/166/166 116/116/116 167/167/167
f 116/116/116 117/117/117 167/167/167
f 167/167/167 117/117/117 168/168/168
f 117/117/117 118/118/118 168/168/168
f 118/118/118 119/119/119 168/168/168
f 168/168/168 119/119/119 169/169/169
f 119/119/119 120/120/120 169/169/169
f 169/169/169 120/120/120 170/170/170
f 120/120/120 121/121/121 170/170/170
f 170/170/170 121/121/121 171/171/171
f 171/171/171 121/121/121 172/172/172
f 121/121/121 122/122/122 172/172/172
f 172/172/172 122/122/122 173/173/173
f 122/122/122 123/123/123 173/173/173
f 123/123/123 124/124/124 173/173/173
f 173/173/173 124/124/124 174/174/174
f 124/124/124 125/125/125 174/174/174
f 174/174/174 125/125/125 175/175/175
f 175/175/175 125/125/125 176/176/176
f 125/125/125 126/126/126 176/176/176
f 176/176/176 126/126/126 177/177/177
f 126/126/126 127/127/127 177/177/177
f 177/177/177 127/127/127 178/178/178
f 127/127/127 128/128/128 178/178/178
f 128/128/128 129/129/129 178/178/178
f 178/178/178 129/129/129 179/179/179
f 129/129/129 130/130/130 179/179/179
f 179/179/179 130/130/130 180/180/180
f 180/180/180 130/130/130 181/181/181
f 130/130/130 131/131/131 181/181/181
f 131/131/131 132/132/132 181/181/181
f 181/181/181 132/132/132 182/182/182
f 132/132/132 133/133/133 182/182/182
f 182/182/182 133/133/133 183/183/183
f 183/183/183 133/133/133 184/184/184
f 133/133/133 134/134/134 184/184/184
f 184/184/184 134/134/134 185/185/185
f 134/134/134 135/135/135 185/185/185
f 185/185/185 135/135/135 186/186/186
f 135/135/135 136/136/136 186/186/186
f 186/186/186 136/136/136 187/187/187
f 136/136/136 137/137/137 187/187/187
f 187/187/187 137/137/137 188/188/188
f 137/137/137 138/138/138 188/188/188
f 188/188/188 138/138/138 189/189/189
f 138/138/138 139/139/139 189/189/189
f 189/189/189 139/139/139 190/190/190
f 139/139/139 140/140/140 190/190/190
f 190/190/190 140/140/140 191/191/191
f 140/140/140 141/141/141 191/191/191
f 191/191/191 141/141/141 192/192/192
f 141/141/141 142/142/142 192/192/192
f 142/142/142 143/143/143 192/192/192
f 192/192/192 143/143/143 193/193/193
f 143/143/143 144/144/144 193/193/193
f 193/193/193 144/144/144 194/194/194
f 194/194/194 144/144/144 195/195/195
f 144/144/144 145/145/145 195/195/195
f 195/195/195 145/145/145 196/196/196
f 145/145/145 146/146/146 196/196/196
f 197/197/197 196/196/196 198/198/198
f 196/196/196 146/146/146 198/198/198
f 146/146/146 147/147/147 198/198/198
f 198/198/198 147/147/147 199/199/199
f 147/147/147 148/148/148 199/199/199
f 199/199/199 148/148/148 200/200/200
f 148/148/148 149/149/149 200/200/200
f 201/201/201 200/200/200 202/202/202
f 200/200/200 149/149/149 202/202/202
f 149/149/149 150/150/150 202/202/202
f 150/150/150 151/151/151 202/202/202
f 202/202/202 151/151/151 203/203/203
f 151/151/151 152/152/152 203/203/203
f 203/203/203 152/152/152 204/204/204
f 152/152/152 153/153/153 204/204/204
f 153/153/153 154/154/154 204/204/204
f 204/204/204 154/154/154 205/205/205
f 154/154/154 155/155/155 205/205/205
f 205/205/205 155/155/155 206/206/206
f 155/155/155 156/156/156 206/206/206
f 156/156/156 157/157/157 206/206/206
f 206/206/206 157/157/157 207/207/207
f 157/157/157 158/158/158 207/207/207
f 207/207/207 158/158/158 208/208/208
f 158/158/158 159/159/159 208/208/208
f 159/159/159 160/160/160 208/208/208
f 208/208/208 160/160/160 209/209/209
f 210/210/210 209/209/209 211/211/211
f 209/209/209 160/160/160 211/211/211
f 211/211/211 160/160/160 212/212/212
f 160/160/160 161/161/161 212/212/212
f 212/212/212 161/161/161 213/213/213
f 161/161/161 162/162/162 213/213/213
f 213/213/213 162/162/162 214/214/214
f 162/162/162 163/163/163 214/214/214
f 214/214/214 163/163/163 215/215/215
f 215/215/215 163/163/163 216/216/216
f 163/163/163 164/164/164 216/216/216
f 216/216/216 164/164/164 217/217/217
f 164/164/164 165/165/165 217/217/217
f 165/165/165 166/166/166 217/217/217
f 217/217/217 166/166/166 218/218/218
f 166/166/166 167/167/167 218/218/218
f 218/218/218 167/167/167 219/219/219
f 167/167/167 168/168/168 219/219/219
f 219/219/219 168/168/168 220/220/220
f 168/168/168 169/169/169 220/220/220
f 220/220/220 169/169/169 221/221/221
f 169/169/169 170/170/170 221/221/221
f 221/221/221 170/170/170 222/222/222
f 170/170/170 171/171/171 222/222/222
f 222/222/222 171/171/171 223/223/223
f 223/223/223 171/171/171 224/224/224
f 171/171/171 172/172/172 224/224/224
f 224/224/224 172/172/172 225/225/225
f 172/172/172 173/173/173 225/225/225
f 173/173/173 174/174/174 225/225/225
f 225/225/225 174/174/174 226/226/226
f 174/174/174 175/175/175 226/226/226
f 226/226/226 175/175/175 227/227/227
f 227/227/227 175/175/175 228/228/228
f 175/175/175 176/176/176 228/228/228
f 228/228/228 176/176/176 229/229/229
f 176/176/176 177/177/177 229/229/229
f 229/229/229 177/177/177 230/230/230
f 177/177/177 178/178/178 230/230/230
f 230/230/230 178/178/178 231/231/231
f 178/178/178 179/179/179 231/231/231
f 231/231/231 179/179/179 232/232/232
f 179/179/179 180/180/180 232/232/232
f 232/232/232 180/180/180 233/233/233
f 180/180/180 181/181/181 233/233/233
f 181/181/181 182/182/182 233/233/233
f 233/233/233 182/182/182 234/234/234
f 182/182/182 183/183/183 234/234/234
f 234/234/234 183/183/183 235/235/235
f 235/235/235 183/183/183 236/236/236
f 183/183/183 184/184/184 236/236/236
f 236/236/236 184/184/184 237/237/237
f 184/184/184 185/185/185 237/237/237
f 237/237/237 185/185/185 238/238/238
f 185/185/185 186/186/186 238/238/238
f 238/238/238 186/186/186 239/239/239
f 186/186/186 187/187/187 239/239/239
f 239/239/239 187/187/187 240/240/240
f 187/187/187 188/188/188 240/240/240
f 240/240/240 188/188/188 241/241/241
f 188/188/188 189/189/189 241/241/241
f 241/241/241 189/189/189 242/242/242
f 189/189/189 190/190/190 242/242/242
f 242/242/242 190/190/190 243/243/243
f 190/190/190 191/191/191 243/243/243
f 243/243/243 191/191/191 244/244/244
f 191/191/191 192/192/192 244/244/244
f 244/244/244 192/192/192 245/245/245
f 192/192/192 193/193/193 245/245/245
f 193/193/193 194/194/194 245/245/245
f 245/245/245 194/194/194 246/246/246
f 246/246/246 194/194/194 247/247/247
f 194/194/194 195/195/195 247/247/247
f 195/195/195 196/196/196 247/247/247
f 247/247/247 196/196/196 248/248/248
f 196/196/196 197/197/197 248/248/248
f 248/248/248 197/197/197 249/249/249
f 250/250/250 249/249/249 251/251/251
f 249/249/249 197/197/197 251/251/251
f 251/251/251 197/197/197 252/252/252
f 197/197/197 198/198/198 252/252/252
f 198/198/198 199/199/199 252/252/252
f 252/252/252 199/199/199 253/253/253
f 199/199/199 200/200/200 253/253/253
f 200/200/200 201/201/201 253/253/253
f 253/253/253 201/201/201 254/254/254
f 201/201/201 202/202/202 254/254/254
f 202/202/202 203/203/203 254/254/254
f 254/254/254 203/203/203 255/255/255
f 203/203/203 204/204/204 255/255/255
f 204/204/204 205/205/205 255/255/255
f 255/255/255 205/205/205 256/256/256
f 205/205/205 206/206/206 256/256/256
f 206/206/206 207/207/207 256/256/256
f 256/256/256 207/207/207 257/257/257
f 207/207/207 208/208/208 257/257/257
f 208/208/208 209/209/209 257/257/257
f 257/257/257 209/209/209 258/258/258
f 209/209/209 210/210/210 258/258/258
f 210/210/210 259/259/259 258/258/258
f 258/258/258 259/259/259 260/260/260
f 259/259/259 250/250/250 260/260/260
f 250/250/250 251/251/251 260/260/260
f 260/260/260 251/251/251 261/261/261
f 251/251/251 252/252/252 261/261/261
f 252/252/252 253/253/253 261/261/261
f 261/261/261 253/253/253 262/262/262
f 253/253/253 254/254/254 262/262/262
f 262/262/262 254/254/254 263/263/263
f 254/254/254 255/255/255 263/263/263
f 255/255/255 256/256/256 263/263/263
f 263/263/263 256/256/256 264/264/264
f 256/256/256 257/257/257 264/264/264
f 257/257/257 258/258/258 264/264/264
f 258/258/258 260/260/260 264/264/264
f 260/260/260 261/261/261 264/264/264
f 261/261/261 262/262/262 264/264/264
f 263/263/263 264/264/264 262/262/262
f 265/265/265 266/266/266 267/267/267
f 266/266/266 268/268/268 267/267/267
f 267/267/267 268/268/268 269/269/269
f 268/268/268 270/270/270 269/269/269
f 270/270/270 271/271/271 269/269/269
f 269/269/269 271/271/271 272/272/272
f 271/271/271 273/273/273 272/272/272
f 272/272/272 273/273/273 274/274/274
f 274/274/274 273/273/273 275/275/275
f 273/273/273 276/276/276 275/275/275
f 275/275/275 276/276/276 277/277/277
f 276/276/276 278/278/278 277/277/277
f 277/277/277 278/278/278 279/279/279
f 279/279/279 278/278/278 280/280/280
f 280/280/280 278/278/278 281/281/281
f 281/281/281 278/278/278 282/282/282
f 278/278/278 276/276/276 282/282/282
f 282/282/282 276/276/276 283/283/283
f 276/276/276 273/273/273 283/283/283
f 283/283/283 273/273/273 284/284/284
f 273/273/273 271/271/271 284/284/284
f 284/284/284 271/271/271 285/285/285
f 285/285/285 271/271/271 286/286/286
f 271/271/271 270/270/270 286/286/286
f 270/270/270 268/268/268 286/286/286
f 286/286/286 268/268/268 287/287/287
f 268/268/268 266/266/266 287/287/287
f 287/287/287 266/266/266 288/288/288
f 288/288/288 266/266/266 289/289/289
f 266/266/266 265/265/265 289/289/289
f 289/289/289 265/265/265 290/290/290
f 291/291/291 290/290/290 292/292/292
f 290/290/290 265/265/265 292/292/292
f 292/292/292 265/265/265 293/293/293
f 265/265/265 267/267/267 293/293/293
f 293/293/293 267/267/267 294/294/294
f 267/267/267 269/269/269 294/294/294
f 294/294/294 269/269/269 295/295/295
f 269/269/269 272/272/272 295/295/295
f 295/295/295 272/272/272 296/296/296
f 272/272/272 274/274/274 296/296/296
f 296/296/296 274/274/274 297/297/297
f 274/274/274 275/275/275 297/297/297
f 297/297/297 275/275/275 298/298/298
f 275/275/275 277/277/277 298/298/298
f 298/298/298 277/277/277 299/299/299
f 299/299/299 277/277/277 300/300/300
f 277/277/277 279/279/279 300/300/300
f 300/300/300 279/279/279 301/301/301
f 279/279/279 280/280/280 301/301/301
f 280/280/280 281/281/281 301/301/301
f 301/301/301 281/281/281 302/302/302
f 281/281/281 282/282/282 302/302/302
f 302/302/302 282/282/282 303/303/303
f 303/303/303 282/282/282 304/304/304
f 282/282/282 283/283/283 304/304/304
f 304/304/304 283/283/283 305/305/305
f 283/283/283 284/284/284 305/305/305
f 305/305/305 284/284/284 306/306/306
f 284/284/284 285/285/285 306/306/306
f 306/306/306 285/285/285 307/307/307
f 285/285/285 286/286/286 307/307/307
f 307/307/307 286/286/286 308/308/308
f 286/286/286 287/287/287 308/308/308
f 308/308/308 287/287/287 309/309/309
f 287/287/287 288/288/288 309/309/309
f 309/309/309 288/288/288 310/310/310
f 310/310/310 288/288/288 311/311/311
f 288/288/288 289/289/289 311/311/311
f 311/311/311 289/289/289 312/312/312
f 289/289/289 290/290/290 312/312/312
f 312/312/312 290/290/290 313/313/313
f 290/290/290 291/291/291 313/313/313
f 313/313/313 291/291/291 314/314/314
f 315/315/315 316/316/316 317/317/317
f 316/316/316 318/318/318 317/317/317
f 317/317/317 318/318/318 319/319/319
f 318/318/318 320/320/320 319/319/319
f 319/319/319 320/320/320 321/321/321
f 320/320/320 322/322/322 321/321/321
f 322/322/322 323/323/323 321/321/321
f 321/321/321 323/323/323 324/324/324
f 324/324/324 323/323/323 325/325/325
f 323/323/323 326/326/326 325/325/325
f 325/325/325 326/326/326 327/327/327
f 326/326/326 328/328/328 327/327/327
f 328/328/328 329/329/329 327/327/327
f 327/327/327 329/329/329 330/330/330
f 329/329/329 331/331/331 330/330/330
f 330/330/330 331/331/331 332/332/332
f 331/331/331 314/314/314 332/332/332
f 332/332/332 314/314/314 333/333/333
f 314/314/314 291/291/291 333/333/333
f 333/333/333 291/291/291 334/334/334
f 291/291/291 292/292/292 334/334/334
f 334/334/334 292/292/292 335/335/335
f 292/292/292 293/293/293 335/335/335
f 335/335/335 293/293/293 336/336/336
f 293/293/293 294/294/294 336/336/336
f 336/336/336 294/294/294 337/337/337
f 294/294/294 295/295/295 337/337/337
f 337/337/337 295/295/295 338/338/338
f 295/295/295 296/296/296 338/338/338
f 338/338/338 296/296/296 339/339/339
f 296/296/296 297/297/297 339/339/339
f 339/339/339 297/297/297 340/340/340
f 340/340/340 297/297/297 341/341/341
f 297/297/297 298/298/298 341/341/341
f 341/341/341 298/298/298 342/342/342
f 298/298/298 299/299/299 342/342/342
f 342/342/342 299/299/299 343/343/343
f 299/299/299 300/300/300 343/343/343
f 300/300/300 301/301/301 343/343/343
f 343/343/343 301/301/301 344/344/344
f 344/344/344 301/301/301 345/345/345
f 301/301/301 302/302/302 345/345/345
f 302/302/302 303/303/303 345/345/345
f 345/345/345 303/303/303 346/346/346
f 303/303/303 304/304/304 346/346/346
f 346/346/346 304/304/304 347/347/347
f 304/304/304 305/305/305 347/347/347
f 347/347/347 305/305/305 348/348/348
f 348/348/348 305/305/305 349/349/349
f 305/305/305 306/306/306 349/349/349
f 349/349/349 306/306/306 350/350/350
f 306/306/306 307/307/307 350/350/350
f 350/350/350 307/307/307 351/351/351
f 307/307/307 308/308/308 351/351/351
f 351/351/351 308/308/308 352/352/352
f 308/308/308 309/309/309 352/352/352
f 352/352/352 309/309/309 353/353/353
f 309/309/309 310/310/310 353/353/353
f 353/353/353 310/310/310 354/354/354
f 354/354/354 310/310/310 355/355/355
f 310/310/310 311/311/311 355/355/355
f 355/355/355 311/311/311 356/356/356
f 311/311/311 312/312/312 356/356/356
f 356/356/356 312/312/312 357/357/357
f 312/312/312 313/313/313 357/357/357
f 357/357/357 313/313/313 358/358/358
f 313/313/313 314/314/314 358/358/358
f 314/314/314 331/331/331 358/358/358
f 358/358/358 331/331/331 359/359/359
f 331/331/331 329/329/329 359/359/359
f 359/359/359 329/329/329 360/360/360
f 329/329/329 328/328/328 360/360/360
f 360/360/360 328/328/328 361/361/361
f 361/361/361 328/328/328 362/362/362
f 328/328/328 326/326/326 362/362/362
f 362/362/362 326/326/326 363/363/363
f 326/326/326 323/323/323 363/363/363
f 363/363/363 323/323/323 364/364/364
f 323/323/323 322/322/322 364/364/364
f 322/322/322 320/320/320 364/364/364
f 364/364/364 320/320/320 365/365/365
f 320/320/320 318/318/318 365/365/365
f 318/318/318 316/316/316 365/365/365
f 365/365/365 316/316/316 366/366/366
f 316/316/316 315/315/315 366/366/366
f 315/315/315 367/367/367 366/366/366
f 368/368/368 366/366/366 369/369/369
f 366/366/366 367/367/367 369/369/369
f 369/369/369 367/367/367 370/370/370
f 370/370/370 367/367/367 371/371/371
f 371/371/371 367/367/367 372/372/372
f 367/367/367 315/315/315 372/372/372
f 372/372/372 315/315/315 373/373/373
f 315/315/315 317/317/317 373/373/373
f 373/373/373 317/317/317 374/374/374
f 317/317/317 319/319/319 374/374/374
f 374/374/374 319/319/319 375/375/375
f 319/319/319 321/321/321 375/375/375
f 375/375/375 321/321/321 376/376/376
f 321/321/321 324/324/324 376/376/376
f 376/376/376 324/324/324 377/377/377
f 324/324/324 325/325/325 377/377/377
f 325/325/325 327/327/327 377/377/377
f 377/377/377 327/327/327 378/378/378
f 327/327/327 330/330/330 378/378/378
f 378/378/378 330/330/330 379/379/379
f 330/330/330 332/332/332 379/379/379
f 379/379/379 332/332/332 380/380/380
f 332/332/332 333/333/333 380/380/380
f 380/380/380 333/333/333 381/381/381
f 333/333/333 334/334/334 381/381/381
f 381/381/381 334/334/334 382/382/382
f 334/334/334 335/335/335 382/382/382
f 382/382/382 335/335/335 383/383/383
f 335/335/335 336/336/336 383/383/383
f 383/383/383 336/336/336 384/384/384
f 336/336/336 337/337/337 384/384/384
f 384/384/384 337/337/337 385/385/385
f 385/385/385 337/337/337 386/386/386
f 337/337/337 338/338/338 386/386/386
f 386/386/386 338/338/338 387/387/387
f 338/338/338 339/339/339 387/387/387
f 387/387/387 339/339/339 388/388/388
f 339/339/339 340/340/340 388/388/388
f 388/388/388 340/340/340 389/389/389
f 340/340/340 341/341/341 389/389/389
f 389/389/389 341/341/341 390/390/390
f 341/341/341 342/342/342 390/390/390
f 390/390/390 342/342/342 391/391/391
f 342/342/342 343/343/343 391/391/391
f 343/343/343 344/344/344 391/391/391
f 391/391/391 344/344/344 392/392/392
f 392/392/392 344/344/344 393/393/393
f 344/344/344 345/345/345 393/393/393
f 345/345/345 346/346/346 393/393/393
f 393/393/393 346/346/346 394/394/394
f 346/346/346 347/347/347 394/394/394
f 394/394/394 347/347/347 395/395/395
f 347/347/347 348/348/348 395/395/395
f 395/395/395 348/348/348 396/396/396
f 348/348/348 349/349/349 396/396/396
f 396/396/396 349/349/349 397/397/397
f 349/349/349 350/350/350 397/397/397
f 397/397/397 350/350/350 398/398/398
f 350/350/350 351/351/351 398/398/398
f 398/398/398 351/351/351 399/399/399
f 399/399/399 351/351/351 400/400/400
f 351/351/351 352/352/352 400/400/400
f 400/400/400 352/352/352 401/401/401
f 352/352/352 353/353/353 401/401/401
f 401/401/401 353/353/353 402/402/402
f 353/353/353 354/354/354 402/402/402
f 402/402/402 354/354/354 403/403/403
f 403/403/403 354/354/354 404/404/404
f 354/354/354 355/355/355 404/404/404
f 404/404/404 355/355/355 405/405/405
f 355/355/355 356/356/356 405/405/405
f 405/405/405 356/356/356 406/406/406
f 356/356/356 357/357/357 406/406/406
f 406/406/406 357/357/357 407/407/407
f 357/357/357 358/358/358 407/407/407
f 358/358/358 359/359/359 407/407/407
f 407/407/407 359/359/359 408/408/408
f 359/359/359 360/360/360 408/408/408
f 408/408/408 360/360/360 409/409/409
f 360/360/360 361/361/361 409/409/409
f 409/409/409 361/361/361 410/410/410
f 361/361/361 362/362/362 410/410/410
f 410/410/410 362/362/362 411/411/411
f 362/362/362 363/363/363 411/411/411
f 363/363/363 364/364/364 411/411/411
f 411/411/411 364/364/364 412/412/412
f 412/412/412 364/364/364 413/413/413
f 364/364/364 365/365/365 413/413/413
f 365/365/365 366/366/366 413/413/413
f 413/413/413 366/366/366 414/414/414
f 366/366/366 368/368/368 414/414/414
f 414/414/414 368/368/368 415/415/415
f 415/415/415 368/368/368 416/416/416
f 368/368/368 369/369/369 416/416/416
f 416/416/416 369/369/369 417/417/417
f 369/369/369 370/370/370 417/417/417
f 417/417/417 370/370/370 418/418/418
f 418/418/418 370/370/370 419/419/419
f 370/370/370 371/371/371 419/419/419
f 419/419/419 371/371/371 420/420/420
f 420/420/420 371/371/371 421/421/421
f 371/371/371 372/372/372 421/421/421
f 421/421/421 372/372/372 422/422/422
f 372/372/372 373/373/373 422/422/422
f 373/373/373 374/374/374 422/422/422
f 422/422/422 374/374/374 423/423/423
f 374/374/374 375/375/375 423/423/423
f 423/423/423 375/375/375 424/424/424
f 375/375/375 376/376/376 424/424/424
f 424/424/424 376/376/376 425/425/425
f 376/376/376 377/377/377 425/425/425
f 425/425/425 377/377/377 426/426/426
f 377/377/377 378/378/378 426/426/426
f 426/426/426 378/378/378 427/427/427
f 378/378/378 379/379/379 427/427/427
f 427/427/427 379/379/379 428/428/428
f 379/379/379 380/380/380 428/428/428
f 428/428/428 380/380/380 429/429/429
f 380/380/380 381/381/381 429/429/429
f 429/429/429 381/381/381 430/430/430
f 381/381/381 382/382/382 430/430/430
f 430/430/430 382/382/382 431/431/431
f 431/431/431 382/382/382 432/432/432
f 382/382/382 383/383/383 432/432/432
f 432/432/432 383/383/383 433/433/433
f 383/383/383 384/384/384 433/433/433
f 384/384/384 385/385/385 433/433/433
f 433/433/433 385/385/385 434/434/434
f 434/434/434 385/385/385 435/435/435
f 385/385/385 386/386/386 435/435/435
f 435/435/435 386/386/386 436/436/436
f 386/386/386 387/387/387 436/436/436
f 387/387/387 388/388/388 436/436/436
f 436/436/436 388/388/388 437/437/437
f 388/388/388 389/389/389 437/437/437
f 437/437/437 389/389/389 438/438/438
f 389/389/389 390/390/390 438/438/438
f 438/438/438 390/390/390 439/439/439
f 439/439/439 390/390/390 440/440/440
f 390/390/390 391/391/391 440/440/440
f 440/440/440 391/391/391 441/441/441
f 391/391/391 392/392/392 441/441/441
f 392/392/392 393/393/393 441/441/441
f 441/441/441 393/393/393 442/442/442
f 393/393/393 394/394/394 442/442/442
f 442/442/442 394/394/394 443/443/443
f 443/443/443 394/394/394 444/444/444
f 394/394/394 395/395/395 444/444/444
f 444/444/444 395/395/395 445/445/445
f 395/395/395 396/396/396 445/445/445
f 445/445/445 396/396/396 446/446/446
f 396/396/396 397/397/397 446/446/446
f 397/397/397 398/398/398 446/446/446
f 446/446/446 398/398/398 447/447/447
f 398/398/398 399/399/399 447/447/447
f 447/447/447 399/399/399 448/448/448
f 448/448/448 399/399/399 449/449/449
f 399/399/399 400/400/400 449/449/449
f 400/400/400 401/401/401 449/449/449
f 449/449/449 401/401/401 450/450/450
f 401/401/401 402/402/402 450/450/450
f 450/450/450 402/402/402 451/451/451
f 451/451/451 402/402/402 452/452/452
f 402/402/402 403/403/403 452/452/452
f 452/452/452 403/403/403 453/453/453
f 454/454/454 453/453/453 455/455/455
f 453/453/453 403/403/403 455/455/455
f 403/403/403 404/404/404 455/455/455
f 455/455/455 404/404/404 456/456/456
f 404/404/404 405/405/405 456/456/456
f 456/456/456 405/405/405 457/457/457
f 405/405/405 406/406/406 457/457/457
f 457/457/457 406/406/406 458/458/458
f 406/406/406 407/407/407 458/458/458
f 407/407/407 408/408/408 458/458/458
f 458/458/458 408/408/408 459/459/459
f 408/408/408 409/409/409 459/459/459
f 459/459/459 409/409/409 460/460/460
f 409/409/409 410/410/410 460/460/460
f 460/460/460 410/410/410 461/461/461
f 410/410/410 411/411/411 461/461/461
f 461/461/461 411/411/411 462/462/462
f 462/462/462 411/411/411 463/463/463
f 411/411/411 412/412/412 463/463/463
f 412/412/412 413/413/413 463/463/463
f 413/413/413 414/414/414 463/463/463
f 464/464/464 463/463/463 465/465/465
f 463/463/463 414/414/414 465/465/465
f 414/414/414 415/415/415 465/465/465
f 465/465/465 415/415/415 466/466/466
f 415/415/415 416/416/416 466/466/466
f 466/466/466 416/416/416 467/467/467
f 416/416/416 417/417/417 467/467/467
f 417/417/417 418/418/418 467/467/467
f 467/467/467 418/418/418 468/468/468
f 469/469/469 468/468/468 470/470/470
f 468/468/468 418/418/418 470/470/470
f 470/470/470 418/418/418 471/471/471
f 418/418/418 419/419/419 471/471/471
f 419/419/419 420/420/420 471/471/471
f 471/471/471 420/420/420 472/472/472
f 472/472/472 420/420/420 473/473/473
f 420/420/420 421/421/421 473/473/473
f 421/421/421 422/422/422 473/473/473
f 473/473/473 422/422/422 474/474/474
f 422/422/422 423/423/423 474/474/474
f 474/474/474 423/423/423 475/475/475
f 423/423/423 424/424/424 475/475/475
f 475/475/475 424/424/424 476/476/476
f 424/424/424 425/425/425 476/476/476
f 476/476/476 425/425/425 477/477/477
f 425/425/425 426/426/426 477/477/477
f 477/477/477 426/426/426 478/478/478
f 426/426/426 427/427/427 478/478/478
f 478/478/478 427/427/427 479/479/479
f 427/427/427 428/428/428 479/479/479
f 479/479/479 428/428/428 480/480/480
f 428/428/428 429/429/429 480/480/480
f 480/480/480 429/429/429 481/481/481
f 429/429/429 430/430/430 481/481/481
f 481/481/481 430/430/430 482/482/482
f 430/430/430 431/431/431 482/482/482
f 482/482/482 431/431/431 483/483/483
f 483/483/483 431/431/431 484/484/484
f 431/431/431 432/432/432 484/484/484
f 484/484/484 432/432/432 485/485/485
f 432/432/432 433/433/433 485/485/485
f 433/433/433 434/434/434 485/485/485
f 485/485/485 434/434/434 486/486/486
f 434/434/434 435/435/435 486/486/486
f 486/486/486 435/435/435 487/487/487
f 435/435/435 436/436/436 487/487/487
f 487/487/487 436/436/436 488/488/488
f 436/436/436 437/437/437 488/488/488
f 488/488/488 437/437/437 489/489/489
f 437/437/437 438/438/438 489/489/489
f 489/489/489 438/438/438 490/490/490
f 438/438/438 439/439/439 490/490/490
f 490/490/490 439/439/439 491/491/491
f 491/491/491 439/439/439 492/492/492
f 439/439/439 440/440/440 492/492/492
f 492/492/492 440/440/440 493/493/493
f 440/440/440 441/441/441 493/493/493
f 441/441/441 442/442/442 493/493/493
f 493/493/493 442/442/442 494/494/494
f 442/442/442 443/443/443 494/494/494
f 494/494/494 443/443/443 495/495/495
f 495/495/495 443/443/443 496/496/496
f 443/443/443 444/444/444 496/496/496
f 496/496/496 444/444/444 497/497/497
f 444/444/444 445/445/445 497/497/497
f 497/497/497 445/445/445 498/498/498
f 445/445/445 446/446/446 498/498/498
f 498/498/498 446/446/446 499/499/499
f 446/446/446 447/447/447 499/499/499
f 499/499/499 447/447/447 500/500/500
f 447/447/447 448/448/448 500/500/500
f 500/500/500 448/448/448 501/501/501
f 448/448/448 449/449/449 501/501/501
f 449/449/449 450/450/450 501/501/501
f 501/501/501 450/450/450 502/502/502
f 450/450/450 451/451/451 502/502/502
f 502/502/502 451/451/451 503/503/503
f 503/503/503 451/451/451 504/504/504
f 451/451/451 452/452/452 504/504/504
f 504/504/504 452/452/452 505/505/505
f 452/452/452 453/453/453 505/505/505
f 505/505/505 453/453/453 506/506/506
f 453/453/453 454/454/454 506/506/506
f 506/506/506 454/454/454 507/507/507
f 508/508/508 507/507/507 509/509/509
f 507/507/507 454/454/454 509/509/509
f 509/509/509 454/454/454 510/510/510
f 454/454/454 455/455/455 510/510/510
f 455/455/455 456/456/456 510/510/510
f 510/510/510 456/456/456 511/511/511
f 456/456/456 457/457/457 511/511/511
f 511/511/511 457/457/457 512/512/512
f 457/457/457 458/458/458 512/512/512
f 458/458/458 459/459/459 512/512/512
f 512/512/512 459/459/459 513/513/513
f 459/459/459 460/460/460 513/513/513
f 460/460/460 461/461/461 513/513/513
f 513/513/513 461/461/461 514/514/514
f 461/461/461 462/462/462 514/514/514
f 514/514/514 462/462/462 515/515/515
f 462/462/462 463/463/463 515/515/515
f 463/463/463 464/464/464 515/515/515
f 515/515/515 464/464/464 516/516/516
f 464/464/464 465/465/465 516/516/516
f 465/465/465 466/466/466 516/516/516
f 516/516/516 466/466/466 517/517/517
f 466/466/466 467/467/467 517/517/517
f 467/467/467 468/468/468 517/517/517
f 517/517/517 468/468/468 518/518/518
f 468/468/468 469/469/469 518/518/518
f 469/469/469 519/519/519 518/518/518
f 518/518/518 519/519/519 520/520/520
f 519/519/519 521/521/521 520/520/520
f 520/520/520 521/521/521 522/522/522
f 521/521/521 508/508/508 522/522/522
f 508/508/508 509/509/509 522/522/522
f 522/522/522 509/509/509 523/523/523
f 509/509/509 510/510/510 523/523/523
f 510/510/510 511/511/511 523/523/523
f 523/523/523 511/511/511 524/524/524
f 511/511/511 512/512/512 524/524/524
f 512/512/512 513/513/513 524/524/524
f 513/513/513 514/514/514 524/524/524
f 524/524/524 514/514/514 525/525/525
f 514/514/514 515/515/515 525/525/525
f 525/525/525 515/515/515 526/526/526
f 515/515/515 516/516/516 526/526/526
f 526/526/526 516/516/516 527/527/527
f 516/516/516 517/517/517 527/527/527
f 517/517/517 518/518/518 527/527/527
f 518/518/518 520/520/520 527/527/527
f 527/527/527 520/520/520 528/528/528
f 520/520/520 522/522/522 528/528/528
f 522/522/522 523/523/523 528/528/528
f 523/523/523 524/524/524 528/528/528
f 524/524/524 525/525/525 528/528/528
f 525/525/525 526/526/526 528/528/528
f 527/527/527 528/528/528 526/526/526

