mtllib upperarm.mtl
usemtl Metal_Alu_Brushed.001
v 0.05585484 0.08907372 0.21986519
v 0.05654949 0.08876979 0.19138639
v 0.05928443 0.10040443 0.21986519
v 0.06002248 0.10027414 0.19138639
v 0.06045662 0.11221264 0.21986519
v 0.06119465 0.11221264 0.19138639
v 0.05928443 0.12397744 0.21986519
v 0.06002247 0.12415114 0.19138639
v 0.05585484 0.13535152 0.21986519
v 0.05654949 0.13561213 0.19138639
v 0.05025463 0.14577062 0.21986519
v 0.05086244 0.14620473 0.19138639
v 0.04274426 0.15493064 0.21986519
v 0.04326522 0.15545163 0.19138639
v 0.03358416 0.16248442 0.21986517
v 0.03401833 0.16309223 0.19138637
v 0.02312170 0.16804133 0.21986517
v 0.02342563 0.16873594 0.19138637
v 0.01179103 0.17151433 0.21986516
v 0.01192128 0.17220894 0.19138636
v -0.00001720 0.17264304 0.21986516
v -0.00001719 0.17338103 0.19138636
v -0.01178200 0.17151433 0.21986516
v -0.01195561 0.17220894 0.19138636
v -0.02315611 0.16804133 0.21986514
v -0.02341657 0.16873594 0.19138634
v -0.03357512 0.16248442 0.21986514
v -0.03400927 0.16309223 0.19138634
v -0.04273522 0.15493064 0.21986513
v -0.04325616 0.15545163 0.19138633
v -0.05028904 0.14577062 0.21986513
v -0.05089682 0.14620473 0.19138633
v -0.05584586 0.13535152 0.21986513
v -0.05654043 0.13561213 0.19138633
v -0.05931885 0.12397742 0.21986513
v -0.06001347 0.12415113 0.19138633
v -0.06044758 0.11221262 0.21986513
v -0.06118559 0.11221262 0.19138633
v -0.05931885 0.10040442 0.21986513
v -0.05584586 0.08907370 0.21986513
v -0.06001346 0.10027412 0.19138633
v -0.06261817 0.11221262 0.17172043
v -0.06144606 0.12441162 0.17172043
v -0.05784284 0.13617642 0.17172043
v -0.05206892 0.14698623 0.17172043
v -0.04429804 0.15649353 0.17172043
v -0.03479068 0.16426443 0.17172044
v -0.02398096 0.17003833 0.17172044
v -0.01221608 0.17364153 0.17172046
v -0.00001718 0.17481373 0.17172046
v 0.01222516 0.17364153 0.17172046
v 0.02394659 0.17003833 0.17172048
v 0.03479976 0.16426443 0.17172048
v 0.04426372 0.15649353 0.17172049
v 0.05207796 0.14698623 0.17172049
v 0.05785187 0.13617642 0.17172049
v 0.06141169 0.12441164 0.17172049
v 0.06262727 0.11221264 0.17172049
v 0.06141169 0.09997029 0.17172049
v 0.05785187 0.08824885 0.17172049
v 0.05207796 0.07739568 0.17172049
v 0.05086244 0.07817709 0.19138639
v 0.05025463 0.07861125 0.21986519
v 0.05021091 0.07865465 0.81644183
v 0.05021091 0.07865465 0.81644183
v 0.05021091 0.07865465 0.81644183
v 0.05581113 0.08907372 0.81644189
v 0.05581113 0.08907372 0.81644189
v 0.05924072 0.10040443 0.81644189
v 0.05924072 0.10040443 0.81644189
v 0.06041285 0.11221264 0.81644189
v 0.06041285 0.11221264 0.81644189
v 0.05924072 0.12397744 0.81644189
v 0.05924072 0.12397744 0.81644189
v 0.05924072 0.12397744 0.81644189
v 0.05581113 0.13530813 0.81644189
v 0.05581113 0.13530813 0.81644189
v 0.05581113 0.13530813 0.81644189
v 0.05021091 0.14577062 0.81644183
v 0.05021091 0.14577062 0.81644183
v 0.04270048 0.15488723 0.81644183
v 0.04270048 0.15488723 0.81644183
v 0.03354045 0.16239773 0.81644183
v 0.03354045 0.16239773 0.81644183
v 0.02312138 0.16799793 0.81644183
v 0.02312138 0.16799793 0.81644183
v 0.01179071 0.17142753 0.81644183
v 0.01179071 0.17142753 0.81644183
v -0.00001752 0.17259963 0.81644183
v -0.00001752 0.17259963 0.81644183
v -0.01178232 0.17142753 0.81644183
v -0.01178232 0.17142753 0.81644183
v -0.02311304 0.16799793 0.81644183
v -0.02311304 0.16799793 0.81644183
v -0.03357545 0.16239773 0.81644183
v -0.03357545 0.16239773 0.81644183
v -0.04269215 0.15488723 0.81644183
v -0.04269215 0.15488723 0.81644183
v -0.04269215 0.15488723 0.81644183
v -0.05020252 0.14577062 0.81644183
v -0.05020252 0.14577062 0.81644183
v -0.05020252 0.14577062 0.81644183
v -0.05580273 0.13530813 0.81644177
v -0.05580273 0.13530813 0.81644177
v -0.05580273 0.13530813 0.81644177
v -0.05923232 0.12397742 0.81644177
v -0.05923232 0.12397742 0.81644177
v -0.05923232 0.12397742 0.81644177
v -0.06040451 0.11221262 0.81644177
v -0.06040451 0.11221262 0.81644177
v -0.05923232 0.10040442 0.81644177
v -0.05923232 0.10040442 0.81644177
v -0.05580273 0.08907370 0.81644177
v -0.05580273 0.08907370 0.81644177
v -0.05020252 0.07865463 0.81644183
v -0.05020252 0.07865463 0.81644183
v -0.04269215 0.06949459 0.81644183
v -0.04269215 0.06949459 0.81644183
v -0.04269215 0.06949459 0.81644183
v -0.05028903 0.07861124 0.21986513
v -0.05654042 0.08876978 0.19138633
v -0.06144605 0.09997027 0.17172043
v -0.06500586 0.09927563 0.15248862
v -0.06630823 0.11221262 0.15248862
v -0.06500586 0.12514962 0.15248862
v -0.06127241 0.13756563 0.15248862
v -0.05510780 0.14902663 0.15248862
v -0.04690281 0.15909822 0.15248862
v -0.03683106 0.16730323 0.15248863
v -0.02537010 0.17346793 0.15248863
v -0.01295409 0.17720143 0.15248865
v -0.00001717 0.17850374 0.15248865
v 0.01291980 0.17720143 0.15248865
v 0.02537920 0.17346793 0.15248866
v 0.03684016 0.16730323 0.15248866
v 0.04686846 0.15909822 0.15248868
v 0.05511692 0.14902663 0.15248868
v 0.06123807 0.13756563 0.15248868
v 0.06501498 0.12514962 0.15248868
v 0.06631734 0.11221264 0.15248868
v 0.06501498 0.09927565 0.15248868
v 0.06123807 0.08681626 0.15248868
v 0.05511692 0.07535530 0.15248868
v 0.04426373 0.06793172 0.17172049
v 0.04326523 0.06893021 0.19138639
v 0.04274426 0.06945116 0.21986519
v 0.04270049 0.06949461 0.81644183
v 0.04270049 0.06949461 0.81644183
v 0.04270049 0.06949461 0.81644183
v -0.00001752 0.11221263 0.81644183
v -0.00001752 0.11221263 0.81644183
v -0.00001752 0.11221263 0.81644183
v -0.00001752 0.11221263 0.81644183
v -0.00001752 0.11221263 0.81644183
v -0.00001752 0.11221263 0.81644183
v -0.00001752 0.11221263 0.81644183
v -0.00001752 0.11221263 0.81644183
v -0.00001752 0.11221263 0.81644183
v -0.03357543 0.06198417 0.81644183
v -0.03357543 0.06198417 0.81644183
v -0.03357543 0.06198417 0.81644183
v -0.04273522 0.06945115 0.21986513
v -0.05089681 0.07817708 0.19138633
v -0.05784283 0.08824883 0.17172043
v -0.06127241 0.08681624 0.15248862
v -0.06235768 0.07053648 0.12934962
v -0.06235768 0.07053648 0.12934962
v -0.06930371 0.08347343 0.12934962
v -0.06930371 0.08347343 0.12934962
v -0.07355817 0.09758256 0.12934960
v -0.07355817 0.09758256 0.12934960
v -0.07499076 0.11221262 0.12934960
v -0.07499076 0.11221262 0.12934960
v -0.07355817 0.12684272 0.12934960
v -0.07355817 0.12684272 0.12934960
v -0.06930371 0.14090833 0.12934962
v -0.06930371 0.14090833 0.12934962
v -0.06235769 0.15384533 0.12934962
v -0.06235769 0.15384533 0.12934962
v -0.05302396 0.16521953 0.12934962
v -0.05302396 0.16521953 0.12934962
v -0.04164984 0.17455323 0.12934963
v -0.04164984 0.17455323 0.12934963
v -0.02871289 0.18149923 0.12934963
v -0.02871289 0.18149923 0.12934963
v -0.01464720 0.18575363 0.12934963
v -0.01464720 0.18575363 0.12934963
v -0.00001715 0.18718633 0.12934965
v -0.00001715 0.18718633 0.12934965
v 0.01461289 0.18575363 0.12934966
v 0.01461289 0.18575363 0.12934966
v 0.02872201 0.18149923 0.12934966
v 0.02872201 0.18149923 0.12934966
v 0.04165896 0.17455323 0.12934966
v 0.04165896 0.17455323 0.12934966
v 0.05303308 0.16521953 0.12934968
v 0.05303308 0.16521953 0.12934968
v 0.06236681 0.15384533 0.12934968
v 0.06236681 0.15384533 0.12934968
v 0.06926945 0.14090833 0.12934968
v 0.06926945 0.14090833 0.12934968
v 0.07356732 0.12684272 0.12934969
v 0.07356732 0.12684272 0.12934969
v 0.07499991 0.11221264 0.12934969
v 0.07499991 0.11221264 0.12934969
v 0.07356732 0.09758258 0.12934969
v 0.07356732 0.09758258 0.12934969
v 0.06926946 0.08347344 0.12934968
v 0.06926946 0.08347344 0.12934968
v 0.06236682 0.07053649 0.12934968
v 0.06236682 0.07053649 0.12934968
v 0.05303309 0.05916237 0.12934968
v 0.05303309 0.05916237 0.12934968
v 0.04686847 0.06532699 0.15248868
v 0.03479977 0.06011742 0.17172048
v 0.03401834 0.06133300 0.19138637
v 0.03358417 0.06194078 0.21986517
v 0.03354046 0.06198418 0.81644183
v 0.03354046 0.06198418 0.81644183
v 0.03354046 0.06198418 0.81644183
v 0.02312139 0.05638396 0.81644183
v 0.02312139 0.05638396 0.81644183
v 0.02312139 0.05638396 0.81644183
v 0.01179072 0.05295436 0.81644183
v 0.01179072 0.05295436 0.81644183
v -0.00001751 0.05178219 0.81644183
v -0.00001751 0.05178219 0.81644183
v -0.00001751 0.05178219 0.81644183
v -0.01178231 0.05295436 0.81644183
v -0.01178231 0.05295436 0.81644183
v -0.02311303 0.05638395 0.81644183
v -0.02311303 0.05638395 0.81644183
v -0.02311303 0.05638395 0.81644183
v -0.03357511 0.06194077 0.21986514
v -0.04325615 0.06893019 0.19138633
v -0.05206892 0.07739566 0.17172043
v -0.05510780 0.07535528 0.15248862
v -0.05302395 0.05916236 0.12934962
v -0.05302395 0.05916236 0.12934962
v -0.05302393 0.05916236 0.10521223
v -0.05302393 0.05916236 0.10521223
v -0.06235766 0.07053648 0.10521223
v -0.06235766 0.07053648 0.10521223
v -0.06930370 0.08347343 0.10521222
v -0.06930370 0.08347343 0.10521222
v -0.07355816 0.09758256 0.10521222
v -0.07355816 0.09758256 0.10521222
v -0.07499075 0.11221262 0.10521222
v -0.07499075 0.11221262 0.10521222
v -0.07355816 0.12684272 0.10521222
v -0.07355816 0.12684272 0.10521222
v -0.06930371 0.14090833 0.10521222
v -0.06930371 0.14090833 0.10521222
v -0.06235767 0.15384533 0.10521223
v -0.06235767 0.15384533 0.10521223
v -0.05302394 0.16521953 0.10521223
v -0.05302394 0.16521953 0.10521223
v -0.05302394 0.16521953 0.10521223
v -0.04164982 0.17455323 0.10521223
v -0.04164982 0.17455323 0.10521223
v -0.04164982 0.17455323 0.10521223
v -0.02871287 0.18149923 0.10521224
v -0.02871287 0.18149923 0.10521224
v -0.02871287 0.18149923 0.10521224
v -0.01464719 0.18575363 0.10521225
v -0.01464719 0.18575363 0.10521225
v -0.00001714 0.18718633 0.10521226
v -0.00001714 0.18718633 0.10521226
v 0.01461290 0.18575363 0.10521226
v 0.01461290 0.18575363 0.10521226
v 0.02872203 0.18149923 0.10521227
v 0.02872203 0.18149923 0.10521227
v 0.02872203 0.18149923 0.10521227
v 0.04165898 0.17455323 0.10521228
v 0.04165898 0.17455323 0.10521228
v 0.04165898 0.17455323 0.10521228
v 0.05303310 0.16521953 0.10521229
v 0.05303310 0.16521953 0.10521229
v 0.05303310 0.16521953 0.10521229
v 0.06236683 0.15384533 0.10521229
v 0.06236683 0.15384533 0.10521229
v 0.06926946 0.14090833 0.10521229
v 0.06926946 0.14090833 0.10521229
v 0.06926946 0.14090833 0.10521229
v 0.07356732 0.12684272 0.10521229
v 0.07356732 0.12684272 0.10521229
v 0.07356732 0.12684272 0.10521229
v 0.07499991 0.11221264 0.10521229
v 0.07499991 0.11221264 0.10521229
v 0.07356732 0.09758258 0.10521229
v 0.07356732 0.09758258 0.10521229
v 0.06926946 0.08347344 0.10521229
v 0.06926946 0.08347344 0.10521229
v 0.06236684 0.07053649 0.10521229
v 0.06236684 0.07053649 0.10521229
v 0.05303311 0.05916237 0.10521229
v 0.05303311 0.05916237 0.10521229
v 0.04165899 0.04982864 0.10521228
v 0.04165899 0.04982864 0.10521228
v 0.02872204 0.04292601 0.10521227
v 0.02872204 0.04292601 0.10521227
v 0.02872204 0.04292601 0.10521227
v 0.04165898 0.04982864 0.12934966
v 0.04165898 0.04982864 0.12934966
v 0.03684017 0.05707854 0.15248866
v 0.02394660 0.05434358 0.17172048
v 0.02342564 0.05564594 0.19138637
v 0.02312171 0.05634057 0.21986517
v 0.01179104 0.05291092 0.21986516
v -0.00001719 0.05173879 0.21986516
v -0.00001719 0.05173879 0.21986516
v -0.01178199 0.05291092 0.21986516
v -0.02315610 0.05634056 0.21986514
v -0.03400926 0.06133299 0.19138634
v -0.04429803 0.06793170 0.17172043
v -0.04690280 0.06532697 0.15248862
v -0.04164983 0.04982863 0.12934963
v -0.04164983 0.04982863 0.12934963
v -0.04164981 0.04982863 0.10521223
v -0.04164981 0.04982863 0.10521223
v -0.00001714 0.11221263 0.10521226
v -0.00001714 0.11221263 0.10521226
v -0.00001714 0.11221263 0.10521226
v -0.00001714 0.11221263 0.10521226
v -0.00001714 0.11221263 0.10521226
v -0.00001714 0.11221263 0.10521226
v -0.00001714 0.11221263 0.10521226
v -0.00001714 0.11221263 0.10521226
v -0.00001714 0.11221263 0.10521226
v 0.01461291 0.03862816 0.10521226
v 0.01461291 0.03862816 0.10521226
v 0.01461291 0.03862816 0.10521226
v 0.02872203 0.04292601 0.12934966
v 0.02872203 0.04292601 0.12934966
v 0.02537921 0.05095738 0.15248866
v 0.01222517 0.05078375 0.17172046
v 0.01192129 0.05217295 0.19138636
v -0.00001718 0.05100077 0.19138636
v -0.00001718 0.05100077 0.19138636
v -0.01195560 0.05217295 0.19138636
v -0.02341656 0.05564593 0.19138634
v -0.03479067 0.06011741 0.17172044
v -0.03683105 0.05707853 0.15248863
v -0.02871287 0.04292600 0.12934963
v -0.02871287 0.04292600 0.12934963
v -0.02871286 0.04292600 0.10521224
v -0.02871286 0.04292600 0.10521224
v -0.01464718 0.03862816 0.10521225
v -0.01464718 0.03862816 0.10521225
v -0.01464718 0.03862816 0.10521225
v -0.00001713 0.03719556 0.10521226
v -0.00001713 0.03719556 0.10521226
v -0.00001713 0.03719556 0.10521226
v -0.00001713 0.03719556 0.10521226
v 0.01461290 0.03862816 0.12934966
v 0.01461290 0.03862816 0.12934966
v 0.01291981 0.04718047 0.15248865
v -0.00001717 0.04956817 0.17172046
v -0.00001717 0.04956817 0.17172046
v -0.01221607 0.05078375 0.17172046
v -0.02398095 0.05434357 0.17172044
v -0.02537009 0.05095737 0.15248863
v -0.01464719 0.03862816 0.12934963
v -0.01464719 0.03862816 0.12934963
v -0.00001714 0.03719556 0.12934965
v -0.00001714 0.03719556 0.12934965
v -0.00001714 0.03719556 0.12934965
v -0.00001714 0.03719556 0.12934965
v -0.00001715 0.04587810 0.15248865
v -0.00001715 0.04587810 0.15248865
v -0.01295408 0.04718047 0.15248865
vn 0.92377865 -0.38269761 0.01325073
vn 0.92265636 -0.38248631 0.04908897
vn 0.98068011 -0.19519141 0.01292090
vn 0.97960353 -0.19487381 0.04900179
vn 0.99991441 0.00025114 0.01308614
vn 0.99878073 -0.00001021 0.04936725
vn 0.98066539 0.19527829 0.01272844
vn 0.97963429 0.19465429 0.04926031
vn 0.92363095 0.38305679 0.01317229
vn 0.92249626 0.38287318 0.04908264
vn 0.83142877 0.55549139 0.01247999
vn 0.83015692 0.55535823 0.04915949
vn 0.70701027 0.70709276 0.01250549
vn 0.70557731 0.70696425 0.04860266
vn 0.55536467 0.83151126 0.01261604
vn 0.55545443 0.83008283 0.04932517
vn 0.38281760 0.92372876 0.01326385
vn 0.38259259 0.92261714 0.04899795
vn 0.19517371 0.98068511 0.01280311
vn 0.19460668 0.97964752 0.04918306
vn -0.00002449 0.99991798 0.01281547
vn -0.00007658 0.99877721 0.04943776
vn -0.19516069 0.98068792 0.01279886
vn -0.19458032 0.97963619 0.04951371
vn -0.38298050 0.92366612 0.01291128
vn -0.38266072 0.92259312 0.04891488
vn -0.55539608 0.83149391 0.01237666
vn -0.55523163 0.83024394 0.04912191
vn -0.70701724 0.70708412 0.01259753
vn -0.70553458 0.70701146 0.04853699
vn -0.83149713 0.55538964 0.01245256
vn -0.83020687 0.55531192 0.04883852
vn -0.92362857 0.38306421 0.01311639
vn -0.92265123 0.38251191 0.04898236
vn -0.98080528 0.19457032 0.01278204
vn -0.97960460 0.19476061 0.04942812
vn -0.99991751 0.00030300 0.01284235
vn -0.99878043 -0.00002324 0.04937487
vn -0.98067278 -0.19524409 0.01267034
vn -0.92373002 -0.38282508 0.01294676
vn -0.97959060 -0.19491769 0.04908551
vn -0.99143016 -0.00014437 0.13063817
vn -0.97223866 0.19406880 0.13072668
vn -0.91595542 0.37926820 0.13107791
vn -0.82452363 0.55048907 0.13085385
vn -0.70096231 0.70113415 0.13062523
vn -0.55055285 0.82446516 0.13095330
vn -0.37927276 0.91596526 0.13099589
vn -0.19375256 0.97231728 0.13061100
vn -0.00017924 0.99142891 0.13064709
vn 0.19405644 0.97226018 0.13058470
vn 0.37913925 0.91603208 0.13091531
vn 0.55060071 0.82441527 0.13106640
vn 0.70089310 0.70116139 0.13084997
vn 0.82431507 0.55077457 0.13096595
vn 0.91601926 0.37919399 0.13084680
vn 0.97235262 0.19375649 0.13034202
vn 0.99138224 0.00014603 0.13100153
vn 0.97224104 -0.19407190 0.13070463
vn 0.91600788 -0.37917602 0.13097858
vn 0.82436448 -0.55069482 0.13099034
vn 0.83014584 -0.55537492 0.04915818
vn 0.83146846 -0.55542844 0.01264235
vn 0.83095324 -0.55634236 0.00010140
vn -0.00000577 -0.00000000 1.00000000
vn -0.00000054 -0.00000000 1.00000000
vn 0.92355478 -0.38346660 0.00008480
vn -0.00000054 -0.00000000 1.00000000
vn 0.98076981 -0.19516821 0.00007190
vn -0.00000054 -0.00000000 1.00000000
vn -0.00000054 -0.00000000 1.00000000
vn 1.00000000 0.00018157 0.00007331
vn -0.00000054 -0.00000000 1.00000000
vn 0.00000470 0.00000000 1.00000000
vn 0.98073453 0.19534619 0.00007190
vn -0.00000054 -0.00000000 1.00000000
vn 0.00000470 0.00000000 1.00000000
vn 0.92388672 0.38266620 0.00008512
vn 0.83116233 0.55602986 0.00000533
vn -0.00000054 -0.00000000 1.00000000
vn -0.00000054 -0.00000000 1.00000000
vn 0.70629334 0.70791924 0.00008032
vn 0.55635911 0.83094197 0.00013374
vn -0.00000054 -0.00000000 1.00000000
vn -0.00000054 -0.00000000 1.00000000
vn 0.38344711 0.92356288 0.00011624
vn -0.00000054 -0.00000000 1.00000000
vn 0.19519141 0.98076522 0.00010824
vn -0.00000054 -0.00000000 1.00000000
vn -0.00020408 1.00000000 0.00010868
vn -0.19532409 0.98073882 0.00010673
vn -0.00000054 -0.00000000 1.00000000
vn -0.38268578 0.92387855 0.00011896
vn -0.00000054 -0.00000000 1.00000000
vn -0.55618334 0.83105951 0.00001654
vn -0.00000054 -0.00000000 1.00000000
vn 0.00000471 0.00000000 1.00000000
vn -0.00000054 -0.00000000 1.00000000
vn -0.70641357 0.70779932 0.00000068
vn 0.00000471 0.00000000 1.00000000
vn -0.83078146 0.55659884 0.00011556
vn -0.00000054 -0.00000000 1.00000000
vn -0.00000316 -0.00000000 1.00000000
vn -0.92370313 0.38310900 -0.00000212
vn -0.00000054 -0.00000000 1.00000000
vn -0.00000054 -0.00000000 1.00000000
vn -0.98073113 0.19536302 0.00011811
vn -0.00000316 -0.00000000 1.00000000
vn -1.00000000 0.00015864 0.00010816
vn -0.00000054 -0.00000000 1.00000000
vn -0.98077410 -0.19514678 0.00010629
vn -0.00000054 -0.00000000 1.00000000
vn -0.92354244 -0.38349619 0.00010126
vn -0.00000054 -0.00000000 1.00000000
vn -0.83096975 -0.55631769 0.00011209
vn -0.00000054 -0.00000000 1.00000000
vn -0.70641744 -0.70779544 0.00000065
vn -0.00000972 -0.00000000 1.00000000
vn -0.00000054 -0.00000000 1.00000000
vn -0.83157355 -0.55527675 0.01237883
vn -0.92269367 -0.38240448 0.04902336
vn -0.97233117 -0.19367629 0.13061997
vn -0.94391054 -0.18778829 0.27160358
vn -0.96240050 -0.00003918 0.27163428
vn -0.94390833 0.18810771 0.27139008
vn -0.88929719 0.36762631 0.27203202
vn -0.79952830 0.53560686 0.27180868
vn -0.67979258 0.68138003 0.27129933
vn -0.53387636 0.80074316 0.27163640
vn -0.36780384 0.88921976 0.27204549
vn -0.18786214 0.94388241 0.27165040
vn -0.00002251 0.96244657 0.27147090
vn 0.18810546 0.94385362 0.27158228
vn 0.36768326 0.88926148 0.27207190
vn 0.53388614 0.80074006 0.27162710
vn 0.67978042 0.68139917 0.27128187
vn 0.79960585 0.53553385 0.27172461
vn 0.88927764 0.36770120 0.27199489
vn 0.94388640 0.18790770 0.27160519
vn 0.96247381 -0.00000791 0.27137461
vn 0.94382787 -0.18802331 0.27172840
vn 0.88923806 -0.36771142 0.27211058
vn 0.79967654 -0.53531945 0.27193862
vn 0.70132399 -0.70077694 0.13059998
vn 0.70564175 -0.70689726 0.04864241
vn 0.70701587 -0.70708734 0.01249869
vn 0.70651495 -0.70769817 0.00001630
vn -0.00000577 -0.00000000 1.00000000
vn 0.00000993 0.00000000 1.00000000
vn -0.00000577 -0.00000000 1.00000000
vn 0.00000470 0.00000000 1.00000000
vn -0.00000316 -0.00000000 1.00000000
vn -0.00000972 -0.00000000 1.00000000
vn 0.00000599 0.00000000 1.00000000
vn -0.00001101 -0.00000000 1.00000000
vn 0.00000993 0.00000000 1.00000000
vn 0.00000471 0.00000000 1.00000000
vn -0.00000054 -0.00000000 1.00000000
vn 0.00000599 0.00000000 1.00000000
vn -0.00000972 -0.00000000 1.00000000
vn -0.55629826 -0.83098269 0.00002483
vn -0.70705074 -0.70705187 0.01252541
vn -0.83017814 -0.55533487 0.04906841
vn -0.91594380 -0.37932810 0.13098521
vn -0.88925767 -0.36772609 0.27202642
vn -0.77887285 -0.51934946 0.35161528
vn -0.83096212 -0.55632895 -0.00000045
vn -0.86500424 -0.35862228 0.35093841
vn -0.92383933 -0.38278049 -0.00000050
vn -0.91826809 -0.18158558 0.35186699
vn -0.98072982 -0.19536980 -0.00000053
vn -0.93627006 0.00005576 0.35128099
vn -1.00000000 -0.00000009 -0.00000054
vn -0.98072422 0.19539721 -0.00000053
vn -0.91819960 0.18165043 0.35201231
vn -0.86498714 0.35859781 0.35100582
vn -0.92367613 0.38317421 -0.00000050
vn -0.83096248 0.55632842 -0.00000045
vn -0.77885765 0.51939046 0.35158849
vn -0.70661366 0.70759964 -0.00000038
vn -0.66179901 0.66180605 0.35218594
vn -0.51936442 0.77887845 0.35158092
vn -0.55632907 0.83096212 -0.00000030
vn -0.35859588 0.86498892 0.35100311
vn -0.38317448 0.92367595 -0.00000021
vn -0.18309456 0.91781139 0.35227642
vn -0.19539750 0.98072422 -0.00000010
vn 0.00020715 0.93620038 0.35146669
vn -0.00000009 1.00000000 0.00000000
vn 0.18313064 0.91779733 0.35229447
vn 0.19532082 0.98073941 0.00000010
vn 0.38310271 0.92370576 0.00000021
vn 0.35859454 0.86498886 0.35100457
vn 0.55632865 0.83096236 0.00000030
vn 0.51936465 0.77886158 0.35161787
vn 0.70781082 0.70640206 0.00000038
vn 0.66181296 0.66179913 0.35217276
vn 0.83141017 0.55565917 0.00000045
vn 0.77892178 0.51928663 0.35159981
vn 0.92363465 0.38327420 0.00000050
vn 0.86500764 0.35859680 0.35095608
vn 0.91820735 0.18162307 0.35200649
vn 0.98064268 0.19580568 0.00000053
vn 1.00000000 0.00000061 0.00000054
vn 0.93624043 -0.00010949 0.35136032
vn 0.98072702 -0.19538321 0.00000053
vn 0.91820884 -0.18161152 0.35200840
vn 0.86499089 -0.35859612 0.35099858
vn 0.92379957 -0.38287672 0.00000050
vn 0.83129984 -0.55582446 0.00000045
vn 0.77880108 -0.51938176 0.35172671
vn 0.66185999 -0.66163397 0.35239476
vn 0.70640194 -0.70781094 0.00000038
vn 0.67979342 -0.68137693 0.27130514
vn 0.55062950 -0.82440877 0.13098650
vn 0.55560678 -0.82997864 0.04936236
vn 0.55537534 -0.83150524 0.01254308
vn 0.55633259 -0.83095986 0.00008416
vn -0.00001101 -0.00000000 1.00000000
vn 0.00000993 0.00000000 1.00000000
vn -0.00000054 -0.00000000 1.00000000
vn -0.00001101 -0.00000000 1.00000000
vn 0.38347578 -0.92355096 0.00006742
vn 0.19516769 -0.98076999 0.00007148
vn -0.00000054 -0.00000000 1.00000000
vn 0.00004368 -1.00000000 -0.00000319
vn -0.00002279 -1.00000000 -0.00000347
vn -0.00000054 -0.00000000 1.00000000
vn -0.19533960 -0.98073572 0.00008173
vn -0.00000054 -0.00000000 1.00000000
vn 0.00000599 0.00000000 1.00000000
vn -0.38299561 -0.92375028 0.00000482
vn -0.00000054 -0.00000000 1.00000000
vn -0.55549061 -0.83142948 0.01246857
vn -0.70552021 -0.70702118 0.04860363
vn -0.82448870 -0.55053347 0.13088685
vn -0.79957569 -0.53553706 0.27180690
vn -0.66188282 -0.66180187 0.35203615
vn -0.70650756 -0.70770556 -0.00000038
vn 0.00000054 0.00000000 -1.00000000
vn -0.70647264 -0.70774037 -0.00000038
vn -0.83096224 -0.55632877 -0.00000045
vn 0.00000054 0.00000000 -1.00000000
vn -0.92364836 -0.38324100 -0.00000050
vn 0.00000054 0.00000000 -1.00000000
vn 0.00000054 0.00000000 -1.00000000
vn -0.98072982 -0.19536980 -0.00000053
vn -1.00000000 -0.00000009 -0.00000054
vn 0.00000054 0.00000000 -1.00000000
vn -0.98072422 0.19539721 -0.00000014
vn 0.00000054 0.00000000 -1.00000000
vn -0.92367613 0.38317430 -0.00000050
vn 0.00000054 0.00000000 -1.00000000
vn -0.83096236 0.55632871 -0.00000045
vn 0.00000054 0.00000000 -1.00000000
vn -0.00000031 -0.00000000 -1.00000000
vn -0.70661336 0.70760006 -0.00000038
vn 0.00000054 0.00000000 -1.00000000
vn 0.00000139 0.00000000 -1.00000000
vn -0.55632877 0.83096224 -0.00000030
vn -0.00000031 -0.00000000 -1.00000000
vn 0.00000054 0.00000000 -1.00000000
vn 0.00000139 0.00000000 -1.00000000
vn -0.38317430 0.92367601 -0.00000021
vn 0.00000054 0.00000000 -1.00000000
vn -0.19539718 0.98072422 -0.00000010
vn -0.00000009 1.00000000 0.00000000
vn 0.00000054 0.00000000 -1.00000000
vn 0.19536962 0.98072982 0.00000010
vn 0.00000054 0.00000000 -1.00000000
vn 0.38278040 0.92383933 0.00000021
vn -0.00000031 -0.00000000 -1.00000000
vn 0.00000054 0.00000000 -1.00000000
vn 0.55632871 0.83096236 0.00000030
vn -0.00000031 -0.00000000 -1.00000000
vn 0.00000138 0.00000000 -1.00000000
vn 0.00000138 0.00000000 -1.00000000
vn 0.00000054 0.00000000 -1.00000000
vn 0.70759976 0.70661354 0.00000038
vn 0.00000054 0.00000000 -1.00000000
vn 0.83129972 0.55582458 0.00000045
vn 0.00000054 0.00000000 -1.00000000
vn 0.00000075 0.00000000 -1.00000000
vn 0.92363465 0.38327399 0.00000050
vn 0.00000075 0.00000000 -1.00000000
vn 0.00000054 0.00000000 -1.00000000
vn 0.98064292 0.19580519 0.00000053
vn 1.00000000 -0.00000041 0.00000054
vn 0.00000054 0.00000000 -1.00000000
vn 0.00000054 0.00000000 -1.00000000
vn 0.98072678 -0.19538371 0.00000053
vn 0.00000054 0.00000000 -1.00000000
vn 0.92379957 -0.38287681 0.00000050
vn 0.83141029 -0.55565911 0.00000045
vn 0.00000054 0.00000000 -1.00000000
vn 0.70640189 -0.70781106 0.00000038
vn 0.00000054 0.00000000 -1.00000000
vn 0.00000054 0.00000000 -1.00000000
vn 0.55565917 -0.83141017 0.00000030
vn 0.00000085 0.00000000 -1.00000000
vn 0.38287708 -0.92379922 0.00000021
vn 0.00000054 0.00000000 -1.00000000
vn 0.55565917 -0.83141017 0.00000030
vn 0.51934540 -0.77890962 0.35153967
vn 0.53393287 -0.80071092 0.27162060
vn 0.37920222 -0.91600841 0.13089781
vn 0.38256195 -0.92262834 0.04902586
vn 0.38310417 -0.92361504 0.01290187
vn 0.19510210 -0.98069531 0.01311246
vn -0.00004575 -0.99991691 0.01289749
vn 0.00002247 -0.99991691 0.01290220
vn -0.19527531 -0.98066628 0.01269497
vn -0.38295400 -0.92367458 0.01310404
vn -0.55535466 -0.83015966 0.04915433
vn -0.70107007 -0.70104867 0.13050523
vn -0.67981183 -0.68135238 0.27132043
vn -0.55582464 -0.83129966 -0.00000030
vn -0.51933473 -0.77886987 0.35164392
vn 0.00000054 0.00000000 -1.00000000
vn -0.55565924 -0.83141017 -0.00000030
vn 0.00000139 0.00000000 -1.00000000
vn -0.00000031 -0.00000000 -1.00000000
vn 0.00000138 0.00000000 -1.00000000
vn -0.00000031 -0.00000000 -1.00000000
vn 0.00000075 0.00000000 -1.00000000
vn 0.00000181 0.00000000 -1.00000000
vn -0.00000116 -0.00000000 -1.00000000
vn 0.00000085 0.00000000 -1.00000000
vn 0.00000054 0.00000000 -1.00000000
vn 0.19538368 -0.98072690 0.00000010
vn 0.00000181 0.00000000 -1.00000000
vn 0.00000085 0.00000000 -1.00000000
vn 0.38319928 -0.92366582 0.00000021
vn 0.35858452 -0.86498237 0.35103106
vn 0.36803034 -0.88907516 0.27221161
vn 0.19385922 -0.97233158 0.13034551
vn 0.19474016 -0.97962159 0.04917273
vn 0.00000962 -0.99878901 0.04919958
vn -0.00000967 -0.99878889 0.04920077
vn -0.19466723 -0.97963709 0.04915114
vn -0.38260114 -0.92260975 0.04906841
vn -0.55110317 -0.82415533 0.13058791
vn -0.53394377 -0.80065316 0.27176949
vn -0.38327402 -0.92363477 -0.00000021
vn -0.35861999 -0.86499488 0.35096392
vn -0.38327432 -0.92363459 -0.00000021
vn 0.00000054 0.00000000 -1.00000000
vn -0.00000116 -0.00000000 -1.00000000
vn 0.00000054 0.00000000 -1.00000000
vn -0.19580550 -0.98064268 -0.00000011
vn -0.00000116 -0.00000000 -1.00000000
vn -0.00000896 -1.00000000 0.00000468
vn 0.00000181 0.00000000 -1.00000000
vn 0.00000911 -1.00000000 0.00000466
vn 0.19538368 -0.98072690 0.00000010
vn 0.18321858 -0.91783601 0.35214800
vn 0.18795554 -0.94386071 0.27166089
vn 0.00003008 -0.99144781 0.13050400
vn -0.00004333 -0.99144781 0.13050421
vn -0.19354829 -0.97234571 0.13070129
vn -0.37919718 -0.91603255 0.13074400
vn -0.36764127 -0.88930047 0.27200159
vn -0.18304172 -0.91778058 0.35238391
vn -0.19546302 -0.98071110 -0.00000010
vn -0.00000895 -1.00000000 -0.00000466
vn 0.00000912 -1.00000000 -0.00000468
vn 0.00000707 -0.93633407 0.35111019
vn -0.00003991 -0.93633342 0.35111240
vn 0.00000324 -0.96246958 0.27138960
vn -0.00004456 -0.96246880 0.27139261
vn -0.18790516 -0.94388783 0.27160180
vt 0.05216395 0.07657843
vt 0.05216395 0.05838274
vt 0.06068599 0.07657843
vt 0.06068599 0.05838274
vt 0.06932318 0.07657843
vt 0.06932318 0.05838274
vt 0.07784521 0.07657843
vt 0.07784521 0.05838274
vt 0.08648240 0.07657843
vt 0.08648240 0.05838274
vt 0.09511959 0.07657843
vt 0.09511959 0.05838274
vt 0.10387190 0.07657843
vt 0.10387190 0.05838274
vt 0.11250910 0.07657843
vt 0.11250910 0.05838274
vt 0.12126140 0.07657843
vt 0.12126140 0.05838274
vt 0.12989859 0.07657843
vt 0.12989859 0.05838274
vt 0.13865100 0.07657843
vt 0.13865100 0.05838274
vt 0.14740330 0.07657843
vt 0.14740330 0.05838274
vt 0.15604050 0.07657843
vt 0.15604050 0.05838274
vt 0.16479281 0.07657843
vt 0.16479281 0.05838274
vt 0.17343000 0.07657843
vt 0.17343000 0.05838274
vt 0.18218240 0.07657843
vt 0.18218240 0.05838274
vt 0.19081961 0.07657843
vt 0.19081961 0.05838274
vt 0.19945680 0.07657843
vt 0.19945680 0.05838274
vt 0.20797880 0.07657843
vt 0.20797880 0.05838274
vt 0.21661601 0.07657843
vt 0.22513799 0.07657843
vt 0.21661601 0.05838274
vt 0.20797880 0.04571485
vt 0.19945680 0.04571485
vt 0.19081961 0.04571485
vt 0.18218240 0.04571485
vt 0.17343000 0.04571485
vt 0.16479281 0.04571485
vt 0.15604050 0.04571485
vt 0.14740330 0.04571485
vt 0.13865100 0.04571485
vt 0.12989859 0.04571485
vt 0.12126140 0.04571485
vt 0.11250910 0.04571485
vt 0.10387190 0.04571485
vt 0.09511959 0.04571485
vt 0.08648240 0.04571485
vt 0.07784521 0.04571485
vt 0.06932318 0.04571485
vt 0.06068599 0.04571485
vt 0.05216395 0.04571485
vt 0.04364192 0.04571485
vt 0.04364192 0.05838274
vt 0.04364192 0.07657843
vt 0.04364192 0.46087569
vt 0.43162441 0.94064271
vt 0.43162441 0.94064271
vt 0.05216395 0.46087569
vt 0.42425400 0.94363689
vt 0.06068599 0.46087569
vt 0.41642299 0.94524908
vt 0.40847671 0.94524908
vt 0.06932318 0.46087569
vt 0.40064570 0.94363689
vt 0.40064570 0.94363689
vt 0.07784521 0.46087569
vt 0.39316010 0.94064271
vt 0.39316010 0.94064271
vt 0.08648240 0.46087569
vt 0.09511959 0.46087569
vt 0.38659591 0.93615133
vt 0.38083771 0.93050832
vt 0.10387190 0.46087569
vt 0.11250910 0.46087569
vt 0.37646159 0.92382890
vt 0.37335220 0.91645849
vt 0.12126140 0.46087569
vt 0.37185499 0.90862751
vt 0.12989859 0.46087569
vt 0.37185499 0.90068132
vt 0.13865100 0.46087569
vt 0.14740330 0.46087569
vt 0.37335220 0.89285022
vt 0.15604050 0.46087569
vt 0.37646159 0.88536471
vt 0.16479281 0.46087569
vt 0.38083771 0.87880039
vt 0.38659591 0.87315738
vt 0.38659591 0.87315738
vt 0.17343000 0.46087569
vt 0.39316010 0.86866611
vt 0.18218240 0.46087569
vt 0.39316010 0.86866611
vt 0.40064570 0.86555672
vt 0.19081961 0.46087569
vt 0.40064570 0.86555672
vt 0.40847671 0.86405963
vt 0.19945680 0.46087569
vt 0.40847671 0.86405963
vt 0.20797880 0.46087569
vt 0.41642299 0.86405963
vt 0.21661601 0.46087569
vt 0.42425400 0.86555672
vt 0.22513799 0.46087569
vt 0.43162441 0.86866611
vt 0.23366010 0.46087569
vt 0.43830380 0.87315738
vt 0.24206690 0.46087569
vt 0.44394681 0.87880039
vt 0.44394681 0.87880039
vt 0.23366010 0.07657843
vt 0.22513799 0.05838274
vt 0.21661601 0.04571485
vt 0.21661601 0.03327733
vt 0.20797880 0.03327733
vt 0.19945680 0.03327733
vt 0.19081961 0.03327733
vt 0.18218240 0.03327733
vt 0.17343000 0.03327733
vt 0.16479281 0.03327733
vt 0.15604050 0.03327733
vt 0.14740330 0.03327733
vt 0.13865100 0.03327733
vt 0.12989859 0.03327733
vt 0.12126140 0.03327733
vt 0.11250910 0.03327733
vt 0.10387190 0.03327733
vt 0.09511959 0.03327733
vt 0.08648240 0.03327733
vt 0.07784521 0.03327733
vt 0.06932318 0.03327733
vt 0.06068599 0.03327733
vt 0.05216395 0.03327733
vt 0.04364192 0.03327733
vt 0.03523504 0.04571485
vt 0.03523504 0.05838274
vt 0.03523504 0.07657843
vt 0.03523504 0.46087569
vt 0.43830380 0.93615133
vt 0.43830380 0.93615133
vt 0.41239229 0.90459681
vt 0.41239229 0.90459681
vt 0.41239229 0.90459681
vt 0.41239229 0.90459681
vt 0.41239229 0.90459681
vt 0.41239229 0.90459681
vt 0.41239229 0.90459681
vt 0.41239229 0.90459681
vt 0.41239229 0.90459681
vt 0.44843811 0.88536471
vt 0.44843811 0.88536471
vt 0.25047380 0.46087569
vt 0.24206690 0.07657843
vt 0.23366010 0.05838274
vt 0.22513799 0.04571485
vt 0.22513799 0.03327733
vt 0.23366010 0.01738488
vt 0.23366010 0.01738488
vt 0.22513799 0.01738488
vt 0.22513799 0.01738488
vt 0.21661601 0.01738488
vt 0.21661601 0.01738488
vt 0.20797880 0.01738488
vt 0.20797880 0.01738488
vt 0.19945680 0.01738488
vt 0.19945680 0.01738488
vt 0.19081961 0.01738488
vt 0.19081961 0.01738488
vt 0.18218240 0.01738488
vt 0.18218240 0.01738488
vt 0.17343000 0.01738488
vt 0.17343000 0.01738488
vt 0.16479281 0.01738488
vt 0.16479281 0.01738488
vt 0.15604050 0.01738488
vt 0.15604050 0.01738488
vt 0.14740330 0.01738488
vt 0.14740330 0.01738488
vt 0.13865100 0.01738488
vt 0.13865100 0.01738488
vt 0.12989859 0.01738488
vt 0.12989859 0.01738488
vt 0.12126140 0.01738488
vt 0.12126140 0.01738488
vt 0.11250910 0.01738488
vt 0.11250910 0.01738488
vt 0.10387190 0.01738488
vt 0.10387190 0.01738488
vt 0.09511959 0.01738488
vt 0.09511959 0.01738488
vt 0.08648240 0.01738488
vt 0.08648240 0.01738488
vt 0.07784521 0.01738488
vt 0.07784521 0.01738488
vt 0.06932318 0.01738488
vt 0.06932318 0.01738488
vt 0.06068599 0.01738488
vt 0.06068599 0.01738488
vt 0.05216395 0.01738488
vt 0.05216395 0.01738488
vt 0.04364192 0.01738488
vt 0.04364192 0.01738488
vt 0.03523504 0.01738488
vt 0.03523504 0.01738488
vt 0.03523504 0.03327733
vt 0.02671301 0.04571485
vt 0.02671301 0.05838274
vt 0.02671301 0.07657843
vt 0.02671301 0.46087569
vt 0.44394681 0.93050832
vt 0.44394681 0.93050832
vt 0.44843811 0.92382890
vt 0.44843811 0.92382890
vt 0.01842135 0.46087569
vt 0.01012963 0.46087569
vt 0.45143241 0.91645849
vt 0.00195312 0.46087569
vt 0.27534890 0.46087569
vt 0.45304459 0.90862751
vt 0.26717231 0.46087569
vt 0.45304459 0.90068132
vt 0.45143241 0.89285022
vt 0.25888058 0.46087569
vt 0.45143241 0.89285022
vt 0.25047380 0.07657843
vt 0.24206690 0.05838274
vt 0.23366010 0.04571485
vt 0.23366010 0.03327733
vt 0.24206690 0.01738488
vt 0.24206690 0.01738488
vt 0.61634511 0.87891561
vt 0.24206690 0.00195312
vt 0.23366010 0.00195312
vt 0.60655618 0.88087332
vt 0.22513799 0.00195312
vt 0.59665233 0.88087332
vt 0.58686352 0.87891561
vt 0.21661601 0.00195312
vt 0.20797880 0.00195312
vt 0.57776558 0.87511522
vt 0.19945680 0.00195312
vt 0.56947392 0.86958742
vt 0.19081961 0.00195312
vt 0.56244898 0.86256248
vt 0.18218240 0.00195312
vt 0.55692118 0.85427082
vt 0.55312091 0.84517300
vt 0.17343000 0.00195312
vt 0.55312091 0.84517300
vt 0.55116308 0.83538407
vt 0.16479281 0.00195312
vt 0.55116308 0.83538407
vt 0.55116308 0.82548010
vt 0.55116308 0.82548010
vt 0.15604050 0.00195312
vt 0.55312091 0.81569141
vt 0.14740330 0.00195312
vt 0.13865100 0.00195312
vt 0.55692118 0.80659348
vt 0.12989859 0.00195312
vt 0.56244898 0.79830182
vt 0.12126140 0.00195312
vt 0.56947392 0.79127687
vt 0.56947392 0.79127687
vt 0.11250910 0.00195312
vt 0.57776558 0.78574908
vt 0.57776558 0.78574908
vt 0.58686352 0.78194869
vt 0.58686352 0.78194869
vt 0.10387190 0.00195312
vt 0.59665233 0.77999097
vt 0.09511959 0.00195312
vt 0.60655618 0.77999097
vt 0.60655618 0.77999097
vt 0.08648240 0.00195312
vt 0.61634511 0.78194869
vt 0.61634511 0.78194869
vt 0.07784521 0.00195312
vt 0.06932318 0.00195312
vt 0.62555802 0.78574908
vt 0.63373458 0.79127687
vt 0.06068599 0.00195312
vt 0.64075953 0.79830182
vt 0.05216395 0.00195312
vt 0.04364192 0.00195312
vt 0.64628732 0.80659348
vt 0.03523504 0.00195312
vt 0.65008771 0.81569141
vt 0.65204543 0.82548010
vt 0.02671301 0.00195312
vt 0.65204543 0.83538407
vt 0.01842135 0.00195312
vt 0.65204543 0.83538407
vt 0.02671301 0.01738488
vt 0.02671301 0.01738488
vt 0.02671301 0.03327733
vt 0.01842135 0.04571485
vt 0.01842135 0.05838274
vt 0.01842135 0.07657843
vt 0.01012963 0.07657843
vt 0.27534890 0.07657843
vt 0.00195312 0.07657843
vt 0.26717231 0.07657843
vt 0.25888058 0.07657843
vt 0.25047380 0.05838274
vt 0.24206690 0.04571485
vt 0.24206690 0.03327733
vt 0.25047380 0.01738488
vt 0.25047380 0.01738488
vt 0.62555802 0.87511522
vt 0.25047380 0.00195312
vt 0.60160422 0.83043212
vt 0.60160422 0.83043212
vt 0.60160422 0.83043212
vt 0.60160422 0.83043212
vt 0.60160422 0.83043212
vt 0.60160422 0.83043212
vt 0.60160422 0.83043212
vt 0.60160422 0.83043212
vt 0.60160422 0.83043212
vt 0.01012963 0.00195312
vt 0.65008771 0.84517300
vt 0.65008771 0.84517300
vt 0.01842135 0.01738488
vt 0.01842135 0.01738488
vt 0.01842135 0.03327733
vt 0.01012963 0.04571485
vt 0.01012963 0.05838274
vt 0.00195312 0.05838274
vt 0.27534890 0.05838274
vt 0.26717231 0.05838274
vt 0.25888058 0.05838274
vt 0.25047380 0.04571485
vt 0.25047380 0.03327733
vt 0.25888058 0.01738488
vt 0.25888058 0.01738488
vt 0.25888058 0.00195312
vt 0.63373458 0.86958742
vt 0.64075953 0.86256248
vt 0.64075953 0.86256248
vt 0.26717231 0.00195312
vt 0.64628732 0.85427082
vt 0.27534890 0.00195312
vt 0.64628732 0.85427082
vt 0.00195312 0.00195312
vt 0.01012963 0.01738488
vt 0.01012963 0.01738488
vt 0.01012963 0.03327733
vt 0.00195312 0.04571485
vt 0.27534890 0.04571485
vt 0.26717231 0.04571485
vt 0.25888058 0.04571485
vt 0.25888058 0.03327733
vt 0.26717231 0.01738488
vt 0.26717231 0.01738488
vt 0.27534890 0.01738488
vt 0.00195312 0.01738488
vt 0.00195312 0.01738488
vt 0.27534890 0.01738488
vt 0.00195312 0.03327733
vt 0.27534890 0.03327733
vt 0.26717231 0.03327733
f 1/1/1 2/2/2 3/3/3
f 2/2/2 4/4/4 3/3/3
f 3/3/3 4/4/4 5/5/5
f 4/4/4 6/6/6 5/5/5
f 5/5/5 6/6/6 7/7/7
f 6/6/6 8/8/8 7/7/7
f 7/7/7 8/8/8 9/9/9
f 8/8/8 10/10/10 9/9/9
f 9/9/9 10/10/10 11/11/11
f 10/10/10 12/12/12 11/11/11
f 11/11/11 12/12/12 13/13/13
f 12/12/12 14/14/14 13/13/13
f 13/13/13 14/14/14 15/15/15
f 14/14/14 16/16/16 15/15/15
f 15/15/15 16/16/16 17/17/17
f 16/16/16 18/18/18 17/17/17
f 17/17/17 18/18/18 19/19/19
f 18/18/18 20/20/20 19/19/19
f 19/19/19 20/20/20 21/21/21
f 20/20/20 22/22/22 21/21/21
f 21/21/21 22/22/22 23/23/23
f 22/22/22 24/24/24 23/23/23
f 23/23/23 24/24/24 25/25/25
f 24/24/24 26/26/26 25/25/25
f 25/25/25 26/26/26 27/27/27
f 26/26/26 28/28/28 27/27/27
f 27/27/27 28/28/28 29/29/29
f 28/28/28 30/30/30 29/29/29
f 29/29/29 30/30/30 31/31/31
f 30/30/30 32/32/32 31/31/31
f 31/31/31 32/32/32 33/33/33
f 32/32/32 34/34/34 33/33/33
f 33/33/33 34/34/34 35/35/35
f 34/34/34 36/36/36 35/35/35
f 35/35/35 36/36/36 37/37/37
f 36/36/36 38/38/38 37/37/37
f 37/37/37 38/38/38 39/39/39
f 40/40/40 39/39/39 41/41/41
f 39/39/39 38/38/38 41/41/41
f 41/41/41 38/38/38 42/42/42
f 42/42/42 38/38/38 43/43/43
f 38/38/38 36/36/36 43/43/43
f 43/43/43 36/36/36 44/44/44
f 36/36/36 34/34/34 44/44/44
f 44/44/44 34/34/34 45/45/45
f 34/34/34 32/32/32 45/45/45
f 45/45/45 32/32/32 46/46/46
f 32/32/32 30/30/30 46/46/46
f 46/46/46 30/30/30 47/47/47
f 30/30/30 28/28/28 47/47/47
f 47/47/47 28/28/28 48/48/48
f 28/28/28 26/26/26 48/48/48
f 48/48/48 26/26/26 49/49/49
f 26/26/26 24/24/24 49/49/49
f 49/49/49 24/24/24 50/50/50
f 24/24/24 22/22/22 50/50/50
f 50/50/50 22/22/22 51/51/51
f 22/22/22 20/20/20 51/51/51
f 51/51/51 20/20/20 52/52/52
f 20/20/20 18/18/18 52/52/52
f 52/52/52 18/18/18 53/53/53
f 18/18/18 16/16/16 53/53/53
f 53/53/53 16/16/16 54/54/54
f 16/16/16 14/14/14 54/54/54
f 54/54/54 14/14/14 55/55/55
f 14/14/14 12/12/12 55/55/55
f 55/55/55 12/12/12 56/56/56
f 12/12/12 10/10/10 56/56/56
f 56/56/56 10/10/10 57/57/57
f 10/10/10 8/8/8 57/57/57
f 57/57/57 8/8/8 58/58/58
f 8/8/8 6/6/6 58/58/58
f 58/58/58 6/6/6 59/59/59
f 6/6/6 4/4/4 59/59/59
f 59/59/59 4/4/4 60/60/60
f 4/4/4 2/2/2 60/60/60
f 60/60/60 2/2/2 61/61/61
f 61/61/61 2/2/2 62/62/62
f 2/2/2 1/1/1 62/62/62
f 62/62/62 1/1/1 63/63/63
f 64/64/64 63/63/63 67/67/67
f 63/63/63 1/1/1 67/67/67
f 67/67/67 1/1/1 69/69/69
f 1/1/1 3/3/3 69/69/69
f 69/69/69 3/3/3 72/72/72
f 3/3/3 5/5/5 72/72/72
f 72/72/72 5/5/5 75/75/75
f 5/5/5 7/7/7 75/75/75
f 75/75/75 7/7/7 78/78/78
f 7/7/7 9/9/9 78/78/78
f 78/78/78 9/9/9 79/79/79
f 9/9/9 11/11/11 79/79/79
f 79/79/79 11/11/11 82/82/82
f 11/11/11 13/13/13 82/82/82
f 82/82/82 13/13/13 83/83/83
f 13/13/13 15/15/15 83/83/83
f 83/83/83 15/15/15 86/86/86
f 15/15/15 17/17/17 86/86/86
f 86/86/86 17/17/17 88/88/88
f 17/17/17 19/19/19 88/88/88
f 88/88/88 19/19/19 90/90/90
f 19/19/19 21/21/21 90/90/90
f 90/90/90 21/21/21 91/91/91
f 21/21/21 23/23/23 91/91/91
f 91/91/91 23/23/23 93/93/93
f 23/23/23 25/25/25 93/93/93
f 93/93/93 25/25/25 95/95/95
f 25/25/25 27/27/27 95/95/95
f 95/95/95 27/27/27 99/99/99
f 27/27/27 29/29/29 99/99/99
f 99/99/99 29/29/29 101/101/101
f 29/29/29 31/31/31 101/101/101
f 101/101/101 31/31/31 104/104/104
f 31/31/31 33/33/33 104/104/104
f 104/104/104 33/33/33 107/107/107
f 33/33/33 35/35/35 107/107/107
f 107/107/107 35/35/35 109/109/109
f 35/35/35 37/37/37 109/109/109
f 109/109/109 37/37/37 111/111/111
f 37/37/37 39/39/39 111/111/111
f 111/111/111 39/39/39 113/113/113
f 39/39/39 40/40/40 113/113/113
f 113/113/113 40/40/40 115/115/115
f 117/117/117 115/115/115 120/120/120
f 115/115/115 40/40/40 120/120/120
f 120/120/120 40/40/40 121/121/121
f 40/40/40 41/41/41 121/121/121
f 121/121/121 41/41/41 122/122/122
f 41/41/41 42/42/42 122/122/122
f 122/122/122 42/42/42 123/123/123
f 123/123/123 42/42/42 124/124/124
f 42/42/42 43/43/43 124/124/124
f 124/124/124 43/43/43 125/125/125
f 43/43/43 44/44/44 125/125/125
f 125/125/125 44/44/44 126/126/126
f 44/44/44 45/45/45 126/126/126
f 126/126/126 45/45/45 127/127/127
f 45/45/45 46/46/46 127/127/127
f 127/127/127 46/46/46 128/128/128
f 46/46/46 47/47/47 128/128/128
f 128/128/128 47/47/47 129/129/129
f 47/47/47 48/48/48 129/129/129
f 129/129/129 48/48/48 130/130/130
f 48/48/48 49/49/49 130/130/130
f 130/130/130 49/49/49 131/131/131
f 49/49/49 50/50/50 131/131/131
f 131/131/131 50/50/50 132/132/132
f 50/50/50 51/51/51 132/132/132
f 132/132/132 51/51/51 133/133/133
f 51/51/51 52/52/52 133/133/133
f 133/133/133 52/52/52 134/134/134
f 52/52/52 53/53/53 134/134/134
f 134/134/134 53/53/53 135/135/135
f 53/53/53 54/54/54 135/135/135
f 135/135/135 54/54/54 136/136/136
f 54/54/54 55/55/55 136/136/136
f 136/136/136 55/55/55 137/137/137
f 55/55/55 56/56/56 137/137/137
f 137/137/137 56/56/56 138/138/138
f 56/56/56 57/57/57 138/138/138
f 138/138/138 57/57/57 139/139/139
f 57/57/57 58/58/58 139/139/139
f 139/139/139 58/58/58 140/140/140
f 58/58/58 59/59/59 140/140/140
f 140/140/140 59/59/59 141/141/141
f 59/59/59 60/60/60 141/141/141
f 141/141/141 60/60/60 142/142/142
f 60/60/60 61/61/61 142/142/142
f 142/142/142 61/61/61 143/143/143
f 143/143/143 61/61/61 144/144/144
f 61/61/61 62/62/62 144/144/144
f 144/144/144 62/62/62 145/145/145
f 62/62/62 63/63/63 145/145/145
f 145/145/145 63/63/63 146/146/146
f 63/63/63 64/64/64 146/146/146
f 146/146/146 64/64/64 147/147/147
f 148/148/148 65/65/65 150/150/150
f 66/66/66 68/68/68 158/158/158
f 68/68/68 70/70/70 158/158/158
f 70/70/70 71/71/71 158/158/158
f 71/71/71 73/73/73 158/158/158
f 74/74/74 77/77/77 151/151/151
f 76/76/76 80/80/80 158/158/158
f 80/80/80 81/81/81 158/158/158
f 81/81/81 84/84/84 158/158/158
f 84/84/84 85/85/85 158/158/158
f 85/85/85 87/87/87 158/158/158
f 87/87/87 89/89/89 158/158/158
f 89/89/89 92/92/92 158/158/158
f 92/92/92 94/94/94 158/158/158
f 94/94/94 96/96/96 158/158/158
f 96/96/96 98/98/98 158/158/158
f 97/97/97 100/100/100 157/157/157
f 102/102/102 105/105/105 158/158/158
f 103/103/103 108/108/108 152/152/152
f 106/106/106 110/110/110 158/158/158
f 110/110/110 112/112/112 158/158/158
f 112/112/112 114/114/114 158/158/158
f 114/114/114 116/116/116 158/158/158
f 116/116/116 119/119/119 158/158/158
f 153/153/153 118/118/118 160/160/160
f 161/161/161 117/117/117 162/162/162
f 117/117/117 120/120/120 162/162/162
f 162/162/162 120/120/120 163/163/163
f 120/120/120 121/121/121 163/163/163
f 163/163/163 121/121/121 164/164/164
f 121/121/121 122/122/122 164/164/164
f 164/164/164 122/122/122 165/165/165
f 122/122/122 123/123/123 165/165/165
f 166/166/166 165/165/165 168/168/168
f 165/165/165 123/123/123 168/168/168
f 168/168/168 123/123/123 170/170/170
f 123/123/123 124/124/124 170/170/170
f 170/170/170 124/124/124 172/172/172
f 124/124/124 125/125/125 172/172/172
f 172/172/172 125/125/125 175/175/175
f 125/125/125 126/126/126 175/175/175
f 175/175/175 126/126/126 176/176/176
f 126/126/126 127/127/127 176/176/176
f 176/176/176 127/127/127 179/179/179
f 127/127/127 128/128/128 179/179/179
f 179/179/179 128/128/128 181/181/181
f 128/128/128 129/129/129 181/181/181
f 181/181/181 129/129/129 182/182/182
f 129/129/129 130/130/130 182/182/182
f 182/182/182 130/130/130 184/184/184
f 130/130/130 131/131/131 184/184/184
f 184/184/184 131/131/131 186/186/186
f 131/131/131 132/132/132 186/186/186
f 186/186/186 132/132/132 188/188/188
f 132/132/132 133/133/133 188/188/188
f 188/188/188 133/133/133 190/190/190
f 133/133/133 134/134/134 190/190/190
f 190/190/190 134/134/134 193/193/193
f 134/134/134 135/135/135 193/193/193
f 193/193/193 135/135/135 195/195/195
f 135/135/135 136/136/136 195/195/195
f 195/195/195 136/136/136 197/197/197
f 136/136/136 137/137/137 197/197/197
f 197/197/197 137/137/137 199/199/199
f 137/137/137 138/138/138 199/199/199
f 199/199/199 138/138/138 201/201/201
f 138/138/138 139/139/139 201/201/201
f 201/201/201 139/139/139 202/202/202
f 139/139/139 140/140/140 202/202/202
f 202/202/202 140/140/140 205/205/205
f 140/140/140 141/141/141 205/205/205
f 205/205/205 141/141/141 207/207/207
f 141/141/141 142/142/142 207/207/207
f 207/207/207 142/142/142 208/208/208
f 142/142/142 143/143/143 208/208/208
f 208/208/208 143/143/143 211/211/211
f 212/212/212 211/211/211 214/214/214
f 211/211/211 143/143/143 214/214/214
f 143/143/143 144/144/144 214/214/214
f 214/214/214 144/144/144 215/215/215
f 144/144/144 145/145/145 215/215/215
f 215/215/215 145/145/145 216/216/216
f 145/145/145 146/146/146 216/216/216
f 216/216/216 146/146/146 217/217/217
f 146/146/146 147/147/147 217/217/217
f 217/217/217 147/147/147 218/218/218
f 149/149/149 156/156/156 220/220/220
f 219/219/219 155/155/155 222/222/222
f 221/221/221 158/158/158 225/225/225
f 225/225/225 158/158/158 228/228/228
f 228/228/228 158/158/158 230/230/230
f 230/230/230 158/158/158 233/233/233
f 154/154/154 159/159/159 231/231/231
f 232/232/232 161/161/161 234/234/234
f 161/161/161 162/162/162 234/234/234
f 234/234/234 162/162/162 235/235/235
f 162/162/162 163/163/163 235/235/235
f 235/235/235 163/163/163 236/236/236
f 163/163/163 164/164/164 236/236/236
f 236/236/236 164/164/164 237/237/237
f 164/164/164 165/165/165 237/237/237
f 165/165/165 166/166/166 237/237/237
f 237/237/237 166/166/166 238/238/238
f 241/241/241 239/239/239 242/242/242
f 239/239/239 167/167/167 242/242/242
f 242/242/242 167/167/167 244/244/244
f 167/167/167 169/169/169 244/244/244
f 244/244/244 169/169/169 247/247/247
f 169/169/169 171/171/171 247/247/247
f 247/247/247 171/171/171 248/248/248
f 171/171/171 173/173/173 248/248/248
f 248/248/248 173/173/173 250/250/250
f 173/173/173 174/174/174 250/250/250
f 250/250/250 174/174/174 252/252/252
f 174/174/174 177/177/177 252/252/252
f 252/252/252 177/177/177 254/254/254
f 177/177/177 178/178/178 254/254/254
f 254/254/254 178/178/178 257/257/257
f 178/178/178 180/180/180 257/257/257
f 257/257/257 180/180/180 260/260/260
f 180/180/180 183/183/183 260/260/260
f 260/260/260 183/183/183 264/264/264
f 183/183/183 185/185/185 264/264/264
f 264/264/264 185/185/185 266/266/266
f 185/185/185 187/187/187 266/266/266
f 266/266/266 187/187/187 267/267/267
f 187/187/187 189/189/189 267/267/267
f 267/267/267 189/189/189 269/269/269
f 189/189/189 191/191/191 269/269/269
f 269/269/269 191/191/191 271/271/271
f 191/191/191 192/192/192 271/271/271
f 271/271/271 192/192/192 274/274/274
f 192/192/192 194/194/194 274/274/274
f 274/274/274 194/194/194 279/279/279
f 194/194/194 196/196/196 279/279/279
f 279/279/279 196/196/196 281/281/281
f 196/196/196 198/198/198 281/281/281
f 281/281/281 198/198/198 284/284/284
f 198/198/198 200/200/200 284/284/284
f 284/284/284 200/200/200 287/287/287
f 200/200/200 203/203/203 287/287/287
f 287/287/287 203/203/203 288/288/288
f 203/203/203 204/204/204 288/288/288
f 288/288/288 204/204/204 291/291/291
f 204/204/204 206/206/206 291/291/291
f 291/291/291 206/206/206 293/293/293
f 206/206/206 209/209/209 293/293/293
f 293/293/293 209/209/209 294/294/294
f 209/209/209 210/210/210 294/294/294
f 294/294/294 210/210/210 296/296/296
f 210/210/210 213/213/213 296/296/296
f 296/296/296 213/213/213 299/299/299
f 301/301/301 299/299/299 303/303/303
f 299/299/299 213/213/213 303/303/303
f 304/304/304 212/212/212 305/305/305
f 212/212/212 214/214/214 305/305/305
f 214/214/214 215/215/215 305/305/305
f 305/305/305 215/215/215 306/306/306
f 215/215/215 216/216/216 306/306/306
f 306/306/306 216/216/216 307/307/307
f 216/216/216 217/217/217 307/307/307
f 307/307/307 217/217/217 308/308/308
f 217/217/217 218/218/218 308/308/308
f 218/218/218 223/223/223 308/308/308
f 308/308/308 223/223/223 309/309/309
f 223/223/223 224/224/224 309/309/309
f 309/309/309 224/224/224 311/311/311
f 224/224/224 226/226/226 311/311/311
f 310/310/310 227/227/227 312/312/312
f 227/227/227 229/229/229 312/312/312
f 312/312/312 229/229/229 313/313/313
f 229/229/229 232/232/232 313/313/313
f 232/232/232 234/234/234 313/313/313
f 313/313/313 234/234/234 314/314/314
f 234/234/234 235/235/235 314/314/314
f 314/314/314 235/235/235 315/315/315
f 235/235/235 236/236/236 315/315/315
f 315/315/315 236/236/236 316/316/316
f 236/236/236 237/237/237 316/316/316
f 237/237/237 238/238/238 316/316/316
f 316/316/316 238/238/238 318/318/318
f 239/239/239 241/241/241 317/317/317
f 317/317/317 241/241/241 320/320/320
f 319/319/319 240/240/240 329/329/329
f 240/240/240 243/243/243 329/329/329
f 243/243/243 245/245/245 329/329/329
f 245/245/245 246/246/246 329/329/329
f 246/246/246 249/249/249 329/329/329
f 249/249/249 251/251/251 329/329/329
f 251/251/251 253/253/253 329/329/329
f 253/253/253 255/255/255 329/329/329
f 255/255/255 258/258/258 329/329/329
f 256/256/256 261/261/261 322/322/322
f 259/259/259 263/263/263 321/321/321
f 262/262/262 265/265/265 329/329/329
f 265/265/265 268/268/268 329/329/329
f 268/268/268 270/270/270 329/329/329
f 270/270/270 273/273/273 329/329/329
f 272/272/272 275/275/275 324/324/324
f 276/276/276 277/277/277 323/323/323
f 278/278/278 280/280/280 329/329/329
f 280/280/280 282/282/282 329/329/329
f 283/283/283 285/285/285 325/325/325
f 286/286/286 289/289/289 329/329/329
f 289/289/289 290/290/290 329/329/329
f 290/290/290 292/292/292 329/329/329
f 292/292/292 295/295/295 329/329/329
f 295/295/295 297/297/297 329/329/329
f 297/297/297 298/298/298 329/329/329
f 298/298/298 302/302/302 329/329/329
f 328/328/328 300/300/300 332/332/332
f 330/330/330 301/301/301 333/333/333
f 301/301/301 303/303/303 333/333/333
f 334/334/334 304/304/304 335/335/335
f 304/304/304 305/305/305 335/335/335
f 305/305/305 306/306/306 335/335/335
f 335/335/335 306/306/306 336/336/336
f 306/306/306 307/307/307 336/336/336
f 336/336/336 307/307/307 337/337/337
f 307/307/307 308/308/308 337/337/337
f 308/308/308 309/309/309 337/337/337
f 337/337/337 309/309/309 338/338/338
f 309/309/309 311/311/311 338/338/338
f 339/339/339 310/310/310 340/340/340
f 310/310/310 312/312/312 340/340/340
f 340/340/340 312/312/312 341/341/341
f 312/312/312 313/313/313 341/341/341
f 313/313/313 314/314/314 341/341/341
f 341/341/341 314/314/314 342/342/342
f 314/314/314 315/315/315 342/342/342
f 342/342/342 315/315/315 343/343/343
f 315/315/315 316/316/316 343/343/343
f 316/316/316 318/318/318 343/343/343
f 343/343/343 318/318/318 345/345/345
f 317/317/317 320/320/320 344/344/344
f 344/344/344 320/320/320 346/346/346
f 319/319/319 329/329/329 347/347/347
f 347/347/347 329/329/329 349/349/349
f 348/348/348 327/327/327 351/351/351
f 326/326/326 331/331/331 353/353/353
f 354/354/354 330/330/330 355/355/355
f 330/330/330 333/333/333 355/355/355
f 356/356/356 334/334/334 357/357/357
f 334/334/334 335/335/335 357/357/357
f 335/335/335 336/336/336 357/357/357
f 357/357/357 336/336/336 358/358/358
f 336/336/336 337/337/337 358/358/358
f 337/337/337 338/338/338 358/358/358
f 359/359/359 339/339/339 360/360/360
f 339/339/339 340/340/340 360/360/360
f 360/360/360 340/340/340 361/361/361
f 340/340/340 341/341/341 361/361/361
f 341/341/341 342/342/342 361/361/361
f 361/361/361 342/342/342 362/362/362
f 342/342/342 343/343/343 362/362/362
f 343/343/343 345/345/345 362/362/362
f 362/362/362 345/345/345 363/363/363
f 344/344/344 346/346/346 364/364/364
f 346/346/346 350/350/350 364/364/364
f 364/364/364 350/350/350 365/365/365
f 350/350/350 352/352/352 365/365/365
f 354/354/354 355/355/355 366/366/366
f 367/367/367 356/356/356 369/369/369
f 356/356/356 357/357/357 369/369/369
f 357/357/357 358/358/358 369/369/369
f 359/359/359 360/360/360 370/370/370
f 370/370/370 360/360/360 371/371/371
f 360/360/360 361/361/361 371/371/371
f 361/361/361 362/362/362 371/371/371
f 362/362/362 363/363/363 371/371/371
f 363/363/363 368/368/368 371/371/371
f 370/370/370 371/371/371 368/368/368

