mtllib upperarm.mtl
usemtl Rubber_Black.001
v 0.01180001 0.04139071 0.84031194
v 0.01180001 0.04139071 0.84031194
v 0.00000983 0.04139071 0.89926285
v 0.00000983 0.04139071 0.89926285
v 0.00000983 0.04139071 0.89926285
v 0.00000983 0.04139071 0.89926285
v 0.00000983 0.04139071 0.89926285
v 0.00000983 0.04139071 0.89926285
v 0.00000983 0.04139071 0.89926285
v 0.00000983 0.04139071 0.89926285
v 0.00000983 0.04139071 0.89926285
v 0.02311219 0.04139071 0.84371096
v 0.02311219 0.04139071 0.84371096
v 0.03357459 0.04139071 0.84928733
v 0.03357459 0.04139071 0.84928733
v 0.04270936 0.04139071 0.85677576
v 0.04270936 0.04139071 0.85677576
v 0.05019766 0.04139071 0.86585736
v 0.05019766 0.04139071 0.86585736
v 0.05019766 0.04139071 0.86585736
v 0.05577409 0.04139071 0.87626672
v 0.05577409 0.04139071 0.87626672
v 0.05577409 0.04139071 0.87626672
v 0.05922615 0.04139071 0.88752580
v 0.05922615 0.04139071 0.88752580
v 0.06039457 0.04139071 0.89926290
v 0.06039457 0.04139071 0.89926290
v 0.05922614 0.04139071 0.91094679
v 0.05922614 0.04139071 0.91094679
v 0.05577406 0.04139071 0.92225897
v 0.05577406 0.04139071 0.92225897
v 0.05577406 0.04139071 0.92225897
v 0.05019763 0.04139071 0.93261516
v 0.05019763 0.04139071 0.93261516
v 0.05019763 0.04139071 0.93261516
v 0.04270931 0.04139071 0.94174987
v 0.04270931 0.04139071 0.94174987
v 0.04270931 0.04139071 0.94174987
v 0.03357454 0.04139071 0.94918501
v 0.03357454 0.04139071 0.94918501
v 0.03357454 0.04139071 0.94918501
v 0.03357454 0.04139071 0.94918501
v 0.02311213 0.04139071 0.95476156
v 0.02311213 0.04139071 0.95476156
v 0.02311213 0.04139071 0.95476156
v 0.01179994 0.04139071 0.95816052
v 0.01179994 0.04139071 0.95816052
v 0.00000979 0.04139071 0.95932895
v 0.00000979 0.04139071 0.95932895
v -0.01178036 0.04139071 0.95816052
v -0.01178036 0.04139071 0.95816052
v -0.02309255 0.04139070 0.95476156
v -0.02309255 0.04139070 0.95476156
v -0.03355495 0.04139070 0.94918501
v -0.03355495 0.04139070 0.94918501
v -0.04268971 0.04139070 0.94174987
v -0.04268971 0.04139070 0.94174987
v -0.04268971 0.04139070 0.94174987
v -0.05023112 0.04139070 0.93261516
v -0.05023112 0.04139070 0.93261516
v -0.05023112 0.04139070 0.93261516
v -0.05580755 0.04139070 0.92225885
v -0.05580755 0.04139070 0.92225885
v -0.05580755 0.04139070 0.92225885
v -0.05920649 0.04139070 0.91094667
v -0.05920649 0.04139070 0.91094667
v -0.06037492 0.04139070 0.89926279
v -0.06037492 0.04139070 0.89926279
v -0.05920648 0.04139070 0.88752568
v -0.05920648 0.04139070 0.88752568
v -0.05580752 0.04139070 0.87626660
v -0.05580752 0.04139070 0.87626660
v -0.05580752 0.04139070 0.87626660
v -0.05023109 0.04139070 0.86585736
v -0.05023109 0.04139070 0.86585736
v -0.05023109 0.04139070 0.86585736
v -0.04268966 0.04139070 0.85677576
v -0.04268966 0.04139070 0.85677576
v -0.04268966 0.04139070 0.85677576
v -0.03355489 0.04139070 0.84928733
v -0.03355489 0.04139070 0.84928733
v -0.02309249 0.04139070 0.84371096
v -0.02309249 0.04139070 0.84371096
v -0.01178029 0.04139071 0.84031194
v -0.01178029 0.04139071 0.84031194
v 0.00000986 0.04139071 0.83914351
v 0.00000986 0.04139071 0.83914351
v 0.01174691 0.02524560 0.84015262
v 0.01174691 0.02524560 0.84015262
v 0.02305908 0.02524560 0.84360474
v 0.02305908 0.02524560 0.84360474
v 0.02305908 0.02524560 0.84360474
v 0.03346838 0.02524560 0.84918112
v 0.03346838 0.02524560 0.84918112
v 0.03346838 0.02524560 0.84918112
v 0.04260309 0.02524560 0.85666955
v 0.04260309 0.02524560 0.85666955
v 0.05009145 0.02524560 0.86580426
v 0.05009145 0.02524560 0.86580426
v 0.05566788 0.02524560 0.87621361
v 0.05566788 0.02524560 0.87621361
v 0.05566788 0.02524560 0.87621361
v 0.05906682 0.02524560 0.88747269
v 0.05906682 0.02524560 0.88747269
v 0.05906682 0.02524560 0.88747269
v 0.06023525 0.02524560 0.89926290
v 0.06023525 0.02524560 0.89926290
v 0.05906681 0.02524560 0.91099989
v 0.05906681 0.02524560 0.91099989
v 0.05906681 0.02524560 0.91099989
v 0.05566785 0.02524560 0.92231208
v 0.05566785 0.02524560 0.92231208
v 0.05566785 0.02524560 0.92231208
v 0.05009142 0.02524560 0.93272132
v 0.05009142 0.02524560 0.93272132
v 0.04260304 0.02524560 0.94185615
v 0.04260304 0.02524560 0.94185615
v 0.04260304 0.02524560 0.94185615
v 0.03346832 0.02524560 0.94934446
v 0.03346832 0.02524560 0.94934446
v 0.03346832 0.02524560 0.94934446
v 0.03346832 0.02524560 0.94934446
v 0.02305903 0.02524560 0.95492083
v 0.02305903 0.02524560 0.95492083
v 0.02305903 0.02524560 0.95492083
v 0.01174684 0.02524560 0.95831984
v 0.01174684 0.02524560 0.95831984
v 0.00000979 0.02524560 0.95948821
v 0.00000979 0.02524560 0.95948821
v -0.01172725 0.02524560 0.95831984
v -0.01172725 0.02524560 0.95831984
v -0.01172725 0.02524560 0.95831984
v -0.02303943 0.02524560 0.95492083
v -0.02303943 0.02524560 0.95492083
v -0.02303943 0.02524560 0.95492083
v -0.03344873 0.02524559 0.94934446
v -0.03344873 0.02524559 0.94934446
v -0.04258349 0.02524559 0.94185615
v -0.04258349 0.02524559 0.94185615
v -0.05007179 0.02524559 0.93272132
v -0.05007179 0.02524559 0.93272132
v -0.05564823 0.02524559 0.92231196
v -0.05564823 0.02524559 0.92231196
v -0.05910028 0.02524559 0.91099977
v -0.05910028 0.02524559 0.91099977
v -0.06021560 0.02524559 0.89926279
v -0.06021560 0.02524559 0.89926279
v -0.05910027 0.02524559 0.88747257
v -0.05910027 0.02524559 0.88747257
v -0.05564820 0.02524559 0.87621349
v -0.05564820 0.02524559 0.87621349
v -0.05007176 0.02524559 0.86580426
v -0.05007176 0.02524559 0.86580426
v -0.04258344 0.02524559 0.85666955
v -0.04258344 0.02524559 0.85666955
v -0.04258344 0.02524559 0.85666955
v -0.03344867 0.02524559 0.84918112
v -0.03344867 0.02524559 0.84918112
v -0.03344867 0.02524559 0.84918112
v -0.02303937 0.02524560 0.84360474
v -0.02303937 0.02524560 0.84360474
v -0.02303937 0.02524560 0.84360474
v -0.01172718 0.02524560 0.84015262
v -0.01172718 0.02524560 0.84015262
v 0.00000986 0.02524560 0.83898425
v 0.00000986 0.02524560 0.83898425
v 0.00000983 0.02524560 0.89926285
v 0.00000983 0.02524560 0.89926285
v 0.00000983 0.02524560 0.89926285
v 0.00000983 0.02524560 0.89926285
v 0.00000983 0.02524560 0.89926285
v 0.00000983 0.02524560 0.89926285
v 0.00000983 0.02524560 0.89926285
v 0.00000983 0.02524560 0.89926285
v 0.02311221 0.05642050 0.81646615
v 0.02311221 0.05642050 0.81646615
v 0.02311221 0.05642050 0.81646615
v 0.03357461 0.06199693 0.81646615
v 0.03357461 0.06199693 0.81646615
v 0.03357461 0.06199693 0.81646615
v 0.02311220 0.05642050 0.83208007
v 0.02311220 0.05642050 0.83208007
v 0.03357460 0.06199693 0.83208007
v 0.03357460 0.06199693 0.83208007
v 0.04270937 0.06948531 0.81646615
v 0.04270937 0.06948531 0.81646615
v 0.04270937 0.06948531 0.81646615
v 0.04270937 0.06948531 0.83208007
v 0.04270937 0.06948531 0.83208007
v 0.05019768 0.07862002 0.81646615
v 0.05019768 0.07862002 0.81646615
v 0.05019768 0.07862002 0.81646615
v 0.05019768 0.07862002 0.83208007
v 0.05019768 0.07862002 0.83208007
v 0.05577411 0.08908243 0.81646621
v 0.05577411 0.08908243 0.81646621
v 0.05577411 0.08908243 0.81646621
v 0.05577410 0.08908243 0.83208013
v 0.05577410 0.08908243 0.83208013
v 0.05922618 0.10039464 0.81646621
v 0.05922618 0.10039464 0.81646621
v 0.05922617 0.10039464 0.83208013
v 0.05922617 0.10039464 0.83208013
v 0.06039461 0.11218474 0.81646621
v 0.06039461 0.11218474 0.81646621
v 0.06039460 0.11218474 0.83208013
v 0.06039460 0.11218474 0.83208013
v 0.05922618 0.12397493 0.81646621
v 0.05922618 0.12397493 0.81646621
v 0.05922618 0.12397493 0.81646621
v 0.05922617 0.12397493 0.83208013
v 0.05922617 0.12397493 0.83208013
v 0.05577411 0.13528714 0.81646621
v 0.05577411 0.13528714 0.81646621
v 0.05577411 0.13528714 0.81646621
v 0.05577410 0.13528714 0.83208013
v 0.05577410 0.13528714 0.83208013
v 0.05577410 0.13528714 0.83208013
v 0.05019768 0.14574952 0.81646615
v 0.05019768 0.14574952 0.81646615
v 0.05019767 0.14574952 0.83208007
v 0.05019767 0.14574952 0.83208007
v 0.05019767 0.14574952 0.83208007
v 0.04270937 0.15488432 0.81646615
v 0.04270937 0.15488432 0.81646615
v 0.04270936 0.15488432 0.83208007
v 0.04270936 0.15488432 0.83208007
v 0.04270936 0.15488432 0.83208007
v 0.03357460 0.16242573 0.81646615
v 0.03357460 0.16242573 0.81646615
v 0.03357459 0.16242573 0.83208007
v 0.03357459 0.16242573 0.83208007
v 0.02311220 0.16800223 0.81646615
v 0.02311220 0.16800223 0.81646615
v 0.02311219 0.16800223 0.83208007
v 0.02311219 0.16800223 0.83208007
v 0.01180001 0.17145424 0.81646615
v 0.01180001 0.17145424 0.81646615
v 0.01180000 0.17145424 0.83208007
v 0.01180000 0.17145424 0.83208007
v 0.00000986 0.17256953 0.81646615
v 0.00000986 0.17256953 0.81646615
v 0.00000985 0.17256953 0.83208007
v 0.00000985 0.17256953 0.83208007
v -0.01178029 0.17145424 0.81646615
v -0.01178029 0.17145424 0.81646615
v -0.01178030 0.17145424 0.83208007
v -0.01178030 0.17145424 0.83208007
v -0.02309248 0.16800223 0.81646615
v -0.02309248 0.16800223 0.81646615
v -0.02309249 0.16800223 0.83208007
v -0.02309249 0.16800223 0.83208007
v -0.03355489 0.16242573 0.81646615
v -0.03355489 0.16242573 0.81646615
v -0.03355489 0.16242573 0.83208007
v -0.03355489 0.16242573 0.83208007
v -0.04268965 0.15488432 0.81646615
v -0.04268965 0.15488432 0.81646615
v -0.04268966 0.15488432 0.83208007
v -0.04268966 0.15488432 0.83208007
v -0.04268966 0.15488432 0.83208007
v -0.05023107 0.14574952 0.81646615
v -0.05023107 0.14574952 0.81646615
v -0.05023108 0.14574952 0.83208007
v -0.05023108 0.14574952 0.83208007
v -0.05023108 0.14574952 0.83208007
v -0.05580750 0.13528714 0.81646609
v -0.05580750 0.13528714 0.81646609
v -0.05580751 0.13528714 0.83208001
v -0.05580751 0.13528714 0.83208001
v -0.05580751 0.13528714 0.83208001
v -0.05925956 0.12397492 0.81646609
v -0.05925956 0.12397492 0.81646609
v -0.05920646 0.12397492 0.83208001
v -0.05920646 0.12397492 0.83208001
v -0.06037488 0.11218473 0.81646609
v -0.06037488 0.11218473 0.81646609
v -0.06037489 0.11218473 0.83208001
v -0.06037489 0.11218473 0.83208001
v -0.05925956 0.10039462 0.81646609
v -0.05925956 0.10039462 0.81646609
v -0.05925956 0.10039462 0.81646609
v -0.05920646 0.10039462 0.83208001
v -0.05920646 0.10039462 0.83208001
v -0.05580750 0.08908241 0.81646609
v -0.05580750 0.08908241 0.81646609
v -0.05580750 0.08908241 0.81646609
v -0.05580750 0.08908241 0.83208001
v -0.05580750 0.08908241 0.83208001
v -0.05023107 0.07862000 0.81646615
v -0.05023107 0.07862000 0.81646615
v -0.05023107 0.07862000 0.81646615
v -0.05023107 0.07862000 0.83208007
v -0.05023107 0.07862000 0.83208007
v -0.04268965 0.06948529 0.81646615
v -0.04268965 0.06948529 0.81646615
v -0.04268965 0.06948529 0.81646615
v -0.04268965 0.06948529 0.83208007
v -0.04268965 0.06948529 0.83208007
v -0.03355487 0.06199692 0.81646615
v -0.03355487 0.06199692 0.81646615
v -0.03355487 0.06199692 0.81646615
v -0.03355488 0.06199692 0.83208007
v -0.03355488 0.06199692 0.83208007
v -0.03355488 0.06199692 0.83208007
v -0.02309247 0.05642049 0.81646615
v -0.02309247 0.05642049 0.81646615
v -0.02309247 0.05642049 0.81646615
v 0.00000986 0.11218473 0.81646615
v 0.00000986 0.11218473 0.81646615
v 0.00000986 0.11218473 0.81646615
v 0.00000986 0.11218473 0.81646615
v 0.00000986 0.11218473 0.81646615
v 0.00000986 0.11218473 0.81646615
v 0.00000986 0.11218473 0.81646615
v 0.00000986 0.11218473 0.81646615
v 0.00000986 0.11218473 0.81646615
v 0.00000986 0.11218473 0.81646615
v 0.00000986 0.11218473 0.81646615
v 0.00000986 0.11218473 0.81646615
v 0.01180002 0.05296844 0.81646615
v 0.01180002 0.05296844 0.81646615
v 0.01180002 0.05296844 0.81646615
v 0.01180001 0.05296844 0.83208007
v 0.01180001 0.05296844 0.83208007
v 0.00000986 0.11218473 0.83208007
v 0.00000986 0.11218473 0.83208007
v 0.00000986 0.11218473 0.83208007
v 0.00000986 0.11218473 0.83208007
v 0.00000986 0.11218473 0.83208007
v 0.00000986 0.11218473 0.83208007
v 0.00000986 0.11218473 0.83208007
v -0.02309248 0.05642049 0.83208007
v -0.02309248 0.05642049 0.83208007
v -0.02309248 0.05642049 0.83208007
v -0.01178028 0.05296844 0.81646615
v -0.01178028 0.05296844 0.81646615
v -0.01178028 0.05296844 0.81646615
v 0.00000987 0.05180001 0.81646615
v 0.00000987 0.05180001 0.81646615
v 0.00000987 0.05180001 0.81646615
v 0.00000987 0.05180001 0.81646615
v 0.00000986 0.05180001 0.83208007
v 0.00000986 0.05180001 0.83208007
v 0.00000986 0.05180001 0.83208007
v -0.01178029 0.05296844 0.83208007
v -0.01178029 0.05296844 0.83208007
v -0.01178029 0.05296844 0.83208007
v 0.02868902 0.04293084 0.10523237
v 0.02868902 0.04293084 0.10523237
v 0.02868902 0.04293084 0.10523237
v 0.02868903 0.04293084 0.08940598
v 0.02868903 0.04293084 0.08940598
v 0.02868903 0.04293084 0.08940598
v 0.04164755 0.04983502 0.10523238
v 0.04164755 0.04983502 0.10523238
v 0.04164755 0.04983502 0.10523238
v 0.04164756 0.04983502 0.08940599
v 0.04164756 0.04983502 0.08940599
v 0.04164756 0.04983502 0.08940599
v 0.05301284 0.05918216 0.10523239
v 0.05301284 0.05918216 0.10523239
v 0.05301285 0.05918216 0.08940600
v 0.05301285 0.05918216 0.08940600
v 0.05301285 0.05918216 0.08940600
v 0.06235998 0.07054747 0.10523239
v 0.06235998 0.07054747 0.10523239
v 0.06235998 0.07054747 0.08940600
v 0.06235998 0.07054747 0.08940600
v 0.06235998 0.07054747 0.08940600
v 0.06931727 0.08350599 0.10523240
v 0.06931727 0.08350599 0.10523240
v 0.06931727 0.08350599 0.10523240
v 0.06931729 0.08350599 0.08940601
v 0.06931729 0.08350599 0.08940601
v 0.06931729 0.08350599 0.08940601
v 0.07356594 0.09757984 0.10523240
v 0.07356594 0.09757984 0.10523240
v 0.07356594 0.09757984 0.10523240
v 0.07356596 0.09757984 0.08940601
v 0.07356596 0.09757984 0.08940601
v 0.07499991 0.11218474 0.10523240
v 0.07499991 0.11218474 0.10523240
v 0.07499993 0.11218474 0.08940601
v 0.07499993 0.11218474 0.08940601
v 0.07356594 0.12684283 0.10523240
v 0.07356594 0.12684283 0.10523240
v 0.07356596 0.12684283 0.08940601
v 0.07356596 0.12684283 0.08940601
v 0.06931727 0.14091663 0.10523240
v 0.06931727 0.14091663 0.10523240
v 0.06931727 0.14091663 0.10523240
v 0.06931728 0.14091663 0.08940601
v 0.06931728 0.14091663 0.08940601
v 0.06235997 0.15387523 0.10523239
v 0.06235997 0.15387523 0.10523239
v 0.06235997 0.15387523 0.10523239
v 0.06235998 0.15387523 0.08940600
v 0.06235998 0.15387523 0.08940600
v 0.06235998 0.15387523 0.08940600
v 0.05301283 0.16524053 0.10523239
v 0.05301283 0.16524053 0.10523239
v 0.05301283 0.16524053 0.10523239
v 0.05301284 0.16524053 0.08940600
v 0.05301284 0.16524053 0.08940600
v 0.05301284 0.16524053 0.08940600
v 0.04164754 0.17453453 0.10523238
v 0.04164754 0.17453453 0.10523238
v 0.04164755 0.17453453 0.08940599
v 0.04164755 0.17453453 0.08940599
v 0.04164755 0.17453453 0.08940599
v 0.02868901 0.18149184 0.10523237
v 0.02868901 0.18149184 0.10523237
v 0.02868902 0.18149184 0.08940598
v 0.02868902 0.18149184 0.08940598
v 0.02868902 0.18149184 0.08940598
v 0.01461516 0.18574053 0.10523236
v 0.01461516 0.18574053 0.10523236
v 0.01461517 0.18574053 0.08940598
v 0.01461517 0.18574053 0.08940598
v 0.00001024 0.18717443 0.10523236
v 0.00001024 0.18717443 0.10523236
v 0.00001025 0.18717443 0.08940597
v 0.00001025 0.18717443 0.08940597
v -0.01464779 0.18574053 0.10523235
v -0.01464779 0.18574053 0.10523235
v -0.01464778 0.18574053 0.08940596
v -0.01464778 0.18574053 0.08940596
v -0.02872164 0.18149184 0.10523234
v -0.02872164 0.18149184 0.10523234
v -0.02872163 0.18149184 0.08940595
v -0.02872163 0.18149184 0.08940595
v -0.02872163 0.18149184 0.08940595
v -0.04168016 0.17453453 0.10523234
v -0.04168016 0.17453453 0.10523234
v -0.04168015 0.17453453 0.08940595
v -0.04168015 0.17453453 0.08940595
v -0.04168015 0.17453453 0.08940595
v -0.05304546 0.16524053 0.10523233
v -0.05304546 0.16524053 0.10523233
v -0.05304546 0.16524053 0.10523233
v -0.05304545 0.16524053 0.08940594
v -0.05304545 0.16524053 0.08940594
v -0.05304545 0.16524053 0.08940594
v -0.06233955 0.15387523 0.10523233
v -0.06233955 0.15387523 0.10523233
v -0.06233955 0.15387523 0.10523233
v -0.06233954 0.15387523 0.08940594
v -0.06233954 0.15387523 0.08940594
v -0.06233954 0.15387523 0.08940594
v -0.06929678 0.14091663 0.10523232
v -0.06929678 0.14091663 0.10523232
v -0.06929678 0.14091663 0.10523232
v -0.06929677 0.14091663 0.08940593
v -0.06929677 0.14091663 0.08940593
v -0.07354546 0.12684283 0.10523232
v -0.07354546 0.12684283 0.10523232
v -0.07354546 0.12684283 0.10523232
v -0.07354544 0.12684283 0.08940593
v -0.07354544 0.12684283 0.08940593
v -0.07497942 0.11218473 0.10523232
v -0.07497942 0.11218473 0.10523232
v -0.07497941 0.11218473 0.08940593
v -0.07497941 0.11218473 0.08940593
v -0.07354546 0.09757982 0.10523232
v -0.07354546 0.09757982 0.10523232
v -0.07354546 0.09757982 0.10523232
v -0.07354544 0.09757982 0.08940593
v -0.07354544 0.09757982 0.08940593
v -0.07354544 0.09757982 0.08940593
v -0.06929678 0.08350597 0.10523232
v -0.06929678 0.08350597 0.10523232
v -0.06929678 0.08350597 0.10523232
v -0.06929676 0.08350597 0.08940593
v -0.06929676 0.08350597 0.08940593
v -0.06929676 0.08350597 0.08940593
v -0.06233954 0.07054745 0.10523233
v -0.06233954 0.07054745 0.10523233
v -0.06233954 0.07054745 0.08940594
v -0.06233954 0.07054745 0.08940594
v -0.06233954 0.07054745 0.08940594
v -0.05304545 0.05918215 0.10523233
v -0.05304545 0.05918215 0.10523233
v -0.05304544 0.05918215 0.08940594
v -0.05304544 0.05918215 0.08940594
v -0.05304544 0.05918215 0.08940594
v -0.04168015 0.04983501 0.10523234
v -0.04168015 0.04983501 0.10523234
v -0.04168015 0.04983501 0.10523234
v -0.04168014 0.04983501 0.08940595
v -0.04168014 0.04983501 0.08940595
v -0.04168014 0.04983501 0.08940595
v -0.02872163 0.04293083 0.10523234
v -0.02872163 0.04293083 0.10523234
v -0.02872163 0.04293083 0.10523234
v -0.02872162 0.04293083 0.08940595
v -0.02872162 0.04293083 0.08940595
v -0.02872162 0.04293083 0.08940595
v 0.00001025 0.11218473 0.08940597
v 0.00001025 0.11218473 0.08940597
v 0.00001025 0.11218473 0.08940597
v 0.00001025 0.11218473 0.08940597
v 0.00001025 0.11218473 0.08940597
v 0.00001025 0.11218473 0.08940597
v 0.00001025 0.11218473 0.08940597
v 0.00001025 0.11218473 0.08940597
v 0.00001025 0.11218473 0.08940597
v 0.00001025 0.11218473 0.08940597
v 0.00001025 0.11218473 0.08940597
v 0.00001025 0.11218473 0.08940597
v 0.00001025 0.11218473 0.08940597
v 0.01461518 0.03862905 0.08940598
v 0.01461518 0.03862905 0.08940598
v 0.01461517 0.03862905 0.10523236
v 0.01461517 0.03862905 0.10523236
v 0.01461517 0.03862905 0.10523236
v 0.00001025 0.11218473 0.10523236
v 0.00001025 0.11218473 0.10523236
v 0.00001025 0.11218473 0.10523236
v 0.00001025 0.11218473 0.10523236
v 0.00001025 0.11218473 0.10523236
v 0.00001025 0.11218473 0.10523236
v 0.00001025 0.11218473 0.10523236
v 0.00001025 0.11218473 0.10523236
v 0.00001025 0.11218473 0.10523236
v 0.00001025 0.11218473 0.10523236
v 0.00001025 0.11218473 0.10523236
v 0.00001025 0.11218473 0.10523236
v 0.00001025 0.11218473 0.10523236
v -0.01464778 0.03862905 0.10523235
v -0.01464778 0.03862905 0.10523235
v -0.01464778 0.03862905 0.10523235
v -0.01464777 0.03862905 0.08940596
v -0.01464777 0.03862905 0.08940596
v 0.00001026 0.03719508 0.08940597
v 0.00001026 0.03719508 0.08940597
v 0.00001026 0.03719508 0.08940597
v 0.00001025 0.03719508 0.10523236
v 0.00001025 0.03719508 0.10523236
v 0.00001025 0.03719508 0.10523236
v 0.00001025 0.03719508 0.10523236
vn -0.00000009 1.00000000 0.00000000
vn 0.19436352 0.00810041 -0.98089618
vn -0.00000009 1.00000000 -0.00000033
vn -0.00000009 1.00000000 0.00000066
vn -0.00000009 1.00000000 -0.00000066
vn -0.00000009 1.00000000 0.00000066
vn -0.00000009 1.00000000 0.00000016
vn -0.00000009 1.00000000 0.00000033
vn -0.00000009 1.00000000 -0.00000066
vn -0.00000009 1.00000000 0.00000000
vn -0.00000009 1.00000000 0.00000066
vn 0.38197371 0.00517938 -0.92415869
vn -0.00000009 1.00000000 0.00000000
vn -0.00000009 1.00000000 0.00000000
vn 0.55411112 0.00267475 -0.83243853
vn -0.00000009 1.00000000 0.00000000
vn 0.70646346 -0.00007030 -0.70774955
vn 0.83078522 -0.00363480 -0.55658126
vn -0.00000009 1.00000000 0.00000066
vn -0.00000009 1.00000000 0.00000000
vn -0.00000009 1.00000000 0.00000000
vn -0.00000009 1.00000000 0.00000066
vn 0.92329305 -0.00643847 -0.38404208
vn -0.00000009 1.00000000 0.00000000
vn 0.98063493 -0.00807163 -0.19567908
vn 0.99995703 -0.00927815 0.00004982
vn -0.00000009 1.00000000 0.00000000
vn -0.00000009 1.00000000 0.00000000
vn 0.98060709 -0.00809339 0.19581682
vn 0.92330992 -0.00643335 0.38400212
vn -0.00000009 1.00000000 0.00000000
vn -0.00000009 1.00000000 -0.00000066
vn -0.00000009 1.00000000 0.00000033
vn 0.83039910 -0.00267784 0.55716282
vn -0.00000009 1.00000000 -0.00000066
vn 0.70642155 0.00003096 0.70779145
vn -0.00000009 1.00000000 0.00000000
vn -0.00000009 1.00000000 0.00000033
vn -0.00000009 1.00000000 0.00000016
vn 0.55472618 0.00410240 0.83202290
vn 0.55469871 0.00410502 0.83204132
vn -0.00000009 1.00000000 0.00000000
vn -0.00000009 1.00000000 0.00000000
vn 0.38129970 0.00786814 0.92441797
vn -0.00000009 1.00000000 0.00000016
vn -0.00000009 1.00000000 0.00000000
vn 0.19447307 0.00913681 0.98086530
vn -0.00000009 1.00000000 0.00000000
vn -0.00003505 0.00927520 0.99995703
vn -0.00000009 1.00000000 0.00000000
vn -0.19430722 0.00814812 0.98090696
vn -0.00000009 1.00000000 0.00000000
vn -0.38197950 0.00512161 0.92415673
vn -0.00000009 1.00000000 0.00000000
vn -0.55410701 0.00277336 0.83244079
vn -0.00000009 1.00000000 0.00000066
vn -0.70636457 -0.00003709 0.70784825
vn -0.00000009 1.00000000 0.00000000
vn -0.00000009 1.00000000 0.00000066
vn -0.00000009 1.00000000 -0.00000066
vn -0.83099037 -0.00406010 0.55627197
vn -0.00000009 1.00000000 -0.00000066
vn -0.00000009 1.00000000 0.00000000
vn -0.92332315 -0.00642284 0.38397020
vn -0.00000009 1.00000000 0.00000000
vn -0.98065162 -0.00809261 0.19559368
vn -0.99996042 -0.00890270 -0.00003259
vn -0.00000009 1.00000000 0.00000000
vn -0.98062789 -0.00813469 -0.19571112
vn -0.00000009 1.00000000 0.00000000
vn -0.00000009 1.00000000 0.00000000
vn -0.00000009 1.00000000 0.00000066
vn -0.92332095 -0.00642194 -0.38397589
vn -0.00000009 1.00000000 -0.00000033
vn -0.83038318 -0.00281782 -0.55718559
vn -0.00000009 1.00000000 0.00000066
vn -0.00000009 1.00000000 -0.00000033
vn -0.70639247 0.00000023 -0.70782048
vn -0.00000009 1.00000000 0.00000000
vn -0.55472279 0.00409133 -0.83202517
vn -0.00000009 1.00000000 0.00000000
vn -0.00000009 1.00000000 0.00000000
vn -0.38130358 0.00770726 -0.92441779
vn -0.19448409 0.00913678 -0.98086309
vn -0.00000009 1.00000000 0.00000000
vn -0.00000009 1.00000000 0.00000000
vn 0.00000898 0.00907600 -0.99995887
vn 0.00000009 -1.00000000 0.00000000
vn 0.19469242 0.00928988 -0.98082036
vn 0.38246441 0.00627449 -0.92394894
vn 0.00000009 -1.00000000 0.00000016
vn 0.00000009 -1.00000000 0.00000000
vn 0.00000009 -1.00000000 0.00000016
vn 0.55472243 0.00397264 -0.83202601
vn 0.00000009 -1.00000000 0.00000000
vn 0.70634127 0.00000521 -0.70787156
vn 0.00000009 -1.00000000 0.00000000
vn 0.83097511 -0.00406300 -0.55629486
vn 0.00000009 -1.00000000 0.00000000
vn 0.00000009 -1.00000000 0.00000000
vn 0.00000009 -1.00000000 -0.00000033
vn 0.92330247 -0.00652168 -0.38401839
vn 0.00000009 -1.00000000 -0.00000033
vn 0.98066091 -0.00809720 -0.19554728
vn 0.00000009 -1.00000000 0.00000000
vn 0.00000009 -1.00000000 0.00000000
vn 0.99995703 -0.00927845 0.00004806
vn 0.00000009 -1.00000000 0.00000033
vn 0.98062438 -0.00807420 0.19573152
vn 0.00000009 -1.00000000 0.00000000
vn 0.00000009 -1.00000000 0.00000033
vn 0.00000009 -1.00000000 0.00000000
vn 0.92376381 -0.00770155 0.38288552
vn 0.00000009 -1.00000000 0.00000000
vn 0.83097869 -0.00408678 0.55628920
vn 0.70633906 0.00000050 0.70787388
vn 0.00000009 -1.00000000 0.00000000
vn 0.00000009 -1.00000000 0.00000016
vn 0.00000009 -1.00000000 -0.00000016
vn 0.55475020 0.00409596 0.83200687
vn 0.55469817 0.00410091 0.83204162
vn 0.00000009 -1.00000000 0.00000016
vn 0.00000009 -1.00000000 0.00000000
vn 0.00000009 -1.00000000 -0.00000016
vn 0.38233659 0.00644198 0.92400080
vn 0.19431828 0.00804670 0.98090559
vn 0.00000009 -1.00000000 0.00000000
vn 0.00000009 -1.00000000 0.00000000
vn -0.00000300 0.00892550 0.99996030
vn 0.00000009 -1.00000000 -0.00000016
vn -0.19447122 0.00926952 0.98086458
vn 0.00000009 -1.00000000 0.00000000
vn -0.38250041 0.00631842 0.92393374
vn 0.00000009 -1.00000000 -0.00000016
vn 0.00000009 -1.00000000 0.00000000
vn -0.55472243 0.00403697 0.83202571
vn 0.00000009 -1.00000000 0.00000000
vn -0.70640987 -0.00001120 0.70780307
vn 0.00000009 -1.00000000 0.00000000
vn -0.83102042 -0.00409539 0.55622691
vn 0.00000009 -1.00000000 0.00000000
vn -0.92329520 -0.00644984 0.38403699
vn 0.00000009 -1.00000000 0.00000000
vn -0.98062760 -0.00810596 0.19571418
vn 0.00000009 -1.00000000 0.00000000
vn -0.99996042 -0.00889852 0.00011059
vn 0.00000009 -1.00000000 0.00000000
vn -0.98062950 -0.00811347 -0.19570422
vn 0.00000009 -1.00000000 0.00000000
vn 0.00000009 -1.00000000 0.00000000
vn -0.92372304 -0.00765648 -0.38298470
vn -0.83097953 -0.00408490 -0.55628800
vn 0.00000009 -1.00000000 0.00000000
vn -0.70638186 -0.00005473 -0.70783109
vn 0.00000009 -1.00000000 0.00000000
vn 0.00000009 -1.00000000 0.00000016
vn 0.00000009 -1.00000000 -0.00000016
vn 0.00000009 -1.00000000 0.00000016
vn -0.55471337 0.00411970 -0.83203137
vn 0.00000009 -1.00000000 -0.00000016
vn 0.00000009 -1.00000000 0.00000000
vn -0.38239640 0.00638380 -0.92397630
vn -0.19436418 0.00810014 -0.98089600
vn 0.00000009 -1.00000000 0.00000000
vn 0.00000009 -1.00000000 0.00000000
vn 0.00003405 0.00927466 -0.99995703
vn 0.00000009 -1.00000000 0.00000016
vn 0.00000009 -1.00000000 -0.00000016
vn 0.00000009 -1.00000000 -0.00000016
vn 0.00000009 -1.00000000 0.00000016
vn 0.00000009 -1.00000000 0.00000033
vn 0.00000009 -1.00000000 0.00000016
vn 0.00000009 -1.00000000 0.00000000
vn 0.00000009 -1.00000000 -0.00000033
vn 0.00000578 0.00000000 -1.00000000
vn -0.00000992 -0.00000000 -1.00000000
vn 0.38290820 -0.92378646 0.00000021
vn 0.55593258 -0.83122754 0.00000030
vn -0.00000992 -0.00000000 -1.00000000
vn 0.00001103 0.00000000 -1.00000000
vn 0.38290739 -0.92378676 0.00000021
vn -0.00000054 -0.00000000 1.00000000
vn -0.00000054 -0.00000000 1.00000000
vn 0.55584824 -0.83128375 0.00000030
vn -0.00000996 -0.00000000 -1.00000000
vn 0.00001103 0.00000000 -1.00000000
vn 0.70640093 -0.70781195 0.00000038
vn -0.00000054 -0.00000000 1.00000000
vn 0.70647126 -0.70774186 0.00000038
vn -0.00000996 -0.00000000 -1.00000000
vn -0.00000469 -0.00000000 -1.00000000
vn 0.83131135 -0.55580711 0.00000045
vn -0.00000054 -0.00000000 1.00000000
vn 0.83128369 -0.55584866 0.00000045
vn 0.92378688 -0.38290730 0.00000050
vn -0.00000469 -0.00000000 -1.00000000
vn 0.00000054 0.00000000 -1.00000000
vn -0.00000054 -0.00000000 1.00000000
vn 0.92378718 -0.38290632 0.00000050
vn 0.00000054 0.00000000 -1.00000000
vn 0.98070020 -0.19551761 0.00000053
vn 0.98071051 -0.19546631 0.00000053
vn -0.00000054 -0.00000000 1.00000000
vn 1.00000000 -0.00000144 0.00000054
vn 0.00000054 0.00000000 -1.00000000
vn 1.00000000 0.00000162 0.00000054
vn -0.00000054 -0.00000000 1.00000000
vn 0.98068148 0.19561189 0.00000053
vn 0.00000316 0.00000000 -1.00000000
vn 0.00000054 0.00000000 -1.00000000
vn -0.00000054 -0.00000000 1.00000000
vn 0.98070020 0.19551799 0.00000053
vn 0.00000316 0.00000000 -1.00000000
vn 0.92378801 0.38290420 0.00000050
vn 0.00000054 0.00000000 -1.00000000
vn 0.92378557 0.38291049 0.00000050
vn 0.00000469 0.00000000 1.00000000
vn -0.00000054 -0.00000000 1.00000000
vn 0.83131182 0.55580634 0.00000045
vn 0.00000054 0.00000000 -1.00000000
vn 0.83128065 0.55585283 0.00000045
vn 0.00000469 0.00000000 1.00000000
vn -0.00001103 -0.00000000 1.00000000
vn 0.00000054 0.00000000 -1.00000000
vn 0.70639515 0.70781767 0.00000038
vn -0.00000054 -0.00000000 1.00000000
vn -0.00001103 -0.00000000 1.00000000
vn 0.70639181 0.70782107 0.00000038
vn 0.00000054 0.00000000 -1.00000000
vn 0.55629814 0.83098286 0.00000030
vn 0.55629212 0.83098686 0.00000030
vn -0.00000054 -0.00000000 1.00000000
vn 0.38291022 0.92378557 0.00000021
vn 0.00000054 0.00000000 -1.00000000
vn -0.00000054 -0.00000000 1.00000000
vn 0.38290340 0.92378849 0.00000021
vn 0.19538701 0.98072630 0.00000072
vn 0.00000054 0.00000000 -1.00000000
vn -0.00000054 -0.00000000 1.00000000
vn 0.19538191 0.98072731 0.00000010
vn 0.00000054 0.00000000 -1.00000000
vn 0.00000128 1.00000000 0.00000000
vn -0.00000054 -0.00000000 1.00000000
vn -0.00000198 1.00000000 -0.00000000
vn 0.00000054 0.00000000 -1.00000000
vn -0.19538449 0.98072678 -0.00000010
vn -0.19538619 0.98072642 -0.00000010
vn -0.00000054 -0.00000000 1.00000000
vn -0.38290820 0.92378646 -0.00000021
vn 0.00000054 0.00000000 -1.00000000
vn -0.38290760 0.92378664 -0.00000021
vn -0.00000054 -0.00000000 1.00000000
vn -0.55629456 0.83098525 -0.00000030
vn 0.00000054 0.00000000 -1.00000000
vn -0.55629438 0.83098537 -0.00000030
vn -0.00000054 -0.00000000 1.00000000
vn 0.00000054 0.00000000 -1.00000000
vn -0.70647109 0.70774192 -0.00000038
vn -0.70640224 0.70781076 -0.00000038
vn -0.00000054 -0.00000000 1.00000000
vn 0.00000470 0.00000000 1.00000000
vn 0.00000054 0.00000000 -1.00000000
vn -0.83098525 0.55629456 -0.00000045
vn -0.00000576 -0.00000000 1.00000000
vn -0.83098578 0.55629385 -0.00000045
vn 0.00000470 0.00000000 1.00000000
vn 0.00000054 0.00000000 -1.00000000
vn -0.92378658 0.38290781 -0.00000050
vn -0.92368418 0.38315511 0.00011884
vn -0.00000054 -0.00000000 1.00000000
vn -0.00000576 -0.00000000 1.00000000
vn -0.98072177 0.19540901 -0.00000534
vn 0.00000054 0.00000000 -1.00000000
vn -0.98072737 0.19538142 0.00002408
vn -0.00000054 -0.00000000 1.00000000
vn -1.00000000 0.00000992 0.00001025
vn 0.00000054 0.00000000 -1.00000000
vn -1.00000000 0.00000702 0.00000699
vn -0.00000054 -0.00000000 1.00000000
vn -0.98072278 -0.19540429 0.00000131
vn -0.00000208 -0.00000000 -1.00000000
vn 0.00000054 0.00000000 -1.00000000
vn -0.98072499 -0.19539359 0.00006428
vn -0.00000054 -0.00000000 1.00000000
vn -0.92363292 -0.38327798 0.00002347
vn 0.00000054 0.00000000 -1.00000000
vn -0.00000208 -0.00000000 -1.00000000
vn -0.92361575 -0.38331968 -0.00000149
vn -0.00000054 -0.00000000 1.00000000
vn -0.83098751 -0.55629104 -0.00000045
vn 0.00000577 0.00000000 -1.00000000
vn 0.00000054 0.00000000 -1.00000000
vn -0.00000054 -0.00000000 1.00000000
vn -0.83098364 -0.55629677 -0.00000045
vn 0.00000577 0.00000000 -1.00000000
vn -0.00000996 -0.00000000 -1.00000000
vn -0.70637661 -0.70783627 -0.00000038
vn -0.70637125 -0.70784158 -0.00000038
vn -0.00000054 -0.00000000 1.00000000
vn 0.00001100 0.00000000 -1.00000000
vn -0.00000996 -0.00000000 -1.00000000
vn -0.55585241 -0.83128119 0.00000028
vn -0.00000054 -0.00000000 1.00000000
vn -0.00000184 -0.00000000 1.00000000
vn -0.55576253 -0.83134127 -0.00000030
vn 0.00001100 0.00000000 -1.00000000
vn -0.00000995 -0.00000000 -1.00000000
vn -0.38291040 -0.92378569 -0.00000021
vn -0.00000028 -0.00000000 -1.00000000
vn -0.00000995 -0.00000000 -1.00000000
vn 0.00000578 0.00000000 -1.00000000
vn -0.00000992 -0.00000000 -1.00000000
vn 0.00001100 0.00000000 -1.00000000
vn 0.00000316 0.00000000 -1.00000000
vn -0.00000208 -0.00000000 -1.00000000
vn 0.00000577 0.00000000 -1.00000000
vn -0.00000996 -0.00000000 -1.00000000
vn 0.00001103 0.00000000 -1.00000000
vn -0.00000469 -0.00000000 -1.00000000
vn 0.00000054 0.00000000 -1.00000000
vn 0.00000578 0.00000000 -1.00000000
vn -0.00000028 -0.00000000 -1.00000000
vn 0.19546729 -0.98071033 0.00000010
vn 0.19546929 -0.98070991 0.00000010
vn -0.00000054 -0.00000000 1.00000000
vn -0.00001103 -0.00000000 1.00000000
vn 0.00000470 0.00000000 1.00000000
vn -0.00000576 -0.00000000 1.00000000
vn -0.00000184 -0.00000000 1.00000000
vn 0.00000340 0.00000000 1.00000000
vn 0.00000469 0.00000000 1.00000000
vn -0.00000054 -0.00000000 1.00000000
vn -0.00000184 -0.00000000 1.00000000
vn -0.38290340 -0.92378849 -0.00000021
vn 0.00000340 0.00000000 1.00000000
vn -0.00000995 -0.00000000 -1.00000000
vn -0.19551831 -0.98070008 -0.00000010
vn 0.00000054 0.00000000 -1.00000000
vn 0.00000054 0.00000000 -1.00000000
vn 0.00002390 -1.00000000 0.00000471
vn -0.00000028 -0.00000000 -1.00000000
vn -0.00002372 -1.00000000 0.00000473
vn -0.00000054 -0.00000000 1.00000000
vn -0.00002372 -1.00000000 -0.00000471
vn 0.00002389 -1.00000000 -0.00000473
vn -0.00000054 -0.00000000 1.00000000
vn 0.00000340 0.00000000 1.00000000
vn -0.19561142 -0.98068148 -0.00000010
vn 0.38303918 -0.92373204 0.00000021
vn 0.00000031 0.00000000 1.00000000
vn -0.00000138 -0.00000000 1.00000000
vn 0.00000139 0.00000000 -1.00000000
vn 0.38350520 -0.92353886 0.00000021
vn 0.00000054 0.00000000 -1.00000000
vn 0.00000031 0.00000000 1.00000000
vn -0.00000054 -0.00000000 1.00000000
vn 0.55544478 -0.83155352 0.00000030
vn 0.00000139 0.00000000 -1.00000000
vn -0.00000031 -0.00000000 -1.00000000
vn 0.55586475 -0.83127284 0.00000030
vn 0.70632786 -0.70788485 0.00000038
vn -0.00000054 -0.00000000 1.00000000
vn -0.00000031 -0.00000000 -1.00000000
vn 0.70640236 -0.70781046 0.00000087
vn 0.00000054 0.00000000 -1.00000000
vn 0.83108127 -0.55615115 0.00000045
vn -0.00000054 -0.00000000 1.00000000
vn 0.83108425 -0.55614674 0.00000045
vn 0.00000054 0.00000000 -1.00000000
vn 0.00000096 0.00000000 -1.00000000
vn 0.92378157 -0.38292012 0.00000050
vn -0.00000054 -0.00000000 1.00000000
vn -0.00000032 -0.00000000 1.00000000
vn 0.00000096 0.00000000 -1.00000000
vn 0.00000054 0.00000000 -1.00000000
vn 0.92378354 -0.38291532 0.00000050
vn 0.98071128 -0.19546200 0.00000053
vn -0.00000054 -0.00000000 1.00000000
vn -0.00000032 -0.00000000 1.00000000
vn 0.98072213 -0.19540791 0.00000053
vn 0.00000054 0.00000000 -1.00000000
vn -0.00000054 -0.00000000 1.00000000
vn 1.00000000 -0.00017875 0.00000054
vn 0.00000054 0.00000000 -1.00000000
vn 1.00000000 -0.00017335 0.00000054
vn -0.00000054 -0.00000000 1.00000000
vn 0.98073691 0.19533369 0.00000053
vn 0.00000054 0.00000000 -1.00000000
vn 0.98075539 0.19524069 0.00000053
vn -0.00000138 -0.00000000 1.00000000
vn -0.00000054 -0.00000000 1.00000000
vn 0.92378336 0.38291580 0.00000050
vn 0.00000054 0.00000000 -1.00000000
vn 0.92378145 0.38292030 0.00000050
vn -0.00000138 -0.00000000 1.00000000
vn 0.00000031 0.00000000 1.00000000
vn 0.83108413 0.55614686 0.00000045
vn 0.00000138 0.00000000 -1.00000000
vn 0.83113682 0.55606806 0.00000045
vn 0.00000054 0.00000000 -1.00000000
vn -0.00000054 -0.00000000 1.00000000
vn 0.70612001 0.70809215 0.00000038
vn 0.00000031 0.00000000 1.00000000
vn 0.00000138 0.00000000 -1.00000000
vn 0.70777696 0.70643604 0.00000038
vn -0.00000031 -0.00000000 -1.00000000
vn -0.00000054 -0.00000000 1.00000000
vn 0.55561256 0.83144146 0.00000030
vn 0.00000138 0.00000000 -1.00000000
vn -0.00000031 -0.00000000 -1.00000000
vn 0.55560845 0.83144414 0.00000030
vn -0.00000054 -0.00000000 1.00000000
vn 0.38292021 0.92378134 0.00000021
vn 0.38291550 0.92378348 0.00000021
vn 0.00000138 0.00000000 -1.00000000
vn 0.00000054 0.00000000 -1.00000000
vn 0.19536401 0.98073077 0.00000010
vn -0.00000054 -0.00000000 1.00000000
vn 0.19545682 0.98071241 0.00000010
vn 0.00000054 0.00000000 -1.00000000
vn 0.00017877 1.00000000 0.00000000
vn -0.00000054 -0.00000000 1.00000000
vn 0.00017340 1.00000000 0.00000000
vn 0.00000054 0.00000000 -1.00000000
vn -0.19528408 0.98074681 -0.00000010
vn -0.00000054 -0.00000000 1.00000000
vn 0.00000054 0.00000000 -1.00000000
vn -0.19524048 0.98075539 -0.00000010
vn -0.00000054 -0.00000000 1.00000000
vn -0.38291550 0.92378336 -0.00000021
vn -0.38292059 0.92378122 -0.00000021
vn -0.00000031 -0.00000000 -1.00000000
vn 0.00000054 0.00000000 -1.00000000
vn -0.00000054 -0.00000000 1.00000000
vn -0.55560798 0.83144444 -0.00000030
vn 0.00000139 0.00000000 -1.00000000
vn -0.00000031 -0.00000000 -1.00000000
vn -0.55561268 0.83144134 -0.00000030
vn -0.70632696 0.70788586 -0.00000038
vn -0.00000139 -0.00000000 1.00000000
vn -0.00000054 -0.00000000 1.00000000
vn -0.70647234 0.70774066 -0.00000038
vn 0.00000139 0.00000000 -1.00000000
vn -0.00000031 -0.00000000 -1.00000000
vn -0.00000011 -0.00000000 1.00000000
vn -0.00000139 -0.00000000 1.00000000
vn -0.83144146 0.55561256 -0.00000045
vn -0.00000031 -0.00000000 -1.00000000
vn 0.00000054 0.00000000 -1.00000000
vn -0.83144456 0.55560774 -0.00000045
vn -0.92378157 0.38292033 -0.00000050
vn -0.00000011 -0.00000000 1.00000000
vn -0.00000075 -0.00000000 1.00000000
vn 0.00000054 0.00000000 -1.00000000
vn -0.92378378 0.38291481 -0.00000050
vn -0.00000054 -0.00000000 1.00000000
vn -0.00000075 -0.00000000 1.00000000
vn -0.98074567 0.19528921 -0.00000053
vn 0.00000054 0.00000000 -1.00000000
vn -0.98075652 0.19523510 -0.00000053
vn -1.00000000 -0.00017383 -0.00000054
vn -0.00000054 -0.00000000 1.00000000
vn -1.00000000 -0.00017866 -0.00000054
vn 0.00000054 0.00000000 -1.00000000
vn -0.00000096 -0.00000000 1.00000000
vn -0.00000054 -0.00000000 1.00000000
vn -0.98073190 -0.19535899 -0.00000053
vn 0.00000075 0.00000000 -1.00000000
vn -0.98073077 -0.19536389 -0.00000053
vn 0.00000054 0.00000000 -1.00000000
vn -0.00000054 -0.00000000 1.00000000
vn -0.00000096 -0.00000000 1.00000000
vn -0.92378366 -0.38291508 -0.00000050
vn 0.00000054 0.00000000 -1.00000000
vn -0.92364746 -0.38324338 -0.00000050
vn 0.00000075 0.00000000 -1.00000000
vn -0.83144444 -0.55560798 -0.00000045
vn -0.00000054 -0.00000000 1.00000000
vn 0.00000011 0.00000000 -1.00000000
vn 0.00000054 0.00000000 -1.00000000
vn -0.83144146 -0.55561244 -0.00000045
vn -0.70640045 -0.70781249 -0.00000038
vn -0.00000054 -0.00000000 1.00000000
vn 0.00000011 0.00000000 -1.00000000
vn 0.00000138 0.00000000 -1.00000000
vn -0.70643205 -0.70778108 -0.00000038
vn -0.00000139 -0.00000000 1.00000000
vn -0.55594742 -0.83121747 -0.00000030
vn -0.00000054 -0.00000000 1.00000000
vn -0.55586004 -0.83127594 -0.00000013
vn -0.00000031 -0.00000000 -1.00000000
vn 0.00000138 0.00000000 -1.00000000
vn 0.00000015 0.00000000 1.00000000
vn -0.00000139 -0.00000000 1.00000000
vn -0.38304380 -0.92373014 -0.00000021
vn -0.38303912 -0.92373216 -0.00000021
vn 0.00000054 0.00000000 -1.00000000
vn -0.00000031 -0.00000000 -1.00000000
vn 0.00000054 0.00000000 -1.00000000
vn 0.00000011 0.00000000 -1.00000000
vn 0.00000138 0.00000000 -1.00000000
vn 0.00000139 0.00000000 -1.00000000
vn 0.00000139 0.00000000 -1.00000000
vn -0.00000031 -0.00000000 -1.00000000
vn 0.00000138 0.00000000 -1.00000000
vn -0.00000031 -0.00000000 -1.00000000
vn -0.00000031 -0.00000000 -1.00000000
vn -0.00000031 -0.00000000 -1.00000000
vn 0.00000075 0.00000000 -1.00000000
vn -0.00000031 -0.00000000 -1.00000000
vn 0.00000096 0.00000000 -1.00000000
vn 0.19598089 -0.98060781 0.00000011
vn 0.00000054 0.00000000 -1.00000000
vn 0.19563238 -0.98067731 0.00000010
vn -0.00000054 -0.00000000 1.00000000
vn -0.00000138 -0.00000000 1.00000000
vn -0.00000139 -0.00000000 1.00000000
vn 0.00000015 0.00000000 1.00000000
vn -0.00000115 -0.00000000 1.00000000
vn -0.00000096 -0.00000000 1.00000000
vn -0.00000075 -0.00000000 1.00000000
vn -0.00000139 -0.00000000 1.00000000
vn 0.00000031 0.00000000 1.00000000
vn -0.00000138 -0.00000000 1.00000000
vn -0.00000138 -0.00000000 1.00000000
vn -0.00000054 -0.00000000 1.00000000
vn -0.00000032 -0.00000000 1.00000000
vn 0.00000031 0.00000000 1.00000000
vn -0.00000011 -0.00000000 1.00000000
vn -0.00000115 -0.00000000 1.00000000
vn -0.19580790 -0.98064232 -0.00000011
vn 0.00000015 0.00000000 1.00000000
vn -0.19580270 -0.98064327 -0.00000011
vn 0.00000054 0.00000000 -1.00000000
vn 0.00002604 -1.00000000 0.00000467
vn 0.00000054 0.00000000 -1.00000000
vn -0.00000908 -1.00000000 0.00000467
vn 0.00002605 -1.00000000 -0.00000469
vn -0.00000115 -0.00000000 1.00000000
vn -0.00000908 -1.00000000 -0.00000465
vn -0.00000054 -0.00000000 1.00000000
vt 0.84439778 0.88542140
vt 0.09767484 0.67925161
vt 0.88483697 0.88144761
vt 0.88483697 0.88144761
vt 0.88483697 0.88144761
vt 0.88483697 0.88144761
vt 0.88483697 0.88144761
vt 0.88483697 0.88144761
vt 0.88483697 0.88144761
vt 0.88483697 0.88144761
vt 0.88483697 0.88144761
vt 0.08972722 0.67925161
vt 0.84603411 0.89336902
vt 0.84907287 0.90073222
vt 0.08166277 0.67925161
vt 0.85351407 0.90739411
vt 0.07371515 0.67925161
vt 0.06576758 0.67925161
vt 0.85912418 0.91300422
vt 0.85912418 0.91300422
vt 0.86566931 0.91744548
vt 0.86566931 0.91744548
vt 0.05770313 0.67925161
vt 0.87303251 0.92048430
vt 0.04975551 0.67925161
vt 0.04180794 0.67925161
vt 0.88086319 0.92200369
vt 0.88881081 0.92200369
vt 0.03386032 0.67925161
vt 0.02591276 0.67925161
vt 0.89664149 0.92048430
vt 0.89664149 0.92048430
vt 0.90400481 0.91744548
vt 0.01796513 0.67925161
vt 0.90400481 0.91744548
vt 0.00990069 0.67925161
vt 0.91054982 0.91300422
vt 0.91054982 0.91300422
vt 0.91627681 0.90727723
vt 0.00195312 0.67925161
vt 0.25721100 0.67925161
vt 0.91627681 0.90727723
vt 0.92060119 0.90061528
vt 0.24926341 0.67925161
vt 0.92060119 0.90061528
vt 0.92364001 0.89325208
vt 0.24131590 0.67925161
vt 0.92527622 0.88542140
vt 0.23325139 0.67925161
vt 0.92527622 0.87735689
vt 0.22530380 0.67925161
vt 0.92364001 0.86952621
vt 0.21735620 0.67925161
vt 0.92060119 0.86216301
vt 0.20929170 0.67925161
vt 0.91627681 0.85550112
vt 0.20134410 0.67925161
vt 0.91627681 0.85550112
vt 0.91054982 0.84989101
vt 0.91054982 0.84989101
vt 0.19339649 0.67925161
vt 0.90400481 0.84544969
vt 0.90400481 0.84544969
vt 0.18544900 0.67925161
vt 0.89664149 0.84241092
vt 0.17738450 0.67925161
vt 0.16943690 0.67925161
vt 0.88881081 0.84077472
vt 0.16148929 0.67925161
vt 0.88086319 0.84089148
vt 0.87303251 0.84241092
vt 0.87303251 0.84241092
vt 0.15354170 0.67925161
vt 0.86566931 0.84544969
vt 0.14559411 0.67925161
vt 0.86566931 0.84544969
vt 0.85912418 0.84989101
vt 0.13752970 0.67925161
vt 0.85912418 0.84989101
vt 0.12958211 0.67925161
vt 0.85351407 0.85561788
vt 0.84907287 0.86227989
vt 0.12163450 0.67925161
vt 0.11368690 0.67925161
vt 0.84603411 0.86964309
vt 0.84439778 0.87747377
vt 0.10562240 0.67925161
vt 0.60702193 0.89956337
vt 0.09767484 0.66838211
vt 0.08972722 0.66838211
vt 0.61146331 0.89301842
vt 0.61146331 0.89301842
vt 0.61707330 0.88729137
vt 0.08166277 0.66838211
vt 0.61707330 0.88729137
vt 0.07371515 0.66838211
vt 0.62373531 0.88285011
vt 0.06576758 0.66838211
vt 0.63109851 0.87981129
vt 0.63892919 0.87829190
vt 0.63892919 0.87829190
vt 0.05770313 0.66838211
vt 0.64687681 0.87829190
vt 0.04975551 0.66838211
vt 0.64687681 0.87829190
vt 0.65470749 0.87981129
vt 0.04180794 0.66838211
vt 0.66207069 0.88285011
vt 0.03386032 0.66838211
vt 0.66207069 0.88285011
vt 0.66873270 0.88729137
vt 0.66873270 0.88729137
vt 0.02591276 0.66838211
vt 0.67434269 0.89301842
vt 0.01796513 0.66838211
vt 0.00990069 0.66838211
vt 0.67878401 0.89956337
vt 0.67878401 0.89956337
vt 0.68182278 0.90692657
vt 0.00195312 0.66838211
vt 0.25721100 0.66838211
vt 0.68182278 0.90692657
vt 0.68345910 0.91475737
vt 0.68345910 0.91475737
vt 0.24926341 0.66838211
vt 0.24131590 0.66838211
vt 0.68345910 0.92282182
vt 0.68182278 0.93065250
vt 0.23325139 0.66838211
vt 0.67878401 0.93801582
vt 0.22530380 0.66838211
vt 0.67878401 0.93801582
vt 0.21735620 0.66838211
vt 0.67434269 0.94456083
vt 0.67434269 0.94456083
vt 0.20929170 0.66838211
vt 0.66873270 0.95028782
vt 0.20134410 0.66838211
vt 0.66207069 0.95472908
vt 0.19339649 0.66838211
vt 0.65470749 0.95776790
vt 0.18544900 0.66838211
vt 0.64687681 0.95928723
vt 0.17738450 0.66838211
vt 0.63892919 0.95928723
vt 0.16943690 0.66838211
vt 0.63109851 0.95776790
vt 0.16148929 0.66838211
vt 0.62373531 0.95472908
vt 0.61707330 0.95028782
vt 0.15354170 0.66838211
vt 0.14559411 0.66838211
vt 0.61146331 0.94456083
vt 0.13752970 0.66838211
vt 0.60702193 0.93801582
vt 0.60702193 0.93801582
vt 0.60398322 0.93065250
vt 0.60398322 0.93065250
vt 0.12958211 0.66838211
vt 0.60234690 0.92282182
vt 0.60234690 0.92282182
vt 0.12163450 0.66838211
vt 0.11368690 0.66838211
vt 0.60234690 0.91475737
vt 0.60398322 0.90692657
vt 0.10562240 0.66838211
vt 0.64290297 0.91873121
vt 0.64290297 0.91873121
vt 0.64290297 0.91873121
vt 0.64290297 0.91873121
vt 0.64290297 0.91873121
vt 0.64290297 0.91873121
vt 0.64290297 0.91873121
vt 0.64290297 0.91873121
vt 0.92586058 0.62794280
vt 0.92586058 0.62794280
vt 0.79367352 0.24190021
vt 0.79367352 0.23395260
vt 0.93030190 0.62128091
vt 0.93030190 0.62128091
vt 0.80430919 0.24190021
vt 0.95356029 0.79379040
vt 0.95356029 0.80173790
vt 0.80430919 0.23395260
vt 0.93345761 0.61391771
vt 0.93345761 0.61391771
vt 0.79367352 0.22588810
vt 0.95204091 0.80956870
vt 0.80430919 0.22588810
vt 0.93497688 0.60608691
vt 0.93497688 0.60608691
vt 0.79367352 0.21794049
vt 0.94900209 0.81704873
vt 0.80430919 0.21794049
vt 0.79367352 0.20987611
vt 0.93497688 0.59802252
vt 0.93497688 0.59802252
vt 0.94456083 0.82371068
vt 0.80430919 0.20987611
vt 0.93345761 0.59019172
vt 0.79367352 0.20192850
vt 0.80430919 0.20192850
vt 0.93883389 0.82932073
vt 0.79367352 0.19386400
vt 0.93030190 0.58282852
vt 0.80430919 0.19386400
vt 0.93217200 0.83376211
vt 0.79367352 0.18591639
vt 0.92586058 0.57616663
vt 0.92586058 0.57616663
vt 0.92480880 0.83680081
vt 0.80430919 0.18591639
vt 0.92025048 0.57055652
vt 0.79367352 0.17796880
vt 0.92025048 0.57055652
vt 0.80430919 0.17796880
vt 0.91697800 0.83843708
vt 0.91697800 0.83843708
vt 0.79367352 0.16990440
vt 0.91358858 0.56611520
vt 0.80430919 0.16990440
vt 0.90903038 0.83843708
vt 0.90903038 0.83843708
vt 0.90622538 0.56307638
vt 0.79367352 0.16195680
vt 0.90108281 0.83680081
vt 0.90108281 0.83680081
vt 0.80430919 0.16195680
vt 0.89839470 0.56144023
vt 0.79367352 0.15389229
vt 0.80430919 0.15389229
vt 0.89371961 0.83376211
vt 0.79367352 0.14594470
vt 0.89033019 0.56144023
vt 0.88705772 0.82932073
vt 0.80430919 0.14594470
vt 0.79367352 0.13788030
vt 0.88249952 0.56307638
vt 0.88144761 0.82371068
vt 0.80430919 0.13788030
vt 0.87513632 0.56611520
vt 0.79367352 0.12993270
vt 0.87700629 0.81704873
vt 0.80430919 0.12993270
vt 0.86847431 0.57055652
vt 0.79367352 0.12186820
vt 0.80430919 0.12186820
vt 0.87396753 0.80956870
vt 0.79367352 0.11392060
vt 0.86286432 0.57616663
vt 0.80430919 0.11392060
vt 0.87233132 0.80173790
vt 0.79367352 0.10597300
vt 0.85842288 0.58282852
vt 0.80430919 0.10597300
vt 0.87233132 0.79379040
vt 0.85526729 0.59019172
vt 0.79367352 0.09790861
vt 0.80430919 0.09790861
vt 0.87396753 0.78595960
vt 0.87396753 0.78595960
vt 0.85374790 0.59802252
vt 0.79367352 0.08996099
vt 0.87700629 0.77859640
vt 0.80430919 0.08996099
vt 0.87700629 0.77859640
vt 0.85374790 0.60608691
vt 0.79367352 0.08189654
vt 0.80430919 0.08189654
vt 0.88144761 0.77193451
vt 0.88144761 0.77193451
vt 0.79367352 0.07394891
vt 0.85526729 0.61391771
vt 0.80430919 0.07394891
vt 0.88705772 0.76620752
vt 0.79367352 0.06588447
vt 0.85842288 0.62128091
vt 0.80430919 0.06588447
vt 0.89371961 0.76176619
vt 0.79367352 0.05793690
vt 0.86286432 0.62794280
vt 0.86286432 0.62794280
vt 0.80430919 0.05793690
vt 0.90108281 0.75872737
vt 0.79367352 0.04998928
vt 0.86847431 0.63355291
vt 0.86847431 0.63355291
vt 0.80430919 0.04998928
vt 0.90903038 0.75720811
vt 0.79367352 0.04192483
vt 0.87513632 0.63799423
vt 0.87513632 0.63799423
vt 0.91697800 0.75720811
vt 0.80430919 0.04192483
vt 0.88249952 0.64114982
vt 0.88249952 0.64114982
vt 0.79367352 0.03397721
vt 0.80430919 0.03397721
vt 0.92480880 0.75872737
vt 0.89033019 0.64266920
vt 0.89033019 0.64266920
vt 0.79367352 0.02591276
vt 0.93217200 0.76176619
vt 0.93217200 0.76176619
vt 0.80430919 0.02591276
vt 0.89839470 0.64266920
vt 0.89839470 0.64266920
vt 0.79367352 0.01796519
vt 0.89430398 0.60211313
vt 0.89430398 0.60211313
vt 0.89430398 0.60211313
vt 0.89430398 0.60211313
vt 0.89430398 0.60211313
vt 0.89430398 0.60211313
vt 0.89430398 0.60211313
vt 0.89430398 0.60211313
vt 0.89430398 0.60211313
vt 0.89430398 0.60211313
vt 0.89430398 0.60211313
vt 0.89430398 0.60211313
vt 0.92025048 0.63355291
vt 0.92025048 0.63355291
vt 0.79367352 0.24984780
vt 0.80430919 0.24984780
vt 0.95204091 0.78595960
vt 0.91300422 0.79776412
vt 0.91300422 0.79776412
vt 0.91300422 0.79776412
vt 0.91300422 0.79776412
vt 0.91300422 0.79776412
vt 0.91300422 0.79776412
vt 0.91300422 0.79776412
vt 0.93883389 0.76620752
vt 0.80430919 0.01796519
vt 0.93883389 0.76620752
vt 0.90622538 0.64114982
vt 0.79367352 0.00990069
vt 0.90622538 0.64114982
vt 0.91358858 0.63799423
vt 0.79367352 0.25791231
vt 0.91358858 0.63799423
vt 0.79367352 0.00195312
vt 0.94900209 0.77859640
vt 0.80430919 0.00195312
vt 0.80430919 0.25791231
vt 0.94456083 0.77193451
vt 0.94456083 0.77193451
vt 0.80430919 0.00990069
vt 0.02182209 0.62198210
vt 0.79320598 0.29601401
vt 0.79320598 0.29601401
vt 0.79285532 0.53935051
vt 0.02182209 0.61134642
vt 0.79285532 0.53935051
vt 0.79519278 0.28619641
vt 0.79519278 0.28619641
vt 0.03175657 0.62198210
vt 0.80115360 0.54484367
vt 0.80115360 0.54484367
vt 0.03175657 0.61134642
vt 0.04169106 0.62198210
vt 0.79893291 0.27708000
vt 0.81038678 0.54858381
vt 0.04169106 0.61134642
vt 0.81038678 0.54858381
vt 0.05162554 0.62198210
vt 0.80454302 0.26878181
vt 0.05162554 0.61134642
vt 0.82008749 0.55057073
vt 0.82008749 0.55057073
vt 0.06156003 0.62198210
vt 0.81155562 0.26176921
vt 0.81155562 0.26176921
vt 0.83002198 0.55057073
vt 0.83002198 0.55057073
vt 0.06156003 0.61134642
vt 0.07149451 0.62198210
vt 0.81973690 0.25627601
vt 0.81973690 0.25627601
vt 0.07149451 0.61134642
vt 0.83972281 0.54858381
vt 0.82897007 0.25241911
vt 0.08142900 0.62198210
vt 0.84895599 0.54484367
vt 0.08142900 0.61134642
vt 0.83867091 0.25054911
vt 0.09136348 0.62198210
vt 0.85713732 0.53935051
vt 0.09136348 0.61134642
vt 0.84860528 0.25054911
vt 0.84860528 0.25054911
vt 0.10129800 0.62198210
vt 0.86426681 0.53233802
vt 0.10129800 0.61134642
vt 0.85842288 0.25241911
vt 0.85842288 0.25241911
vt 0.11123250 0.62198210
vt 0.86975998 0.52403981
vt 0.11123250 0.61134642
vt 0.86975998 0.52403981
vt 0.86753929 0.25627601
vt 0.12116700 0.62198210
vt 0.86753929 0.25627601
vt 0.87349999 0.51480651
vt 0.12116700 0.61134642
vt 0.87349999 0.51480651
vt 0.87583751 0.26176921
vt 0.13110140 0.62198210
vt 0.87548691 0.50510567
vt 0.87548691 0.50510567
vt 0.13110140 0.61134642
vt 0.88285011 0.26878181
vt 0.14103590 0.62198210
vt 0.14103590 0.61134642
vt 0.87548691 0.49517131
vt 0.87548691 0.49517131
vt 0.15097040 0.62198210
vt 0.88834327 0.27708000
vt 0.15097040 0.61134642
vt 0.87349999 0.48547050
vt 0.16090490 0.62198210
vt 0.89220017 0.28619641
vt 0.16090490 0.61134642
vt 0.86975998 0.47623730
vt 0.17083940 0.62198210
vt 0.89407021 0.29601401
vt 0.86426681 0.46793911
vt 0.17083940 0.61134642
vt 0.89407021 0.30594850
vt 0.18077390 0.62198210
vt 0.18077390 0.61134642
vt 0.85713732 0.46092650
vt 0.85713732 0.46092650
vt 0.89220017 0.31564921
vt 0.19070840 0.62198210
vt 0.84895599 0.45543331
vt 0.84895599 0.45543331
vt 0.19070840 0.61134642
vt 0.20064290 0.62198210
vt 0.88834327 0.32488251
vt 0.88834327 0.32488251
vt 0.20064290 0.61134642
vt 0.83972281 0.45169330
vt 0.83972281 0.45169330
vt 0.88285011 0.33306381
vt 0.88285011 0.33306381
vt 0.21057740 0.62198210
vt 0.83002198 0.44970640
vt 0.83002198 0.44970640
vt 0.21057740 0.61134642
vt 0.22051190 0.62198210
vt 0.87583751 0.34007639
vt 0.87583751 0.34007639
vt 0.82008749 0.44970640
vt 0.22051190 0.61134642
vt 0.86753929 0.34568641
vt 0.86753929 0.34568641
vt 0.23044629 0.62198210
vt 0.81038678 0.45169330
vt 0.23044629 0.61134642
vt 0.24038079 0.62198210
vt 0.85842288 0.34942651
vt 0.24038079 0.61134642
vt 0.80115360 0.45543331
vt 0.84860528 0.35141340
vt 0.84860528 0.35141340
vt 0.25031540 0.62198210
vt 0.79285532 0.46092650
vt 0.25031540 0.61134642
vt 0.79285532 0.46092650
vt 0.83867091 0.35141340
vt 0.83867091 0.35141340
vt 0.26024991 0.62198210
vt 0.78584272 0.46793911
vt 0.26024991 0.61134642
vt 0.78584272 0.46793911
vt 0.27018431 0.62198210
vt 0.82897007 0.34942651
vt 0.78034961 0.47623730
vt 0.78034961 0.47623730
vt 0.27018431 0.61134642
vt 0.28011879 0.62198210
vt 0.81973690 0.34568641
vt 0.77660948 0.48547050
vt 0.77660948 0.48547050
vt 0.28011879 0.61134642
vt 0.81155562 0.34007639
vt 0.29005331 0.62198210
vt 0.81155562 0.34007639
vt 0.29005331 0.61134642
vt 0.77462262 0.49517131
vt 0.77462262 0.49517131
vt 0.80454302 0.33306381
vt 0.80454302 0.33306381
vt 0.29998779 0.62198210
vt 0.29998779 0.61134642
vt 0.77462262 0.50510567
vt 0.77462262 0.50510567
vt 0.82499629 0.50019687
vt 0.82499629 0.50019687
vt 0.82499629 0.50019687
vt 0.82499629 0.50019687
vt 0.82499629 0.50019687
vt 0.82499629 0.50019687
vt 0.82499629 0.50019687
vt 0.82499629 0.50019687
vt 0.82499629 0.50019687
vt 0.82499629 0.50019687
vt 0.82499629 0.50019687
vt 0.82499629 0.50019687
vt 0.82499629 0.50019687
vt 0.01188760 0.61134642
vt 0.78584272 0.53233802
vt 0.01188760 0.62198210
vt 0.79320598 0.30594850
vt 0.79320598 0.30594850
vt 0.84369648 0.30092281
vt 0.84369648 0.30092281
vt 0.84369648 0.30092281
vt 0.84369648 0.30092281
vt 0.84369648 0.30092281
vt 0.84369648 0.30092281
vt 0.84369648 0.30092281
vt 0.84369648 0.30092281
vt 0.84369648 0.30092281
vt 0.84369648 0.30092281
vt 0.84369648 0.30092281
vt 0.84369648 0.30092281
vt 0.84369648 0.30092281
vt 0.79893291 0.32488251
vt 0.30992231 0.62198210
vt 0.79893291 0.32488251
vt 0.30992231 0.61134642
vt 0.77660948 0.51480651
vt 0.00195312 0.61134642
vt 0.78034961 0.52403981
vt 0.31985679 0.61134642
vt 0.00195312 0.62198210
vt 0.79519278 0.31564921
vt 0.31985679 0.62198210
vt 0.79519278 0.31564921
f 1/1/1 10/10/10 13/13/13
f 13/13/13 10/10/10 14/14/14
f 14/14/14 10/10/10 16/16/16
f 16/16/16 10/10/10 20/20/20
f 19/19/19 11/11/11 22/22/22
f 21/21/21 10/10/10 24/24/24
f 24/24/24 10/10/10 27/27/27
f 27/27/27 10/10/10 28/28/28
f 28/28/28 10/10/10 31/31/31
f 32/32/32 9/9/9 35/35/35
f 33/33/33 8/8/8 38/38/38
f 37/37/37 10/10/10 42/42/42
f 39/39/39 7/7/7 45/45/45
f 43/43/43 10/10/10 46/46/46
f 46/46/46 10/10/10 48/48/48
f 48/48/48 10/10/10 50/50/50
f 50/50/50 10/10/10 52/52/52
f 52/52/52 10/10/10 54/54/54
f 54/54/54 10/10/10 58/58/58
f 56/56/56 6/6/6 59/59/59
f 60/60/60 5/5/5 62/62/62
f 63/63/63 10/10/10 65/65/65
f 65/65/65 10/10/10 68/68/68
f 68/68/68 10/10/10 70/70/70
f 70/70/70 10/10/10 71/71/71
f 72/72/72 4/4/4 76/76/76
f 74/74/74 3/3/3 77/77/77
f 79/79/79 10/10/10 81/81/81
f 81/81/81 10/10/10 82/82/82
f 82/82/82 10/10/10 85/85/85
f 85/85/85 10/10/10 86/86/86
f 10/10/10 1/1/1 86/86/86
f 87/87/87 2/2/2 89/89/89
f 89/89/89 2/2/2 90/90/90
f 2/2/2 12/12/12 90/90/90
f 90/90/90 12/12/12 94/94/94
f 12/12/12 15/15/15 94/94/94
f 94/94/94 15/15/15 96/96/96
f 15/15/15 17/17/17 96/96/96
f 96/96/96 17/17/17 98/98/98
f 17/17/17 18/18/18 98/98/98
f 98/98/98 18/18/18 102/102/102
f 18/18/18 23/23/23 102/102/102
f 102/102/102 23/23/23 104/104/104
f 23/23/23 25/25/25 104/104/104
f 104/104/104 25/25/25 107/107/107
f 25/25/25 26/26/26 107/107/107
f 107/107/107 26/26/26 109/109/109
f 26/26/26 29/29/29 109/109/109
f 109/109/109 29/29/29 113/113/113
f 29/29/29 30/30/30 113/113/113
f 113/113/113 30/30/30 115/115/115
f 30/30/30 34/34/34 115/115/115
f 115/115/115 34/34/34 116/116/116
f 34/34/34 36/36/36 116/116/116
f 116/116/116 36/36/36 120/120/120
f 36/36/36 40/40/40 120/120/120
f 121/121/121 41/41/41 125/125/125
f 41/41/41 44/44/44 125/125/125
f 125/125/125 44/44/44 126/126/126
f 44/44/44 47/47/47 126/126/126
f 126/126/126 47/47/47 129/129/129
f 47/47/47 49/49/49 129/129/129
f 129/129/129 49/49/49 131/131/131
f 49/49/49 51/51/51 131/131/131
f 131/131/131 51/51/51 133/133/133
f 51/51/51 53/53/53 133/133/133
f 133/133/133 53/53/53 136/136/136
f 53/53/53 55/55/55 136/136/136
f 136/136/136 55/55/55 138/138/138
f 55/55/55 57/57/57 138/138/138
f 138/138/138 57/57/57 140/140/140
f 57/57/57 61/61/61 140/140/140
f 140/140/140 61/61/61 142/142/142
f 61/61/61 64/64/64 142/142/142
f 142/142/142 64/64/64 144/144/144
f 64/64/64 66/66/66 144/144/144
f 144/144/144 66/66/66 146/146/146
f 66/66/66 67/67/67 146/146/146
f 146/146/146 67/67/67 148/148/148
f 67/67/67 69/69/69 148/148/148
f 148/148/148 69/69/69 151/151/151
f 69/69/69 73/73/73 151/151/151
f 151/151/151 73/73/73 152/152/152
f 73/73/73 75/75/75 152/152/152
f 152/152/152 75/75/75 154/154/154
f 75/75/75 78/78/78 154/154/154
f 154/154/154 78/78/78 159/159/159
f 78/78/78 80/80/80 159/159/159
f 159/159/159 80/80/80 162/162/162
f 80/80/80 83/83/83 162/162/162
f 162/162/162 83/83/83 163/163/163
f 83/83/83 84/84/84 163/163/163
f 163/163/163 84/84/84 166/166/166
f 84/84/84 87/87/87 166/166/166
f 87/87/87 89/89/89 166/166/166
f 165/165/165 88/88/88 173/173/173
f 88/88/88 92/92/92 173/173/173
f 91/91/91 93/93/93 172/172/172
f 95/95/95 97/97/97 173/173/173
f 97/97/97 99/99/99 173/173/173
f 99/99/99 100/100/100 173/173/173
f 101/101/101 103/103/103 174/174/174
f 105/105/105 106/106/106 173/173/173
f 106/106/106 110/110/110 173/173/173
f 108/108/108 111/111/111 171/171/171
f 112/112/112 114/114/114 173/173/173
f 114/114/114 117/117/117 173/173/173
f 118/118/118 122/122/122 170/170/170
f 119/119/119 124/124/124 169/169/169
f 123/123/123 127/127/127 173/173/173
f 127/127/127 128/128/128 173/173/173
f 128/128/128 132/132/132 173/173/173
f 130/130/130 134/134/134 168/168/168
f 135/135/135 137/137/137 173/173/173
f 137/137/137 139/139/139 173/173/173
f 139/139/139 141/141/141 173/173/173
f 141/141/141 143/143/143 173/173/173
f 143/143/143 145/145/145 173/173/173
f 145/145/145 147/147/147 173/173/173
f 147/147/147 149/149/149 173/173/173
f 149/149/149 150/150/150 173/173/173
f 150/150/150 153/153/153 173/173/173
f 153/153/153 155/155/155 173/173/173
f 156/156/156 158/158/158 167/167/167
f 157/157/157 160/160/160 169/169/169
f 161/161/161 164/164/164 173/173/173
f 177/177/177 178/178/178 181/181/181
f 181/181/181 178/178/178 184/184/184
f 178/178/178 187/187/187 184/184/184
f 184/184/184 187/187/187 189/189/189
f 187/187/187 192/192/192 189/189/189
f 189/189/189 192/192/192 194/194/194
f 192/192/192 195/195/195 194/194/194
f 194/194/194 195/195/195 199/199/199
f 195/195/195 201/201/201 199/199/199
f 199/199/199 201/201/201 202/202/202
f 201/201/201 204/204/204 202/202/202
f 202/202/202 204/204/204 206/206/206
f 204/204/204 208/208/208 206/206/206
f 206/206/206 208/208/208 212/212/212
f 208/208/208 214/214/214 212/212/212
f 212/212/212 214/214/214 216/216/216
f 214/214/214 219/219/219 216/216/216
f 216/216/216 219/219/219 221/221/221
f 219/219/219 225/225/225 221/221/221
f 221/221/221 225/225/225 228/228/228
f 225/225/225 230/230/230 228/228/228
f 228/228/228 230/230/230 231/231/231
f 230/230/230 233/233/233 231/231/231
f 231/231/231 233/233/233 236/236/236
f 233/233/233 237/237/237 236/236/236
f 236/236/236 237/237/237 240/240/240
f 237/237/237 242/242/242 240/240/240
f 240/240/240 242/242/242 244/244/244
f 242/242/242 246/246/246 244/244/244
f 244/244/244 246/246/246 247/247/247
f 246/246/246 249/249/249 247/247/247
f 247/247/247 249/249/249 251/251/251
f 249/249/249 253/253/253 251/251/251
f 251/251/251 253/253/253 255/255/255
f 253/253/253 258/258/258 255/255/255
f 255/255/255 258/258/258 259/259/259
f 258/258/258 263/263/263 259/259/259
f 259/259/259 263/263/263 265/265/265
f 263/263/263 268/268/268 265/265/265
f 265/265/265 268/268/268 269/269/269
f 268/268/268 272/272/272 269/269/269
f 269/269/269 272/272/272 274/274/274
f 272/272/272 276/276/276 274/274/274
f 274/274/274 276/276/276 278/278/278
f 276/276/276 280/280/280 278/278/278
f 278/278/278 280/280/280 283/283/283
f 280/280/280 285/285/285 283/283/283
f 283/283/283 285/285/285 288/288/288
f 285/285/285 290/290/290 288/288/288
f 288/288/288 290/290/290 294/294/294
f 290/290/290 297/297/297 294/294/294
f 294/294/294 297/297/297 298/298/298
f 297/297/297 302/302/302 298/298/298
f 298/298/298 302/302/302 305/305/305
f 305/305/305 302/302/302 308/308/308
f 306/306/306 300/300/300 313/313/313
f 301/301/301 296/296/296 317/317/317
f 295/295/295 291/291/291 316/316/316
f 292/292/292 286/286/286 320/320/320
f 287/287/287 281/281/281 315/315/315
f 282/282/282 277/277/277 320/320/320
f 277/277/277 273/273/273 320/320/320
f 273/273/273 267/267/267 320/320/320
f 267/267/267 262/262/262 320/320/320
f 262/262/262 257/257/257 320/320/320
f 257/257/257 254/254/254 320/320/320
f 254/254/254 250/250/250 320/320/320
f 250/250/250 245/245/245 320/320/320
f 245/245/245 241/241/241 320/320/320
f 241/241/241 238/238/238 320/320/320
f 238/238/238 234/234/234 320/320/320
f 234/234/234 229/229/229 320/320/320
f 229/229/229 224/224/224 320/320/320
f 224/224/224 220/220/220 320/320/320
f 220/220/220 215/215/215 320/320/320
f 213/213/213 209/209/209 314/314/314
f 210/210/210 205/205/205 320/320/320
f 205/205/205 200/200/200 320/320/320
f 200/200/200 197/197/197 320/320/320
f 196/196/196 191/191/191 319/319/319
f 190/190/190 185/185/185 317/317/317
f 186/186/186 180/180/180 318/318/318
f 179/179/179 176/176/176 312/312/312
f 311/311/311 175/175/175 321/321/321
f 323/323/323 177/177/177 324/324/324
f 177/177/177 181/181/181 324/324/324
f 325/325/325 182/182/182 332/332/332
f 182/182/182 183/183/183 332/332/332
f 183/183/183 188/188/188 332/332/332
f 188/188/188 193/193/193 332/332/332
f 193/193/193 198/198/198 332/332/332
f 198/198/198 203/203/203 332/332/332
f 203/203/203 207/207/207 332/332/332
f 207/207/207 211/211/211 332/332/332
f 211/211/211 218/218/218 332/332/332
f 217/217/217 222/222/222 331/331/331
f 223/223/223 227/227/227 326/326/326
f 226/226/226 232/232/232 332/332/332
f 232/232/232 235/235/235 332/332/332
f 235/235/235 239/239/239 332/332/332
f 239/239/239 243/243/243 332/332/332
f 243/243/243 248/248/248 332/332/332
f 248/248/248 252/252/252 332/332/332
f 252/252/252 256/256/256 332/332/332
f 256/256/256 260/260/260 332/332/332
f 261/261/261 266/266/266 327/327/327
f 264/264/264 271/271/271 328/328/328
f 270/270/270 275/275/275 332/332/332
f 275/275/275 279/279/279 332/332/332
f 279/279/279 284/284/284 332/332/332
f 284/284/284 289/289/289 332/332/332
f 289/289/289 293/293/293 332/332/332
f 293/293/293 299/299/299 332/332/332
f 299/299/299 303/303/303 332/332/332
f 329/329/329 304/304/304 333/333/333
f 305/305/305 308/308/308 334/334/334
f 334/334/334 308/308/308 337/337/337
f 307/307/307 310/310/310 336/336/336
f 338/338/338 320/320/320 339/339/339
f 309/309/309 322/322/322 341/341/341
f 340/340/340 323/323/323 345/345/345
f 323/323/323 324/324/324 345/345/345
f 325/325/325 332/332/332 343/343/343
f 343/343/343 332/332/332 346/346/346
f 330/330/330 335/335/335 347/347/347
f 334/334/334 337/337/337 348/348/348
f 337/337/337 342/342/342 348/348/348
f 349/349/349 353/353/353 357/357/357
f 353/353/353 360/360/360 357/357/357
f 357/357/357 360/360/360 361/361/361
f 360/360/360 364/364/364 361/361/361
f 361/361/361 364/364/364 366/366/366
f 364/364/364 368/368/368 366/366/366
f 366/366/366 368/368/368 371/371/371
f 368/368/368 376/376/376 371/371/371
f 371/371/371 376/376/376 377/377/377
f 376/376/376 380/380/380 377/377/377
f 377/377/377 380/380/380 383/383/383
f 380/380/380 385/385/385 383/383/383
f 383/383/383 385/385/385 387/387/387
f 385/385/385 389/389/389 387/387/387
f 387/387/387 389/389/389 392/392/392
f 389/389/389 394/394/394 392/392/392
f 392/392/392 394/394/394 397/397/397
f 394/394/394 399/399/399 397/397/397
f 397/397/397 399/399/399 402/402/402
f 399/399/399 405/405/405 402/402/402
f 402/402/402 405/405/405 408/408/408
f 405/405/405 411/411/411 408/408/408
f 408/408/408 411/411/411 413/413/413
f 411/411/411 414/414/414 413/413/413
f 413/413/413 414/414/414 417/417/417
f 414/414/414 419/419/419 417/417/417
f 417/417/417 419/419/419 421/421/421
f 419/419/419 423/423/423 421/421/421
f 421/421/421 423/423/423 425/425/425
f 423/423/423 428/428/428 425/425/425
f 425/425/425 428/428/428 430/430/430
f 428/428/428 431/431/431 430/430/430
f 430/430/430 431/431/431 435/435/435
f 431/431/431 438/438/438 435/435/435
f 435/435/435 438/438/438 439/439/439
f 438/438/438 442/442/442 439/439/439
f 439/439/439 442/442/442 447/447/447
f 442/442/442 450/450/450 447/447/447
f 447/447/447 450/450/450 451/451/451
f 450/450/450 455/455/455 451/451/451
f 451/451/451 455/455/455 458/458/458
f 455/455/455 460/460/460 458/458/458
f 458/458/458 460/460/460 461/461/461
f 460/460/460 463/463/463 461/461/461
f 461/461/461 463/463/463 467/467/467
f 463/463/463 469/469/469 467/467/467
f 467/467/467 469/469/469 473/473/473
f 469/469/469 475/475/475 473/473/473
f 473/473/473 475/475/475 477/477/477
f 475/475/475 481/481/481 477/477/477
f 477/477/477 481/481/481 482/482/482
f 481/481/481 486/486/486 482/482/482
f 482/482/482 486/486/486 488/488/488
f 486/486/486 490/490/490 488/488/488
f 488/488/488 490/490/490 495/495/495
f 495/495/495 490/490/490 496/496/496
f 498/498/498 491/491/491 504/504/504
f 492/492/492 485/485/485 505/505/505
f 484/484/484 479/479/479 500/500/500
f 480/480/480 474/474/474 499/499/499
f 476/476/476 468/468/468 509/509/509
f 470/470/470 464/464/464 499/499/499
f 464/464/464 459/459/459 499/499/499
f 459/459/459 454/454/454 499/499/499
f 454/454/454 449/449/449 499/499/499
f 448/448/448 444/444/444 510/510/510
f 443/443/443 436/436/436 502/502/502
f 437/437/437 432/432/432 508/508/508
f 433/433/433 427/427/427 499/499/499
f 427/427/427 424/424/424 499/499/499
f 424/424/424 420/420/420 499/499/499
f 420/420/420 416/416/416 499/499/499
f 415/415/415 409/409/409 501/501/501
f 410/410/410 406/406/406 506/506/506
f 404/404/404 398/398/398 505/505/505
f 400/400/400 393/393/393 499/499/499
f 393/393/393 388/388/388 499/499/499
f 388/388/388 384/384/384 499/499/499
f 384/384/384 381/381/381 499/499/499
f 381/381/381 375/375/375 499/499/499
f 374/374/374 370/370/370 511/511/511
f 369/369/369 365/365/365 499/499/499
f 363/363/363 359/359/359 507/507/507
f 358/358/358 352/352/352 503/503/503
f 499/499/499 354/354/354 513/513/513
f 353/353/353 349/349/349 512/512/512
f 512/512/512 349/349/349 514/514/514
f 516/516/516 351/351/351 524/524/524
f 350/350/350 355/355/355 528/528/528
f 356/356/356 362/362/362 526/526/526
f 362/362/362 367/367/367 526/526/526
f 367/367/367 372/372/372 526/526/526
f 373/373/373 379/379/379 527/527/527
f 378/378/378 382/382/382 526/526/526
f 382/382/382 386/386/386 526/526/526
f 386/386/386 391/391/391 526/526/526
f 390/390/390 395/395/395 525/525/525
f 396/396/396 403/403/403 523/523/523
f 401/401/401 407/407/407 526/526/526
f 407/407/407 412/412/412 526/526/526
f 412/412/412 418/418/418 526/526/526
f 418/418/418 422/422/422 526/526/526
f 422/422/422 426/426/426 526/526/526
f 426/426/426 429/429/429 526/526/526
f 429/429/429 434/434/434 526/526/526
f 434/434/434 441/441/441 526/526/526
f 440/440/440 446/446/446 522/522/522
f 445/445/445 452/452/452 529/529/529
f 453/453/453 457/457/457 521/521/521
f 456/456/456 462/462/462 526/526/526
f 462/462/462 466/466/466 526/526/526
f 465/465/465 472/472/472 520/520/520
f 471/471/471 478/478/478 526/526/526
f 478/478/478 483/483/483 526/526/526
f 483/483/483 489/489/489 526/526/526
f 487/487/487 494/494/494 517/517/517
f 518/518/518 493/493/493 532/532/532
f 495/495/495 496/496/496 531/531/531
f 531/531/531 496/496/496 533/533/533
f 497/497/497 499/499/499 534/534/534
f 534/534/534 499/499/499 536/536/536
f 499/499/499 513/513/513 536/536/536
f 512/512/512 514/514/514 535/535/535
f 535/535/535 514/514/514 538/538/538
f 515/515/515 526/526/526 541/541/541
f 519/519/519 530/530/530 539/539/539
f 531/531/531 533/533/533 540/540/540
f 537/537/537 540/540/540 533/533/533
f 344/344/344 348/348/348 342/342/342
f 165/165/165 173/173/173 164/164/164

