mtllib UR8LongWorkbench.mtl
usemtl Material.005
v 0.57041961 -0.61849999 -0.70158982
v 0.56435037 -0.65849996 -0.71155572
v 0.56967557 -0.65849996 -0.70150083
v 0.55727637 -0.61849999 -0.71195084
v 0.55031508 -0.65849996 -0.70166624
v 0.55132449 -0.61849999 -0.70150083
v 0.52957821 -0.61849999 -0.67926860
v 0.52217740 -0.65849996 -0.70146203
v 0.53882289 -0.65849996 -0.66793722
v 0.52238607 -0.61849999 -0.70147502
v 0.56049997 -0.61849999 -0.66148174
v 0.58203614 -0.65849996 -0.66875291
v 0.59366953 -0.61849999 -0.68198383
v 0.59932625 -0.65849996 -0.70142090
v 0.59810471 -0.61849999 -0.70149714
v 0.55159843 -0.61849999 -0.70449084
v 0.55159843 -0.61849999 -0.70449084
v 0.55159843 -0.61849999 -0.70449084
v 0.55159843 -0.61849999 -0.70449084
v 0.55565840 -0.61849999 -0.70942301
v 0.55565840 -0.61849999 -0.70942301
v 0.55565840 -0.61849999 -0.70942301
v 0.53409946 -0.61849999 -0.72856712
v 0.53409946 -0.61849999 -0.72856712
v 0.53409946 -0.61849999 -0.72856712
v 0.52577311 -0.61849999 -0.71613884
v 0.52577311 -0.61849999 -0.71613884
v 0.54759061 -0.61849999 -0.73696810
v 0.54759061 -0.61849999 -0.73696810
v 0.54759061 -0.61849999 -0.73696810
v 0.56142950 -0.61849999 -0.71078795
v 0.56142950 -0.61849999 -0.71078795
v 0.56142950 -0.61849999 -0.71078795
v 0.52268982 -0.61849999 -0.70150000
v 0.52268982 -0.61849999 -0.70150000
v 0.52268982 -0.61849999 -0.70150000
v 0.56522083 -0.61849999 -0.73917055
v 0.56522083 -0.61849999 -0.73917055
v 0.55192220 -0.61849999 -0.69788420
v 0.55192220 -0.61849999 -0.69788420
v 0.55192220 -0.61849999 -0.69788420
v 0.55192220 -0.61849999 -0.69788420
v 0.52577293 -0.61849999 -0.68686163
v 0.52577293 -0.61849999 -0.68686163
v 0.58337450 -0.61849999 -0.73169851
v 0.58337450 -0.61849999 -0.73169851
v 0.56606090 -0.61849999 -0.70884132
v 0.56606090 -0.61849999 -0.70884132
v 0.53537893 -0.61849999 -0.67303455
v 0.53537893 -0.61849999 -0.67303455
v 0.53537893 -0.61849999 -0.67303455
v 0.53537893 -0.61849999 -0.67303455
v 0.55493915 -0.61849999 -0.69415885
v 0.55493915 -0.61849999 -0.69415885
v 0.56907791 -0.61849999 -0.70511591
v 0.56907791 -0.61849999 -0.70511591
v 0.56907791 -0.61849999 -0.70511591
v 0.59408772 -0.61849999 -0.71871930
v 0.59408772 -0.61849999 -0.71871930
v 0.55957055 -0.61849999 -0.69221222
v 0.55957055 -0.61849999 -0.69221222
v 0.55957055 -0.61849999 -0.69221222
v 0.55957055 -0.61849999 -0.69221222
v 0.55957055 -0.61849999 -0.69221222
v 0.54940700 -0.61849999 -0.66553622
v 0.54940700 -0.61849999 -0.66553622
v 0.59799898 -0.61849999 -0.70525235
v 0.59799898 -0.61849999 -0.70525235
v 0.59799898 -0.61849999 -0.70525235
v 0.56049997 -0.61849999 -0.66386420
v 0.56049997 -0.61849999 -0.66386420
v 0.56962269 -0.61849999 -0.70012504
v 0.56962269 -0.61849999 -0.70012504
v 0.59641123 -0.61849999 -0.68943465
v 0.59641123 -0.61849999 -0.68943465
v 0.59641123 -0.61849999 -0.68943465
v 0.57340938 -0.61849999 -0.66603190
v 0.57340938 -0.61849999 -0.66603190
v 0.57340938 -0.61849999 -0.66603190
v 0.56677878 -0.61849999 -0.69438535
v 0.56677878 -0.61849999 -0.69438535
v 0.56677878 -0.61849999 -0.69438535
v 0.58690059 -0.61849999 -0.67443305
v 0.58690059 -0.61849999 -0.67443305
v 0.59993720 -0.61849999 -0.70164931
v 0.59810471 -0.65849996 -0.70150304
v 0.59200680 -0.65849996 -0.72454923
v 0.58519721 -0.61849999 -0.73044950
v 0.55425704 -0.65849996 -0.74071294
v 0.55888796 -0.61849999 -0.74021304
v 0.52832854 -0.61849999 -0.72343415
v 0.52649069 -0.65849996 -0.71893573
v 0.52289540 -0.65849996 -0.70150304
v 0.52292025 -0.61849999 -0.70150220
v 0.56677878 -0.65849996 -0.70861483
v 0.56677878 -0.65849996 -0.70861483
v 0.56677878 -0.65849996 -0.70861483
v 0.58562100 -0.65849996 -0.72996563
v 0.58562100 -0.65849996 -0.72996563
v 0.59522712 -0.65849996 -0.71613854
v 0.59522712 -0.65849996 -0.71613854
v 0.59522712 -0.65849996 -0.71613854
v 0.57159311 -0.65849996 -0.73746395
v 0.57159311 -0.65849996 -0.73746395
v 0.56983125 -0.65849996 -0.70173270
v 0.56983125 -0.65849996 -0.70173270
v 0.56983125 -0.65849996 -0.70173270
v 0.55957055 -0.65849996 -0.71078795
v 0.55957055 -0.65849996 -0.71078795
v 0.55957055 -0.65849996 -0.71078795
v 0.55957055 -0.65849996 -0.71078795
v 0.59831023 -0.65849996 -0.70150000
v 0.56050003 -0.65849996 -0.73913580
v 0.56050003 -0.65849996 -0.73913580
v 0.54759061 -0.65849996 -0.73696810
v 0.54759061 -0.65849996 -0.73696810
v 0.54759061 -0.65849996 -0.73696810
v 0.59522700 -0.65849996 -0.68686134
v 0.59522700 -0.65849996 -0.68686134
v 0.56697893 -0.65849996 -0.69451743
v 0.56697893 -0.65849996 -0.69451743
v 0.56697893 -0.65849996 -0.69451743
v 0.55363762 -0.65849996 -0.70786750
v 0.55363762 -0.65849996 -0.70786750
v 0.55363762 -0.65849996 -0.70786750
v 0.58690047 -0.65849996 -0.67443305
v 0.58690047 -0.65849996 -0.67443305
v 0.53409940 -0.65849996 -0.72856700
v 0.52619469 -0.65849996 -0.71697903
v 0.52619469 -0.65849996 -0.71697903
v 0.52619469 -0.65849996 -0.71697903
v 0.57340944 -0.65849996 -0.66603190
v 0.57340944 -0.65849996 -0.66603190
v 0.55137742 -0.65849996 -0.70287514
v 0.55137742 -0.65849996 -0.70287514
v 0.55137742 -0.65849996 -0.70287514
v 0.55957055 -0.65849996 -0.69221222
v 0.55957055 -0.65849996 -0.69221222
v 0.52300108 -0.65849996 -0.70525235
v 0.52300108 -0.65849996 -0.70525235
v 0.55577916 -0.65849996 -0.66382962
v 0.55577916 -0.65849996 -0.66382962
v 0.55192220 -0.65849996 -0.69788420
v 0.55192220 -0.65849996 -0.69788420
v 0.55192220 -0.65849996 -0.69788420
v 0.52397919 -0.65849996 -0.69220054
v 0.52397919 -0.65849996 -0.69220054
v 0.54087555 -0.65849996 -0.66938573
v 0.54087555 -0.65849996 -0.66938573
v 0.53036022 -0.65849996 -0.67867011
v 0.53036022 -0.65849996 -0.67867011
v 0.53036022 -0.65849996 -0.67867011
v 0.55493915 -0.65849996 -0.69415885
v 0.55493915 -0.65849996 -0.69415885
v 0.55407167 -0.61849999 -0.69383901
v 0.55107045 -0.65849996 -0.70148480
v 0.55133057 -0.61849999 -0.70149952
v 0.55481172 -0.65849996 -0.69385993
v 0.56619167 -0.65849996 -0.69329870
v 0.56597519 -0.61849999 -0.69361043
v 0.56990880 -0.61849999 -0.70148653
v 0.56971967 -0.65849996 -0.70149785
v -0.51849997 -0.67007023 -0.70152992
v -0.55849981 -0.66700852 -0.70899957
v -0.55849981 -0.66967553 -0.70150077
v -0.51849997 -0.66243953 -0.71152198
v -0.55849981 -0.65572465 -0.70977098
v -0.51849997 -0.65021360 -0.70170540
v -0.55849981 -0.65092975 -0.70152992
v -0.51849997 -0.62210143 -0.70145690
v -0.55849981 -0.62217730 -0.70146209
v -0.55849981 -0.63739121 -0.66935772
v -0.51849997 -0.63745904 -0.66945213
v -0.51849997 -0.67367679 -0.66529709
v -0.55849981 -0.67929655 -0.66698372
v -0.51849985 -0.69450927 -0.68406451
v -0.55849981 -0.69972223 -0.70137829
v -0.51849997 -0.69810468 -0.70149720
v -0.51849997 -0.65203649 -0.70531911
v -0.51849997 -0.65203649 -0.70531911
v -0.51849997 -0.65703320 -0.71033323
v -0.51849997 -0.65703320 -0.71033323
v -0.51849997 -0.65703320 -0.71033323
v -0.51849997 -0.65703320 -0.71033323
v -0.51849997 -0.63287413 -0.72713327
v -0.51849997 -0.63287413 -0.72713327
v -0.51849997 -0.64662999 -0.73684102
v -0.51849997 -0.64662999 -0.73684102
v -0.51849997 -0.62577307 -0.71613878
v -0.51849997 -0.62577307 -0.71613878
v -0.51849997 -0.62268972 -0.70150012
v -0.51849997 -0.62268972 -0.70150012
v -0.51849997 -0.65132803 -0.70035082
v -0.51849997 -0.66425854 -0.73905688
v -0.51849997 -0.66425854 -0.73905688
v -0.51849997 -0.66425854 -0.73905688
v -0.51849997 -0.66477078 -0.70983070
v -0.51849997 -0.66477078 -0.70983070
v -0.51849997 -0.66477078 -0.70983070
v -0.51849997 -0.66477078 -0.70983070
v -0.51849997 -0.62577307 -0.68686140
v -0.51849997 -0.68025398 -0.73382598
v -0.51849997 -0.68025398 -0.73382598
v -0.51849997 -0.65363747 -0.69513273
v -0.51849997 -0.65363747 -0.69513273
v -0.51849997 -0.63537902 -0.67303461
v -0.51849997 -0.63537902 -0.67303461
v -0.51849997 -0.63537902 -0.67303461
v -0.51849997 -0.69163781 -0.72272950
v -0.51849997 -0.69163781 -0.72272950
v -0.51849997 -0.69163781 -0.72272950
v -0.51849997 -0.66896343 -0.70531911
v -0.51849997 -0.66896343 -0.70531911
v -0.51849997 -0.66896343 -0.70531911
v -0.51849997 -0.66049999 -0.69204569
v -0.51849997 -0.66049999 -0.69204569
v -0.51849997 -0.66049999 -0.69204569
v -0.51849997 -0.64940691 -0.66553628
v -0.51849997 -0.64940691 -0.66553628
v -0.51849997 -0.69642293 -0.71258098
v -0.51849997 -0.69818622 -0.70150012
v -0.51849997 -0.69818622 -0.70150012
v -0.51849997 -0.66960013 -0.69942308
v -0.51849997 -0.66960013 -0.69942308
v -0.51849997 -0.66960013 -0.69942308
v -0.51849997 -0.66049993 -0.66386431
v -0.51849997 -0.67340928 -0.66603202
v -0.51849997 -0.69642293 -0.69041938
v -0.51849997 -0.69114596 -0.67946702
v -0.51849997 -0.69114596 -0.67946702
v -0.51849997 -0.66662949 -0.69455451
v -0.51849997 -0.66662949 -0.69455451
v -0.51849997 -0.68317813 -0.67156148
v -0.51849997 -0.69807977 -0.70150232
v -0.55849981 -0.69803721 -0.70150113
v -0.55849981 -0.69523817 -0.71751910
v -0.51849997 -0.69348478 -0.72165668
v -0.55849981 -0.66928309 -0.73998159
v -0.51849997 -0.66719747 -0.73948312
v -0.51849997 -0.63336611 -0.72978318
v -0.55849993 -0.63588762 -0.73083210
v -0.55849981 -0.62138099 -0.70160991
v -0.51849997 -0.62250918 -0.70151860
v -0.55849981 -0.66736245 -0.70786762
v -0.55849981 -0.66736245 -0.70786762
v -0.55849981 -0.66736245 -0.70786762
v -0.55849981 -0.68249905 -0.73209912
v -0.55849981 -0.68249905 -0.73209912
v -0.55849981 -0.69163770 -0.72272968
v -0.55849981 -0.69163770 -0.72272968
v -0.55849981 -0.66049999 -0.71095461
v -0.55849981 -0.67159307 -0.73746401
v -0.55849981 -0.69702083 -0.71079940
v -0.55849981 -0.69702083 -0.71079940
v -0.55849981 -0.69702083 -0.71079940
v -0.55849981 -0.66967189 -0.70264947
v -0.55849981 -0.66967189 -0.70264947
v -0.55849981 -0.66049999 -0.73913592
v -0.55849981 -0.69804639 -0.69962621
v -0.55849981 -0.69804639 -0.69962621
v -0.55849981 -0.69804639 -0.69962621
v -0.55849981 -0.64759070 -0.73696822
v -0.55849981 -0.64759070 -0.73696822
v -0.55849981 -0.66896349 -0.69768119
v -0.55849981 -0.66896349 -0.69768119
v -0.55849981 -0.66896349 -0.69768119
v -0.55849981 -0.69563520 -0.68771052
v -0.55849981 -0.69563520 -0.68771052
v -0.55849981 -0.65276587 -0.70706052
v -0.55849981 -0.65276587 -0.70706052
v -0.55849981 -0.65276587 -0.70706052
v -0.55849981 -0.65276587 -0.70706052
v -0.55849981 -0.65276587 -0.70706052
v -0.55849981 -0.68812585 -0.67586690
v -0.55849981 -0.68812585 -0.67586690
v -0.55849981 -0.63409942 -0.72856712
v -0.55849981 -0.63409942 -0.72856712
v -0.55849981 -0.66396672 -0.69266701
v -0.55849981 -0.66396672 -0.69266701
v -0.55849981 -0.67436999 -0.66615933
v -0.55849981 -0.62577307 -0.71613878
v -0.55849981 -0.62577307 -0.71613878
v -0.55849981 -0.62268978 -0.70150012
v -0.55849981 -0.62268978 -0.70150012
v -0.55849981 -0.62268978 -0.70150012
v -0.55849981 -0.65149695 -0.69872302
v -0.55849981 -0.65149695 -0.69872302
v -0.55849981 -0.65149695 -0.69872302
v -0.55849981 -0.65674138 -0.66394341
v -0.55849981 -0.65674138 -0.66394341
v -0.55849981 -0.65674138 -0.66394341
v -0.55849981 -0.65622914 -0.69316948
v -0.55849981 -0.65622914 -0.69316948
v -0.55849981 -0.65622914 -0.69316948
v -0.55849981 -0.65622914 -0.69316948
v -0.55849981 -0.62577307 -0.68686152
v -0.55849981 -0.64330703 -0.66796428
v -0.55849981 -0.64330703 -0.66796428
v -0.55849981 -0.63287419 -0.67586678
v -0.55849981 -0.63287419 -0.67586678
v -0.55849981 -0.63287419 -0.67586678
v -0.51849997 -0.65523612 -0.69319993
v -0.55849981 -0.65008044 -0.70123208
v -0.51849997 -0.65118402 -0.70149308
v -0.55849981 -0.66181642 -0.69165778
v -0.51849997 -0.66657567 -0.69400930
v -0.55849981 -0.67038763 -0.70141751
v -0.51849997 -0.66979974 -0.70149398
v 0.51849985 0.67139304 -0.70231909
v 0.55849993 0.66571402 -0.70942789
v 0.55849993 0.67004502 -0.70152664
v 0.51849985 0.65547204 -0.71020806
v 0.55849993 0.65500295 -0.70970768
v 0.55849993 0.65122998 -0.70150429
v 0.51849985 0.65124404 -0.70150369
v 0.51849997 0.62210107 -0.70145649
v 0.55849993 0.62271404 -0.70149034
v 0.55849993 0.63172901 -0.67480439
v 0.51849997 0.63543999 -0.67163396
v 0.55849987 0.66272008 -0.66331059
v 0.51849997 0.66113806 -0.66369629
v 0.51849985 0.68681502 -0.67266476
v 0.55849993 0.69049609 -0.67674959
v 0.51849985 0.69868004 -0.70147085
v 0.55849993 0.69828606 -0.70149034
v 0.51849985 0.65434098 -0.70847934
v 0.51849985 0.64165699 -0.73413694
v 0.51849985 0.63099003 -0.72503269
v 0.51849985 0.63099003 -0.72503269
v 0.51849985 0.65152299 -0.70378596
v 0.51849985 0.65152299 -0.70378596
v 0.51849985 0.65152299 -0.70378596
v 0.51849997 0.62356603 -0.70992935
v 0.51849997 0.62356603 -0.70992935
v 0.51849997 0.62356603 -0.70992935
v 0.51849985 0.66050005 -0.71089047
v 0.51849985 0.66050005 -0.71089047
v 0.51849985 0.66050005 -0.71089047
v 0.51849985 0.65487504 -0.73882258
v 0.51849985 0.65487504 -0.73882258
v 0.51849985 0.66795707 -0.73838937
v 0.51849985 0.66795707 -0.73838937
v 0.51849985 0.65160203 -0.69899559
v 0.51849985 0.65160203 -0.69899559
v 0.51849985 0.65160203 -0.69899559
v 0.51849985 0.65160203 -0.69899559
v 0.51849997 0.62332702 -0.69589704
v 0.51849997 0.62332702 -0.69589704
v 0.51849997 0.62691200 -0.68428087
v 0.51849997 0.62691200 -0.68428087
v 0.51849997 0.62691200 -0.68428087
v 0.51849985 0.68266201 -0.73232514
v 0.51849985 0.68266201 -0.73232514
v 0.51849985 0.68266201 -0.73232514
v 0.51849985 0.66608203 -0.70886815
v 0.51849985 0.66608203 -0.70886815
v 0.51849985 0.65434098 -0.69452017
v 0.51849985 0.65434098 -0.69452017
v 0.51849985 0.65434098 -0.69452017
v 0.51849997 0.63833797 -0.67067438
v 0.51849997 0.63833797 -0.67067438
v 0.51849997 0.63833797 -0.67067438
v 0.51849985 0.69408798 -0.71871865
v 0.51849985 0.69408798 -0.71871865
v 0.51849985 0.66924703 -0.70468408
v 0.51849985 0.66924703 -0.70468408
v 0.51849997 0.65889800 -0.69241428
v 0.51849997 0.65889800 -0.69241428
v 0.51849997 0.65889800 -0.69241428
v 0.51849997 0.65889800 -0.69241428
v 0.51849997 0.65304303 -0.66461027
v 0.51849997 0.65304303 -0.66461027
v 0.51849985 0.69767296 -0.70710248
v 0.51849985 0.69767296 -0.70710248
v 0.51849985 0.66904902 -0.69738257
v 0.51849985 0.66904902 -0.69738257
v 0.51849985 0.66904902 -0.69738257
v 0.51849985 0.66904902 -0.69738257
v 0.51849985 0.66904902 -0.69738257
v 0.51849997 0.66612601 -0.66417694
v 0.51849997 0.66612601 -0.66417694
v 0.51849997 0.66612601 -0.66417694
v 0.51849985 0.69743407 -0.69307017
v 0.51849985 0.69743407 -0.69307017
v 0.51849985 0.66367602 -0.69277465
v 0.51849985 0.66367602 -0.69277465
v 0.51849985 0.66367602 -0.69277465
v 0.51849985 0.67934299 -0.66886258
v 0.51849985 0.67934299 -0.66886258
v 0.51849985 0.67934299 -0.66886258
v 0.51849985 0.69000995 -0.67796689
v 0.51849985 0.69000995 -0.67796689
v 0.51849985 0.68827105 -0.72814387
v 0.51849985 0.69882309 -0.70153779
v 0.55849993 0.70027900 -0.70169908
v 0.55849993 0.68133605 -0.73376060
v 0.51849985 0.66145706 -0.73989236
v 0.55849993 0.64575505 -0.73817527
v 0.51849985 0.63673508 -0.73130059
v 0.55849993 0.62072098 -0.70169908
v 0.51849997 0.62095201 -0.70166439
v 0.55849993 0.66665995 -0.70847934
v 0.55849993 0.66665995 -0.70847934
v 0.55849993 0.66665995 -0.70847934
v 0.55849993 0.68266201 -0.73232514
v 0.55849993 0.68266201 -0.73232514
v 0.55849993 0.68266201 -0.73232514
v 0.55849993 0.69408798 -0.71871865
v 0.55849993 0.69408798 -0.71871865
v 0.55849993 0.69408798 -0.71871865
v 0.55849999 0.66939795 -0.70400399
v 0.55849999 0.66939795 -0.70400399
v 0.55849999 0.66939795 -0.70400399
v 0.55849993 0.66210198 -0.71058524
v 0.55849993 0.66210198 -0.71058524
v 0.55849993 0.66210198 -0.71058524
v 0.55849993 0.66795707 -0.73838937
v 0.55849993 0.69767296 -0.70710248
v 0.55849993 0.69767296 -0.70710248
v 0.55849993 0.69767296 -0.70710248
v 0.55849993 0.65487504 -0.73882258
v 0.55849993 0.65487504 -0.73882258
v 0.55849993 0.65487504 -0.73882258
v 0.55849999 0.66947699 -0.69921356
v 0.55849999 0.66947699 -0.69921356
v 0.55849999 0.66947699 -0.69921356
v 0.55849999 0.66947699 -0.69921356
v 0.55849993 0.69743407 -0.69307017
v 0.55849993 0.69743407 -0.69307017
v 0.55849993 0.65732396 -0.71022487
v 0.55849993 0.65732396 -0.71022487
v 0.55849993 0.65732396 -0.71022487
v 0.55849999 0.64165699 -0.73413694
v 0.55849999 0.64165699 -0.73413694
v 0.55849999 0.64165699 -0.73413694
v 0.55849999 0.69000995 -0.67796689
v 0.55849999 0.69000995 -0.67796689
v 0.55849999 0.69000995 -0.67796689
v 0.55849999 0.66665995 -0.69452017
v 0.55849999 0.66665995 -0.69452017
v 0.55849999 0.66665995 -0.69452017
v 0.55849999 0.65296102 -0.70691979
v 0.55849999 0.65296102 -0.70691979
v 0.55849999 0.65296102 -0.70691979
v 0.55849999 0.65296102 -0.70691979
v 0.55849999 0.63099003 -0.72503269
v 0.55849999 0.63099003 -0.72503269
v 0.55849993 0.67934299 -0.66886258
v 0.55849993 0.67934299 -0.66886258
v 0.55849993 0.67934299 -0.66886258
v 0.55849999 0.62356603 -0.70992935
v 0.55849999 0.62356603 -0.70992935
v 0.55849999 0.62356603 -0.70992935
v 0.55849999 0.66210198 -0.69241428
v 0.55849999 0.66210198 -0.69241428
v 0.55849999 0.66210198 -0.69241428
v 0.55849993 0.66612601 -0.66417694
v 0.55849993 0.66612601 -0.66417694
v 0.55849993 0.66612601 -0.66417694
v 0.55849999 0.65128195 -0.70219058
v 0.55849999 0.65128195 -0.70219058
v 0.55849999 0.65128195 -0.70219058
v 0.55849999 0.65732396 -0.69277465
v 0.55849999 0.65732396 -0.69277465
v 0.55849999 0.65732396 -0.69277465
v 0.55849999 0.65732396 -0.69277465
v 0.55849999 0.62332702 -0.69589704
v 0.55849999 0.62332702 -0.69589704
v 0.55849999 0.62332702 -0.69589704
v 0.55849993 0.65304303 -0.66461027
v 0.55849993 0.65304303 -0.66461027
v 0.55849999 0.65251195 -0.69661856
v 0.55849999 0.65251195 -0.69661856
v 0.55849999 0.65251195 -0.69661856
v 0.55849999 0.65251195 -0.69661856
v 0.55849999 0.62691200 -0.68428087
v 0.55849999 0.62691200 -0.68428087
v 0.55849993 0.63833797 -0.67067438
v 0.55849993 0.63833797 -0.67067438
v 0.55849993 0.63833797 -0.67067438
v 0.51849985 0.65535903 -0.69353878
v 0.55849993 0.65085006 -0.70145959
v 0.51849985 0.65093005 -0.70146996
v 0.55849993 0.66130304 -0.69078344
v 0.51849985 0.66623008 -0.69338959
v 0.55849993 0.66992998 -0.70148444
v 0.51849985 0.66973102 -0.70149708
v -0.56975603 0.61849999 -0.70150363
v -0.56722903 0.65850007 -0.70887387
v -0.56965911 0.65850007 -0.70150006
v -0.56540024 0.61849999 -0.71032315
v -0.55527472 0.65850007 -0.70958996
v -0.54962909 0.61849999 -0.70224297
v -0.55107033 0.65850007 -0.70151502
v -0.53626359 0.61849999 -0.67004782
v -0.52238607 0.61849999 -0.70147467
v -0.52157915 0.65850007 -0.70141137
v -0.53347707 0.65850007 -0.67470837
v -0.55888796 0.65850007 -0.66278684
v -0.57525539 0.61849999 -0.66567284
v -0.58572102 0.65850007 -0.67292052
v -0.60115373 0.61849999 -0.70113194
v -0.59972227 0.65850007 -0.70137793
v -0.55261159 0.61849999 -0.70659465
v -0.55261159 0.61849999 -0.70659465
v -0.55261159 0.61849999 -0.70659465
v -0.55261159 0.61849999 -0.70659465
v -0.53692579 0.61849999 -0.73106116
v -0.53692579 0.61849999 -0.73106116
v -0.53692579 0.61849999 -0.73106116
v -0.52691209 0.61849999 -0.71871895
v -0.52691209 0.61849999 -0.71871895
v -0.55886376 0.61849999 -0.71077824
v -0.55886376 0.61849999 -0.71077824
v -0.55886376 0.61849999 -0.71077824
v -0.55886376 0.61849999 -0.71077824
v -0.55886376 0.61849999 -0.71077824
v -0.54940689 0.61849999 -0.73746365
v -0.54940689 0.61849999 -0.73746365
v -0.52253485 0.61849999 -0.70149976
v -0.52253485 0.61849999 -0.70149976
v -0.55128682 0.61849999 -0.70034522
v -0.55128682 0.61849999 -0.70034522
v -0.55128682 0.61849999 -0.70034522
v -0.56049991 0.61849999 -0.73913556
v -0.56049991 0.61849999 -0.73913556
v -0.57159317 0.61849999 -0.73746365
v -0.57159317 0.61849999 -0.73746365
v -0.57159317 0.61849999 -0.73746365
v -0.56534159 0.61849999 -0.70942277
v -0.56534159 0.61849999 -0.70942277
v -0.56534159 0.61849999 -0.70942277
v -0.52769148 0.61849999 -0.68255782
v -0.52769148 0.61849999 -0.68255782
v -0.55442274 0.61849999 -0.69425726
v -0.55442274 0.61849999 -0.69425726
v -0.55442274 0.61849999 -0.69425726
v -0.55442274 0.61849999 -0.69425726
v -0.58249903 0.61849999 -0.73209852
v -0.58249903 0.61849999 -0.73209852
v -0.53923786 0.61849999 -0.67031395
v -0.53923786 0.61849999 -0.67031395
v -0.59276319 0.61849999 -0.72121537
v -0.59276319 0.61849999 -0.72121537
v -0.59276319 0.61849999 -0.72121537
v -0.56960094 0.61849999 -0.70406032
v -0.56960094 0.61849999 -0.70406032
v -0.56960094 0.61849999 -0.70406032
v -0.55577922 0.61849999 -0.66382927
v -0.55577922 0.61849999 -0.66382927
v -0.55577922 0.61849999 -0.66382927
v -0.59756386 0.61849999 -0.70803565
v -0.59756386 0.61849999 -0.70803565
v -0.56142938 0.61849999 -0.69221193
v -0.56142938 0.61849999 -0.69221193
v -0.56142938 0.61849999 -0.69221193
v -0.59784365 0.61849999 -0.69681996
v -0.59784365 0.61849999 -0.69681996
v -0.57521522 0.61849999 -0.66659063
v -0.57521522 0.61849999 -0.66659063
v -0.57521522 0.61849999 -0.66659063
v -0.56806397 0.61849999 -0.69577026
v -0.56806397 0.61849999 -0.69577026
v -0.56806397 0.61849999 -0.69577026
v -0.59480512 0.61849999 -0.68602043
v -0.59480512 0.61849999 -0.68602043
v -0.58812559 0.61849999 -0.67586636
v -0.60039759 0.61849999 -0.70171833
v -0.59961903 0.65850007 -0.70160967
v -0.58640385 0.65850007 -0.72941726
v -0.58178902 0.61849999 -0.73328227
v -0.56241608 0.65850007 -0.73989642
v -0.55380249 0.61849999 -0.73948276
v -0.52993286 0.65850007 -0.72629285
v -0.52962458 0.61849999 -0.72408426
v -0.52250898 0.61849999 -0.70151824
v -0.52289522 0.65850007 -0.70150262
v -0.56657708 0.65850007 -0.70874226
v -0.56657708 0.65850007 -0.70874226
v -0.56657708 0.65850007 -0.70874226
v -0.56657708 0.65850007 -0.70874226
v -0.58176207 0.65850007 -0.73268563
v -0.58176207 0.65850007 -0.73268563
v -0.59046662 0.65850007 -0.72419876
v -0.59046662 0.65850007 -0.72419876
v -0.59696782 0.65850007 -0.71176046
v -0.59696782 0.65850007 -0.71176046
v -0.56522071 0.65850007 -0.73917025
v -0.56522071 0.65850007 -0.73917025
v -0.56522071 0.65850007 -0.73917025
v -0.56971312 0.65850007 -0.70265436
v -0.56971312 0.65850007 -0.70265436
v -0.56971312 0.65850007 -0.70265436
v -0.55957055 0.65850007 -0.71078765
v -0.55957055 0.65850007 -0.71078765
v -0.59784377 0.65850007 -0.69682002
v -0.59784377 0.65850007 -0.69682002
v -0.59784377 0.65850007 -0.69682002
v -0.54578471 0.65850007 -0.73640895
v -0.54578471 0.65850007 -0.73640895
v -0.56838834 0.65850007 -0.69640493
v -0.56838834 0.65850007 -0.69640493
v -0.56838834 0.65850007 -0.69640493
v -0.56838834 0.65850007 -0.69640493
v -0.59408772 0.65850007 -0.68428063
v -0.59408772 0.65850007 -0.68428063
v -0.55293608 0.65850007 -0.70722932
v -0.55293608 0.65850007 -0.70722932
v -0.53287423 0.65850007 -0.72713327
v -0.53287423 0.65850007 -0.72713327
v -0.58407414 0.65850007 -0.67193842
v -0.58407414 0.65850007 -0.67193842
v -0.56213617 0.65850007 -0.69222122
v -0.56213617 0.65850007 -0.69222122
v -0.56213617 0.65850007 -0.69222122
v -0.52619481 0.65850007 -0.71697915
v -0.52619481 0.65850007 -0.71697915
v -0.57159293 0.65850007 -0.66553593
v -0.52315628 0.65850007 -0.70617956
v -0.52315628 0.65850007 -0.70617956
v -0.55139899 0.65850007 -0.69893914
v -0.55139899 0.65850007 -0.69893914
v -0.55139899 0.65850007 -0.69893914
v -0.55139899 0.65850007 -0.69893914
v -0.56049991 0.65850007 -0.66386396
v -0.52343607 0.65850007 -0.69496387
v -0.52343607 0.65850007 -0.69496387
v -0.54940689 0.65850007 -0.66553593
v -0.54940689 0.65850007 -0.66553593
v -0.55565834 0.65850007 -0.69357675
v -0.55565834 0.65850007 -0.69357675
v -0.55565834 0.65850007 -0.69357675
v -0.55565834 0.65850007 -0.69357675
v -0.52823687 0.65850007 -0.68178427
v -0.52823687 0.65850007 -0.68178427
v -0.52823687 0.65850007 -0.68178427
v -0.53850079 0.65850007 -0.67090094
v -0.53850079 0.65850007 -0.67090094
v -0.55418062 0.61849999 -0.69433892
v -0.55008042 0.65850007 -0.70123172
v -0.55118406 0.61849999 -0.70149273
v -0.56050003 0.65850007 -0.69182605
v -0.56547368 0.61849999 -0.69288516
v -0.57091951 0.65850007 -0.70123172
v -0.56979978 0.61849999 -0.70149362
vn -0.67167443 -0.08154672 0.73634475
vn -0.26233432 0.06358075 0.96288025
vn -0.88358223 0.01747596 0.46794987
vn 0.21693267 -0.06042891 0.97431451
vn 0.63704115 0.08608442 0.76600784
vn 0.86869246 -0.02396899 0.49477181
vn -0.80118585 0.03240412 0.59753758
vn -0.91535276 -0.05216515 0.39925969
vn -0.53791875 -0.06357854 0.84059584
vn -0.95133668 0.00506401 0.30811217
vn 0.01642249 0.03911334 0.99909979
vn 0.53816301 -0.06647980 0.84021497
vn 0.83061361 0.03239417 0.55590630
vn 0.91547877 -0.06359696 0.39730859
vn 0.97468418 0.03018867 0.22153905
vn -0.00000126 1.00000000 0.00000098
vn -0.00000042 1.00000000 0.00000042
vn 0.00000000 1.00000000 0.00000027
vn -0.00000023 1.00000000 0.00000027
vn -0.00000126 1.00000000 0.00000098
vn -0.00000026 1.00000000 0.00000004
vn 0.00000068 1.00000000 -0.00000016
vn -0.00000126 1.00000000 0.00000098
vn -0.00000042 1.00000000 0.00000042
vn -0.00000026 1.00000000 0.00000004
vn 0.00000000 1.00000000 0.00000027
vn -0.00000042 1.00000000 0.00000042
vn -0.00000026 1.00000000 0.00000004
vn -0.00000015 1.00000000 0.00000027
vn 0.00000068 1.00000000 -0.00000016
vn -0.00000015 1.00000000 0.00000027
vn 0.00000068 1.00000000 -0.00000016
vn 0.00000000 1.00000000 0.00000027
vn 0.00000000 1.00000000 0.00000027
vn -0.00000014 1.00000000 0.00000027
vn -0.00000023 1.00000000 0.00000027
vn 0.00000000 1.00000000 0.00000027
vn -0.00000015 1.00000000 0.00000027
vn -0.00000014 1.00000000 0.00000027
vn -0.00000023 1.00000000 0.00000027
vn -0.00000050 1.00000000 0.00000014
vn -0.00000085 1.00000000 -0.00000063
vn -0.00000014 1.00000000 0.00000027
vn -0.00000050 1.00000000 0.00000014
vn 0.00000000 1.00000000 0.00000027
vn 0.00000065 1.00000000 0.00000027
vn 0.00000065 1.00000000 0.00000027
vn 0.00000000 1.00000000 0.00000027
vn -0.00000085 1.00000000 -0.00000063
vn -0.00000054 1.00000000 0.00000106
vn 0.00000000 1.00000000 0.00000027
vn -0.00000050 1.00000000 0.00000014
vn -0.00000085 1.00000000 -0.00000063
vn -0.00000054 1.00000000 0.00000106
vn 0.00000000 1.00000000 0.00000003
vn 0.00000000 1.00000000 0.00000027
vn 0.00000065 1.00000000 0.00000027
vn 0.00000000 1.00000000 0.00000027
vn 0.00000000 1.00000000 0.00000003
vn -0.00000033 1.00000000 0.00000027
vn -0.00000037 1.00000000 0.00000027
vn -0.00000054 1.00000000 0.00000106
vn 0.00000032 1.00000000 0.00000027
vn 0.00000000 1.00000000 0.00000027
vn 0.00000000 1.00000000 0.00000027
vn -0.00000037 1.00000000 0.00000027
vn 0.00000000 1.00000000 0.00000027
vn -0.00000033 1.00000000 0.00000027
vn 0.00000000 1.00000000 0.00000003
vn 0.00000032 1.00000000 0.00000027
vn -0.00000037 1.00000000 0.00000027
vn 0.00000000 1.00000000 0.00000027
vn -0.00000033 1.00000000 0.00000027
vn 0.00000000 1.00000000 0.00000027
vn -0.00000033 1.00000000 0.00000027
vn -0.00000000 1.00000000 0.00000042
vn 0.00000000 1.00000000 0.00000027
vn -0.00000033 1.00000000 0.00000027
vn 0.00000032 1.00000000 0.00000027
vn 0.00000000 1.00000000 0.00000027
vn -0.00000000 1.00000000 0.00000042
vn -0.00000033 1.00000000 0.00000027
vn 0.00000000 1.00000000 0.00000027
vn -0.00000000 1.00000000 0.00000042
vn 0.92037058 0.04021322 -0.38897419
vn 0.96574527 -0.04517644 -0.25552979
vn 0.76355296 -0.02687370 -0.64518589
vn 0.63590503 0.00965458 -0.77170694
vn -0.13635726 -0.02969193 -0.99021470
vn -0.04297015 0.01745611 -0.99892402
vn -0.80167276 0.00836253 -0.59770465
vn -0.86354315 -0.01700377 -0.50398833
vn -0.97666061 0.01519066 -0.21425104
vn -0.97091526 0.00060968 -0.23942244
vn 0.00000020 -1.00000000 -0.00000008
vn 0.00000013 -1.00000000 -0.00000027
vn 0.00000000 -1.00000000 -0.00000027
vn 0.00000013 -1.00000000 -0.00000027
vn 0.00000000 -1.00000000 -0.00000027
vn 0.00000013 -1.00000000 -0.00000027
vn 0.00000020 -1.00000000 -0.00000008
vn 0.00000000 -1.00000000 -0.00000027
vn 0.00000000 -1.00000000 -0.00000027
vn 0.00000013 -1.00000000 -0.00000027
vn 0.00000039 -1.00000000 -0.00000044
vn 0.00000000 -1.00000000 -0.00000027
vn 0.00000020 -1.00000000 -0.00000008
vn 0.00000020 -1.00000000 -0.00000027
vn 0.00000015 -1.00000000 -0.00000027
vn 0.00000000 -1.00000000 -0.00000027
vn 0.00000013 -1.00000000 -0.00000027
vn 0.00000000 -1.00000000 -0.00000027
vn 0.00000020 -1.00000000 -0.00000027
vn 0.00000013 -1.00000000 -0.00000027
vn 0.00000015 -1.00000000 -0.00000027
vn 0.00000020 -1.00000000 -0.00000027
vn 0.00000000 -1.00000000 -0.00000027
vn 0.00000000 -1.00000000 -0.00000027
vn 0.00000039 -1.00000000 -0.00000044
vn 0.00000000 -1.00000000 -0.00000027
vn 0.00000039 -1.00000000 -0.00000044
vn 0.00000013 -1.00000000 -0.00000027
vn 0.00000015 -1.00000000 -0.00000027
vn 0.00000023 -1.00000000 -0.00000054
vn 0.00000000 -1.00000000 -0.00000027
vn 0.00000013 -1.00000000 -0.00000027
vn 0.00000000 -1.00000000 -0.00000027
vn 0.00000000 -1.00000000 -0.00000027
vn 0.00000023 -1.00000000 -0.00000054
vn 0.00000017 -1.00000000 -0.00000027
vn 0.00000000 -1.00000000 -0.00000027
vn 0.00000013 -1.00000000 -0.00000027
vn 0.00000000 -1.00000000 -0.00000027
vn 0.00000000 -1.00000000 -0.00000027
vn 0.00000023 -1.00000000 -0.00000054
vn 0.00000017 -1.00000000 -0.00000027
vn 0.00000026 -1.00000000 -0.00000027
vn 0.00000000 -1.00000000 -0.00000027
vn 0.00000000 -1.00000000 -0.00000027
vn 0.00000017 -1.00000000 -0.00000027
vn 0.00000000 -1.00000000 -0.00000027
vn 0.00000026 -1.00000000 -0.00000027
vn 0.00000016 -1.00000000 -0.00000027
vn 0.00000037 -1.00000000 0.00000013
vn 0.00000000 -1.00000000 -0.00000027
vn 0.00000016 -1.00000000 -0.00000027
vn 0.00000000 -1.00000000 -0.00000027
vn 0.00000000 -1.00000000 -0.00000027
vn 0.00000026 -1.00000000 -0.00000027
vn 0.00000000 -1.00000000 -0.00000027
vn 0.00000037 -1.00000000 0.00000013
vn 0.00000016 -1.00000000 -0.00000027
vn 0.00000037 -1.00000000 0.00000013
vn 0.00000000 -1.00000000 -0.00000027
vn 0.58400762 -0.00556767 -0.81172925
vn 0.90389633 0.01389819 -0.42752579
vn 0.94152206 -0.00624710 -0.33689347
vn 0.54550850 0.01052910 -0.83803916
vn -0.52831876 0.00147700 -0.84904474
vn -0.51753366 -0.00946945 -0.85561043
vn -0.89813095 -0.00653934 -0.43967962
vn -0.91856635 0.00445396 -0.39524171
vn -0.04495658 0.81660152 0.57544893
vn 0.02884919 0.61558592 0.78754181
vn 0.00953956 0.94213980 0.33508474
vn -0.07043714 0.12630050 0.98948824
vn 0.02727204 -0.47924259 0.87725860
vn -0.05819074 -0.66601700 0.74366319
vn 0.01767884 -0.86420912 0.50282198
vn 0.00055233 0.90254432 0.43059695
vn -0.00177121 0.90366542 0.42823595
vn -0.01446395 0.56863391 0.82246375
vn 0.00290657 0.58006000 0.81456888
vn 0.01679145 -0.28335130 0.95886916
vn -0.05299902 -0.45660201 0.88809109
vn 0.00414168 -0.87010813 0.49284327
vn -0.06990534 -0.89906579 0.43219665
vn 0.04017350 -0.97859651 0.20182873
vn 1.00000000 -0.00000000 0.00000013
vn 1.00000000 -0.00000000 0.00000236
vn 1.00000000 -0.00000000 0.00000393
vn 1.00000000 -0.00000000 -0.00000399
vn 1.00000000 -0.00000000 -0.00000387
vn 1.00000000 -0.00000000 0.00000013
vn 1.00000000 -0.00000000 -0.00000387
vn 1.00000000 -0.00000000 0.00000013
vn 1.00000000 -0.00000000 0.00000393
vn 1.00000000 -0.00000000 -0.00000387
vn 1.00000000 -0.00000000 0.00000013
vn 1.00000000 -0.00000000 0.00000236
vn 1.00000000 -0.00000000 0.00000013
vn 1.00000000 -0.00000000 0.00000236
vn 1.00000000 -0.00000000 0.00000013
vn 1.00000000 -0.00000000 -0.00000387
vn 1.00000000 -0.00000000 -0.00000399
vn 1.00000000 -0.00000000 0.00000393
vn 1.00000000 -0.00000000 -0.00000783
vn 1.00000000 -0.00000000 -0.00000387
vn 1.00000000 -0.00000000 0.00000432
vn 1.00000000 -0.00000000 -0.00000399
vn 1.00000000 -0.00000000 0.00000013
vn 1.00000000 -0.00000000 0.00000432
vn 1.00000000 -0.00000000 -0.00000387
vn 1.00000000 -0.00000000 0.00000909
vn 1.00000000 -0.00000000 0.00000013
vn 1.00000000 -0.00000000 -0.00000805
vn 1.00000000 -0.00000000 0.00000909
vn 1.00000000 -0.00000000 0.00000013
vn 1.00000000 -0.00000000 0.00000432
vn 1.00000000 -0.00000000 -0.00000783
vn 1.00000000 -0.00000000 0.00000013
vn 1.00000000 -0.00000000 -0.00000783
vn 1.00000000 -0.00000000 0.00000733
vn 1.00000000 -0.00000000 0.00000013
vn 1.00000000 -0.00000000 0.00000013
vn 1.00000000 -0.00000000 0.00000909
vn 1.00000000 -0.00000000 -0.00000805
vn 1.00000000 -0.00000000 0.00000013
vn 1.00000000 -0.00000000 -0.00000805
vn 1.00000000 -0.00000000 0.00000013
vn 1.00000000 -0.00000000 0.00000733
vn 1.00000000 -0.00000000 0.00000013
vn 1.00000000 -0.00000000 0.00000733
vn 1.00000000 -0.00000000 -0.00000270
vn 1.00000000 -0.00000000 0.00000013
vn 1.00000000 -0.00000000 0.00000013
vn 1.00000000 -0.00000000 0.00000013
vn 1.00000000 -0.00000000 0.00000013
vn 1.00000000 -0.00000000 0.00000013
vn 1.00000000 -0.00000000 -0.00000270
vn 1.00000000 -0.00000000 0.00000013
vn 1.00000000 -0.00000000 -0.00000270
vn 1.00000000 -0.00000000 0.00000013
vn 0.01463624 -0.97759449 -0.20998837
vn -0.00105146 -0.98507267 -0.17213607
vn -0.02157770 -0.87765169 -0.47881353
vn 0.00963666 -0.82688421 -0.56228995
vn -0.00473999 -0.20764610 -0.97819269
vn 0.01985610 -0.14436190 -0.98932576
vn -0.00093487 0.67147011 -0.74103093
vn -0.01869579 0.62214440 -0.78267914
vn -0.01513517 0.91217041 -0.40953156
vn 0.02713721 0.93315738 -0.35844207
vn -1.00000000 -0.00000000 -0.00000139
vn -1.00000000 -0.00000000 -0.00000013
vn -1.00000000 -0.00000000 0.00000243
vn -1.00000000 -0.00000000 -0.00000013
vn -1.00000000 -0.00000000 0.00000243
vn -1.00000000 -0.00000000 0.00000243
vn -1.00000000 -0.00000000 -0.00000139
vn -1.00000000 -0.00000000 -0.00000013
vn -1.00000000 -0.00000000 -0.00000013
vn -1.00000000 -0.00000000 -0.00000013
vn -1.00000000 -0.00000000 -0.00000139
vn -1.00000000 -0.00000000 0.00000024
vn -1.00000000 -0.00000000 0.00000024
vn -1.00000000 -0.00000000 -0.00000013
vn -1.00000000 -0.00000000 -0.00000013
vn -1.00000000 -0.00000000 -0.00000013
vn -1.00000000 -0.00000000 0.00000024
vn -1.00000000 -0.00000000 0.00000395
vn -1.00000000 -0.00000000 -0.00000430
vn -1.00000000 -0.00000000 -0.00000013
vn -1.00000000 -0.00000000 0.00000395
vn -1.00000000 -0.00000000 -0.00000252
vn -1.00000000 -0.00000000 -0.00000013
vn -1.00000000 -0.00000000 0.00000395
vn -1.00000000 -0.00000000 -0.00000252
vn -1.00000000 -0.00000000 -0.00000430
vn -1.00000000 -0.00000000 -0.00000467
vn -1.00000000 -0.00000000 0.00000867
vn -1.00000000 -0.00000000 -0.00001064
vn -1.00000000 -0.00000000 -0.00000013
vn -1.00000000 -0.00000000 -0.00000013
vn -1.00000000 -0.00000000 -0.00000252
vn -1.00000000 -0.00000000 -0.00000467
vn -1.00000000 -0.00000000 -0.00000430
vn -1.00000000 -0.00000000 -0.00000426
vn -1.00000000 -0.00000000 -0.00000013
vn -1.00000000 -0.00000000 -0.00000013
vn -1.00000000 -0.00000000 -0.00000467
vn -1.00000000 -0.00000000 0.00000867
vn -1.00000000 -0.00000000 0.00000867
vn -1.00000000 -0.00000000 -0.00000013
vn -1.00000000 -0.00000000 -0.00001064
vn -1.00000000 -0.00000000 -0.00001064
vn -1.00000000 -0.00000000 0.00001087
vn -1.00000000 -0.00000000 -0.00000013
vn -1.00000000 -0.00000000 -0.00000426
vn -1.00000000 -0.00000000 -0.00000580
vn -1.00000000 -0.00000000 -0.00000013
vn -1.00000000 -0.00000000 0.00000497
vn -1.00000000 -0.00000000 -0.00000580
vn -1.00000000 -0.00000000 -0.00000426
vn -1.00000000 -0.00000000 0.00001087
vn -1.00000000 -0.00000000 -0.00000013
vn -1.00000000 -0.00000000 -0.00000580
vn -1.00000000 -0.00000000 0.00000497
vn -1.00000000 -0.00000000 0.00001087
vn -1.00000000 -0.00000000 0.00000497
vn -1.00000000 -0.00000000 -0.00000013
vn -0.03030103 -0.50530827 -0.86240691
vn 0.06003699 -0.67699689 -0.73353326
vn -0.02764302 -0.89814001 -0.43884003
vn 0.06987417 0.09018158 -0.99347120
vn -0.02791572 0.58838052 -0.80810201
vn 0.04251250 0.77626401 -0.62897283
vn -0.01425177 0.91832382 -0.39557317
vn 0.07878298 -0.51416129 0.85406750
vn -0.01019001 -0.51353002 0.85801119
vn -0.03904521 -0.87621027 0.48034456
vn 0.05543314 0.35171881 0.93446314
vn -0.00432485 0.53339851 0.84585333
vn 0.00465727 0.90717107 0.42073664
vn 0.00031272 0.89949781 0.43692565
vn -0.02613024 -0.92702371 0.37409136
vn 0.01477773 -0.94729680 0.32001603
vn 0.01313343 -0.72520578 0.68840683
vn -0.01501868 -0.64861381 0.76096940
vn 0.02729885 0.04555714 0.99858868
vn -0.01005197 0.01038724 0.99989557
vn -0.01816151 0.67999268 0.73299408
vn 0.01782926 0.76650608 0.64198989
vn -0.02578841 0.93581402 0.35154983
vn 0.00954308 0.95378918 0.30032527
vn -1.00000000 -0.00000000 -0.00000013
vn -1.00000000 -0.00000000 -0.00000013
vn -1.00000000 -0.00000000 -0.00000013
vn -1.00000000 -0.00000135 0.00000285
vn -1.00000000 -0.00000135 0.00000285
vn -1.00000000 -0.00000000 -0.00000013
vn -1.00000000 -0.00000107 -0.00000013
vn -1.00000000 -0.00000107 -0.00000013
vn -1.00000000 -0.00000106 -0.00000013
vn -1.00000000 -0.00000135 0.00000285
vn -1.00000000 -0.00000000 -0.00000013
vn -1.00000000 -0.00000000 0.00000194
vn -1.00000000 -0.00000000 -0.00000270
vn -1.00000000 -0.00000000 -0.00000270
vn -1.00000000 -0.00000000 -0.00000013
vn -1.00000000 -0.00000000 -0.00000270
vn -1.00000000 -0.00000000 0.00000194
vn -1.00000000 -0.00000102 0.00000124
vn -1.00000000 -0.00000107 -0.00000013
vn -1.00000000 -0.00000088 -0.00000013
vn -1.00000000 -0.00000106 -0.00000013
vn -1.00000000 -0.00000106 -0.00000013
vn -1.00000000 -0.00000102 0.00000124
vn -1.00000000 -0.00000102 0.00000124
vn -1.00000000 -0.00000088 -0.00000013
vn -1.00000000 -0.00000083 -0.00000013
vn -1.00000000 -0.00000000 -0.00000013
vn -1.00000000 -0.00000000 0.00000194
vn -1.00000000 -0.00000000 0.00000175
vn -1.00000000 -0.00000000 0.00000175
vn -1.00000000 -0.00000000 -0.00000013
vn -1.00000000 -0.00000088 -0.00000013
vn -1.00000000 -0.00000083 -0.00000013
vn -1.00000000 0.00000455 -0.00000013
vn -1.00000000 0.00000455 -0.00000013
vn -1.00000000 -0.00000083 -0.00000013
vn -1.00000000 -0.00000000 -0.00000013
vn -1.00000000 -0.00000000 -0.00000013
vn -1.00000000 -0.00000000 0.00000175
vn -1.00000000 -0.00000000 -0.00000013
vn -1.00000000 -0.00000000 0.00000127
vn -1.00000000 0.00000455 -0.00000013
vn -1.00000000 -0.00000000 -0.00000141
vn -1.00000000 -0.00000612 0.00000156
vn -1.00000000 -0.00000000 -0.00000013
vn -1.00000000 -0.00000000 -0.00000141
vn -1.00000000 -0.00000000 -0.00000013
vn -1.00000000 -0.00000000 0.00000127
vn -1.00000000 -0.00000000 -0.00000013
vn -1.00000000 -0.00000000 -0.00000013
vn -1.00000000 -0.00000000 0.00000104
vn -1.00000000 -0.00000000 -0.00000418
vn -1.00000000 -0.00000000 0.00000219
vn -1.00000000 -0.00000000 0.00000127
vn -1.00000000 -0.00000183 0.00000016
vn -1.00000000 -0.00000000 -0.00000141
vn -1.00000000 -0.00000612 0.00000156
vn -1.00000000 -0.00000000 -0.00000418
vn -1.00000000 -0.00000000 -0.00000013
vn -1.00000000 -0.00000183 0.00000016
vn -1.00000000 -0.00000000 0.00000219
vn -1.00000000 -0.00000612 0.00000156
vn -1.00000000 -0.00000000 0.00000219
vn -1.00000000 -0.00000000 0.00000104
vn -1.00000000 -0.00000183 0.00000016
vn -1.00000000 -0.00000000 0.00000104
vn -1.00000000 -0.00000000 -0.00000418
vn -0.01673886 0.72750479 -0.68589824
vn -0.03530545 0.92897862 -0.36844587
vn 0.03317511 0.89017743 -0.45440447
vn 0.05715685 0.54830962 -0.83431989
vn -0.03191373 0.04963529 -0.99825740
vn 0.06121641 -0.40914261 -0.91041481
vn -0.01201262 -0.67278433 -0.73974138
vn 0.04685706 -0.85071528 -0.52353424
vn -0.00548619 -0.88261908 -0.47005713
vn 1.00000000 0.00000083 0.00000013
vn 1.00000000 -0.00000114 -0.00001222
vn 1.00000000 -0.00000455 0.00000013
vn 1.00000000 -0.00000000 0.00000013
vn 1.00000000 0.00000083 0.00000013
vn 1.00000000 -0.00000455 0.00000013
vn 1.00000000 0.00000083 0.00000013
vn 1.00000000 -0.00000114 -0.00001222
vn 1.00000000 0.00000204 -0.00000398
vn 1.00000000 0.00000210 0.00000013
vn 1.00000000 -0.00000114 -0.00001222
vn 1.00000000 0.00000204 -0.00000398
vn 1.00000000 -0.00000000 0.00000013
vn 1.00000000 0.00000612 0.00000013
vn 1.00000000 -0.00000455 0.00000013
vn 1.00000000 -0.00000000 0.00000013
vn 1.00000000 0.00000210 0.00000013
vn 1.00000000 0.00000212 0.00000161
vn 1.00000000 0.00000204 -0.00000398
vn 1.00000000 -0.00000000 0.00000013
vn 1.00000000 0.00000402 -0.00000226
vn 1.00000000 0.00000612 0.00000013
vn 1.00000000 0.00000212 0.00000161
vn 1.00000000 0.00000210 0.00000013
vn 1.00000000 0.00000271 -0.00000385
vn 1.00000000 -0.00000000 0.00000013
vn 1.00000000 0.00000212 0.00000161
vn 1.00000000 0.00000271 -0.00000385
vn 1.00000000 0.00000612 0.00000013
vn 1.00000000 0.00000402 -0.00000226
vn 1.00000000 0.00000520 -0.00000583
vn 1.00000000 -0.00000000 0.00000250
vn 1.00000000 0.00000520 -0.00000583
vn 1.00000000 0.00000402 -0.00000226
vn 1.00000000 -0.00000000 0.00000492
vn 1.00000000 -0.00000000 0.00000013
vn 1.00000000 0.00000271 -0.00000385
vn 1.00000000 -0.00000000 0.00000492
vn 1.00000000 -0.00000000 0.00000338
vn 1.00000000 -0.00000000 0.00000013
vn 1.00000000 -0.00000000 0.00001145
vn 1.00000000 -0.00000000 -0.00000386
vn 1.00000000 0.00000520 -0.00000583
vn 1.00000000 -0.00000000 0.00000250
vn 1.00000000 -0.00000000 -0.00000386
vn 1.00000000 -0.00000000 0.00000250
vn 1.00000000 -0.00000000 0.00000492
vn 1.00000000 -0.00000000 -0.00000224
vn 1.00000000 -0.00000000 0.00000338
vn 1.00000000 -0.00000000 0.00001145
vn 1.00000000 -0.00000000 -0.00000386
vn 1.00000000 -0.00000000 0.00000013
vn 1.00000000 -0.00000000 -0.00000224
vn 1.00000000 -0.00000000 0.00000013
vn 1.00000000 -0.00000000 0.00000338
vn 1.00000000 -0.00000000 0.00000139
vn 1.00000000 -0.00000000 0.00000013
vn 1.00000000 -0.00000000 -0.00000224
vn 1.00000000 -0.00000000 0.00000013
vn 1.00000000 -0.00000000 0.00000369
vn 1.00000000 -0.00000000 0.00001145
vn 1.00000000 -0.00000000 0.00000139
vn 1.00000000 -0.00000000 0.00000013
vn 1.00000000 -0.00000000 0.00000273
vn 1.00000000 -0.00000000 0.00000119
vn 1.00000000 -0.00000000 -0.00000532
vn 1.00000000 -0.00000000 0.00000013
vn 1.00000000 -0.00000000 0.00000369
vn 1.00000000 -0.00000000 0.00000119
vn 1.00000000 -0.00000000 0.00000139
vn 1.00000000 -0.00000000 0.00000369
vn 1.00000000 -0.00000000 0.00000273
vn 1.00000000 -0.00000000 0.00000013
vn 1.00000000 -0.00000000 -0.00000532
vn 1.00000000 -0.00000000 -0.00000532
vn 1.00000000 -0.00000000 0.00000013
vn 1.00000000 -0.00000000 0.00000273
vn 1.00000000 -0.00000000 0.00000119
vn 1.00000000 -0.00000000 0.00000013
vn 0.02763604 0.52974749 -0.84770489
vn -0.04967245 0.73926210 -0.67158323
vn 0.00186617 0.87311298 -0.48751417
vn -0.06606022 -0.04894298 -0.99661469
vn 0.03182285 -0.56010389 -0.82781118
vn -0.04691253 -0.80038190 -0.59765256
vn 0.00468224 -0.91803431 -0.39647365
vn 0.90383542 0.02163815 0.42733273
vn 0.61791581 -0.01834124 0.78603035
vn 0.94975776 -0.00233084 0.31297743
vn 0.33546987 0.06996303 0.93944949
vn -0.49080551 -0.02088052 0.87101907
vn -0.52705544 0.08099412 0.84596264
vn -0.88625246 -0.04033309 0.46144319
vn 0.61224759 -0.03563529 0.78986263
vn 0.91461355 -0.01909071 0.40387842
vn 0.91390204 -0.01751226 0.40555683
vn 0.73396480 0.02793580 0.67861283
vn 0.04189013 0.02201724 0.99887967
vn -0.40368423 -0.07786762 0.91157871
vn -0.68592012 0.00986928 0.72760999
vn -0.84806389 -0.04516685 0.52796561
vn -0.89673364 0.03480428 0.44120008
vn -0.00001704 -1.00000000 -0.00000027
vn 0.00000000 -1.00000000 -0.00000027
vn 0.00000514 -1.00000000 -0.00000027
vn 0.00000849 -1.00000000 -0.00000027
vn 0.00000849 -1.00000000 -0.00000027
vn -0.00001704 -1.00000000 -0.00000027
vn -0.00000473 -1.00000000 -0.00000027
vn 0.00000849 -1.00000000 -0.00000027
vn 0.00000000 -1.00000000 -0.00000027
vn 0.00000000 -1.00000000 -0.00000027
vn 0.00000299 -1.00000000 -0.00000027
vn -0.00000294 -1.00000000 -0.00000027
vn -0.00000473 -1.00000000 -0.00000027
vn -0.00001704 -1.00000000 -0.00000027
vn 0.00000299 -1.00000000 -0.00000027
vn -0.00000473 -1.00000000 -0.00000027
vn 0.00000000 -1.00000000 -0.00000027
vn 0.00000514 -1.00000000 -0.00000027
vn 0.00001868 -1.00000000 -0.00000027
vn 0.00000000 -1.00000000 -0.00000027
vn 0.00000514 -1.00000000 -0.00000027
vn 0.00000299 -1.00000000 -0.00000027
vn -0.00000294 -1.00000000 -0.00000027
vn -0.00000294 -1.00000000 -0.00000027
vn 0.00000000 -1.00000000 -0.00000027
vn -0.00000274 -1.00000000 -0.00000027
vn -0.00000472 -1.00000000 -0.00000027
vn -0.00000274 -1.00000000 -0.00000027
vn 0.00000000 -1.00000000 -0.00000027
vn 0.00001868 -1.00000000 -0.00000027
vn 0.00000000 -1.00000000 -0.00000027
vn -0.00000753 -1.00000000 -0.00000027
vn -0.00001106 -1.00000000 -0.00000027
vn 0.00000000 -1.00000000 -0.00000027
vn 0.00001868 -1.00000000 -0.00000027
vn 0.00000000 -1.00000000 -0.00000027
vn -0.00000274 -1.00000000 -0.00000027
vn -0.00000753 -1.00000000 -0.00000027
vn 0.00000000 -1.00000000 -0.00000027
vn 0.00000000 -1.00000000 -0.00000027
vn -0.00000472 -1.00000000 -0.00000027
vn 0.00000961 -1.00000000 -0.00000027
vn 0.00000961 -1.00000000 -0.00000027
vn 0.00000000 -1.00000000 -0.00000027
vn -0.00000472 -1.00000000 -0.00000027
vn -0.00000753 -1.00000000 -0.00000027
vn -0.00001106 -1.00000000 -0.00000027
vn 0.00001390 -1.00000000 -0.00000027
vn 0.00000961 -1.00000000 -0.00000027
vn 0.00000000 -1.00000000 -0.00000027
vn -0.00001106 -1.00000000 -0.00000027
vn 0.00001390 -1.00000000 -0.00000027
vn -0.00000850 -1.00000000 -0.00000027
vn 0.00000000 -1.00000000 -0.00000027
vn 0.00000439 -1.00000000 -0.00000027
vn 0.00000000 -1.00000000 -0.00000027
vn 0.00001390 -1.00000000 -0.00000027
vn -0.00000850 -1.00000000 -0.00000027
vn -0.00000850 -1.00000000 -0.00000027
vn 0.00000439 -1.00000000 -0.00000027
vn 0.00000000 -1.00000000 -0.00000027
vn 0.00000000 -1.00000000 -0.00000027
vn 0.00000439 -1.00000000 -0.00000027
vn 0.00000000 -1.00000000 -0.00000027
vn -0.87952316 -0.02148729 -0.47537091
vn -0.90303385 0.01874238 -0.42916051
vn -0.70330965 0.01262116 -0.71077150
vn -0.58704156 -0.03704106 -0.80870897
vn -0.01951329 0.03724807 -0.99911553
vn 0.18193294 -0.02055853 -0.98309612
vn 0.75911224 0.01729190 -0.65072995
vn 0.79944658 -0.02697503 -0.60013145
vn 0.95681769 -0.00245768 -0.29067859
vn 0.96194428 0.00939238 -0.27308467
vn -0.00001130 1.00000000 0.00000027
vn 0.00001104 1.00000000 0.00000027
vn -0.00000479 1.00000000 0.00000027
vn 0.00000000 1.00000000 0.00000027
vn 0.00001104 1.00000000 0.00000027
vn -0.00001130 1.00000000 0.00000027
vn 0.00001104 1.00000000 0.00000027
vn 0.00000000 1.00000000 0.00000027
vn 0.00000000 1.00000000 0.00000027
vn -0.00000479 1.00000000 0.00000027
vn 0.00000000 1.00000000 0.00000027
vn -0.00001130 1.00000000 0.00000027
vn -0.00000087 1.00000000 0.00000027
vn 0.00000000 1.00000000 0.00000027
vn -0.00000507 1.00000000 0.00000027
vn -0.00000479 1.00000000 0.00000027
vn 0.00000000 1.00000000 0.00000027
vn -0.00000087 1.00000000 0.00000027
vn -0.00000507 1.00000000 0.00000027
vn -0.00001013 1.00000000 0.00000027
vn 0.00000000 1.00000000 0.00000027
vn 0.00000000 1.00000000 0.00000027
vn -0.00000087 1.00000000 0.00000027
vn -0.00000507 1.00000000 0.00000027
vn -0.00001013 1.00000000 0.00000027
vn 0.00002130 1.00000000 0.00000027
vn 0.00000000 1.00000000 0.00000027
vn -0.00001013 1.00000000 0.00000027
vn 0.00000000 1.00000000 0.00000027
vn -0.00001107 1.00000000 0.00000027
vn 0.00000000 1.00000000 0.00000027
vn -0.00001107 1.00000000 0.00000027
vn 0.00000000 1.00000000 0.00000027
vn 0.00002130 1.00000000 0.00000027
vn 0.00000000 1.00000000 0.00000027
vn 0.00000000 1.00000000 0.00000027
vn -0.00001592 1.00000000 0.00000027
vn 0.00002130 1.00000000 0.00000027
vn -0.00001107 1.00000000 0.00000027
vn 0.00000000 1.00000000 0.00000027
vn 0.00000000 1.00000000 0.00000027
vn 0.00000000 1.00000000 0.00000027
vn -0.00000592 1.00000000 0.00000027
vn 0.00000721 1.00000000 0.00000027
vn 0.00000000 1.00000000 0.00000027
vn -0.00000944 1.00000000 0.00000027
vn -0.00000592 1.00000000 0.00000027
vn 0.00000000 1.00000000 0.00000027
vn 0.00000721 1.00000000 0.00000027
vn -0.00000592 1.00000000 0.00000027
vn -0.00001592 1.00000000 0.00000027
vn 0.00000000 1.00000000 0.00000027
vn 0.00000444 1.00000000 0.00000027
vn -0.00000944 1.00000000 0.00000027
vn 0.00000000 1.00000000 0.00000027
vn -0.00001592 1.00000000 0.00000027
vn -0.00000944 1.00000000 0.00000027
vn 0.00000444 1.00000000 0.00000027
vn 0.00000721 1.00000000 0.00000027
vn 0.00000000 1.00000000 0.00000027
vn 0.00000444 1.00000000 0.00000027
vn -0.60947186 0.02802449 -0.79231238
vn -0.70716625 -0.04905581 -0.70534354
vn -0.92198694 0.02795845 -0.38621041
vn -0.00161688 -0.06811690 -0.99767602
vn 0.47352123 0.02932131 -0.88029426
vn 0.70896614 -0.05026227 -0.70344931
vn 0.89317364 0.02794277 -0.44884297
f 1//1 2//2 3//3
f 4//4 2//2 1//1
f 4//4 5//5 2//2
f 6//6 5//5 4//4
f 7//7 8//8 9//9
f 7//7 10//10 8//8
f 11//11 7//7 9//9
f 11//11 9//9 12//12
f 13//13 11//11 12//12
f 13//13 12//12 14//14
f 15//15 13//13 14//14
f 16//16 20//20 23//23
f 17//17 24//24 27//27
f 21//21 28//28 25//25
f 32//32 30//30 22//22
f 18//18 26//26 34//34
f 31//31 38//38 29//29
f 40//40 19//19 36//36
f 39//39 35//35 43//43
f 33//33 45//45 37//37
f 48//48 45//45 33//33
f 41//41 44//44 52//52
f 53//53 42//42 49//49
f 46//46 47//47 57//57
f 58//58 45//45 56//56
f 50//50 62//62 54//54
f 65//65 64//64 51//51
f 69//69 59//59 55//55
f 71//71 61//61 66//66
f 67//67 56//56 72//72
f 75//75 68//68 73//73
f 79//79 63//63 70//70
f 78//78 82//82 60//60
f 74//74 72//72 80//80
f 83//83 80//80 77//77
f 84//84 76//76 81//81
f 85//85 86//86 87//87
f 88//88 85//85 87//87
f 88//88 87//87 89//89
f 90//90 88//88 89//89
f 91//91 90//90 89//89
f 91//91 89//89 92//92
f 91//91 92//92 93//93
f 94//94 91//91 93//93
f 96//96 98//98 100//100
f 97//97 103//103 99//99
f 107//107 95//95 101//101
f 110//110 103//103 97//97
f 106//106 102//102 112//112
f 111//111 114//114 104//104
f 108//108 116//116 113//113
f 106//106 112//112 118//118
f 121//121 105//105 119//119
f 123//123 115//115 109//109
f 120//120 118//118 127//127
f 125//125 128//128 117//117
f 131//131 128//128 125//125
f 132//132 122//122 126//126
f 129//129 124//124 135//135
f 133//133 138//138 120//120
f 140//140 130//130 136//136
f 141//141 138//138 133//133
f 139//139 134//134 145//145
f 147//147 139//139 145//145
f 149//149 137//137 142//142
f 152//152 146//146 143//143
f 148//148 154//154 138//138
f 150//150 154//154 148//148
f 151//151 144//144 153//153
f 155//155 156//156 157//157
f 155//155 158//158 156//156
f 155//155 159//159 158//158
f 160//160 159//159 155//155
f 161//161 159//159 160//160
f 161//161 162//162 159//159
f 163//163 164//164 165//165
f 166//166 164//164 163//163
f 166//166 167//167 164//164
f 168//168 167//167 166//166
f 168//168 169//169 167//167
f 170//170 171//171 172//172
f 173//173 170//170 172//172
f 174//174 172//172 175//175
f 174//174 173//173 172//172
f 176//176 174//174 175//175
f 176//176 175//175 177//177
f 178//178 176//176 177//177
f 179//179 184//184 186//186
f 183//183 188//188 185//185
f 179//179 186//186 189//189
f 180//180 190//190 192//192
f 193//193 179//179 191//191
f 181//181 196//196 187//187
f 200//200 195//195 182//182
f 193//193 191//191 201//201
f 198//198 203//203 194//194
f 205//205 193//193 201//201
f 205//205 201//201 208//208
f 209//209 202//202 199//199
f 210//210 197//197 212//212
f 207//207 216//216 204//204
f 219//219 217//217 206//206
f 220//220 211//211 214//214
f 221//221 213//213 223//223
f 222//222 220//220 214//214
f 226//226 215//215 218//218
f 227//227 215//215 226//226
f 228//228 222//222 225//225
f 229//229 228//228 225//225
f 227//227 231//231 215//215
f 233//233 231//231 227//227
f 230//230 224//224 232//232
f 229//229 231//231 233//233
f 234//234 235//235 236//236
f 237//237 234//234 236//236
f 237//237 236//236 238//238
f 239//239 237//237 238//238
f 240//240 239//239 238//238
f 240//240 238//238 241//241
f 240//240 241//241 242//242
f 243//243 240//240 242//242
f 246//246 248//248 249//249
f 251//251 252//252 247//247
f 251//251 247//247 245//245
f 244//244 250//250 254//254
f 257//257 245//245 253//253
f 251//251 258//258 252//252
f 256//256 255//255 260//260
f 251//251 263//263 258//258
f 266//266 257//257 259//259
f 264//264 261//261 267//267
f 273//273 263//263 251//251
f 265//265 268//268 275//275
f 269//269 277//277 262//262
f 279//279 266//266 274//274
f 280//280 279//279 274//274
f 281//281 276//276 270//270
f 283//283 282//282 271//271
f 285//285 272//272 286//286
f 291//291 279//279 280//280
f 289//289 294//294 278//278
f 296//296 284//284 288//288
f 297//297 293//293 290//290
f 301//301 296//296 288//288
f 300//300 292//292 298//298
f 299//299 287//287 295//295
f 302//302 303//303 304//304
f 302//302 305//305 303//303
f 306//306 305//305 302//302
f 306//306 307//307 305//305
f 308//308 307//307 306//306
f 309//309 310//310 311//311
f 312//312 310//310 309//309
f 312//312 313//313 310//310
f 312//312 314//314 313//313
f 315//315 314//314 312//312
f 316//316 317//317 318//318
f 319//319 316//316 318//318
f 319//319 318//318 320//320
f 321//321 319//319 320//320
f 322//322 321//321 320//320
f 322//322 320//320 323//323
f 324//324 322//322 323//323
f 324//324 323//323 325//325
f 326//326 327//327 328//328
f 331//331 326//326 328//328
f 330//330 329//329 335//335
f 336//336 340//340 327//327
f 336//336 327//327 326//326
f 338//338 341//341 339//339
f 344//344 332//332 333//333
f 346//346 334//334 347//347
f 343//343 348//348 349//349
f 337//337 353//353 342//342
f 356//356 352//352 336//336
f 357//357 345//345 350//350
f 358//358 351//351 361//361
f 364//364 354//354 355//355
f 363//363 356//356 365//365
f 360//360 367//367 359//359
f 372//372 370//370 362//362
f 374//374 363//363 365//365
f 373//373 366//366 379//379
f 381//381 368//368 371//371
f 384//384 374//374 375//375
f 382//382 387//387 369//369
f 390//390 385//385 380//380
f 392//392 383//383 377//377
f 388//388 378//378 386//386
f 391//391 376//376 389//389
f 393//393 394//394 395//395
f 393//393 395//395 396//396
f 397//397 393//393 396//396
f 397//397 396//396 398//398
f 399//399 397//397 398//398
f 399//399 398//398 400//400
f 401//401 399//399 400//400
f 402//402 406//406 408//408
f 412//412 403//403 409//409
f 416//416 407//407 404//404
f 414//414 417//417 405//405
f 413//413 410//410 420//420
f 414//414 421//421 417//417
f 424//424 419//419 428//428
f 425//425 411//411 418//418
f 430//430 423//423 415//415
f 431//431 435//435 422//422
f 426//426 429//429 438//438
f 441//441 427//427 437//437
f 444//444 434//434 432//432
f 445//445 447//447 433//433
f 448//448 439//439 436//436
f 452//452 446//446 443//443
f 450//450 456//456 440//440
f 459//459 454//454 449//449
f 451//451 442//442 462//462
f 458//458 464//464 455//455
f 468//468 453//453 460//460
f 471//471 463//463 457//457
f 469//469 461//461 472//472
f 476//476 467//467 475//475
f 479//479 466//466 470//470
f 478//478 473//473 465//465
f 480//480 477//477 474//474
f 481//481 482//482 483//483
f 481//481 484//484 482//482
f 485//485 484//484 481//481
f 485//485 486//486 484//484
f 487//487 486//486 485//485
f 488//488 489//489 490//490
f 491//491 489//489 488//488
f 491//491 492//492 489//489
f 493//493 492//492 491//491
f 493//493 494//494 492//492
f 495//495 496//496 497//497
f 495//495 497//497 498//498
f 495//495 498//498 499//499
f 500//500 495//495 499//499
f 500//500 499//499 501//501
f 502//502 500//500 501//501
f 502//502 501//501 503//503
f 507//507 508//508 511//511
f 517//517 509//509 504//504
f 516//516 519//519 510//510
f 505//505 512//512 520//520
f 524//524 506//506 521//521
f 514//514 525//525 518//518
f 515//515 527//527 526//526
f 532//532 528//528 513//513
f 523//523 520//520 534//534
f 538//538 522//522 533//533
f 531//531 540//540 529//529
f 542//542 537//537 534//534
f 543//543 539//539 532//532
f 544//544 530//530 548//548
f 549//549 535//535 541//541
f 552//552 545//545 546//546
f 550//550 554//554 536//536
f 557//557 553//553 547//547
f 560//560 555//555 551//551
f 557//557 547//547 564//564
f 566//566 558//558 563//563
f 561//561 562//562 556//556
f 567//567 565//565 564//564
f 567//567 564//564 559//559
f 568//568 569//569 570//570
f 571//571 568//568 570//570
f 571//571 570//570 572//572
f 573//573 571//571 572//572
f 573//573 572//572 574//574
f 575//575 573//573 574//574
f 576//576 575//575 574//574
f 576//576 574//574 577//577
f 579//579 582//582 584//584
f 581//581 585//585 586//586
f 578//578 589//589 583//583
f 593//593 580//580 587//587
f 594//594 588//588 581//581
f 591//591 586//586 598//598
f 595//595 600//600 590//590
f 601//601 592//592 596//596
f 602//602 597//597 605//605
f 608//608 599//599 594//594
f 608//608 610//610 599//599
f 604//604 606//606 612//612
f 611//611 615//615 603//603
f 616//616 609//609 607//607
f 618//618 613//613 612//612
f 619//619 617//617 608//608
f 619//619 608//608 622//622
f 625//625 613//613 618//618
f 627//627 620//620 624//624
f 629//629 613//613 625//625
f 628//628 633//633 614//614
f 636//636 626//626 621//621
f 637//637 632//632 629//629
f 634//634 623//623 631//631
f 638//638 635//635 630//630
f 639//639 640//640 641//641
f 639//639 642//642 640//640
f 643//643 642//642 639//639
f 643//643 644//644 642//642
f 645//645 644//644 643//643

