mtllib wrist1.mtl
usemtl Rubber_Black_003
v 0.00880320 0.00614211 0.05309999
v 0.00880320 0.00614211 0.05309999
v 0.00880320 0.00614211 0.05309999
v 0.00000264 0.05016690 0.05309999
v 0.00000264 0.05016690 0.05309999
v 0.00000264 0.05016690 0.05309999
v 0.00000264 0.05016690 0.05309999
v 0.00000264 0.05016690 0.05309999
v 0.00000264 0.05016690 0.05309999
v 0.00000264 0.05016690 0.05309999
v 0.00000264 0.05016690 0.05309999
v 0.00000264 0.05016690 0.05309999
v 0.00000264 0.05016690 0.05309999
v 0.00000264 0.05016690 0.05309999
v 0.01726223 0.00869749 0.05310000
v 0.01726223 0.00869749 0.05310000
v 0.01726223 0.00869749 0.05310000
v 0.02506054 0.01284442 0.05310000
v 0.02506054 0.01284442 0.05310000
v 0.03190053 0.01842872 0.05310000
v 0.03190053 0.01842872 0.05310000
v 0.03750681 0.02523021 0.05310000
v 0.03750681 0.02523021 0.05310000
v 0.04167580 0.03298990 0.05310000
v 0.04167580 0.03298990 0.05310000
v 0.04424768 0.04141043 0.05310000
v 0.04424768 0.04141043 0.05310000
v 0.04511236 0.05016692 0.05310000
v 0.04511236 0.05016692 0.05310000
v 0.04424767 0.05892340 0.05310000
v 0.04424767 0.05892340 0.05310000
v 0.04167578 0.06734386 0.05310000
v 0.04167578 0.06734386 0.05310000
v 0.04167578 0.06734386 0.05310000
v 0.03750680 0.07510355 0.05310000
v 0.03750680 0.07510355 0.05310000
v 0.03750680 0.07510355 0.05310000
v 0.03190050 0.08190504 0.05310000
v 0.03190050 0.08190504 0.05310000
v 0.02506051 0.08748940 0.05310000
v 0.02506051 0.08748940 0.05310000
v 0.02506051 0.08748940 0.05310000
v 0.01726220 0.09163627 0.05310000
v 0.01726220 0.09163627 0.05310000
v 0.01726220 0.09163627 0.05310000
v 0.00880317 0.09419163 0.05309999
v 0.00880317 0.09419163 0.05309999
v 0.00880317 0.09419163 0.05309999
v 0.00000262 0.09505633 0.05309999
v 0.00000262 0.09505633 0.05309999
v 0.00000262 0.09505633 0.05309999
v -0.00880339 0.09419163 0.05309999
v -0.00880339 0.09419163 0.05309999
v -0.00880339 0.09419163 0.05309999
v -0.01726247 0.09163626 0.05309999
v -0.01726247 0.09163626 0.05309999
v -0.01726247 0.09163626 0.05309999
v -0.02506079 0.08748938 0.05309999
v -0.02506079 0.08748938 0.05309999
v -0.02506079 0.08748938 0.05309999
v -0.03190078 0.08190502 0.05309999
v -0.03190078 0.08190502 0.05309999
v -0.03190078 0.08190502 0.05309999
v -0.03750706 0.07510353 0.05309998
v -0.03750706 0.07510353 0.05309998
v -0.03750706 0.07510353 0.05309998
v -0.04167612 0.06734384 0.05309998
v -0.04167612 0.06734384 0.05309998
v -0.04167612 0.06734384 0.05309998
v -0.04424793 0.05892337 0.05309998
v -0.04424793 0.05892337 0.05309998
v -0.04511256 0.05016689 0.05309998
v -0.04511256 0.05016689 0.05309998
v -0.04424793 0.04141040 0.05309998
v -0.04424793 0.04141040 0.05309998
v -0.04167610 0.03298987 0.05309998
v -0.04167610 0.03298987 0.05309998
v -0.03750705 0.02523019 0.05309998
v -0.03750705 0.02523019 0.05309998
v -0.03190076 0.01842870 0.05309999
v -0.03190076 0.01842870 0.05309999
v -0.02506076 0.01284440 0.05309999
v -0.02506076 0.01284440 0.05309999
v -0.01726244 0.00869747 0.05309999
v -0.01726244 0.00869747 0.05309999
v -0.01726244 0.00869747 0.05309999
v -0.00880336 0.00614211 0.05309999
v -0.00880336 0.00614211 0.05309999
v -0.00880336 0.00614211 0.05309999
v 0.00000265 0.00527755 0.05309999
v 0.00000265 0.00527755 0.05309999
v 0.00000265 0.00527755 0.05309999
v 0.00000265 0.00527755 0.05309999
v 0.00878114 0.00603196 0.07195116
v 0.00878114 0.00603196 0.07195116
v 0.01721823 0.00859288 0.07195116
v 0.01721823 0.00859288 0.07195116
v 0.02499997 0.01275085 0.07195117
v 0.02499997 0.01275085 0.07195117
v 0.03181791 0.01834617 0.07195117
v 0.03181791 0.01834617 0.07195117
v 0.03741316 0.02516417 0.07195117
v 0.03741316 0.02516417 0.07195117
v 0.04157674 0.03294579 0.07195117
v 0.04157674 0.03294579 0.07195117
v 0.04413752 0.04138843 0.07195117
v 0.04413752 0.04138843 0.07195117
v 0.04500221 0.05016692 0.07195117
v 0.04500221 0.05016692 0.07195117
v 0.04413752 0.05894540 0.07195117
v 0.04413752 0.05894540 0.07195117
v 0.04157672 0.06738804 0.07195117
v 0.04157672 0.06738804 0.07195117
v 0.03741315 0.07516965 0.07195117
v 0.03741315 0.07516965 0.07195117
v 0.03181789 0.08198765 0.07195117
v 0.03181789 0.08198765 0.07195117
v 0.02499995 0.08758304 0.07195117
v 0.02499995 0.08758304 0.07195117
v 0.01721821 0.09174100 0.07195116
v 0.01721821 0.09174100 0.07195116
v 0.00878111 0.09430178 0.07195116
v 0.00878111 0.09430178 0.07195116
v -0.00000289 0.09516647 0.07195116
v -0.00000289 0.09516647 0.07195116
v -0.00878140 0.09430178 0.07195116
v -0.00878140 0.09430178 0.07195116
v -0.01721849 0.09174098 0.07195116
v -0.01721849 0.09174098 0.07195116
v -0.02500017 0.08758302 0.07195115
v -0.02500017 0.08758302 0.07195115
v -0.03181817 0.08198763 0.07195115
v -0.03181817 0.08198763 0.07195115
v -0.03741343 0.07516962 0.07195115
v -0.03741343 0.07516962 0.07195115
v -0.04157694 0.06738801 0.07195115
v -0.04157694 0.06738801 0.07195115
v -0.04413778 0.05894537 0.07195115
v -0.04413778 0.05894537 0.07195115
v -0.04500247 0.05016689 0.07195115
v -0.04500247 0.05016689 0.07195115
v -0.04413778 0.04138841 0.07195115
v -0.04413778 0.04138841 0.07195115
v -0.04157692 0.03294577 0.07195115
v -0.04157692 0.03294577 0.07195115
v -0.03741341 0.02516415 0.07195115
v -0.03741341 0.02516415 0.07195115
v -0.03181815 0.01834615 0.07195115
v -0.03181815 0.01834615 0.07195115
v -0.02500015 0.01275083 0.07195115
v -0.02500015 0.01275083 0.07195115
v -0.01721847 0.00859286 0.07195116
v -0.01721847 0.00859286 0.07195116
v -0.00878137 0.00603196 0.07195116
v -0.00878137 0.00603196 0.07195116
v 0.00000265 0.00516740 0.07195116
v 0.00000265 0.00516740 0.07195116
v 0.00000265 0.00516740 0.07195116
v 0.00000263 0.05016690 0.07195116
vn 0.19504741 -0.98077756 -0.00564757
vn 0.00000029 0.00000000 -1.00000000
vn -0.00000012 -0.00000000 -1.00000000
vn 0.00000003 0.00000000 -1.00000000
vn 0.00000029 0.00000000 -1.00000000
vn 0.00000047 0.00000000 -1.00000000
vn -0.00000012 -0.00000000 -1.00000000
vn 0.00000017 0.00000000 -1.00000000
vn 0.00000047 0.00000000 -1.00000000
vn -0.00000012 -0.00000000 -1.00000000
vn 0.00000032 0.00000000 -1.00000000
vn 0.00000047 0.00000000 -1.00000000
vn 0.00000032 0.00000000 -1.00000000
vn -0.00000012 -0.00000000 -1.00000000
vn -0.00000012 -0.00000000 -1.00000000
vn 0.38166261 -0.92429346 -0.00390225
vn 0.00000017 0.00000000 -1.00000000
vn 0.55360579 -0.83277762 -0.00146338
vn 0.00000017 0.00000000 -1.00000000
vn 0.70504493 -0.70916265 0.00001604
vn 0.00000017 0.00000000 -1.00000000
vn 0.83060515 -0.55685639 0.00246748
vn 0.00000017 0.00000000 -1.00000000
vn 0.92329842 -0.38405940 0.00428413
vn 0.00000017 0.00000000 -1.00000000
vn 0.98075008 -0.19518119 0.00580250
vn 0.00000017 0.00000000 -1.00000000
vn 0.99998331 -0.00003617 0.00580173
vn 0.00000017 0.00000000 -1.00000000
vn 0.98064256 0.19573881 0.00517528
vn 0.00000017 0.00000000 -1.00000000
vn 0.00000017 0.00000000 -1.00000000
vn 0.92368281 0.38313839 0.00387285
vn 0.00000032 0.00000000 -1.00000000
vn 0.00000032 0.00000000 -1.00000000
vn 0.83082622 0.55653060 0.00131538
vn 0.00000017 0.00000000 -1.00000000
vn 0.00000017 0.00000000 -1.00000000
vn 0.70524019 0.70896852 -0.00006940
vn 0.00000047 0.00000000 -1.00000000
vn 0.00000017 0.00000000 -1.00000000
vn 0.55413532 0.83242226 -0.00268980
vn 0.38157800 0.92432594 -0.00446319
vn -0.00000012 -0.00000000 -1.00000000
vn 0.00000047 0.00000000 -1.00000000
vn 0.00000047 0.00000000 -1.00000000
vn -0.00000012 -0.00000000 -1.00000000
vn 0.19409868 0.98096567 -0.00567033
vn -0.00000012 -0.00000000 -1.00000000
vn 0.00000047 0.00000000 -1.00000000
vn 0.00000751 0.99998331 -0.00579125
vn -0.00000012 -0.00000000 -1.00000000
vn 0.00000047 0.00000000 -1.00000000
vn -0.19468981 0.98085076 -0.00528017
vn 0.00000047 0.00000000 -1.00000000
vn -0.38135949 0.92441911 -0.00378472
vn -0.00000012 -0.00000000 -1.00000000
vn -0.00000012 -0.00000000 -1.00000000
vn -0.55347121 0.83286732 -0.00135002
vn 0.00000017 0.00000000 -1.00000000
vn 0.00000032 0.00000000 -1.00000000
vn 0.00000017 0.00000000 -1.00000000
vn -0.70501137 0.70919609 0.00000281
vn 0.00000032 0.00000000 -1.00000000
vn 0.00000003 0.00000000 -1.00000000
vn -0.83060420 0.55685800 0.00246820
vn 0.00000003 0.00000000 -1.00000000
vn -0.92305291 0.38465411 0.00381698
vn 0.00000017 0.00000000 -1.00000000
vn -0.98070407 0.19541408 0.00572998
vn 0.00000017 0.00000000 -1.00000000
vn -0.99998331 0.00003601 0.00579977
vn 0.00000017 0.00000000 -1.00000000
vn 0.00000017 0.00000000 -1.00000000
vn -0.98070282 -0.19542532 0.00555498
vn 0.00000017 0.00000000 -1.00000000
vn -0.92370909 -0.38307610 0.00379206
vn 0.00000017 0.00000000 -1.00000000
vn -0.83088881 -0.55643737 0.00115016
vn 0.00000017 0.00000000 -1.00000000
vn -0.70517308 -0.70903522 -0.00003536
vn 0.00000017 0.00000000 -1.00000000
vn -0.55413347 -0.83242351 -0.00268791
vn -0.38157749 -0.92432612 -0.00446314
vn 0.00000047 0.00000000 -1.00000000
vn 0.00000017 0.00000000 -1.00000000
vn -0.19398029 -0.98098898 -0.00570456
vn 0.00000047 0.00000000 -1.00000000
vn 0.00000017 0.00000000 -1.00000000
vn 0.00006373 -0.99998272 -0.00590611
vn 0.00000029 0.00000000 -1.00000000
vn -0.00002705 -0.99998272 -0.00590396
vn 0.00000017 0.00000000 -1.00000000
vn -0.00000017 -0.00000000 1.00000000
vn 0.19531201 -0.98072332 -0.00592348
vn 0.38147491 -0.92437160 -0.00378989
vn -0.00000017 -0.00000000 1.00000000
vn 0.55549508 -0.83151555 -0.00269552
vn -0.00000017 -0.00000000 1.00000000
vn 0.70648015 -0.70773297 -0.00012192
vn -0.00000017 -0.00000000 1.00000000
vn 0.83076519 -0.55662173 0.00124809
vn -0.00000017 -0.00000000 1.00000000
vn -0.00000017 -0.00000000 1.00000000
vn 0.92360741 -0.38332230 0.00366609
vn -0.00000017 -0.00000000 1.00000000
vn 0.98069423 -0.19547929 0.00517523
vn 0.99998331 -0.00003178 0.00580179
vn -0.00000017 -0.00000000 1.00000000
vn 0.98073715 0.19525371 0.00554436
vn -0.00000017 -0.00000000 1.00000000
vn 0.92359310 0.38335031 0.00428496
vn -0.00000017 -0.00000000 1.00000000
vn 0.83148754 0.55553681 0.00278607
vn -0.00000017 -0.00000000 1.00000000
vn -0.00000017 -0.00000000 1.00000000
vn 0.70662236 0.70759082 0.00035961
vn -0.00000017 -0.00000000 1.00000000
vn 0.55499393 0.83185327 -0.00142684
vn 0.38154611 0.92434204 -0.00380843
vn -0.00000017 -0.00000000 1.00000000
vn 0.19481608 0.98082566 -0.00527992
vn -0.00000017 -0.00000000 1.00000000
vn -0.00007646 0.99998307 -0.00581187
vn -0.00000017 -0.00000000 1.00000000
vn -0.19498831 0.98078996 -0.00555501
vn -0.00000017 -0.00000000 1.00000000
vn -0.38143939 0.92438620 -0.00376017
vn -0.00000017 -0.00000000 1.00000000
vn -0.55528748 0.83165413 -0.00269178
vn -0.00000017 -0.00000000 1.00000000
vn -0.70658422 0.70762885 -0.00043881
vn -0.00000017 -0.00000000 1.00000000
vn -0.83083069 0.55652362 0.00140927
vn -0.00000017 -0.00000000 1.00000000
vn -0.00000017 -0.00000000 1.00000000
vn -0.92384469 0.38274682 0.00397881
vn -0.98072404 0.19532159 0.00548232
vn -0.00000017 -0.00000000 1.00000000
vn -0.99998331 0.00003311 0.00579983
vn -0.00000017 -0.00000000 1.00000000
vn -0.98073655 -0.19525722 0.00554187
vn -0.00000017 -0.00000000 1.00000000
vn -0.92367131 -0.38316491 0.00400026
vn -0.00000017 -0.00000000 1.00000000
vn -0.83144540 -0.55559999 0.00270793
vn -0.00000017 -0.00000000 1.00000000
vn -0.70662087 -0.70759225 0.00036071
vn -0.00000017 -0.00000000 1.00000000
vn -0.00000017 -0.00000000 1.00000000
vn -0.55493033 -0.83189458 -0.00191650
vn -0.38186681 -0.92420930 -0.00385285
vn -0.00000017 -0.00000000 1.00000000
vn -0.19481559 -0.98082566 -0.00528029
vn -0.00000017 -0.00000000 1.00000000
vn -0.00005599 -0.99998259 -0.00590181
vn -0.00000017 -0.00000000 1.00000000
vn 0.00004536 -0.99998272 -0.00589943
vn -0.00000017 -0.00000000 1.00000000
vt 0.68027848 0.63626218
vt 0.00313509 0.36101440
vt 0.00313509 0.36101440
vt 0.03344619 0.35181129
vt 0.03344619 0.35181129
vt 0.03344619 0.35181129
vt 0.03344619 0.35181129
vt 0.03344619 0.35181129
vt 0.03344619 0.35181129
vt 0.03344619 0.35181129
vt 0.03344619 0.35181129
vt 0.03344619 0.35181129
vt 0.03344619 0.35181129
vt 0.03344619 0.35181129
vt 0.00549918 0.36675569
vt 0.68027848 0.63001418
vt 0.00549918 0.36675569
vt 0.68027848 0.62376618
vt 0.00896096 0.37190610
vt 0.68027848 0.61760271
vt 0.01335138 0.37638089
vt 0.68027848 0.61135471
vt 0.01850169 0.37984261
vt 0.68027848 0.60510677
vt 0.02424305 0.38220671
vt 0.68027848 0.59894317
vt 0.03032219 0.38338879
vt 0.68027848 0.59269530
vt 0.03648573 0.38347319
vt 0.68027848 0.58653182
vt 0.04256474 0.38220671
vt 0.04830610 0.37984261
vt 0.68027848 0.58028382
vt 0.04830610 0.37984261
vt 0.05345654 0.37638089
vt 0.68027848 0.57412028
vt 0.05345654 0.37638089
vt 0.05784696 0.37199050
vt 0.68027848 0.56787241
vt 0.06130868 0.36684009
vt 0.06130868 0.36684009
vt 0.68027848 0.56170881
vt 0.68027848 0.55546087
vt 0.06367278 0.36109880
vt 0.06367278 0.36109880
vt 0.06493926 0.35493529
vt 0.06493926 0.35493529
vt 0.68027848 0.54921287
vt 0.06493926 0.34868729
vt 0.06493926 0.34868729
vt 0.68027848 0.54304940
vt 0.06367278 0.34260821
vt 0.06367278 0.34260821
vt 0.68027848 0.53680152
vt 0.06130868 0.33686689
vt 0.68027848 0.53055352
vt 0.06130868 0.33686689
vt 0.05784696 0.33163211
vt 0.68027848 0.52438998
vt 0.05784696 0.33163211
vt 0.05345654 0.32724160
vt 0.05345654 0.32724160
vt 0.68027848 0.51814198
vt 0.04830610 0.32378000
vt 0.04830610 0.32378000
vt 0.68027848 0.51189411
vt 0.04256474 0.32141590
vt 0.68027848 0.50573051
vt 0.04256474 0.32141590
vt 0.68027848 0.49948260
vt 0.03648573 0.32014939
vt 0.68027848 0.49331900
vt 0.03032219 0.32014939
vt 0.02424305 0.32141590
vt 0.68027848 0.48707110
vt 0.01850169 0.32378000
vt 0.68027848 0.48090759
vt 0.01335138 0.32724160
vt 0.68027848 0.47465959
vt 0.00896096 0.33163211
vt 0.68027848 0.46849611
vt 0.00549918 0.33678240
vt 0.68027848 0.46224821
vt 0.68027848 0.45600021
vt 0.00313509 0.34252381
vt 0.00313509 0.34252381
vt 0.68027848 0.44983670
vt 0.00195312 0.34868729
vt 0.00195312 0.34868729
vt 0.68027848 0.64242572
vt 0.00195312 0.35485080
vt 0.68027848 0.44358870
vt 0.00195312 0.35485080
vt 0.32026109 0.94975752
vt 0.69353431 0.63626218
vt 0.69353431 0.63001418
vt 0.32372281 0.94460720
vt 0.69353431 0.62376618
vt 0.32811329 0.94021672
vt 0.69353431 0.61760271
vt 0.33326361 0.93675512
vt 0.69353431 0.61135471
vt 0.33900499 0.93439102
vt 0.34516850 0.93320888
vt 0.69353431 0.60510677
vt 0.35133210 0.93320888
vt 0.69353431 0.59894317
vt 0.69353431 0.59269530
vt 0.35741121 0.93439102
vt 0.69353431 0.58653182
vt 0.36315250 0.93675512
vt 0.69353431 0.58028382
vt 0.36838731 0.94021672
vt 0.69353431 0.57412028
vt 0.37277770 0.94460720
vt 0.37623939 0.94975752
vt 0.69353431 0.56787241
vt 0.37860349 0.95549887
vt 0.69353431 0.56170881
vt 0.69353431 0.55546087
vt 0.37978560 0.96166241
vt 0.69353431 0.54921287
vt 0.37978560 0.96782601
vt 0.69353431 0.54304940
vt 0.37860349 0.97390503
vt 0.69353431 0.53680152
vt 0.37623939 0.97964639
vt 0.69353431 0.53055352
vt 0.37277770 0.98488122
vt 0.69353431 0.52438998
vt 0.36838731 0.98927170
vt 0.69353431 0.51814198
vt 0.36315250 0.99264890
vt 0.69353431 0.51189411
vt 0.35741121 0.99509752
vt 0.35133210 0.99627948
vt 0.69353431 0.50573051
vt 0.69353431 0.49948260
vt 0.34516850 0.99627948
vt 0.69353431 0.49331900
vt 0.33900499 0.99509752
vt 0.69353431 0.48707110
vt 0.33326361 0.99264890
vt 0.69353431 0.48090759
vt 0.32811329 0.98927170
vt 0.69353431 0.47465959
vt 0.32372281 0.98488122
vt 0.69353431 0.46849611
vt 0.32026109 0.97964639
vt 0.31789699 0.97390503
vt 0.69353431 0.46224821
vt 0.69353431 0.45600021
vt 0.31671500 0.96782601
vt 0.69353431 0.44983670
vt 0.31671500 0.96166241
vt 0.69353431 0.44358870
vt 0.31789699 0.95549887
vt 0.69353431 0.64242572
vt 0.34820810 0.96470201
f 3/3/3 7/7/7 15/15/15
f 17/17/17 8/8/8 19/19/19
f 19/19/19 8/8/8 21/21/21
f 21/21/21 8/8/8 23/23/23
f 23/23/23 8/8/8 25/25/25
f 25/25/25 8/8/8 27/27/27
f 27/27/27 8/8/8 29/29/29
f 29/29/29 8/8/8 31/31/31
f 31/31/31 8/8/8 32/32/32
f 34/34/34 11/11/11 35/35/35
f 37/37/37 8/8/8 38/38/38
f 38/38/38 8/8/8 41/41/41
f 40/40/40 6/6/6 45/45/45
f 44/44/44 7/7/7 47/47/47
f 46/46/46 9/9/9 50/50/50
f 49/49/49 10/10/10 52/52/52
f 53/53/53 12/12/12 55/55/55
f 57/57/57 14/14/14 58/58/58
f 60/60/60 8/8/8 62/62/62
f 61/61/61 13/13/13 64/64/64
f 65/65/65 4/4/4 67/67/67
f 69/69/69 8/8/8 71/71/71
f 71/71/71 8/8/8 73/73/73
f 73/73/73 8/8/8 74/74/74
f 74/74/74 8/8/8 76/76/76
f 76/76/76 8/8/8 78/78/78
f 78/78/78 8/8/8 80/80/80
f 80/80/80 8/8/8 82/82/82
f 82/82/82 8/8/8 86/86/86
f 85/85/85 12/12/12 88/88/88
f 89/89/89 8/8/8 93/93/93
f 5/5/5 2/2/2 91/91/91
f 90/90/90 1/1/1 95/95/95
f 95/95/95 1/1/1 96/96/96
f 1/1/1 16/16/16 96/96/96
f 96/96/96 16/16/16 98/98/98
f 16/16/16 18/18/18 98/98/98
f 98/98/98 18/18/18 100/100/100
f 18/18/18 20/20/20 100/100/100
f 100/100/100 20/20/20 102/102/102
f 20/20/20 22/22/22 102/102/102
f 102/102/102 22/22/22 105/105/105
f 22/22/22 24/24/24 105/105/105
f 105/105/105 24/24/24 107/107/107
f 24/24/24 26/26/26 107/107/107
f 107/107/107 26/26/26 108/108/108
f 26/26/26 28/28/28 108/108/108
f 108/108/108 28/28/28 110/110/110
f 28/28/28 30/30/30 110/110/110
f 110/110/110 30/30/30 112/112/112
f 30/30/30 33/33/33 112/112/112
f 112/112/112 33/33/33 114/114/114
f 33/33/33 36/36/36 114/114/114
f 114/114/114 36/36/36 117/117/117
f 36/36/36 39/39/39 117/117/117
f 117/117/117 39/39/39 119/119/119
f 39/39/39 42/42/42 119/119/119
f 119/119/119 42/42/42 120/120/120
f 42/42/42 43/43/43 120/120/120
f 120/120/120 43/43/43 122/122/122
f 43/43/43 48/48/48 122/122/122
f 122/122/122 48/48/48 124/124/124
f 48/48/48 51/51/51 124/124/124
f 124/124/124 51/51/51 126/126/126
f 51/51/51 54/54/54 126/126/126
f 126/126/126 54/54/54 128/128/128
f 54/54/54 56/56/56 128/128/128
f 128/128/128 56/56/56 130/130/130
f 56/56/56 59/59/59 130/130/130
f 130/130/130 59/59/59 132/132/132
f 59/59/59 63/63/63 132/132/132
f 132/132/132 63/63/63 134/134/134
f 63/63/63 66/66/66 134/134/134
f 134/134/134 66/66/66 137/137/137
f 66/66/66 68/68/68 137/137/137
f 137/137/137 68/68/68 138/138/138
f 68/68/68 70/70/70 138/138/138
f 138/138/138 70/70/70 140/140/140
f 70/70/70 72/72/72 140/140/140
f 140/140/140 72/72/72 142/142/142
f 72/72/72 75/75/75 142/142/142
f 142/142/142 75/75/75 144/144/144
f 75/75/75 77/77/77 144/144/144
f 144/144/144 77/77/77 146/146/146
f 77/77/77 79/79/79 146/146/146
f 146/146/146 79/79/79 148/148/148
f 79/79/79 81/81/81 148/148/148
f 148/148/148 81/81/81 151/151/151
f 81/81/81 83/83/83 151/151/151
f 151/151/151 83/83/83 152/152/152
f 83/83/83 84/84/84 152/152/152
f 152/152/152 84/84/84 154/154/154
f 84/84/84 87/87/87 154/154/154
f 154/154/154 87/87/87 156/156/156
f 87/87/87 92/92/92 156/156/156
f 90/90/90 95/95/95 158/158/158
f 157/157/157 94/94/94 159/159/159
f 94/94/94 97/97/97 159/159/159
f 97/97/97 99/99/99 159/159/159
f 99/99/99 101/101/101 159/159/159
f 101/101/101 103/103/103 159/159/159
f 103/103/103 104/104/104 159/159/159
f 104/104/104 106/106/106 159/159/159
f 106/106/106 109/109/109 159/159/159
f 109/109/109 111/111/111 159/159/159
f 111/111/111 113/113/113 159/159/159
f 113/113/113 115/115/115 159/159/159
f 115/115/115 116/116/116 159/159/159
f 116/116/116 118/118/118 159/159/159
f 118/118/118 121/121/121 159/159/159
f 121/121/121 123/123/123 159/159/159
f 123/123/123 125/125/125 159/159/159
f 125/125/125 127/127/127 159/159/159
f 127/127/127 129/129/129 159/159/159
f 129/129/129 131/131/131 159/159/159
f 131/131/131 133/133/133 159/159/159
f 133/133/133 135/135/135 159/159/159
f 135/135/135 136/136/136 159/159/159
f 136/136/136 139/139/139 159/159/159
f 139/139/139 141/141/141 159/159/159
f 141/141/141 143/143/143 159/159/159
f 143/143/143 145/145/145 159/159/159
f 145/145/145 147/147/147 159/159/159
f 147/147/147 149/149/149 159/159/159
f 149/149/149 150/150/150 159/159/159
f 150/150/150 153/153/153 159/159/159
f 153/153/153 155/155/155 159/159/159
f 157/157/157 159/159/159 155/155/155

