mtllib wrist1.mtl
usemtl Metal_DarkGray_003
v -0.02506587 0.00000014 -0.03751112
v -0.02506587 0.00000014 -0.03751112
v -0.02505986 0.03614273 -0.03707352
v -0.01726672 0.00000014 -0.04167750
v -0.01726672 0.00000014 -0.04167750
v -0.01726072 0.03786924 -0.04122191
v -0.00880209 0.00000015 -0.04424331
v -0.00880209 0.00000015 -0.04424331
v -0.00879608 0.03893629 -0.04376971
v -0.00000176 0.00000015 -0.04511251
v -0.00000176 0.00000015 -0.04511251
v 0.00000422 0.03929594 -0.04463291
v 0.00879857 0.00000015 -0.04424331
v 0.00879857 0.00000015 -0.04424331
v 0.00879857 0.00000015 -0.04424331
v 0.00880451 0.03893629 -0.04377571
v 0.01726320 0.00000016 -0.04167750
v 0.01726320 0.00000016 -0.04167750
v 0.01726320 0.00000016 -0.04167750
v 0.01726914 0.03786926 -0.04122191
v 0.02506240 0.00000016 -0.03751110
v 0.02506240 0.00000016 -0.03751110
v 0.02506240 0.00000016 -0.03751110
v 0.02506835 0.03614877 -0.03707350
v 0.03189643 0.00000016 -0.03190000
v 0.03189643 0.00000016 -0.03190000
v 0.03189643 0.00000016 -0.03190000
v 0.03190244 0.03382276 -0.03149240
v 0.03750755 0.00000016 -0.02506595
v 0.03750755 0.00000016 -0.02506595
v 0.03751351 0.03099314 -0.02469426
v 0.04167987 0.00000016 -0.01726674
v 0.04167987 0.00000016 -0.01726674
v 0.04167987 0.00000016 -0.01726674
v 0.04167986 0.02776204 -0.01693701
v 0.04424568 0.00000016 -0.00880211
v 0.04424568 0.00000016 -0.00880211
v 0.04424568 0.00000016 -0.00880211
v 0.04424567 0.02426111 -0.00852036
v 0.04511489 0.00000016 -0.00000178
v 0.04511489 0.00000016 -0.00000178
v 0.04511488 0.02061621 0.00023199
v 0.04424568 0.00000016 0.00879855
v 0.04424568 0.00000016 0.00879855
v 0.04424568 0.00000016 0.00879855
v 0.04424567 0.01697735 0.00899041
v 0.04167987 0.00000016 0.01726318
v 0.04167987 0.00000016 0.01726318
v 0.04167987 0.00000016 0.01726318
v 0.04167986 0.01347046 0.01740713
v 0.03750754 0.00000016 0.02506245
v 0.03750754 0.00000016 0.02506245
v 0.03751350 0.01024524 0.02516431
v 0.03189642 0.00000016 0.03189654
v 0.03189642 0.00000016 0.03189654
v 0.03190244 0.00740973 0.03196239
v 0.02506239 0.00000016 0.03750753
v 0.02506239 0.00000016 0.03750753
v 0.02506239 0.00000016 0.03750753
v 0.02506239 0.00508974 0.03754354
v 0.01726318 0.00000016 0.04167991
v 0.01726318 0.00000016 0.04167991
v 0.01726318 0.00000016 0.04167991
v 0.01726318 0.00336323 0.04169196
v 0.00879855 0.00000015 0.04424578
v 0.00879855 0.00000015 0.04424578
v 0.00879855 0.00000015 0.04424578
v -0.01726674 0.00000014 0.04167991
v -0.01726674 0.00000014 0.04167991
v -0.00880210 0.00000015 0.04424578
v -0.00880210 0.00000015 0.04424578
v -0.00880210 0.00230214 0.04424578
v -0.00000178 0.00194255 0.04510891
v -0.00000178 0.00194255 0.04510891
v -0.00000178 0.00000015 0.04511493
v -0.00000178 0.00000015 0.04511493
v -0.00000178 0.00000015 0.04511493
v 0.00880451 0.00230214 0.04424578
v 0.00879855 0.00446031 0.04428774
v 0.01726318 0.00619278 0.04178191
v 0.02506239 0.00899838 0.03771145
v 0.03189642 0.01278708 0.03223217
v 0.03750754 0.01739709 0.02555401
v 0.04167986 0.02265451 0.01793469
v 0.04424567 0.02836148 0.00966788
v 0.04511487 0.03429637 0.00107128
v 0.04424567 0.04023115 -0.00751924
v 0.04167986 0.04594414 -0.01578605
v 0.03750753 0.05120144 -0.02339941
v 0.03189642 0.05581150 -0.03007760
v 0.02506238 0.05959419 -0.03555680
v 0.01726317 0.06240574 -0.03962731
v 0.00879854 0.06413819 -0.04213311
v -0.00000178 0.06472572 -0.04297841
v -0.00880211 0.06413819 -0.04213311
v -0.01726675 0.06240572 -0.03962731
v -0.02506589 0.05959417 -0.03555682
v -0.03189991 0.05581148 -0.03007761
v -0.03189389 0.03382274 -0.03149241
v -0.03189990 0.00000014 -0.03190002
v -0.03189990 0.00000014 -0.03190002
v -0.00000177 0.00000015 -0.00000179
v -0.00000177 0.00000015 -0.00000179
v -0.00000177 0.00000015 -0.00000179
v -0.00000177 0.00000015 -0.00000179
v -0.00000177 0.00000015 -0.00000179
v -0.00000177 0.00000015 -0.00000179
v -0.00000177 0.00000015 -0.00000179
v -0.00000177 0.00000015 -0.00000179
v -0.00000177 0.00000015 -0.00000179
v -0.00000177 0.00000015 -0.00000179
v -0.00000177 0.00000015 -0.00000179
v -0.02506588 0.00000014 0.03750753
v -0.02506588 0.00000014 0.03750753
v -0.02506588 0.00000014 0.03750753
v -0.01726072 0.00336321 0.04169195
v -0.00880211 0.00446030 0.04428774
v -0.00000178 0.00387278 0.04513293
v -0.00000178 0.00387278 0.04513293
v 0.00879855 0.00535950 0.04465336
v 0.01726318 0.00739769 0.04221351
v 0.02506239 0.01070682 0.03825099
v 0.03189642 0.01516096 0.03291560
v 0.03750754 0.02058623 0.02641720
v 0.04167986 0.02677892 0.01900775
v 0.04424566 0.03349303 0.01096267
v 0.04511487 0.04047690 0.00259996
v 0.04424566 0.04746692 -0.00576275
v 0.04167986 0.05418090 -0.01380777
v 0.03750753 0.06037352 -0.02121728
v 0.03189641 0.06579879 -0.02770966
v 0.02506238 0.07025293 -0.03304500
v 0.01726317 0.07356206 -0.03700161
v 0.00879854 0.07560030 -0.03944141
v -0.00000179 0.07628359 -0.04026871
v -0.00880211 0.07560029 -0.03944141
v -0.01726675 0.07356204 -0.03700161
v -0.02506589 0.07025291 -0.03304502
v -0.03189992 0.06579877 -0.02770968
v -0.03751111 0.06037350 -0.02121729
v -0.03751111 0.05120142 -0.02339943
v -0.03750508 0.03099312 -0.02469428
v -0.03751109 0.00000014 -0.02506597
v -0.03751109 0.00000014 -0.02506597
v -0.04167745 0.00000013 -0.01726676
v -0.04167745 0.00000013 -0.01726676
v -0.04167745 0.00000013 -0.01726676
v -0.04424313 0.00000013 -0.00880212
v -0.04424313 0.00000013 -0.00880212
v -0.04424313 0.00000013 -0.00880212
v -0.04511248 0.00000013 -0.00000180
v -0.04511248 0.00000013 -0.00000180
v -0.04424313 0.00000013 0.00879853
v -0.04424313 0.00000013 0.00879853
v -0.04424313 0.00000013 0.00879853
v -0.04167746 0.00000013 0.01726316
v -0.04167746 0.00000013 0.01726316
v -0.04167746 0.00000013 0.01726316
v -0.03751110 0.00000014 0.02506243
v -0.03751110 0.00000014 0.02506243
v -0.03751110 0.00000014 0.02506243
v -0.03189991 0.00000014 0.03189653
v -0.03189991 0.00000014 0.03189653
v -0.03189991 0.00000014 0.03189653
v -0.02505986 0.00508972 0.03754353
v -0.01726674 0.00619276 0.04178190
v -0.00880211 0.00535950 0.04465335
v -0.00000178 0.00467607 0.04548060
v -0.00000178 0.00467607 0.04548060
v -0.00000178 0.00519171 0.04610407
v -0.00000178 0.00519171 0.04610407
v 0.00879855 0.00596504 0.04533672
v 0.01726318 0.00823705 0.04305273
v 0.02506239 0.01193575 0.03934795
v 0.03189642 0.01691149 0.03435433
v 0.03750753 0.02297823 0.02827561
v 0.04167986 0.02989612 0.02133966
v 0.04424566 0.03740769 0.01381618
v 0.04511487 0.04521881 0.00599301
v 0.04424566 0.05302386 -0.00183617
v 0.04167985 0.06053535 -0.00935965
v 0.03750753 0.06745938 -0.01629561
v 0.03189640 0.07352010 -0.02236831
v 0.02506238 0.07850167 -0.02735596
v 0.01726317 0.08220050 -0.03106671
v 0.00879854 0.08447853 -0.03334481
v -0.00000179 0.08524587 -0.03411811
v -0.00880212 0.08447851 -0.03334481
v -0.01726675 0.08220048 -0.03106671
v -0.02506589 0.07850166 -0.02735598
v -0.03189993 0.07352008 -0.02236833
v -0.03751111 0.06745936 -0.01629563
v -0.04167747 0.06053532 -0.00935967
v -0.04167747 0.05418087 -0.01380779
v -0.04167747 0.04594411 -0.01578607
v -0.04167746 0.02776202 -0.01693702
v -0.04424314 0.02426108 -0.00851442
v -0.04511248 0.02061618 0.00023799
v -0.04424314 0.01697136 0.00899039
v -0.04167746 0.01347043 0.01740712
v -0.03750508 0.01023920 0.02516429
v -0.03189991 0.00740971 0.03196239
v -0.02506588 0.00899836 0.03771144
v -0.01726674 0.00739767 0.04221350
v -0.00880211 0.00596503 0.04533672
v -0.00880211 0.00617477 0.04645776
v -0.00000178 0.00535348 0.04714119
v -0.00000178 0.00535348 0.04714119
v 0.00879855 0.00617477 0.04645776
v 0.01726318 0.00860266 0.04443753
v 0.02506239 0.01254730 0.04114640
v 0.03189642 0.01785270 0.03672231
v 0.03750753 0.02432100 0.03133298
v 0.04167986 0.03169457 0.02517629
v 0.04424566 0.03970365 0.01850415
v 0.04511487 0.04802434 0.01156217
v 0.04424566 0.05635099 0.00462020
v 0.04167985 0.06435403 -0.00205200
v 0.03750753 0.07173357 -0.00820267
v 0.03189640 0.07820198 -0.01359796
v 0.02506237 0.08350739 -0.01802211
v 0.01726316 0.08745196 -0.02130723
v 0.00879853 0.08987977 -0.02333349
v -0.00000180 0.09070106 -0.02401686
v -0.00880212 0.08987977 -0.02333349
v -0.01726676 0.08745195 -0.02130723
v -0.02506590 0.08350737 -0.01802213
v -0.03189993 0.07820196 -0.01359797
v -0.03751111 0.07173355 -0.00820269
v -0.04167747 0.06435400 -0.00205202
v -0.04424315 0.05302383 -0.00183619
v -0.04424315 0.04746689 -0.00576276
v -0.04424314 0.04023112 -0.00751925
v -0.04511249 0.03429634 0.00107127
v -0.04424314 0.02836145 0.00966787
v -0.04167746 0.02265449 0.01793467
v -0.03751110 0.01739707 0.02555399
v -0.03189991 0.01278104 0.03223216
v -0.02506588 0.01070680 0.03825098
v -0.01726674 0.00823703 0.04305273
v -0.01726674 0.00860264 0.04443752
v -0.01726674 0.00860866 0.04597216
v -0.00880211 0.00610885 0.04768669
v -0.00000178 0.00526366 0.04826819
v -0.00000178 0.00526366 0.04826819
v 0.00879855 0.00610885 0.04768670
v 0.01726318 0.00860868 0.04597216
v 0.02506239 0.01266114 0.04317862
v 0.03189642 0.01811646 0.03941995
v 0.03750753 0.02476458 0.03483987
v 0.04167986 0.03234808 0.02961851
v 0.04424566 0.04057882 0.02395338
v 0.04511487 0.04913936 0.01806051
v 0.04424566 0.05769382 0.01216770
v 0.04167985 0.06592468 0.00649655
v 0.03750752 0.07350806 0.00127513
v 0.03189640 0.08015630 -0.00329893
v 0.02506237 0.08561149 -0.00705766
v 0.01726316 0.08966395 -0.00985122
v 0.00879853 0.09216376 -0.01156574
v -0.00000180 0.09300312 -0.01214719
v -0.00880212 0.09216376 -0.01156574
v -0.01726676 0.08966394 -0.00985122
v -0.02506590 0.08561148 -0.00705767
v -0.03189993 0.08015628 -0.00329895
v -0.03751112 0.07350804 0.00127511
v -0.04167747 0.06592466 0.00649653
v -0.04424315 0.05635096 0.00462019
v -0.04511249 0.04521878 0.00599299
v -0.04511249 0.04047687 0.00259995
v -0.04424315 0.03349300 0.01096265
v -0.04167747 0.02677890 0.01900774
v -0.03751110 0.02058621 0.02641718
v -0.03189991 0.01516094 0.03291559
v -0.02506588 0.01193573 0.03934794
v -0.02506588 0.01254728 0.04114639
v -0.02506588 0.01266112 0.04317861
v -0.02506588 0.01282903 0.04704529
v -0.01726674 0.00869854 0.04878377
v -0.00880211 0.00615676 0.04985088
v -0.00000178 0.00529358 0.05021047
v -0.00000178 0.00529358 0.05021047
v 0.00879855 0.00615677 0.04985088
v 0.01726318 0.00869856 0.04878378
v 0.02506239 0.01282905 0.04704530
v 0.03189641 0.01838623 0.04470730
v 0.03750753 0.02516023 0.04185975
v 0.04167986 0.03288750 0.03861058
v 0.04424566 0.04126821 0.03508568
v 0.04511487 0.04999061 0.03142292
v 0.04424565 0.05870698 0.02775407
v 0.04167984 0.06709370 0.02422917
v 0.03750752 0.07482097 0.02098001
v 0.03189640 0.08159497 0.01813244
v 0.02506237 0.08715215 0.01579446
v 0.01726316 0.09128264 0.01406198
v 0.00879852 0.09382442 0.01298892
v -0.00000180 0.09468158 0.01262927
v -0.00880213 0.09382440 0.01298892
v -0.01726677 0.09128262 0.01406198
v -0.02506590 0.08715213 0.01579445
v -0.03189993 0.08159494 0.01813244
v -0.03751112 0.07482095 0.02097999
v -0.04167748 0.06709368 0.02422915
v -0.04424315 0.05769379 0.01216768
v -0.04511249 0.04802431 0.01156215
v -0.04424315 0.03740766 0.01381616
v -0.04167747 0.02989610 0.02133964
v -0.03751111 0.02297821 0.02827559
v -0.03189991 0.01691147 0.03435432
v -0.03189991 0.01785268 0.03672230
v -0.03189991 0.01811644 0.03941994
v -0.03189992 0.01838621 0.04470728
v -0.03189992 0.01842817 0.05310005
v -0.03189992 0.01842817 0.05310005
v -0.02506588 0.01284703 0.05310005
v -0.02506588 0.01284703 0.05310005
v -0.01726674 0.00869854 0.05310005
v -0.01726674 0.00869854 0.05310005
v -0.00880211 0.00614479 0.05310005
v -0.00880211 0.00614479 0.05310005
v -0.00000178 0.00528160 0.05310005
v -0.00000178 0.00528160 0.05310005
v -0.00000178 0.00528160 0.05310005
v 0.00879855 0.00614480 0.05310005
v 0.00879855 0.00614480 0.05310005
v 0.01726318 0.00869856 0.05310006
v 0.01726318 0.00869856 0.05310006
v 0.02506239 0.01284705 0.05310006
v 0.02506239 0.01284705 0.05310006
v 0.03189641 0.01842819 0.05310006
v 0.03189641 0.01842819 0.05310006
v 0.03189641 0.01842819 0.05310006
v 0.03750753 0.02523224 0.05310006
v 0.03750753 0.02523224 0.05310006
v 0.03750753 0.02523224 0.05310006
v 0.04167985 0.03298942 0.05310006
v 0.04167985 0.03298942 0.05310006
v 0.04424566 0.04141210 0.05310006
v 0.04424566 0.04141210 0.05310006
v 0.04511486 0.05016446 0.05310006
v 0.04511486 0.05016446 0.05310006
v 0.04424565 0.05892280 0.05310006
v 0.04424565 0.05892280 0.05310006
v 0.04167984 0.06734547 0.05310006
v 0.04167984 0.06734547 0.05310006
v 0.04167984 0.06734547 0.05310006
v 0.03750752 0.07510272 0.05310006
v 0.03750752 0.07510272 0.05310006
v 0.03750752 0.07510272 0.05310006
v 0.03189639 0.08190677 0.05310006
v 0.03189639 0.08190677 0.05310006
v 0.02506236 0.08748791 0.05310006
v 0.02506236 0.08748791 0.05310006
v 0.01726315 0.09163627 0.05310006
v 0.01726315 0.09163627 0.05310006
v 0.00879852 0.09419002 0.05310005
v 0.00879852 0.09419002 0.05310005
v -0.00000181 0.09505334 0.05310005
v -0.00000181 0.09505334 0.05310005
v -0.00880214 0.09419002 0.05310005
v -0.00880214 0.09419002 0.05310005
v -0.01726677 0.09163626 0.05310005
v -0.01726677 0.09163626 0.05310005
v -0.02506591 0.08748789 0.05310005
v -0.02506591 0.08748789 0.05310005
v -0.03189994 0.08190675 0.05310005
v -0.03189994 0.08190675 0.05310005
v -0.03751113 0.07510270 0.05310004
v -0.03751113 0.07510270 0.05310004
v -0.03751113 0.07510270 0.05310004
v -0.04167749 0.06734545 0.05310004
v -0.04167749 0.06734545 0.05310004
v -0.04167749 0.06734545 0.05310004
v -0.04424316 0.05892278 0.05310004
v -0.04424316 0.05892278 0.05310004
v -0.04424316 0.05870695 0.02775405
v -0.04511249 0.04913933 0.01806049
v -0.04424315 0.03970363 0.01850414
v -0.04167747 0.03169455 0.02517628
v -0.03751111 0.02432098 0.03133297
v -0.03751111 0.02476456 0.03483985
v -0.03751111 0.02516021 0.04185973
v -0.03751111 0.02523222 0.05310004
v -0.03751111 0.02523222 0.05310004
v -0.00000180 0.05016444 0.05310005
v -0.00000180 0.05016444 0.05310005
v -0.00000180 0.05016444 0.05310005
v -0.00000180 0.05016444 0.05310005
v -0.04511250 0.05016443 0.05310004
v -0.04511250 0.05016443 0.05310004
v -0.04511249 0.04999058 0.03142291
v -0.04424315 0.04057880 0.02395336
v -0.04167747 0.03234806 0.02961849
v -0.04167747 0.03288748 0.03861056
v -0.04167747 0.03298940 0.05310004
v -0.04167747 0.03298940 0.05310004
v -0.04424315 0.04141207 0.05310004
v -0.04424315 0.04141207 0.05310004
v -0.04424315 0.04126818 0.03508566
vn -0.55573630 0.00940621 -0.83130544
vn 0.00000033 -1.00000000 0.00000000
vn -0.55924308 0.03190427 -0.82838970
vn -0.38221574 0.01120757 -0.92400515
vn 0.00000033 -1.00000000 0.00000000
vn -0.38490915 0.03679727 -0.92222065
vn -0.19504762 0.01142311 -0.98072737
vn 0.00000033 -1.00000000 0.00000000
vn -0.19713975 0.03802639 -0.97963768
vn 0.00000428 0.01218628 -0.99992567
vn 0.00000033 -1.00000000 0.00000000
vn -0.00025833 0.03915232 -0.99923330
vn 0.19489898 0.01183259 -0.98075205
vn 0.00000033 -1.00000000 0.00000000
vn 0.00000033 -1.00000000 -0.00000029
vn 0.19717935 0.03797096 -0.97963184
vn 0.00000033 -1.00000000 -0.00000029
vn 0.00000033 -1.00000000 0.00000000
vn 0.38269225 0.01169031 -0.92380202
vn 0.38494876 0.03672070 -0.92220724
vn 0.00000033 -1.00000000 -0.00000059
vn 0.55552232 0.00963873 -0.83144575
vn 0.00000033 -1.00000000 0.00000000
vn 0.55871743 0.03192287 -0.82874346
vn 0.00000033 -1.00000000 -0.00000059
vn 0.00000033 -1.00000000 0.00000000
vn 0.70645291 0.00834136 -0.70771098
vn 0.70968729 0.02676283 -0.70400840
vn 0.00000033 -1.00000000 0.00000000
vn 0.83093363 0.00653270 -0.55633360
vn 0.83304501 0.02061364 -0.55282128
vn 0.00000033 -1.00000000 0.00000117
vn 0.00000033 -1.00000000 0.00000000
vn 0.92359394 0.00450528 -0.38334596
vn 0.92471176 0.01420080 -0.38040346
vn 0.00000033 -1.00000000 0.00000117
vn 0.98063403 0.00230571 -0.19583613
vn 0.00000033 -1.00000000 0.00000000
vn 0.98075026 0.00606062 -0.19517292
vn 0.00000033 -1.00000000 0.00000000
vn 0.99999982 0.00001896 -0.00071472
vn 0.99999797 -0.00002125 -0.00198865
vn 0.98091036 -0.00219855 0.19444787
vn 0.00000033 -1.00000000 -0.00000117
vn 0.00000033 -1.00000000 0.00000000
vn 0.98141605 -0.00790719 0.19172958
vn 0.00000033 -1.00000000 -0.00000117
vn 0.00000033 -1.00000000 0.00000000
vn 0.92413855 -0.00501507 0.38202485
vn 0.92558706 -0.01284366 0.37831685
vn 0.00000033 -1.00000000 0.00000000
vn 0.83159488 -0.00595519 0.55535072
vn 0.83408940 -0.01785775 0.55134022
vn 0.00000033 -1.00000000 0.00000000
vn 0.70725095 -0.00699837 0.70692802
vn 0.70926440 -0.01984436 0.70466334
vn 0.55540758 -0.00566613 0.83155894
vn 0.00000033 -1.00000000 -0.00000029
vn 0.00000033 -1.00000000 0.00000000
vn 0.55681568 -0.01930826 0.83041173
vn 0.00000033 -1.00000000 -0.00000029
vn 0.00000033 -1.00000000 0.00000015
vn 0.38203236 -0.00488078 0.92413616
vn 0.38291696 -0.01686333 0.92362899
vn 0.00000033 -1.00000000 0.00000000
vn 0.00000033 -1.00000000 0.00000015
vn 0.19414861 -0.00008676 0.98097223
vn 0.00000033 -1.00000000 0.00000000
vn -0.38263896 -0.00237340 0.92389494
vn 0.00000033 -1.00000000 0.00000000
vn -0.19438948 0.00104862 0.98092395
vn -0.19477898 -0.01037025 0.98079234
vn 0.00004151 -0.00589240 0.99998272
vn -0.00002764 -0.00589979 0.99998259
vn 0.00004629 0.00289231 0.99999589
vn -0.00003339 0.00289625 0.99999589
vn 0.00000033 -1.00000000 0.00000000
vn 0.19501503 -0.00897097 0.98075938
vn 0.21465589 -0.19199732 0.95763248
vn 0.41392821 -0.16686997 0.89488435
vn 0.58824873 -0.13844331 0.79674155
vn 0.73593074 -0.11094176 0.66790563
vn 0.85126919 -0.08295996 0.51812983
vn 0.93457592 -0.05612151 0.35130924
vn 0.98426431 -0.02893153 0.17431748
vn 0.99997562 -0.00141671 -0.00683862
vn 0.98183519 0.02565338 -0.18799452
vn 0.92986769 0.05153173 -0.36426756
vn 0.84416044 0.07669672 -0.53057611
vn 0.72630978 0.10048014 -0.67998385
vn 0.57693636 0.12066939 -0.80782628
vn 0.40198260 0.13546483 -0.90557122
vn 0.20639151 0.14597057 -0.96752006
vn -0.00000672 0.14986250 -0.98870683
vn -0.20639798 0.14601442 -0.96751213
vn -0.40195549 0.13563816 -0.90555733
vn -0.57753742 0.12037662 -0.80744052
vn -0.72627401 0.10030046 -0.68004841
vn -0.70964897 0.02670038 -0.70404935
vn -0.70670348 0.00864107 -0.70745713
vn 0.00000033 -1.00000000 0.00000000
vn 0.00000033 -1.00000000 0.00000015
vn 0.00000033 -1.00000000 0.00000000
vn 0.00000033 -1.00000000 -0.00000029
vn 0.00000033 -1.00000000 -0.00000117
vn 0.00000033 -1.00000000 -0.00000059
vn 0.00000033 -1.00000000 -0.00000029
vn 0.00000033 -1.00000000 -0.00000117
vn 0.00000033 -1.00000000 0.00000117
vn 0.00000033 -1.00000000 0.00000117
vn 0.00000033 -1.00000000 -0.00000059
vn 0.00000033 -1.00000000 -0.00000015
vn -0.55531299 -0.00540406 0.83162385
vn 0.00000033 -1.00000000 -0.00000015
vn 0.00000033 -1.00000000 0.00000000
vn -0.38304204 -0.01657682 0.92358226
vn -0.21498810 -0.19350088 0.95725524
vn 0.00125630 -0.20370230 0.97903222
vn 0.00105096 -0.20371500 0.97902972
vn 0.23980625 -0.56058586 0.79261386
vn 0.45759344 -0.47399476 0.75228804
vn 0.63669592 -0.37929240 0.67138344
vn 0.77587151 -0.29101747 0.55976093
vn 0.87847233 -0.21082601 0.42876455
vn 0.94821322 -0.13715799 0.28649518
vn 0.98805177 -0.06642154 0.13907528
vn 0.99993771 0.00192830 -0.01100373
vn 0.98443419 0.06878163 -0.16173612
vn 0.94064772 0.13410062 -0.31176743
vn 0.86656833 0.19938849 -0.45749724
vn 0.75884879 0.26106495 -0.59665227
vn 0.61473250 0.31866410 -0.72149658
vn 0.43615213 0.36474735 -0.82263655
vn 0.22626041 0.39623466 -0.88983393
vn 0.00000003 0.40780669 -0.91306829
vn -0.22621149 0.39622295 -0.88985157
vn -0.43642747 0.36502636 -0.82236654
vn -0.61467022 0.31874609 -0.72151333
vn -0.75847524 0.26068836 -0.59729129
vn -0.86665869 0.19942732 -0.45730895
vn -0.84418011 0.07667203 -0.53054833
vn -0.83293509 0.02062573 -0.55298614
vn 0.00000033 -1.00000000 0.00000000
vn -0.83107251 0.00674000 -0.55612344
vn 0.00000033 -1.00000000 -0.00000117
vn -0.92352241 0.00508731 -0.38351056
vn 0.00000033 -1.00000000 0.00000000
vn 0.00000033 -1.00000000 -0.00000117
vn 0.00000033 -1.00000000 0.00000000
vn -0.98063266 0.00231389 -0.19584247
vn 0.00000033 -1.00000000 0.00000000
vn -0.99999982 0.00001898 -0.00071951
vn 0.00000033 -1.00000000 0.00000117
vn -0.98090076 -0.00214233 0.19449753
vn 0.00000033 -1.00000000 0.00000000
vn -0.92429847 -0.00381249 0.38165146
vn 0.00000033 -1.00000000 0.00000117
vn 0.00000033 -1.00000000 -0.00000059
vn -0.83173412 -0.00498906 0.55515188
vn 0.00000033 -1.00000000 0.00000000
vn 0.00000033 -1.00000000 -0.00000059
vn 0.00000033 -1.00000000 0.00000000
vn 0.00000033 -1.00000000 -0.00000015
vn -0.70708704 -0.00663238 0.70709550
vn -0.55736715 -0.02043515 0.83001471
vn -0.41437048 -0.16755994 0.89455074
vn -0.23992455 -0.55881494 0.79382741
vn 0.00002221 -0.59782261 0.80162847
vn -0.00002516 -0.59781861 0.80163151
vn -0.00136687 -0.91342372 0.40700781
vn -0.00123937 -0.91342330 0.40700930
vn 0.23377220 -0.87500322 0.42393392
vn 0.45558965 -0.77243400 0.44247499
vn 0.64273673 -0.63970584 0.42150423
vn 0.78530079 -0.50060737 0.36427316
vn 0.88676226 -0.36487049 0.28376475
vn 0.95267522 -0.23586319 0.19177747
vn 0.98928607 -0.11213328 0.09348481
vn 0.99992633 0.00975999 -0.00722623
vn 0.98559183 0.12837882 -0.11012513
vn 0.94532943 0.24583381 -0.21428543
vn 0.87624723 0.36205411 -0.31797415
vn 0.77308846 0.47462064 -0.42079625
vn 0.63278466 0.57705998 -0.51631927
vn 0.45219058 0.66384924 -0.59567446
vn 0.23753928 0.72212005 -0.64970583
vn -0.00000013 0.74298620 -0.66930687
vn -0.23748712 0.72212297 -0.64972186
vn -0.45207283 0.66395479 -0.59564614
vn -0.63307583 0.57726765 -0.51572984
vn -0.77313709 0.47452876 -0.42081094
vn -0.87617367 0.36159581 -0.31869766
vn -0.94542611 0.24562089 -0.21410206
vn -0.94065911 0.13424109 -0.31167278
vn -0.92987215 0.05130070 -0.36428836
vn -0.92449504 0.01381856 -0.38094366
vn -0.98074836 0.00587992 -0.19518778
vn -0.99999821 -0.00000157 -0.00189954
vn -0.98141086 -0.00792851 0.19175482
vn -0.92541933 -0.01317352 0.37871554
vn -0.83380049 -0.01784923 0.55177730
vn -0.70963854 -0.02048879 0.70426798
vn -0.58873957 -0.13855550 0.79635930
vn -0.45759237 -0.47391346 0.75233996
vn -0.23374479 -0.87496304 0.42403188
vn -0.19563191 -0.97882223 0.06029310
vn 0.00006032 -0.99944550 0.03329759
vn -0.00005969 -0.99944562 0.03329700
vn 0.19572940 -0.97880322 0.06028595
vn 0.39798886 -0.91008949 0.11550837
vn 0.58716655 -0.79542184 0.15013170
vn 0.74344665 -0.65071046 0.15447724
vn 0.86174595 -0.48938364 0.13378185
vn 0.94179434 -0.32186219 0.09709916
vn 0.98653787 -0.15530057 0.05123340
vn 0.99995422 0.00957730 0.00002594
vn 0.98356426 0.17249033 -0.05337257
vn 0.93727899 0.33109578 -0.10901254
vn 0.86012745 0.48316178 -0.16350965
vn 0.74991459 0.62508804 -0.21654826
vn 0.60529530 0.75068819 -0.26473597
vn 0.42722648 0.85139960 -0.30429661
vn 0.22111887 0.91759998 -0.33032867
vn -0.00000025 0.94033861 -0.34024039
vn -0.22152294 0.91728622 -0.33092833
vn -0.42722690 0.85139930 -0.30429679
vn -0.60529560 0.75068772 -0.26473621
vn -0.74991453 0.62508786 -0.21654864
vn -0.86025548 0.48295963 -0.16343404
vn -0.93732560 0.33099770 -0.10891046
vn -0.98559165 0.12837978 -0.11012677
vn -0.98443371 0.06878230 -0.16173848
vn -0.98183465 0.02563712 -0.18799858
vn -0.99997562 -0.00142201 -0.00685548
vn -0.98430085 -0.02900000 0.17410073
vn -0.93438727 -0.05643028 0.35176164
vn -0.85144395 -0.08248327 0.51791900
vn -0.73583835 -0.11085854 0.66802120
vn -0.63668329 -0.37948289 0.67128778
vn -0.45554775 -0.77244204 0.44250402
vn -0.39736614 -0.91034889 0.11560784
vn -0.37634680 -0.92634439 0.01578861
vn -0.18762968 -0.98212439 -0.01505956
vn -0.00000115 -0.99954391 -0.03020030
vn 0.00000181 -0.99954402 -0.03019994
vn 0.18772711 -0.98210937 -0.01482173
vn 0.37628099 -0.92637330 0.01565618
vn 0.55611271 -0.83011854 0.04052350
vn 0.71403903 -0.69820994 0.05148942
vn 0.83872116 -0.54235548 0.04896101
vn 0.92906582 -0.36798450 0.03773752
vn 0.98258698 -0.18461999 0.02093844
vn 0.99999171 0.00396183 0.00099641
vn 0.98156226 0.18996331 -0.02120322
vn 0.92848951 0.36867690 -0.04454853
vn 0.84103429 0.53690278 -0.06630709
vn 0.72183394 0.68669331 -0.08606993
vn 0.57233697 0.81327367 -0.10495880
vn 0.39729273 0.90999472 -0.11860903
vn 0.20376532 0.97059184 -0.12818468
vn -0.00000030 0.99133772 -0.13133730
vn -0.20376578 0.97059172 -0.12818474
vn -0.39723748 0.91002899 -0.11853227
vn -0.57233763 0.81327319 -0.10495900
vn -0.72181344 0.68670267 -0.08616824
vn -0.84149760 0.53616619 -0.06639096
vn -0.92849273 0.36868429 -0.04442195
vn -0.98358464 0.17223906 -0.05380498
vn -0.99992633 0.00976035 -0.00722718
vn -0.99993771 0.00192872 -0.01100498
vn -0.98810422 -0.06659343 0.13862023
vn -0.94815969 -0.13684171 0.28682312
vn -0.87850302 -0.21101669 0.42860785
vn -0.77588028 -0.29083425 0.55984396
vn -0.64302689 -0.63952476 0.42133677
vn -0.58721769 -0.79543900 0.14984070
vn -0.55611211 -0.83011890 0.04052348
vn -0.55464298 -0.83189559 0.01791586
vn -0.38191491 -0.92408973 0.01411055
vn -0.19428729 -0.98091143 0.00807431
vn -0.00003299 -0.99998802 0.00489712
vn 0.00005342 -0.99998802 0.00490421
vn 0.19430081 -0.98090875 0.00808820
vn 0.38179299 -0.92413598 0.01438654
vn 0.55528778 -0.83143854 0.01912210
vn 0.70760351 -0.70633769 0.01960504
vn 0.83268690 -0.55347508 0.01726224
vn 0.92489201 -0.38000971 0.01294706
vn 0.98126578 -0.19252598 0.00716364
vn 0.99999732 0.00200662 0.00120794
vn 0.98072445 0.19526961 -0.00702364
vn 0.92387998 0.38243869 -0.01365198
vn 0.83208424 0.55426562 -0.02063129
vn 0.70823759 0.70547211 -0.02662122
vn 0.55733758 0.82967430 -0.03186633
vn 0.38458291 0.92241299 -0.03535925
vn 0.19575658 0.97990757 -0.03822007
vn -0.00000876 0.99923819 -0.03902679
vn -0.19571172 0.97993082 -0.03784939
vn -0.38393989 0.92266625 -0.03573978
vn -0.55745298 0.82959610 -0.03188381
vn -0.70823276 0.70547819 -0.02659022
vn -0.83212858 0.55418873 -0.02090486
vn -0.92399561 0.38216031 -0.01362786
vn -0.98156178 0.18996559 -0.02120404
vn -0.99995422 0.00957725 0.00002560
vn -0.98930621 -0.11196732 0.09346790
vn -0.95270503 -0.23585272 0.19164254
vn -0.88685512 -0.36473921 0.28364325
vn -0.78530049 -0.50060785 0.36427346
vn -0.74344564 -0.65071142 0.15447697
vn -0.71390057 -0.69835311 0.05146818
vn -0.70809549 -0.70585602 0.01918709
vn -0.70565355 -0.70854491 0.00414061
vn -0.00000017 -0.00000000 1.00000000
vn -0.55389690 -0.83258086 0.00274750
vn -0.00000017 -0.00000000 1.00000000
vn -0.38020131 -0.92490369 0.00002387
vn -0.00000017 -0.00000000 1.00000000
vn -0.19350889 -0.98109376 -0.00310323
vn -0.00000017 -0.00000000 1.00000000
vn -0.00004468 -0.99998808 -0.00488955
vn 0.00003607 -0.99998808 -0.00489485
vn -0.00000017 -0.00000000 1.00000000
vn 0.19405511 -0.98098385 -0.00366184
vn -0.00000017 -0.00000000 1.00000000
vn 0.38035041 -0.92484248 -0.00015471
vn -0.00000017 -0.00000000 1.00000000
vn -0.00000017 -0.00000000 1.00000000
vn 0.55340678 -0.83291000 0.00139413
vn 0.70500785 -0.70919448 0.00271082
vn -0.00000032 -0.00000000 1.00000000
vn -0.00000017 -0.00000000 1.00000000
vn -0.00000017 -0.00000000 1.00000000
vn 0.83029735 -0.55731362 0.00282463
vn -0.00000032 -0.00000000 1.00000000
vn -0.00000017 -0.00000000 1.00000000
vn 0.92327714 -0.38412571 0.00261555
vn -0.00000017 -0.00000000 1.00000000
vn 0.98067087 -0.19565928 0.00147235
vn -0.00000017 -0.00000000 1.00000000
vn 1.00000000 0.00047150 -0.00000475
vn -0.00000017 -0.00000000 1.00000000
vn 0.98042977 0.19686551 -0.00126947
vn -0.00000032 -0.00000000 1.00000000
vn -0.00000017 -0.00000000 1.00000000
vn 0.92302638 0.38471970 -0.00361182
vn -0.00000017 -0.00000000 1.00000000
vn -0.00000032 -0.00000000 1.00000000
vn 0.83045822 0.55705577 -0.00532136
vn -0.00000017 -0.00000000 1.00000000
vn 0.70549434 0.70868397 -0.00669628
vn -0.00000017 -0.00000000 1.00000000
vn 0.55340308 0.83287549 -0.00796207
vn 0.38179561 0.92420310 -0.00899701
vn -0.00000017 -0.00000000 1.00000000
vn 0.19402279 0.98095655 -0.00891962
vn -0.00000017 -0.00000000 1.00000000
vn -0.00002304 0.99995810 -0.00915474
vn -0.00000017 -0.00000000 1.00000000
vn -0.00000017 -0.00000000 1.00000000
vn -0.19466431 0.98082477 -0.00941912
vn -0.00000017 -0.00000000 1.00000000
vn -0.38181719 0.92419410 -0.00901014
vn -0.00000017 -0.00000000 1.00000000
vn -0.55340219 0.83287573 -0.00801227
vn -0.00000017 -0.00000000 1.00000000
vn -0.70575851 0.70841777 -0.00702149
vn -0.00000017 -0.00000000 1.00000000
vn -0.00000003 -0.00000000 1.00000000
vn -0.83049709 0.55699730 -0.00536272
vn -0.00000003 -0.00000000 1.00000000
vn -0.00000017 -0.00000000 1.00000000
vn -0.92307842 0.38459241 -0.00386010
vn -0.00000017 -0.00000000 1.00000000
vn -0.98039883 0.19701919 -0.00118595
vn -0.98058873 0.19596718 -0.00652652
vn -0.99999171 0.00396112 0.00099614
vn -0.98657256 -0.15506422 0.05128014
vn -0.94177669 -0.32191509 0.09709568
vn -0.86190003 -0.48912966 0.13371915
vn -0.83892512 -0.54201198 0.04927120
vn -0.83246464 -0.55383062 0.01657143
vn -0.00000017 -0.00000000 1.00000000
vn -0.83091891 -0.55637890 0.00405529
vn -0.00000017 -0.00000000 1.00000000
vn -0.00000032 -0.00000000 1.00000000
vn -0.00000003 -0.00000000 1.00000000
vn -0.00000032 -0.00000000 1.00000000
vn -0.00000017 -0.00000000 1.00000000
vn -1.00000000 0.00048250 -0.00002352
vn -0.99999720 0.00200752 0.00131917
vn -0.98260182 -0.18453622 0.02098209
vn -0.92910290 -0.36786368 0.03800596
vn -0.92498475 -0.37978730 0.01284213
vn -0.00000017 -0.00000000 1.00000000
vn -0.92339116 -0.38385031 0.00279953
vn -0.00000017 -0.00000000 1.00000000
vn -0.98067266 -0.19565211 0.00122131
vn -0.98126876 -0.19251201 0.00712944
vt 0.80444503 0.36855549
vt 0.89362580 0.92285949
vt 0.78217232 0.35939500
vt 0.80812722 0.35984400
vt 0.89703858 0.91774040
vt 0.78396851 0.35274911
vt 0.81073171 0.35059360
vt 0.90143919 0.91333967
vt 0.78531557 0.34592360
vt 0.81207877 0.34098399
vt 0.90664822 0.90983713
vt 0.78612387 0.33900821
vt 0.81207877 0.33119479
vt 0.91239601 0.90750211
vt 0.91239601 0.90750211
vt 0.78621370 0.33209291
vt 0.91850311 0.90624481
vt 0.91850311 0.90624481
vt 0.81073171 0.32158521
vt 0.78585452 0.32526740
vt 0.92469990 0.90624481
vt 0.80821699 0.31242460
vt 0.92469990 0.90624481
vt 0.78486657 0.31835210
vt 0.93080688 0.90750211
vt 0.93080688 0.90750211
vt 0.80480421 0.30398250
vt 0.78351939 0.31152651
vt 0.93655467 0.90983713
vt 0.80067301 0.29625890
vt 0.78181303 0.30479080
vt 0.94176358 0.91333967
vt 0.94176358 0.91333967
vt 0.79618251 0.28925380
vt 0.77983719 0.29805511
vt 0.94616431 0.91774040
vt 0.79160231 0.28296709
vt 0.94616431 0.91774040
vt 0.77768183 0.29149899
vt 0.94966692 0.92285949
vt 0.78693217 0.27721930
vt 0.77543652 0.28503269
vt 0.78253150 0.27210021
vt 0.95200193 0.92869711
vt 0.95200193 0.92869711
vt 0.77319127 0.27865630
vt 0.95325923 0.93480420
vt 0.95325923 0.93480420
vt 0.77840030 0.26725039
vt 0.77094608 0.27254921
vt 0.95325923 0.94100100
vt 0.77462828 0.26267019
vt 0.76888049 0.26662180
vt 0.95200193 0.94710797
vt 0.77130532 0.25817969
vt 0.76708430 0.26069430
vt 0.76861101 0.25350961
vt 0.94966692 0.95285582
vt 0.94966692 0.95285582
vt 0.76555753 0.25494650
vt 0.94616431 0.95806479
vt 0.94616431 0.95806479
vt 0.76681483 0.24848020
vt 0.76465940 0.24910890
vt 0.94176358 0.96246553
vt 0.94176358 0.96246553
vt 0.76609641 0.24300180
vt 0.92469990 0.96947062
vt 0.75504982 0.42621320
vt 0.93080688 0.96830308
vt 0.75370270 0.43151191
vt 0.75217593 0.43124250
vt 0.76492882 0.23734391
vt 0.75208610 0.43708020
vt 0.76618618 0.23725399
vt 0.75334340 0.43734959
vt 0.93655467 0.96587831
vt 0.76456958 0.24318150
vt 0.76322252 0.24345090
vt 0.76286322 0.24955790
vt 0.76313257 0.25593451
vt 0.76376128 0.26240081
vt 0.76456958 0.26904660
vt 0.76555753 0.27587220
vt 0.76645559 0.28278750
vt 0.76735371 0.28970280
vt 0.76807219 0.29661819
vt 0.76870078 0.30326399
vt 0.76923972 0.30973029
vt 0.76968872 0.31592721
vt 0.76995808 0.32176480
vt 0.77004802 0.32733300
vt 0.76995808 0.33272150
vt 0.76977861 0.33793050
vt 0.76923972 0.34322920
vt 0.76861101 0.34852800
vt 0.76780271 0.35409620
vt 0.76672500 0.35984400
vt 0.77983719 0.36604080
vt 0.79986471 0.37636891
vt 0.89120090 0.92869711
vt 0.92164642 0.93785769
vt 0.92164642 0.93785769
vt 0.92164642 0.93785769
vt 0.92164642 0.93785769
vt 0.92164642 0.93785769
vt 0.92164642 0.93785769
vt 0.92164642 0.93785769
vt 0.92164642 0.93785769
vt 0.92164642 0.93785769
vt 0.92164642 0.93785769
vt 0.92164642 0.93785769
vt 0.75756448 0.42154309
vt 0.91850311 0.96947062
vt 0.91850311 0.96947062
vt 0.75298423 0.42540491
vt 0.75082880 0.43079349
vt 0.76376128 0.23752341
vt 0.75091863 0.43681070
vt 0.76259381 0.24354070
vt 0.76205492 0.24973761
vt 0.76187527 0.25620389
vt 0.76196522 0.26293960
vt 0.76223463 0.26985490
vt 0.76250398 0.27703971
vt 0.76277339 0.28422451
vt 0.76304281 0.29140919
vt 0.76322252 0.29850411
vt 0.76331228 0.30532971
vt 0.76340210 0.31179601
vt 0.76340210 0.31781319
vt 0.76331228 0.32338139
vt 0.76313257 0.32841072
vt 0.76295310 0.33308080
vt 0.76268357 0.33748141
vt 0.76232427 0.34197190
vt 0.76187527 0.34664199
vt 0.76142633 0.35167131
vt 0.76070780 0.35714969
vt 0.75998932 0.36307719
vt 0.76555753 0.36595109
vt 0.77723271 0.37250722
vt 0.88994360 0.93480420
vt 0.79483539 0.38346389
vt 0.88994360 0.94100100
vt 0.78944677 0.38984039
vt 0.88994360 0.94100100
vt 0.89120090 0.94710797
vt 0.89120090 0.94710797
vt 0.78405827 0.39540860
vt 0.89362580 0.95285582
vt 0.77875948 0.40043789
vt 0.89703858 0.95806479
vt 0.77373022 0.40501821
vt 0.89703858 0.95806479
vt 0.76897031 0.40923920
vt 0.90143919 0.96246553
vt 0.90143919 0.96246553
vt 0.76465940 0.41328061
vt 0.90664822 0.96587831
vt 0.90664822 0.96587831
vt 0.91239601 0.96830308
vt 0.91239601 0.96830308
vt 0.76079762 0.41732201
vt 0.75460082 0.41974691
vt 0.75127780 0.42468640
vt 0.75028992 0.43061391
vt 0.76331228 0.23761330
vt 0.75046951 0.43663111
vt 0.75011033 0.43663111
vt 0.76304281 0.23761330
vt 0.76205492 0.24354070
vt 0.76124668 0.24964771
vt 0.76070780 0.25611409
vt 0.76025867 0.26293960
vt 0.75980967 0.26994470
vt 0.75945038 0.27712950
vt 0.75900137 0.28449389
vt 0.75864220 0.29176840
vt 0.75828302 0.29895320
vt 0.75792372 0.30577871
vt 0.75765431 0.31224501
vt 0.75729501 0.31817239
vt 0.75702560 0.32365081
vt 0.75675619 0.32850051
vt 0.75648677 0.33290121
vt 0.75621730 0.33712220
vt 0.75594789 0.34125349
vt 0.75558871 0.34565410
vt 0.75522941 0.35050380
vt 0.75478041 0.35598221
vt 0.75433141 0.36190960
vt 0.75379252 0.36837590
vt 0.75909120 0.36945361
vt 0.76412058 0.37223771
vt 0.77444857 0.37888360
vt 0.77139509 0.38517031
vt 0.76834160 0.39127731
vt 0.76528812 0.39720479
vt 0.76232427 0.40295261
vt 0.75945038 0.40861049
vt 0.75684601 0.41417870
vt 0.75235552 0.41839981
vt 0.75046951 0.42441699
vt 0.74975097 0.43061391
vt 0.74903262 0.43079349
vt 0.76250398 0.23743370
vt 0.74957150 0.43672091
vt 0.76133651 0.24327120
vt 0.76034862 0.24937829
vt 0.75945038 0.25566500
vt 0.75846261 0.26231089
vt 0.75738478 0.26913640
vt 0.75630712 0.27614161
vt 0.75522941 0.28323650
vt 0.75424153 0.29033151
vt 0.75334340 0.29733661
vt 0.75244528 0.30407229
vt 0.75172693 0.31053859
vt 0.75109822 0.31655589
vt 0.75055927 0.32212400
vt 0.75011033 0.32724321
vt 0.74975097 0.33200309
vt 0.74939179 0.33667320
vt 0.74912238 0.34125349
vt 0.74885303 0.34610310
vt 0.74858350 0.35122231
vt 0.74840391 0.35679051
vt 0.74822432 0.36280769
vt 0.74813449 0.36927399
vt 0.75325358 0.37520140
vt 0.75801349 0.37627909
vt 0.76259381 0.37879381
vt 0.76097721 0.38552949
vt 0.75918102 0.39226520
vt 0.75738478 0.39900100
vt 0.75549883 0.40555701
vt 0.75379252 0.41211310
vt 0.75118798 0.41804051
vt 0.74975097 0.42441699
vt 0.74885303 0.42459661
vt 0.74786502 0.42504570
vt 0.74831408 0.43106291
vt 0.74903262 0.43699029
vt 0.76196522 0.23707440
vt 0.76061797 0.24291191
vt 0.75945038 0.24883939
vt 0.75819308 0.25494650
vt 0.75675619 0.26123321
vt 0.75513959 0.26769951
vt 0.75343323 0.27434540
vt 0.75181657 0.28108111
vt 0.75020009 0.28781679
vt 0.74876320 0.29455251
vt 0.74732619 0.30119839
vt 0.74606878 0.30757490
vt 0.74499112 0.31368199
vt 0.74400318 0.31960940
vt 0.74319488 0.32526740
vt 0.74256629 0.33074579
vt 0.74211723 0.33613432
vt 0.74184781 0.34161270
vt 0.74175799 0.34709111
vt 0.74184781 0.35283890
vt 0.74202740 0.35876629
vt 0.74229687 0.36505291
vt 0.74265611 0.37151921
vt 0.74804473 0.37609950
vt 0.75262493 0.38229641
vt 0.75693577 0.38319451
vt 0.75576830 0.39037919
vt 0.75451088 0.39747420
vt 0.75325358 0.40447930
vt 0.75217593 0.41139469
vt 0.75002050 0.41795069
vt 0.74867332 0.41822019
vt 0.74741602 0.41875899
vt 0.74499112 0.41983670
vt 0.74606878 0.42567429
vt 0.74687707 0.43151191
vt 0.74786502 0.43734959
vt 0.76088738 0.23653559
vt 0.75936067 0.24228340
vt 0.75783390 0.24794141
vt 0.75594789 0.25359940
vt 0.75370270 0.25916761
vt 0.75118798 0.26482561
vt 0.74849367 0.27048361
vt 0.74570960 0.27641100
vt 0.74283570 0.28242829
vt 0.73996180 0.28862509
vt 0.73717773 0.29500160
vt 0.73448342 0.30137801
vt 0.73205858 0.30793411
vt 0.72999299 0.31466991
vt 0.72819668 0.32140550
vt 0.72693938 0.32823110
vt 0.72622102 0.33505660
vt 0.72604132 0.34206170
vt 0.72640061 0.34897700
vt 0.72720891 0.35589239
vt 0.72846621 0.36271790
vt 0.72999299 0.36954340
vt 0.73178917 0.37636891
vt 0.74319488 0.37825501
vt 0.74804473 0.38319451
vt 0.75199628 0.38966069
vt 0.75145739 0.39693531
vt 0.75091863 0.40412009
vt 0.75037968 0.41112521
vt 0.74858350 0.41157430
vt 0.74669761 0.41229269
vt 0.74346441 0.41399911
vt 0.73861468 0.41687301
vt 0.70987570 0.91971618
vt 0.74130893 0.42163289
vt 0.71328843 0.92492509
vt 0.74337459 0.42666221
vt 0.71562338 0.93067288
vt 0.74481148 0.43205079
vt 0.71688080 0.93677998
vt 0.74597907 0.43779859
vt 0.75909120 0.23590680
vt 0.71688080 0.94297677
vt 0.75729501 0.24147510
vt 0.71562338 0.94908392
vt 0.75522941 0.24668400
vt 0.71328843 0.95483172
vt 0.70987570 0.96004063
vt 0.75253510 0.25135419
vt 0.74921220 0.25566500
vt 0.70547497 0.96444130
vt 0.70547497 0.96444130
vt 0.70026600 0.96794391
vt 0.74544018 0.25979629
vt 0.70026600 0.96794391
vt 0.69460797 0.97027892
vt 0.74121922 0.26401731
vt 0.68850100 0.97153622
vt 0.73654902 0.26832810
vt 0.68230420 0.97153622
vt 0.73160952 0.27308801
vt 0.67619711 0.97036868
vt 0.72640061 0.27829701
vt 0.67044932 0.96794391
vt 0.67044932 0.96794391
vt 0.72119170 0.28404480
vt 0.66533017 0.96453112
vt 0.66533017 0.96453112
vt 0.71598268 0.29051110
vt 0.66092950 0.96013039
vt 0.71113300 0.29769590
vt 0.65751672 0.95492148
vt 0.70673227 0.30568889
vt 0.70322973 0.31440040
vt 0.65509188 0.94917369
vt 0.70071512 0.32365081
vt 0.65392441 0.94306660
vt 0.69936800 0.33335021
vt 0.65392441 0.93677998
vt 0.65509188 0.93067288
vt 0.69936800 0.34304970
vt 0.65751672 0.92492509
vt 0.70071512 0.35256940
vt 0.66092950 0.91980600
vt 0.70305008 0.36173001
vt 0.66533017 0.91531551
vt 0.70628327 0.37017211
vt 0.67044932 0.91190273
vt 0.67044932 0.91190273
vt 0.71023488 0.37798551
vt 0.67619711 0.90947789
vt 0.67619711 0.90947789
vt 0.71445590 0.38508049
vt 0.68230420 0.90831041
vt 0.71894640 0.39145690
vt 0.73367512 0.38301489
vt 0.74373382 0.38517031
vt 0.74813449 0.39037919
vt 0.74822432 0.39756399
vt 0.74840391 0.40465891
vt 0.74597907 0.40573659
vt 0.74166822 0.40807170
vt 0.70547497 0.91531551
vt 0.73529172 0.41229269
vt 0.68535757 0.93992329
vt 0.68535757 0.93992329
vt 0.68535757 0.93992329
vt 0.68535757 0.93992329
vt 0.68850100 0.90831041
vt 0.72334713 0.39729449
vt 0.73574078 0.38948110
vt 0.74445230 0.39208561
vt 0.74517077 0.39891109
vt 0.73978221 0.40205440
vt 0.70026600 0.91190273
vt 0.73169941 0.40762261
vt 0.69460797 0.90947789
vt 0.72765791 0.40259332
vt 0.73771661 0.39585760
f 1/1/1 3/3/3 4/4/4
f 3/3/3 6/6/6 4/4/4
f 4/4/4 6/6/6 7/7/7
f 6/6/6 9/9/9 7/7/7
f 7/7/7 9/9/9 10/10/10
f 9/9/9 12/12/12 10/10/10
f 10/10/10 12/12/12 13/13/13
f 12/12/12 16/16/16 13/13/13
f 13/13/13 16/16/16 19/19/19
f 16/16/16 20/20/20 19/19/19
f 19/19/19 20/20/20 22/22/22
f 20/20/20 24/24/24 22/22/22
f 22/22/22 24/24/24 27/27/27
f 24/24/24 28/28/28 27/27/27
f 27/27/27 28/28/28 30/30/30
f 28/28/28 31/31/31 30/30/30
f 30/30/30 31/31/31 34/34/34
f 31/31/31 35/35/35 34/34/34
f 34/34/34 35/35/35 37/37/37
f 35/35/35 39/39/39 37/37/37
f 37/37/37 39/39/39 41/41/41
f 39/39/39 42/42/42 41/41/41
f 41/41/41 42/42/42 43/43/43
f 42/42/42 46/46/46 43/43/43
f 43/43/43 46/46/46 49/49/49
f 46/46/46 50/50/50 49/49/49
f 49/49/49 50/50/50 52/52/52
f 50/50/50 53/53/53 52/52/52
f 52/52/52 53/53/53 55/55/55
f 53/53/53 56/56/56 55/55/55
f 55/55/55 56/56/56 57/57/57
f 56/56/56 60/60/60 57/57/57
f 57/57/57 60/60/60 63/63/63
f 60/60/60 64/64/64 63/63/63
f 63/63/63 64/64/64 67/67/67
f 69/69/69 71/71/71 72/72/72
f 72/72/72 71/71/71 74/74/74
f 71/71/71 76/76/76 74/74/74
f 73/73/73 75/75/75 78/78/78
f 75/75/75 67/67/67 78/78/78
f 67/67/67 64/64/64 78/78/78
f 78/78/78 64/64/64 79/79/79
f 79/79/79 64/64/64 80/80/80
f 64/64/64 60/60/60 80/80/80
f 80/80/80 60/60/60 81/81/81
f 60/60/60 56/56/56 81/81/81
f 81/81/81 56/56/56 82/82/82
f 56/56/56 53/53/53 82/82/82
f 82/82/82 53/53/53 83/83/83
f 53/53/53 50/50/50 83/83/83
f 83/83/83 50/50/50 84/84/84
f 50/50/50 46/46/46 84/84/84
f 84/84/84 46/46/46 85/85/85
f 46/46/46 42/42/42 85/85/85
f 85/85/85 42/42/42 86/86/86
f 42/42/42 39/39/39 86/86/86
f 86/86/86 39/39/39 87/87/87
f 39/39/39 35/35/35 87/87/87
f 87/87/87 35/35/35 88/88/88
f 35/35/35 31/31/31 88/88/88
f 88/88/88 31/31/31 89/89/89
f 31/31/31 28/28/28 89/89/89
f 89/89/89 28/28/28 90/90/90
f 28/28/28 24/24/24 90/90/90
f 90/90/90 24/24/24 91/91/91
f 24/24/24 20/20/20 91/91/91
f 91/91/91 20/20/20 92/92/92
f 20/20/20 16/16/16 92/92/92
f 92/92/92 16/16/16 93/93/93
f 16/16/16 12/12/12 93/93/93
f 93/93/93 12/12/12 94/94/94
f 94/94/94 12/12/12 95/95/95
f 12/12/12 9/9/9 95/95/95
f 95/95/95 9/9/9 96/96/96
f 9/9/9 6/6/6 96/96/96
f 96/96/96 6/6/6 97/97/97
f 6/6/6 3/3/3 97/97/97
f 97/97/97 3/3/3 98/98/98
f 98/98/98 3/3/3 99/99/99
f 3/3/3 1/1/1 99/99/99
f 99/99/99 1/1/1 100/100/100
f 101/101/101 2/2/2 103/103/103
f 2/2/2 5/5/5 103/103/103
f 5/5/5 8/8/8 103/103/103
f 8/8/8 11/11/11 103/103/103
f 11/11/11 14/14/14 103/103/103
f 15/15/15 17/17/17 107/107/107
f 18/18/18 23/23/23 103/103/103
f 21/21/21 25/25/25 106/106/106
f 26/26/26 29/29/29 103/103/103
f 29/29/29 33/33/33 103/103/103
f 32/32/32 36/36/36 109/109/109
f 38/38/38 40/40/40 103/103/103
f 40/40/40 45/45/45 103/103/103
f 44/44/44 47/47/47 105/105/105
f 48/48/48 51/51/51 103/103/103
f 51/51/51 54/54/54 103/103/103
f 54/54/54 59/59/59 103/103/103
f 58/58/58 61/61/61 104/104/104
f 62/62/62 66/66/66 102/102/102
f 65/65/65 77/77/77 103/103/103
f 77/77/77 70/70/70 103/103/103
f 70/70/70 68/68/68 103/103/103
f 103/103/103 68/68/68 115/115/115
f 113/113/113 69/69/69 116/116/116
f 69/69/69 72/72/72 116/116/116
f 116/116/116 72/72/72 117/117/117
f 72/72/72 74/74/74 117/117/117
f 117/117/117 74/74/74 119/119/119
f 73/73/73 78/78/78 118/118/118
f 78/78/78 79/79/79 118/118/118
f 118/118/118 79/79/79 120/120/120
f 79/79/79 80/80/80 120/120/120
f 120/120/120 80/80/80 121/121/121
f 80/80/80 81/81/81 121/121/121
f 121/121/121 81/81/81 122/122/122
f 81/81/81 82/82/82 122/122/122
f 122/122/122 82/82/82 123/123/123
f 82/82/82 83/83/83 123/123/123
f 123/123/123 83/83/83 124/124/124
f 83/83/83 84/84/84 124/124/124
f 124/124/124 84/84/84 125/125/125
f 84/84/84 85/85/85 125/125/125
f 125/125/125 85/85/85 126/126/126
f 85/85/85 86/86/86 126/126/126
f 126/126/126 86/86/86 127/127/127
f 86/86/86 87/87/87 127/127/127
f 127/127/127 87/87/87 128/128/128
f 87/87/87 88/88/88 128/128/128
f 128/128/128 88/88/88 129/129/129
f 88/88/88 89/89/89 129/129/129
f 129/129/129 89/89/89 130/130/130
f 89/89/89 90/90/90 130/130/130
f 130/130/130 90/90/90 131/131/131
f 90/90/90 91/91/91 131/131/131
f 131/131/131 91/91/91 132/132/132
f 91/91/91 92/92/92 132/132/132
f 132/132/132 92/92/92 133/133/133
f 92/92/92 93/93/93 133/133/133
f 133/133/133 93/93/93 134/134/134
f 93/93/93 94/94/94 134/134/134
f 134/134/134 94/94/94 135/135/135
f 135/135/135 94/94/94 136/136/136
f 94/94/94 95/95/95 136/136/136
f 136/136/136 95/95/95 137/137/137
f 95/95/95 96/96/96 137/137/137
f 137/137/137 96/96/96 138/138/138
f 96/96/96 97/97/97 138/138/138
f 138/138/138 97/97/97 139/139/139
f 97/97/97 98/98/98 139/139/139
f 139/139/139 98/98/98 140/140/140
f 140/140/140 98/98/98 141/141/141
f 98/98/98 99/99/99 141/141/141
f 141/141/141 99/99/99 142/142/142
f 99/99/99 100/100/100 142/142/142
f 142/142/142 100/100/100 144/144/144
f 101/101/101 103/103/103 143/143/143
f 143/143/143 103/103/103 147/147/147
f 145/145/145 108/108/108 148/148/148
f 149/149/149 103/103/103 151/151/151
f 151/151/151 103/103/103 155/155/155
f 153/153/153 110/110/110 157/157/157
f 158/158/158 111/111/111 161/161/161
f 160/160/160 103/103/103 162/162/162
f 112/112/112 114/114/114 163/163/163
f 164/164/164 113/113/113 165/165/165
f 113/113/113 116/116/116 165/165/165
f 165/165/165 116/116/116 166/166/166
f 116/116/116 117/117/117 166/166/166
f 166/166/166 117/117/117 167/167/167
f 167/167/167 117/117/117 169/169/169
f 117/117/117 119/119/119 169/169/169
f 118/118/118 120/120/120 168/168/168
f 168/168/168 120/120/120 171/171/171
f 171/171/171 120/120/120 172/172/172
f 120/120/120 121/121/121 172/172/172
f 172/172/172 121/121/121 173/173/173
f 121/121/121 122/122/122 173/173/173
f 173/173/173 122/122/122 174/174/174
f 122/122/122 123/123/123 174/174/174
f 174/174/174 123/123/123 175/175/175
f 123/123/123 124/124/124 175/175/175
f 175/175/175 124/124/124 176/176/176
f 124/124/124 125/125/125 176/176/176
f 176/176/176 125/125/125 177/177/177
f 125/125/125 126/126/126 177/177/177
f 177/177/177 126/126/126 178/178/178
f 126/126/126 127/127/127 178/178/178
f 178/178/178 127/127/127 179/179/179
f 127/127/127 128/128/128 179/179/179
f 179/179/179 128/128/128 180/180/180
f 128/128/128 129/129/129 180/180/180
f 180/180/180 129/129/129 181/181/181
f 129/129/129 130/130/130 181/181/181
f 181/181/181 130/130/130 182/182/182
f 130/130/130 131/131/131 182/182/182
f 182/182/182 131/131/131 183/183/183
f 131/131/131 132/132/132 183/183/183
f 183/183/183 132/132/132 184/184/184
f 132/132/132 133/133/133 184/184/184
f 184/184/184 133/133/133 185/185/185
f 133/133/133 134/134/134 185/185/185
f 185/185/185 134/134/134 186/186/186
f 134/134/134 135/135/135 186/186/186
f 186/186/186 135/135/135 187/187/187
f 187/187/187 135/135/135 188/188/188
f 135/135/135 136/136/136 188/188/188
f 188/188/188 136/136/136 189/189/189
f 136/136/136 137/137/137 189/189/189
f 189/189/189 137/137/137 190/190/190
f 137/137/137 138/138/138 190/190/190
f 190/190/190 138/138/138 191/191/191
f 138/138/138 139/139/139 191/191/191
f 191/191/191 139/139/139 192/192/192
f 139/139/139 140/140/140 192/192/192
f 192/192/192 140/140/140 193/193/193
f 193/193/193 140/140/140 194/194/194
f 140/140/140 141/141/141 194/194/194
f 194/194/194 141/141/141 195/195/195
f 141/141/141 142/142/142 195/195/195
f 195/195/195 142/142/142 196/196/196
f 142/142/142 144/144/144 196/196/196
f 144/144/144 146/146/146 196/196/196
f 196/196/196 146/146/146 197/197/197
f 146/146/146 150/150/150 197/197/197
f 197/197/197 150/150/150 198/198/198
f 150/150/150 152/152/152 198/198/198
f 198/198/198 152/152/152 199/199/199
f 152/152/152 154/154/154 199/199/199
f 199/199/199 154/154/154 200/200/200
f 154/154/154 156/156/156 200/200/200
f 200/200/200 156/156/156 201/201/201
f 156/156/156 159/159/159 201/201/201
f 201/201/201 159/159/159 202/202/202
f 159/159/159 164/164/164 202/202/202
f 164/164/164 165/165/165 202/202/202
f 202/202/202 165/165/165 203/203/203
f 165/165/165 166/166/166 203/203/203
f 203/203/203 166/166/166 204/204/204
f 166/166/166 167/167/167 204/204/204
f 204/204/204 167/167/167 205/205/205
f 167/167/167 169/169/169 205/205/205
f 169/169/169 170/170/170 205/205/205
f 205/205/205 170/170/170 206/206/206
f 206/206/206 170/170/170 208/208/208
f 207/207/207 171/171/171 209/209/209
f 171/171/171 172/172/172 209/209/209
f 209/209/209 172/172/172 210/210/210
f 172/172/172 173/173/173 210/210/210
f 210/210/210 173/173/173 211/211/211
f 173/173/173 174/174/174 211/211/211
f 211/211/211 174/174/174 212/212/212
f 174/174/174 175/175/175 212/212/212
f 212/212/212 175/175/175 213/213/213
f 175/175/175 176/176/176 213/213/213
f 213/213/213 176/176/176 214/214/214
f 176/176/176 177/177/177 214/214/214
f 214/214/214 177/177/177 215/215/215
f 177/177/177 178/178/178 215/215/215
f 215/215/215 178/178/178 216/216/216
f 178/178/178 179/179/179 216/216/216
f 216/216/216 179/179/179 217/217/217
f 179/179/179 180/180/180 217/217/217
f 217/217/217 180/180/180 218/218/218
f 180/180/180 181/181/181 218/218/218
f 218/218/218 181/181/181 219/219/219
f 181/181/181 182/182/182 219/219/219
f 219/219/219 182/182/182 220/220/220
f 182/182/182 183/183/183 220/220/220
f 220/220/220 183/183/183 221/221/221
f 183/183/183 184/184/184 221/221/221
f 221/221/221 184/184/184 222/222/222
f 184/184/184 185/185/185 222/222/222
f 222/222/222 185/185/185 223/223/223
f 185/185/185 186/186/186 223/223/223
f 223/223/223 186/186/186 224/224/224
f 186/186/186 187/187/187 224/224/224
f 187/187/187 188/188/188 224/224/224
f 224/224/224 188/188/188 225/225/225
f 188/188/188 189/189/189 225/225/225
f 225/225/225 189/189/189 226/226/226
f 189/189/189 190/190/190 226/226/226
f 226/226/226 190/190/190 227/227/227
f 190/190/190 191/191/191 227/227/227
f 227/227/227 191/191/191 228/228/228
f 191/191/191 192/192/192 228/228/228
f 228/228/228 192/192/192 229/229/229
f 192/192/192 193/193/193 229/229/229
f 229/229/229 193/193/193 230/230/230
f 230/230/230 193/193/193 231/231/231
f 193/193/193 194/194/194 231/231/231
f 231/231/231 194/194/194 232/232/232
f 194/194/194 195/195/195 232/232/232
f 232/232/232 195/195/195 233/233/233
f 195/195/195 196/196/196 233/233/233
f 196/196/196 197/197/197 233/233/233
f 233/233/233 197/197/197 234/234/234
f 197/197/197 198/198/198 234/234/234
f 234/234/234 198/198/198 235/235/235
f 198/198/198 199/199/199 235/235/235
f 235/235/235 199/199/199 236/236/236
f 199/199/199 200/200/200 236/236/236
f 236/236/236 200/200/200 237/237/237
f 200/200/200 201/201/201 237/237/237
f 237/237/237 201/201/201 238/238/238
f 201/201/201 202/202/202 238/238/238
f 202/202/202 203/203/203 238/238/238
f 238/238/238 203/203/203 239/239/239
f 203/203/203 204/204/204 239/239/239
f 239/239/239 204/204/204 240/240/240
f 204/204/204 205/205/205 240/240/240
f 240/240/240 205/205/205 241/241/241
f 205/205/205 206/206/206 241/241/241
f 241/241/241 206/206/206 242/242/242
f 242/242/242 206/206/206 243/243/243
f 206/206/206 208/208/208 243/243/243
f 243/243/243 208/208/208 244/244/244
f 245/245/245 207/207/207 246/246/246
f 207/207/207 209/209/209 246/246/246
f 246/246/246 209/209/209 247/247/247
f 209/209/209 210/210/210 247/247/247
f 247/247/247 210/210/210 248/248/248
f 210/210/210 211/211/211 248/248/248
f 248/248/248 211/211/211 249/249/249
f 211/211/211 212/212/212 249/249/249
f 249/249/249 212/212/212 250/250/250
f 212/212/212 213/213/213 250/250/250
f 250/250/250 213/213/213 251/251/251
f 213/213/213 214/214/214 251/251/251
f 251/251/251 214/214/214 252/252/252
f 214/214/214 215/215/215 252/252/252
f 252/252/252 215/215/215 253/253/253
f 215/215/215 216/216/216 253/253/253
f 253/253/253 216/216/216 254/254/254
f 216/216/216 217/217/217 254/254/254
f 254/254/254 217/217/217 255/255/255
f 217/217/217 218/218/218 255/255/255
f 255/255/255 218/218/218 256/256/256
f 218/218/218 219/219/219 256/256/256
f 256/256/256 219/219/219 257/257/257
f 219/219/219 220/220/220 257/257/257
f 257/257/257 220/220/220 258/258/258
f 220/220/220 221/221/221 258/258/258
f 258/258/258 221/221/221 259/259/259
f 221/221/221 222/222/222 259/259/259
f 259/259/259 222/222/222 260/260/260
f 222/222/222 223/223/223 260/260/260
f 260/260/260 223/223/223 261/261/261
f 223/223/223 224/224/224 261/261/261
f 224/224/224 225/225/225 261/261/261
f 261/261/261 225/225/225 262/262/262
f 225/225/225 226/226/226 262/262/262
f 262/262/262 226/226/226 263/263/263
f 226/226/226 227/227/227 263/263/263
f 263/263/263 227/227/227 264/264/264
f 227/227/227 228/228/228 264/264/264
f 264/264/264 228/228/228 265/265/265
f 228/228/228 229/229/229 265/265/265
f 265/265/265 229/229/229 266/266/266
f 229/229/229 230/230/230 266/266/266
f 266/266/266 230/230/230 267/267/267
f 267/267/267 230/230/230 268/268/268
f 230/230/230 231/231/231 268/268/268
f 268/268/268 231/231/231 269/269/269
f 231/231/231 232/232/232 269/269/269
f 269/269/269 232/232/232 270/270/270
f 232/232/232 233/233/233 270/270/270
f 233/233/233 234/234/234 270/270/270
f 270/270/270 234/234/234 271/271/271
f 234/234/234 235/235/235 271/271/271
f 271/271/271 235/235/235 272/272/272
f 235/235/235 236/236/236 272/272/272
f 272/272/272 236/236/236 273/273/273
f 236/236/236 237/237/237 273/273/273
f 273/273/273 237/237/237 274/274/274
f 237/237/237 238/238/238 274/274/274
f 238/238/238 239/239/239 274/274/274
f 274/274/274 239/239/239 275/275/275
f 239/239/239 240/240/240 275/275/275
f 275/275/275 240/240/240 276/276/276
f 240/240/240 241/241/241 276/276/276
f 276/276/276 241/241/241 277/277/277
f 241/241/241 242/242/242 277/277/277
f 277/277/277 242/242/242 278/278/278
f 278/278/278 242/242/242 279/279/279
f 242/242/242 243/243/243 279/279/279
f 279/279/279 243/243/243 280/280/280
f 243/243/243 244/244/244 280/280/280
f 280/280/280 244/244/244 281/281/281
f 282/282/282 245/245/245 283/283/283
f 245/245/245 246/246/246 283/283/283
f 283/283/283 246/246/246 284/284/284
f 246/246/246 247/247/247 284/284/284
f 284/284/284 247/247/247 285/285/285
f 247/247/247 248/248/248 285/285/285
f 285/285/285 248/248/248 286/286/286
f 248/248/248 249/249/249 286/286/286
f 286/286/286 249/249/249 287/287/287
f 249/249/249 250/250/250 287/287/287
f 287/287/287 250/250/250 288/288/288
f 250/250/250 251/251/251 288/288/288
f 288/288/288 251/251/251 289/289/289
f 251/251/251 252/252/252 289/289/289
f 289/289/289 252/252/252 290/290/290
f 252/252/252 253/253/253 290/290/290
f 290/290/290 253/253/253 291/291/291
f 253/253/253 254/254/254 291/291/291
f 291/291/291 254/254/254 292/292/292
f 254/254/254 255/255/255 292/292/292
f 292/292/292 255/255/255 293/293/293
f 255/255/255 256/256/256 293/293/293
f 293/293/293 256/256/256 294/294/294
f 256/256/256 257/257/257 294/294/294
f 294/294/294 257/257/257 295/295/295
f 257/257/257 258/258/258 295/295/295
f 295/295/295 258/258/258 296/296/296
f 258/258/258 259/259/259 296/296/296
f 296/296/296 259/259/259 297/297/297
f 259/259/259 260/260/260 297/297/297
f 297/297/297 260/260/260 298/298/298
f 260/260/260 261/261/261 298/298/298
f 261/261/261 262/262/262 298/298/298
f 298/298/298 262/262/262 299/299/299
f 262/262/262 263/263/263 299/299/299
f 299/299/299 263/263/263 300/300/300
f 263/263/263 264/264/264 300/300/300
f 300/300/300 264/264/264 301/301/301
f 264/264/264 265/265/265 301/301/301
f 301/301/301 265/265/265 302/302/302
f 265/265/265 266/266/266 302/302/302
f 302/302/302 266/266/266 303/303/303
f 266/266/266 267/267/267 303/303/303
f 303/303/303 267/267/267 304/304/304
f 304/304/304 267/267/267 305/305/305
f 267/267/267 268/268/268 305/305/305
f 305/305/305 268/268/268 306/306/306
f 268/268/268 269/269/269 306/306/306
f 306/306/306 269/269/269 307/307/307
f 269/269/269 270/270/270 307/307/307
f 270/270/270 271/271/271 307/307/307
f 307/307/307 271/271/271 308/308/308
f 271/271/271 272/272/272 308/308/308
f 308/308/308 272/272/272 309/309/309
f 272/272/272 273/273/273 309/309/309
f 309/309/309 273/273/273 310/310/310
f 273/273/273 274/274/274 310/310/310
f 274/274/274 275/275/275 310/310/310
f 310/310/310 275/275/275 311/311/311
f 275/275/275 276/276/276 311/311/311
f 311/311/311 276/276/276 312/312/312
f 276/276/276 277/277/277 312/312/312
f 312/312/312 277/277/277 313/313/313
f 277/277/277 278/278/278 313/313/313
f 314/314/314 313/313/313 316/316/316
f 313/313/313 278/278/278 316/316/316
f 316/316/316 278/278/278 318/318/318
f 278/278/278 279/279/279 318/318/318
f 318/318/318 279/279/279 320/320/320
f 279/279/279 280/280/280 320/320/320
f 320/320/320 280/280/280 322/322/322
f 280/280/280 281/281/281 322/322/322
f 323/323/323 282/282/282 325/325/325
f 282/282/282 283/283/283 325/325/325
f 325/325/325 283/283/283 327/327/327
f 283/283/283 284/284/284 327/327/327
f 327/327/327 284/284/284 330/330/330
f 284/284/284 285/285/285 330/330/330
f 330/330/330 285/285/285 331/331/331
f 285/285/285 286/286/286 331/331/331
f 331/331/331 286/286/286 335/335/335
f 286/286/286 287/287/287 335/335/335
f 335/335/335 287/287/287 338/338/338
f 287/287/287 288/288/288 338/338/338
f 338/338/338 288/288/288 340/340/340
f 288/288/288 289/289/289 340/340/340
f 340/340/340 289/289/289 342/342/342
f 289/289/289 290/290/290 342/342/342
f 342/342/342 290/290/290 344/344/344
f 290/290/290 291/291/291 344/344/344
f 344/344/344 291/291/291 347/347/347
f 291/291/291 292/292/292 347/347/347
f 347/347/347 292/292/292 350/350/350
f 292/292/292 293/293/293 350/350/350
f 350/350/350 293/293/293 352/352/352
f 293/293/293 294/294/294 352/352/352
f 352/352/352 294/294/294 354/354/354
f 294/294/294 295/295/295 354/354/354
f 354/354/354 295/295/295 355/355/355
f 295/295/295 296/296/296 355/355/355
f 355/355/355 296/296/296 357/357/357
f 296/296/296 297/297/297 357/357/357
f 357/357/357 297/297/297 359/359/359
f 297/297/297 298/298/298 359/359/359
f 359/359/359 298/298/298 362/362/362
f 298/298/298 299/299/299 362/362/362
f 362/362/362 299/299/299 364/364/364
f 299/299/299 300/300/300 364/364/364
f 364/364/364 300/300/300 366/366/366
f 300/300/300 301/301/301 366/366/366
f 366/366/366 301/301/301 368/368/368
f 301/301/301 302/302/302 368/368/368
f 368/368/368 302/302/302 371/371/371
f 302/302/302 303/303/303 371/371/371
f 371/371/371 303/303/303 374/374/374
f 303/303/303 304/304/304 374/374/374
f 374/374/374 304/304/304 376/376/376
f 376/376/376 304/304/304 377/377/377
f 304/304/304 305/305/305 377/377/377
f 377/377/377 305/305/305 378/378/378
f 305/305/305 306/306/306 378/378/378
f 378/378/378 306/306/306 379/379/379
f 306/306/306 307/307/307 379/379/379
f 307/307/307 308/308/308 379/379/379
f 379/379/379 308/308/308 380/380/380
f 308/308/308 309/309/309 380/380/380
f 380/380/380 309/309/309 381/381/381
f 309/309/309 310/310/310 381/381/381
f 310/310/310 311/311/311 381/381/381
f 381/381/381 311/311/311 382/382/382
f 311/311/311 312/312/312 382/382/382
f 382/382/382 312/312/312 383/383/383
f 312/312/312 313/313/313 383/383/383
f 313/313/313 314/314/314 383/383/383
f 383/383/383 314/314/314 385/385/385
f 384/384/384 315/315/315 386/386/386
f 315/315/315 317/317/317 386/386/386
f 317/317/317 319/319/319 386/386/386
f 319/319/319 321/321/321 386/386/386
f 321/321/321 324/324/324 386/386/386
f 324/324/324 326/326/326 386/386/386
f 326/326/326 328/328/328 386/386/386
f 328/328/328 329/329/329 386/386/386
f 329/329/329 333/333/333 386/386/386
f 332/332/332 336/336/336 389/389/389
f 334/334/334 337/337/337 386/386/386
f 337/337/337 339/339/339 386/386/386
f 339/339/339 341/341/341 386/386/386
f 341/341/341 343/343/343 386/386/386
f 343/343/343 346/346/346 386/386/386
f 345/345/345 349/349/349 387/387/387
f 348/348/348 351/351/351 386/386/386
f 351/351/351 353/353/353 386/386/386
f 353/353/353 356/356/356 386/386/386
f 356/356/356 358/358/358 386/386/386
f 358/358/358 360/360/360 386/386/386
f 360/360/360 361/361/361 386/386/386
f 361/361/361 363/363/363 386/386/386
f 363/363/363 365/365/365 386/386/386
f 365/365/365 367/367/367 386/386/386
f 367/367/367 369/369/369 386/386/386
f 370/370/370 372/372/372 388/388/388
f 373/373/373 375/375/375 386/386/386
f 386/386/386 375/375/375 390/390/390
f 376/376/376 377/377/377 391/391/391
f 391/391/391 377/377/377 392/392/392
f 377/377/377 378/378/378 392/392/392
f 392/392/392 378/378/378 393/393/393
f 378/378/378 379/379/379 393/393/393
f 379/379/379 380/380/380 393/393/393
f 393/393/393 380/380/380 394/394/394
f 380/380/380 381/381/381 394/394/394
f 381/381/381 382/382/382 394/394/394
f 394/394/394 382/382/382 395/395/395
f 382/382/382 383/383/383 395/395/395
f 383/383/383 385/385/385 395/395/395
f 395/395/395 385/385/385 397/397/397
f 384/384/384 386/386/386 396/396/396
f 396/396/396 386/386/386 398/398/398
f 386/386/386 390/390/390 398/398/398
f 391/391/391 392/392/392 399/399/399
f 399/399/399 392/392/392 400/400/400
f 392/392/392 393/393/393 400/400/400
f 393/393/393 394/394/394 400/400/400
f 394/394/394 395/395/395 400/400/400
f 395/395/395 397/397/397 400/400/400
f 399/399/399 400/400/400 397/397/397

