mtllib wrist2.mtl
usemtl Metal_DarkGray_002_COLOR_0
v 0.02893434 0.04148256 0.02960692
v 0.02212726 0.04155574 0.02456472
v 0.02242027 0.04587183 0.02523754
v 0.01505356 0.04520575 0.02195380
v 0.01535337 0.04911564 0.02194051
v 0.00769363 0.04741708 0.01997558
v 0.00784014 0.05112044 0.01990233
v 0.00000059 0.04812310 0.01921635
v 0.00000059 0.04812310 0.01921635
v 0.00000059 0.05181984 0.01920299
v 0.00000059 0.05181984 0.01920299
v -0.00784559 0.05112044 0.01990234
v -0.00769235 0.04741708 0.01997559
v -0.01535208 0.04911564 0.02194052
v -0.01505238 0.04520575 0.02195381
v -0.02241910 0.04587183 0.02523756
v -0.02893317 0.04148256 0.02960694
v -0.02212596 0.04155574 0.02456474
v -0.02320505 0.03893147 0.02158749
v -0.01545203 0.04259477 0.01988906
v -0.00771899 0.04470620 0.01908307
v 0.00000059 0.04541222 0.01877664
v 0.00000059 0.04541222 0.01877664
v 0.00771354 0.04470620 0.01908307
v 0.01545320 0.04259477 0.01988905
v 0.02320628 0.03893147 0.02158747
v 0.03089933 0.03314332 0.02425174
v 0.03079931 0.03495501 0.02879433
v 0.03474914 0.03609406 0.03498200
v 0.03894530 0.05305867 0.04166934
v 0.03894530 0.05305867 0.04166934
v 0.03894530 0.05305867 0.04166934
v 0.03444938 0.05305867 0.03524850
v 0.03444938 0.05305867 0.03524850
v 0.03444938 0.05305867 0.03524850
v 0.02890776 0.05305867 0.02970675
v 0.02890776 0.05305867 0.02970675
v 0.02890776 0.05305867 0.02970675
v 0.02248691 0.05305867 0.02521090
v 0.02248691 0.05305867 0.02521090
v 0.02248691 0.05305867 0.02521090
v 0.01538001 0.05305866 0.02189390
v 0.01538001 0.05305866 0.02189390
v 0.00780676 0.05305866 0.01986907
v 0.00780676 0.05305866 0.01986907
v 0.00000059 0.05305866 0.01918302
v 0.00000059 0.05305866 0.01918302
v 0.00000059 0.05305866 0.01918302
v -0.00780566 0.05305866 0.01986908
v -0.00780566 0.05305866 0.01986908
v -0.01537878 0.05305866 0.02189391
v -0.01537878 0.05305866 0.02189391
v -0.01537878 0.05305866 0.02189391
v -0.02248574 0.05305867 0.02521091
v -0.02248574 0.05305867 0.02521091
v -0.02248574 0.05305867 0.02521091
v -0.02890659 0.05305867 0.02970676
v -0.02890659 0.05305867 0.02970676
v -0.02890659 0.05305867 0.02970676
v -0.03444815 0.05305867 0.03524852
v -0.03444815 0.05305867 0.03524852
v -0.03444815 0.05305867 0.03524852
v -0.03894419 0.05305867 0.04166937
v -0.03894419 0.05305867 0.04166937
v -0.03894419 0.05305867 0.04166937
v -0.03474790 0.03609406 0.03498203
v -0.03080488 0.03495501 0.02879436
v -0.03089810 0.03314332 0.02425177
v -0.03742547 0.02495746 0.01995558
v -0.03175737 0.03185789 0.01787753
v -0.02475036 0.03753279 0.01617241
v -0.01694407 0.04163567 0.01491356
v -0.00859828 0.04412005 0.01414757
v 0.00000059 0.04495934 0.01389449
v 0.00000059 0.04495934 0.01389449
v 0.00859944 0.04412005 0.01414757
v 0.01693854 0.04163567 0.01491354
v 0.02475153 0.03753279 0.01617239
v 0.03175186 0.03185789 0.01787751
v 0.03742670 0.02495746 0.01995556
v 0.04157624 0.01719109 0.02232014
v 0.03738676 0.02565013 0.02821480
v 0.03749327 0.02745514 0.03444915
v 0.03955142 0.02984637 0.04135624
v 0.04225564 0.05305868 0.04876950
v 0.04225564 0.05305868 0.04876950
v 0.04225564 0.05305868 0.04876950
v 0.00000061 0.05305869 0.06415560
v 0.00000061 0.05305869 0.06415560
v 0.00000061 0.05305869 0.06415560
v 0.00000061 0.05305869 0.06415560
v 0.00000061 0.05305869 0.06415560
v 0.00000061 0.05305869 0.06415560
v 0.00000061 0.05305869 0.06415560
v 0.00000061 0.05305869 0.06415560
v 0.00000061 0.05305869 0.06415560
v 0.00000061 0.05305869 0.06415560
v 0.00000061 0.05305869 0.06415560
v 0.00000061 0.05305869 0.06415560
v -0.04225444 0.05305868 0.04876953
v -0.04225444 0.05305868 0.04876953
v -0.04225444 0.05305868 0.04876953
v -0.03955031 0.02984637 0.04135627
v -0.03749210 0.02745514 0.03444917
v -0.03738559 0.02565013 0.02821482
v -0.04158171 0.01719109 0.02232017
v -0.04411943 0.00881865 0.00000032
v -0.04411943 0.00881865 0.00000032
v -0.04154183 0.01725772 0.00000032
v -0.04154183 0.01725772 0.00000032
v -0.04154183 0.01725772 0.00000032
v -0.03737225 0.02503064 0.00000031
v -0.03737225 0.02503064 0.00000031
v -0.03737225 0.02503064 0.00000031
v -0.03176399 0.03183791 0.00000031
v -0.03176399 0.03183791 0.00000031
v -0.03176399 0.03183791 0.00000031
v -0.02493681 0.03742614 0.00000030
v -0.02493681 0.03742614 0.00000030
v -0.02493681 0.03742614 0.00000030
v -0.01712383 0.04151580 0.00000030
v -0.01712383 0.04151580 0.00000030
v -0.01712383 0.04151580 0.00000030
v -0.00867154 0.04398021 0.00000029
v -0.00867154 0.04398021 0.00000029
v -0.00867154 0.04398021 0.00000029
v 0.00000059 0.04484615 0.00000029
v 0.00000059 0.04484615 0.00000029
v 0.00000059 0.04484615 0.00000029
v 0.00000059 0.04484615 0.00000029
v 0.00867269 0.04398021 0.00000028
v 0.00867269 0.04398021 0.00000028
v 0.00867269 0.04398021 0.00000028
v 0.01712505 0.04151580 0.00000028
v 0.01712505 0.04151580 0.00000028
v 0.01712505 0.04151580 0.00000028
v 0.02493135 0.03742614 0.00000028
v 0.02493135 0.03742614 0.00000028
v 0.02493135 0.03742614 0.00000028
v 0.03176520 0.03183791 0.00000028
v 0.03176520 0.03183791 0.00000028
v 0.03176520 0.03183791 0.00000028
v 0.03737346 0.02503064 0.00000029
v 0.03737346 0.02503064 0.00000029
v 0.04154292 0.01725772 0.00000029
v 0.04154292 0.01725772 0.00000029
v 0.04412064 0.00881865 0.00000029
v 0.04412064 0.00881865 0.00000029
v 0.04499981 0.00003990 0.00000030
v 0.04499981 0.00003990 0.00000030
v 0.04499981 0.00003990 0.00000030
v 0.04495995 0.00003991 0.02870768
v 0.04412065 0.00881866 0.02488445
v 0.04220901 0.01636516 0.03358327
v 0.04246877 0.01807040 0.04189580
v 0.04296171 0.02290594 0.04859637
v 0.04428720 0.05305868 0.05634268
v 0.04428720 0.05305868 0.05634268
v 0.04496651 0.05305869 0.06415559
v 0.04496651 0.05305869 0.06415559
v 0.04428720 0.05305869 0.07196184
v 0.04428720 0.05305869 0.07196184
v 0.04225564 0.05305870 0.07953497
v 0.04225564 0.05305870 0.07953497
v 0.04225564 0.05305870 0.07953497
v 0.03894532 0.05305870 0.08663525
v 0.03894532 0.05305870 0.08663525
v 0.03894532 0.05305870 0.08663525
v 0.03444940 0.05305870 0.09305611
v 0.03444940 0.05305870 0.09305611
v 0.03444940 0.05305870 0.09305611
v 0.02890778 0.05305871 0.09859773
v 0.02890778 0.05305871 0.09859773
v 0.02890778 0.05305871 0.09859773
v 0.02248693 0.05305871 0.10309365
v 0.02248693 0.05305871 0.10309365
v 0.02248693 0.05305871 0.10309365
v 0.01538003 0.05305871 0.10641065
v 0.01538003 0.05305871 0.10641065
v 0.00780679 0.05305871 0.10843554
v 0.00780679 0.05305871 0.10843554
v 0.00000062 0.05305871 0.10912159
v 0.00000062 0.05305871 0.10912159
v -0.00780563 0.05305871 0.10843555
v -0.00780563 0.05305871 0.10843555
v -0.01537876 0.05305871 0.10641065
v -0.01537876 0.05305871 0.10641065
v -0.01537876 0.05305871 0.10641065
v -0.02248572 0.05305871 0.10309366
v -0.02248572 0.05305871 0.10309366
v -0.02248572 0.05305871 0.10309366
v -0.02890657 0.05305871 0.09859775
v -0.02890657 0.05305871 0.09859775
v -0.02890657 0.05305871 0.09859775
v -0.03444813 0.05305870 0.09305613
v -0.03444813 0.05305870 0.09305613
v -0.03444813 0.05305870 0.09305613
v -0.03894417 0.05305870 0.08663528
v -0.03894417 0.05305870 0.08663528
v -0.03894417 0.05305870 0.08663528
v -0.04225444 0.05305870 0.07953500
v -0.04225444 0.05305870 0.07953500
v -0.04428601 0.05305869 0.07196187
v -0.04428601 0.05305869 0.07196187
v -0.04496532 0.05305869 0.06415562
v -0.04496532 0.05305869 0.06415562
v -0.04428601 0.05305868 0.05634271
v -0.04428601 0.05305868 0.05634271
v -0.04296052 0.02290594 0.04859640
v -0.04246766 0.01807040 0.04189583
v -0.04220784 0.01636516 0.03358330
v -0.04411942 0.00881866 0.02488448
v -0.04495872 0.00003991 0.02870771
v -0.04499872 0.00003990 0.00000033
v -0.04499872 0.00003990 0.00000033
v -0.04499872 0.00003990 0.00000033
v -0.04411942 -0.00870552 0.02795508
v -0.04415275 -0.00873885 0.00000034
v -0.04415275 -0.00873885 0.00000034
v -0.04415275 -0.00873885 0.00000034
v 0.00000059 -0.00000003 0.00000031
v 0.00000059 -0.00000003 0.00000031
v 0.00000059 -0.00000003 0.00000031
v 0.00000059 -0.00000003 0.00000031
v 0.00000059 -0.00000003 0.00000031
v 0.00000059 -0.00000003 0.00000031
v 0.00000059 -0.00000003 0.00000031
v 0.00000059 -0.00000003 0.00000031
v 0.00000059 -0.00000003 0.00000031
v 0.00000059 -0.00000003 0.00000031
v 0.00000059 -0.00000003 0.00000031
v 0.00000059 -0.00000003 0.00000031
v 0.00000059 -0.00000003 0.00000031
v 0.00000059 -0.00000003 0.00000031
v 0.00000059 -0.00000003 0.00000031
v 0.00000059 -0.00000003 0.00000031
v 0.00000059 -0.00000003 0.00000031
v 0.00000059 -0.00000003 0.00000031
v 0.00000059 -0.00000003 0.00000031
v 0.00000059 -0.00000003 0.00000031
v 0.00000059 -0.00000003 0.00000031
v 0.00000059 -0.00000003 0.00000031
v 0.00000059 -0.00000003 0.00000031
v 0.00000059 -0.00000003 0.00000031
v 0.00000059 -0.00000003 0.00000031
v 0.00000059 -0.00000003 0.00000031
v 0.04415390 -0.00873885 0.00000031
v 0.04415390 -0.00873885 0.00000031
v 0.04415390 -0.00873885 0.00000031
v 0.04412065 -0.00870552 0.02795506
v 0.04410730 -0.00873883 0.03957784
v 0.04495321 0.00003992 0.04118973
v 0.04436712 0.00837909 0.03829902
v 0.04463350 0.00933826 0.04888951
v 0.04472017 0.01549929 0.05636273
v 0.04491990 0.01549930 0.06434210
v 0.04419398 0.01549930 0.07218830
v 0.04224234 0.01549930 0.07987461
v 0.03895206 0.01549931 0.08703493
v 0.03439618 0.01549931 0.09346245
v 0.02870131 0.01549932 0.09893075
v 0.02221376 0.01549932 0.10328018
v 0.01509363 0.01549932 0.10647731
v 0.00757368 0.01549932 0.10843556
v 0.00000062 0.01549932 0.10906827
v -0.00757246 0.01549932 0.10843557
v -0.01509236 0.01549932 0.10647732
v -0.02221261 0.01549932 0.10328019
v -0.02870665 0.01549932 0.09893078
v -0.03439485 0.01549931 0.09346248
v -0.03895079 0.01549931 0.08703495
v -0.04224783 0.01549930 0.07987464
v -0.04419273 0.01549930 0.07218833
v -0.04491871 0.01549930 0.06434213
v -0.04472553 0.01549929 0.05636276
v -0.04463900 0.00933826 0.04888954
v -0.04436595 0.00837909 0.03829905
v -0.04495210 0.00003992 0.04118976
v -0.04410613 -0.00873883 0.03957787
v -0.04173500 -0.01721783 0.03504209
v -0.04156840 -0.01715120 0.02567711
v -0.04160841 -0.01718453 0.00000034
v -0.04160841 -0.01718453 0.00000034
v -0.04160841 -0.01718453 0.00000034
v -0.03745879 -0.02497080 0.00000701
v -0.03745879 -0.02497080 0.00000701
v -0.03745879 -0.02497080 0.00000701
v -0.03187718 -0.03179798 0.00000701
v -0.03187718 -0.03179798 0.00000701
v -0.03187718 -0.03179798 0.00000701
v -0.02506341 -0.03739956 0.00000701
v -0.02506341 -0.03739956 0.00000701
v -0.02506341 -0.03739956 0.00000701
v -0.01729704 -0.04158246 0.00000701
v -0.01729704 -0.04158246 0.00000701
v -0.01729704 -0.04158246 0.00000701
v -0.00885805 -0.04416016 0.00000701
v -0.00885805 -0.04416016 0.00000701
v -0.00885805 -0.04416016 0.00000701
v 0.00000059 -0.04503266 0.00000701
v 0.00000059 -0.04503266 0.00000701
v 0.00000059 -0.04503266 0.00000701
v 0.00000059 -0.04503266 0.00000701
v 0.00885920 -0.04416016 0.00000700
v 0.00885920 -0.04416016 0.00000700
v 0.00885920 -0.04416016 0.00000700
v 0.01729826 -0.04158246 0.00000700
v 0.01729826 -0.04158246 0.00000700
v 0.01729826 -0.04158246 0.00000700
v 0.02506450 -0.03739956 0.00000700
v 0.02506450 -0.03739956 0.00000700
v 0.02506450 -0.03739956 0.00000700
v 0.03187839 -0.03179798 0.00000699
v 0.03187839 -0.03179798 0.00000699
v 0.03187839 -0.03179798 0.00000699
v 0.03745994 -0.02497080 0.00000698
v 0.03745994 -0.02497080 0.00000698
v 0.03745994 -0.02497080 0.00000698
v 0.04160288 -0.01718453 0.00000031
v 0.04160288 -0.01718453 0.00000031
v 0.04160288 -0.01718453 0.00000031
v 0.04156964 -0.01715120 0.02567709
v 0.04172944 -0.01721783 0.03504206
v 0.04140316 -0.02058811 0.04055704
v 0.04437381 -0.00921834 0.04825670
v 0.04509979 0.00005990 0.05640929
v 0.04511308 0.00003994 0.06434211
v 0.04444706 0.00004663 0.07224160
v 0.04252874 0.00005330 0.07998126
v 0.03922511 0.00005993 0.08718805
v 0.03458930 0.00005331 0.09361564
v 0.02880782 0.00004664 0.09905732
v 0.02224041 0.00003996 0.10332686
v 0.01508689 0.00004664 0.10645729
v 0.00756039 0.00004664 0.10835564
v 0.00000062 0.00004664 0.10897505
v -0.00755917 0.00004664 0.10835565
v -0.01508568 0.00004664 0.10645730
v -0.02223919 0.00003996 0.10332687
v -0.02880661 0.00004664 0.09905733
v -0.03458802 0.00005331 0.09361567
v -0.03922383 0.00005993 0.08718808
v -0.04252755 0.00005330 0.07998129
v -0.04444586 0.00004663 0.07224163
v -0.04511189 0.00003994 0.06434214
v -0.04509860 0.00005990 0.05640932
v -0.04437923 -0.00921834 0.04825673
v -0.04140193 -0.02058811 0.04055707
v -0.03669280 -0.02912701 0.03476224
v -0.03698594 -0.02639618 0.03032635
v -0.03744556 -0.02496412 0.02319274
v -0.03186382 -0.03178468 0.02102802
v -0.02505668 -0.03739285 0.01930288
v -0.01729042 -0.04156914 0.01803074
v -0.00885136 -0.04413345 0.01725141
v 0.00000059 -0.04500605 0.01698504
v 0.00000059 -0.04500605 0.01698504
v 0.00885259 -0.04413345 0.01725141
v 0.01729159 -0.04156914 0.01803073
v 0.02505790 -0.03739285 0.01930287
v 0.03186505 -0.03178468 0.02102800
v 0.03744666 -0.02496412 0.02319272
v 0.03698705 -0.02639618 0.03032633
v 0.03669403 -0.02912701 0.03476222
v 0.03530858 -0.03462214 0.03789278
v 0.03985117 -0.02920033 0.04372754
v 0.04314160 -0.02225989 0.05078782
v 0.04474675 -0.01623868 0.05830759
v 0.04506647 -0.01477330 0.06592059
v 0.04437381 -0.01331466 0.07350045
v 0.04236227 -0.01189595 0.08087385
v 0.03901864 -0.01056377 0.08775425
v 0.03442282 -0.00937818 0.09391528
v 0.02874792 -0.00835243 0.09917057
v 0.02224714 -0.00751987 0.10335350
v 0.01512689 -0.00690708 0.10641742
v 0.00760038 -0.00652745 0.10828900
v 0.00000062 -0.00640753 0.10890841
v -0.00759910 -0.00652745 0.10828901
v -0.01513229 -0.00690708 0.10641743
v -0.02225249 -0.00751987 0.10335352
v -0.02874671 -0.00835243 0.09917058
v -0.03442155 -0.00937818 0.09391530
v -0.03901736 -0.01056377 0.08775427
v -0.04236769 -0.01189595 0.08087388
v -0.04437255 -0.01331466 0.07350048
v -0.04506528 -0.01477330 0.06592062
v -0.04474556 -0.01623868 0.05830762
v -0.04314036 -0.02225989 0.05078785
v -0.03984994 -0.02920033 0.04372756
v -0.03530741 -0.03462214 0.03789280
v -0.02905310 -0.03930454 0.03285741
v -0.02954597 -0.03648704 0.02982681
v -0.03043855 -0.03394265 0.02648971
v -0.02365131 -0.03895815 0.02415858
v -0.01607818 -0.04249495 0.02253340
v -0.00806542 -0.04456645 0.02153425
v 0.00000059 -0.04522584 0.02122114
v 0.00000059 -0.04522584 0.02122114
v 0.00806658 -0.04456645 0.02153424
v 0.01607274 -0.04249495 0.02253339
v 0.02365254 -0.03895815 0.02415857
v 0.03043972 -0.03394265 0.02648969
v 0.02954720 -0.03648704 0.02982679
v 0.02905433 -0.03930454 0.03285739
v 0.02898769 -0.04168904 0.03494206
v 0.02898769 -0.04168904 0.03494206
v 0.03458928 -0.03949764 0.04028401
v 0.03458928 -0.03949764 0.04028401
v 0.03903197 -0.03703993 0.04635848
v 0.03903197 -0.03703993 0.04635848
v 0.04228895 -0.03434233 0.05307235
v 0.04228895 -0.03434233 0.05307235
v 0.04425382 -0.03149157 0.06015260
v 0.04425382 -0.03149157 0.06015260
v 0.04489332 -0.02857416 0.06739927
v 0.04489332 -0.02857416 0.06739927
v 0.04419398 -0.02566349 0.07463945
v 0.04419398 -0.02566349 0.07463945
v 0.04217572 -0.02287268 0.08158648
v 0.04217572 -0.02287268 0.08158648
v 0.03886539 -0.02022175 0.08818723
v 0.03886539 -0.02022175 0.08818723
v 0.03436286 -0.01783053 0.09414184
v 0.03436286 -0.01783053 0.09414184
v 0.02880782 -0.01576576 0.09928375
v 0.02880782 -0.01576576 0.09928375
v 0.02238036 -0.01408723 0.10344666
v 0.02238036 -0.01408723 0.10344666
v 0.01526011 -0.01285502 0.10651065
v 0.01526011 -0.01285502 0.10651065
v 0.00768025 -0.01210907 0.10838222
v 0.00768025 -0.01210907 0.10838222
v 0.00000062 -0.01186261 0.10898835
v 0.00000062 -0.01186261 0.10898835
v -0.00768565 -0.01210907 0.10838224
v -0.00768565 -0.01210907 0.10838224
v -0.01525883 -0.01285502 0.10651065
v -0.01525883 -0.01285502 0.10651065
v -0.02237909 -0.01408723 0.10344668
v -0.02237909 -0.01408723 0.10344668
v -0.02881329 -0.01576576 0.09928377
v -0.02881329 -0.01576576 0.09928377
v -0.03436165 -0.01783053 0.09414187
v -0.03436165 -0.01783053 0.09414187
v -0.03886424 -0.02022175 0.08818725
v -0.03886424 -0.02022175 0.08818725
v -0.04218124 -0.02287268 0.08158651
v -0.04218124 -0.02287268 0.08158651
v -0.04419273 -0.02566349 0.07463948
v -0.04419273 -0.02566349 0.07463948
v -0.04489874 -0.02857416 0.06739930
v -0.04489874 -0.02857416 0.06739930
v -0.04425930 -0.03149157 0.06015263
v -0.04425930 -0.03149157 0.06015263
v -0.04228776 -0.03434233 0.05307238
v -0.04228776 -0.03434233 0.05307238
v -0.03903074 -0.03703993 0.04635851
v -0.03903074 -0.03703993 0.04635851
v -0.03458804 -0.03949764 0.04028403
v -0.03458804 -0.03949764 0.04028403
v -0.02899308 -0.04168904 0.03494208
v -0.02899308 -0.04168904 0.03494208
v -0.02259893 -0.04346075 0.03067272
v -0.02259893 -0.04346075 0.03067272
v -0.02259893 -0.04224855 0.02931385
v -0.02285207 -0.04065665 0.02700935
v -0.01547874 -0.04352075 0.02505110
v -0.00776560 -0.04516584 0.02383886
v 0.00000059 -0.04569875 0.02346579
v 0.00000059 -0.04569875 0.02346579
v 0.00776015 -0.04516584 0.02383886
v 0.01547317 -0.04352075 0.02505109
v 0.02285324 -0.04065665 0.02700934
v 0.02260016 -0.04224855 0.02931383
v 0.02260016 -0.04346075 0.03067270
v 0.02260016 -0.04346075 0.03067270
v 0.02850150 -0.04292784 0.03634080
v 0.02850150 -0.04292784 0.03634080
v 0.03393655 -0.04088974 0.04140290
v 0.03393655 -0.04088974 0.04140290
v 0.03833258 -0.03852523 0.04727091
v 0.03833258 -0.03852523 0.04727091
v 0.04156965 -0.03590763 0.05375179
v 0.04156965 -0.03590763 0.05375179
v 0.04354125 -0.03312343 0.06065888
v 0.04354125 -0.03312343 0.06065888
v 0.04418724 -0.03025930 0.06777901
v 0.04418724 -0.03025930 0.06777901
v 0.04349458 -0.02738856 0.07489259
v 0.04349458 -0.02738856 0.07489259
v 0.04147637 -0.02461111 0.08178627
v 0.04147637 -0.02461111 0.08178627
v 0.03819937 -0.02200679 0.08825374
v 0.03819937 -0.02200679 0.08825374
v 0.03376335 -0.01964889 0.09409517
v 0.03376335 -0.01964889 0.09409517
v 0.02830166 -0.01761738 0.09913063
v 0.02830166 -0.01761738 0.09913063
v 0.02198071 -0.01597890 0.10320693
v 0.02198071 -0.01597890 0.10320693
v 0.01499361 -0.01476666 0.10621090
v 0.01499361 -0.01476666 0.10621090
v 0.00754709 -0.01402733 0.10803587
v 0.00754709 -0.01402733 0.10803587
v 0.00000062 -0.01379421 0.10862877
v 0.00000062 -0.01379421 0.10862877
v -0.00754587 -0.01402733 0.10803588
v -0.00754587 -0.01402733 0.10803588
v -0.01499240 -0.01476666 0.10621091
v -0.01499240 -0.01476666 0.10621091
v -0.02197950 -0.01597890 0.10320695
v -0.02197950 -0.01597890 0.10320695
v -0.02830045 -0.01761738 0.09913065
v -0.02830045 -0.01761738 0.09913065
v -0.03376208 -0.01964889 0.09409520
v -0.03376208 -0.01964889 0.09409520
v -0.03819816 -0.02200679 0.08825377
v -0.03819816 -0.02200679 0.08825377
v -0.04147516 -0.02461111 0.08178630
v -0.04147516 -0.02461111 0.08178630
v -0.04349339 -0.02738856 0.07489262
v -0.04349339 -0.02738856 0.07489262
v -0.04418611 -0.03025930 0.06777904
v -0.04418611 -0.03025930 0.06777904
v -0.04354000 -0.03312343 0.06065891
v -0.04354000 -0.03312343 0.06065891
v -0.04156839 -0.03590763 0.05375182
v -0.04156839 -0.03590763 0.05375182
v -0.03833132 -0.03852523 0.04727094
v -0.03833132 -0.03852523 0.04727094
v -0.03393531 -0.04088974 0.04140292
v -0.03393531 -0.04088974 0.04140292
v -0.02850020 -0.04292784 0.03634082
v -0.02850020 -0.04292784 0.03634082
v -0.02220589 -0.04458634 0.03222458
v -0.02220589 -0.04458634 0.03222458
v -0.01523227 -0.04581194 0.02918730
v -0.01523227 -0.04581194 0.02918730
v -0.01547874 -0.04482614 0.02748887
v -0.01547874 -0.04482614 0.02748887
v -0.01543201 -0.04433995 0.02674947
v -0.00782563 -0.04557215 0.02515768
v 0.00000059 -0.04599185 0.02463815
v 0.00000059 -0.04599185 0.02463815
v 0.00782685 -0.04557215 0.02515767
v 0.01542656 -0.04433995 0.02674947
v 0.01547317 -0.04482614 0.02748887
v 0.01547317 -0.04482614 0.02748887
v 0.02220719 -0.04458634 0.03222456
v 0.02220719 -0.04458634 0.03222456
v 0.02096163 -0.04622494 0.03526178
v 0.02096163 -0.04622494 0.03526178
v 0.02096163 -0.04622494 0.03526178
v 0.02689622 -0.04465964 0.03914496
v 0.02689622 -0.04465964 0.03914496
v 0.02689622 -0.04465964 0.03914496
v 0.03201155 -0.04272814 0.04392066
v 0.03201155 -0.04272814 0.04392066
v 0.03201155 -0.04272814 0.04392066
v 0.03615450 -0.04049673 0.04944906
v 0.03615450 -0.04049673 0.04944906
v 0.03615450 -0.04049673 0.04944906
v 0.03920513 -0.03802563 0.05556341
v 0.03920513 -0.03802563 0.05556341
v 0.03920513 -0.03802563 0.05556341
v 0.04106342 -0.03539472 0.06207092
v 0.04106342 -0.03539472 0.06207092
v 0.04106342 -0.03539472 0.06207092
v 0.04166954 -0.03268378 0.06877811
v 0.04166954 -0.03268378 0.06877811
v 0.04166954 -0.03268378 0.06877811
v 0.04101020 -0.02997290 0.07548536
v 0.04101020 -0.02997290 0.07548536
v 0.04101020 -0.02997290 0.07548536
v 0.03911192 -0.02734862 0.08198614
v 0.03911192 -0.02734862 0.08198614
v 0.03911192 -0.02734862 0.08198614
v 0.03601462 -0.02488421 0.08808059
v 0.03601462 -0.02488421 0.08808059
v 0.03601462 -0.02488421 0.08808059
v 0.03183181 -0.02265952 0.09358234
v 0.03183181 -0.02265952 0.09358234
v 0.03183181 -0.02265952 0.09358234
v 0.02667648 -0.02074126 0.09832467
v 0.02667648 -0.02074126 0.09832467
v 0.02667648 -0.02074126 0.09832467
v 0.02071512 -0.01918933 0.10216784
v 0.02071512 -0.01918933 0.10216784
v 0.02071512 -0.01918933 0.10216784
v 0.01412118 -0.01805034 0.10499866
v 0.01412118 -0.01805034 0.10499866
v 0.01412118 -0.01805034 0.10499866
v 0.00710083 -0.01735100 0.10671712
v 0.00710083 -0.01735100 0.10671712
v 0.00710083 -0.01735100 0.10671712
v 0.00000062 -0.01713118 0.10726990
v 0.00000062 -0.01713118 0.10726990
v 0.00000062 -0.01713118 0.10726990
v -0.00709961 -0.01735100 0.10671712
v -0.00709961 -0.01735100 0.10671712
v -0.00709961 -0.01735100 0.10671712
v -0.01412652 -0.01805034 0.10499867
v -0.01412652 -0.01805034 0.10499867
v -0.01412652 -0.01805034 0.10499867
v -0.02071397 -0.01918933 0.10216786
v -0.02071397 -0.01918933 0.10216786
v -0.02071397 -0.01918933 0.10216786
v -0.02668189 -0.02074126 0.09832469
v -0.02668189 -0.02074126 0.09832469
v -0.02668189 -0.02074126 0.09832469
v -0.03183053 -0.02265952 0.09358236
v -0.03183053 -0.02265952 0.09358236
v -0.03183053 -0.02265952 0.09358236
v -0.03602009 -0.02488421 0.08808061
v -0.03602009 -0.02488421 0.08808061
v -0.03602009 -0.02488421 0.08808061
v -0.03911065 -0.02734862 0.08198616
v -0.03911065 -0.02734862 0.08198616
v -0.03911065 -0.02734862 0.08198616
v -0.04101562 -0.02997290 0.07548539
v -0.04101562 -0.02997290 0.07548539
v -0.04101562 -0.02997290 0.07548539
v -0.04166829 -0.03268378 0.06877813
v -0.04166829 -0.03268378 0.06877813
v -0.04166829 -0.03268378 0.06877813
v -0.04106217 -0.03539472 0.06207095
v -0.04106217 -0.03539472 0.06207095
v -0.04106217 -0.03539472 0.06207095
v -0.03920395 -0.03802563 0.05556344
v -0.03920395 -0.03802563 0.05556344
v -0.03920395 -0.03802563 0.05556344
v -0.03615999 -0.04049673 0.04944908
v -0.03615999 -0.04049673 0.04944908
v -0.03615999 -0.04049673 0.04944908
v -0.03201038 -0.04272814 0.04392068
v -0.03201038 -0.04272814 0.04392068
v -0.03201038 -0.04272814 0.04392068
v -0.02689505 -0.04465964 0.03914498
v -0.02689505 -0.04465964 0.03914498
v -0.02689505 -0.04465964 0.03914498
v -0.02096040 -0.04622494 0.03526179
v -0.02096040 -0.04622494 0.03526179
v -0.02096040 -0.04622494 0.03526179
v -0.01438630 -0.04738384 0.03239780
v -0.01438630 -0.04738384 0.03239780
v -0.01438630 -0.04738384 0.03239780
v -0.00737936 -0.04809654 0.03063265
v -0.00737936 -0.04809654 0.03063265
v -0.00737936 -0.04809654 0.03063265
v -0.00779892 -0.04657125 0.02731571
v -0.00779892 -0.04657125 0.02731571
v -0.00789226 -0.04572535 0.02551071
v -0.00789226 -0.04572535 0.02551071
v 0.00000059 -0.04604515 0.02483121
v 0.00000059 -0.04604515 0.02483121
v 0.00000059 -0.04604515 0.02483121
v 0.00000059 -0.04604515 0.02483121
v 0.00789343 -0.04572535 0.02551071
v 0.00789343 -0.04572535 0.02551071
v 0.01523338 -0.04581194 0.02918730
v 0.01523338 -0.04581194 0.02918730
v 0.01438747 -0.04738384 0.03239779
v 0.01438747 -0.04738384 0.03239779
v 0.01438747 -0.04738384 0.03239779
v 0.00000061 -0.03270382 0.06872478
v 0.00000061 -0.03270382 0.06872478
v 0.00000061 -0.03270382 0.06872478
v 0.00000061 -0.03270382 0.06872478
v 0.00000061 -0.03270382 0.06872478
v 0.00000061 -0.03270382 0.06872478
v 0.00000061 -0.03270382 0.06872478
v 0.00000061 -0.03270382 0.06872478
v 0.00000061 -0.03270382 0.06872478
v 0.00000061 -0.03270382 0.06872478
v 0.00000061 -0.03270382 0.06872478
v 0.00000061 -0.03270382 0.06872478
v 0.00000061 -0.03270382 0.06872478
v 0.00000061 -0.03270382 0.06872478
v 0.00000061 -0.03270382 0.06872478
v 0.00000061 -0.03270382 0.06872478
v 0.00000061 -0.03270382 0.06872478
v 0.00000061 -0.03270382 0.06872478
v 0.00000061 -0.03270382 0.06872478
v 0.00000061 -0.03270382 0.06872478
v 0.00000061 -0.03270382 0.06872478
v 0.00000061 -0.03270382 0.06872478
v 0.00000061 -0.03270382 0.06872478
v 0.00000061 -0.03270382 0.06872478
v 0.00000061 -0.03270382 0.06872478
v 0.00000061 -0.03270382 0.06872478
v 0.00000061 -0.03270382 0.06872478
v 0.00000061 -0.03270382 0.06872478
v 0.00000061 -0.03270382 0.06872478
v 0.00000061 -0.03270382 0.06872478
v 0.00000061 -0.03270382 0.06872478
v 0.00000061 -0.03270382 0.06872478
v 0.00000061 -0.03270382 0.06872478
v 0.00000061 -0.03270382 0.06872478
v 0.00000061 -0.03270382 0.06872478
v 0.00000061 -0.03270382 0.06872478
v 0.00000060 -0.04834305 0.03002653
v 0.00000060 -0.04834305 0.03002653
v 0.00000060 -0.04834305 0.03002653
v 0.00000060 -0.04834305 0.03002653
v 0.00000060 -0.04682434 0.02667628
v 0.00000060 -0.04682434 0.02667628
v 0.00000060 -0.04682434 0.02667628
v 0.00000060 -0.04682434 0.02667628
v 0.00780021 -0.04657125 0.02731571
v 0.00780021 -0.04657125 0.02731571
v 0.00738053 -0.04809654 0.03063265
v 0.00738053 -0.04809654 0.03063265
v 0.00738053 -0.04809654 0.03063265
vn 0.65570223 0.11569277 -0.74610311
vn 0.57548094 0.43078873 -0.69515663
vn 0.49839932 0.04828201 -0.86560220
vn 0.38100702 0.29600200 -0.87590897
vn 0.33759111 -0.00497961 -0.94127983
vn 0.18509199 0.16069605 -0.96949357
vn 0.17481238 -0.01730509 -0.98444974
vn 0.00003891 0.10649574 -0.99431324
vn -0.00006277 0.10648674 -0.99431413
vn 0.00005044 -0.01589205 -0.99987382
vn -0.00006144 -0.01589002 -0.99987382
vn -0.17489302 -0.01735874 -0.98443455
vn -0.18509412 0.16068915 -0.96949428
vn -0.33759370 -0.00501978 -0.94127870
vn -0.38100499 0.29600740 -0.87590808
vn -0.49839896 0.04828094 -0.86560237
vn -0.65569884 0.11571898 -0.74610210
vn -0.57540655 0.43080422 -0.69520879
vn -0.57661194 0.78240585 -0.23528646
vn -0.41252491 0.82013238 -0.39649263
vn -0.22338389 0.78330141 -0.58011943
vn -0.00003342 0.74789852 -0.66381323
vn 0.00002157 0.74790704 -0.66380364
vn 0.22338751 0.78329951 -0.58012062
vn 0.41251698 0.82012206 -0.39652181
vn 0.57660312 0.78240466 -0.23531222
vn 0.72029972 0.67801136 -0.14652242
vn 0.76489276 0.46679646 -0.44389221
vn 0.80751359 0.15248728 -0.56979787
vn 0.86613542 0.02593274 -0.49913621
vn -0.00000000 1.00000000 -0.00000023
vn -0.00000000 1.00000000 -0.00000056
vn -0.00000000 1.00000000 -0.00000073
vn -0.00000000 1.00000000 -0.00000056
vn 0.75878286 0.02238767 -0.65095896
vn -0.00000000 1.00000000 -0.00000040
vn -0.00000000 1.00000000 -0.00000073
vn 0.63443804 0.00968347 -0.77291316
vn 0.49466631 -0.00398584 -0.86907399
vn -0.00000000 1.00000000 -0.00000056
vn -0.00000000 1.00000000 -0.00000040
vn -0.00000000 1.00000000 -0.00000056
vn 0.34110349 -0.01143228 -0.93995631
vn -0.00000000 1.00000000 -0.00000056
vn 0.17201257 -0.01601131 -0.98496467
vn 0.00002020 -0.01689705 -0.99985731
vn -0.00002058 -0.01689716 -0.99985731
vn -0.00000000 1.00000000 -0.00000056
vn -0.00000000 1.00000000 -0.00000056
vn -0.17199673 -0.01607550 -0.98496634
vn -0.34114751 -0.01145022 -0.93994009
vn -0.00000000 1.00000000 -0.00000056
vn -0.00000000 1.00000000 -0.00000073
vn -0.49466830 -0.00398685 -0.86907274
vn -0.00000000 1.00000000 -0.00000073
vn -0.00000000 1.00000000 -0.00000040
vn -0.63440925 0.00971274 -0.77293634
vn -0.00000000 1.00000000 -0.00000056
vn -0.00000000 1.00000000 -0.00000040
vn -0.00000000 1.00000000 -0.00000023
vn -0.75878215 0.02238832 -0.65095979
vn -0.00000000 1.00000000 -0.00000056
vn -0.00000000 1.00000000 -0.00000023
vn -0.86613458 0.02593393 -0.49913764
vn -0.00000000 1.00000000 -0.00000073
vn -0.80747569 0.15262997 -0.56981319
vn -0.76489133 0.46680197 -0.44388899
vn -0.72032094 0.67800045 -0.14646915
vn -0.83442169 0.55087793 -0.01655540
vn -0.70902759 0.70482558 -0.02237914
vn -0.55639797 0.83040571 -0.02911882
vn -0.38219300 0.92329627 -0.03811207
vn -0.19611321 0.97941631 -0.04778618
vn 0.00000348 0.99862617 -0.05240108
vn 0.00002237 0.99862641 -0.05239679
vn 0.19609669 0.97941840 -0.04781111
vn 0.38220859 0.92329168 -0.03806936
vn 0.55640799 0.83040041 -0.02907829
vn 0.70902562 0.70482433 -0.02248171
vn 0.83447641 0.55079943 -0.01641385
vn 0.92635161 0.37648150 -0.01160106
vn 0.85148704 0.51581871 -0.09434547
vn 0.88638836 0.37055326 -0.27749950
vn 0.91026551 0.12879068 -0.39348406
vn -0.00000000 1.00000000 -0.00000056
vn 0.94563305 0.02150452 -0.32452372
vn -0.00000000 1.00000000 -0.00000023
vn -0.00000000 1.00000000 -0.00000073
vn -0.00000000 1.00000000 -0.00000073
vn -0.00000000 1.00000000 -0.00000073
vn -0.00000000 1.00000000 -0.00000090
vn -0.00000000 1.00000000 -0.00000040
vn -0.00000000 1.00000000 -0.00000040
vn -0.00000000 1.00000000 -0.00000090
vn -0.00000000 1.00000000 -0.00000023
vn -0.00000000 1.00000000 -0.00000073
vn -0.00000000 1.00000000 -0.00000040
vn -0.00000000 1.00000000 -0.00000023
vn -0.00000000 1.00000000 -0.00000056
vn -0.94563359 0.02150314 -0.32452241
vn -0.00000000 1.00000000 -0.00000073
vn -0.00000000 1.00000000 -0.00000056
vn -0.91026664 0.12879027 -0.39348167
vn -0.88640535 0.37051144 -0.27750140
vn -0.85147816 0.51582897 -0.09436978
vn -0.92635161 0.37648159 -0.01160040
vn -0.00000033 -0.00000056 -1.00000000
vn -0.98073649 0.19533551 -0.00002163
vn -0.92303491 0.38471651 -0.00011896
vn -0.00000033 -0.00000056 -1.00000000
vn -0.00000092 -0.00000056 -1.00000000
vn -0.83033359 0.55726659 -0.00020387
vn -0.00000033 -0.00000056 -1.00000000
vn -0.00000092 -0.00000056 -1.00000000
vn 0.00000085 -0.00000056 -1.00000000
vn -0.00000033 -0.00000056 -1.00000000
vn -0.70503771 0.70916992 0.00003334
vn -0.55139470 0.83424449 0.00004430
vn 0.00000085 -0.00000056 -1.00000000
vn -0.00000151 -0.00000056 -1.00000000
vn -0.37679449 0.92628878 -0.00390045
vn -0.00000151 -0.00000056 -1.00000000
vn -0.00000151 -0.00000056 -1.00000000
vn -0.19136549 0.98149401 -0.00700404
vn 0.00000087 -0.00000056 -1.00000000
vn -0.00000151 -0.00000056 -1.00000000
vn -0.00000152 -0.00000056 -1.00000000
vn 0.00001127 0.99996060 -0.00888905
vn -0.00001106 0.99996042 -0.00890347
vn 0.00000087 -0.00000056 -1.00000000
vn -0.00000152 -0.00000056 -1.00000000
vn 0.19146299 0.98147500 -0.00698586
vn 0.00000086 -0.00000056 -1.00000000
vn 0.00000086 -0.00000056 -1.00000000
vn 0.00000086 -0.00000056 -1.00000000
vn 0.37674049 0.92631108 -0.00380980
vn 0.55137569 0.83425701 0.00003355
vn -0.00000150 -0.00000056 -1.00000000
vn 0.00000086 -0.00000056 -1.00000000
vn -0.00000033 -0.00000056 -1.00000000
vn -0.00000150 -0.00000056 -1.00000000
vn 0.70500863 0.70919877 0.00000592
vn -0.00000033 -0.00000056 -1.00000000
vn 0.83021122 0.55744922 -0.00003448
vn 0.92296511 0.38488391 0.00007495
vn -0.00000033 -0.00000056 -1.00000000
vn -0.00000033 -0.00000056 -1.00000000
vn 0.98067659 0.19563620 0.00006259
vn -0.00000003 -0.00000056 -1.00000000
vn 0.99999893 0.00105500 0.00102416
vn -0.00000033 -0.00000056 -1.00000000
vn 0.99998617 -0.00486851 -0.00198265
vn 0.98248720 0.18620190 -0.00691087
vn 0.94325233 0.32685488 -0.05866254
vn 0.96045506 0.23289461 -0.15259814
vn 0.97121412 0.08239716 -0.22350346
vn 0.98945552 0.01111463 -0.14440963
vn -0.00000000 1.00000000 -0.00000056
vn 0.99985349 0.00199873 0.01699992
vn -0.00000000 1.00000000 -0.00000056
vn -0.00000000 1.00000000 -0.00000056
vn 0.98528564 -0.00103237 0.17091288
vn -0.00000000 1.00000000 -0.00000056
vn 0.94156229 0.00250668 0.33682960
vn -0.00000000 1.00000000 -0.00000090
vn -0.00000000 1.00000000 -0.00000056
vn -0.00000000 1.00000000 -0.00000090
vn 0.86609745 0.00495063 0.49985069
vn -0.00000000 1.00000000 -0.00000040
vn -0.00000000 1.00000000 -0.00000056
vn 0.76219082 0.00548620 0.64732927
vn -0.00000000 1.00000000 -0.00000073
vn 0.63547373 0.00280513 0.77211738
vn -0.00000000 1.00000000 -0.00000040
vn -0.00000000 1.00000000 -0.00000056
vn -0.00000000 1.00000000 -0.00000073
vn 0.49299389 0.00000191 0.87003285
vn 0.33761621 -0.00000689 0.94128388
vn -0.00000000 1.00000000 -0.00000056
vn 0.17083924 -0.00110416 0.98529846
vn -0.00000000 1.00000000 -0.00000056
vn -0.00000000 1.00000000 -0.00000056
vn 0.00000033 -0.00092105 0.99999958
vn -0.00000000 1.00000000 -0.00000056
vn -0.17083937 -0.00110422 0.98529834
vn -0.00000000 1.00000000 -0.00000056
vn -0.33761510 -0.00000608 0.94128424
vn -0.00000000 1.00000000 -0.00000040
vn -0.49299189 0.00000213 0.87003398
vn -0.00000000 1.00000000 -0.00000040
vn -0.00000000 1.00000000 -0.00000073
vn -0.00000000 1.00000000 -0.00000073
vn -0.63562888 0.00279548 0.77198988
vn -0.00000000 1.00000000 -0.00000056
vn -0.00000000 1.00000000 -0.00000090
vn -0.00000000 1.00000000 -0.00000056
vn -0.76220804 0.00550038 0.64730877
vn -0.86609560 0.00494991 0.49985388
vn -0.00000000 1.00000000 -0.00000056
vn -0.00000000 1.00000000 -0.00000090
vn -0.94157219 0.00250227 0.33680210
vn -0.00000000 1.00000000 -0.00000056
vn -0.98529422 -0.00105783 0.17086352
vn -0.00000000 1.00000000 -0.00000056
vn -0.99985349 0.00199909 0.01700087
vn -0.00000000 1.00000000 -0.00000056
vn -0.00000000 1.00000000 -0.00000056
vn -0.98945469 0.01119939 -0.14440918
vn -0.97121477 0.08239482 -0.22350164
vn -0.96044755 0.23291761 -0.15261023
vn -0.94310862 0.32729808 -0.05850034
vn -0.98248768 0.18619619 -0.00699463
vn -0.99998617 -0.00486904 -0.00198325
vn -0.00000050 -0.00000056 -1.00000000
vn -0.00000033 -0.00000056 -1.00000000
vn -0.99999911 0.00096765 0.00098588
vn -0.98169482 -0.19045870 -0.00102233
vn -0.00000050 -0.00000056 -1.00000000
vn -0.98114550 -0.19326460 0.00158543
vn 0.00000026 -0.00000056 -1.00000000
vn 0.00000262 0.00000648 -1.00000000
vn 0.00009393 -0.00011553 -1.00000000
vn 0.00000086 -0.00000056 -1.00000000
vn 0.00007035 -0.00013157 -1.00000000
vn 0.00004324 -0.00014285 -1.00000000
vn 0.00001485 -0.00014864 -1.00000000
vn -0.00001550 -0.00014864 -1.00000000
vn 0.00000026 -0.00000056 -1.00000000
vn -0.00004389 -0.00014285 -1.00000000
vn -0.00007101 -0.00013157 -1.00000000
vn -0.00009458 -0.00011553 -1.00000000
vn 0.00006987 -0.00017079 -1.00000000
vn 0.00011458 -0.00009476 -1.00000000
vn -0.00000062 -0.00000056 -1.00000000
vn -0.00000150 -0.00000056 -1.00000000
vn -0.00000050 -0.00000056 -1.00000000
vn 0.00000086 -0.00000056 -1.00000000
vn -0.00000152 -0.00000056 -1.00000000
vn -0.00000003 -0.00000056 -1.00000000
vn 0.00000087 -0.00000056 -1.00000000
vn -0.00000151 -0.00000056 -1.00000000
vn -0.00000151 -0.00000056 -1.00000000
vn 0.00000085 -0.00000056 -1.00000000
vn -0.00000092 -0.00000056 -1.00000000
vn -0.00011464 -0.00009476 -1.00000000
vn -0.00000033 -0.00000056 -1.00000000
vn -0.00000003 -0.00000056 -1.00000000
vn -0.00000062 -0.00000056 -1.00000000
vn 0.98116952 -0.19314501 0.00120303
vn 0.98169953 -0.19043410 -0.00105164
vn 0.98593718 -0.16537921 -0.02403532
vn 0.99985629 -0.01200003 -0.01197471
vn 0.98895532 0.14546809 -0.02839903
vn 0.99353242 0.09447362 -0.06299289
vn 0.99674290 0.03339501 -0.07340793
vn 0.99958527 0.00910510 0.02732172
vn 0.98550707 0.00808064 0.16944248
vn 0.94231570 0.01010126 0.33457309
vn 0.86522907 0.01213167 0.50123018
vn 0.75780475 0.00971080 0.65240937
vn 0.62857485 0.00692763 0.77771837
vn 0.48618829 0.00262936 0.87385023
vn 0.33189011 -0.00113184 0.94331747
vn 0.16831383 -0.00219987 0.98573106
vn 0.00000033 -0.00305399 0.99999541
vn -0.16821708 -0.00219438 0.98574758
vn -0.33188939 -0.00113136 0.94331771
vn -0.48615330 0.00271858 0.87386936
vn -0.62854266 0.00689568 0.77774459
vn -0.75779498 0.00984837 0.65241855
vn -0.86520064 0.01215128 0.50127870
vn -0.94231170 0.01009399 0.33458459
vn -0.98555791 0.00775382 0.16916122
vn -0.99958468 0.00910933 0.02734156
vn -0.99674690 0.03348763 -0.07330970
vn -0.99352980 0.09449781 -0.06299742
vn -0.98895597 0.14546278 -0.02840226
vn -0.99985641 -0.01199985 -0.01197597
vn -0.98591471 -0.16550352 -0.02410173
vn -0.94438481 -0.32259193 -0.06381205
vn -0.92797422 -0.37253541 -0.00902291
vn 0.00006995 -0.00017076 -1.00000000
vn 0.00000026 -0.00000056 -1.00000000
vn -0.92474061 -0.38059601 0.00122921
vn -0.83296090 -0.55333018 0.00145589
vn 0.00006992 -0.00017077 -1.00000000
vn -0.00011464 -0.00009476 -1.00000000
vn -0.70834291 -0.70586759 0.00116578
vn -0.00011464 -0.00009476 -1.00000000
vn -0.00009458 -0.00011553 -1.00000000
vn -0.00009458 -0.00011553 -1.00000000
vn -0.55741042 -0.83023709 0.00021587
vn -0.00007101 -0.00013157 -1.00000000
vn -0.00004389 -0.00014285 -1.00000000
vn -0.00007101 -0.00013157 -1.00000000
vn -0.38392210 -0.92336458 0.00126367
vn -0.00001550 -0.00014864 -1.00000000
vn -0.00004389 -0.00014285 -1.00000000
vn -0.19603810 -0.98059499 0.00159564
vn 0.00005779 -0.99999809 0.00200298
vn -0.00001550 -0.00014864 -1.00000000
vn 0.00001485 -0.00014864 -1.00000000
vn -0.00005781 -0.99999797 0.00200429
vn 0.00001485 -0.00014864 -1.00000000
vn 0.19603799 -0.98059499 0.00159402
vn 0.00004324 -0.00014285 -1.00000000
vn 0.38401529 -0.92332601 0.00125865
vn 0.00007035 -0.00013157 -1.00000000
vn 0.00004324 -0.00014285 -1.00000000
vn 0.55741042 -0.83023721 0.00021550
vn 0.00007035 -0.00013157 -1.00000000
vn 0.00009393 -0.00011553 -1.00000000
vn 0.70851427 -0.70569497 0.00141774
vn 0.00009393 -0.00011553 -1.00000000
vn 0.00011458 -0.00009476 -1.00000000
vn 0.83284611 -0.55350327 0.00127337
vn 0.00011458 -0.00009476 -1.00000000
vn 0.00000261 0.00000648 -1.00000000
vn 0.00000252 0.00000652 -1.00000000
vn -0.00000062 -0.00000056 -1.00000000
vn 0.92458910 -0.38096410 0.00126383
vn 0.92795497 -0.37258241 -0.00904563
vn 0.94438481 -0.32259372 -0.06380237
vn 0.94871104 -0.26424870 -0.17355147
vn 0.99149311 -0.10986324 -0.06979759
vn 0.99949902 -0.00399985 -0.03140124
vn 0.99942541 0.00509663 0.03350928
vn 0.98623115 0.01250192 0.16489977
vn 0.94261295 0.01638789 0.33348507
vn 0.86321580 0.01616452 0.50457650
vn 0.75151843 0.01246757 0.65959436
vn 0.61929911 0.00970593 0.78509522
vn 0.47568199 0.00396879 0.87960839
vn 0.32468709 -0.00261247 0.94581789
vn 0.16383883 -0.00698153 0.98646241
vn 0.00000033 -0.00768480 0.99997050
vn -0.16373678 -0.00708882 0.98647869
vn -0.32471320 -0.00257105 0.94580901
vn -0.47557920 0.00383164 0.87966466
vn -0.61930484 0.00972703 0.78509039
vn -0.75153863 0.01240797 0.65957236
vn -0.86321503 0.01616560 0.50457752
vn -0.94261348 0.01638693 0.33348378
vn -0.98622942 0.01250150 0.16491011
vn -0.99942398 0.00507857 0.03355648
vn -0.99949843 -0.00399800 -0.03141566
vn -0.99148953 -0.10989413 -0.06979980
vn -0.94870645 -0.26429600 -0.17350464
vn -0.85459763 -0.43109754 -0.28951317
vn -0.85359776 -0.50459999 -0.12942123
vn -0.83896780 -0.54373270 -0.02209080
vn -0.71849263 -0.69439417 -0.03981366
vn -0.56400508 -0.82421303 -0.05070823
vn -0.38808542 -0.92046028 -0.04628849
vn -0.19694711 -0.97972500 -0.03675112
vn -0.00000374 -0.99947828 -0.03229717
vn 0.00000351 -0.99947828 -0.03229681
vn 0.19688779 -0.97973418 -0.03682540
vn 0.38808918 -0.92045450 -0.04637202
vn 0.56400919 -0.82421648 -0.05060483
vn 0.71849650 -0.69439322 -0.03976281
vn 0.83898681 -0.54370588 -0.02202537
vn 0.85359937 -0.50460076 -0.12940779
vn 0.85460091 -0.43109885 -0.28950134
vn 0.81097716 -0.38391495 -0.44150376
vn 0.91446346 -0.24026218 -0.32562336
vn 0.97301191 -0.12241022 -0.19561096
vn 0.99583602 -0.04578719 -0.07883072
vn 0.99957341 -0.01015947 0.02738264
vn 0.98446149 0.00569646 0.17550906
vn 0.93727094 0.01032986 0.34844860
vn 0.85609770 0.01090245 0.51669908
vn 0.74601763 0.01240868 0.66581064
vn 0.61583912 0.01258208 0.78777152
vn 0.47255179 0.01205398 0.88122052
vn 0.32065949 0.00892210 0.94715249
vn 0.16242513 0.00447251 0.98671073
vn 0.00000033 0.00269064 0.99999648
vn -0.16231698 0.00458553 0.98672807
vn -0.32067689 0.00885755 0.94714743
vn -0.47252789 0.01208718 0.88123280
vn -0.61589414 0.01256360 0.78772879
vn -0.74585897 0.01237913 0.66598892
vn -0.85610270 0.01095860 0.51668960
vn -0.93731219 0.01014085 0.34834370
vn -0.98446292 0.00569824 0.17550021
vn -0.99957442 -0.01006344 0.02738532
vn -0.99581999 -0.04604666 -0.07888186
vn -0.97302169 -0.12238001 -0.19558102
vn -0.91448152 -0.24021918 -0.32560477
vn -0.81097853 -0.38391355 -0.44150233
vn -0.66601175 -0.53991032 -0.51470888
vn -0.69297200 -0.61557734 -0.37530592
vn -0.71499878 -0.67337781 -0.18798698
vn -0.54417783 -0.81150675 -0.21290246
vn -0.36309177 -0.91137129 -0.19382137
vn -0.17779355 -0.97098863 -0.15990838
vn 0.00001131 -0.98938799 -0.14529855
vn 0.00001804 -0.98938859 -0.14529344
vn 0.17781086 -0.97099054 -0.15987721
vn 0.36309525 -0.91140574 -0.19365279
vn 0.54417461 -0.81150204 -0.21292812
vn 0.71493477 -0.67343229 -0.18803576
vn 0.69297159 -0.61557502 -0.37531018
vn 0.66602474 -0.53988892 -0.51471466
vn 0.66038400 -0.48734713 -0.57130182
vn 0.66039503 -0.48732442 -0.57130861
vn 0.78798264 -0.35221949 -0.50500006
vn 0.78799182 -0.35224921 -0.50496495
vn 0.88968897 -0.22460413 -0.39750025
vn 0.88964409 -0.22462542 -0.39758885
vn 0.95429605 -0.12402166 -0.27191505
vn 0.95428806 -0.12416406 -0.27187794
vn 0.98905134 -0.05658694 -0.13629128
vn 0.98904866 -0.05664380 -0.13628729
vn 0.99980128 -0.01901245 0.00598351
vn 0.99981892 -0.01805806 0.00601612
vn 0.98598945 -0.00000417 0.16680817
vn 0.98598558 0.00003069 0.16683127
vn 0.94041890 0.00762059 0.33993301
vn 0.94042641 0.00757421 0.33991331
vn 0.86176538 0.01088332 0.50719041
vn 0.86179608 0.01077871 0.50714040
vn 0.75448746 0.01349188 0.65617585
vn 0.75470114 0.01384658 0.65592277
vn 0.62629616 0.01801159 0.77937716
vn 0.62561822 0.01664116 0.77995187
vn 0.48223880 0.02066011 0.87579614
vn 0.48227841 0.02016044 0.87578601
vn 0.32757589 0.02161365 0.94457769
vn 0.32747421 0.02144616 0.94461679
vn 0.16587693 0.01824667 0.98597777
vn 0.16578002 0.01831694 0.98599267
vn 0.00000120 0.01684221 0.99985820
vn -0.00000349 0.01686629 0.99985778
vn -0.16588447 0.01826330 0.98597604
vn -0.16578408 0.01831390 0.98599213
vn -0.32749930 0.02144419 0.94460809
vn -0.32758251 0.02125733 0.94458354
vn -0.48227990 0.02019108 0.87578452
vn -0.48240140 0.02001727 0.87572151
vn -0.62556529 0.01662751 0.77999479
vn -0.62630063 0.01802053 0.77937341
vn -0.75470156 0.01386417 0.65592176
vn -0.75465208 0.01348991 0.65598631
vn -0.86181104 0.01076876 0.50711513
vn -0.86178500 0.01083850 0.50715798
vn -0.94042009 0.00761832 0.33992979
vn -0.94041109 0.00758280 0.33995509
vn -0.98597276 0.00106308 0.16690373
vn -0.98598826 0.00001683 0.16681562
vn -0.99980122 -0.01903837 0.00593761
vn -0.99981862 -0.01807183 0.00601099
vn -0.98904884 -0.05660023 -0.13630454
vn -0.98913115 -0.05540110 -0.13619955
vn -0.95429534 -0.12408566 -0.27188772
vn -0.95428353 -0.12415025 -0.27189982
vn -0.88964623 -0.22462933 -0.39758179
vn -0.88968921 -0.22460422 -0.39749968
vn -0.78799409 -0.35219911 -0.50499630
vn -0.78797996 -0.35223699 -0.50499195
vn -0.66039675 -0.48732132 -0.57130915
vn -0.66039950 -0.48731852 -0.57130843
vn -0.50052220 -0.63532108 -0.58808589
vn -0.50048518 -0.63537407 -0.58805984
vn -0.49537727 -0.69292378 -0.52388734
vn -0.51377684 -0.76338303 -0.39150950
vn -0.33380243 -0.87502116 -0.35059100
vn -0.15850759 -0.94673669 -0.28029451
vn -0.00000357 -0.96858209 -0.24869375
vn 0.00001947 -0.96858263 -0.24869224
vn 0.15850581 -0.94671386 -0.28037253
vn 0.33379418 -0.87503445 -0.35056531
vn 0.51377666 -0.76338345 -0.39150915
vn 0.49539563 -0.69290239 -0.52389836
vn 0.50051284 -0.63531286 -0.58810264
vn 0.50052464 -0.63532484 -0.58807939
vn 0.46591932 -0.84745264 -0.25444657
vn 0.46591490 -0.84745979 -0.25443128
vn 0.55582506 -0.81336939 -0.17172322
vn 0.55589742 -0.81330430 -0.17179702
vn 0.62681061 -0.77554268 -0.07511390
vn 0.62701970 -0.77538544 -0.07499242
vn 0.68019772 -0.73237240 0.03101475
vn 0.68000531 -0.73255980 0.03080649
vn 0.71235174 -0.68672717 0.14477915
vn 0.71094108 -0.68816233 0.14489837
vn 0.72199893 -0.64109451 0.26022211
vn 0.72163618 -0.64122158 0.26091412
vn 0.71016270 -0.59497905 0.37638921
vn 0.70991629 -0.59503895 0.37675932
vn 0.67612767 -0.55029428 0.48992619
vn 0.67617959 -0.55027342 0.48987800
vn 0.62263936 -0.50796527 0.59522378
vn 0.62253159 -0.50777835 0.59549624
vn 0.54997987 -0.47020322 0.69023997
vn 0.55002725 -0.46974990 0.69051075
vn 0.46036854 -0.43774605 0.77229482
vn 0.46045193 -0.43755755 0.77235204
vn 0.35819656 -0.41002363 0.83879429
vn 0.35821828 -0.40995923 0.83881652
vn 0.24407579 -0.39163139 0.88715941
vn 0.24410899 -0.39146730 0.88722271
vn 0.12217960 -0.38172978 0.91616309
vn 0.12220459 -0.38165298 0.91619170
vn 0.00000030 -0.37676197 0.92631012
vn -0.00000676 -0.37542987 0.92685092
vn -0.12221680 -0.38164350 0.91619396
vn -0.12220160 -0.38170341 0.91617101
vn -0.24412362 -0.39145589 0.88722372
vn -0.24377522 -0.39195320 0.88709992
vn -0.35822043 -0.40998113 0.83880496
vn -0.35820803 -0.40996423 0.83881843
vn -0.46036175 -0.43783835 0.77224660
vn -0.46052217 -0.43755504 0.77231163
vn -0.55003339 -0.46976572 0.69049513
vn -0.54995316 -0.47000891 0.69039339
vn -0.62252933 -0.50777185 0.59550417
vn -0.62258095 -0.50774932 0.59546930
vn -0.67615831 -0.55027211 0.48990872
vn -0.67615300 -0.55028373 0.48990312
vn -0.71021569 -0.59468478 0.37675446
vn -0.71017510 -0.59495866 0.37639827
vn -0.72199535 -0.64111125 0.26019070
vn -0.72205561 -0.64108211 0.26009539
vn -0.71231621 -0.68678075 0.14469913
vn -0.71240681 -0.68665266 0.14486122
vn -0.68019378 -0.73238099 0.03089575
vn -0.68020141 -0.73236632 0.03107473
vn -0.62682241 -0.77553016 -0.07514424
vn -0.62686658 -0.77549464 -0.07514162
vn -0.55583876 -0.81335711 -0.17173716
vn -0.55580246 -0.81338602 -0.17171846
vn -0.46590120 -0.84747380 -0.25440997
vn -0.46594128 -0.84742904 -0.25448558
vn -0.36266723 -0.87468016 -0.32156998
vn -0.36270973 -0.87467349 -0.32154027
vn -0.24882601 -0.89436925 -0.37173849
vn -0.24865642 -0.89446616 -0.37161839
vn -0.33380207 -0.76447761 -0.55149817
vn -0.33380079 -0.76440191 -0.55160385
vn -0.32430446 -0.81643212 -0.47777113
vn -0.15200102 -0.91591251 -0.37148353
vn 0.00004020 -0.95002335 -0.31217897
vn -0.00002254 -0.95004827 -0.31210297
vn 0.15200728 -0.91594082 -0.37141123
vn 0.32430455 -0.81641221 -0.47780526
vn 0.33380222 -0.76447189 -0.55150610
vn 0.33379772 -0.76438820 -0.55162460
vn 0.36279258 -0.87458581 -0.32168523
vn 0.36271307 -0.87468106 -0.32151532
vn 0.36465839 -0.87382400 -0.32164562
vn 0.00000759 -0.92744976 0.37394795
vn -0.00003599 -0.92742485 0.37400943
vn 0.46758851 -0.84649193 -0.25458288
vn -0.00001849 -0.92741269 0.37403965
vn 0.00003534 -0.92744917 0.37394935
vn -0.00023221 -0.92725086 0.37444073
vn 0.00000914 -0.92730528 0.37430614
vn 0.55535495 -0.81411064 -0.16972022
vn 0.62835503 -0.77429533 -0.07507962
vn -0.00007315 -0.92738754 0.37410194
vn -0.00023221 -0.92725086 0.37444073
vn -0.00000237 -0.92743927 0.37397373
vn 0.68083298 -0.73171931 0.03245539
vn -0.00000115 -0.92745876 0.37392545
vn -0.00001239 -0.92731124 0.37429094
vn 0.71097046 -0.68813276 0.14489487
vn -0.00000439 -0.92734969 0.37419602
vn 0.72241998 -0.63989460 0.26200062
vn -0.00000472 -0.92742467 0.37401032
vn -0.00000174 -0.92745477 0.37393543
vn 0.00003839 -0.92729014 0.37434325
vn 0.71030843 -0.59364754 0.37821230
vn -0.00000971 -0.92731696 0.37427714
vn -0.00000021 -0.92746896 0.37390003
vn 0.00000954 -0.92745477 0.37393534
vn 0.67619461 -0.55024731 0.48988670
vn -0.00003374 -0.92734843 0.37419903
vn -0.00005812 -0.92728639 0.37435284
vn 0.62249446 -0.50780767 0.59550995
vn -0.00002928 -0.92739356 0.37408713
vn 0.54987586 -0.46990311 0.69052714
vn -0.00002473 -0.92741495 0.37403414
vn 0.46032164 -0.43769294 0.77235293
vn 0.00000379 -0.92750394 0.37381324
vn -0.00000053 -0.92750484 0.37381104
vn 0.00004436 -0.92736238 0.37416452
vn 0.00007348 -0.92739874 0.37407434
vn 0.35650188 -0.41150004 0.83879340
vn 0.24408709 -0.39151418 0.88720804
vn -0.00001302 -0.92741483 0.37403434
vn -0.00003001 -0.92740184 0.37406653
vn 0.12228000 -0.38027039 0.91675627
vn 0.00003026 -0.92745227 0.37394163
vn 0.00008216 -0.92739648 0.37408003
vn 0.00000030 -0.37713137 0.92615986
vn -0.00000408 -0.92737025 0.37414494
vn 0.00000428 -0.92737019 0.37414494
vn 0.00003449 -0.92745346 0.37393853
vn -0.00004867 -0.92746967 0.37389845
vn -0.12226250 -0.38022310 0.91677827
vn -0.00014510 -0.92743015 0.37399644
vn 0.00000265 -0.92748266 0.37386644
vn -0.24404082 -0.39152560 0.88721567
vn -0.35660583 -0.41151261 0.83874297
vn 0.00011207 -0.92745876 0.37392583
vn 0.00003483 -0.92746306 0.37391475
vn 0.00001253 -0.92745054 0.37394583
vn -0.00002007 -0.92743367 0.37398773
vn -0.46033546 -0.43762076 0.77238560
vn -0.54999137 -0.46980283 0.69050324
vn 0.00001012 -0.92744708 0.37395462
vn 0.00000946 -0.92745036 0.37394634
vn 0.00001014 -0.92744708 0.37395462
vn 0.00001358 -0.92743766 0.37397793
vn -0.62250662 -0.50784606 0.59546459
vn 0.00004236 -0.92731214 0.37428883
vn -0.67618191 -0.55020982 0.48994604
vn -0.00003814 -0.92728949 0.37434524
vn 0.00000106 -0.92746818 0.37390223
vn 0.00000039 -0.92746127 0.37391964
vn -0.71037048 -0.59359443 0.37817895
vn 0.00001086 -0.92731118 0.37429133
vn -0.72235763 -0.63997591 0.26197410
vn 0.00001002 -0.92731774 0.37427524
vn 0.00000012 -0.92743903 0.37397465
vn -0.71086556 -0.68824077 0.14489663
vn 0.00000000 -0.92741877 0.37402475
vn 0.00001005 -0.92735148 0.37419164
vn 0.00000746 -0.92734939 0.37419674
vn -0.68071163 -0.73183441 0.03241107
vn -0.00001907 -0.92740339 0.37406293
vn 0.00003946 -0.92731619 0.37427902
vn -0.62835079 -0.77429753 -0.07509203
vn 0.00002374 -0.92741203 0.37404123
vn 0.00000508 -0.92741376 0.37403724
vn -0.55539024 -0.81405252 -0.16988295
vn 0.00002463 -0.92750925 0.37380034
vn -0.00000785 -0.92754066 0.37372235
vn -0.46784279 -0.84638161 -0.25448278
vn -0.00000989 -0.92746794 0.37390265
vn 0.00008037 -0.92743736 0.37397864
vn -0.36428443 -0.87386221 -0.32196558
vn -0.25006363 -0.89404225 -0.37169430
vn 0.00000091 -0.92748547 0.37385935
vn 0.00000313 -0.92748934 0.37384954
vn -0.00001596 -0.92739189 0.37409145
vn 0.00000510 -0.92738146 0.37411722
vn -0.12738173 -0.90701091 -0.40137893
vn -0.12629293 -0.90658343 -0.40268683
vn -0.12631424 -0.90660971 -0.40262094
vn -0.16940224 -0.87916285 -0.44539386
vn -0.16940965 -0.87915045 -0.44541556
vn -0.00003707 -0.93579459 -0.35254586
vn 0.00001071 -0.93577498 -0.35259786
vn 0.00003238 -0.93579620 -0.35254157
vn -0.00002994 -0.93573719 -0.35269827
vn 0.16939256 -0.87917685 -0.44536984
vn 0.16940865 -0.87916136 -0.44539446
vn 0.24879909 -0.89439553 -0.37169307
vn 0.24894598 -0.89433145 -0.37174907
vn 0.25041789 -0.89383042 -0.37196538
vn -0.00000063 -0.92748564 0.37385875
vn -0.00000285 -0.92748958 0.37384942
vn -0.00000022 -0.92761826 0.37352994
vn 0.00000782 -0.92759913 0.37357703
vn 0.00000805 -0.92759258 0.37359345
vn 0.00000095 -0.92760265 0.37356853
vn 0.00000509 -0.92757917 0.37362653
vn 0.00000708 -0.92762798 0.37350562
vn -0.00000370 -0.92759448 0.37358874
vn 0.00000074 -0.92761505 0.37353763
vn -0.00000599 -0.92759484 0.37358773
vn 0.00002522 -0.92758983 0.37360024
vn -0.00004708 -0.92758226 0.37361905
vn 0.00000065 -0.92760444 0.37356365
vn 0.00000618 -0.92759508 0.37358725
vn -0.00002452 -0.92759049 0.37359873
vn -0.00000032 -0.92761207 0.37354484
vn -0.00001867 -0.92758208 0.37361953
vn 0.00000125 -0.92762023 0.37352484
vn -0.00000019 -0.92761594 0.37353542
vn -0.00000087 -0.92759818 0.37357953
vn -0.00000172 -0.92758584 0.37361005
vn -0.00000009 -0.92761254 0.37354374
vn 0.00000208 -0.92761797 0.37353075
vn -0.00000522 -0.92759097 0.37359744
vn 0.00000041 -0.92761856 0.37352914
vn -0.00000055 -0.92761314 0.37354213
vn -0.00002836 -0.92762846 0.37350443
vn 0.00001362 -0.92762178 0.37352085
vn 0.00000793 -0.92760408 0.37356493
vn -0.00002563 -0.92758745 0.37360615
vn -0.00001386 -0.92762196 0.37352034
vn -0.00000435 -0.92759544 0.37358624
vn 0.00000012 -0.92761189 0.37354574
vn -0.00000050 -0.92761266 0.37354365
vn 0.00000058 -0.92761266 0.37354374
vn 0.00000332 -0.92759967 0.37357584
vn 0.00000075 -0.92760897 0.37355283
vn 0.00001496 -0.92753649 0.37373275
vn -0.00000491 -0.91087174 -0.41268969
vn 0.00000424 -0.92750126 0.37381995
vn 0.00000481 -0.91087234 -0.41268820
vn 0.00000872 -0.91086996 -0.41269380
vn 0.00000625 -0.91087437 -0.41268408
vn -0.00000204 -0.91087365 -0.41268539
vn 0.00000172 -0.91087586 -0.41268060
vn 0.12631486 -0.90661144 -0.40261683
vn 0.12631996 -0.90651745 -0.40282693
vn -0.00001178 -0.92738187 0.37411645
vn 0.00003814 -0.92739397 0.37408623
vn 0.12784056 -0.90688783 -0.40151122
vt 0.64449072 0.41687220
vt 0.64207762 0.42262649
vt 0.63957173 0.42086300
vt 0.63688022 0.42596769
vt 0.63483828 0.42429709
vt 0.63196123 0.42893770
vt 0.63010490 0.42708150
vt 0.62732053 0.43190771
vt 0.62732053 0.24888261
vt 0.62555713 0.43014431
vt 0.62555713 0.25064611
vt 0.63010490 0.25370881
vt 0.63196123 0.25185260
vt 0.63483828 0.25649321
vt 0.63688022 0.25482261
vt 0.63957173 0.25992730
vt 0.64449072 0.26391819
vt 0.64207762 0.25816381
vt 0.64421231 0.25612190
vt 0.63855082 0.25305921
vt 0.63326049 0.25036770
vt 0.62834150 0.24776880
vt 0.62834150 0.43302140
vt 0.63326049 0.43042269
vt 0.63855082 0.42773119
vt 0.64421231 0.42466840
vt 0.65070921 0.42123431
vt 0.64922422 0.41789311
vt 0.64950257 0.41232440
vt 0.63855082 0.40480661
vt 0.95596743 0.86311167
vt 0.95596743 0.86311167
vt 0.95049161 0.86413270
vt 0.95049161 0.86413270
vt 0.63780832 0.40963280
vt 0.94501573 0.86413270
vt 0.94501573 0.86413270
vt 0.63669461 0.41427350
vt 0.63511682 0.41863561
vt 0.93953967 0.86311167
vt 0.93953967 0.86311167
vt 0.93434233 0.86125553
vt 0.63261080 0.42262649
vt 0.92960888 0.85847122
vt 0.62908399 0.42615339
vt 0.62490737 0.42958739
vt 0.62490737 0.25120300
vt 0.92533952 0.85494429
vt 0.92181271 0.85076767
vt 0.62908399 0.25454411
vt 0.63261080 0.25816381
vt 0.91902828 0.84594160
vt 0.91902828 0.84594160
vt 0.63511682 0.26215479
vt 0.91717207 0.84074402
vt 0.91717207 0.84074402
vt 0.63669461 0.26651689
vt 0.91624397 0.83526808
vt 0.91624397 0.83526808
vt 0.91624397 0.82979232
vt 0.63780832 0.27115750
vt 0.91624397 0.82979232
vt 0.91717207 0.82431638
vt 0.63855082 0.27598369
vt 0.91717207 0.82431638
vt 0.64950257 0.26846591
vt 0.64922422 0.26289731
vt 0.65070921 0.25955599
vt 0.65869099 0.25760689
vt 0.65256542 0.25519380
vt 0.64653260 0.25268790
vt 0.64077830 0.25008920
vt 0.63511682 0.24739760
vt 0.62954801 0.24498449
vt 0.62954801 0.43580580
vt 0.63511682 0.43339270
vt 0.64077830 0.43070111
vt 0.64653260 0.42810240
vt 0.65256542 0.42550370
vt 0.65869099 0.42318341
vt 0.66472381 0.42095590
vt 0.65748441 0.41733620
vt 0.65590662 0.41288132
vt 0.65470010 0.40731251
vt 0.96116501 0.86125553
vt 0.63882917 0.39988759
vt 0.96116501 0.86125553
vt 0.94779998 0.83257657
vt 0.94779998 0.83257657
vt 0.94779998 0.83257657
vt 0.94779998 0.83257657
vt 0.94779998 0.83257657
vt 0.94779998 0.83257657
vt 0.94779998 0.83257657
vt 0.94779998 0.83257657
vt 0.94779998 0.83257657
vt 0.94779998 0.83257657
vt 0.94779998 0.83257657
vt 0.94779998 0.83257657
vt 0.63882917 0.28090280
vt 0.91902828 0.81911892
vt 0.91902828 0.81911892
vt 0.65470010 0.27347779
vt 0.65590662 0.26790911
vt 0.65748441 0.26345411
vt 0.66472381 0.25983441
vt 0.95466810 0.23663139
vt 0.67205590 0.24452040
vt 0.66620880 0.24414919
vt 0.96070093 0.23783800
vt 0.96070093 0.23783800
vt 0.66054720 0.24368510
vt 0.96645522 0.24025109
vt 0.96645522 0.24025109
vt 0.97165263 0.24368510
vt 0.97165263 0.24368510
vt 0.65488571 0.24284980
vt 0.64940977 0.24164330
vt 0.97601491 0.24804731
vt 0.97601491 0.24804731
vt 0.64393389 0.23997270
vt 0.97944891 0.25324479
vt 0.97944891 0.25324479
vt 0.63836521 0.23802359
vt 0.98176920 0.25899911
vt 0.98176920 0.25899911
vt 0.98297572 0.26503190
vt 0.63279653 0.23588879
vt 0.63279653 0.44490141
vt 0.98297572 0.26503190
vt 0.98297572 0.27115750
vt 0.63836521 0.44276670
vt 0.98297572 0.27115750
vt 0.98186201 0.27728310
vt 0.98186201 0.27728310
vt 0.64393389 0.44081760
vt 0.64940977 0.43914700
vt 0.97954172 0.28303739
vt 0.97954172 0.28303739
vt 0.97610760 0.28823489
vt 0.97610760 0.28823489
vt 0.65488571 0.43794051
vt 0.97174549 0.29259708
vt 0.66054720 0.43710509
vt 0.66620880 0.43664110
vt 0.96654803 0.29612389
vt 0.96079367 0.29844421
vt 0.67205590 0.43626979
vt 0.95476091 0.29974350
vt 0.67799592 0.43608421
vt 0.95476091 0.29974350
vt 0.67706770 0.41585121
vt 0.67084932 0.41882119
vt 0.66472381 0.41297409
vt 0.66333163 0.40712690
vt 0.65999031 0.40192941
vt 0.63901478 0.39478290
vt 0.96589828 0.85847122
vt 0.63892198 0.38958541
vt 0.97016758 0.85494429
vt 0.97369450 0.85076767
vt 0.63892198 0.38429519
vt 0.97647887 0.84594160
vt 0.63882917 0.37891209
vt 0.97647887 0.84594160
vt 0.97833520 0.84074402
vt 0.97833520 0.84074402
vt 0.63873643 0.37352899
vt 0.97935611 0.83526808
vt 0.97935611 0.83526808
vt 0.63873643 0.36805311
vt 0.97935611 0.82979232
vt 0.63864362 0.36248440
vt 0.97935611 0.82979232
vt 0.97833520 0.82431638
vt 0.97833520 0.82431638
vt 0.63864362 0.35691571
vt 0.63864362 0.35143980
vt 0.97647887 0.81911892
vt 0.63864362 0.34587100
vt 0.97369450 0.81438547
vt 0.97016758 0.81011611
vt 0.63864362 0.34039521
vt 0.96589828 0.80658931
vt 0.63864362 0.33491930
vt 0.96116501 0.80380487
vt 0.63864362 0.32935050
vt 0.96116501 0.80380487
vt 0.63864362 0.32378191
vt 0.95596743 0.80194873
vt 0.95596743 0.80194873
vt 0.95049161 0.80102062
vt 0.63864362 0.31830591
vt 0.95049161 0.80102062
vt 0.94501573 0.80102062
vt 0.94501573 0.80102062
vt 0.63873643 0.31273720
vt 0.63873643 0.30726129
vt 0.93953967 0.80194873
vt 0.93953967 0.80194873
vt 0.63882917 0.30187821
vt 0.93434233 0.80380487
vt 0.63892198 0.29649511
vt 0.92960888 0.80658931
vt 0.63892198 0.29120490
vt 0.92533952 0.81011611
vt 0.92181271 0.81438547
vt 0.63901478 0.28600740
vt 0.65999031 0.27886090
vt 0.66333163 0.27366340
vt 0.66472381 0.26781630
vt 0.67084932 0.26196909
vt 0.67706770 0.26493910
vt 0.94844967 0.23663139
vt 0.94844967 0.23663139
vt 0.67799592 0.24470601
vt 0.68337888 0.26456791
vt 0.94232410 0.23783800
vt 0.68393582 0.24489170
vt 0.94232410 0.23783800
vt 0.95151252 0.26818749
vt 0.95151252 0.26818749
vt 0.95151252 0.26818749
vt 0.95151252 0.26818749
vt 0.95151252 0.26818749
vt 0.95151252 0.26818749
vt 0.95151252 0.26818749
vt 0.95151252 0.26818749
vt 0.95151252 0.26818749
vt 0.95151252 0.26818749
vt 0.95151252 0.26818749
vt 0.95151252 0.26818749
vt 0.95151252 0.26818749
vt 0.95151252 0.26818749
vt 0.95151252 0.26818749
vt 0.95151252 0.26818749
vt 0.95151252 0.26818749
vt 0.95151252 0.26818749
vt 0.95151252 0.26818749
vt 0.95151252 0.26818749
vt 0.95151252 0.26818749
vt 0.95151252 0.26818749
vt 0.95151252 0.26818749
vt 0.95151252 0.26818749
vt 0.95151252 0.26818749
vt 0.95151252 0.26818749
vt 0.94854248 0.29974350
vt 0.94854248 0.29974350
vt 0.68393582 0.43589860
vt 0.68337888 0.41622251
vt 0.68310052 0.40805501
vt 0.67669648 0.40712690
vt 0.67066371 0.40935439
vt 0.66964281 0.40192941
vt 0.66537350 0.39636069
vt 0.66537350 0.39060640
vt 0.66528058 0.38485211
vt 0.66528058 0.37919051
vt 0.66518778 0.37352899
vt 0.66518778 0.36786750
vt 0.66518778 0.36220589
vt 0.66509497 0.35673010
vt 0.66509497 0.35125419
vt 0.66509497 0.34577820
vt 0.66509497 0.34039521
vt 0.66509497 0.33501211
vt 0.66509497 0.32953611
vt 0.66509497 0.32406029
vt 0.66518778 0.31858441
vt 0.66518778 0.31292281
vt 0.66518778 0.30726129
vt 0.66528058 0.30159980
vt 0.66528058 0.29593831
vt 0.66537350 0.29018390
vt 0.66537350 0.28442961
vt 0.66964281 0.27886090
vt 0.67066371 0.27143589
vt 0.67669648 0.27366340
vt 0.68310052 0.27273530
vt 0.68959731 0.26957971
vt 0.68969011 0.26299009
vt 0.93656981 0.24025109
vt 0.93656981 0.24025109
vt 0.68996859 0.24489170
vt 0.69609422 0.24479879
vt 0.93137229 0.24368510
vt 0.93137229 0.24368510
vt 0.70231253 0.24452040
vt 0.92701018 0.24804731
vt 0.92701018 0.24804731
vt 0.92357612 0.25324479
vt 0.70862383 0.24433480
vt 0.92357612 0.25324479
vt 0.92116302 0.25899911
vt 0.92116302 0.25899911
vt 0.71493500 0.24405640
vt 0.91995651 0.26503190
vt 0.91995651 0.26503190
vt 0.72115338 0.24377790
vt 0.72746462 0.43710509
vt 0.91995651 0.27134311
vt 0.91995651 0.27134311
vt 0.72746462 0.24368510
vt 0.92116302 0.27746871
vt 0.72115338 0.43701231
vt 0.92116302 0.27746871
vt 0.71493500 0.43673390
vt 0.92357612 0.28322300
vt 0.92357612 0.28322300
vt 0.70862383 0.43645549
vt 0.92710292 0.28832769
vt 0.92710292 0.28832769
vt 0.70231253 0.43617699
vt 0.93146521 0.29278269
vt 0.93146521 0.29278269
vt 0.69609422 0.43599141
vt 0.93666261 0.29621670
vt 0.93666261 0.29621670
vt 0.94241691 0.29853699
vt 0.94241691 0.29853699
vt 0.68996859 0.43589860
vt 0.68969011 0.41780031
vt 0.68959731 0.41121060
vt 0.69182479 0.40712690
vt 0.68319333 0.40192941
vt 0.67632520 0.39636069
vt 0.67623240 0.39051360
vt 0.67613959 0.38485211
vt 0.67604679 0.37909770
vt 0.67604679 0.37343621
vt 0.67604679 0.36786750
vt 0.67604679 0.36220589
vt 0.67604679 0.35673010
vt 0.67604679 0.35116139
vt 0.67604679 0.34577820
vt 0.67595398 0.34039521
vt 0.67604679 0.33501211
vt 0.67604679 0.32953611
vt 0.67604679 0.32406029
vt 0.67604679 0.31858441
vt 0.67604679 0.31292281
vt 0.67604679 0.30735409
vt 0.67604679 0.30169261
vt 0.67613959 0.29593831
vt 0.67623240 0.29018390
vt 0.67632520 0.28442961
vt 0.68319333 0.27886090
vt 0.69182479 0.27366340
vt 0.69878572 0.26957971
vt 0.69711512 0.26623851
vt 0.69609422 0.26113379
vt 0.70240527 0.25946319
vt 0.70862383 0.25788540
vt 0.71493500 0.25677159
vt 0.72124618 0.25593629
vt 0.72746462 0.25547230
vt 0.72746462 0.42531800
vt 0.72124618 0.42485401
vt 0.71493500 0.42401871
vt 0.70862383 0.42281210
vt 0.70240527 0.42132711
vt 0.69609422 0.41965649
vt 0.69711512 0.41455191
vt 0.69878572 0.41121060
vt 0.70259100 0.40870470
vt 0.69776481 0.40443531
vt 0.69228888 0.39951640
vt 0.68774110 0.39441171
vt 0.68653452 0.38902861
vt 0.68542081 0.38364550
vt 0.68439990 0.37826240
vt 0.68347168 0.37297210
vt 0.68263638 0.36749631
vt 0.68189400 0.36211309
vt 0.68133712 0.35663721
vt 0.68087298 0.35125419
vt 0.68059462 0.34577820
vt 0.68050182 0.34039521
vt 0.68059462 0.33501211
vt 0.68087298 0.32953611
vt 0.68133712 0.32406029
vt 0.68189400 0.31867719
vt 0.68263638 0.31320131
vt 0.68347168 0.30781820
vt 0.68439990 0.30243510
vt 0.68542081 0.29714480
vt 0.68653452 0.29176170
vt 0.68774110 0.28637859
vt 0.69228888 0.28127399
vt 0.69776481 0.27635500
vt 0.70259100 0.27208561
vt 0.70778853 0.26809469
vt 0.70602500 0.26577440
vt 0.70426160 0.26326850
vt 0.71020162 0.26131940
vt 0.71614152 0.25983441
vt 0.72198868 0.25881350
vt 0.72774303 0.25816381
vt 0.72774303 0.42262649
vt 0.72198868 0.42197681
vt 0.71614152 0.42095590
vt 0.71020162 0.41947091
vt 0.70426160 0.41752181
vt 0.70602500 0.41501591
vt 0.70778853 0.41269559
vt 0.70908791 0.41093221
vt 0.70908791 0.41093221
vt 0.70583940 0.40656999
vt 0.70583940 0.40656999
vt 0.70305502 0.40202230
vt 0.70305502 0.40202230
vt 0.70064187 0.39719611
vt 0.70064187 0.39719611
vt 0.69832170 0.39236981
vt 0.69832170 0.39236981
vt 0.69618702 0.38754359
vt 0.69618702 0.38754359
vt 0.69405228 0.38262460
vt 0.69405228 0.38262460
vt 0.69210333 0.37761271
vt 0.69210333 0.37761271
vt 0.69024700 0.37250811
vt 0.69024700 0.37250811
vt 0.68857640 0.36731061
vt 0.68857640 0.36731061
vt 0.68718422 0.36211309
vt 0.68718422 0.36211309
vt 0.68597758 0.35673010
vt 0.68597758 0.35673010
vt 0.68504947 0.35125419
vt 0.68504947 0.35125419
vt 0.68458551 0.34577820
vt 0.68458551 0.34577820
vt 0.68439990 0.34039521
vt 0.68439990 0.34039521
vt 0.68458551 0.33501211
vt 0.68458551 0.33501211
vt 0.68504947 0.32953611
vt 0.68504947 0.32953611
vt 0.68597758 0.32406029
vt 0.68597758 0.32406029
vt 0.68718422 0.31867719
vt 0.68718422 0.31867719
vt 0.68857640 0.31347969
vt 0.68857640 0.31347969
vt 0.69024700 0.30828229
vt 0.69024700 0.30828229
vt 0.69210333 0.30317760
vt 0.69210333 0.30317760
vt 0.69405228 0.29816571
vt 0.69405228 0.29816571
vt 0.69618702 0.29324669
vt 0.69618702 0.29324669
vt 0.69832170 0.28842050
vt 0.69832170 0.28842050
vt 0.70064187 0.28359431
vt 0.70064187 0.28359431
vt 0.70305502 0.27876809
vt 0.70305502 0.27876809
vt 0.70583940 0.27422029
vt 0.70583940 0.27422029
vt 0.70908791 0.26985809
vt 0.70908791 0.26985809
vt 0.71298587 0.26605290
vt 0.71298587 0.26605290
vt 0.71242911 0.26503190
vt 0.71150100 0.26336130
vt 0.71706963 0.26150510
vt 0.72254562 0.26029849
vt 0.72802150 0.25955599
vt 0.72802150 0.42123431
vt 0.72254562 0.42049181
vt 0.71706963 0.41928521
vt 0.71150100 0.41742900
vt 0.71242911 0.41575840
vt 0.71298587 0.41464469
vt 0.71298587 0.41464469
vt 0.71001601 0.41000411
vt 0.71001601 0.41000411
vt 0.70686030 0.40582749
vt 0.70686030 0.40582749
vt 0.70416880 0.40137261
vt 0.70416880 0.40137261
vt 0.70175570 0.39673200
vt 0.70175570 0.39673200
vt 0.69952822 0.39199859
vt 0.69952822 0.39199859
vt 0.69739348 0.38717240
vt 0.69739348 0.38717240
vt 0.69535172 0.38225329
vt 0.69535172 0.38225329
vt 0.69340259 0.37724149
vt 0.69340259 0.37724149
vt 0.69154638 0.37222961
vt 0.69154638 0.37222961
vt 0.68996859 0.36703220
vt 0.68996859 0.36703220
vt 0.68848360 0.36183470
vt 0.68848360 0.36183470
vt 0.68727702 0.35654441
vt 0.68727702 0.35654441
vt 0.68644172 0.35116139
vt 0.68644172 0.35116139
vt 0.68588477 0.34577820
vt 0.68588477 0.34577820
vt 0.68569922 0.34039521
vt 0.68569922 0.34039521
vt 0.68588477 0.33501211
vt 0.68588477 0.33501211
vt 0.68644172 0.32962900
vt 0.68644172 0.32962900
vt 0.68727702 0.32424590
vt 0.68727702 0.32424590
vt 0.68848360 0.31895560
vt 0.68848360 0.31895560
vt 0.68996859 0.31375811
vt 0.68996859 0.31375811
vt 0.69154638 0.30856070
vt 0.69154638 0.30856070
vt 0.69340259 0.30354881
vt 0.69340259 0.30354881
vt 0.69535172 0.29853699
vt 0.69535172 0.29853699
vt 0.69739348 0.29361799
vt 0.69739348 0.29361799
vt 0.69952822 0.28879169
vt 0.69952822 0.28879169
vt 0.70175570 0.28405830
vt 0.70175570 0.28405830
vt 0.70416880 0.27941781
vt 0.70416880 0.27941781
vt 0.70686030 0.27496281
vt 0.70686030 0.27496281
vt 0.71001601 0.27078620
vt 0.71001601 0.27078620
vt 0.71372843 0.26716661
vt 0.71372843 0.26716661
vt 0.71827620 0.26447511
vt 0.71827620 0.26447511
vt 0.71771932 0.26326850
vt 0.71771932 0.26326850
vt 0.71744090 0.26271161
vt 0.72273117 0.26122659
vt 0.72820711 0.42058459
vt 0.72820711 0.26020569
vt 0.72273117 0.41956371
vt 0.71744090 0.41807869
vt 0.71771932 0.41752181
vt 0.71771932 0.41752181
vt 0.71372843 0.41362381
vt 0.71372843 0.41362381
vt 0.71530622 0.41148910
vt 0.72041088 0.95434582
vt 0.72041088 0.95434582
vt 0.71187222 0.40824059
vt 0.72300959 0.94998372
vt 0.72300959 0.94998372
vt 0.72635090 0.94608557
vt 0.72635090 0.94608557
vt 0.70899499 0.40434250
vt 0.70639628 0.40007320
vt 0.73024893 0.94274431
vt 0.73024893 0.94274431
vt 0.73470390 0.94023842
vt 0.70407599 0.39552540
vt 0.73470390 0.94023842
vt 0.73953009 0.93847501
vt 0.70184851 0.39088479
vt 0.73953009 0.93847501
vt 0.69971383 0.38605860
vt 0.74454200 0.93763971
vt 0.74454200 0.93763971
vt 0.74964660 0.93763971
vt 0.69767201 0.38123241
vt 0.74964660 0.93763971
vt 0.75465852 0.93847501
vt 0.75465852 0.93847501
vt 0.69572288 0.37631330
vt 0.75948471 0.94023842
vt 0.75948471 0.94023842
vt 0.69395947 0.37139431
vt 0.76393962 0.94283712
vt 0.69238168 0.36628971
vt 0.76393962 0.94283712
vt 0.69098949 0.36118501
vt 0.76783782 0.94617838
vt 0.76783782 0.94617838
vt 0.77108622 0.95007652
vt 0.77108622 0.95007652
vt 0.68978298 0.35598761
vt 0.68894762 0.35079011
vt 0.77368492 0.95453137
vt 0.77368492 0.95453137
vt 0.68839079 0.34559259
vt 0.77535552 0.95935762
vt 0.77535552 0.95935762
vt 0.68829799 0.34039521
vt 0.77628362 0.96427667
vt 0.77628362 0.96427667
vt 0.77628362 0.96928853
vt 0.77628362 0.96928853
vt 0.68839079 0.33519769
vt 0.77544832 0.97430039
vt 0.77544832 0.97430039
vt 0.68894762 0.33000019
vt 0.68978298 0.32480279
vt 0.77368492 0.97912657
vt 0.77368492 0.97912657
vt 0.77117902 0.98358160
vt 0.77117902 0.98358160
vt 0.69098949 0.31960529
vt 0.69238168 0.31450060
vt 0.76783782 0.98747963
vt 0.76783782 0.98747963
vt 0.76393962 0.99082088
vt 0.76393962 0.99082088
vt 0.69395947 0.30939600
vt 0.75957751 0.99341959
vt 0.69572288 0.30447701
vt 0.75957751 0.99341959
vt 0.75475132 0.99518311
vt 0.75475132 0.99518311
vt 0.69767201 0.29955789
vt 0.74973941 0.99611121
vt 0.69971383 0.29473171
vt 0.74973941 0.99611121
vt 0.74463481 0.99611121
vt 0.70184851 0.28990549
vt 0.74463481 0.99611121
vt 0.73953009 0.99527592
vt 0.73953009 0.99527592
vt 0.70407599 0.28526491
vt 0.73470390 0.99351239
vt 0.73470390 0.99351239
vt 0.70639628 0.28071711
vt 0.73024893 0.99100649
vt 0.73024893 0.99100649
vt 0.70899499 0.27644780
vt 0.72635090 0.98766530
vt 0.72635090 0.98766530
vt 0.71187222 0.27254969
vt 0.72300959 0.98376721
vt 0.72300959 0.98376721
vt 0.71530622 0.26920840
vt 0.71938992 0.26679531
vt 0.72050369 0.97940499
vt 0.72050369 0.97940499
vt 0.71874023 0.97457880
vt 0.71874023 0.97457880
vt 0.72403061 0.26512471
vt 0.72328812 0.26271161
vt 0.72328812 0.26271161
vt 0.72291678 0.26141229
vt 0.72291678 0.26141229
vt 0.72839272 0.26020569
vt 0.72839272 0.42058459
vt 0.72839272 0.42058459
vt 0.72839272 0.26020569
vt 0.72291678 0.41937810
vt 0.72291678 0.41937810
vt 0.71827620 0.41631529
vt 0.71827620 0.41631529
vt 0.71938992 0.41399500
vt 0.71864742 0.95917201
vt 0.71864742 0.95917201
vt 0.74704790 0.96687537
vt 0.74704790 0.96687537
vt 0.74704790 0.96687537
vt 0.74704790 0.96687537
vt 0.74704790 0.96687537
vt 0.74704790 0.96687537
vt 0.74704790 0.96687537
vt 0.74704790 0.96687537
vt 0.74704790 0.96687537
vt 0.74704790 0.96687537
vt 0.74704790 0.96687537
vt 0.74704790 0.96687537
vt 0.74704790 0.96687537
vt 0.74704790 0.96687537
vt 0.74704790 0.96687537
vt 0.74704790 0.96687537
vt 0.74704790 0.96687537
vt 0.74704790 0.96687537
vt 0.74704790 0.96687537
vt 0.74704790 0.96687537
vt 0.74704790 0.96687537
vt 0.74704790 0.96687537
vt 0.74704790 0.96687537
vt 0.74704790 0.96687537
vt 0.74704790 0.96687537
vt 0.74704790 0.96687537
vt 0.74704790 0.96687537
vt 0.74704790 0.96687537
vt 0.74704790 0.96687537
vt 0.74704790 0.96687537
vt 0.74704790 0.96687537
vt 0.74704790 0.96687537
vt 0.74704790 0.96687537
vt 0.74704790 0.96687537
vt 0.74704790 0.96687537
vt 0.74704790 0.96687537
vt 0.71781212 0.96947408
vt 0.72913522 0.26401100
vt 0.71781212 0.96947408
vt 0.72913522 0.41677931
vt 0.72867107 0.41928521
vt 0.72867107 0.26150510
vt 0.72867107 0.26150510
vt 0.72867107 0.41928521
vt 0.72328812 0.41807869
vt 0.72328812 0.41807869
vt 0.71781212 0.96418393
vt 0.71781212 0.96418393
vt 0.72403061 0.41566560
f 1/1/1 2/2/2 3/3/3
f 2/2/2 4/4/4 3/3/3
f 3/3/3 4/4/4 5/5/5
f 4/4/4 6/6/6 5/5/5
f 5/5/5 6/6/6 7/7/7
f 6/6/6 8/8/8 7/7/7
f 7/7/7 8/8/8 10/10/10
f 11/11/11 9/9/9 12/12/12
f 9/9/9 13/13/13 12/12/12
f 12/12/12 13/13/13 14/14/14
f 13/13/13 15/15/15 14/14/14
f 14/14/14 15/15/15 16/16/16
f 17/17/17 16/16/16 18/18/18
f 16/16/16 15/15/15 18/18/18
f 18/18/18 15/15/15 19/19/19
f 19/19/19 15/15/15 20/20/20
f 15/15/15 13/13/13 20/20/20
f 20/20/20 13/13/13 21/21/21
f 21/21/21 13/13/13 22/22/22
f 13/13/13 9/9/9 22/22/22
f 8/8/8 6/6/6 23/23/23
f 23/23/23 6/6/6 24/24/24
f 24/24/24 6/6/6 25/25/25
f 6/6/6 4/4/4 25/25/25
f 25/25/25 4/4/4 26/26/26
f 4/4/4 2/2/2 26/26/26
f 26/26/26 2/2/2 27/27/27
f 27/27/27 2/2/2 28/28/28
f 2/2/2 1/1/1 28/28/28
f 28/28/28 1/1/1 29/29/29
f 30/30/30 29/29/29 35/35/35
f 29/29/29 1/1/1 35/35/35
f 35/35/35 1/1/1 38/38/38
f 1/1/1 3/3/3 38/38/38
f 38/38/38 3/3/3 39/39/39
f 3/3/3 5/5/5 39/39/39
f 39/39/39 5/5/5 43/43/43
f 5/5/5 7/7/7 43/43/43
f 43/43/43 7/7/7 45/45/45
f 7/7/7 10/10/10 45/45/45
f 45/45/45 10/10/10 46/46/46
f 47/47/47 11/11/11 50/50/50
f 11/11/11 12/12/12 50/50/50
f 50/50/50 12/12/12 51/51/51
f 12/12/12 14/14/14 51/51/51
f 51/51/51 14/14/14 54/54/54
f 14/14/14 16/16/16 54/54/54
f 54/54/54 16/16/16 57/57/57
f 16/16/16 17/17/17 57/57/57
f 57/57/57 17/17/17 61/61/61
f 64/64/64 61/61/61 66/66/66
f 61/61/61 17/17/17 66/66/66
f 66/66/66 17/17/17 67/67/67
f 17/17/17 18/18/18 67/67/67
f 67/67/67 18/18/18 68/68/68
f 18/18/18 19/19/19 68/68/68
f 69/69/69 68/68/68 70/70/70
f 68/68/68 19/19/19 70/70/70
f 70/70/70 19/19/19 71/71/71
f 19/19/19 20/20/20 71/71/71
f 71/71/71 20/20/20 72/72/72
f 20/20/20 21/21/21 72/72/72
f 72/72/72 21/21/21 73/73/73
f 73/73/73 21/21/21 74/74/74
f 21/21/21 22/22/22 74/74/74
f 23/23/23 24/24/24 75/75/75
f 75/75/75 24/24/24 76/76/76
f 76/76/76 24/24/24 77/77/77
f 24/24/24 25/25/25 77/77/77
f 77/77/77 25/25/25 78/78/78
f 25/25/25 26/26/26 78/78/78
f 78/78/78 26/26/26 79/79/79
f 26/26/26 27/27/27 79/79/79
f 79/79/79 27/27/27 80/80/80
f 81/81/81 80/80/80 82/82/82
f 80/80/80 27/27/27 82/82/82
f 27/27/27 28/28/28 82/82/82
f 82/82/82 28/28/28 83/83/83
f 28/28/28 29/29/29 83/83/83
f 83/83/83 29/29/29 84/84/84
f 29/29/29 30/30/30 84/84/84
f 84/84/84 30/30/30 86/86/86
f 87/87/87 31/31/31 98/98/98
f 32/32/32 34/34/34 99/99/99
f 33/33/33 37/37/37 96/96/96
f 36/36/36 41/41/41 93/93/93
f 40/40/40 42/42/42 99/99/99
f 42/42/42 44/44/44 99/99/99
f 44/44/44 48/48/48 99/99/99
f 48/48/48 49/49/49 99/99/99
f 49/49/49 52/52/52 99/99/99
f 53/53/53 55/55/55 90/90/90
f 56/56/56 59/59/59 93/93/93
f 58/58/58 62/62/62 99/99/99
f 60/60/60 63/63/63 95/95/95
f 89/89/89 65/65/65 101/101/101
f 100/100/100 64/64/64 103/103/103
f 64/64/64 66/66/66 103/103/103
f 103/103/103 66/66/66 104/104/104
f 66/66/66 67/67/67 104/104/104
f 104/104/104 67/67/67 105/105/105
f 67/67/67 68/68/68 105/105/105
f 68/68/68 69/69/69 105/105/105
f 105/105/105 69/69/69 106/106/106
f 108/108/108 106/106/106 109/109/109
f 106/106/106 69/69/69 109/109/109
f 109/109/109 69/69/69 112/112/112
f 69/69/69 70/70/70 112/112/112
f 112/112/112 70/70/70 117/117/117
f 70/70/70 71/71/71 117/117/117
f 117/117/117 71/71/71 118/118/118
f 71/71/71 72/72/72 118/118/118
f 118/118/118 72/72/72 121/121/121
f 72/72/72 73/73/73 121/121/121
f 121/121/121 73/73/73 124/124/124
f 124/124/124 73/73/73 128/128/128
f 73/73/73 74/74/74 128/128/128
f 75/75/75 76/76/76 129/129/129
f 129/129/129 76/76/76 132/132/132
f 132/132/132 76/76/76 136/136/136
f 76/76/76 77/77/77 136/136/136
f 136/136/136 77/77/77 137/137/137
f 77/77/77 78/78/78 137/137/137
f 137/137/137 78/78/78 142/142/142
f 78/78/78 79/79/79 142/142/142
f 142/142/142 79/79/79 144/144/144
f 79/79/79 80/80/80 144/144/144
f 144/144/144 80/80/80 145/145/145
f 80/80/80 81/81/81 145/145/145
f 145/145/145 81/81/81 148/148/148
f 150/150/150 148/148/148 152/152/152
f 152/152/152 148/148/148 153/153/153
f 148/148/148 81/81/81 153/153/153
f 153/153/153 81/81/81 154/154/154
f 81/81/81 82/82/82 154/154/154
f 82/82/82 83/83/83 154/154/154
f 154/154/154 83/83/83 155/155/155
f 83/83/83 84/84/84 155/155/155
f 155/155/155 84/84/84 156/156/156
f 84/84/84 86/86/86 156/156/156
f 156/156/156 86/86/86 157/157/157
f 85/85/85 99/99/99 158/158/158
f 158/158/158 99/99/99 160/160/160
f 160/160/160 99/99/99 161/161/161
f 161/161/161 99/99/99 163/163/163
f 165/165/165 91/91/91 167/167/167
f 166/166/166 99/99/99 170/170/170
f 169/169/169 92/92/92 174/174/174
f 172/172/172 88/88/88 176/176/176
f 175/175/175 99/99/99 179/179/179
f 179/179/179 99/99/99 181/181/181
f 181/181/181 99/99/99 182/182/182
f 182/182/182 99/99/99 184/184/184
f 184/184/184 99/99/99 186/186/186
f 188/188/188 97/97/97 190/190/190
f 191/191/191 88/88/88 192/192/192
f 194/194/194 99/99/99 196/196/196
f 195/195/195 94/94/94 200/200/200
f 199/199/199 99/99/99 202/202/202
f 202/202/202 99/99/99 204/204/204
f 204/204/204 99/99/99 206/206/206
f 206/206/206 99/99/99 207/207/207
f 99/99/99 102/102/102 207/207/207
f 208/208/208 100/100/100 209/209/209
f 100/100/100 103/103/103 209/209/209
f 209/209/209 103/103/103 210/210/210
f 103/103/103 104/104/104 210/210/210
f 210/210/210 104/104/104 211/211/211
f 104/104/104 105/105/105 211/211/211
f 105/105/105 106/106/106 211/211/211
f 211/211/211 106/106/106 212/212/212
f 106/106/106 108/108/108 212/212/212
f 212/212/212 108/108/108 213/213/213
f 108/108/108 216/216/216 213/213/213
f 217/217/217 213/213/213 219/219/219
f 213/213/213 216/216/216 219/219/219
f 218/218/218 214/214/214 236/236/236
f 215/215/215 107/107/107 246/246/246
f 107/107/107 110/110/110 246/246/246
f 111/111/111 114/114/114 244/244/244
f 113/113/113 116/116/116 246/246/246
f 115/115/115 119/119/119 243/243/243
f 120/120/120 122/122/122 242/242/242
f 123/123/123 126/126/126 241/241/241
f 125/125/125 130/130/130 240/240/240
f 127/127/127 131/131/131 238/238/238
f 133/133/133 134/134/134 237/237/237
f 135/135/135 139/139/139 223/223/223
f 138/138/138 141/141/141 235/235/235
f 140/140/140 143/143/143 246/246/246
f 143/143/143 146/146/146 246/246/246
f 146/146/146 147/147/147 246/246/246
f 147/147/147 151/151/151 246/246/246
f 239/239/239 149/149/149 247/247/247
f 150/150/150 152/152/152 249/249/249
f 249/249/249 152/152/152 250/250/250
f 251/251/251 250/250/250 252/252/252
f 250/250/250 152/152/152 252/252/252
f 152/152/152 153/153/153 252/252/252
f 252/252/252 153/153/153 253/253/253
f 153/153/153 154/154/154 253/253/253
f 154/154/154 155/155/155 253/253/253
f 253/253/253 155/155/155 254/254/254
f 155/155/155 156/156/156 254/254/254
f 254/254/254 156/156/156 255/255/255
f 156/156/156 157/157/157 255/255/255
f 255/255/255 157/157/157 256/256/256
f 157/157/157 159/159/159 256/256/256
f 256/256/256 159/159/159 257/257/257
f 159/159/159 162/162/162 257/257/257
f 257/257/257 162/162/162 258/258/258
f 162/162/162 164/164/164 258/258/258
f 258/258/258 164/164/164 259/259/259
f 164/164/164 168/168/168 259/259/259
f 259/259/259 168/168/168 260/260/260
f 168/168/168 171/171/171 260/260/260
f 260/260/260 171/171/171 261/261/261
f 171/171/171 173/173/173 261/261/261
f 261/261/261 173/173/173 262/262/262
f 173/173/173 177/177/177 262/262/262
f 262/262/262 177/177/177 263/263/263
f 177/177/177 178/178/178 263/263/263
f 263/263/263 178/178/178 264/264/264
f 178/178/178 180/180/180 264/264/264
f 264/264/264 180/180/180 265/265/265
f 180/180/180 183/183/183 265/265/265
f 183/183/183 185/185/185 265/265/265
f 265/265/265 185/185/185 266/266/266
f 185/185/185 187/187/187 266/266/266
f 266/266/266 187/187/187 267/267/267
f 187/187/187 189/189/189 267/267/267
f 267/267/267 189/189/189 268/268/268
f 189/189/189 193/193/193 268/268/268
f 268/268/268 193/193/193 269/269/269
f 193/193/193 197/197/197 269/269/269
f 269/269/269 197/197/197 270/270/270
f 197/197/197 198/198/198 270/270/270
f 270/270/270 198/198/198 271/271/271
f 198/198/198 201/201/201 271/271/271
f 271/271/271 201/201/201 272/272/272
f 201/201/201 203/203/203 272/272/272
f 272/272/272 203/203/203 273/273/273
f 203/203/203 205/205/205 273/273/273
f 273/273/273 205/205/205 274/274/274
f 205/205/205 208/208/208 274/274/274
f 274/274/274 208/208/208 275/275/275
f 208/208/208 209/209/209 275/275/275
f 275/275/275 209/209/209 276/276/276
f 209/209/209 210/210/210 276/276/276
f 276/276/276 210/210/210 277/277/277
f 210/210/210 211/211/211 277/277/277
f 211/211/211 212/212/212 277/277/277
f 277/277/277 212/212/212 278/278/278
f 212/212/212 213/213/213 278/278/278
f 213/213/213 217/217/217 278/278/278
f 278/278/278 217/217/217 279/279/279
f 279/279/279 217/217/217 280/280/280
f 280/280/280 217/217/217 281/281/281
f 217/217/217 219/219/219 281/281/281
f 281/281/281 219/219/219 284/284/284
f 220/220/220 228/228/228 283/283/283
f 282/282/282 232/232/232 286/286/286
f 287/287/287 245/245/245 289/289/289
f 290/290/290 231/231/231 291/291/291
f 293/293/293 230/230/230 295/295/295
f 294/294/294 229/229/229 298/298/298
f 297/297/297 227/227/227 301/301/301
f 302/302/302 226/226/226 304/304/304
f 306/306/306 225/225/225 309/309/309
f 308/308/308 224/224/224 311/311/311
f 312/312/312 222/222/222 314/314/314
f 315/315/315 233/233/233 317/317/317
f 318/318/318 221/221/221 319/319/319
f 234/234/234 248/248/248 320/320/320
f 321/321/321 249/249/249 322/322/322
f 249/249/249 250/250/250 322/322/322
f 322/322/322 250/250/250 323/323/323
f 250/250/250 251/251/251 323/323/323
f 323/323/323 251/251/251 324/324/324
f 324/324/324 251/251/251 325/325/325
f 325/325/325 251/251/251 326/326/326
f 251/251/251 252/252/252 326/326/326
f 252/252/252 253/253/253 326/326/326
f 253/253/253 254/254/254 326/326/326
f 254/254/254 255/255/255 326/326/326
f 255/255/255 256/256/256 326/326/326
f 326/326/326 256/256/256 327/327/327
f 256/256/256 257/257/257 327/327/327
f 327/327/327 257/257/257 328/328/328
f 257/257/257 258/258/258 328/328/328
f 328/328/328 258/258/258 329/329/329
f 258/258/258 259/259/259 329/329/329
f 329/329/329 259/259/259 330/330/330
f 259/259/259 260/260/260 330/330/330
f 330/330/330 260/260/260 331/331/331
f 260/260/260 261/261/261 331/331/331
f 331/331/331 261/261/261 332/332/332
f 261/261/261 262/262/262 332/332/332
f 332/332/332 262/262/262 333/333/333
f 262/262/262 263/263/263 333/333/333
f 333/333/333 263/263/263 334/334/334
f 263/263/263 264/264/264 334/334/334
f 334/334/334 264/264/264 335/335/335
f 264/264/264 265/265/265 335/335/335
f 335/335/335 265/265/265 336/336/336
f 336/336/336 265/265/265 337/337/337
f 265/265/265 266/266/266 337/337/337
f 337/337/337 266/266/266 338/338/338
f 266/266/266 267/267/267 338/338/338
f 338/338/338 267/267/267 339/339/339
f 267/267/267 268/268/268 339/339/339
f 339/339/339 268/268/268 340/340/340
f 268/268/268 269/269/269 340/340/340
f 340/340/340 269/269/269 341/341/341
f 269/269/269 270/270/270 341/341/341
f 341/341/341 270/270/270 342/342/342
f 270/270/270 271/271/271 342/342/342
f 342/342/342 271/271/271 343/343/343
f 271/271/271 272/272/272 343/343/343
f 343/343/343 272/272/272 344/344/344
f 272/272/272 273/273/273 344/344/344
f 344/344/344 273/273/273 345/345/345
f 273/273/273 274/274/274 345/345/345
f 345/345/345 274/274/274 346/346/346
f 274/274/274 275/275/275 346/346/346
f 275/275/275 276/276/276 346/346/346
f 276/276/276 277/277/277 346/346/346
f 277/277/277 278/278/278 346/346/346
f 278/278/278 279/279/279 346/346/346
f 346/346/346 279/279/279 347/347/347
f 347/347/347 279/279/279 348/348/348
f 279/279/279 280/280/280 348/348/348
f 348/348/348 280/280/280 349/349/349
f 349/349/349 280/280/280 350/350/350
f 280/280/280 281/281/281 350/350/350
f 350/350/350 281/281/281 351/351/351
f 281/281/281 284/284/284 351/351/351
f 284/284/284 285/285/285 351/351/351
f 351/351/351 285/285/285 352/352/352
f 285/285/285 288/288/288 352/352/352
f 352/352/352 288/288/288 353/353/353
f 288/288/288 292/292/292 353/353/353
f 353/353/353 292/292/292 354/354/354
f 292/292/292 296/296/296 354/354/354
f 354/354/354 296/296/296 355/355/355
f 296/296/296 299/299/299 355/355/355
f 299/299/299 303/303/303 355/355/355
f 355/355/355 303/303/303 356/356/356
f 357/357/357 300/300/300 358/358/358
f 300/300/300 305/305/305 358/358/358
f 305/305/305 307/307/307 358/358/358
f 358/358/358 307/307/307 359/359/359
f 307/307/307 310/310/310 359/359/359
f 359/359/359 310/310/310 360/360/360
f 310/310/310 313/313/313 360/360/360
f 360/360/360 313/313/313 361/361/361
f 313/313/313 316/316/316 361/361/361
f 361/361/361 316/316/316 362/362/362
f 316/316/316 321/321/321 362/362/362
f 321/321/321 322/322/322 362/362/362
f 362/362/362 322/322/322 363/363/363
f 322/322/322 323/323/323 363/363/363
f 363/363/363 323/323/323 364/364/364
f 323/323/323 324/324/324 364/364/364
f 365/365/365 364/364/364 366/366/366
f 364/364/364 324/324/324 366/366/366
f 366/366/366 324/324/324 367/367/367
f 324/324/324 325/325/325 367/367/367
f 367/367/367 325/325/325 368/368/368
f 325/325/325 326/326/326 368/368/368
f 326/326/326 327/327/327 368/368/368
f 368/368/368 327/327/327 369/369/369
f 327/327/327 328/328/328 369/369/369
f 369/369/369 328/328/328 370/370/370
f 370/370/370 328/328/328 371/371/371
f 328/328/328 329/329/329 371/371/371
f 371/371/371 329/329/329 372/372/372
f 329/329/329 330/330/330 372/372/372
f 372/372/372 330/330/330 373/373/373
f 330/330/330 331/331/331 373/373/373
f 373/373/373 331/331/331 374/374/374
f 331/331/331 332/332/332 374/374/374
f 374/374/374 332/332/332 375/375/375
f 332/332/332 333/333/333 375/375/375
f 375/375/375 333/333/333 376/376/376
f 333/333/333 334/334/334 376/376/376
f 376/376/376 334/334/334 377/377/377
f 334/334/334 335/335/335 377/377/377
f 377/377/377 335/335/335 378/378/378
f 335/335/335 336/336/336 378/378/378
f 336/336/336 337/337/337 378/378/378
f 378/378/378 337/337/337 379/379/379
f 337/337/337 338/338/338 379/379/379
f 379/379/379 338/338/338 380/380/380
f 338/338/338 339/339/339 380/380/380
f 380/380/380 339/339/339 381/381/381
f 339/339/339 340/340/340 381/381/381
f 381/381/381 340/340/340 382/382/382
f 340/340/340 341/341/341 382/382/382
f 382/382/382 341/341/341 383/383/383
f 341/341/341 342/342/342 383/383/383
f 383/383/383 342/342/342 384/384/384
f 342/342/342 343/343/343 384/384/384
f 384/384/384 343/343/343 385/385/385
f 343/343/343 344/344/344 385/385/385
f 385/385/385 344/344/344 386/386/386
f 386/386/386 344/344/344 387/387/387
f 344/344/344 345/345/345 387/387/387
f 387/387/387 345/345/345 388/388/388
f 345/345/345 346/346/346 388/388/388
f 346/346/346 347/347/347 388/388/388
f 388/388/388 347/347/347 389/389/389
f 347/347/347 348/348/348 389/389/389
f 389/389/389 348/348/348 390/390/390
f 348/348/348 349/349/349 390/390/390
f 390/390/390 349/349/349 391/391/391
f 392/392/392 391/391/391 393/393/393
f 391/391/391 349/349/349 393/393/393
f 349/349/349 350/350/350 393/393/393
f 393/393/393 350/350/350 394/394/394
f 350/350/350 351/351/351 394/394/394
f 351/351/351 352/352/352 394/394/394
f 394/394/394 352/352/352 395/395/395
f 352/352/352 353/353/353 395/395/395
f 395/395/395 353/353/353 396/396/396
f 353/353/353 354/354/354 396/396/396
f 396/396/396 354/354/354 397/397/397
f 354/354/354 355/355/355 397/397/397
f 355/355/355 356/356/356 397/397/397
f 397/397/397 356/356/356 398/398/398
f 399/399/399 357/357/357 400/400/400
f 357/357/357 358/358/358 400/400/400
f 358/358/358 359/359/359 400/400/400
f 400/400/400 359/359/359 401/401/401
f 359/359/359 360/360/360 401/401/401
f 401/401/401 360/360/360 402/402/402
f 360/360/360 361/361/361 402/402/402
f 402/402/402 361/361/361 403/403/403
f 361/361/361 362/362/362 403/403/403
f 362/362/362 363/363/363 403/403/403
f 403/403/403 363/363/363 404/404/404
f 363/363/363 364/364/364 404/404/404
f 364/364/364 365/365/365 404/404/404
f 404/404/404 365/365/365 405/405/405
f 407/407/407 405/405/405 408/408/408
f 405/405/405 365/365/365 408/408/408
f 408/408/408 365/365/365 410/410/410
f 365/365/365 366/366/366 410/410/410
f 410/410/410 366/366/366 412/412/412
f 366/366/366 367/367/367 412/412/412
f 412/412/412 367/367/367 414/414/414
f 367/367/367 368/368/368 414/414/414
f 414/414/414 368/368/368 416/416/416
f 368/368/368 369/369/369 416/416/416
f 416/416/416 369/369/369 419/419/419
f 369/369/369 370/370/370 419/419/419
f 419/419/419 370/370/370 420/420/420
f 370/370/370 371/371/371 420/420/420
f 420/420/420 371/371/371 422/422/422
f 371/371/371 372/372/372 422/422/422
f 422/422/422 372/372/372 424/424/424
f 372/372/372 373/373/373 424/424/424
f 424/424/424 373/373/373 426/426/426
f 373/373/373 374/374/374 426/426/426
f 426/426/426 374/374/374 428/428/428
f 374/374/374 375/375/375 428/428/428
f 428/428/428 375/375/375 430/430/430
f 375/375/375 376/376/376 430/430/430
f 430/430/430 376/376/376 433/433/433
f 376/376/376 377/377/377 433/433/433
f 433/433/433 377/377/377 434/434/434
f 377/377/377 378/378/378 434/434/434
f 378/378/378 379/379/379 434/434/434
f 434/434/434 379/379/379 437/437/437
f 379/379/379 380/380/380 437/437/437
f 437/437/437 380/380/380 439/439/439
f 380/380/380 381/381/381 439/439/439
f 439/439/439 381/381/381 441/441/441
f 381/381/381 382/382/382 441/441/441
f 441/441/441 382/382/382 443/443/443
f 382/382/382 383/383/383 443/443/443
f 443/443/443 383/383/383 445/445/445
f 383/383/383 384/384/384 445/445/445
f 445/445/445 384/384/384 447/447/447
f 384/384/384 385/385/385 447/447/447
f 447/447/447 385/385/385 448/448/448
f 385/385/385 386/386/386 448/448/448
f 448/448/448 386/386/386 451/451/451
f 386/386/386 387/387/387 451/451/451
f 451/451/451 387/387/387 452/452/452
f 387/387/387 388/388/388 452/452/452
f 452/452/452 388/388/388 454/454/454
f 388/388/388 389/389/389 454/454/454
f 454/454/454 389/389/389 456/456/456
f 389/389/389 390/390/390 456/456/456
f 456/456/456 390/390/390 459/459/459
f 390/390/390 391/391/391 459/459/459
f 459/459/459 391/391/391 460/460/460
f 391/391/391 392/392/392 460/460/460
f 460/460/460 392/392/392 463/463/463
f 463/463/463 392/392/392 464/464/464
f 464/464/464 392/392/392 466/466/466
f 466/466/466 392/392/392 467/467/467
f 392/392/392 393/393/393 467/467/467
f 393/393/393 394/394/394 467/467/467
f 394/394/394 395/395/395 467/467/467
f 467/467/467 395/395/395 468/468/468
f 395/395/395 396/396/396 468/468/468
f 468/468/468 396/396/396 469/469/469
f 396/396/396 397/397/397 469/469/469
f 397/397/397 398/398/398 469/469/469
f 469/469/469 398/398/398 470/470/470
f 471/471/471 399/399/399 472/472/472
f 399/399/399 400/400/400 472/472/472
f 400/400/400 401/401/401 472/472/472
f 472/472/472 401/401/401 473/473/473
f 401/401/401 402/402/402 473/473/473
f 473/473/473 402/402/402 474/474/474
f 402/402/402 403/403/403 474/474/474
f 403/403/403 404/404/404 474/474/474
f 404/404/404 405/405/405 474/474/474
f 474/474/474 405/405/405 475/475/475
f 475/475/475 405/405/405 477/477/477
f 405/405/405 407/407/407 477/477/477
f 476/476/476 406/406/406 479/479/479
f 479/479/479 406/406/406 480/480/480
f 406/406/406 409/409/409 480/480/480
f 480/480/480 409/409/409 482/482/482
f 409/409/409 411/411/411 482/482/482
f 482/482/482 411/411/411 484/484/484
f 411/411/411 413/413/413 484/484/484
f 484/484/484 413/413/413 487/487/487
f 413/413/413 415/415/415 487/487/487
f 487/487/487 415/415/415 488/488/488
f 415/415/415 417/417/417 488/488/488
f 488/488/488 417/417/417 490/490/490
f 417/417/417 418/418/418 490/490/490
f 490/490/490 418/418/418 492/492/492
f 418/418/418 421/421/421 492/492/492
f 492/492/492 421/421/421 495/495/495
f 421/421/421 423/423/423 495/495/495
f 495/495/495 423/423/423 497/497/497
f 423/423/423 425/425/425 497/497/497
f 497/497/497 425/425/425 499/499/499
f 425/425/425 427/427/427 499/499/499
f 499/499/499 427/427/427 501/501/501
f 427/427/427 429/429/429 501/501/501
f 501/501/501 429/429/429 503/503/503
f 429/429/429 431/431/431 503/503/503
f 503/503/503 431/431/431 505/505/505
f 431/431/431 432/432/432 505/505/505
f 505/505/505 432/432/432 507/507/507
f 432/432/432 435/435/435 507/507/507
f 507/507/507 435/435/435 509/509/509
f 435/435/435 436/436/436 509/509/509
f 509/509/509 436/436/436 510/510/510
f 436/436/436 438/438/438 510/510/510
f 510/510/510 438/438/438 512/512/512
f 438/438/438 440/440/440 512/512/512
f 512/512/512 440/440/440 515/515/515
f 440/440/440 442/442/442 515/515/515
f 515/515/515 442/442/442 516/516/516
f 442/442/442 444/444/444 516/516/516
f 516/516/516 444/444/444 518/518/518
f 444/444/444 446/446/446 518/518/518
f 518/518/518 446/446/446 520/520/520
f 446/446/446 449/449/449 520/520/520
f 520/520/520 449/449/449 523/523/523
f 449/449/449 450/450/450 523/523/523
f 523/523/523 450/450/450 524/524/524
f 450/450/450 453/453/453 524/524/524
f 524/524/524 453/453/453 527/527/527
f 453/453/453 455/455/455 527/527/527
f 527/527/527 455/455/455 529/529/529
f 455/455/455 457/457/457 529/529/529
f 529/529/529 457/457/457 530/530/530
f 457/457/457 458/458/458 530/530/530
f 530/530/530 458/458/458 533/533/533
f 458/458/458 461/461/461 533/533/533
f 533/533/533 461/461/461 534/534/534
f 461/461/461 462/462/462 534/534/534
f 534/534/534 462/462/462 537/537/537
f 462/462/462 465/465/465 537/537/537
f 537/537/537 465/465/465 538/538/538
f 538/538/538 465/465/465 540/540/540
f 464/464/464 466/466/466 541/541/541
f 541/541/541 466/466/466 542/542/542
f 466/466/466 467/467/467 542/542/542
f 467/467/467 468/468/468 542/542/542
f 542/542/542 468/468/468 543/543/543
f 468/468/468 469/469/469 543/543/543
f 543/543/543 469/469/469 545/545/545
f 469/469/469 470/470/470 545/545/545
f 471/471/471 472/472/472 544/544/544
f 544/544/544 472/472/472 546/546/546
f 472/472/472 473/473/473 546/546/546
f 546/546/546 473/473/473 547/547/547
f 473/473/473 474/474/474 547/547/547
f 474/474/474 475/475/475 547/547/547
f 547/547/547 475/475/475 549/549/549
f 475/475/475 477/477/477 549/549/549
f 548/548/548 476/476/476 551/551/551
f 476/476/476 479/479/479 551/551/551
f 550/550/550 478/478/478 552/552/552
f 552/552/552 478/478/478 555/555/555
f 478/478/478 481/481/481 555/555/555
f 555/555/555 481/481/481 560/560/560
f 481/481/481 483/483/483 560/560/560
f 560/560/560 483/483/483 561/561/561
f 483/483/483 485/485/485 561/561/561
f 561/561/561 485/485/485 565/565/565
f 485/485/485 486/486/486 565/565/565
f 565/565/565 486/486/486 568/568/568
f 486/486/486 489/489/489 568/568/568
f 568/568/568 489/489/489 570/570/570
f 489/489/489 491/491/491 570/570/570
f 570/570/570 491/491/491 574/574/574
f 491/491/491 493/493/493 574/574/574
f 574/574/574 493/493/493 578/578/578
f 493/493/493 494/494/494 578/578/578
f 578/578/578 494/494/494 581/581/581
f 494/494/494 496/496/496 581/581/581
f 581/581/581 496/496/496 583/583/583
f 496/496/496 498/498/498 583/583/583
f 583/583/583 498/498/498 585/585/585
f 585/585/585 498/498/498 590/590/590
f 498/498/498 500/500/500 590/590/590
f 590/590/590 500/500/500 591/591/591
f 500/500/500 502/502/502 591/591/591
f 591/591/591 502/502/502 594/594/594
f 502/502/502 504/504/504 594/594/594
f 504/504/504 506/506/506 594/594/594
f 594/594/594 506/506/506 597/597/597
f 597/597/597 506/506/506 602/602/602
f 506/506/506 508/508/508 602/602/602
f 508/508/508 511/511/511 602/602/602
f 602/602/602 511/511/511 605/605/605
f 511/511/511 513/513/513 605/605/605
f 605/605/605 513/513/513 606/606/606
f 513/513/513 514/514/514 606/606/606
f 606/606/606 514/514/514 611/611/611
f 611/611/611 514/514/514 612/612/612
f 514/514/514 517/517/517 612/612/612
f 612/612/612 517/517/517 617/617/617
f 517/517/517 519/519/519 617/617/617
f 617/617/617 519/519/519 619/619/619
f 519/519/519 521/521/521 619/619/619
f 619/619/619 521/521/521 623/623/623
f 521/521/521 522/522/522 623/623/623
f 623/623/623 522/522/522 625/625/625
f 522/522/522 525/525/525 625/625/625
f 625/625/625 525/525/525 628/628/628
f 525/525/525 526/526/526 628/628/628
f 628/628/628 526/526/526 632/632/632
f 526/526/526 528/528/528 632/632/632
f 632/632/632 528/528/528 635/635/635
f 528/528/528 531/531/531 635/635/635
f 635/635/635 531/531/531 638/638/638
f 531/531/531 532/532/532 638/638/638
f 638/638/638 532/532/532 641/641/641
f 532/532/532 535/535/535 641/641/641
f 641/641/641 535/535/535 644/644/644
f 535/535/535 536/536/536 644/644/644
f 644/644/644 536/536/536 645/645/645
f 536/536/536 539/539/539 645/645/645
f 645/645/645 539/539/539 650/650/650
f 650/650/650 539/539/539 652/652/652
f 538/538/538 540/540/540 651/651/651
f 651/651/651 540/540/540 653/653/653
f 541/541/541 542/542/542 654/654/654
f 542/542/542 543/543/543 654/654/654
f 654/654/654 543/543/543 655/655/655
f 543/543/543 545/545/545 655/655/655
f 544/544/544 546/546/546 657/657/657
f 657/657/657 546/546/546 659/659/659
f 546/546/546 547/547/547 659/659/659
f 547/547/547 549/549/549 659/659/659
f 660/660/660 548/548/548 661/661/661
f 548/548/548 551/551/551 661/661/661
f 662/662/662 550/550/550 663/663/663
f 550/550/550 552/552/552 663/663/663
f 664/664/664 553/553/553 678/678/678
f 554/554/554 557/557/557 679/679/679
f 556/556/556 559/559/559 680/680/680
f 558/558/558 563/563/563 681/681/681
f 562/562/562 566/566/566 682/682/682
f 564/564/564 569/569/569 689/689/689
f 567/567/567 572/572/572 684/684/684
f 571/571/571 575/575/575 685/685/685
f 573/573/573 576/576/576 686/686/686
f 577/577/577 579/579/579 687/687/687
f 580/580/580 582/582/582 688/688/688
f 584/584/584 586/586/586 699/699/699
f 587/587/587 588/588/588 690/690/690
f 589/589/589 592/592/592 691/691/691
f 593/593/593 595/595/595 692/692/692
f 596/596/596 598/598/598 693/693/693
f 599/599/599 600/600/600 694/694/694
f 601/601/601 604/604/604 695/695/695
f 603/603/603 608/608/608 676/676/676
f 607/607/607 610/610/610 696/696/696
f 609/609/609 614/614/614 698/698/698
f 613/613/613 615/615/615 701/701/701
f 616/616/616 618/618/618 700/700/700
f 620/620/620 621/621/621 697/697/697
f 622/622/622 626/626/626 677/677/677
f 624/624/624 629/629/629 683/683/683
f 627/627/627 631/631/631 666/666/666
f 630/630/630 634/634/634 669/669/669
f 633/633/633 636/636/636 667/667/667
f 637/637/637 640/640/640 672/672/672
f 639/639/639 643/643/643 675/675/675
f 642/642/642 646/646/646 674/674/674
f 647/647/647 649/649/649 670/670/670
f 671/671/671 648/648/648 702/702/702
f 703/703/703 650/650/650 708/708/708
f 650/650/650 652/652/652 708/708/708
f 651/651/651 653/653/653 707/707/707
f 653/653/653 658/658/658 707/707/707
f 706/706/706 656/656/656 711/711/711
f 656/656/656 660/660/660 711/711/711
f 660/660/660 661/661/661 711/711/711
f 710/710/710 662/662/662 714/714/714
f 662/662/662 663/663/663 714/714/714
f 665/665/665 673/673/673 712/712/712
f 668/668/668 704/704/704 713/713/713
f 705/705/705 709/709/709 714/714/714
f 710/710/710 714/714/714 709/709/709

