mtllib wrist2.mtl
usemtl Rubber_Black_002_COLOR_0
v 0.02248292 0.07181910 0.02520642
v 0.02248292 0.07181910 0.02520642
v 0.02248292 0.05305550 0.02520643
v 0.02248292 0.05305550 0.02520643
v 0.01537924 0.07181910 0.02189603
v 0.01537924 0.07181910 0.02189603
v 0.01537924 0.05305550 0.02189604
v 0.01537924 0.05305550 0.02189604
v 0.00780897 0.07181910 0.01986495
v 0.00780897 0.07181910 0.01986495
v 0.00780897 0.05305550 0.01986496
v 0.00780897 0.05305550 0.01986496
v 0.00000270 0.07181910 0.01918414
v 0.00000270 0.07181910 0.01918414
v 0.00000270 0.07181910 0.01918414
v 0.00000270 0.05305550 0.01918415
v 0.00000270 0.05305550 0.01918415
v 0.00000270 0.05305550 0.01918415
v -0.00780906 0.05305550 0.01986497
v -0.00780906 0.05305550 0.01986497
v -0.00780906 0.07181910 0.01986496
v -0.00780906 0.07181910 0.01986496
v -0.01537931 0.05305550 0.02189605
v -0.01537931 0.05305550 0.02189605
v -0.01537931 0.07181910 0.02189604
v -0.01537931 0.07181910 0.02189604
v -0.02248300 0.05305550 0.02520644
v -0.02248300 0.05305550 0.02520644
v -0.02248300 0.07181910 0.02520643
v -0.02248300 0.07181910 0.02520643
v -0.02890587 0.05305551 0.02970241
v -0.02890587 0.05305551 0.02970241
v -0.02890587 0.07181910 0.02970240
v -0.02890587 0.07181910 0.02970240
v -0.03445054 0.05305551 0.03524703
v -0.03445054 0.05305551 0.03524703
v -0.03445054 0.07181911 0.03524702
v -0.03445054 0.07181911 0.03524702
v -0.03894651 0.05305551 0.04166990
v -0.03894651 0.05305551 0.04166990
v -0.03894651 0.05305551 0.04166990
v -0.03894651 0.07181911 0.04166989
v -0.03894651 0.07181911 0.04166989
v -0.04225683 0.05305552 0.04877364
v -0.04225683 0.05305552 0.04877364
v -0.04225683 0.05305552 0.04877364
v -0.04225683 0.07181912 0.04877363
v -0.04225683 0.07181912 0.04877363
v -0.04428797 0.05305552 0.05634391
v -0.04428797 0.05305552 0.05634391
v -0.04428797 0.07181912 0.05634389
v -0.04428797 0.07181912 0.05634389
v -0.04496872 0.05305552 0.06415564
v -0.04496872 0.05305552 0.06415564
v -0.04496872 0.07181913 0.06415562
v -0.04496872 0.07181913 0.06415562
v -0.04428796 0.05305553 0.07196187
v -0.04428796 0.05305553 0.07196187
v -0.04428796 0.07181913 0.07196186
v -0.04428796 0.07181913 0.07196186
v -0.04225682 0.05305554 0.07953214
v -0.04225682 0.05305554 0.07953214
v -0.04225682 0.05305554 0.07953214
v -0.04225682 0.07181913 0.07953213
v -0.04225682 0.07181913 0.07953213
v -0.03894649 0.05305554 0.08663587
v -0.03894649 0.05305554 0.08663587
v -0.03894649 0.05305554 0.08663587
v -0.03894649 0.07181914 0.08663587
v -0.03894649 0.07181914 0.08663587
v -0.03445052 0.05305554 0.09305874
v -0.03445052 0.05305554 0.09305874
v -0.03445052 0.07181914 0.09305874
v -0.03445052 0.07181914 0.09305874
v -0.03445052 0.07181914 0.09305874
v -0.02890585 0.05305555 0.09860335
v -0.02890585 0.05305555 0.09860335
v -0.02890585 0.07182469 0.09860335
v -0.02890585 0.07182469 0.09860335
v -0.02890585 0.07182469 0.09860335
v -0.02248298 0.05305555 0.10309932
v -0.02248298 0.05305555 0.10309932
v -0.02248298 0.07182469 0.10309931
v -0.02248298 0.07182469 0.10309931
v -0.02248298 0.07182469 0.10309931
v -0.01537929 0.05305555 0.10640971
v -0.01537929 0.05305555 0.10640971
v -0.01537929 0.07182469 0.10640970
v -0.01537929 0.07182469 0.10640970
v -0.01537929 0.07182469 0.10640970
v -0.00780903 0.05305555 0.10844079
v -0.00780903 0.05305555 0.10844079
v -0.00780903 0.07182469 0.10844077
v -0.00780903 0.07182469 0.10844077
v -0.00780903 0.07182469 0.10844077
v 0.00000273 0.05305555 0.10912159
v 0.00000273 0.05305555 0.10912159
v 0.00000273 0.07182469 0.10912158
v 0.00000273 0.07182469 0.10912158
v 0.00000273 0.07182469 0.10912158
v 0.00780900 0.07182469 0.10844077
v 0.00780900 0.07182469 0.10844077
v 0.00780900 0.07182469 0.10844077
v 0.00780900 0.05305555 0.10844078
v 0.00780900 0.05305555 0.10844078
v 0.01537926 0.07182469 0.10640968
v 0.01537926 0.07182469 0.10640968
v 0.01537926 0.07182469 0.10640968
v 0.01537926 0.05305555 0.10640970
v 0.01537926 0.05305555 0.10640970
v 0.02248294 0.07182469 0.10309929
v 0.02248294 0.07182469 0.10309929
v 0.02248294 0.07182469 0.10309929
v 0.02248294 0.05305555 0.10309930
v 0.02248294 0.05305555 0.10309930
v 0.02890581 0.07182469 0.09860332
v 0.02890581 0.07182469 0.09860332
v 0.02890581 0.07182469 0.09860332
v 0.02890581 0.05305555 0.09860334
v 0.02890581 0.05305555 0.09860334
v 0.03445048 0.07181914 0.09305871
v 0.03445048 0.07181914 0.09305871
v 0.03445048 0.07181914 0.09305871
v 0.03445048 0.05305554 0.09305872
v 0.03445048 0.05305554 0.09305872
v 0.03894645 0.07181914 0.08663584
v 0.03894645 0.07181914 0.08663584
v 0.03894645 0.05305554 0.08663585
v 0.03894645 0.05305554 0.08663585
v 0.04225677 0.07181913 0.07953210
v 0.04225677 0.07181913 0.07953210
v 0.04225677 0.05305554 0.07953211
v 0.04225677 0.05305554 0.07953211
v 0.04225677 0.05305554 0.07953211
v 0.04428791 0.07181913 0.07196184
v 0.04428791 0.07181913 0.07196184
v 0.04428791 0.05305553 0.07196184
v 0.04428791 0.05305553 0.07196184
v 0.04428791 0.05305553 0.07196184
v 0.04496872 0.07181913 0.06415559
v 0.04496872 0.07181913 0.06415559
v 0.04496872 0.05305552 0.06415561
v 0.04496872 0.05305552 0.06415561
v 0.04428791 0.07181912 0.05634387
v 0.04428791 0.07181912 0.05634387
v 0.04428791 0.05305552 0.05634388
v 0.04428791 0.05305552 0.05634388
v 0.04428791 0.05305552 0.05634388
v 0.04225677 0.07181912 0.04877360
v 0.04225677 0.07181912 0.04877360
v 0.04225677 0.05305552 0.04877361
v 0.04225677 0.05305552 0.04877361
v 0.04225677 0.05305552 0.04877361
v 0.00000272 0.05305552 0.06415562
v 0.00000272 0.05305552 0.06415562
v 0.00000272 0.05305552 0.06415562
v 0.00000272 0.05305552 0.06415562
v 0.00000272 0.05305552 0.06415562
v 0.02890579 0.05305551 0.02970240
v 0.02890579 0.05305551 0.02970240
v 0.02890579 0.07181910 0.02970238
v 0.02890579 0.07181910 0.02970238
v 0.00000272 0.07181913 0.06415561
v 0.00000272 0.07181913 0.06415561
v 0.00000272 0.07181913 0.06415561
v 0.00000272 0.07181913 0.06415561
v 0.00000272 0.07181913 0.06415561
v 0.00000272 0.07181913 0.06415561
v 0.00000272 0.07181913 0.06415561
v 0.00000272 0.07181913 0.06415561
v 0.00000272 0.07181913 0.06415561
v 0.00000272 0.07181913 0.06415561
v 0.00000272 0.07181913 0.06415561
v 0.03894643 0.07181911 0.04166986
v 0.03894643 0.07181911 0.04166986
v 0.03894643 0.05305551 0.04166987
v 0.03894643 0.05305551 0.04166987
v 0.03445046 0.05305551 0.03524701
v 0.03445046 0.05305551 0.03524701
v 0.03445046 0.07181911 0.03524699
v 0.03445046 0.07181911 0.03524699
vn -0.00000000 1.00000000 -0.00000056
vn 0.49982885 -0.00000049 -0.86612427
vn 0.49923194 -0.00000049 -0.86646837
vn 0.00000000 -1.00000000 0.00000056
vn 0.34205681 -0.00000053 -0.93967932
vn -0.00000000 1.00000000 -0.00000056
vn 0.34206131 -0.00000053 -0.93967760
vn 0.00000000 -1.00000000 0.00000056
vn -0.00000000 1.00000000 -0.00000056
vn 0.17318267 -0.00000087 -0.98488975
vn 0.17367518 -0.00000056 -0.98480296
vn 0.00000000 -1.00000000 0.00000056
vn 0.00002430 -0.00000471 -1.00000000
vn -0.00000000 1.00000000 -0.00000056
vn -0.00001196 -0.00000473 -1.00000000
vn 0.00000000 -1.00000000 0.00000056
vn 0.00002492 0.00000360 -1.00000000
vn -0.00001259 0.00000358 -1.00000000
vn 0.00000000 -1.00000000 0.00000056
vn -0.17364593 -0.00000056 -0.98480815
vn -0.17364124 -0.00000056 -0.98480904
vn -0.00000000 1.00000000 -0.00000056
vn -0.34206191 -0.00000053 -0.93967736
vn 0.00000000 -1.00000000 0.00000056
vn -0.00000000 1.00000000 -0.00000056
vn -0.34205741 -0.00000053 -0.93967909
vn -0.49983317 -0.00000049 -0.86612171
vn 0.00000000 -1.00000000 0.00000056
vn -0.00000000 1.00000000 -0.00000056
vn -0.49940026 -0.00000049 -0.86637133
vn 0.00000000 -1.00000000 0.00000056
vn -0.64273322 -0.00000043 -0.76609003
vn -0.00000000 1.00000000 -0.00000056
vn -0.64273006 -0.00000043 -0.76609278
vn 0.00000000 -1.00000000 0.00000056
vn -0.76577133 -0.00000017 -0.64311308
vn -0.76608723 -0.00000036 -0.64273673
vn -0.00000000 1.00000000 -0.00000056
vn -0.86642361 -0.00000028 -0.49930972
vn 0.00000000 -1.00000000 0.00000056
vn 0.00000000 -1.00000000 0.00000023
vn -0.86642158 -0.00000051 -0.49931324
vn -0.00000000 1.00000000 -0.00000056
vn 0.00000000 -1.00000000 0.00000056
vn 0.00000000 -1.00000000 0.00000023
vn -0.93967974 -0.00000019 -0.34205580
vn -0.00000000 1.00000000 -0.00000056
vn -0.93967819 -0.00000019 -0.34205979
vn 0.00000000 -1.00000000 0.00000056
vn -0.98480916 -0.00000010 -0.17364088
vn -0.00000000 1.00000000 -0.00000056
vn -0.98480839 -0.00000010 -0.17364508
vn -1.00000000 0.00000000 0.00003283
vn 0.00000000 -1.00000000 0.00000056
vn -0.00000000 1.00000000 -0.00000056
vn -1.00000000 0.00000000 0.00002864
vn -0.98480296 0.00000010 0.17367563
vn 0.00000000 -1.00000000 0.00000056
vn -0.98488957 0.00000010 0.17318372
vn -0.00000000 1.00000000 -0.00000056
vn -0.93967795 0.00000019 0.34206039
vn 0.00000000 -1.00000000 0.00000090
vn 0.00000000 -1.00000000 0.00000056
vn -0.93967950 0.00000019 0.34205651
vn -0.00000000 1.00000000 -0.00000056
vn 0.00000000 -1.00000000 0.00000090
vn -0.86647063 0.00000061 0.49922797
vn 0.00000000 -1.00000000 0.00000056
vn -0.00000000 1.00000000 -0.00000056
vn -0.86612630 0.00000028 0.49982518
vn 0.00000000 -1.00000000 0.00000056
vn -0.76608676 0.00000036 0.64273721
vn 0.00004179 1.00000000 0.00004916
vn -0.00000000 1.00000000 -0.00000056
vn -0.76607698 0.00000036 0.64274901
vn -0.64272934 0.00000043 0.76609331
vn 0.00000000 -1.00000000 0.00000056
vn 0.00004173 1.00000000 0.00004920
vn -0.64271808 0.00000043 0.76610285
vn 0.00007020 1.00000000 -0.00010087
vn -0.49952832 0.00000049 0.86629766
vn 0.00000000 -1.00000000 0.00000056
vn 0.00005171 1.00000000 -0.00011152
vn 0.00007020 1.00000000 -0.00010087
vn -0.49940375 0.00000049 0.86636949
vn 0.00000000 -1.00000000 0.00000056
vn -0.34205690 0.00000053 0.93967932
vn -0.34206119 0.00000053 0.93967771
vn 0.00005171 1.00000000 -0.00011152
vn 0.00003172 1.00000000 -0.00011881
vn 0.00000000 -1.00000000 0.00000056
vn -0.17364088 0.00000056 0.98480916
vn 0.00001063 1.00000000 -0.00012255
vn 0.00003172 1.00000000 -0.00011881
vn -0.17364508 0.00000056 0.98480839
vn 0.00000000 -1.00000000 0.00000056
vn 0.00003078 0.00000056 1.00000000
vn 0.00003079 0.00000056 1.00000000
vn -0.00001064 1.00000000 -0.00012253
vn 0.00001063 1.00000000 -0.00012255
vn 0.17318793 0.00000056 0.98488885
vn -0.00003173 1.00000000 -0.00011881
vn -0.00001064 1.00000000 -0.00012253
vn 0.17367163 0.00000056 0.98480362
vn 0.00000000 -1.00000000 0.00000056
vn 0.34206179 0.00000053 0.93967748
vn -0.00003173 1.00000000 -0.00011881
vn -0.00005171 1.00000000 -0.00011153
vn 0.00000000 -1.00000000 0.00000056
vn 0.34205750 0.00000053 0.93967909
vn -0.00007021 1.00000000 -0.00010084
vn 0.49914676 0.00000049 0.86651754
vn -0.00005171 1.00000000 -0.00011153
vn 0.49940017 0.00000049 0.86637151
vn 0.00000000 -1.00000000 0.00000056
vn -0.00007021 1.00000000 -0.00010084
vn 0.64271855 0.00000043 0.76610243
vn -0.00010342 1.00000000 0.00012269
vn 0.64272982 0.00000043 0.76609284
vn 0.00000000 -1.00000000 0.00000056
vn -0.00000000 1.00000000 -0.00000056
vn -0.00010344 1.00000000 0.00012267
vn 0.76607734 0.00000036 0.64274853
vn 0.00000000 -1.00000000 0.00000056
vn 0.76608705 0.00000036 0.64273685
vn -0.00000000 1.00000000 -0.00000056
vn 0.86612666 0.00000028 0.49982473
vn 0.86642158 0.00000028 0.49931324
vn 0.00000000 -1.00000000 0.00000056
vn 0.93967974 0.00000019 0.34205592
vn -0.00000000 1.00000000 -0.00000056
vn 0.00000000 -1.00000000 0.00000023
vn 0.00000000 -1.00000000 0.00000056
vn 0.93967819 0.00000019 0.34205979
vn -0.00000000 1.00000000 -0.00000056
vn 0.98480308 0.00000010 0.17367457
vn 0.00000000 -1.00000000 0.00000056
vn 0.00000000 -1.00000000 0.00000023
vn 0.98480236 0.00000010 0.17367877
vn -0.00000000 1.00000000 -0.00000056
vn 1.00000000 0.00000000 0.00002800
vn 0.00000000 -1.00000000 0.00000056
vn 1.00000000 0.00000000 0.00003218
vn 0.98480767 -0.00000010 -0.17364943
vn -0.00000000 1.00000000 -0.00000056
vn 0.98480827 -0.00000010 -0.17364523
vn 0.00000000 -1.00000000 0.00000056
vn 0.00000000 -1.00000000 0.00000090
vn -0.00000000 1.00000000 -0.00000056
vn 0.93967795 -0.00000019 -0.34206039
vn 0.93967950 -0.00000019 -0.34205639
vn 0.00000000 -1.00000000 0.00000090
vn 0.00000000 -1.00000000 0.00000056
vn 0.00000000 -1.00000000 0.00000056
vn 0.00000000 -1.00000000 0.00000023
vn 0.00000000 -1.00000000 0.00000090
vn 0.00000000 -1.00000000 0.00000023
vn 0.00000000 -1.00000000 0.00000090
vn 0.64299834 -0.00000043 -0.76586771
vn 0.00000000 -1.00000000 0.00000056
vn -0.00000000 1.00000000 -0.00000056
vn 0.64272958 -0.00000043 -0.76609331
vn 0.00003172 1.00000000 -0.00011881
vn -0.00001064 1.00000000 -0.00012253
vn 0.00005171 1.00000000 -0.00011152
vn 0.00007020 1.00000000 -0.00010087
vn -0.00003173 1.00000000 -0.00011881
vn 0.00004179 1.00000000 0.00004916
vn -0.00005171 1.00000000 -0.00011153
vn 0.00001063 1.00000000 -0.00012255
vn -0.00007021 1.00000000 -0.00010084
vn -0.00010346 1.00000000 0.00012265
vn -0.00000000 1.00000000 -0.00000056
vn 0.86647063 -0.00000028 -0.49922797
vn -0.00000000 1.00000000 -0.00000056
vn 0.86629951 -0.00000028 -0.49952486
vn 0.00000000 -1.00000000 0.00000056
vn 0.76608926 -0.00000036 -0.64273435
vn 0.00000000 -1.00000000 0.00000056
vn -0.00000000 1.00000000 -0.00000056
vn 0.76608658 -0.00000036 -0.64273733
vt 0.52678752 0.94045287
vt 0.54724222 0.46287671
vt 0.53402013 0.46287671
vt 0.95972520 0.11672990
vt 0.54724222 0.45733929
vt 0.52780461 0.94587737
vt 0.53402013 0.45733929
vt 0.96492362 0.11480870
vt 0.52780461 0.95141482
vt 0.54724222 0.45180181
vt 0.53402013 0.45180181
vt 0.96966988 0.11209660
vt 0.54724222 0.44626439
vt 0.52678752 0.95683932
vt 0.54724222 0.64504731
vt 0.97396427 0.10859330
vt 0.53402013 0.44626439
vt 0.53402013 0.64504731
vt 0.97746748 0.10429900
vt 0.53402013 0.63950992
vt 0.54724222 0.63950992
vt 0.52486640 0.96203768
vt 0.53402013 0.63397241
vt 0.98017979 0.09955263
vt 0.52215421 0.96689707
vt 0.54724222 0.63397241
vt 0.53402013 0.62854803
vt 0.98210102 0.09435421
vt 0.51865089 0.97107840
vt 0.54724222 0.62854803
vt 0.98311812 0.08892977
vt 0.53402013 0.62301052
vt 0.51435649 0.97458172
vt 0.54724222 0.62301052
vt 0.98311812 0.08339232
vt 0.53402013 0.61747312
vt 0.54724222 0.61747312
vt 0.50961012 0.97740692
vt 0.53402013 0.61193562
vt 0.98210102 0.07796788
vt 0.98210102 0.07796788
vt 0.54724222 0.61193562
vt 0.50441170 0.97932798
vt 0.98017979 0.07276946
vt 0.98017979 0.07276946
vt 0.53402013 0.60639822
vt 0.49898729 0.98023212
vt 0.54724222 0.60639822
vt 0.97746748 0.06791007
vt 0.53402013 0.60086072
vt 0.49344981 0.98023212
vt 0.54724222 0.60086072
vt 0.53402013 0.59532332
vt 0.97396427 0.06372874
vt 0.48802540 0.97932798
vt 0.54724222 0.59532332
vt 0.53402013 0.58978587
vt 0.96966988 0.06022542
vt 0.54724222 0.58978587
vt 0.48282701 0.97740692
vt 0.53402013 0.58436137
vt 0.96492362 0.05740016
vt 0.96492362 0.05740016
vt 0.54724222 0.58436137
vt 0.47796759 0.97458172
vt 0.95972520 0.05547904
vt 0.53402013 0.57882398
vt 0.95972520 0.05547904
vt 0.47378621 0.97107840
vt 0.54724222 0.57882398
vt 0.95430082 0.05457496
vt 0.53402013 0.57328647
vt 0.47028300 0.96689707
vt 0.47028300 0.96689707
vt 0.54724222 0.57328647
vt 0.53402013 0.56774920
vt 0.94876331 0.05457496
vt 0.46745780 0.96203768
vt 0.54724222 0.56774920
vt 0.46745780 0.96203768
vt 0.53402013 0.56221157
vt 0.94333887 0.05547904
vt 0.46553659 0.95683932
vt 0.46553659 0.95683932
vt 0.54724222 0.56221157
vt 0.93814051 0.05740016
vt 0.53402013 0.55667430
vt 0.54724222 0.55667430
vt 0.46463251 0.95141482
vt 0.46463251 0.95141482
vt 0.93339407 0.06022542
vt 0.53402013 0.55113667
vt 0.46463251 0.94587737
vt 0.46463251 0.94587737
vt 0.54724222 0.55113667
vt 0.92909968 0.06372874
vt 0.53402013 0.54571241
vt 0.54724222 0.54571241
vt 0.46553659 0.94045287
vt 0.46553659 0.94045287
vt 0.54724222 0.54017490
vt 0.46745780 0.93525451
vt 0.46745780 0.93525451
vt 0.53402013 0.54017490
vt 0.92559648 0.06791007
vt 0.54724222 0.53463751
vt 0.47028300 0.93050808
vt 0.47028300 0.93050808
vt 0.92277122 0.07276946
vt 0.53402013 0.53463751
vt 0.47378621 0.92621380
vt 0.54724222 0.52910000
vt 0.47378621 0.92621380
vt 0.53402013 0.52910000
vt 0.92096311 0.07796788
vt 0.47796759 0.92271048
vt 0.54724222 0.52356261
vt 0.47796759 0.92271048
vt 0.53402013 0.52356261
vt 0.91994601 0.08339232
vt 0.48282701 0.91999829
vt 0.48282701 0.91999829
vt 0.54724222 0.51802522
vt 0.91994601 0.08892977
vt 0.53402013 0.51802522
vt 0.48802540 0.91807711
vt 0.54724222 0.51248771
vt 0.53402013 0.51248771
vt 0.92096311 0.09435421
vt 0.54724222 0.50706333
vt 0.49344981 0.91706008
vt 0.92277122 0.09955263
vt 0.92277122 0.09955263
vt 0.53402013 0.50706333
vt 0.49898729 0.91706008
vt 0.54724222 0.50152582
vt 0.92559648 0.10429900
vt 0.92559648 0.10429900
vt 0.53402013 0.50152582
vt 0.50441170 0.91807711
vt 0.54724222 0.49598840
vt 0.92909968 0.10859330
vt 0.53402013 0.49598840
vt 0.54724222 0.49045089
vt 0.50961012 0.91999829
vt 0.53402013 0.49045089
vt 0.93339407 0.11209660
vt 0.93339407 0.11209660
vt 0.51435649 0.92271048
vt 0.54724222 0.48491350
vt 0.53402013 0.48491350
vt 0.93814051 0.11480870
vt 0.93814051 0.11480870
vt 0.95147550 0.08610457
vt 0.95147550 0.08610457
vt 0.95147550 0.08610457
vt 0.95147550 0.08610457
vt 0.95147550 0.08610457
vt 0.53402013 0.46830109
vt 0.95430082 0.11774700
vt 0.52486640 0.93525451
vt 0.54724222 0.46830109
vt 0.49616209 0.94870257
vt 0.49616209 0.94870257
vt 0.49616209 0.94870257
vt 0.49616209 0.94870257
vt 0.49616209 0.94870257
vt 0.49616209 0.94870257
vt 0.49616209 0.94870257
vt 0.49616209 0.94870257
vt 0.49616209 0.94870257
vt 0.49616209 0.94870257
vt 0.49616209 0.94870257
vt 0.54724222 0.47937599
vt 0.51865089 0.92621380
vt 0.53402013 0.47937599
vt 0.94333887 0.11672990
vt 0.53402013 0.47383860
vt 0.94876331 0.11774700
vt 0.52215421 0.93050808
vt 0.54724222 0.47383860
f 2/2/2 3/3/3 5/5/5
f 3/3/3 7/7/7 5/5/5
f 5/5/5 7/7/7 10/10/10
f 7/7/7 11/11/11 10/10/10
f 10/10/10 11/11/11 13/13/13
f 11/11/11 17/17/17 13/13/13
f 18/18/18 20/20/20 15/15/15
f 15/15/15 20/20/20 21/21/21
f 20/20/20 23/23/23 21/21/21
f 21/21/21 23/23/23 26/26/26
f 23/23/23 27/27/27 26/26/26
f 26/26/26 27/27/27 30/30/30
f 27/27/27 32/32/32 30/30/30
f 30/30/30 32/32/32 34/34/34
f 32/32/32 36/36/36 34/34/34
f 34/34/34 36/36/36 37/37/37
f 36/36/36 39/39/39 37/37/37
f 37/37/37 39/39/39 42/42/42
f 39/39/39 46/46/46 42/42/42
f 42/42/42 46/46/46 48/48/48
f 46/46/46 50/50/50 48/48/48
f 48/48/48 50/50/50 52/52/52
f 50/50/50 53/53/53 52/52/52
f 52/52/52 53/53/53 56/56/56
f 53/53/53 57/57/57 56/56/56
f 56/56/56 57/57/57 59/59/59
f 57/57/57 61/61/61 59/59/59
f 59/59/59 61/61/61 64/64/64
f 61/61/61 67/67/67 64/64/64
f 64/64/64 67/67/67 70/70/70
f 67/67/67 72/72/72 70/70/70
f 70/70/70 72/72/72 75/75/75
f 72/72/72 76/76/76 75/75/75
f 75/75/75 76/76/76 79/79/79
f 76/76/76 81/81/81 79/79/79
f 79/79/79 81/81/81 85/85/85
f 81/81/81 87/87/87 85/85/85
f 85/85/85 87/87/87 88/88/88
f 87/87/87 92/92/92 88/88/88
f 88/88/88 92/92/92 95/95/95
f 92/92/92 97/97/97 95/95/95
f 95/95/95 97/97/97 98/98/98
f 98/98/98 97/97/97 101/101/101
f 97/97/97 104/104/104 101/101/101
f 101/101/101 104/104/104 106/106/106
f 104/104/104 110/110/110 106/106/106
f 106/106/106 110/110/110 112/112/112
f 110/110/110 114/114/114 112/112/112
f 112/112/112 114/114/114 117/117/117
f 114/114/114 119/119/119 117/117/117
f 117/117/117 119/119/119 123/123/123
f 119/119/119 125/125/125 123/123/123
f 123/123/123 125/125/125 127/127/127
f 125/125/125 128/128/128 127/127/127
f 127/127/127 128/128/128 130/130/130
f 128/128/128 134/134/134 130/130/130
f 130/130/130 134/134/134 136/136/136
f 134/134/134 139/139/139 136/136/136
f 136/136/136 139/139/139 141/141/141
f 139/139/139 143/143/143 141/141/141
f 141/141/141 143/143/143 144/144/144
f 143/143/143 146/146/146 144/144/144
f 144/144/144 146/146/146 150/150/150
f 150/150/150 146/146/146 151/151/151
f 152/152/152 148/148/148 158/158/158
f 147/147/147 142/142/142 154/154/154
f 142/142/142 137/137/137 154/154/154
f 138/138/138 132/132/132 155/155/155
f 133/133/133 129/129/129 154/154/154
f 129/129/129 124/124/124 154/154/154
f 124/124/124 120/120/120 154/154/154
f 120/120/120 115/115/115 154/154/154
f 115/115/115 109/109/109 154/154/154
f 109/109/109 105/105/105 154/154/154
f 105/105/105 96/96/96 154/154/154
f 96/96/96 91/91/91 154/154/154
f 91/91/91 86/86/86 154/154/154
f 86/86/86 82/82/82 154/154/154
f 82/82/82 77/77/77 154/154/154
f 77/77/77 71/71/71 154/154/154
f 71/71/71 68/68/68 154/154/154
f 66/66/66 62/62/62 156/156/156
f 63/63/63 58/58/58 154/154/154
f 58/58/58 54/54/54 154/154/154
f 54/54/54 49/49/49 154/154/154
f 49/49/49 44/44/44 154/154/154
f 45/45/45 41/41/41 157/157/157
f 40/40/40 35/35/35 154/154/154
f 35/35/35 31/31/31 154/154/154
f 31/31/31 28/28/28 154/154/154
f 28/28/28 24/24/24 154/154/154
f 24/24/24 19/19/19 154/154/154
f 19/19/19 16/16/16 154/154/154
f 16/16/16 12/12/12 154/154/154
f 12/12/12 8/8/8 154/154/154
f 8/8/8 4/4/4 154/154/154
f 154/154/154 4/4/4 160/160/160
f 3/3/3 2/2/2 159/159/159
f 159/159/159 2/2/2 162/162/162
f 161/161/161 1/1/1 173/173/173
f 1/1/1 6/6/6 173/173/173
f 6/6/6 9/9/9 173/173/173
f 9/9/9 14/14/14 173/173/173
f 14/14/14 22/22/22 173/173/173
f 22/22/22 25/25/25 173/173/173
f 25/25/25 29/29/29 173/173/173
f 29/29/29 33/33/33 173/173/173
f 33/33/33 38/38/38 173/173/173
f 38/38/38 43/43/43 173/173/173
f 43/43/43 47/47/47 173/173/173
f 47/47/47 51/51/51 173/173/173
f 51/51/51 55/55/55 173/173/173
f 55/55/55 60/60/60 173/173/173
f 60/60/60 65/65/65 173/173/173
f 65/65/65 69/69/69 173/173/173
f 69/69/69 74/74/74 173/173/173
f 73/73/73 78/78/78 168/168/168
f 80/80/80 84/84/84 166/166/166
f 83/83/83 89/89/89 165/165/165
f 90/90/90 94/94/94 163/163/163
f 93/93/93 100/100/100 170/170/170
f 99/99/99 103/103/103 164/164/164
f 102/102/102 107/107/107 167/167/167
f 108/108/108 113/113/113 169/169/169
f 111/111/111 116/116/116 171/171/171
f 118/118/118 122/122/122 172/172/172
f 121/121/121 126/126/126 173/173/173
f 126/126/126 131/131/131 173/173/173
f 131/131/131 135/135/135 173/173/173
f 135/135/135 140/140/140 173/173/173
f 140/140/140 145/145/145 173/173/173
f 145/145/145 149/149/149 173/173/173
f 173/173/173 149/149/149 175/175/175
f 150/150/150 151/151/151 174/174/174
f 174/174/174 151/151/151 176/176/176
f 153/153/153 154/154/154 177/177/177
f 177/177/177 154/154/154 179/179/179
f 154/154/154 160/160/160 179/179/179
f 159/159/159 162/162/162 178/178/178
f 178/178/178 162/162/162 181/181/181
f 161/161/161 173/173/173 180/180/180
f 173/173/173 175/175/175 180/180/180
f 174/174/174 176/176/176 181/181/181
f 178/178/178 181/181/181 176/176/176

