mtllib wrist1.mtl
usemtl Plastic_Blue_001
v 0.00713795 0.09042564 -0.02996005
v -0.00000066 0.09092006 -0.03059109
v 0.00678473 0.09264823 -0.02468139
v -0.00000066 0.09311440 -0.02519466
v 0.00627153 0.09430101 -0.01895547
v -0.00000066 0.09470126 -0.01944991
v -0.00000066 0.09575608 -0.01355912
v 0.00555103 0.09542176 -0.01309289
v -0.00000066 0.09649536 -0.00768717
v 0.00462340 0.09624579 -0.00732453
v 0.00358747 0.09677317 -0.00173988
v -0.00000066 0.09695211 -0.00196590
v 0.00266449 0.09710279 0.00265346
v -0.00000067 0.09721580 0.00240396
v 0.00200991 0.09730997 0.00541763
v -0.00000067 0.09741827 0.00575660
v -0.00201131 0.09730997 0.00541763
v -0.00266577 0.09710279 0.00265346
v -0.00358875 0.09677317 -0.00173988
v -0.00462474 0.09624579 -0.00732453
v -0.00555236 0.09542176 -0.01309289
v -0.00627286 0.09430101 -0.01895548
v -0.00678141 0.09264823 -0.02468140
v -0.00713450 0.09042564 -0.02996005
v -0.00000066 0.08784517 -0.03528578
v 0.00739216 0.08746376 -0.03465480
v 0.01485109 0.08258536 -0.03636879
v 0.01448845 0.08630536 -0.03261121
v 0.01393752 0.08930495 -0.02820361
v 0.01316051 0.09155104 -0.02316988
v 0.01205872 0.09331217 -0.01756163
v 0.01059888 0.09462121 -0.01191099
v 0.00870131 0.09572312 -0.00629802
v 0.00654458 0.09648123 -0.00070866
v 0.00461398 0.09699919 0.00393908
v 0.00270687 0.09736177 0.00720225
v -0.00000067 0.09754070 0.00782387
v -0.00270344 0.09736177 0.00720225
v -0.00461061 0.09699919 0.00393908
v -0.00654127 0.09648123 -0.00070866
v -0.00870265 0.09572312 -0.00629802
v -0.01059557 0.09462121 -0.01191099
v -0.01205999 0.09331216 -0.01756163
v -0.01315713 0.09155102 -0.02316989
v -0.01393408 0.08930494 -0.02820362
v -0.01448976 0.08630534 -0.03261121
v -0.00739348 0.08746376 -0.03465481
v -0.00000065 0.08392742 -0.03916592
v 0.00753343 0.08358368 -0.03854901
v 0.01502054 0.07807425 -0.03935892
v 0.01083912 0.03212985 -0.04653991
v 0.00987853 0.03411230 -0.04671407
v 0.01504887 0.03481391 -0.04526383
v 0.01154078 0.03683403 -0.04626674
v 0.01823199 0.03967813 -0.04395485
v 0.01345718 0.04162768 -0.04552753
v 0.01446969 0.04781982 -0.04495775
v 0.02066184 0.04622821 -0.04258460
v 0.02193791 0.05324916 -0.04152501
v 0.01492644 0.05428502 -0.04447745
v 0.02264429 0.06001571 -0.04046560
v 0.01499701 0.06074556 -0.04379940
v 0.01500648 0.06698492 -0.04290480
v 0.02299273 0.06625971 -0.03923649
v 0.01502996 0.07280502 -0.04146380
v 0.02301156 0.07191971 -0.03759784
v 0.02279025 0.07682171 -0.03541762
v 0.02222514 0.08119622 -0.03248400
v 0.02134931 0.08470437 -0.02904183
v 0.02011089 0.08765212 -0.02497811
v 0.01871705 0.08995005 -0.02055181
v 0.01664512 0.09214911 -0.01521659
v 0.01428603 0.09381130 -0.00981081
v 0.01147477 0.09519104 -0.00407541
v 0.00814091 0.09636822 0.00144331
v 0.00559817 0.09701803 0.00599210
v 0.00292818 0.09741357 0.00881742
v -0.00000067 0.09751716 0.00933538
v -0.00292958 0.09741357 0.00881742
v -0.00559945 0.09701803 0.00599210
v -0.00814225 0.09636822 0.00144331
v -0.01147610 0.09519102 -0.00407542
v -0.01428265 0.09381129 -0.00981082
v -0.01664645 0.09214909 -0.01521660
v -0.01871837 0.08995004 -0.02055182
v -0.02011215 0.08765210 -0.02497812
v -0.02135062 0.08470435 -0.02904184
v -0.02222645 0.08119620 -0.03248401
v -0.01484763 0.08258535 -0.03636880
v -0.00753474 0.08358368 -0.03854901
v -0.00000065 0.07911017 -0.04215599
v 0.00756645 0.07878533 -0.04145915
v 0.00752872 0.07324770 -0.04351223
v 0.00749106 0.06722972 -0.04486358
v 0.00749106 0.06094345 -0.04566409
v 0.00750990 0.05461940 -0.04624326
v 0.00739695 0.04846021 -0.04661996
v 0.00699199 0.04252705 -0.04680360
v 0.00635160 0.03701767 -0.04719908
v 0.00583358 0.03361311 -0.04740632
v 0.00594665 0.03082546 -0.04744393
v -0.00000064 0.03342953 -0.04775942
v -0.00000064 0.03002497 -0.04783011
v -0.00583021 0.03361311 -0.04740632
v -0.00594793 0.03082546 -0.04744393
v -0.00632928 0.02741632 -0.04745806
v -0.00000063 0.02672884 -0.04788656
v 0.00633277 0.02741632 -0.04745806
v 0.01214351 0.02935163 -0.04627622
v 0.01789774 0.03262433 -0.04430793
v 0.02263959 0.03766749 -0.04192996
v 0.02615709 0.04462717 -0.03950495
v 0.02812058 0.05186943 -0.03756017
v 0.02922248 0.05887619 -0.03579432
v 0.02959918 0.06519083 -0.03425462
v 0.02952384 0.07074252 -0.03247929
v 0.02906709 0.07510290 -0.03048742
v 0.02806884 0.07935510 -0.02778453
v 0.02675980 0.08266541 -0.02500159
v 0.02496098 0.08575914 -0.02153588
v 0.02298330 0.08822659 -0.01799018
v 0.02000259 0.09097657 -0.01296574
v 0.01682411 0.09309558 -0.00796962
v 0.01323114 0.09491315 -0.00219191
v 0.00887083 0.09647181 0.00439583
v 0.00621967 0.09711691 0.00825237
v 0.00309770 0.09752658 0.01061152
v -0.00000067 0.09765371 0.01121895
v -0.00309904 0.09752658 0.01061152
v -0.00622101 0.09711691 0.00825237
v -0.00887217 0.09647181 0.00439583
v -0.01323247 0.09491314 -0.00219192
v -0.01682061 0.09309556 -0.00796963
v -0.02000392 0.09097655 -0.01296575
v -0.02298463 0.08822657 -0.01799019
v -0.02496231 0.08575913 -0.02153589
v -0.02676111 0.08266540 -0.02500160
v -0.02807015 0.07935508 -0.02778454
v -0.02906376 0.07510288 -0.03048743
v -0.02279150 0.07682170 -0.03541763
v -0.01502192 0.07807423 -0.03935893
v -0.00756776 0.07878533 -0.04145915
v -0.00000065 0.07343605 -0.04421376
v -0.00000065 0.06731924 -0.04551811
v -0.00000065 0.06098112 -0.04636098
v -0.00000064 0.05464288 -0.04685063
v -0.00000064 0.04861089 -0.04713316
v -0.00000064 0.04273423 -0.04736865
v -0.00000064 0.03714481 -0.04758997
v -0.00635289 0.03701767 -0.04719908
v -0.00987981 0.03411230 -0.04671407
v -0.01084033 0.03212985 -0.04653991
v -0.01214478 0.02935162 -0.04627622
v -0.01323715 0.02603182 -0.04486829
v -0.00680957 0.02382818 -0.04637033
v -0.00000063 0.02302292 -0.04696841
v 0.00681307 0.02382818 -0.04637033
v 0.01323588 0.02603183 -0.04486829
v 0.01948453 0.02990726 -0.04243380
v 0.02465493 0.03568039 -0.03955198
v 0.02813006 0.04322389 -0.03677851
v 0.02998060 0.05077693 -0.03464074
v 0.03093648 0.05792502 -0.03285599
v 0.03125202 0.06422076 -0.03121734
v 0.03112483 0.06955121 -0.02947981
v 0.03063982 0.07368085 -0.02752555
v 0.02967453 0.07760802 -0.02505345
v 0.02848798 0.08075830 -0.02233637
v 0.02680218 0.08377675 -0.01901663
v 0.02492802 0.08626298 -0.01566870
v 0.02217333 0.08910242 -0.01066787
v 0.01930086 0.09134386 -0.00565291
v 0.01573633 0.09350995 0.00026613
v 0.01113567 0.09553006 0.00727289
v 0.00833867 0.09631642 0.01133196
v 0.00412898 0.09704157 0.01430319
v -0.00000067 0.09732410 0.01510851
v -0.00413026 0.09704157 0.01430319
v -0.00834002 0.09631642 0.01133196
v -0.01113702 0.09553006 0.00727288
v -0.01573766 0.09350993 0.00026612
v -0.01929755 0.09134384 -0.00565292
v -0.02217460 0.08910240 -0.01066788
v -0.02492935 0.08626296 -0.01566871
v -0.02680349 0.08377673 -0.01901664
v -0.02848923 0.08075829 -0.02233638
v -0.02967119 0.07760800 -0.02505346
v -0.03064113 0.07368083 -0.02752556
v -0.03112620 0.06955118 -0.02947982
v -0.02952522 0.07074250 -0.03247930
v -0.02301281 0.07191969 -0.03759785
v -0.01503127 0.07280500 -0.04146380
v -0.00753009 0.07324770 -0.04351223
v -0.00748771 0.06722970 -0.04486358
v -0.00749242 0.06094345 -0.04566409
v -0.00751125 0.05461939 -0.04624326
v -0.00739347 0.04846021 -0.04661996
v -0.00699322 0.04252705 -0.04680360
v -0.01345848 0.04162767 -0.04552753
v -0.01154207 0.03683402 -0.04626674
v -0.01505016 0.03481390 -0.04526384
v -0.01789901 0.03262432 -0.04430794
v -0.01948587 0.02990724 -0.04243381
v -0.01995203 0.02778360 -0.04023482
v -0.01362798 0.02373394 -0.04283411
v -0.00703559 0.02139833 -0.04448216
v -0.00000063 0.02050843 -0.04512728
v 0.00703438 0.02139834 -0.04448687
v 0.01362677 0.02373395 -0.04283411
v 0.01995553 0.02777890 -0.04023952
v 0.02545548 0.03404639 -0.03701395
v 0.02882702 0.04202793 -0.03404260
v 0.03078580 0.04979280 -0.03188605
v 0.03178411 0.05702565 -0.03020025
v 0.03200542 0.06326953 -0.02848626
v 0.03169000 0.06833628 -0.02678156
v 0.03111547 0.07223049 -0.02487916
v 0.03014546 0.07577631 -0.02268494
v 0.02903413 0.07874297 -0.02003849
v 0.02754609 0.08165768 -0.01684589
v 0.02575205 0.08416758 -0.01368625
v 0.02310573 0.08685634 -0.00882674
v 0.02034162 0.08890465 -0.00391538
v 0.01686649 0.09107075 0.00189536
v 0.01240246 0.09300610 0.00895869
v 0.00959598 0.09384897 0.01311187
v 0.00466572 0.09467771 0.01645051
v -0.00000067 0.09503093 0.01742987
v -0.00466712 0.09467771 0.01645051
v -0.00959732 0.09384897 0.01311187
v -0.01240373 0.09300609 0.00895868
v -0.01686770 0.09107073 0.00189535
v -0.02033818 0.08889993 -0.00391539
v -0.02310235 0.08685632 -0.00882675
v -0.02575338 0.08416756 -0.01368626
v -0.02754742 0.08165766 -0.01684590
v -0.02903074 0.07874294 -0.02003850
v -0.03014671 0.07577629 -0.02268495
v -0.03111678 0.07223047 -0.02487917
v -0.03169131 0.06833626 -0.02678157
v -0.03200680 0.06326951 -0.02848627
v -0.03124856 0.06422074 -0.03121735
v -0.02960056 0.06519081 -0.03425463
v -0.02298933 0.06625499 -0.03923650
v -0.01500779 0.06698491 -0.04290481
v -0.01499830 0.06074556 -0.04379941
v -0.01492773 0.05428502 -0.04447746
v -0.01446621 0.04781982 -0.04495776
v -0.01823328 0.03967811 -0.04395486
v -0.02263610 0.03766747 -0.04192997
v -0.02465145 0.03568037 -0.03955198
v -0.02545194 0.03405108 -0.03701396
v -0.02812658 0.04322387 -0.03677852
v -0.02882360 0.04202791 -0.03403790
v -0.02998196 0.05077691 -0.03464075
v -0.03078245 0.04979278 -0.03188606
v -0.03178542 0.05702563 -0.03020026
v -0.03093784 0.05792500 -0.03285600
v -0.02922378 0.05887617 -0.03579433
v -0.02264552 0.06001569 -0.04046560
v -0.02193914 0.05324914 -0.04152502
v -0.02065842 0.04622819 -0.04258461
v -0.02615367 0.04462715 -0.03950496
v -0.02812187 0.05186941 -0.03756018
vn 0.17780960 0.87451988 -0.45121926
vn -0.00003380 0.88365912 -0.46813101
vn 0.16187887 0.93365955 -0.31949216
vn -0.00002394 0.94583923 -0.32463571
vn 0.14750153 0.96504897 -0.21661937
vn -0.00000028 0.97475570 -0.22327420
vn 0.00064193 0.98818678 -0.15325300
vn 0.13167971 0.98042768 -0.14636327
vn 0.00092839 0.99445063 -0.10520080
vn 0.11029690 0.98862874 -0.10221507
vn 0.09025817 0.99353898 -0.06880288
vn -0.00000031 0.99745321 -0.07132452
vn 0.07319388 0.99539977 -0.06182306
vn -0.00000031 0.99812961 -0.06113463
vn 0.05522482 0.99688059 -0.05638658
vn -0.00000736 0.99834239 -0.05755484
vn -0.05534310 0.99688000 -0.05628002
vn -0.07311096 0.99540317 -0.06186694
vn -0.09040511 0.99351829 -0.06890918
vn -0.11076590 0.98860842 -0.10190292
vn -0.13216189 0.98016775 -0.14766343
vn -0.14780706 0.96494502 -0.21687393
vn -0.16186793 0.93365425 -0.31951323
vn -0.17785720 0.87447935 -0.45127884
vn 0.00000386 0.77530348 -0.63158899
vn 0.19047105 0.77038044 -0.60846913
vn 0.37968531 0.60135984 -0.70299745
vn 0.36417556 0.73951054 -0.56612766
vn 0.33636469 0.84168142 -0.42241144
vn 0.30907026 0.90527254 -0.29147434
vn 0.27527472 0.94050223 -0.19919746
vn 0.23649852 0.96169573 -0.13859946
vn 0.19898260 0.97520387 -0.09686853
vn 0.13777559 0.98806876 -0.06883410
vn 0.10138889 0.99294847 -0.06143031
vn 0.07939133 0.99568337 -0.04807781
vn -0.00002514 0.99965811 -0.02614879
vn -0.07924213 0.99568999 -0.04818846
vn -0.10169981 0.99294263 -0.06100823
vn -0.13765661 0.98808706 -0.06881018
vn -0.19902539 0.97519314 -0.09688905
vn -0.23649019 0.96170866 -0.13852474
vn -0.27522087 0.94053060 -0.19913754
vn -0.30894324 0.90527540 -0.29160026
vn -0.33645701 0.84165299 -0.42239425
vn -0.36404395 0.73942500 -0.56632388
vn -0.19052085 0.77040345 -0.60842466
vn -0.00000006 0.62031090 -0.78435618
vn 0.19373444 0.61156058 -0.76711196
vn 0.37234071 0.43581572 -0.81940657
vn 0.23135766 0.01710415 -0.97271842
vn 0.20406437 0.02280605 -0.97869182
vn 0.31960338 0.02109966 -0.94731665
vn 0.24261835 0.03548373 -0.96947277
vn 0.38848895 0.02488971 -0.92111725
vn 0.26725689 0.04249401 -0.96268797
vn 0.29930326 0.04939989 -0.95287842
vn 0.44436812 0.04636946 -0.89464354
vn 0.47211263 0.06504086 -0.87913567
vn 0.31888464 0.07325754 -0.94495815
vn 0.49738711 0.11404116 -0.86000055
vn 0.32569444 0.11180130 -0.93884164
vn 0.33964390 0.17910321 -0.92334396
vn 0.52097714 0.18676086 -0.83288848
vn 0.35500565 0.28744003 -0.88957816
vn 0.53643137 0.29671118 -0.79006571
vn 0.54640990 0.43995368 -0.71265501
vn 0.53946006 0.58702189 -0.60364580
vn 0.51466483 0.71288699 -0.47635320
vn 0.47756398 0.80517548 -0.35160372
vn 0.43093246 0.86565310 -0.25483701
vn 0.37113264 0.91153300 -0.17711024
vn 0.31032112 0.94291192 -0.12090595
vn 0.24885771 0.96467888 -0.08639707
vn 0.17640600 0.98174703 -0.07108852
vn 0.10584439 0.99226987 -0.06478845
vn 0.05977253 0.99678421 -0.05337153
vn -0.00000032 0.99948752 -0.03201639
vn -0.05961134 0.99681240 -0.05302650
vn -0.10561241 0.99229234 -0.06482232
vn -0.17655580 0.98173076 -0.07094177
vn -0.24892511 0.96465492 -0.08647142
vn -0.30998758 0.94303429 -0.12080625
vn -0.37105846 0.91157681 -0.17704126
vn -0.43126255 0.86542487 -0.25505379
vn -0.47754461 0.80520755 -0.35155648
vn -0.51462740 0.71298391 -0.47624850
vn -0.53947717 0.58687395 -0.60377443
vn -0.38028038 0.60096496 -0.70301348
vn -0.19372927 0.61165231 -0.76704013
vn 0.00000002 0.43465009 -0.90059948
vn 0.18768801 0.42811266 -0.88402075
vn 0.17808357 0.27933776 -0.94353414
vn 0.16973430 0.17196135 -0.97037083
vn 0.16611385 0.10592385 -0.98040122
vn 0.15796275 0.07386135 -0.98467892
vn 0.15256986 0.03932028 -0.98751020
vn 0.13981806 0.04369716 -0.98921257
vn 0.11933836 0.05104015 -0.99154103
vn 0.11215886 0.02879862 -0.99327290
vn 0.12140597 0.01540450 -0.99248338
vn -0.00001459 0.03222995 -0.99948049
vn -0.00000984 0.01780980 -0.99984151
vn -0.11206043 0.02882369 -0.99328327
vn -0.12141103 0.01541944 -0.99248260
vn -0.16454358 -0.13456427 -0.97714782
vn -0.00003076 -0.12714940 -0.99188358
vn 0.16462080 -0.13449304 -0.97714472
vn 0.30838361 -0.12653120 -0.94280946
vn 0.45620748 -0.10002795 -0.88423371
vn 0.56891882 -0.06246160 -0.82001829
vn 0.66070163 -0.01236864 -0.75054675
vn 0.71545833 0.02116536 -0.69833475
vn 0.75247323 0.08021486 -0.65372008
vn 0.76990229 0.15560426 -0.61890060
vn 0.77872747 0.26479018 -0.56874418
vn 0.77803034 0.39280948 -0.49027506
vn 0.75690651 0.52138865 -0.39401337
vn 0.71712637 0.63026744 -0.29747748
vn 0.66707712 0.71525824 -0.20836018
vn 0.61461234 0.77733046 -0.13419770
vn 0.54613137 0.83445299 -0.07368197
vn 0.46353421 0.88526189 -0.03804526
vn 0.36916721 0.92907465 -0.02315567
vn 0.26621857 0.96371424 -0.01956070
vn 0.19170898 0.98140854 0.00921014
vn 0.10178317 0.99444616 0.02677812
vn -0.00000033 0.99974477 0.02259129
vn -0.10178383 0.99444604 0.02677778
vn -0.19136402 0.98147571 0.00922623
vn -0.26621902 0.96371412 -0.01956086
vn -0.36932549 0.92901081 -0.02319198
vn -0.46330610 0.88536841 -0.03834231
vn -0.54590428 0.83456361 -0.07410977
vn -0.61470896 0.77724004 -0.13427940
vn -0.66740221 0.71516079 -0.20765232
vn -0.71715105 0.63026929 -0.29741371
vn -0.75700820 0.52122629 -0.39403263
vn -0.77789473 0.39284092 -0.49046496
vn -0.54639113 0.44004121 -0.71261543
vn -0.37235779 0.43580508 -0.81940448
vn -0.18768789 0.42811245 -0.88402098
vn 0.00000008 0.27663550 -0.96097487
vn 0.00000104 0.17208061 -0.98508292
vn -0.00000760 0.10317110 -0.99466371
vn 0.00000015 0.06511241 -0.99787801
vn -0.00000184 0.04264897 -0.99909008
vn 0.00000016 0.03980141 -0.99920762
vn -0.00000211 0.04915463 -0.99879122
vn -0.11905144 0.05150034 -0.99155152
vn -0.20399585 0.02353458 -0.97868884
vn -0.23132694 0.01711653 -0.97272557
vn -0.30817169 -0.12647051 -0.94288689
vn -0.43089223 -0.40999904 -0.80388594
vn -0.23097202 -0.43031299 -0.87262988
vn -0.00013136 -0.43322301 -0.90128678
vn 0.23091719 -0.43037292 -0.87261462
vn 0.43073076 -0.40812045 -0.80492794
vn 0.62397236 -0.35535249 -0.69597626
vn 0.76774490 -0.25352475 -0.58846670
vn 0.87036461 -0.14181952 -0.47154286
vn 0.89954269 -0.06263727 -0.43231875
vn 0.91582054 0.01960194 -0.40110916
vn 0.93417132 0.09253914 -0.34461656
vn 0.94552451 0.17747001 -0.27292472
vn 0.94207841 0.27540201 -0.19142143
vn 0.92419457 0.36546299 -0.11091114
vn 0.89119410 0.45204151 -0.03783758
vn 0.84735543 0.53085440 0.01350918
vn 0.80020034 0.59674782 0.05976172
vn 0.74970096 0.65421432 0.09976049
vn 0.69957316 0.70108974 0.13809642
vn 0.63905078 0.75105256 0.16593380
vn 0.56385863 0.80329067 0.19180161
vn 0.47334087 0.83040500 0.29389819
vn 0.27230057 0.86644697 0.41847625
vn -0.00000037 0.89289981 0.45025560
vn -0.27241063 0.86639583 0.41851035
vn -0.47322652 0.83052200 0.29375160
vn -0.56382442 0.80334914 0.19165690
vn -0.63883603 0.75126392 0.16580419
vn -0.69961995 0.70101774 0.13822427
vn -0.74985856 0.65381473 0.10118546
vn -0.80034655 0.59654534 0.05982438
vn -0.84745520 0.53069478 0.01351568
vn -0.89117014 0.45209390 -0.03777369
vn -0.92420381 0.36542261 -0.11096706
vn -0.94202864 0.27517441 -0.19199267
vn -0.94580913 0.17626309 -0.27272099
vn -0.77874422 0.26483053 -0.56870222
vn -0.53626323 0.29672471 -0.79017490
vn -0.35492304 0.28744888 -0.88960826
vn -0.17864633 0.27906084 -0.94350976
vn -0.16966240 0.17193463 -0.97038811
vn -0.16641325 0.10546225 -0.98040008
vn -0.15798675 0.07380879 -0.98467892
vn -0.15255293 0.03932089 -0.98751283
vn -0.13990813 0.04374196 -0.98919779
vn -0.26731443 0.04249505 -0.96267194
vn -0.24268945 0.03529904 -0.96946174
vn -0.31965253 0.02111144 -0.94729978
vn -0.45622593 -0.09988519 -0.88424027
vn -0.62390685 -0.35538781 -0.69601715
vn -0.66685128 -0.46404481 -0.58307099
vn -0.47830409 -0.54031658 -0.69230306
vn -0.25646806 -0.58070344 -0.77266264
vn -0.00000260 -0.59160602 -0.80622733
vn 0.25647062 -0.58087486 -0.77253312
vn 0.47822449 -0.53852463 -0.69375247
vn 0.66674918 -0.46224999 -0.58461160
vn 0.82397026 -0.32981703 -0.46075335
vn 0.92355061 -0.20147820 -0.32628366
vn 0.94391590 -0.10489000 -0.31308293
vn 0.95313704 -0.00403498 -0.30251211
vn 0.96632343 0.07970095 -0.24467684
vn 0.97754604 0.14595391 -0.15199104
vn 0.97249883 0.22496021 -0.06032312
vn 0.95892447 0.28305030 0.01861052
vn 0.93371695 0.35020959 0.07433645
vn 0.89777696 0.42774931 0.10501066
vn 0.86106139 0.48417288 0.15540305
vn 0.83102328 0.51441473 0.21160805
vn 0.80561876 0.53186911 0.26094765
vn 0.77198058 0.56123674 0.29842824
vn 0.72723317 0.59646875 0.33964252
vn 0.61227781 0.64098930 0.46287021
vn 0.34702298 0.67542142 0.65067738
vn -0.00000035 0.71200418 0.70217520
vn -0.34702292 0.67542106 0.65067762
vn -0.61232811 0.64074832 0.46313727
vn -0.72723556 0.59646696 0.33964059
vn -0.77197975 0.56131214 0.29828835
vn -0.80591667 0.53129387 0.26119986
vn -0.83132756 0.51406908 0.21125264
vn -0.86095780 0.48444092 0.15514115
vn -0.89794999 0.42746791 0.10467524
vn -0.93361711 0.35045451 0.07443608
vn -0.95877659 0.28355882 0.01849217
vn -0.97249377 0.22502218 -0.06017529
vn -0.97754538 0.14702319 -0.15096127
vn -0.96627045 0.07951102 -0.24494806
vn -0.93411362 0.09254239 -0.34477225
vn -0.77006441 0.15571484 -0.61867112
vn -0.52099794 0.18673783 -0.83288074
vn -0.33967102 0.17907220 -0.92334008
vn -0.32547095 0.11155800 -0.93894804
vn -0.31914785 0.07316489 -0.94487655
vn -0.29927546 0.04938199 -0.95288813
vn -0.38865614 0.02489446 -0.92104667
vn -0.56891066 -0.06236029 -0.82003170
vn -0.76787573 -0.25373033 -0.58820730
vn -0.82485730 -0.32973546 -0.45922214
vn -0.87037498 -0.14215629 -0.47142246
vn -0.92407769 -0.20135459 -0.32486424
vn -0.89953905 -0.06289093 -0.43228954
vn -0.94452697 -0.10508861 -0.31116757
vn -0.95336652 -0.00491775 -0.30177489
vn -0.91592431 0.01895820 -0.40090305
vn -0.75249696 0.08011203 -0.65370524
vn -0.49752757 0.11377884 -0.85995388
vn -0.47204319 0.06514950 -0.87916487
vn -0.44434589 0.04637589 -0.89465404
vn -0.66065860 -0.01253990 -0.75058192
vn -0.71575487 0.02130044 -0.69802672
vt 0.03379058 0.85295248
vt 0.02903926 0.85299391
vt 0.03373897 0.84918243
vt 0.02909088 0.84921342
vt 0.03356331 0.84521598
vt 0.02914249 0.84532970
vt 0.02919417 0.84134263
vt 0.03321218 0.84121871
vt 0.02925616 0.83739692
vt 0.03265440 0.83727300
vt 0.03196239 0.83344090
vt 0.02930778 0.83352351
vt 0.03132194 0.83041447
vt 0.02934902 0.83054882
vt 0.03085714 0.82850361
vt 0.02938008 0.82824540
vt 0.02789264 0.82846230
vt 0.02737623 0.83036280
vt 0.02665323 0.83335829
vt 0.02585786 0.83718002
vt 0.02518641 0.84112573
vt 0.02473199 0.84510243
vt 0.02445310 0.84905851
vt 0.02429819 0.85282862
vt 0.02899783 0.85661942
vt 0.03381127 0.85659867
vt 0.03880017 0.85982138
vt 0.03867626 0.85625792
vt 0.03850060 0.85265303
vt 0.03825277 0.84889322
vt 0.03776735 0.84485447
vt 0.03694099 0.84081590
vt 0.03569120 0.83680820
vt 0.03416246 0.83284181
vt 0.03276807 0.82956749
vt 0.03137362 0.82728481
vt 0.02940076 0.82681990
vt 0.02740716 0.82723308
vt 0.02595078 0.82947451
vt 0.02446347 0.83270752
vt 0.02282106 0.83662218
vt 0.02146804 0.84060931
vt 0.02053833 0.84462732
vt 0.01993930 0.84865570
vt 0.01959842 0.85240507
vt 0.01932990 0.85599971
vt 0.02418458 0.85647482
vt 0.02894628 0.86018288
vt 0.03382164 0.86018288
vt 0.03891378 0.86344701
vt 0.03656911 0.89546710
vt 0.03584611 0.89410371
vt 0.03980213 0.89342201
vt 0.03710621 0.89216179
vt 0.04227077 0.88981712
vt 0.03855234 0.88874292
vt 0.03928565 0.88441497
vt 0.04412996 0.88499337
vt 0.04497694 0.87989092
vt 0.03951293 0.87994248
vt 0.04530751 0.87502581
vt 0.03941994 0.87552172
vt 0.03923404 0.87127638
vt 0.04526627 0.87051201
vt 0.03905838 0.86724812
vt 0.04500800 0.86637008
vt 0.04467743 0.86259991
vt 0.04427462 0.85889178
vt 0.04380983 0.85540062
vt 0.04321074 0.85178542
vt 0.04252898 0.84815991
vt 0.04132056 0.84393531
vt 0.03980213 0.83978301
vt 0.03784996 0.83546537
vt 0.03538125 0.83141643
vt 0.03351169 0.82817310
vt 0.03154921 0.82617950
vt 0.02941101 0.82578701
vt 0.02726256 0.82611758
vt 0.02524840 0.82805938
vt 0.02327561 0.83125120
vt 0.02071398 0.83523822
vt 0.01863783 0.83949381
vt 0.01701617 0.84361511
vt 0.01568371 0.84780872
vt 0.01490896 0.85141349
vt 0.01421689 0.85500801
vt 0.01365917 0.85848892
vt 0.01911300 0.85956317
vt 0.02408123 0.86005902
vt 0.02890497 0.86384982
vt 0.03384220 0.86383939
vt 0.03387326 0.86769217
vt 0.03392481 0.87173092
vt 0.03399711 0.87590378
vt 0.03406947 0.88015938
vt 0.03400748 0.88432211
vt 0.03372859 0.88838142
vt 0.03322243 0.89217210
vt 0.03281962 0.89453751
vt 0.03289192 0.89646912
vt 0.02850210 0.89467180
vt 0.02847117 0.89702678
vt 0.02418458 0.89442390
vt 0.02406054 0.89635539
vt 0.02374041 0.89872080
vt 0.02844011 0.89933020
vt 0.03316050 0.89884472
vt 0.03755033 0.89736772
vt 0.04201257 0.89482671
vt 0.04583436 0.89091200
vt 0.04873681 0.88554090
vt 0.05032742 0.87993223
vt 0.05104023 0.87444740
vt 0.05098855 0.86952043
vt 0.05060631 0.86513060
vt 0.05008989 0.86153603
vt 0.04933583 0.85773492
vt 0.04845792 0.85443997
vt 0.04734236 0.85084540
vt 0.04608219 0.84747821
vt 0.04408872 0.84299529
vt 0.04184728 0.83882242
vt 0.03921335 0.83428788
vt 0.03593903 0.82937121
vt 0.03396624 0.82661343
vt 0.03167313 0.82494003
vt 0.02943176 0.82448548
vt 0.02716970 0.82487810
vt 0.02482491 0.82648939
vt 0.02277982 0.82918531
vt 0.01937121 0.83401930
vt 0.01662367 0.83848149
vt 0.01426857 0.84259248
vt 0.01216149 0.84703398
vt 0.01080834 0.85035992
vt 0.00959986 0.85393381
vt 0.00863928 0.85719782
vt 0.00778198 0.86097831
vt 0.01316338 0.86218679
vt 0.01889604 0.86318868
vt 0.02395731 0.86371553
vt 0.02885323 0.86776447
vt 0.02880162 0.87183422
vt 0.02873969 0.87602782
vt 0.02868807 0.88025242
vt 0.02863639 0.88431168
vt 0.02858471 0.88827813
vt 0.02853310 0.89212048
vt 0.02384370 0.89204818
vt 0.02116847 0.89391768
vt 0.02041447 0.89525020
vt 0.01938152 0.89713007
vt 0.01821434 0.89951611
vt 0.02321362 0.90130311
vt 0.02840918 0.90198481
vt 0.03361505 0.90143740
vt 0.03865557 0.89978468
vt 0.04372715 0.89673758
vt 0.04809635 0.89219278
vt 0.05119514 0.88625348
vt 0.05285811 0.88023168
vt 0.05351912 0.87443709
vt 0.05348819 0.86925191
vt 0.05306470 0.86474842
vt 0.05254822 0.86105061
vt 0.05177354 0.85727012
vt 0.05095756 0.85382020
vt 0.04978007 0.85010171
vt 0.04844754 0.84664148
vt 0.04643338 0.84195208
vt 0.04423332 0.83759320
vt 0.04140317 0.83276951
vt 0.03775691 0.82739842
vt 0.03556722 0.82447523
vt 0.03242719 0.82236809
vt 0.02946275 0.82177937
vt 0.02648788 0.82228547
vt 0.02328592 0.82429957
vt 0.02102380 0.82717109
vt 0.01722276 0.83243901
vt 0.01426857 0.83719039
vt 0.01195490 0.84149760
vt 0.00981676 0.84613538
vt 0.00838107 0.84955430
vt 0.00711054 0.85325211
vt 0.00620156 0.85667098
vt 0.00533396 0.86043078
vt 0.00472456 0.86411828
vt 0.00717246 0.86456251
vt 0.01273989 0.86594647
vt 0.01865845 0.86698979
vt 0.02382302 0.86756831
vt 0.02367842 0.87159657
vt 0.02349251 0.87576950
vt 0.02331686 0.88001478
vt 0.02326530 0.88417739
vt 0.02343052 0.88824707
vt 0.01860684 0.88848472
vt 0.01995998 0.89193457
vt 0.01724338 0.89312238
vt 0.01499164 0.89447552
vt 0.01322531 0.89634508
vt 0.01192384 0.89809072
vt 0.01727432 0.90148902
vt 0.02269715 0.90345150
vt 0.02837812 0.90415388
vt 0.03406947 0.90359610
vt 0.03955417 0.90177822
vt 0.04498738 0.89852452
vt 0.04992467 0.89344257
vt 0.05322992 0.88699722
vt 0.05494463 0.88061392
vt 0.05557471 0.87454033
vt 0.05557471 0.86912793
vt 0.05515122 0.86453152
vt 0.05465537 0.86067867
vt 0.05390137 0.85689831
vt 0.05305439 0.85326242
vt 0.05184584 0.84939933
vt 0.05037909 0.84582549
vt 0.04834431 0.84101212
vt 0.04619586 0.83652932
vt 0.04329335 0.83159202
vt 0.03960585 0.82598329
vt 0.03716826 0.82278132
vt 0.03321218 0.82024032
vt 0.02949368 0.81954831
vt 0.02576494 0.82013702
vt 0.02173656 0.82257468
vt 0.01921623 0.82570440
vt 0.01537376 0.83120978
vt 0.01233702 0.83607483
vt 0.01006466 0.84050602
vt 0.00790590 0.84525740
vt 0.00633579 0.84880030
vt 0.00503439 0.85263240
vt 0.00408411 0.85624760
vt 0.00323713 0.86000729
vt 0.00263798 0.86383939
vt 0.00210094 0.86842561
vt 0.00418741 0.86861152
vt 0.00666636 0.86894202
vt 0.01236808 0.87007821
vt 0.01837956 0.87100780
vt 0.01808005 0.87524271
vt 0.01787346 0.87965328
vt 0.01798713 0.88413608
vt 0.01486772 0.88946593
vt 0.01127314 0.89046782
vt 0.00896978 0.89168668
vt 0.00712091 0.89288491
vt 0.00602597 0.88566482
vt 0.00398088 0.88635677
vt 0.00451797 0.87960160
vt 0.00243145 0.87993223
vt 0.00195628 0.87384832
vt 0.00402218 0.87379670
vt 0.00650114 0.87386900
vt 0.01221317 0.87459201
vt 0.01241970 0.87946743
vt 0.01313245 0.88459063
vt 0.00850499 0.88501412
vt 0.00706923 0.87936407
f 1/1/1 2/2/2 3/3/3
f 2/2/2 4/4/4 3/3/3
f 3/3/3 4/4/4 5/5/5
f 4/4/4 6/6/6 5/5/5
f 6/6/6 7/7/7 5/5/5
f 5/5/5 7/7/7 8/8/8
f 7/7/7 9/9/9 8/8/8
f 8/8/8 9/9/9 10/10/10
f 10/10/10 9/9/9 11/11/11
f 9/9/9 12/12/12 11/11/11
f 11/11/11 12/12/12 13/13/13
f 12/12/12 14/14/14 13/13/13
f 13/13/13 14/14/14 15/15/15
f 15/15/15 14/14/14 16/16/16
f 16/16/16 14/14/14 17/17/17
f 17/17/17 14/14/14 18/18/18
f 14/14/14 12/12/12 18/18/18
f 18/18/18 12/12/12 19/19/19
f 12/12/12 9/9/9 19/19/19
f 19/19/19 9/9/9 20/20/20
f 9/9/9 7/7/7 20/20/20
f 20/20/20 7/7/7 21/21/21
f 21/21/21 7/7/7 22/22/22
f 7/7/7 6/6/6 22/22/22
f 6/6/6 4/4/4 22/22/22
f 22/22/22 4/4/4 23/23/23
f 4/4/4 2/2/2 23/23/23
f 23/23/23 2/2/2 24/24/24
f 24/24/24 2/2/2 25/25/25
f 2/2/2 1/1/1 25/25/25
f 25/25/25 1/1/1 26/26/26
f 27/27/27 26/26/26 28/28/28
f 26/26/26 1/1/1 28/28/28
f 28/28/28 1/1/1 29/29/29
f 1/1/1 3/3/3 29/29/29
f 29/29/29 3/3/3 30/30/30
f 3/3/3 5/5/5 30/30/30
f 30/30/30 5/5/5 31/31/31
f 5/5/5 8/8/8 31/31/31
f 31/31/31 8/8/8 32/32/32
f 8/8/8 10/10/10 32/32/32
f 32/32/32 10/10/10 33/33/33
f 10/10/10 11/11/11 33/33/33
f 33/33/33 11/11/11 34/34/34
f 11/11/11 13/13/13 34/34/34
f 34/34/34 13/13/13 35/35/35
f 35/35/35 13/13/13 36/36/36
f 13/13/13 15/15/15 36/36/36
f 15/15/15 16/16/16 36/36/36
f 36/36/36 16/16/16 37/37/37
f 37/37/37 16/16/16 38/38/38
f 16/16/16 17/17/17 38/38/38
f 17/17/17 18/18/18 38/38/38
f 38/38/38 18/18/18 39/39/39
f 39/39/39 18/18/18 40/40/40
f 18/18/18 19/19/19 40/40/40
f 40/40/40 19/19/19 41/41/41
f 19/19/19 20/20/20 41/41/41
f 41/41/41 20/20/20 42/42/42
f 20/20/20 21/21/21 42/42/42
f 42/42/42 21/21/21 43/43/43
f 21/21/21 22/22/22 43/43/43
f 43/43/43 22/22/22 44/44/44
f 22/22/22 23/23/23 44/44/44
f 44/44/44 23/23/23 45/45/45
f 23/23/23 24/24/24 45/45/45
f 45/45/45 24/24/24 46/46/46
f 46/46/46 24/24/24 47/47/47
f 24/24/24 25/25/25 47/47/47
f 47/47/47 25/25/25 48/48/48
f 25/25/25 26/26/26 48/48/48
f 48/48/48 26/26/26 49/49/49
f 26/26/26 27/27/27 49/49/49
f 49/49/49 27/27/27 50/50/50
f 51/51/51 52/52/52 53/53/53
f 52/52/52 54/54/54 53/53/53
f 53/53/53 54/54/54 55/55/55
f 54/54/54 56/56/56 55/55/55
f 56/56/56 57/57/57 55/55/55
f 55/55/55 57/57/57 58/58/58
f 58/58/58 57/57/57 59/59/59
f 57/57/57 60/60/60 59/59/59
f 59/59/59 60/60/60 61/61/61
f 60/60/60 62/62/62 61/61/61
f 62/62/62 63/63/63 61/61/61
f 61/61/61 63/63/63 64/64/64
f 63/63/63 65/65/65 64/64/64
f 64/64/64 65/65/65 66/66/66
f 65/65/65 50/50/50 66/66/66
f 66/66/66 50/50/50 67/67/67
f 50/50/50 27/27/27 67/67/67
f 67/67/67 27/27/27 68/68/68
f 27/27/27 28/28/28 68/68/68
f 68/68/68 28/28/28 69/69/69
f 28/28/28 29/29/29 69/69/69
f 69/69/69 29/29/29 70/70/70
f 29/29/29 30/30/30 70/70/70
f 70/70/70 30/30/30 71/71/71
f 30/30/30 31/31/31 71/71/71
f 71/71/71 31/31/31 72/72/72
f 31/31/31 32/32/32 72/72/72
f 72/72/72 32/32/32 73/73/73
f 32/32/32 33/33/33 73/73/73
f 73/73/73 33/33/33 74/74/74
f 74/74/74 33/33/33 75/75/75
f 33/33/33 34/34/34 75/75/75
f 75/75/75 34/34/34 76/76/76
f 34/34/34 35/35/35 76/76/76
f 76/76/76 35/35/35 77/77/77
f 35/35/35 36/36/36 77/77/77
f 36/36/36 37/37/37 77/77/77
f 77/77/77 37/37/37 78/78/78
f 78/78/78 37/37/37 79/79/79
f 37/37/37 38/38/38 79/79/79
f 38/38/38 39/39/39 79/79/79
f 79/79/79 39/39/39 80/80/80
f 39/39/39 40/40/40 80/80/80
f 80/80/80 40/40/40 81/81/81
f 40/40/40 41/41/41 81/81/81
f 81/81/81 41/41/41 82/82/82
f 82/82/82 41/41/41 83/83/83
f 41/41/41 42/42/42 83/83/83
f 83/83/83 42/42/42 84/84/84
f 42/42/42 43/43/43 84/84/84
f 84/84/84 43/43/43 85/85/85
f 43/43/43 44/44/44 85/85/85
f 85/85/85 44/44/44 86/86/86
f 44/44/44 45/45/45 86/86/86
f 86/86/86 45/45/45 87/87/87
f 45/45/45 46/46/46 87/87/87
f 87/87/87 46/46/46 88/88/88
f 88/88/88 46/46/46 89/89/89
f 46/46/46 47/47/47 89/89/89
f 89/89/89 47/47/47 90/90/90
f 47/47/47 48/48/48 90/90/90
f 90/90/90 48/48/48 91/91/91
f 48/48/48 49/49/49 91/91/91
f 91/91/91 49/49/49 92/92/92
f 49/49/49 50/50/50 92/92/92
f 50/50/50 65/65/65 92/92/92
f 92/92/92 65/65/65 93/93/93
f 65/65/65 63/63/63 93/93/93
f 93/93/93 63/63/63 94/94/94
f 63/63/63 62/62/62 94/94/94
f 94/94/94 62/62/62 95/95/95
f 95/95/95 62/62/62 96/96/96
f 62/62/62 60/60/60 96/96/96
f 96/96/96 60/60/60 97/97/97
f 60/60/60 57/57/57 97/97/97
f 97/97/97 57/57/57 98/98/98
f 57/57/57 56/56/56 98/98/98
f 56/56/56 54/54/54 98/98/98
f 98/98/98 54/54/54 99/99/99
f 54/54/54 52/52/52 99/99/99
f 99/99/99 52/52/52 100/100/100
f 52/52/52 51/51/51 100/100/100
f 51/51/51 101/101/101 100/100/100
f 100/100/100 101/101/101 102/102/102
f 101/101/101 103/103/103 102/102/102
f 104/104/104 102/102/102 105/105/105
f 102/102/102 103/103/103 105/105/105
f 105/105/105 103/103/103 106/106/106
f 106/106/106 103/103/103 107/107/107
f 107/107/107 103/103/103 108/108/108
f 103/103/103 101/101/101 108/108/108
f 108/108/108 101/101/101 109/109/109
f 101/101/101 51/51/51 109/109/109
f 109/109/109 51/51/51 110/110/110
f 51/51/51 53/53/53 110/110/110
f 110/110/110 53/53/53 111/111/111
f 53/53/53 55/55/55 111/111/111
f 111/111/111 55/55/55 112/112/112
f 55/55/55 58/58/58 112/112/112
f 112/112/112 58/58/58 113/113/113
f 58/58/58 59/59/59 113/113/113
f 59/59/59 61/61/61 113/113/113
f 113/113/113 61/61/61 114/114/114
f 61/61/61 64/64/64 114/114/114
f 114/114/114 64/64/64 115/115/115
f 64/64/64 66/66/66 115/115/115
f 115/115/115 66/66/66 116/116/116
f 66/66/66 67/67/67 116/116/116
f 116/116/116 67/67/67 117/117/117
f 67/67/67 68/68/68 117/117/117
f 117/117/117 68/68/68 118/118/118
f 68/68/68 69/69/69 118/118/118
f 118/118/118 69/69/69 119/119/119
f 69/69/69 70/70/70 119/119/119
f 119/119/119 70/70/70 120/120/120
f 70/70/70 71/71/71 120/120/120
f 120/120/120 71/71/71 121/121/121
f 121/121/121 71/71/71 122/122/122
f 71/71/71 72/72/72 122/122/122
f 122/122/122 72/72/72 123/123/123
f 72/72/72 73/73/73 123/123/123
f 123/123/123 73/73/73 124/124/124
f 73/73/73 74/74/74 124/124/124
f 124/124/124 74/74/74 125/125/125
f 74/74/74 75/75/75 125/125/125
f 125/125/125 75/75/75 126/126/126
f 75/75/75 76/76/76 126/126/126
f 126/126/126 76/76/76 127/127/127
f 76/76/76 77/77/77 127/127/127
f 77/77/77 78/78/78 127/127/127
f 127/127/127 78/78/78 128/128/128
f 128/128/128 78/78/78 129/129/129
f 78/78/78 79/79/79 129/129/129
f 79/79/79 80/80/80 129/129/129
f 129/129/129 80/80/80 130/130/130
f 80/80/80 81/81/81 130/130/130
f 130/130/130 81/81/81 131/131/131
f 81/81/81 82/82/82 131/131/131
f 131/131/131 82/82/82 132/132/132
f 82/82/82 83/83/83 132/132/132
f 132/132/132 83/83/83 133/133/133
f 83/83/83 84/84/84 133/133/133
f 133/133/133 84/84/84 134/134/134
f 84/84/84 85/85/85 134/134/134
f 134/134/134 85/85/85 135/135/135
f 135/135/135 85/85/85 136/136/136
f 85/85/85 86/86/86 136/136/136
f 136/136/136 86/86/86 137/137/137
f 86/86/86 87/87/87 137/137/137
f 137/137/137 87/87/87 138/138/138
f 87/87/87 88/88/88 138/138/138
f 138/138/138 88/88/88 139/139/139
f 139/139/139 88/88/88 140/140/140
f 88/88/88 89/89/89 140/140/140
f 140/140/140 89/89/89 141/141/141
f 89/89/89 90/90/90 141/141/141
f 141/141/141 90/90/90 142/142/142
f 90/90/90 91/91/91 142/142/142
f 142/142/142 91/91/91 143/143/143
f 91/91/91 92/92/92 143/143/143
f 92/92/92 93/93/93 143/143/143
f 143/143/143 93/93/93 144/144/144
f 93/93/93 94/94/94 144/144/144
f 144/144/144 94/94/94 145/145/145
f 94/94/94 95/95/95 145/145/145
f 145/145/145 95/95/95 146/146/146
f 95/95/95 96/96/96 146/146/146
f 146/146/146 96/96/96 147/147/147
f 96/96/96 97/97/97 147/147/147
f 97/97/97 98/98/98 147/147/147
f 147/147/147 98/98/98 148/148/148
f 148/148/148 98/98/98 149/149/149
f 98/98/98 99/99/99 149/149/149
f 99/99/99 100/100/100 149/149/149
f 100/100/100 102/102/102 149/149/149
f 102/102/102 104/104/104 149/149/149
f 149/149/149 104/104/104 150/150/150
f 150/150/150 104/104/104 151/151/151
f 151/151/151 104/104/104 152/152/152
f 104/104/104 105/105/105 152/152/152
f 152/152/152 105/105/105 153/153/153
f 105/105/105 106/106/106 153/153/153
f 153/153/153 106/106/106 154/154/154
f 154/154/154 106/106/106 155/155/155
f 106/106/106 107/107/107 155/155/155
f 155/155/155 107/107/107 156/156/156
f 156/156/156 107/107/107 157/157/157
f 107/107/107 108/108/108 157/157/157
f 157/157/157 108/108/108 158/158/158
f 108/108/108 109/109/109 158/158/158
f 109/109/109 110/110/110 158/158/158
f 158/158/158 110/110/110 159/159/159
f 110/110/110 111/111/111 159/159/159
f 159/159/159 111/111/111 160/160/160
f 111/111/111 112/112/112 160/160/160
f 160/160/160 112/112/112 161/161/161
f 161/161/161 112/112/112 162/162/162
f 112/112/112 113/113/113 162/162/162
f 162/162/162 113/113/113 163/163/163
f 113/113/113 114/114/114 163/163/163
f 163/163/163 114/114/114 164/164/164
f 114/114/114 115/115/115 164/164/164
f 164/164/164 115/115/115 165/165/165
f 115/115/115 116/116/116 165/165/165
f 165/165/165 116/116/116 166/166/166
f 116/116/116 117/117/117 166/166/166
f 166/166/166 117/117/117 167/167/167
f 117/117/117 118/118/118 167/167/167
f 167/167/167 118/118/118 168/168/168
f 118/118/118 119/119/119 168/168/168
f 119/119/119 120/120/120 168/168/168
f 168/168/168 120/120/120 169/169/169
f 120/120/120 121/121/121 169/169/169
f 169/169/169 121/121/121 170/170/170
f 121/121/121 122/122/122 170/170/170
f 170/170/170 122/122/122 171/171/171
f 122/122/122 123/123/123 171/171/171
f 171/171/171 123/123/123 172/172/172
f 123/123/123 124/124/124 172/172/172
f 172/172/172 124/124/124 173/173/173
f 124/124/124 125/125/125 173/173/173
f 173/173/173 125/125/125 174/174/174
f 125/125/125 126/126/126 174/174/174
f 174/174/174 126/126/126 175/175/175
f 126/126/126 127/127/127 175/175/175
f 175/175/175 127/127/127 176/176/176
f 127/127/127 128/128/128 176/176/176
f 176/176/176 128/128/128 177/177/177
f 177/177/177 128/128/128 178/178/178
f 128/128/128 129/129/129 178/178/178
f 178/178/178 129/129/129 179/179/179
f 129/129/129 130/130/130 179/179/179
f 179/179/179 130/130/130 180/180/180
f 130/130/130 131/131/131 180/180/180
f 180/180/180 131/131/131 181/181/181
f 131/131/131 132/132/132 181/181/181
f 181/181/181 132/132/132 182/182/182
f 132/132/132 133/133/133 182/182/182
f 182/182/182 133/133/133 183/183/183
f 133/133/133 134/134/134 183/183/183
f 183/183/183 134/134/134 184/184/184
f 134/134/134 135/135/135 184/184/184
f 184/184/184 135/135/135 185/185/185
f 135/135/135 136/136/136 185/185/185
f 185/185/185 136/136/136 186/186/186
f 136/136/136 137/137/137 186/186/186
f 137/137/137 138/138/138 186/186/186
f 186/186/186 138/138/138 187/187/187
f 138/138/138 139/139/139 187/187/187
f 187/187/187 139/139/139 188/188/188
f 189/189/189 188/188/188 190/190/190
f 188/188/188 139/139/139 190/190/190
f 139/139/139 140/140/140 190/190/190
f 190/190/190 140/140/140 191/191/191
f 140/140/140 141/141/141 191/191/191
f 191/191/191 141/141/141 192/192/192
f 141/141/141 142/142/142 192/192/192
f 192/192/192 142/142/142 193/193/193
f 142/142/142 143/143/143 193/193/193
f 143/143/143 144/144/144 193/193/193
f 193/193/193 144/144/144 194/194/194
f 144/144/144 145/145/145 194/194/194
f 194/194/194 145/145/145 195/195/195
f 145/145/145 146/146/146 195/195/195
f 195/195/195 146/146/146 196/196/196
f 146/146/146 147/147/147 196/196/196
f 196/196/196 147/147/147 197/197/197
f 197/197/197 147/147/147 198/198/198
f 147/147/147 148/148/148 198/198/198
f 148/148/148 149/149/149 198/198/198
f 149/149/149 150/150/150 198/198/198
f 199/199/199 198/198/198 200/200/200
f 198/198/198 150/150/150 200/200/200
f 150/150/150 151/151/151 200/200/200
f 200/200/200 151/151/151 201/201/201
f 151/151/151 152/152/152 201/201/201
f 201/201/201 152/152/152 202/202/202
f 152/152/152 153/153/153 202/202/202
f 153/153/153 154/154/154 202/202/202
f 202/202/202 154/154/154 203/203/203
f 204/204/204 203/203/203 205/205/205
f 203/203/203 154/154/154 205/205/205
f 205/205/205 154/154/154 206/206/206
f 154/154/154 155/155/155 206/206/206
f 155/155/155 156/156/156 206/206/206
f 206/206/206 156/156/156 207/207/207
f 207/207/207 156/156/156 208/208/208
f 156/156/156 157/157/157 208/208/208
f 157/157/157 158/158/158 208/208/208
f 208/208/208 158/158/158 209/209/209
f 158/158/158 159/159/159 209/209/209
f 209/209/209 159/159/159 210/210/210
f 159/159/159 160/160/160 210/210/210
f 210/210/210 160/160/160 211/211/211
f 160/160/160 161/161/161 211/211/211
f 211/211/211 161/161/161 212/212/212
f 161/161/161 162/162/162 212/212/212
f 212/212/212 162/162/162 213/213/213
f 213/213/213 162/162/162 214/214/214
f 162/162/162 163/163/163 214/214/214
f 214/214/214 163/163/163 215/215/215
f 163/163/163 164/164/164 215/215/215
f 215/215/215 164/164/164 216/216/216
f 164/164/164 165/165/165 216/216/216
f 216/216/216 165/165/165 217/217/217
f 165/165/165 166/166/166 217/217/217
f 217/217/217 166/166/166 218/218/218
f 166/166/166 167/167/167 218/218/218
f 167/167/167 168/168/168 218/218/218
f 218/218/218 168/168/168 219/219/219
f 168/168/168 169/169/169 219/219/219
f 219/219/219 169/169/169 220/220/220
f 169/169/169 170/170/170 220/220/220
f 220/220/220 170/170/170 221/221/221
f 170/170/170 171/171/171 221/221/221
f 221/221/221 171/171/171 222/222/222
f 171/171/171 172/172/172 222/222/222
f 222/222/222 172/172/172 223/223/223
f 172/172/172 173/173/173 223/223/223
f 223/223/223 173/173/173 224/224/224
f 173/173/173 174/174/174 224/224/224
f 224/224/224 174/174/174 225/225/225
f 174/174/174 175/175/175 225/225/225
f 225/225/225 175/175/175 226/226/226
f 175/175/175 176/176/176 226/226/226
f 226/226/226 176/176/176 227/227/227
f 176/176/176 177/177/177 227/227/227
f 227/227/227 177/177/177 228/228/228
f 228/228/228 177/177/177 229/229/229
f 177/177/177 178/178/178 229/229/229
f 229/229/229 178/178/178 230/230/230
f 178/178/178 179/179/179 230/230/230
f 230/230/230 179/179/179 231/231/231
f 179/179/179 180/180/180 231/231/231
f 231/231/231 180/180/180 232/232/232
f 180/180/180 181/181/181 232/232/232
f 232/232/232 181/181/181 233/233/233
f 181/181/181 182/182/182 233/233/233
f 233/233/233 182/182/182 234/234/234
f 182/182/182 183/183/183 234/234/234
f 234/234/234 183/183/183 235/235/235
f 183/183/183 184/184/184 235/235/235
f 235/235/235 184/184/184 236/236/236
f 184/184/184 185/185/185 236/236/236
f 236/236/236 185/185/185 237/237/237
f 185/185/185 186/186/186 237/237/237
f 237/237/237 186/186/186 238/238/238
f 186/186/186 187/187/187 238/238/238
f 187/187/187 188/188/188 238/238/238
f 238/238/238 188/188/188 239/239/239
f 188/188/188 189/189/189 239/239/239
f 239/239/239 189/189/189 240/240/240
f 241/241/241 240/240/240 242/242/242
f 240/240/240 189/189/189 242/242/242
f 242/242/242 189/189/189 243/243/243
f 189/189/189 190/190/190 243/243/243
f 190/190/190 191/191/191 243/243/243
f 243/243/243 191/191/191 244/244/244
f 191/191/191 192/192/192 244/244/244
f 244/244/244 192/192/192 245/245/245
f 192/192/192 193/193/193 245/245/245
f 193/193/193 194/194/194 245/245/245
f 245/245/245 194/194/194 246/246/246
f 194/194/194 195/195/195 246/246/246
f 195/195/195 196/196/196 246/246/246
f 246/246/246 196/196/196 247/247/247
f 196/196/196 197/197/197 247/247/247
f 247/247/247 197/197/197 248/248/248
f 197/197/197 198/198/198 248/248/248
f 198/198/198 199/199/199 248/248/248
f 248/248/248 199/199/199 249/249/249
f 199/199/199 200/200/200 249/249/249
f 200/200/200 201/201/201 249/249/249
f 249/249/249 201/201/201 250/250/250
f 201/201/201 202/202/202 250/250/250
f 202/202/202 203/203/203 250/250/250
f 250/250/250 203/203/203 251/251/251
f 203/203/203 204/204/204 251/251/251
f 204/204/204 252/252/252 251/251/251
f 251/251/251 252/252/252 253/253/253
f 252/252/252 254/254/254 253/253/253
f 253/253/253 254/254/254 255/255/255
f 254/254/254 256/256/256 255/255/255
f 256/256/256 257/257/257 255/255/255
f 255/255/255 257/257/257 258/258/258
f 257/257/257 241/241/241 258/258/258
f 241/241/241 242/242/242 258/258/258
f 258/258/258 242/242/242 259/259/259
f 242/242/242 243/243/243 259/259/259
f 243/243/243 244/244/244 259/259/259
f 259/259/259 244/244/244 260/260/260
f 244/244/244 245/245/245 260/260/260
f 245/245/245 246/246/246 260/260/260
f 246/246/246 247/247/247 260/260/260
f 260/260/260 247/247/247 261/261/261
f 247/247/247 248/248/248 261/261/261
f 261/261/261 248/248/248 262/262/262
f 248/248/248 249/249/249 262/262/262
f 262/262/262 249/249/249 263/263/263
f 249/249/249 250/250/250 263/263/263
f 250/250/250 251/251/251 263/263/263
f 251/251/251 253/253/253 263/263/263
f 253/253/253 255/255/255 263/263/263
f 263/263/263 255/255/255 264/264/264
f 255/255/255 258/258/258 264/264/264
f 258/258/258 259/259/259 264/264/264
f 259/259/259 260/260/260 264/264/264
f 260/260/260 261/261/261 264/264/264
f 261/261/261 262/262/262 264/264/264
f 263/263/263 264/264/264 262/262/262

